<?xml version="1.0" encoding="UTF-8" standalone="no"?>
<!-- Created with Inkscape (http://www.inkscape.org/) -->
<svg
   xmlns:svg="http://www.w3.org/2000/svg"
   xmlns="http://www.w3.org/2000/svg"
   xmlns:xlink="http://www.w3.org/1999/xlink"
   version="1.0"
   width="244"
   height="354"
   viewBox="0 0 244 354"
   id="svg1359"
   xml:space="preserve">
<defs
   id="defs1361">
</defs>
<path
   d="M 122,0 C 82,0 41.746,6.06 0,27.667 L 0,102 C 43.854,80.934 71.334,74 122,74 C 172.666,74 200.146,80.934 244,102 L 244,27.667 C 202.254,6.06 162,0 122,0 z "
   style="fill-rule:evenodd"
   id="path1363" />
<path
   d="M 122,10.831 C 85.716,10.831 49.201,17.155 11.334,32.884 L 11.334,85 C 51.114,69.663 76.04,64.615 122,64.615 C 167.96,64.615 192.886,69.663 232.666,85 L 232.666,32.884 C 194.799,17.154 158.284,10.831 122,10.831 z "
   style="fill:none;fill-rule:evenodd;stroke:#ffffff;stroke-width:2.5;stroke-miterlimit:3.86369991"
   id="path1365" />
<path
   d="M 122,353.334 C 112.666,299.334 30,356.666 24,260.666 L 24,156.666 C 24,135.333 17.392,122.681 3.333,104 L 122,104 L 240.666,104 C 226.607,122.681 220,135.333 220,156.666 L 220,260.666 C 214,356.666 131.334,299.334 122,353.334 z "
   style="fill-rule:evenodd"
   id="path1367" />
<path
   d="M 71.46,138.569 C 74.827,130.85 85.758,127.486 104.252,128.479 C 138.6,129.293 161.162,144.289 171.937,173.464 C 183.454,195.804 195.646,207.155 208.511,207.518 C 211.454,218.87 200.114,229.664 183.707,231.061 C 186.14,245.078 186.279,253.346 184.128,255.867 C 175.72,257.129 173.197,251.242 165.631,249.139 C 170.465,263.971 171.166,273.22 167.733,276.887 C 165.375,278.231 160.331,275.708 152.598,269.32 C 152.513,281.876 151.952,288.883 150.916,290.341 C 145.719,290.288 141.654,287.345 138.725,281.512 C 135.91,293.453 131.565,302.283 125.692,307.998 C 123.778,307.772 120.975,303.709 117.284,295.806 C 108.28,304.864 100.924,309.139 96.474,307.368 C 96.684,247.879 105.513,251.242 106.564,238.209 L 104.882,221.393 C 104.332,216.699 108.186,212.214 115.182,207.94 C 120.246,204.523 121.298,201.3 119.596,195.748 C 116.669,189.458 113.08,188.601 100.889,177.249 C 96.456,171.019 90.571,160.368 83.232,145.297 C 80.129,141.842 76.206,139.6 71.46,138.569 z "
   style="fill:#ffffff;fill-rule:evenodd"
   id="path1369" />
<path
   d="M 32.362,165.057 C 35.874,148.036 47.925,139.907 68.517,140.672 C 75.559,142.823 80.253,144.364 81.339,147.819 C 84.54,155.683 90.974,161.892 97.314,176.618 C 100.047,182.504 108.456,185.236 116.022,194.906 C 119.162,201.518 117.06,205.723 109.716,207.518 C 105.512,210.46 104.862,212.624 102.569,215.085 C 100.775,210.524 95.945,207.019 87.817,204.829 C 77.5,202 78,204 66.205,202.264 C 51.807,196.765 42.872,189.861 46.866,182.504 L 57.586,191.963 C 62.849,193.886 70.619,192.804 79.447,194.485 C 88.374,197.018 93.558,196.738 95.002,193.644 C 96.606,189.24 94.505,185.316 88.696,181.873 C 81.743,180.16 73.474,175.535 63.892,167.999 C 60.626,163.679 56.562,160.876 51.7,159.591 C 46.753,159.307 40.307,161.129 32.362,165.057 z "
   style="fill:#f5ba00;fill-rule:evenodd"
   id="path1371" />
<path
   d="M 59.269,176.618 C 50.44,168.63 47.917,173.465 56.326,180.611 C 65.473,188.129 75.703,193.052 87.015,193.382 C 92.901,194.224 96.053,187.758 87.646,185.236 C 78.787,183.569 69.778,181.873 59.269,176.618 z "
   style="fill:#c50e1f;fill-rule:evenodd"
   id="path1373" />
<path
   d="M 134.316,153.594 C 126.67,153.211 122.094,151.905 118.61,149.401 C 122.053,152.685 120.713,156.315 116.136,157.428 C 110.047,157.8 105.513,155.945 102.532,151.862 C 100.356,148.375 101.054,146.475 104.797,145.675 L 94.988,141.473 C 102.424,148.411 102.589,152.946 95.483,155.077 C 106.495,156.028 116.635,159.327 125.905,164.972 C 121.701,159.035 121.454,156.562 124.422,155.077 C 125.856,153.827 128.494,153.662 134.316,153.594 z "
   style="fill-rule:evenodd"
   id="path1375" />
<path
   d="M 121.207,150.873 C 116.314,146.899 110.625,145.085 104.141,145.431 C 105.73,148.155 107.447,148.198 107.331,151.277 C 107.824,153.495 107.698,153.495 110.572,155.326 C 119.724,153.841 112.744,149.028 121.207,150.873 z "
   style="fill-rule:evenodd"
   id="path1377" />
<g
   id="g1379">
	<defs
   id="defs1381">
		<path
   d="M 43.622,64.985 C 43.234,63.199 42.849,61.408 42.462,59.625 C 39.75,60.405 37.041,61.225 34.337,62.084 C 33.959,64.102 33.581,66.123 33.204,68.141 C 30.767,68.926 28.337,69.746 25.909,70.593 C 28.803,58.071 31.7,45.594 34.606,33.165 C 37.216,32.337 39.832,31.547 42.451,30.793 C 45.347,41.469 48.248,52.189 51.153,62.958 C 48.638,63.599 46.127,64.273 43.622,64.985 L 43.622,64.985 z M 38.424,40.935 C 37.577,45.33 36.732,49.731 35.887,54.134 C 37.579,53.605 39.273,53.092 40.97,52.595 C 40.121,48.706 39.272,44.817 38.424,40.935 L 38.424,40.935 z M 53.763,62.304 C 53.763,50.794 53.763,39.286 53.763,27.777 C 56.173,27.187 58.585,26.626 61,26.097 C 61,37.604 61,49.114 61,60.623 C 58.585,61.152 56.172,61.712 53.763,62.304 L 53.763,62.304 z M 84.321,39.894 C 83.698,40.525 82.847,41.098 81.765,41.615 C 82.626,41.916 83.255,42.254 83.65,42.625 C 83.916,42.873 84.302,43.427 84.81,44.29 C 85.314,45.152 85.654,45.825 85.825,46.309 C 87.002,49.488 88.18,52.676 89.357,55.872 C 86.621,56.189 83.886,56.549 81.156,56.949 C 79.861,53.617 78.568,50.297 77.276,46.984 C 76.785,45.696 76.347,44.88 75.963,44.534 C 75.441,44.087 74.848,43.918 74.189,44.03 C 73.975,44.068 73.761,44.104 73.547,44.141 C 73.547,48.816 73.547,53.49 73.547,58.162 C 71.125,58.581 68.706,59.033 66.287,59.515 C 66.287,48.007 66.287,36.499 66.287,24.99 C 70.307,24.188 74.33,23.471 78.358,22.843 C 80.6,22.494 82.315,22.534 83.5,22.937 C 84.686,23.339 85.642,24.264 86.369,25.701 C 87.096,27.139 87.46,28.959 87.46,31.156 C 87.46,33.07 87.181,34.755 86.623,36.217 C 86.064,37.674 85.298,38.898 84.321,39.894 L 84.321,39.894 z M 79.456,30.542 C 78.974,30.02 78.068,29.858 76.741,30.075 C 75.676,30.247 74.611,30.425 73.547,30.609 C 73.547,32.946 73.547,35.283 73.547,37.619 C 74.569,37.443 75.59,37.27 76.613,37.105 C 76.944,37.052 77.587,36.791 78.54,36.328 C 79.022,36.113 79.415,35.692 79.72,35.066 C 80.027,34.439 80.179,33.75 80.179,32.997 C 80.179,31.884 79.938,31.064 79.456,30.542 L 79.456,30.542 z M 108.545,35.944 C 110.236,36.458 111.479,37.437 112.275,38.86 C 113.073,40.281 113.472,42.094 113.472,44.288 C 113.472,46.078 113.187,47.693 112.618,49.139 C 112.05,50.584 111.271,51.741 110.284,52.615 C 109.673,53.158 108.75,53.573 107.517,53.873 C 105.876,54.273 104.788,54.498 104.252,54.533 C 100.059,54.799 95.868,55.158 91.682,55.61 C 91.682,44.101 91.682,32.593 91.682,21.084 C 96.226,20.593 100.772,20.212 105.323,19.939 C 107.598,19.805 109.345,20.552 110.563,22.151 C 111.782,23.753 112.392,25.776 112.392,28.214 C 112.392,30.258 111.955,32.027 111.087,33.522 C 110.509,34.519 109.66,35.323 108.545,35.944 L 108.545,35.944 z M 104.576,27.844 C 104.131,27.308 103.354,27.072 102.248,27.152 C 101.175,27.228 100.101,27.309 99.027,27.397 C 99.027,29.584 99.027,31.77 99.027,33.954 C 100.085,33.868 101.142,33.786 102.199,33.712 C 103.34,33.632 104.131,33.294 104.576,32.693 C 105.022,32.092 105.246,31.249 105.246,30.161 C 105.246,29.156 105.022,28.382 104.576,27.844 L 104.576,27.844 z M 105.406,40.991 C 104.897,40.403 104.003,40.146 102.726,40.233 C 101.494,40.318 100.26,40.412 99.027,40.513 C 99.027,42.837 99.027,45.161 99.027,47.487 C 100.265,47.383 101.506,47.291 102.744,47.205 C 103.998,47.119 104.883,46.742 105.398,46.061 C 105.913,45.381 106.17,44.493 106.17,43.399 C 106.171,42.381 105.916,41.579 105.406,40.991 L 105.406,40.991 z M 139.355,46.899 C 138.429,49.429 137.089,51.361 135.34,52.717 C 133.59,54.073 131.407,54.707 128.793,54.643 C 126.139,54.582 123.939,53.947 122.198,52.704 C 120.458,51.462 119.047,49.514 117.964,46.842 C 116.884,44.171 116.343,40.821 116.343,36.784 C 116.343,31.144 117.413,26.723 119.555,23.559 C 121.699,20.398 124.682,18.82 128.505,18.907 C 132.425,18.994 135.443,20.683 137.565,23.886 C 139.685,27.092 140.745,31.492 140.745,37.053 C 140.745,41.093 140.282,44.374 139.355,46.899 L 139.355,46.899 z M 132.128,29.331 C 131.234,27.795 130.022,27.006 128.49,26.973 C 127.021,26.939 125.844,27.688 124.954,29.202 C 124.065,30.719 123.621,33.244 123.621,36.765 C 123.621,40.256 124.062,42.767 124.947,44.302 C 125.83,45.836 127.033,46.613 128.554,46.648 C 130.117,46.683 131.327,45.978 132.185,44.512 C 133.04,43.049 133.469,40.387 133.469,36.517 C 133.47,33.263 133.022,30.864 132.128,29.331 L 132.128,29.331 z M 162.867,40.296 C 162.245,40.756 161.393,41.088 160.31,41.303 C 161.172,41.845 161.802,42.36 162.197,42.842 C 162.462,43.163 162.848,43.825 163.353,44.83 C 163.86,45.832 164.198,46.601 164.368,47.13 C 165.544,50.64 166.721,54.156 167.895,57.679 C 165.166,57.234 162.435,56.829 159.701,56.465 C 158.406,52.773 157.111,49.09 155.816,45.415 C 155.323,43.99 154.885,43.05 154.502,42.598 C 153.978,42.005 153.384,41.67 152.72,41.598 C 152.506,41.576 152.293,41.553 152.077,41.529 C 152.077,46.202 152.077,50.877 152.077,55.551 C 149.647,55.292 147.217,55.066 144.785,54.87 C 144.785,43.362 144.785,31.853 144.785,20.344 C 148.826,20.668 152.865,21.08 156.9,21.578 C 159.144,21.856 160.859,22.377 162.046,23.109 C 163.231,23.843 164.185,25.033 164.911,26.674 C 165.638,28.316 166.001,30.237 166.001,32.433 C 166.001,34.348 165.722,35.957 165.165,37.261 C 164.609,38.564 163.843,39.576 162.867,40.296 L 162.867,40.296 z M 158,29.585 C 157.518,28.929 156.611,28.515 155.28,28.358 C 154.214,28.233 153.145,28.114 152.077,28 C 152.077,30.337 152.077,32.675 152.077,35.009 C 153.102,35.119 154.128,35.234 155.152,35.354 C 155.484,35.394 156.127,35.312 157.082,35.117 C 157.565,35.037 157.959,34.726 158.265,34.184 C 158.57,33.643 158.724,32.996 158.724,32.245 C 158.724,31.129 158.481,30.242 158,29.585 L 158,29.585 z M 185.82,61.188 C 182.907,54.192 179.99,47.24 177.067,40.335 C 177.067,46.667 177.067,52.998 177.067,59.329 C 174.803,58.886 172.536,58.467 170.266,58.078 C 170.266,46.571 170.266,35.062 170.266,23.554 C 172.519,23.94 174.769,24.355 177.021,24.795 C 179.957,31.736 182.892,38.726 185.82,45.759 C 185.82,39.394 185.82,33.028 185.82,26.662 C 188.09,27.179 190.356,27.725 192.62,28.299 C 192.62,39.807 192.62,51.317 192.62,62.825 C 190.356,62.25 188.09,61.705 185.82,61.188 L 185.82,61.188 z M 216.918,62.245 C 216.918,64.855 216.918,67.47 216.918,70.082 C 210.431,67.847 203.916,65.842 197.38,64.073 C 197.38,52.564 197.38,41.055 197.38,29.545 C 203.798,31.285 210.194,33.248 216.566,35.435 C 216.566,37.898 216.566,40.361 216.566,42.823 C 212.582,41.454 208.588,40.174 204.586,38.983 C 204.586,40.805 204.586,42.625 204.586,44.447 C 208.302,45.554 212.009,46.738 215.71,47.995 C 215.71,50.344 215.71,52.694 215.71,55.043 C 212.009,53.785 208.302,52.603 204.586,51.496 C 204.586,53.758 204.586,56.019 204.586,58.28 C 208.706,59.508 212.818,60.83 216.918,62.245 L 216.918,62.245 z "
   id="XMLID_6_" />
	</defs>
	<use
   style="fill:#f5ba00"
   id="use1384"
   x="0"
   y="0"
   width="244"
   height="354"
   xlink:href="#XMLID_6_" />
	<clipPath
   id="XMLID_9_">
		<use
   id="use1387"
   x="0"
   y="0"
   width="244"
   height="354"
   xlink:href="#XMLID_6_" />
	</clipPath>
</g>
<line
   fill="#F81C23"
   x1="240.666"
   y1="104"
   x2="244"
   y2="102"
   id="line1389"
   style="fill:#f81c23" />
</svg>