<?xml version="1.0" encoding="UTF-8"?>
<svg xmlns="http://www.w3.org/2000/svg" xmlns:xlink="http://www.w3.org/1999/xlink" width="144pt" height="144pt" viewBox="0 0 144 144" version="1.1">
<defs>
<clipPath id="clip0">
  <rect width="144" height="144"/>
</clipPath>
</defs>
<g id="surface0" clip-path="url(#clip0)">
<path style="fill: none; stroke-width: 0.1; stroke-linecap: butt; stroke-linejoin: miter; stroke: rgb(5.490196%,20.392159%,58.823532%); opacity: 1;stroke-miterlimit: 10;" d="M 62.748077 0 L 81.282196 0 C 96.625732 2.561661 111.594772 9.199142 122.466217 20.535248 C 130.123489 27.671021 135.571426 36.859741 139.428711 46.518768 C 142.065338 53.288574 142.953842 60.536118 144 67.673935 L 144 75.332794 C 142.693192 89.86499 138.123657 104.405411 128.837067 115.859985 C 118.28688 129.552063 102.60788 139.323273 85.581757 142.442535 C 81.86084 143.148056 78.065643 143.319946 74.341629 144 L 68.682556 144 C 56.989548 142.872681 45.285324 140.005356 35.159821 133.857025 C 20.294403 125.204132 8.894363 110.934967 3.39061 94.67305 C 1.878311 89.986862 1.074478 85.11618 0 80.321091 L 0 62.717819 C 1.044632 58.207535 1.838364 53.625259 3.352158 49.238113 C 8.419449 33.316895 19.337753 19.34137 33.553558 10.561829 C 42.283279 4.750427 52.534561 1.872421 62.748077 0 Z M 62.748077 0 " transform="matrix(1,0,0,1,0,0)"/>
<path style="stroke: none; fill-rule: nonzero; fill: rgb(5.490196%,20.392159%,58.823532%); opacity: 1;" d="M 62.748077 0 L 81.282196 0 C 96.625732 2.561661 111.594772 9.199142 122.466217 20.535248 C 130.123489 27.671021 135.571426 36.859741 139.428711 46.518768 C 142.065338 53.288574 142.953842 60.536118 144 67.673935 L 144 75.332794 C 142.693192 89.86499 138.123657 104.405411 128.837067 115.859985 C 118.28688 129.552063 102.60788 139.323273 85.581757 142.442535 C 81.86084 143.148056 78.065643 143.319946 74.341629 144 L 68.682556 144 C 56.989548 142.872681 45.285324 140.005356 35.159821 133.857025 C 20.294403 125.204132 8.894363 110.934967 3.39061 94.67305 C 1.878311 89.986862 1.074478 85.11618 0 80.321091 L 0 62.717819 C 1.044632 58.207535 1.838364 53.625259 3.352158 49.238113 C 8.419449 33.316895 19.337753 19.34137 33.553558 10.561829 C 42.283279 4.750427 52.534561 1.872421 62.748077 0 Z M 62.748077 0 "/>
<path style="fill: none; stroke-width: 0.1; stroke-linecap: butt; stroke-linejoin: miter; stroke: rgb(95.294124%,79.215693%,4.313726%); opacity: 1;stroke-miterlimit: 10;" d="M 64.443222 5.584152 C 80.264343 3.865646 96.713318 7.957748 109.724808 17.170502 C 122.026672 25.623032 131.207397 38.41806 135.465561 52.71225 C 139.293533 66.239655 139.139618 81.035629 134.352631 94.30481 C 128.817062 110.65477 116.29248 124.405304 100.741486 131.806152 C 82.169006 140.877747 59.284531 140.702408 40.99263 130.999374 C 26.466171 123.730072 15.007614 110.775818 9.295792 95.59819 C 5.105286 85.084839 4.70842 73.582855 5.618393 62.443527 C 7.717026 48.027802 14.433868 34.112473 25.197479 24.184219 C 35.572998 13.613617 49.796753 7.245895 64.443222 5.584152 Z M 64.443222 5.584152 " transform="matrix(1,0,0,1,0,0)"/>
<path style="stroke: none; fill-rule: nonzero; fill: rgb(95.294124%,79.215693%,4.313726%); opacity: 1;" d="M 64.443222 5.584152 C 80.264343 3.865646 96.713318 7.957748 109.724808 17.170502 C 122.026672 25.623032 131.207397 38.41806 135.465561 52.71225 C 139.293533 66.239655 139.139618 81.035629 134.352631 94.30481 C 128.817062 110.65477 116.29248 124.405304 100.741486 131.806152 C 82.169006 140.877747 59.284531 140.702408 40.99263 130.999374 C 26.466171 123.730072 15.007614 110.775818 9.295792 95.59819 C 5.105286 85.084839 4.70842 73.582855 5.618393 62.443527 C 7.717026 48.027802 14.433868 34.112473 25.197479 24.184219 C 35.572998 13.613617 49.796753 7.245895 64.443222 5.584152 Z M 64.443222 5.584152 "/>
<path style="fill: none; stroke-width: 0.1; stroke-linecap: butt; stroke-linejoin: miter; stroke: rgb(5.490196%,20.392159%,58.823532%); opacity: 1;stroke-miterlimit: 10;" d="M 35.69838 29.795273 C 45.730728 20.663834 59.61084 16.577728 72.985703 16.556793 C 85.417725 17.215561 98.251877 21.165756 107.497131 29.787888 C 83.566559 29.901993 59.629013 29.889114 35.69838 29.795273 Z M 35.69838 29.795273 " transform="matrix(1,0,0,1,0,0)"/>
<path style="stroke: none; fill-rule: nonzero; fill: rgb(5.490196%,20.392159%,58.823532%); opacity: 1;" d="M 35.69838 29.795273 C 45.730728 20.663834 59.61084 16.577728 72.985703 16.556793 C 85.417725 17.215561 98.251877 21.165756 107.497131 29.787888 C 83.566559 29.901993 59.629013 29.889114 35.69838 29.795273 Z M 35.69838 29.795273 "/>
<path style="fill: none; stroke-width: 0.1; stroke-linecap: butt; stroke-linejoin: miter; stroke: rgb(5.490196%,20.392159%,58.823532%); opacity: 1;stroke-miterlimit: 10;" d="M 26.001038 40.031769 C 28.789307 36.709686 31.208725 32.870621 35.020355 30.616562 C 37.981522 34.18605 40.020737 38.412491 43.149933 41.853775 C 50.782104 41.655441 58.461426 42.301834 66.047897 41.222534 C 71.456085 41.012558 76.873993 41.129608 82.286148 41.151215 C 69.679337 54.564026 56.269043 67.223709 43.41153 80.405075 C 42.092484 81.819458 40.659195 83.128448 39.046066 84.203094 C 35.527298 73.90654 36.577927 62.237991 42.178513 52.863525 C 39.012466 50.752213 35.771133 48.739578 32.31665 47.130478 C 26.471802 56.863434 23.75914 68.728226 25.967499 79.960953 C 28.180557 93.393234 36.715561 105.735489 48.66011 112.330246 C 58.90007 118.291046 71.427948 119.518097 82.88739 117.011139 C 93.085556 114.364227 102.645645 108.46463 108.813202 99.817078 C 116.910278 89.28627 119.894653 75.046448 116.97113 62.121948 C 115.745346 56.643524 113.990662 51.01236 110.274979 46.677505 C 107.289658 48.849396 104.140427 50.782761 101.207764 53.029373 C 108.381378 64.987137 108.136047 81.111862 99.878738 92.480209 C 96.891678 90.545898 96.594955 86.207962 93.67012 84.358261 C 81.303726 84.00412 68.909058 84.541183 56.539413 84.117157 C 63.240463 76.647324 70.672913 69.860672 77.663132 62.659943 C 82.322601 57.63237 87.898987 53.585419 92.509109 48.506424 C 98.389389 42.918884 103.728256 36.742279 109.945404 31.525772 C 118.941605 40.175827 125.148026 51.662277 127.065948 64.02655 C 128.323074 74.936356 127.404663 86.408051 122.396179 96.344177 C 115.326614 112.123016 100.294205 124.144562 83.299393 127.422012 C 72.943268 129.84053 62.00972 128.75856 52.073273 125.128067 C 30.417953 117.531616 14.736237 95.052719 15.943878 72.006531 C 15.405746 60.5681 19.651505 49.379227 26.001038 40.031769 Z M 26.001038 40.031769 " transform="matrix(1,0,0,1,0,0)"/>
<path style="stroke: none; fill-rule: nonzero; fill: rgb(5.490196%,20.392159%,58.823532%); opacity: 1;" d="M 26.001038 40.031769 C 28.789307 36.709686 31.208725 32.870621 35.020355 30.616562 C 37.981522 34.18605 40.020737 38.412491 43.149933 41.853775 C 50.782104 41.655441 58.461426 42.301834 66.047897 41.222534 C 71.456085 41.012558 76.873993 41.129608 82.286148 41.151215 C 69.679337 54.564026 56.269043 67.223709 43.41153 80.405075 C 42.092484 81.819458 40.659195 83.128448 39.046066 84.203094 C 35.527298 73.90654 36.577927 62.237991 42.178513 52.863525 C 39.012466 50.752213 35.771133 48.739578 32.31665 47.130478 C 26.471802 56.863434 23.75914 68.728226 25.967499 79.960953 C 28.180557 93.393234 36.715561 105.735489 48.66011 112.330246 C 58.90007 118.291046 71.427948 119.518097 82.88739 117.011139 C 93.085556 114.364227 102.645645 108.46463 108.813202 99.817078 C 116.910278 89.28627 119.894653 75.046448 116.97113 62.121948 C 115.745346 56.643524 113.990662 51.01236 110.274979 46.677505 C 107.289658 48.849396 104.140427 50.782761 101.207764 53.029373 C 108.381378 64.987137 108.136047 81.111862 99.878738 92.480209 C 96.891678 90.545898 96.594955 86.207962 93.67012 84.358261 C 81.303726 84.00412 68.909058 84.541183 56.539413 84.117157 C 63.240463 76.647324 70.672913 69.860672 77.663132 62.659943 C 82.322601 57.63237 87.898987 53.585419 92.509109 48.506424 C 98.389389 42.918884 103.728256 36.742279 109.945404 31.525772 C 118.941605 40.175827 125.148026 51.662277 127.065948 64.02655 C 128.323074 74.936356 127.404663 86.408051 122.396179 96.344177 C 115.326614 112.123016 100.294205 124.144562 83.299393 127.422012 C 72.943268 129.84053 62.00972 128.75856 52.073273 125.128067 C 30.417953 117.531616 14.736237 95.052719 15.943878 72.006531 C 15.405746 60.5681 19.651505 49.379227 26.001038 40.031769 Z M 26.001038 40.031769 "/>
<path style="fill: none; stroke-width: 0.1; stroke-linecap: butt; stroke-linejoin: miter; stroke: rgb(5.490196%,20.392159%,58.823532%); opacity: 1;stroke-miterlimit: 10;" d="M 46.846451 96.192459 C 63.331757 96.254181 79.819641 96.11795 96.30426 96.262482 C 89.991653 103.199036 80.339096 106.898071 71.003311 106.191544 C 61.959793 106.768982 53.052872 102.637436 46.846451 96.192459 Z M 46.846451 96.192459 " transform="matrix(1,0,0,1,0,0)"/>
<path style="stroke: none; fill-rule: nonzero; fill: rgb(5.490196%,20.392159%,58.823532%); opacity: 1;" d="M 46.846451 96.192459 C 63.331757 96.254181 79.819641 96.11795 96.30426 96.262482 C 89.991653 103.199036 80.339096 106.898071 71.003311 106.191544 C 61.959793 106.768982 53.052872 102.637436 46.846451 96.192459 Z M 46.846451 96.192459 "/>
</g>
</svg>
