<?xml version="1.0" encoding="UTF-8" standalone="no"?>
<!-- Created with Inkscape (http://www.inkscape.org/) -->

<svg
   xmlns:svg="http://www.w3.org/2000/svg"
   xmlns="http://www.w3.org/2000/svg"
   version="1.1"
   width="500"
   height="500"
   id="svg2">
  <defs
     id="defs4" />
  <path
     d="m 461.39421,237.50002 a 205.96153,205.96153 0 1 1 -411.923064,0 205.96153,205.96153 0 1 1 411.923064,0 z"
     transform="matrix(1.127451,0,0,1.127451,-37.987823,-17.769624)"
     id="path3690"
     style="color:#000000;fill:#342cb5;fill-opacity:1;stroke:none;stroke-width:15.96521664;marker:none;visibility:visible;display:inline;overflow:visible;enable-background:accumulate" />
  <path
     d="M 250,17.78125 C 121.75311,17.78125 17.78125,121.75311 17.78125,250 c 0,41.30348 10.813312,80.08317 29.71875,113.6875 l 405,0 C 471.40544,330.08317 482.21875,291.30348 482.21875,250 482.21875,121.75311 378.24689,17.78125 250,17.78125 z"
     id="path3685"
     style="color:#000000;fill:#feb20e;fill-opacity:1;stroke:none;stroke-width:18;marker:none;visibility:visible;display:inline;overflow:visible;enable-background:accumulate" />
  <path
     d="m 226.40623,94.387108 c 0.87432,-28.212549 45.23484,-28.653382 45.6851,0 l 0,316.261992 -45.6851,0 0,-316.261992 z"
     id="rect2901"
     style="color:#000000;fill:#085504;fill-opacity:1;stroke:none;stroke-width:0.5;marker:none;visibility:visible;display:inline;overflow:visible;enable-background:accumulate" />
  <path
     d="m 289.39663,90.862167 c 0.63038,-20.710775 32.61408,-21.034389 32.93871,0 l 0,65.248423 c -0.92859,17.60371 -20.10817,38.12623 -50.98557,26.46459 l -0.12622,-36.34615 c 3.53904,8.93984 18.01257,9.36104 18.17308,-3.12805 l 0,-52.238813 z"
     id="path3676"
     style="color:#000000;fill:#085504;fill-opacity:1;stroke:none;stroke-width:0.5;marker:none;visibility:visible;display:inline;overflow:visible;enable-background:accumulate" />
  <path
     d="m 310.84535,236.75158 c 0.67396,-20.71077 35.8785,-21.03438 36.22557,0 l 0,65.24843 c 0.52163,13.56525 -33.65462,49.40748 -76.5105,34.46459 l 0.11745,-50.90865 c 7.06497,28.87974 40.50068,18.48604 40.16748,-0.56555 l 0,-48.23882 z"
     id="path3678"
     style="color:#000000;fill:#085504;fill-opacity:1;stroke:none;stroke-width:0.5;marker:none;visibility:visible;display:inline;overflow:visible;enable-background:accumulate" />
  <path
     d="m 185.87543,165.40236 c -0.76289,-27.83044 -42.61259,-28.26529 -43.00545,0 l 0,83.67866 c -1.09522,23.529 50.48229,66.08202 84.60588,52.31236 l -0.13295,-70.40934 c -3.20151,32.74994 -42.60186,28.62699 -41.46748,-0.75996 l 0,-64.82172 z"
     id="path3680"
     style="color:#000000;fill:#085504;fill-opacity:1;stroke:none;stroke-width:0.5;marker:none;visibility:visible;display:inline;overflow:visible;enable-background:accumulate" />
  <path
     d="m 461.39421,237.50002 a 205.96153,205.96153 0 1 1 -411.923064,0 205.96153,205.96153 0 1 1 411.923064,0 z"
     transform="matrix(1.127451,0,0,1.127451,-37.987823,-17.769624)"
     id="path3683"
     style="color:#000000;fill:none;stroke:#085504;stroke-width:15.96521664;stroke-miterlimit:4;stroke-opacity:1;stroke-dasharray:none;marker:none;visibility:visible;display:inline;overflow:visible;enable-background:accumulate" />
</svg>
