<?xml version="1.0" encoding="utf-8"?>
<!-- Generator: Adobe Illustrator 15.0.2, SVG Export Plug-In . SVG Version: 6.00 Build 0)  -->
<!DOCTYPE svg PUBLIC "-//W3C//DTD SVG 1.1//EN" "http://www.w3.org/Graphics/SVG/1.1/DTD/svg11.dtd">
<svg version="1.1" id="Layer_1" xmlns="http://www.w3.org/2000/svg" xmlns:xlink="http://www.w3.org/1999/xlink" x="0px" y="0px"
	 width="238px" height="238px" viewBox="0 0 238 238" enable-background="new 0 0 238 238" xml:space="preserve">
<circle fill-rule="evenodd" clip-rule="evenodd" fill="#1D5234" stroke="#1F3B2F" stroke-width="12" stroke-linecap="round" cx="118.488" cy="118.647" r="110.221"/>
<g id="head">
	<path fill-rule="evenodd" clip-rule="evenodd" fill="#AFACA7" stroke="#505050" stroke-linejoin="round" d="M222,128.001
		c0,0-4.486-2.083-5.935-2.957c-1.667-1.005-3.28-2.137-5.032-2.995c-3.954-1.938-8.094-3.533-12-5.56
		c-3.27-1.696-5.729-4.795-8.655-6.999c-3.213-2.42-6.648-4.537-9.761-7.091c-1.392-1.141-2.236-2.94-3.453-4.289
		c-3.723-4.126-6.466-9.003-10.453-12.959c-1.471-1.459-2.81-3.088-4.781-3.871c-1.87-0.743-3.568-1.646-5.375-2.509
		c-2.012-0.961-3.738-2.204-5.982-2.582c-2.256-0.38-4.567-0.166-6.823-0.553c-2.602-0.445-5.248-0.666-7.809-1.327
		c-2.372-0.613-4.181-2.114-6.425-2.98c-2.493-0.962-5.21-0.94-7.688-2.034c-2.066-0.913-3.991-2.12-6.177-2.753
		c-1.741-0.504-3.442-0.862-4.924-1.953c-2.564-1.887-5.566-2.968-8.157-4.794c-2.667-1.88-4.967-4.214-7.209-6.57
		c-2.372-2.492-4.894-4.871-7.016-7.587c-1.427-1.828-2.351-4.405-4.904-4.939c-1.427-0.298-2.95-0.225-4.4-0.201
		c-1.187,0.487-1.914,1.644-2.767,2.546c-1.376,1.454-2.287,3.041-3.291,4.758c-1.01,1.729-2.055,3.316-2.73,5.216
		c-0.536,1.506-1.132,3.011-1.585,4.543c-1.216,4.117-1.58,9.151,0.733,12.921c2.174,3.544,10.614,11.665,4.265,15.326
		c-1.748,1.008-4.815,1.268-5.89-0.847c-1.269-2.499,0.965-6.036,2.049-8.197c-1.166,0.668-2.408,0.857-3.453,1.739
		c-1.172,0.989-2.246,2.419-3.057,3.724c-0.162-2.011,1.095-3.877,1.792-5.704c0.421-1.104,0.744-1.749,1.236-2.819
		c0.254-0.552,0.956-1.297,1.297-1.938c-2.187,0.963-4.118,1.309-4.956,2.377c-0.893,1.138-2.419,2.529-2.419,2.529
		s-7.23,6.199-7.425,10.768c-0.158,3.71,2.121,7.183,4.208,10.06c2.566,3.539,5.539,6.78,8.667,9.825
		c2.941,2.862,6.136,5.495,8.884,8.55c2.041,2.269,3.869,5.121,4.762,8.057c1.002,3.295,1.578,6.681,2.846,9.9
		c2.612,6.629,9.324,11.012,10.997,18.075c0.813,3.433,0.33,7.222-0.606,10.582c-0.27,0.969-2.032,3.314-0.577,4.015
		c0.648,0.312,1.588,0.068,2.291,0.289c0.722,0.228,1.549,0.797,1.957,1.451c1.173,1.881,0.157,4.741-1.164,6.285
		c-0.547,0.639-1.19,1.057-2.019,1.222h0.167c1.738,0.087,3.727,0.21,5.19,1.263c1.783,1.281,1.27,3.159,0.574,4.911
		c-0.782,1.966-0.512,2.691,0.995,4.127c1.761,1.679,2.634,3.834,2.11,6.252c-0.364,1.68-1.687,4.621-3.823,4.429
		c0.064-0.034,0.132-0.056,0.204-0.065c1.569-0.24,3.316-0.442,4.812,0.24c1.771,0.807,2.146,2.732,2.235,4.506
		c0.047,0.936-0.078,1.886-0.014,2.813c1.005,0.044,2.049-0.391,3.132-0.271c1.09,0.12,2.189,0.514,2.958,1.323
		c0.768,0.808,1.221,1.967,1.471,3.037c0.273,1.176-0.329,3.029,0.207,4.021c2.12-1.441,4.699-1.799,6.625,0.197
		c1.533,1.589,1.712,3.758,1.906,5.851c-0.076-0.82,1.542-2.477,2.131-2.893c3.63-2.565,6.703,6.509,6.703,6.509
		C181.713,222.001,222,165.25,222,128.001z"/>
	<path fill-rule="evenodd" clip-rule="evenodd" fill="none" stroke="#505050" stroke-linecap="round" stroke-linejoin="round" d="
		M72.421,53.001c0.209-0.933,0.771-1.46,1.366-2.163c0.892-1.055,1.663-2.176,2.626-3.174c1-1.036,1.966-1.979,3.318-2.543
		c0.988-0.413,2.838-1.146,3.857-0.453"/>
	<path fill-rule="evenodd" clip-rule="evenodd" fill="none" stroke="#505050" stroke-linecap="round" stroke-linejoin="round" d="
		M73.004,59.001c1.227-2.125,2.131-4.126,3.862-5.944c2.08-2.185,4.518-2.878,7.471-2.556"/>
	<path fill-rule="evenodd" clip-rule="evenodd" fill="none" stroke="#505050" stroke-linecap="round" stroke-linejoin="round" d="
		M74.504,71.334c0.123-2.55,1.456-4.497,2.56-6.727c0.668-1.35,1.051-2.516,1.95-3.743c0.712-0.973,1.384-1.852,2.241-2.697"/>
	<path fill-rule="evenodd" clip-rule="evenodd" fill="none" stroke="#505050" stroke-linecap="round" stroke-linejoin="round" d="
		M72.338,55.251c0.771-0.991,1.299-2.15,2.111-3.11c0.752-0.887,1.771-1.494,2.712-2.16c2-1.417,4-2.444,6.427-2.896"/>
	<path fill-rule="evenodd" clip-rule="evenodd" fill="none" stroke="#505050" stroke-linecap="round" stroke-linejoin="round" d="
		M77.171,72.084c0.574-2.154,0.964-4.636,2.244-6.502c0.907-1.322,1.664-2.807,2.779-3.965c1.045-1.086,1.968-2.52,3.145-3.449"/>
	<path fill-rule="evenodd" clip-rule="evenodd" fill="none" stroke="#505050" stroke-linecap="round" stroke-linejoin="round" d="
		M86.838,61.251c-0.602,0.958-1.301,1.816-1.903,2.821c-0.729,1.218-1.653,2.28-2.293,3.559c-1.104,2.206-1.9,4.452-1.888,6.954"/>
	<path fill-rule="evenodd" clip-rule="evenodd" fill="none" stroke="#505050" stroke-linecap="round" stroke-linejoin="round" d="
		M59.838,84.251c-0.646,0.739-1.304,1.417-1.768,2.296c-0.457,0.865-0.305,1.803-0.649,2.704"/>
	<path fill-rule="evenodd" clip-rule="evenodd" fill="none" stroke="#505050" stroke-linecap="round" stroke-linejoin="round" d="
		M61.671,86.834c-0.506,0.899-1.309,1.678-1.848,2.583c-0.576,0.968-0.595,1.913-0.652,3"/>
	<path fill-rule="evenodd" clip-rule="evenodd" fill="none" stroke="#505050" stroke-linecap="round" stroke-linejoin="round" d="
		M91.171,82.168c-1.485,0.919-2.993,1.852-4,3.322c-1.571,2.293-1.522,5.259-0.677,7.815c0.366,1.105,0.907,2.123,1.511,3.113"/>
	<path fill-rule="evenodd" clip-rule="evenodd" fill="none" stroke="#505050" stroke-linecap="round" stroke-linejoin="round" d="
		M91.504,97.334c-3.355-4.285-1.034-10.875,2.321-14.487c-2.073,1.685-1.85,6.376-1.592,8.727c0.344,3.132,1.724,6.568,4.438,8.344"
		/>
	<path fill-rule="evenodd" clip-rule="evenodd" fill="none" stroke="#505050" stroke-linecap="round" stroke-linejoin="round" d="
		M118.171,101.334c-2.677,2.602-2.446,8.894,0.5,11.167"/>
	<path fill-rule="evenodd" clip-rule="evenodd" fill="none" stroke="#505050" stroke-linecap="round" stroke-linejoin="round" d="
		M120.754,103.417c-1.188,0.926-1.672,3.563-1.441,4.978c0.273,1.683,1.353,2.671,2.608,3.689"/>
	<path fill-rule="evenodd" clip-rule="evenodd" fill="none" stroke="#505050" stroke-linecap="round" stroke-linejoin="round" d="
		M82.004,111.834c1.737,1.888,4.884,2.31,7.178,3.203c3.026,1.179,5.848,2.09,9.156,1.797"/>
	<path fill-rule="evenodd" clip-rule="evenodd" fill="none" stroke="#505050" stroke-linecap="round" stroke-linejoin="round" d="
		M98.588,119.918c-4.517,0.182-10.574-1.56-14.062-4.498c-0.812-0.684-1.305-1.491-1.605-2.502"/>
	<path fill-rule="evenodd" clip-rule="evenodd" fill="none" stroke="#505050" stroke-linecap="round" stroke-linejoin="round" d="
		M99.838,121.918c-2.269,0.851-5.38,0.655-7.679,0.093c-1.896-0.464-3.555-1.639-5.18-2.673c-0.979-0.622-2.552-1.368-2.725-2.67"/>
	<path fill-rule="evenodd" clip-rule="evenodd" fill="none" stroke="#505050" stroke-linecap="round" stroke-linejoin="round" d="
		M103.921,125.418c-1.761,0.842-3.212,0.584-5.062,0.051c-2.657-0.765-5.503-1.658-7.521-3.635"/>
	<path fill-rule="evenodd" clip-rule="evenodd" fill="none" stroke="#505050" stroke-linecap="round" stroke-linejoin="round" d="
		M106.754,129.834c-2.151,0.893-5.901-1.191-7.848-1.96c-2.832-1.118-5.045-2.625-6.902-5.04"/>
	<path fill-rule="evenodd" clip-rule="evenodd" fill="none" stroke="#505050" stroke-linecap="round" stroke-linejoin="round" d="
		M139.338,91.084c-2.765-2.278-4.547-4.576-6.164-7.781c-2.239-4.438-5.456-8.505-10.755-9.05c-1.851-0.19-4.683,0.695-4.678,0.594
		c-0.354,1.087-0.628,2.182-0.503,3.334c0.537,4.941,5.773,9.185,10.516,9.569"/>
	<path fill-rule="evenodd" clip-rule="evenodd" fill="none" stroke="#505050" stroke-linecap="round" stroke-linejoin="round" d="
		M127.338,91.751c-1.642-0.382-2.852-1.415-4.173-2.378c-1.819-1.326-2.627-3.264-4.161-4.789"/>
	<path fill-rule="evenodd" clip-rule="evenodd" fill="none" stroke="#505050" stroke-linecap="round" stroke-linejoin="round" d="
		M124.838,93.334c-2.332-0.167-3.348-2.394-4.787-3.899c-0.934-0.976-2.176-2.112-2.047-3.601"/>
	<path fill-rule="evenodd" clip-rule="evenodd" fill="none" stroke="#505050" stroke-linecap="round" stroke-linejoin="round" d="
		M135.838,112.751c-0.181,1.253,0.289,2.846,0.748,3.986c0.716,1.782,1.446,3.976,3.002,5.181"/>
	<path fill-rule="evenodd" clip-rule="evenodd" fill="none" stroke="#505050" stroke-linecap="round" stroke-linejoin="round" d="
		M139.588,111.251c-0.343,3.686,0.96,6.559,4,8.75"/>
	<path fill-rule="evenodd" clip-rule="evenodd" fill="none" stroke="#505050" stroke-linecap="round" stroke-linejoin="round" d="
		M142.254,109.917c1.621,1.035,0.88,4.021,1.362,5.549c0.442,1.404,1.548,2.452,2.138,3.784"/>
	<path fill-rule="evenodd" clip-rule="evenodd" fill="none" stroke="#505050" stroke-linecap="round" stroke-linejoin="round" d="
		M155.088,85.501c-1.302-2.006-2.488-3.348-4.538-4.621c-2.477-1.538-4.314-3.535-7.216-4.309c-1.62-0.432-3.196-0.835-4.746-1.487"
		/>
	<path fill-rule="evenodd" clip-rule="evenodd" fill="none" stroke="#505050" stroke-linecap="round" stroke-linejoin="round" d="
		M122.588,69.834c1.466,0.806,2.124,2.425,3.291,3.547c1.351,1.299,3.23,1.52,4.968,1.953c4.031,1.004,8.695,2.175,11.407,5.583"/>
	<path fill-rule="evenodd" clip-rule="evenodd" fill="none" stroke="#505050" stroke-linecap="round" stroke-linejoin="round" d="
		M131.921,72.667c1.176,0.964,2.509,1.707,3.757,2.568c1.537,1.062,3.05,2.229,4.905,2.662c2.81,0.654,8.064,2.399,8.171,6.02"/>
	<path fill-rule="evenodd" clip-rule="evenodd" fill="none" stroke="#505050" stroke-linecap="round" stroke-linejoin="round" d="
		M110.921,126.585c-0.008,3.068-0.591,5.313-2.463,7.74c-1.19,1.544-2.364,3.045-3.664,4.501c-2.739,3.066-4.649,6.738-5.42,10.793
		c-0.476,2.506-0.008,4.789,0.63,7.216"/>
	<path fill-rule="evenodd" clip-rule="evenodd" fill="none" stroke="#505050" stroke-linecap="round" stroke-linejoin="round" d="
		M118.004,126.335c-0.085,4.997-1.55,9.004-4.308,13.169c-1.528,2.308-3.733,3.952-5.35,6.165c-1.814,2.484-3.115,5.593-3.858,8.565
		c-0.661,2.643-0.642,5.319-0.484,8.017"/>
	<path fill-rule="evenodd" clip-rule="evenodd" fill="none" stroke="#505050" stroke-linecap="round" stroke-linejoin="round" d="
		M129.846,121.673c0.164,2.604-0.466,5.061-1.349,7.499c-1.996,5.516-4.985,10.711-8.413,15.454
		c-3.664,5.068-8.15,9.421-12.004,14.328c-3.259,4.15-5.6,8.796-7.015,13.878c-0.795,2.858-1.251,5.781-1.886,8.675"/>
	<path fill-rule="evenodd" clip-rule="evenodd" fill="none" stroke="#505050" stroke-linecap="round" stroke-linejoin="round" d="
		M140.254,141.418c-0.117,2.098-0.703,4.046-1.461,5.999c-1.576,4.063-3.55,8.044-5.922,11.7c-2.514,3.875-5.771,6.935-8.898,10.283
		c-3.503,3.751-5.925,8.147-7.429,13.048c-1.414,4.607-1.98,9.335-2.123,14.136"/>
	<path fill-rule="evenodd" clip-rule="evenodd" fill="none" stroke="#505050" stroke-linecap="round" stroke-linejoin="round" d="
		M147.254,135.001c0.018,2.531,0.067,5.083-0.48,7.57c-0.728,3.302-2.45,6.22-3.761,9.304c-2.494,5.873-3.478,12.281,1.575,17.043"
		/>
	<path fill-rule="evenodd" clip-rule="evenodd" fill="none" stroke="#505050" stroke-linecap="round" stroke-linejoin="round" d="
		M156.254,135.501c-0.074,1.667,0.213,3.288,0.241,4.949c0.045,2.662-0.817,5.194-1.995,7.552c-1.338,2.677-3.139,5.085-4.515,7.738
		c-1.326,2.557-1.746,5.073-1.647,7.928"/>
	<path fill-rule="evenodd" clip-rule="evenodd" fill="none" stroke="#505050" stroke-linecap="round" stroke-linejoin="round" d="
		M161.421,138.834c0.124,6.242-2.939,11.249-6.13,16.392c-3.424,5.518-3.78,11.772-2.203,17.942"/>
	<path fill-rule="evenodd" clip-rule="evenodd" fill="none" stroke="#505050" stroke-linecap="round" stroke-linejoin="round" d="
		M141.005,191.917c-0.112-0.042-0.215-0.022-0.32-0.075c0.105,2.871-0.741,5.954-1.51,8.69c-1.372,4.89-5.334,8.588-8.587,12.302"/>
	<path fill-rule="evenodd" clip-rule="evenodd" fill="none" stroke="#505050" stroke-linecap="round" stroke-linejoin="round" d="
		M162.421,196.501c-2.098,0.199-4.123,3.402-4.859,5.115c-1.206,2.806-1.851,5.852-2.057,8.885"/>
	<path fill-rule="evenodd" clip-rule="evenodd" fill="none" stroke="#505050" stroke-linecap="round" stroke-linejoin="round" d="
		M170.171,176.167c-0.67,0.592-1.003,1.582-1.542,2.296c-0.847,1.119-1.423,2.393-2.226,3.545c-1.67,2.399-2.901,5.006-4.398,7.493"
		/>
	<path fill-rule="evenodd" clip-rule="evenodd" fill="none" stroke="#505050" stroke-linecap="round" stroke-linejoin="round" d="
		M166.338,171.334c-0.335,3.068-0.536,5.5-2.021,8.277c-1.385,2.592-3.808,4.731-4.563,7.64"/>
	<path fill-rule="evenodd" clip-rule="evenodd" fill="none" stroke="#505050" stroke-linecap="round" stroke-linejoin="round" d="
		M185.254,161.834c-0.044,2.719-0.188,5.016-1.33,7.55c-0.758,1.681-1.796,3.209-2.725,4.796c-0.983,1.682-1.877,3.412-3.028,4.988"
		/>
	<path fill-rule="evenodd" clip-rule="evenodd" fill="none" stroke="#505050" stroke-linecap="round" stroke-linejoin="round" d="
		M187.088,167.584c-0.369,3.336-1.104,6.594-2.156,9.776c-1.005,3.042-3.097,5.586-5.261,7.891"/>
	<path fill-rule="evenodd" clip-rule="evenodd" fill="none" stroke="#505050" stroke-linecap="round" stroke-linejoin="round" d="
		M189.088,173.501c-0.363,4.375-0.81,9.674-3.388,13.396c-1.061,1.529-2.265,2.938-3.362,4.437"/>
	<path fill-rule="evenodd" clip-rule="evenodd" fill="none" stroke="#505050" stroke-linecap="round" stroke-linejoin="round" d="
		M185.254,148.584c3.975,2.093,7.979,3.777,12.429,4.678c5.195,1.052,10.179-0.688,15.071-2.344"/>
	<path fill-rule="evenodd" clip-rule="evenodd" fill="none" stroke="#505050" stroke-linecap="round" stroke-linejoin="round" d="
		M210.921,154.834c-0.356,0.967-1.742,1.307-2.61,1.566c-1.735,0.519-3.563,0.748-5.373,0.684c-4.134-0.149-8.437-1.437-12.017-3.5"
		/>
	<path fill-rule="evenodd" clip-rule="evenodd" fill="none" stroke="#505050" stroke-linecap="round" stroke-linejoin="round" d="
		M211.588,159.168c-0.021-0.089-0.07-0.146-0.148-0.171c-1.249,1.229-2.518,2.356-4.279,2.727c-1.771,0.372-3.718,0.396-5.521,0.456
		c-4.888,0.159-9.628-1.276-13.135-4.762"/>
	<path fill-rule="evenodd" clip-rule="evenodd" fill="none" stroke="#505050" stroke-linecap="round" stroke-linejoin="round" d="
		M185.421,145.001c-2.312-0.036-4.499-0.643-6.663-1.433c-5.873-2.145-11.493-5.342-16.355-9.267
		c-2.663-2.15-5.019-4.604-7.314-7.134"/>
	<path fill-rule="evenodd" clip-rule="evenodd" fill="none" stroke="#505050" stroke-linecap="round" stroke-linejoin="round" d="
		M180.755,140.418c-7.082,1.222-13.74-5.542-18.832-9.424c-1.847-1.408-3.706-2.797-5.585-4.16"/>
	<path fill-rule="evenodd" clip-rule="evenodd" fill="none" stroke="#505050" stroke-linecap="round" stroke-linejoin="round" d="
		M180.838,137.418c-1.107,0.632-2.282,0.366-3.439-0.002c-2.134-0.678-4.173-1.711-6.162-2.726
		c-3.678-1.876-7.528-3.522-10.679-6.241c-1.449-1.251-2.807-2.561-4.47-3.531"/>
	<path fill-rule="evenodd" clip-rule="evenodd" fill="none" stroke="#505050" stroke-linecap="round" stroke-linejoin="round" d="
		M163.171,103.501c2.688,0.668,5.433,0.563,8.135,1.095c3.513,0.69,6.536,2.648,8.89,5.308c1.889,2.135,3.476,4.545,5.256,6.771
		c2.344,2.929,4.62,5.889,6.809,8.937c2.058,2.865,4.088,5.613,7.078,7.557h-1.333c-3.757,0.948-7.551,1.867-11.451,1.815
		c-6.135-0.08-12.469-2.258-18.219-4.245c-2.753-0.951-5.442-2.158-7.603-4.159c-2.21-2.046-3.659-4.701-5.062-7.328"/>
	<path fill-rule="evenodd" clip-rule="evenodd" fill="none" stroke="#505050" stroke-linecap="round" stroke-linejoin="round" d="
		M159.338,116.001c-0.004,3.361,2.654,4.773,5.485,5.942c5.355,2.211,11.043,3.854,16.583,5.535c2.48,0.753,4.982,1.389,7.515,1.939
		l-0.583,0.083c-1.073-2.286-2.433-4.406-3.942-6.428c-1.614-2.16-3.442-4.114-5.238-6.119c-1.537-1.715-2.916-3.583-4.716-5.043
		c-2.212-1.793-4.821-2.771-7.638-3.074c-1.789-0.192-3.55-0.207-5.299-0.67"/>
	<path fill-rule="evenodd" clip-rule="evenodd" fill="none" stroke="#505050" stroke-linecap="round" stroke-linejoin="round" d="
		M162.171,113.751c2.738-1.233,6.222,1.299,8.622,2.393c1.77,0.806,3.547,1.516,5.143,2.646c1.227,0.868,2.351,1.865,3.54,2.779
		c-1.663-2.608-4.112-4.837-6.737-6.449c-2.06-1.265-4.354-2.052-6.604-2.901c-1.063-0.402-2.544-1.25-3.713-0.8"/>
	<path fill-rule="evenodd" clip-rule="evenodd" fill="none" stroke="#505050" stroke-linecap="round" stroke-linejoin="round" d="
		M188.004,112.417c1.451,1.097,2.638,2.448,4.021,3.619c2.009,1.702,4.378,2.9,6.494,4.454c4.672,3.434,8.512,7.592,14.282,9.206
		c2.671,0.747,5.433,1.056,8.12,1.722"/>
	<path fill-rule="evenodd" clip-rule="evenodd" fill="none" stroke="#505050" stroke-linecap="round" stroke-linejoin="round" d="
		M187.254,114.834c3.654,2.973,7.109,6.204,10.758,9.199c4.405,3.616,8.574,7.719,13.695,10.343
		c2.451,1.255,5.337,2.553,8.131,2.708"/>
	<path fill-rule="evenodd" clip-rule="evenodd" fill="none" stroke="#505050" stroke-linecap="round" stroke-linejoin="round" d="
		M187.504,116.917c3.173,3.216,6.55,6.278,9.815,9.402c4.233,4.051,9.47,8.101,14.863,10.444c2.232,0.971,4.577,1.628,6.905,2.32"/>
	
		<path fill-rule="evenodd" clip-rule="evenodd" fill="#505050" stroke="#505050" stroke-linecap="round" stroke-linejoin="round" stroke-miterlimit="10" d="
		M128.748,76.326c-1.586-2.732-5.628-1.697-7.274,0.822c-0.885,1.354-1.388,3.659-1.009,5.263c0.268,1.134,1.343,2.745,2.378,3.321
		c0.726,0.404,2.813-0.113,3.514-0.481c0.866-0.456,1.368-1.269,1.773-2.129c0.812-1.725,1.587-3.984,1.008-5.888
		C129.034,76.894,128.902,76.592,128.748,76.326z"/>
</g>
</svg>
