<?xml version="1.0" encoding="UTF-8" standalone="no"?>
<!-- Created with Inkscape (http://www.inkscape.org/) -->

<svg
   xmlns:svg="http://www.w3.org/2000/svg"
   xmlns="http://www.w3.org/2000/svg"
   version="1.1"
   width="546.6875"
   height="546.6875"
   id="svg7503"
   style="display:inline">
  <defs
     id="defs7505" />
  <g
     transform="translate(-115.56758,-168.88165)"
     id="layer2"
     style="display:inline">
    <path
       d="m 388.40625,174.4375 c -150.46019,0 -273.34375,122.88356 -273.34375,273.34375 0,150.46019 122.88356,273.34375 273.34375,273.34375 150.46019,0 273.34375,-122.88356 273.34375,-273.34375 l 0,-0.21875 a 43.04582,43.04582 0 0 0 0,-0.0312 C 661.60142,297.17503 538.76452,174.4375 388.40625,174.4375 z"
       transform="translate(0.50508,-5.5558474)"
       id="path3655-4"
       style="color:#000000;fill:#ed2544;fill-opacity:1;fill-rule:nonzero;stroke:none;stroke-width:3.5;marker:none;visibility:visible;display:inline;overflow:visible;enable-background:accumulate" />
    <path
       d="m 388.40625,206.84375 c -132.94385,0 -240.9375,107.99365 -240.9375,240.9375 0,132.94385 107.99365,240.9375 240.9375,240.9375 132.94385,0 240.9375,-107.99365 240.9375,-240.9375 l 0,-0.21875 C 629.21247,314.7113 521.258,206.84375 388.40625,206.84375 z"
       transform="translate(0.50507755,-5.5558425)"
       id="path3655"
       style="color:#000000;fill:#ffffff;fill-opacity:1;fill-rule:nonzero;stroke:none;stroke-width:3.5;marker:none;visibility:visible;display:inline;overflow:visible;enable-background:accumulate" />
    <path
       d="m 618.71843,447.78589 a 230.31477,230.31477 0 1 1 -1.1e-4,-0.2276"
       transform="translate(0.50507627,-5.555839)"
       id="path3609"
       style="color:#000000;fill:#1d57fc;fill-opacity:1;fill-rule:nonzero;stroke:none;stroke-width:3.5;marker:none;visibility:visible;display:inline;overflow:visible;enable-background:accumulate" />
  </g>
  <g
     transform="translate(-115.56758,-168.88165)"
     id="layer3"
     style="display:inline">
    <path
       d="m 398.65625,268.28125 c -1.82034,0.34494 -2.94079,1.70007 -4.46875,3.53125 -1.52796,1.83118 -3.32826,4.30293 -5.53125,7.3125 -1.2997,1.77554 -2.58643,4.18011 -3.8125,6.125 -0.61304,0.97244 -1.19973,1.81448 -1.6875,2.375 -0.48777,0.56052 -0.93706,0.68935 -0.6875,0.65625 0.22086,-0.0293 0.24926,0.0924 0,-0.1875 -0.24926,-0.27986 -0.56811,-0.81918 -0.84375,-1.40625 -0.55127,-1.17414 -0.90625,-2.4375 -0.90625,-2.4375 a 1.5766625,1.5766625 0 0 0 -0.25,-0.53125 c -1.71177,-2.31665 -4.13479,-4.50836 -7.21875,-7.5625 -1.54466,-1.52971 -2.9195,-3.18009 -4.21875,-4.5 -0.64963,-0.65996 -1.26382,-1.24085 -1.96875,-1.6875 -0.70493,-0.44665 -1.61496,-0.8146 -2.625,-0.59375 -1.01605,0.22217 -1.73635,0.90426 -2.25,1.65625 -0.51365,0.75199 -0.89486,1.63112 -1.25,2.625 -0.71028,1.98776 -1.31308,4.49759 -2.125,7.28125 -0.44336,1.52006 -0.93064,3.577 -1.46875,5.1875 -0.18914,0.56606 -0.3822,0.93174 -0.5625,1.3125 -0.33715,-0.53176 -0.70445,-1.21198 -1.0625,-1.9375 -0.82035,-1.66231 -1.5,-3.34375 -1.5,-3.34375 a 1.5766625,1.5766625 0 0 0 -0.125,-0.21875 c -1.32183,-2.22029 -2.89776,-3.6358 -4.34375,-4.46875 -1.44599,-0.83295 -2.59236,-1.15924 -3.75,-1 -0.89093,0.12256 -1.35658,0.63762 -1.71875,1.09375 -0.36217,0.45613 -0.63232,0.97601 -0.90625,1.5625 -0.54785,1.17298 -1.05207,2.64173 -1.5,4.28125 -0.88753,3.24855 -1.56676,7.08135 -1.75,10.0625 -0.42221,-0.33547 -1.14326,-0.98094 -2.09375,-2.53125 -1.10178,-1.79708 -2.71893,-3.19319 -4.21875,-4.15625 -0.74991,-0.48153 -1.47406,-0.85481 -2.15625,-1.09375 -0.34109,-0.11947 -0.65493,-0.21397 -1.03125,-0.25 -0.37632,-0.036 -0.86491,-0.0726 -1.4375,0.28125 -0.84827,0.52427 -0.9563,1.05162 -1.21875,1.625 -0.26245,0.57338 -0.48288,1.23432 -0.71875,1.96875 -0.47174,1.46885 -0.95247,3.21209 -1.375,4.78125 -0.88744,3.29571 -2.19042,5.60269 -3.1875,6.25 -0.49854,0.32366 -0.84717,0.39481 -1.5,0.1875 -0.65283,-0.20731 -1.62625,-0.82322 -2.78125,-2.09375 -0.81205,-0.89328 -1.50757,-1.54341 -2.25,-2 -0.74243,-0.45659 -1.60319,-0.75172 -2.46875,-0.625 -0.86556,0.12672 -1.56244,0.69242 -2,1.25 -0.43756,0.55758 -0.69624,1.15248 -0.9375,1.78125 -0.22972,0.5984 -0.36248,1.24324 -0.5,2.1875 -0.13752,0.94426 -0.25188,2.13326 -0.34375,3.53125 -0.18375,2.79598 -0.22178,6.42705 0.0312,10.5625 0.25185,4.11621 0.71499,8.81773 1.0625,12.53125 0.1584,1.69262 0.27947,3.0847 0.34375,4.1875 -0.44409,-0.25632 -0.82325,-0.45692 -1.375,-0.8125 -1.87749,-1.20997 -4.22308,-2.91167 -6.25,-4.5625 -3.90976,-3.18431 -13.22861,-7.56622 -22.875,-9.125 -5.45451,-0.8814 -10.73782,-2.59717 -14.9375,-4.03125 -2.09984,-0.71704 -3.91059,-1.37997 -5.40625,-1.8125 -0.74783,-0.21627 -1.41369,-0.37773 -2.03125,-0.46875 -0.61756,-0.091 -1.20515,-0.14776 -1.9375,0.125 -0.91745,0.3417 -1.48976,1.22705 -1.71875,2.03125 -0.22899,0.8042 -0.27832,1.64617 -0.28125,2.6875 -0.006,2.08266 0.22462,4.96191 0.375,8.9375 0.35912,9.49433 1.43158,20.36384 2.875,29.34375 1.28701,8.00691 2.78116,14.1423 3.25,15.84375 0.42728,1.55062 0.69184,2.85979 0.625,3.53125 -0.0668,0.67146 -0.0218,0.77912 -1.0625,1.125 -2.91045,0.96727 -5.67909,3.94497 -8.1875,8 -2.50841,4.05503 -4.58555,9.26037 -5.1875,14.84375 -0.82419,7.64471 -2.73073,15.01276 -5.46875,20.875 -2.73802,5.86224 -6.31774,10.14033 -10.21875,11.8125 -0.69042,0.29595 -2.01292,0.44987 -3.375,0.78125 -0.68104,0.16569 -1.37709,0.39116 -2.0625,0.8125 -0.68541,0.42134 -1.33465,1.1052 -1.65625,2 -0.4547,1.26513 -0.52651,2.66725 -0.0625,3.96875 0.46401,1.3015 1.35619,2.47484 2.59375,3.75 2.20383,2.27078 4.82999,5.78601 9.46875,6.65625 2.00025,0.37525 3.21323,0.64031 3.46875,0.78125 0.12776,0.0705 0.0391,-0.0252 0.0625,0.0312 0.0234,0.0564 0.0937,0.34293 0.0937,0.875 0,4.88681 -2.90232,11.86048 -7.71875,17.84375 -1.30213,1.61758 -2.78505,3.37196 -3.9375,4.8125 -0.57623,0.72027 -1.05425,1.35042 -1.4375,1.90625 -0.19163,0.27792 -0.35923,0.54616 -0.5,0.8125 -0.14077,0.26634 -0.3125,0.45235 -0.3125,1.125 0,1.37497 0.82682,2.40897 1.84375,3.25 1.01693,0.84103 2.35049,1.56132 3.96875,2.1875 3.23652,1.25235 7.61142,2.09375 12.65625,2.09375 2.10597,0 4.30363,-0.78788 6.25,-1.4375 0.97319,-0.32481 1.8909,-0.60809 2.5625,-0.78125 0.54782,-0.14125 0.72036,-0.1154 0.6875,-0.15625 0.0346,0.0558 0.0958,0.0929 0.15625,0.28125 0.15784,0.49143 0.2656,1.33207 0.3125,2.25 0.0938,1.83586 -0.10304,4.11206 -0.4375,5.5625 -0.72195,3.13082 -1.5277,4.56852 -2.46875,5.90625 -0.61172,0.86956 -1.44813,1.57916 -2.1875,2.3125 -0.36968,0.36667 -0.72172,0.73158 -1.03125,1.25 -0.30953,0.51842 -0.55706,1.39778 -0.28125,2.1875 0.43208,1.23715 1.55374,1.69619 2.4375,2 0.88376,0.30381 1.80521,0.5111 2.78125,0.8125 1.54649,0.47755 3.2457,1.74855 8.71875,1.71875 2.83665,-0.0154 4.90842,-0.60761 6.46875,-1.15625 1.56033,-0.54864 2.55431,-0.95295 3.375,-0.9375 0.0135,2.5e-4 0.86283,0.4443 1.5625,1.34375 0.69967,0.89945 1.29131,2.14954 1.40625,2.5625 0.62323,2.23922 1.03695,6.8813 0.21875,11.28125 -0.8182,4.39995 -2.77533,8.44916 -6.5,10.4375 -1.05568,0.56355 -1.91752,1.09456 -2.375,2.1875 -0.22874,0.54647 -0.2327,1.24153 -0.0625,1.78125 0.1702,0.53972 0.45841,0.94945 0.78125,1.3125 1.29136,1.45219 3.38799,2.60649 6.3125,4.59375 3.19582,2.17161 6.75026,3.44561 10,3.75 3.24974,0.30439 6.34779,-0.34579 8.1875,-2.5625 0.57789,-0.69632 1.16095,-1.53701 1.6875,-2.1875 0.15579,-0.19246 0.24698,-0.30321 0.375,-0.4375 0.20126,0.2185 0.42537,0.45215 0.6875,0.8125 0.66616,0.9158 1.39233,2.13591 1.96875,3.0625 0.62327,1.00189 1.45949,1.58113 2.09375,2.09375 0.63426,0.51262 1.093,0.92047 1.375,1.4375 0.27751,0.5088 0.43299,1.43538 0.53125,2.53125 0.0983,1.09587 0.13844,2.32585 0.53125,3.5625 1.89683,5.97154 7.22879,10.83624 13.1875,11.15625 1.60702,0.0863 2.92934,-0.46204 4.0625,-1.09375 1.13316,-0.63171 2.19945,-1.34669 3.71875,-2 1.44483,-0.62129 2.17546,-0.35516 2.53125,-0.0312 0.35579,0.32391 0.6544,1.03334 0.25,2.375 -0.24101,0.7996 -0.49178,1.42893 -0.6875,2 -0.0979,0.28554 -0.19926,0.54273 -0.25,0.90625 -0.0507,0.36352 -0.0534,0.94559 0.3125,1.5 0.36595,0.55441 0.96283,0.79677 1.375,0.875 0.41217,0.0782 0.739,0.0572 1.125,0.0312 0.772,-0.052 1.73425,-0.19105 3.09375,-0.40625 2.45164,-0.38808 5.51533,-2.0813 7.75,-3.21875 0.76499,-0.38938 1.39687,-0.63969 2.03125,-0.875 -0.41066,2.26874 -1.10967,4.73473 -1.96875,7.1875 -1.1191,3.19513 -2.30557,6.11624 -2.59375,8.46875 -0.072,0.58787 -0.0803,1.0927 0.0625,1.65625 0.14283,0.56355 0.56314,1.25218 1.1875,1.5625 1.24871,0.62063 2.1306,0.10186 2.9375,-0.28125 1.61379,-0.76622 3.4248,-2.09471 5.09375,-2.9375 0.46942,-0.24274 1.82965,-0.86513 3.09375,-1.375 0.63205,-0.25493 1.25955,-0.49486 1.75,-0.65625 0.49045,-0.16139 0.97488,-0.21875 0.71875,-0.21875 0.0434,0 0.0257,-0.001 0.0625,0 -0.033,0.008 0.0591,0.13427 0.0625,0.9375 0.01,2.20553 0.92099,4.36392 2.125,6.21875 1.20401,1.85483 2.66418,3.41301 4.28125,4.25 1.07145,0.55458 1.80669,1.12261 2.75,1.6875 0.94331,0.56489 2.11336,1.05951 3.65625,1.21875 1.24161,0.12814 1.85193,0.26244 2.46875,0.875 0.61682,0.61256 1.37705,2.02705 2.03125,5.03125 a 1.5766625,1.5766625 0 0 0 0,0.0312 c 2.44714,9.71188 5.74917,16.80107 15.9375,22.65625 1.4813,0.85129 4.10343,2.25468 6.15625,2.75 2.64362,0.63787 4.63941,0.68937 7.9375,0.34375 1.98023,-0.20752 5.69073,-1.19183 9.5625,-2.90625 3.87177,-1.71442 7.85876,-4.05371 9.65625,-7.59375 A 1.5766625,1.5766625 0 0 0 415.5,609.25 l -2.53125,-1.21875 c -0.92817,-0.44925 -1.71356,-0.42405 -2.40625,-0.4375 -0.69269,-0.0135 -1.29499,-0.0501 -1.5625,-0.125 -0.0139,-0.004 -0.16319,-0.0331 -0.5,-0.625 -0.33681,-0.59185 -0.76092,-1.59523 -1.3125,-2.8125 -0.60985,-1.34584 -1.45472,-2.04946 -1.75,-2.375 -0.29528,-0.32554 -0.35269,-0.2354 -0.375,-1.3125 -0.0178,-0.86064 0.36166,-1.96067 1.40625,-3.71875 1.04459,-1.75808 2.71491,-4.10046 4.90625,-7.34375 2.7691,-4.09841 6.25953,-8.06507 6.5625,-15.625 0.0673,-1.68007 -0.19759,-4.16081 -0.3125,-6.46875 -0.0575,-1.15397 -0.0663,-2.23231 0,-3.03125 0.0302,-0.36368 0.004,-0.27978 0.0625,-0.46875 0.10035,0.0223 0.13811,0.0326 0.25,0.0625 0.80431,0.21501 1.89715,0.64517 2.875,1.3125 1.08522,0.74061 2.33728,1.70529 3.4375,2.5 0.55011,0.39735 1.07665,0.75306 1.53125,1.03125 0.2273,0.1391 0.44262,0.26696 0.6875,0.375 0.24488,0.10804 0.46344,0.27942 1.15625,0.1875 0.3793,-0.0503 0.76964,-0.2789 1,-0.53125 0.23036,-0.25235 0.31852,-0.47807 0.375,-0.65625 0.11295,-0.35635 0.12515,-0.58254 0.125,-0.78125 -3.1e-4,-0.39741 -0.0463,-0.73561 -0.0937,-1.15625 -0.0949,-0.84129 -0.24014,-1.88952 -0.21875,-2.96875 0.0474,-2.38938 0.95137,-4.38612 1.65625,-5 -0.17721,0.15433 -0.31556,0.08 0,0.15625 0.31556,0.0762 0.88183,0.32923 1.5,0.6875 1.23635,0.71654 2.70171,1.82057 3.875,2.65625 0.97237,0.69258 1.61375,1.4319 2.4375,2.125 0.41187,0.34655 0.87755,0.70781 1.53125,0.90625 0.6537,0.19844 1.44262,0.15582 2.125,-0.0937 0.87772,-0.32101 1.44236,-1.05985 1.71875,-1.71875 0.27639,-0.6589 0.37242,-1.31458 0.4375,-1.9375 0.13015,-1.24585 0.14407,-2.50898 0.25,-2.96875 0.27934,-1.21235 0.24459,-2.59526 0.21875,-4.09375 -0.0258,-1.49849 -0.0839,-3.05853 0,-4 0.0832,-0.93367 0.54228,-1.45796 0.5625,-1.46875 0.0101,-0.005 -0.0651,-0.034 0.125,0.0312 0.19012,0.0653 0.58925,0.30705 1.125,0.875 0.78057,0.82747 3.32747,3.8613 6.03125,5.75 2.5026,1.74818 5.33933,2.23059 7.75,1.3125 2.41067,-0.91809 4.25951,-3.14659 5.03125,-6.125 0.20395,-0.78711 0.6535,-1.47055 2.21875,-2.46875 1.56525,-0.9982 4.16588,-2.1761 8.0625,-3.65625 2.79564,-1.06193 5.88583,-2.02013 8.59375,-2.71875 2.70792,-0.69862 5.12605,-1.1287 6.125,-1.125 3.4875,0.0137 6.89489,-1.22879 9.3125,-3.5 2.03337,-1.91026 3.29968,-3.78625 3.65625,-5.625 0.0891,-0.45969 0.12698,-0.94779 0,-1.46875 -0.12698,-0.52096 -0.45293,-1.09271 -0.96875,-1.4375 -1.03165,-0.68958 -2.13852,-0.46503 -3.1875,-0.0625 -0.25747,0.0988 -0.46685,0.10961 -1.09375,0.0312 -0.6269,-0.0784 -1.54614,-0.24256 -2.84375,-0.28125 -1.31645,-0.0392 -2.60965,0.003 -3.625,-0.15625 -1.01535,-0.15895 -1.66923,-0.45095 -2.1875,-1.125 -0.0804,-0.10461 -0.43592,-0.89376 -0.625,-1.90625 -0.18908,-1.01249 -0.3038,-2.25514 -0.375,-3.4375 -0.13944,-2.31547 -0.0959,-4.32043 -0.0937,-4.40625 5e-5,-0.002 0,-0.0937 0,-0.0937 0.27996,-3.67072 0.64123,-6.84883 1.1875,-9.125 0.20738,-0.86408 0.46922,-1.43553 0.71875,-2 0.28625,1.19405 0.58391,2.55038 1.09375,3.78125 1.02876,2.48366 2.92506,6.37273 5.6875,8.34375 1.4316,1.02147 3.26808,1.82357 5.28125,1.59375 2.01317,-0.22982 3.95847,-1.79766 4.78125,-4.5 0.60556,-1.98894 -0.0712,-3.90398 -0.625,-6.125 -0.55376,-2.22102 -1.16267,-4.68639 -1.15625,-7.09375 0.0148,-5.55 0.66182,-9.02633 1.5625,-11.46875 0.90068,-2.44242 2.07317,-3.8875 3.4375,-5.5 0.72884,-0.86141 0.98502,-0.90655 1,-0.90625 0.015,3e-4 0.50026,0.15659 1.375,1.03125 4.0069,4.0069 11.54992,4.85799 17.84375,-1.46875 1.02474,-1.0301 1.95755,-2.05732 2.6875,-3.0625 0.72995,-1.00518 1.30221,-1.97814 1.40625,-3.1875 0.11576,-1.34565 -0.52065,-2.3744 -1.09375,-3.21875 -0.5731,-0.84435 -1.19971,-1.67423 -1.75,-2.9375 -0.37154,-0.85292 -0.64385,-3.11492 -0.65625,-5.75 -0.0124,-2.63508 0.14051,-5.72294 0.21875,-8.59375 0.0684,-2.51036 -0.44074,-4.66275 -0.90625,-6.34375 -0.46551,-1.681 -0.735,-3.01158 -0.71875,-3.125 0.0125,-0.087 -0.0461,-0.0158 0.0937,-0.125 0.13981,-0.10916 0.51934,-0.28771 1.03125,-0.46875 1.02382,-0.36208 2.59553,-0.7153 4.1875,-1.5625 6.38167,-3.39611 10.69421,-9.78612 11.28125,-16.40625 0.12803,-1.44384 0.24398,-2.47025 0.125,-3.46875 -0.0595,-0.49925 -0.17526,-1.04282 -0.59375,-1.5625 -0.41849,-0.51968 -1.12052,-0.8205 -1.6875,-0.875 -1.13396,-0.10899 -2.02691,0.22767 -3.34375,0.6875 -1.31684,0.45983 -2.98701,1.13651 -5.21875,1.9375 -1.47907,0.53085 -5.41009,-0.0635 -7.9375,-3.125 -2.01482,-2.44055 -3.24261,-7.47267 -4.75,-12.4375 -1.29908,-4.27877 -2.27763,-9.09752 -4.0625,-13.3125 -2.41434,-5.70146 -5.5572,-10.13296 -6.84375,-12.09375 -1.46289,-2.22954 -2.46515,-5.14781 -5.0625,-7.59375 -0.61135,-0.71085 -0.98673,-1.18854 -1.15625,-1.53125 -0.16952,-0.34271 -0.21507,-0.54544 -0.15625,-1.09375 0.11764,-1.09661 0.9849,-3.4125 2.84375,-7.8125 2.93755,-6.95333 3.96809,-12.07824 4.03125,-19.71875 0.0447,-5.40265 -1.95566,-13.19827 -2.8125,-19.78125 -0.49766,-3.82348 -0.73014,-7.31017 -0.96875,-9.96875 -0.1193,-1.32929 -0.24561,-2.44578 -0.40625,-3.34375 -0.0803,-0.44899 -0.17032,-0.82985 -0.3125,-1.21875 -0.14218,-0.3889 -0.25884,-0.86182 -0.9375,-1.28125 -0.86551,-0.53491 -1.28976,-0.35436 -1.90625,-0.3125 -0.61649,0.0419 -1.31327,0.14448 -2.15625,0.375 -1.68595,0.46103 -3.86715,1.34862 -6.3125,2.875 -4.09123,2.55374 -13.25048,6.4984 -18.71875,8.40625 -5.6355,1.9662 -12.4958,4.70464 -15.5625,6.21875 -1.20123,0.59308 -2.34912,1.38052 -3.34375,1.90625 -0.82235,0.43467 -1.29154,0.49546 -1.625,0.5 -0.008,-0.45052 0.0858,-1.24451 0.28125,-2.3125 0.41763,-2.28171 1.125,-5.5433 1.125,-9.25 0,-3.54419 -0.12981,-6.74198 -0.4375,-9.375 -0.30769,-2.63302 -0.71553,-4.6535 -1.46875,-6.125 -0.34785,-0.67956 -1.1948,-3.34325 -2.1875,-6.6875 -0.5901,-1.98797 -1.18515,-3.72249 -1.9375,-5.09375 -0.37617,-0.68563 -0.78113,-1.311 -1.3125,-1.8125 -0.53137,-0.5015 -1.2716,-0.90385 -2.125,-0.9375 -1.24613,-0.0492 -2.10806,0.49688 -3.03125,1.1875 -0.92319,0.69062 -1.83445,1.603 -2.53125,2.71875 -0.43684,0.6995 -0.68925,1.01251 -0.96875,1.34375 -0.0218,-0.0565 -0.0103,0.002 -0.0312,-0.0625 -0.23978,-0.73909 -0.49077,-1.90316 -0.75,-3.4375 -0.25626,-1.51682 -0.58006,-3.57193 -0.96875,-5.4375 -0.38869,-1.86557 -0.66017,-3.44199 -1.59375,-4.71875 -0.53821,-0.73604 -1.15198,-1.35069 -2.03125,-1.65625 -0.87927,-0.30556 -1.86507,-0.12071 -2.59375,0.25 -1.45735,0.74142 -2.59094,2.03575 -4.375,3.78125 -1.09921,1.07544 -2.26211,2.79263 -3.40625,4.25 -0.53374,0.67986 -1.03636,1.23444 -1.4375,1.625 -0.11984,-0.30716 -0.22176,-0.61111 -0.34375,-1.0625 -0.34546,-1.27826 -0.58025,-2.80757 -1.09375,-4.03125 -1.30949,-3.12048 -1.91261,-8.05034 -5,-11.15625 a 1.5766625,1.5766625 0 0 0 -1.0625,-0.4375 c -1.25944,-0.0407 -1.86998,0.63724 -2.40625,1.21875 -0.53627,0.58151 -1.00182,1.27964 -1.40625,1.9375 -0.73228,1.19114 -1.18264,2.13337 -1.28125,2.34375 l -2.78125,3.0625 -2.4375,-2.8125 c -0.96503,-1.12076 -1.94612,-2.31394 -2.75,-3.34375 -0.80388,-1.02981 -1.45311,-1.97097 -1.59375,-2.21875 -0.29289,-0.51601 -0.75263,-1.41616 -1.28125,-2.25 -0.26431,-0.41692 -0.55006,-0.8134 -0.90625,-1.1875 -0.35619,-0.3741 -0.80551,-0.84544 -1.71875,-0.90625 -0.0605,-0.004 -0.29539,-0.0863 -0.75,0 z"
       transform="translate(2.1428572,-4.2857142)"
       id="path3668"
       style="color:#000000;fill:#000000;fill-opacity:1;fill-rule:nonzero;stroke:none;stroke-width:3.5;marker:none;visibility:visible;display:inline;overflow:visible;enable-background:accumulate" />
    <path
       d="m 401.08035,265.55801 c -1.85765,0.35201 -4.58864,4.19227 -9,10.21875 -2.3862,3.25984 -5.24597,9.51547 -7.25,9.78125 -2.00403,0.26577 -3.5,-5.1875 -3.5,-5.1875 -1.56919,-2.12369 -3.9281,-4.30186 -7.03125,-7.375 -3.22704,-3.19581 -5.63186,-6.75614 -7.375,-6.375 -1.98101,0.43317 -2.82377,4.82898 -4.46875,10.46875 -0.84051,2.88166 -1.93968,8.3338 -3.5,8.3125 -1.28629,-0.0175 -4.0625,-6.9375 -4.0625,-6.9375 -2.38212,-4.00128 -5.52774,-4.85679 -6.53125,-4.71875 -1.80459,0.24824 -4.20041,9.97786 -4.53125,15.625 -0.14175,2.41947 -2.15226,2.73861 -5,-1.90625 -1.84741,-3.01325 -5.86252,-5.17805 -6.65625,-4.6875 -0.79373,0.49056 -1.77675,4.28736 -2.625,7.4375 -1.85729,6.89744 -5.0805,10.58346 -10.15625,5 -3.0028,-3.30316 -4.18479,-2.29975 -5.03125,-0.0937 -0.5014,1.30609 -1.21621,7.49466 -0.71875,15.625 0.49746,8.13035 1.94349,18.78558 1.34375,19.15625 -0.59975,0.37066 -5.96663,-3.1132 -10.125,-6.5 -3.46441,-2.8216 -12.79779,-7.27405 -22.125,-8.78125 -11.23139,-1.8149 -21.44589,-7.04629 -23.5,-6.28125 -1.50888,0.56197 -0.92797,4.11535 -0.625,12.125 0.35627,9.41889 1.44352,20.2506 2.875,29.15625 1.27647,7.94132 2.78133,14.10006 3.21875,15.6875 0.86357,3.13393 1.43376,5.59786 -1.46875,6.5625 -4.3298,1.43899 -11.16974,10.90039 -12.3125,21.5 -1.68034,15.58592 -7.72483,30.15369 -16.625,33.96875 -2.08435,0.89346 -5.48298,0.55338 -6.25,2.6875 -0.71695,1.99481 -0.1172,3.71903 2.1875,6.09375 2.3047,2.37472 4.64488,5.44082 8.625,6.1875 3.95094,0.7412 4.90625,0.7242 4.90625,3.25 0,5.47638 -3.07203,12.64428 -8.0625,18.84375 -2.6364,3.27508 -5.84375,6.93247 -5.84375,7.65625 0,2.618 7.17862,5.96875 16.90625,5.96875 3.3125,0 8.67211,-2.8348 10.15625,-2.34375 1.75044,0.57915 1.66518,6.67757 0.90625,9.96875 -0.75893,3.29118 -1.70069,5.02155 -2.71875,6.46875 -1.49087,2.1193 -3.66396,3.21668 -3.28125,4.3125 0.35006,1.00231 2.08557,1.19468 4.1875,1.84375 1.91082,0.59005 2.99717,1.68485 8.25,1.65625 5.25284,-0.0286 7.34134,-2.14145 9.875,-2.09375 1.9075,0.0359 4.04005,3.49095 4.46875,5.03125 1.43558,5.15796 1.54884,18.96551 -7.0625,23.5625 -3.73248,1.99251 -1.13029,3.13925 4.78125,7.15625 5.95743,4.04817 13.39464,4.75223 16.09375,1.5 0.97812,-1.17857 2.3779,-3.5 3.3125,-3.5 0.99213,0 2.83245,3.07966 3.96875,4.90625 0.84016,1.35053 2.60174,1.97808 3.5,3.625 0.96399,1.76744 0.59354,4.5051 1.1875,6.375 1.70489,5.36728 6.67365,9.7882 11.78125,10.0625 2.47742,0.13304 3.7462,-1.54272 7.0625,-2.96875 3.63547,-1.56328 5.95631,0.76621 4.90625,4.25 -1.05033,3.4847 -2.2069,3.73384 3.21875,2.875 1.8273,-0.28925 5.04752,-1.92553 7.28125,-3.0625 2.23373,-1.13697 4.34097,-1.78403 4.6875,-1.4375 -0.36685,5.9561 -4.46235,13.93375 -4.9375,17.8125 -0.46439,3.7908 3.33285,0.25809 7,-1.59375 1.15906,-0.59937 5.32332,-2.40625 6.28125,-2.40625 1.42498,0 1.6785,0.39434 1.6875,2.5 0.0153,3.45874 3.16869,7.82347 5.5625,9.0625 2.3938,1.23903 3.2119,2.47837 5.84375,2.75 2.63186,0.27163 4.50709,0.84335 5.875,7.125 2.41441,9.58197 5.32805,15.99007 15.1875,21.65625 1.39557,0.80202 4.14217,2.2058 5.75,2.59375 2.50581,0.60462 4.1791,0.65069 7.40625,0.3125 3.22715,-0.33819 15.02751,-3.86367 17.96875,-9.65625 l -2.53125,-1.21875 c -0.91654,-0.44362 -2.54921,-0.11004 -3.71875,-0.4375 -1.18039,-0.3305 -1.73542,-1.93552 -2.8125,-4.3125 -0.98052,-2.16386 -2.1953,-1.67118 -2.25,-4.3125 -0.0547,-2.64132 2.19953,-5.51134 6.5625,-11.96875 2.84812,-4.21536 6.02749,-7.7007 6.3125,-14.8125 0.11229,-2.80212 -1.08219,-10.20993 0.25,-11.5625 0.18118,-0.18394 2.74216,0.13523 5.0625,1.71875 2.27502,1.5526 5.15345,3.91875 5.71875,3.84375 0.38885,-0.0516 -0.20445,-2.13006 -0.15625,-4.5625 0.0537,-2.70666 0.91778,-5.05044 2.1875,-6.15625 1.35378,-1.17903 5.05162,1.79592 7.3125,3.40625 2.26088,1.61033 2.96336,3.36915 4.65625,2.75 1.51298,-0.55334 1.0254,-3.84707 1.40625,-5.5 0.38085,-1.65293 -0.0113,-5.64395 0.1875,-7.875 0.22321,-2.50495 1.92082,-4.29854 4.53125,-1.53125 0.89696,0.95086 3.36499,3.87464 5.78125,5.5625 4.33104,3.02543 9.00088,1.24511 10.34375,-3.9375 0.63797,-2.46217 3.38101,-4.19842 11.25,-7.1875 5.71621,-2.17132 12.5819,-3.9475 15.28125,-3.9375 3.0933,0.0122 6.13486,-1.13605 8.21875,-3.09375 3.73476,-3.50863 4.4588,-7.23605 1.15625,-5.96875 -1.18448,0.45453 -2.19323,-0.0856 -4.5625,-0.15625 -2.45754,-0.0732 -5.36552,0.25077 -7,-1.875 -1.63447,-2.12578 -1.40625,-10.84375 -1.40625,-10.84375 0.56711,-7.49854 1.42405,-12.96524 3.875,-14.25 0.67814,-0.35547 1.14148,3.89388 2.15625,6.34375 0.96231,2.32324 2.99001,6.13292 5.125,7.65625 2.39392,1.7081 6.26177,2.48628 7.65625,-2.09375 0.72999,-2.39761 -1.85795,-7.42213 -1.84375,-12.75 0.0303,-11.33517 2.5757,-14.72846 5.34375,-18 1.68788,-1.9949 2.77703,-1.91035 4.71875,0.0312 3.42377,3.42377 9.7642,4.39128 15.59375,-1.46875 1.98152,-1.99188 3.54236,-3.92615 3.65625,-5.25 0.13561,-1.57642 -1.47197,-2.5441 -2.71875,-5.40625 -1.1784,-2.70518 -0.71757,-9.3102 -0.5625,-15 0.12368,-4.53806 -1.86972,-7.94812 -1.625,-9.65625 0.28207,-1.96874 3.40151,-1.89439 6.125,-3.34375 5.91463,-3.14757 9.93516,-9.10767 10.46875,-15.125 0.51123,-5.76519 0.37967,-4.91935 -8.625,-1.6875 -2.38458,0.85585 -6.75369,-0.04 -9.6875,-3.59375 -2.43652,-2.95136 -3.54945,-8.08819 -5.03125,-12.96875 -1.32933,-4.37841 -2.30603,-9.15593 -4,-13.15625 -2.33683,-5.51842 -5.38623,-9.81291 -6.71875,-11.84375 -1.63255,-2.48811 -2.57974,-5.28154 -4.9375,-7.4375 -2.49749,-2.90395 -2.44054,-3.28408 1.28125,-12.09375 2.88423,-6.82712 3.84415,-11.58203 3.90625,-19.09375 0.0411,-4.97076 -1.93674,-12.83416 -2.8125,-19.5625 -1.00986,-7.75861 -0.99303,-14.1231 -1.90625,-14.6875 -0.56688,-0.35035 -4.04282,0.0383 -8.6875,2.9375 -4.35352,2.71746 -13.44825,6.61462 -19.03125,8.5625 -5.58302,1.94789 -12.51595,4.69798 -15.40625,6.125 -2.07564,1.0248 -4.55508,3.14426 -6.4375,2.59375 -2.16987,-0.63457 0.625,-6.16287 0.625,-13.15625 0,-6.99338 -0.63215,-12.5974 -1.75,-14.78125 -0.5488,-1.07215 -1.29002,-3.62946 -2.28125,-6.96875 -1.14811,-3.86781 -2.42842,-6.65925 -3.9375,-6.71875 -1.05846,-0.0418 -2.99563,1.32906 -4.15625,3.1875 -2.58697,4.1424 -3.59482,3.53248 -4.65625,-2.75 -0.51873,-3.07039 -1.24931,-8.05747 -2.28125,-9.46875 -1.75989,-2.40679 -3.03449,-0.95039 -6.625,2.5625 -1.69366,1.65704 -4.86432,6.9864 -6.3125,6.75 -1.3613,-0.22221 -1.78735,-4.69604 -2.53125,-6.46875 -1.4367,-3.42362 -2.15743,-8.14244 -4.65625,-10.65625 -1.45308,-0.0469 -3.71875,4.84375 -3.71875,4.84375 l -4.125,4.53125 -3.59375,-4.15625 c -1.96526,-2.2824 -4.0098,-4.89381 -4.53125,-5.8125 -0.6572,-1.15783 -1.77945,-3.5062 -2.625,-3.5625 -0.11626,-0.008 -0.25116,-0.0235 -0.375,0 z"
       id="path8176-1"
       style="color:#000000;fill:#fdda1e;fill-opacity:1;fill-rule:nonzero;stroke:none;stroke-width:3.5;marker:none;visibility:visible;display:inline;overflow:visible;enable-background:accumulate" />
  </g>
  <g
     transform="translate(-115.56758,-168.88165)"
     id="layer6"
     style="display:inline">
    <path
       d="m 401.08035,265.55801 c -1.85765,0.35201 -4.58864,4.19227 -9,10.21875 -2.3862,3.25984 -5.24597,9.51547 -7.25,9.78125 -2.00403,0.26577 -3.5,-5.1875 -3.5,-5.1875 -1.56919,-2.12369 -3.9281,-4.30186 -7.03125,-7.375 -3.22704,-3.19581 -5.63186,-6.75614 -7.375,-6.375 -1.98101,0.43317 -2.82377,4.82898 -4.46875,10.46875 -0.84051,2.88166 -1.93968,8.3338 -3.5,8.3125 -1.28629,-0.0175 -4.0625,-6.9375 -4.0625,-6.9375 -2.38212,-4.00128 -5.52774,-4.85679 -6.53125,-4.71875 -1.80459,0.24824 -4.20041,9.97786 -4.53125,15.625 -0.14175,2.41947 -2.15226,2.73861 -5,-1.90625 -1.84741,-3.01325 -5.86252,-5.17805 -6.65625,-4.6875 -0.79373,0.49056 -1.77675,4.28736 -2.625,7.4375 -1.85729,6.89744 -5.0805,10.58346 -10.15625,5 -3.0028,-3.30316 -4.18479,-2.29975 -5.03125,-0.0937 -0.5014,1.30609 -1.21621,7.49466 -0.71875,15.625 0.49746,8.13035 1.94349,18.78558 1.34375,19.15625 -0.59975,0.37066 -5.96663,-3.1132 -10.125,-6.5 -3.46441,-2.8216 -12.79779,-7.27405 -22.125,-8.78125 -11.23139,-1.8149 -21.44589,-7.04629 -23.5,-6.28125 -1.50888,0.56197 -0.92797,4.11535 -0.625,12.125 0.35627,9.41889 1.44352,20.2506 2.875,29.15625 1.27647,7.94132 2.78133,14.10006 3.21875,15.6875 0.86357,3.13393 1.43376,5.59786 -1.46875,6.5625 -4.3298,1.43899 -11.16974,10.90039 -12.3125,21.5 -1.68034,15.58592 -7.72483,30.15369 -16.625,33.96875 -2.08435,0.89346 -5.48298,0.55338 -6.25,2.6875 -0.71695,1.99481 -0.1172,3.71903 2.1875,6.09375 2.3047,2.37472 4.64488,5.44082 8.625,6.1875 3.95094,0.7412 4.90625,0.7242 4.90625,3.25 0,5.47638 -3.07203,12.64428 -8.0625,18.84375 -2.6364,3.27508 -5.84375,6.93247 -5.84375,7.65625 0,2.618 7.17862,5.96875 16.90625,5.96875 3.3125,0 8.67211,-2.8348 10.15625,-2.34375 1.75044,0.57915 1.66518,6.67757 0.90625,9.96875 -0.75893,3.29118 -1.70069,5.02155 -2.71875,6.46875 -1.49087,2.1193 -3.66396,3.21668 -3.28125,4.3125 0.35006,1.00231 2.08557,1.19468 4.1875,1.84375 1.91082,0.59005 2.99717,1.68485 8.25,1.65625 5.25284,-0.0286 7.34134,-2.14145 9.875,-2.09375 1.9075,0.0359 4.04005,3.49095 4.46875,5.03125 1.43558,5.15796 1.54884,18.96551 -7.0625,23.5625 -3.73248,1.99251 -1.13029,3.13925 4.78125,7.15625 5.95743,4.04817 13.39464,4.75223 16.09375,1.5 0.97812,-1.17857 2.3779,-3.5 3.3125,-3.5 0.99213,0 2.83245,3.07966 3.96875,4.90625 0.84016,1.35053 2.60174,1.97808 3.5,3.625 0.96399,1.76744 0.59354,4.5051 1.1875,6.375 1.70489,5.36728 6.67365,9.7882 11.78125,10.0625 2.47742,0.13304 3.7462,-1.54272 7.0625,-2.96875 3.63547,-1.56328 5.95631,0.76621 4.90625,4.25 -1.05033,3.4847 -2.2069,3.73384 3.21875,2.875 1.8273,-0.28925 5.04752,-1.92553 7.28125,-3.0625 2.23373,-1.13697 4.34097,-1.78403 4.6875,-1.4375 -0.36685,5.9561 -4.46235,13.93375 -4.9375,17.8125 -0.46439,3.7908 3.33285,0.25809 7,-1.59375 1.15906,-0.59937 5.32332,-2.40625 6.28125,-2.40625 1.42498,0 1.6785,0.39434 1.6875,2.5 0.0153,3.45874 3.16869,7.82347 5.5625,9.0625 2.3938,1.23903 3.2119,2.47837 5.84375,2.75 2.63186,0.27163 4.50709,0.84335 5.875,7.125 2.41441,9.58197 5.32805,15.99007 15.1875,21.65625 1.39557,0.80202 4.14217,2.2058 5.75,2.59375 2.50581,0.60462 4.1791,0.65069 7.40625,0.3125 3.22715,-0.33819 15.02751,-3.86367 17.96875,-9.65625 l -2.53125,-1.21875 c -0.91654,-0.44362 -2.54921,-0.11004 -3.71875,-0.4375 -1.18039,-0.3305 -1.73542,-1.93552 -2.8125,-4.3125 -0.98052,-2.16386 -2.1953,-1.67118 -2.25,-4.3125 -0.0547,-2.64132 2.19953,-5.51134 6.5625,-11.96875 2.84812,-4.21536 6.02749,-7.7007 6.3125,-14.8125 0.11229,-2.80212 -1.08219,-10.20993 0.25,-11.5625 0.18118,-0.18394 2.74216,0.13523 5.0625,1.71875 2.27502,1.5526 5.15345,3.91875 5.71875,3.84375 0.38885,-0.0516 -0.20445,-2.13006 -0.15625,-4.5625 0.0537,-2.70666 0.91778,-5.05044 2.1875,-6.15625 1.35378,-1.17903 5.05162,1.79592 7.3125,3.40625 2.26088,1.61033 2.96336,3.36915 4.65625,2.75 1.51298,-0.55334 1.0254,-3.84707 1.40625,-5.5 0.38085,-1.65293 -0.0113,-5.64395 0.1875,-7.875 0.22321,-2.50495 1.92082,-4.29854 4.53125,-1.53125 0.89696,0.95086 3.36499,3.87464 5.78125,5.5625 4.33104,3.02543 9.00088,1.24511 10.34375,-3.9375 0.63797,-2.46217 3.38101,-4.19842 11.25,-7.1875 5.71621,-2.17132 12.5819,-3.9475 15.28125,-3.9375 3.0933,0.0122 6.13486,-1.13605 8.21875,-3.09375 3.73476,-3.50863 4.4588,-7.23605 1.15625,-5.96875 -1.18448,0.45453 -2.19323,-0.0856 -4.5625,-0.15625 -2.45754,-0.0732 -5.36552,0.25077 -7,-1.875 -1.63447,-2.12578 -1.40625,-10.84375 -1.40625,-10.84375 0.56711,-7.49854 1.42405,-12.96524 3.875,-14.25 0.67814,-0.35547 1.14148,3.89388 2.15625,6.34375 0.96231,2.32324 2.99001,6.13292 5.125,7.65625 2.39392,1.7081 6.26177,2.48628 7.65625,-2.09375 0.72999,-2.39761 -1.85795,-7.42213 -1.84375,-12.75 0.0303,-11.33517 2.5757,-14.72846 5.34375,-18 1.68788,-1.9949 2.77703,-1.91035 4.71875,0.0312 3.42377,3.42377 9.7642,4.39128 15.59375,-1.46875 1.98152,-1.99188 3.54236,-3.92615 3.65625,-5.25 0.13561,-1.57642 -1.47197,-2.5441 -2.71875,-5.40625 -1.1784,-2.70518 -0.71757,-9.3102 -0.5625,-15 0.12368,-4.53806 -1.86972,-7.94812 -1.625,-9.65625 0.28207,-1.96874 3.40151,-1.89439 6.125,-3.34375 5.91463,-3.14757 9.93516,-9.10767 10.46875,-15.125 0.51123,-5.76519 0.37967,-4.91935 -8.625,-1.6875 -2.38458,0.85585 -6.75369,-0.04 -9.6875,-3.59375 -2.43652,-2.95136 -3.54945,-8.08819 -5.03125,-12.96875 -1.32933,-4.37841 -2.30603,-9.15593 -4,-13.15625 -2.33683,-5.51842 -5.38623,-9.81291 -6.71875,-11.84375 -1.63255,-2.48811 -2.57974,-5.28154 -4.9375,-7.4375 -2.49749,-2.90395 -2.44054,-3.28408 1.28125,-12.09375 2.88423,-6.82712 3.84415,-11.58203 3.90625,-19.09375 0.0411,-4.97076 -1.93674,-12.83416 -2.8125,-19.5625 -1.00986,-7.75861 -0.99303,-14.1231 -1.90625,-14.6875 -0.56688,-0.35035 -4.04282,0.0383 -8.6875,2.9375 -4.35352,2.71746 -13.44825,6.61462 -19.03125,8.5625 -5.58302,1.94789 -12.51595,4.69798 -15.40625,6.125 -2.07564,1.0248 -4.55508,3.14426 -6.4375,2.59375 -2.16987,-0.63457 0.625,-6.16287 0.625,-13.15625 0,-6.99338 -0.63215,-12.5974 -1.75,-14.78125 -0.5488,-1.07215 -1.29002,-3.62946 -2.28125,-6.96875 -1.14811,-3.86781 -2.42842,-6.65925 -3.9375,-6.71875 -1.05846,-0.0418 -2.99563,1.32906 -4.15625,3.1875 -2.58697,4.1424 -3.59482,3.53248 -4.65625,-2.75 -0.51873,-3.07039 -1.24931,-8.05747 -2.28125,-9.46875 -1.75989,-2.40679 -3.03449,-0.95039 -6.625,2.5625 -1.69366,1.65704 -4.86432,6.9864 -6.3125,6.75 -1.3613,-0.22221 -1.78735,-4.69604 -2.53125,-6.46875 -1.4367,-3.42362 -2.15743,-8.14244 -4.65625,-10.65625 -1.45308,-0.0469 -3.71875,4.84375 -3.71875,4.84375 l -4.125,4.53125 -3.59375,-4.15625 c -1.96526,-2.2824 -4.0098,-4.89381 -4.53125,-5.8125 -0.6572,-1.15783 -1.77945,-3.5062 -2.625,-3.5625 -0.11626,-0.008 -0.25116,-0.0235 -0.375,0 z m -0.34375,3.09375 c 1.29077,0.0589 1.53532,6.44323 3.28125,8.75 1.74592,2.30678 1.86525,6.60885 1.90625,10.40625 0.0873,8.07702 1.86923,7.31592 6.78125,-2.96875 1.96428,-4.11278 4.86992,-8.9253 5.40625,-8.9375 0.76579,-0.0174 0.46778,3.4943 2.75,6.15625 1.92708,2.24772 1.95742,6.72721 2.21875,9.8125 0.18339,2.16515 0.23802,4.01927 0.6875,4.46875 0.44947,0.44948 3.49673,-2.78369 6.75,-7.1875 3.19818,-4.32922 5.39446,-8.56653 6.53125,-8.96875 1.58864,-0.56208 1.89192,4.9376 2.5,12.90625 0.25419,3.331 0.59066,6.09375 1.125,6.09375 0.53435,0 2.94442,-2.01466 5.34375,-4.46875 1.39881,-1.43073 2.78207,-5.31543 4.71875,-4.8125 1.9584,0.50857 1.19539,4.65128 1.875,6.25 0.67961,1.59871 3.69907,6.98655 4.28125,14.0625 0.55515,6.7473 -1.17517,15.04105 -2.8125,20.9375 -2.02468,7.29142 -0.4696,8.8799 7.03125,1.6875 4.35968,-4.18043 5.57118,-5.58578 13.84375,-7.6875 8.47797,-2.1539 24.48841,-7.2389 31.40625,-12.90625 0.4876,-0.39944 -0.72549,3.00987 -0.0937,10.9375 0.32405,4.06695 2.12564,9.18746 2.8125,15.875 1.0041,9.77637 -1.05124,18.40714 -7.09375,30 -3.17743,6.09603 -4.30222,7.63528 -3.125,8.8125 1.17721,1.17722 2.17307,1.1053 3.84375,-0.28125 1.92745,-1.59964 3.15931,-0.38076 5.15625,2.5 3.37128,4.86338 6.4093,10.4316 8.5,16.40625 3.13447,8.95744 4.06949,16.93649 6.6875,21.90625 2.618,4.96976 8.64309,8.10355 16.375,6.96875 4.05703,-0.59544 3.12293,1.14648 2.28125,4.5 -1.15037,4.58343 -4.09582,7.53575 -9.03125,7.59375 -3.10437,0.0365 -6.33132,0.0328 -8.78125,-5.53125 -2.53981,-5.76811 -4.4226,-7.98365 -6.375,-6.03125 -1.544,1.544 -0.042,4.81627 0.375,6.4375 1.11896,4.35005 4.34548,9.53602 9.09375,15.03125 2.58845,2.99565 3.07717,13.65201 1.25,14.78125 -0.79737,0.49282 -0.511,2.81906 0.6875,5.6875 1.92143,4.5986 0.94053,5.73382 -2.375,7.90625 -7.32587,4.8001 -9.22295,2.64213 -9.15625,-10.5625 0.0462,-9.14403 -1.7692,-16.71875 -4.75,-16.71875 -3.43065,0 -3.91704,2.40835 -1.59375,7.96875 3.15588,7.5531 3.16207,17.24916 -0.625,19.28125 -4.4279,2.37594 -7.8889,7.85092 -8.8125,19.375 -0.76313,9.52192 0.23074,10.48391 -2.25,9.15625 -2.38759,-1.27778 -2.60633,-2.64426 -1.875,-12.4375 0.81587,-10.92556 -0.41143,-15.85827 -3.46875,-13.96875 -0.87356,0.53988 -1.59375,3.40152 -1.59375,6.375 0,2.97348 -1.27232,9.15131 -2.84375,13.71875 -2.33456,6.78552 -4.1668,14.25939 -3.6875,20.40625 0.4455,5.71335 3.0196,10.28111 5.6875,12.0625 3.14258,2.09835 -9.10255,1.46859 -13.84375,-0.78125 -5.93192,-2.81489 -6.94813,-6.14422 -5.6875,-18.9375 0.53087,-5.38749 0.9516,-12.59278 0.125,-16.28125 -0.71526,-3.19162 -3.10411,-6.59282 -2.40625,-8.53125 0.6661,-1.85018 2.65155,-2.75461 4.75,-5.90625 2.50712,-3.76541 5.35807,-7.33088 6.34375,-7.9375 4.13192,-2.54295 6.24018,-5.87288 8.625,-13.59375 0.65614,-2.12427 0.6553,-5.67148 2.03125,-7.9375 1.53529,-2.52844 5.07194,-3.45285 5.65625,-5.40625 1.47731,-4.93878 2.34232,-6.43066 3.1875,-12.875 0.51482,-3.92544 -3.66079,-8.4375 -4.125,-12.5625 -0.37386,-3.32234 1.10605,-6.65039 1.09375,-8.09375 -0.0178,-2.08514 -2.24304,-1.32199 -4.15625,0.9375 -2.36754,2.79604 -1.8871,8.35759 0.1875,16.875 1.54693,6.35099 -0.61132,15.01628 -3.28125,15.90625 -1.13095,0.37698 0.46192,-3.85774 -0.5,-6.625 -1.96879,-5.66386 -4.39955,-4.3333 -4.46875,2.25 -0.0327,3.11413 -0.37236,6.9996 0.28125,8.71875 1.20793,3.17709 -0.0366,9.56147 -2.78125,14.28125 -1.1744,2.01953 -1.54625,2.1298 -1.65625,0.46875 -0.34972,-5.2823 -1.99914,-9.87414 -2.75,-10.625 -1.88304,-1.88304 -5.49736,2.9638 -4.5625,10 1.07897,8.12085 -3.848,18.84617 -6.34375,18.71875 -0.6158,-0.0314 -0.33479,-3.07933 -0.84375,-5.59375 -1.63746,-8.08953 -6.07612,-4.6408 -4.65625,3.21875 l 0.4375,8.34375 c 0.0841,1.58566 -4.40261,-5.735 -5.5625,-7.21875 -2.37906,-3.04335 -4.75549,-4.46011 -6.09375,-5.6875 -2.59351,-2.37865 -1.04352,-3.24019 4,-8.0625 7.43333,-7.1073 12.41657,-16.84256 17.40625,-23.375 4.39911,-5.75926 7.89186,-11.90326 8.4375,-15.25 0.60119,-3.68739 3.19622,-8.80752 5.3125,-12.09375 4.70945,-7.313 5.36292,-24.34979 1.6875,-31.40625 -1.94499,-3.7342 -2.04637,-4.20273 -4.3125,-1.71875 -2.03843,2.23439 -1.3627,3.60967 -0.40625,8.3125 1.42161,6.99005 1.24451,22.67337 -0.71875,22.875 -0.78161,0.0803 -2.60016,-3.3517 -2.84375,-5.0625 -0.58178,-4.08581 -4.20591,-7.13784 -6.15625,-5.1875 -0.98621,0.98622 -0.64139,4.44153 1.03125,10.71875 2.37753,8.92254 3.07651,8.86537 0.4375,15.28125 -1.50543,3.65995 -3.80737,8.71575 -4.25,8.71875 -0.44264,0.003 -0.98349,-4.21875 -2.0625,-6.96875 -1.79806,-4.58255 -4.05506,-6.16369 -6,-4.21875 -0.42228,0.42229 -0.14809,3.71904 0.625,7.34375 1.00415,4.70819 0.9246,8.15218 -0.3125,12.28125 -1.80718,6.03186 -9.96986,16.75 -12.21875,16.75 -0.71646,0 -1.25524,-3.7385 -3.625,-6.4375 -5.94233,-6.76794 -15.96012,-10.42553 -29.40625,-10.71875 -4.45601,-0.0972 -5.2574,-0.22448 -6.90625,-10 -1.27295,-7.54431 -1.26751,-12.51318 0,-20.875 1.6599,-10.95049 0.90995,-14.40347 -2.625,-12.21875 -5.1979,3.21247 -6.10625,21.34842 -1.90625,37.6875 l 2.09375,5.375 -17,-0.21875 c -9.34922,-0.11405 -18.4375,-0.89572 -18.4375,-1.53125 0,-0.63553 0.64443,-2.8828 1.4375,-4.96875 2.57102,-6.76227 3.89386,-24.79162 -0.90625,-31.5625 -3.02212,-4.26291 -3.24912,-5.71963 -5.21875,-3.75 -0.49248,0.49247 0.0867,2.8483 1.3125,5.21875 3.0113,5.82321 2.74401,18.55071 -0.59375,28.1875 l -2.71875,7.84375 -11.28125,0.8125 c -16.07841,1.1263 -24.20058,5.31424 -26.9375,13.9375 -1.23222,3.88237 -4.01964,4.27669 -7.4375,0.5 -1.58596,-1.75247 -3.00006,-6.00528 -3.4375,-10.34375 -0.55618,-5.51604 0.15322,-7.8305 -1.71875,-8.1875 -1.52365,-0.29057 -2.5,0.38017 -2.5,1.75 0,1.62655 -0.93113,4.62295 -1.875,4.53125 -1.22016,-0.11848 -2.57815,-3.84738 -3.1875,-6.21875 -0.55525,-2.16071 -0.77689,-6.66708 -0.46875,-10.3125 0.61674,-7.29619 -2.19203,-9.16447 -4.6875,-3.6875 -0.45681,1.00258 -0.40251,4.35464 -0.96875,4.9375 -0.58951,0.6068 -4.37457,-3.01623 -5.0625,-3.78125 -1.57619,-1.75281 -1.20159,-8.81807 -0.3125,-15.6875 0.42983,-3.3208 0.42795,-7.02169 -0.0312,-8.21875 -1.07232,-2.79439 -4.6825,-2.81325 -5.75,-0.0312 -0.45226,1.17857 -2.00936,3.59375 -2.8125,3.59375 -0.92903,0 -0.60036,-4.4303 -0.0312,-9.65625 1.09133,-10.023 -0.76329,-13.67853 -4.59375,-9.84375 -3.5554,3.55941 -5.53894,14.80007 -1.78125,22.8125 1.73394,3.69724 6.71186,7.58914 7,13.03125 0.36979,6.98424 7.54364,16.15051 12.21875,18.84375 4.6751,2.69324 1.96546,4.34662 5.375,8.125 3.17941,3.52336 8.09381,8.79529 10.46875,11.90625 1.88839,2.47363 4.62637,5.60507 6.71875,6.53125 l 3.8125,1.65625 -4.625,5.8125 c -2.54207,3.18146 -5.51473,8.00395 -6.59375,10.71875 -1.64407,4.13645 -3.4633,10.71495 -3.1875,17.59375 0.38205,9.52866 3.64756,19.54545 6.78125,23.65625 3.2721,4.29238 7.69182,7.75961 10.1875,9.15625 2.49568,1.39664 7.36277,3.9344 20.875,3.875 5.83556,-0.0257 9.245,-2.14898 11.625,-1.5 2.88724,0.78729 4.40351,2.46609 4.78125,3.65625 1.22317,3.85389 11.53081,7.90625 23,7.90625 8.43414,0 10.93103,-1.53312 17,-4.65625 3.08464,-1.58738 6.06154,-4.15 10.125,-4.84375 5.75544,-0.98268 9.04755,0.0678 13.28125,-0.9375 1.91388,-0.45444 14.26901,-5.28154 19.96875,-9.96875 5.69975,-4.68721 9.92409,-9.3712 12.40625,-15.84375 2.52352,-6.58042 2.01711,-18.10665 1.5625,-24.15625 -0.23872,-3.1766 1.3316,-3.672 1.53125,-3.625 1.15933,0.27262 3.33315,4.74608 3.34375,11.21875 0.0135,8.23244 -2.68325,17.87185 -2.71875,18 0,0 -4.5109,10.31906 -4.5625,14.21875 -0.0516,3.8997 3.08,5.48145 2.25,7.5625 -0.83,2.08106 -3.25688,2.92125 -5.1875,2.90625 -1.93061,-0.015 -3.57018,0.76367 -5.09375,-0.125 -1.62438,-0.94747 -2.58141,-2.48882 -4,-3.71875 -1.41859,-1.22993 -3.16372,-3.23152 -4.65625,-2.03125 -1.49252,1.20026 -1.19087,16.2556 -1.34375,16.3125 -1.14577,0.42656 -1.95053,-1.01104 -3.78125,-1.96875 -3.21917,-1.68405 -4.23604,-2.60233 -5.625,-4.03125 -1.39212,-1.43215 -2.4656,-3.94325 -4.15625,-3.84375 -1.69065,0.0995 -1.8061,1.33671 -1.9375,3.5 -0.13141,2.16329 0.25947,3.3724 0.4375,6.59375 0.178,3.22134 0.84544,5.78055 0.0937,6.21875 -0.85378,0.49778 -3.38789,-3.41333 -3.96875,-4.34375 -1.74077,-2.78837 -5.03423,-7.63119 -6.65625,-5 -2.08188,3.37715 -1.51159,8.23817 -1.34375,14.09375 0.0645,2.25143 0.89471,7.65135 -1.21875,11 -2.24829,3.56228 -8.88877,14.061 -9.21875,14.84375 -0.32998,0.78275 -2.20438,2.96554 -2.5,5.46875 -0.3204,2.71298 0.98287,5.87313 2.53125,7.875 3.5123,3.03841 2.90285,3.77979 -2.0625,6.28125 -1.79626,0.90493 -4.36172,1.5 -6.375,1.5 -3.5086,0 -7.39404,-1.71458 -8.125,-2.28125 -4.27452,-3.31377 -8.10246,-7.89202 -11.03125,-12.90625 -1.2704,-2.17498 -3.36134,-12.18628 -3.1875,-15.90625 0.17384,-3.71997 1.35538,-5.79646 2.0625,-8.3125 0.70712,-2.51604 3.699,-7.86452 3.84375,-9.09375 0.18647,-1.58348 -1.40965,-3.125 -2.625,-3.125 -2.29161,0 -7.13421,9.8511 -7.5,13.125 -0.36579,3.27389 -0.76314,6.33573 -3,6.96875 -1.52529,0.43165 -2.15818,0.0511 -6.5625,-2.03125 -2.75521,-1.30268 -4.13158,-6.23793 -4.875,-11.28125 -0.17857,-1.21142 -0.30203,-3.21155 0.40625,-5.09375 0.89172,-2.36963 3.75783,-5.99635 1.0625,-6.96875 -0.44406,-0.39971 -1.52539,-0.17139 -2.40625,1.15625 -0.88087,1.32763 -5.49092,9.06872 -7.15625,11.46875 -1.66533,2.40005 -2.13885,2.30165 -2.625,2.34375 -1.28326,-0.0153 -1.55217,-0.19013 -0.65625,-1.9375 0.705,-1.375 2.16745,-5.78465 2.09375,-9.875 -0.209,-11.60259 -2.00622,-12.6992 -8.09375,-5.375 -4.65531,5.60102 -9.1888,6.2865 -9.125,3.0625 0.0312,-1.57447 1.74212,-5.38762 2.53125,-9.34375 0.42711,-2.14119 -0.29702,-3.81355 -1.1875,-3.9375 -1.18369,-0.16477 -2.65031,1.7777 -2.96875,2.125 -1.62343,1.77054 -5.19465,4.36724 -7.71875,5.90625 -6.29176,3.83627 -8.00229,3.05122 -11.125,-1.4375 -3.19148,-4.58759 -2.37165,-6.23971 2,-11.21875 5.04801,-5.74937 4.14749,-6.19302 2,-10.90625 -2.06997,-4.54307 -1.57954,-3.13945 -3.59375,1.28125 -0.87289,1.9158 -2.86908,4.1606 -4.4375,5 -3.31736,1.7754 -7.30366,0.0894 -6.84375,-3.78125 0.23143,-1.94771 2.2904,-4.59887 3.53125,-7.6875 1.82249,-4.53644 3.39739,-11.84088 3.59375,-16.65625 0.19223,-4.71429 1.26743,-11.25367 2.375,-14.5625 1.10757,-3.30882 2.93682,-6.84453 2.65625,-8.25 -0.39807,-1.99401 -1.53973,-2.06255 -4.46875,2.21875 -1.13794,1.66331 -1.57344,4.62248 -2.40625,5.34375 -1.75097,1.51645 -3.20987,-0.003 -3.84375,-2 -1.13731,-3.58334 -0.83032,-11.1509 0.25,-16.15625 0.97018,-4.49525 0.66226,-7.06917 -1.90625,-4.9375 -1.12761,0.93583 -2.75807,3.8709 -3.0625,3.5625 -0.35431,-0.35893 -1.28575,-3.4002 -1.46875,-5.5625 -0.37628,-4.44611 -0.22659,-10.77378 0.53125,-12 1.3789,-2.2311 0.37454,-4.42609 -1.78125,-3.09375 -0.84173,0.52023 -2.07268,2.98511 -2.75,5.5 l -1.25,4.5625 c 0,0 -2.62588,-2.38148 -3.65625,-5.15625 -1.03036,-2.77478 -1.73161,-8.12437 -1.125,-13.6875 0.70817,-6.49443 0.92854,-8.09375 -0.96875,-8.09375 -1.35231,0 -2.76256,1.83723 -3.46875,4.5625 -0.37463,1.44572 0.20956,3.78415 -1.28125,4.28125 -1.94894,0.64985 -2.51677,-0.59464 -4.1875,-3.03125 -1.67073,-2.43661 -3.0625,-3.53603 -3.0625,-10.375 0,-9.50507 -1.26043,-11.35092 -5,-7.21875 -2.11598,2.33814 -2.38857,4.37651 -1.65625,12.21875 1.00118,10.7214 6.97338,16.50612 11.875,19.5 2.01266,1.22932 3.66318,2.2624 4.3125,5.21875 0.52604,2.39502 2.97083,6.30804 5.4375,8.71875 4.2799,4.18283 7.98515,11.91163 8.03125,16.75 0.0118,1.24184 0.57033,5.43628 2.40625,9.0625 1.43543,2.8352 3.83333,3.65143 4.46875,6.03125 0.57653,2.15925 -0.54327,5.81705 -0.78125,9.3125 -0.87017,12.78085 -7.62798,25.5 -13.5625,25.5 -1.52479,0 -4.72392,-1.37502 -7.09375,-3.0625 -3.80664,-2.71055 -6.62056,-3.04578 -4.46875,-4.25 3.37757,-1.89018 9.82705,-11.86677 9.84375,-17.5625 0.006,-1.99201 0.33846,-6.04038 1.9375,-8.9375 0.95104,-1.72309 2.98356,-2.63981 3.9375,-3.59375 4.81188,-4.81187 1.89572,-6.25019 -3.9375,-1.9375 -1.54129,1.13953 -3.2058,3.12905 -4.75,3.25 -1.5442,0.12095 -2.43012,-2.18189 -4.0625,-5.5625 -1.63239,-3.3806 -2.10765,-8.1354 0.40625,-17.4375 0.77214,-2.85714 0.76621,-2.85714 -1.90625,0 -3.14484,3.36217 -5.92398,9.85837 -6.28125,13.28125 -0.62081,5.94479 -4.11942,8.6562 -8.84385,8.6562 -2.97106,0 -4.4375,-0.6826 -4.4375,-2.125 0,-1.17857 0.59085,-2.15625 1.28125,-2.15625 4.70848,-7.89984 3.71325,-15.49256 1.25,-23.9375 -0.95888,-3.2874 -0.7168,-6.38686 1.5,-9.5 3.34948,-4.70391 5.02334,-6.75 2.9375,-6.75 -1.38676,0 -5.32539,2.48958 -7.65625,5.6875 -2.20431,3.02432 -2.81698,6.7099 -3.25,8.875 -1.32734,6.63669 -2.86521,7.0625 -9.71875,7.0625 -7.53283,0 -11.43831,-1.44798 -6.75,-4.96875 3.57548,-2.39109 5.35875,-4.45935 7.3125,-7.78125 1.95376,-3.3219 4.05986,-10.88405 6.375,-23.875 1.59345,-8.94132 9.60091,-27.5564 14,-32.75 1.16874,-1.37981 2.16876,-3.29053 1.125,-3.875 -2.20872,-1.2368 -9.90557,10.97889 -13.78125,18.40625 -1.93107,3.70071 -3.42326,11.3086 -5.25,14.59375 -1.77356,3.18953 -2.47869,5.2906 -4.59375,5.375 -2.34056,0.0934 -6.13464,-2.13486 -9.21875,-4.84375 -1.42024,-1.24745 -2.583,-1.66221 -2.375,-3.03125 0.34643,-2.2803 3.98506,-0.32858 7.09375,-2.34375 11.29714,-7.32324 13.24485,-12.80054 20.875,-39.84375 2.70118,-9.57369 8.6817,-17.59097 10.8125,-14.21875 0.72546,1.14811 1.53464,2.74554 1.8125,3.53125 0.29752,0.84133 1.51746,0.60979 2.9375,-0.5625 2.04497,-1.6882 2.10141,-2.33469 0.46875,-4.28125 -4.12019,-4.91232 -8.76244,-29.64707 -9.53125,-43.1875 -0.76882,-13.54043 -1.48288,-15.69542 0.15625,-16.90625 1.14464,-0.84555 1.80287,0.435 4.78125,1.40625 2.97839,0.97125 7.72908,1.60459 14.375,3.3125 9.0492,2.32552 17.33054,5.85678 24.65625,11.65625 5.51987,4.36986 7.38806,6.02658 9.28125,3.4375 1.32245,-1.80856 1.68184,-4.34849 1.03125,-7.75 -0.53327,-2.78817 -2.27335,-9.12947 -2.21875,-13.84375 0.17866,-15.4373 1.25435,-14.61986 5.28125,-9.9375 1.96333,2.28293 3.59375,5.00614 3.59375,6.0625 0,1.05636 1.17741,2.65633 2.03125,1.9375 1.80294,-1.51786 2.30628,-6.07009 3.59375,-13.5 0.64885,-3.74449 0.65264,-5.77507 1.25,-6.53125 0.92999,-1.17723 2.40124,0.62922 4.8125,3.25 2.9304,3.18502 3.90494,8.17684 5.1875,8.375 1.28257,0.19816 3.45539,-6.72845 4.71875,-15.78125 0.68329,-4.8962 2.02638,-7.08929 2.5,-7.21875 2.67251,-0.73052 6.15765,5.99577 6.21875,12.59375 0.0203,2.19364 2.1608,8.16013 4.75,4.53125 0.43013,-0.60284 -0.008,-4.34073 0.8125,-8.25 0.76432,-3.6406 2.34306,-6.41481 3.53125,-9.28125 1.18819,-2.86643 0.47261,-5.99381 2.34375,-5.65625 2.33333,0.42095 3.13776,3.40472 7.75,5.96875 4.61224,2.56402 6.56371,6.43736 7.125,9 0.47325,2.16071 1.25892,3.9 1.75,3.875 2.09018,-0.10636 5.41622,-5.11131 7.3125,-8.8125 1.89629,-3.70118 2.97481,-5.32589 3.5,-5.71875 0.52519,-0.39285 2.03493,-2.27429 3.34375,-4.1875 0.9191,-1.34351 1.70457,-4.14855 2.90625,-4.09375 z m -25.3125,184.46875 c 3.20616,0.0458 7.66071,0.93617 13.09375,0.78125 8.79241,-0.25069 17.05152,0.49249 18.3125,0.40625 5.95281,-0.40714 4.36944,4.39402 3.5,7.71875 -0.49951,1.91014 -1.3475,1.58243 -7.25,1.03125 -5.87621,-0.54873 -6.70893,-0.37622 -9.90625,2.0625 -1.9243,1.46773 -3.63654,2.64498 -3.8125,2.625 -0.17597,-0.02 -1.70825,-1.1374 -3.375,-2.5 -2.45307,-2.00543 -4.0592,-2.47657 -8.5,-2.375 -4.55626,0.10421 -7.1921,-0.4275 -8.09375,-1.8125 -2.19415,-3.37038 -2.26986,-7.32325 4.71875,-7.90625 0.40513,-0.0338 0.85448,-0.0378 1.3125,-0.0312 z m -18.25,0.0625 c 2.13959,0.053 4.17541,0.31682 5.96875,0.78125 0.49527,6.52184 0.36115,9.51165 3.78125,12.53125 3.96814,3.50345 10.60242,4.91701 15.34375,3.96875 4.14491,-0.82899 5.9095,3.79301 5.875,10.46875 -0.0137,2.65504 0.21513,6.63848 -0.3125,7.8125 -2.14352,4.76958 -15.56097,8.40707 -33.78125,8.12054 -22.87939,-0.35981 -29.19449,6.77451 -30.21875,12.53571 -0.8236,4.63235 -1.93353,8.40366 0,13.03125 2.27741,5.45061 13.58251,12.13625 20.3125,13.59375 1.03418,0.22397 3.00584,0.80084 4.5,0.96875 1.49416,0.16787 0.05,0.0625 3.625,0.0625 1.25152,0 2.62986,-0.12708 4.09375,-0.5 1.46389,-0.37292 2.47178,-0.594 3.6875,-0.625 1.25415,0 2.39545,2.01126 1.34375,2.625 -0.71728,0.4186 -0.16106,0.5 -6.9375,0.5 -4.4615,0 -4.63667,-0.003 -6.9375,-0.25 -2.75271,-0.29496 -5.22654,-1.11753 -8.1875,-1.46875 -5.39455,-0.63988 -10.07179,-3.27185 -13.5625,-6.34375 -4.71091,-4.14571 -7.39178,-9.60768 -8.21875,-16.9375 -0.80814,-7.16293 1.69155,-19.20183 5.21875,-26.90625 0,0 2.45231,-4.92672 3.90625,-7.375 1.56872,2.09544 2.63492,4.99614 4.1875,6.8125 4.09253,4.78785 10.09442,8.46875 14.03125,8.46875 3.82744,0 1.2035,-3.04358 -4.9375,-7.8125 -6.58286,-5.11205 -9.625,-11.19791 -9.625,-17 0,-5.26109 2.9867,-10.40998 7.9375,-13.125 1.76596,-0.96845 5.26656,-2.13179 8.1875,-2.8125 3.32971,-0.77597 7.15277,-1.21328 10.71875,-1.125 z m 61.96875,2.34375 c 0.84969,0.004 1.85954,0.0737 3,0.15625 1.33225,0.0965 2.75244,0.26856 4.1875,0.46875 6.52389,0.91006 13.50249,2.76726 15.5625,4.53125 3.87351,3.31691 5.06967,6.70512 2.875,12.40625 -0.75163,1.95254 -3.37033,6.39308 -6.625,8.90625 -0.68019,0.52523 -1.26117,0.99802 -1.78125,1.4375 -0.0355,0.03 -0.0902,0.0641 -0.125,0.0937 -1.68662,1.79806 -2.67796,3.18377 -3.09375,4.125 0.046,0.446 0.3104,0.8104 0.65625,1.15625 0.19308,0.19308 0.44808,0.25086 0.78125,0.21875 0.38948,-0.11819 0.83447,-0.27866 1.34375,-0.53125 0.27934,-0.13855 0.56269,-0.32079 0.875,-0.5 0.048,-0.0325 0.10716,-0.0597 0.15625,-0.0937 1.30084,-0.90261 2.95622,-2.34463 5.125,-4.34375 1.42656,-1.31495 4.46875,-4.5 4.46875,-4.5 0,0 0.47178,0.33856 0.65625,0.46875 0.82221,0.23569 1.66695,0.95372 2.5625,1.9375 0.0172,0.0143 0.0454,0.017 0.0625,0.0312 0.46092,0.38422 0.86401,0.76525 1.125,1.0625 2.88011,3.28026 4.41316,6.54014 5.75,9.875 0.0478,0.10766 0.10971,0.20458 0.15625,0.3125 0.32669,0.7576 0.6103,1.5106 0.875,2.28125 0.0237,0.062 0.0387,0.12546 0.0625,0.1875 0.0524,0.13679 0.10354,0.26909 0.15625,0.40625 1.82319,4.74421 3.73554,18.30006 -2.90625,28.5625 -4.011,6.19752 -12.94098,10.9864 -20.875,13.3125 -1.819,0.53329 -3.82792,1.01119 -5.8125,1.40625 -0.10399,0.0207 -0.20855,0.0422 -0.3125,0.0625 -2.08405,0.56126 -3.52414,0.92752 -5.9375,1.0625 -0.66837,0.0374 -1.27,0.0497 -1.84375,0.0312 -2.80373,0.22429 -4.87298,0.13391 -5.1875,-0.375 -0.28685,-0.46414 -0.007,-1.75235 0.59375,-2.875 0.82891,-1.54883 2.11311,-2.0534 5.34375,-2.0625 4.49941,-0.0127 11.43342,-1.69397 16.28125,-3.75 0.009,-0.004 0.0223,0.004 0.0312,0 1.08316,-0.59927 2.14817,-1.24114 3.15625,-1.875 5.32929,-3.35094 13.36506,-13.44611 9.96875,-20.28125 -0.26514,-0.53361 -1.13636,-2.33962 -1.9375,-3.78125 -0.61503,-0.78521 -1.30114,-1.61748 -2.125,-2.53125 -5.88242,-6.52443 -16.27744,-8.54997 -28.50446,-7.75446 -24.43709,1.58991 -27.28884,1.6075 -26.27679,-7.02679 0.0211,-0.18028 0.0433,-0.45324 0.0625,-0.65625 -0.0452,-1.14322 -0.03,-2.42772 0.125,-3.875 0.0839,-0.78329 0.14524,-1.40508 0.21875,-2.125 0.0636,-1.62482 0.11884,-3.15061 0.1875,-4.0625 0.12652,-1.6807 0.56541,-3.72527 1.0625,-5.1875 0.0112,-0.0329 0.02,-0.0614 0.0312,-0.0937 0.26874,-1.0064 0.58933,-1.80298 1.03125,-2.3125 0.31563,-0.36391 0.79273,-0.57101 1.375,-0.6875 0.22322,-0.0553 0.48922,-0.074 0.78125,-0.0937 0.30647,-0.0207 0.65959,-0.0451 1.0625,-0.0312 0.0904,0.003 0.15414,-0.005 0.25,0 0.24861,0.01 0.5452,0.0449 0.8125,0.0625 0.2397,0.0182 0.44856,0.0378 0.71875,0.0625 1.11895,0.0881 2.3114,0.19076 3.65625,0.25 4.59361,0.20234 7.70027,-0.15096 9.71875,-1.25 0.0165,-0.0161 0.0461,-0.0149 0.0625,-0.0312 1.38116,-1.37186 2.50952,-3.6072 3.0625,-5.71875 0.0325,-0.4377 0.0625,-0.88914 0.0625,-1.375 0,-1.06398 0.012,-1.88151 0.0937,-2.53125 -0.51965,-2.06303 0.66089,-2.57439 3.15625,-2.5625 z m -32.15625,40.8125 c 0.92406,-0.0888 1.58639,0.61101 3.53125,1.71875 3.07358,1.75063 5.96366,1.80226 11.625,1.78125 7.83137,-0.0291 9.12813,-0.39901 9.6875,1.6875 1.3658,5.09453 0.37102,11.73505 -2.6875,15.28125 -4.32051,5.00945 -2.19786,5.42697 1.21875,5.03125 3.4166,-0.39572 1.98921,12.1111 0.4375,15.625 -1.55171,3.5139 -2.63061,5.39761 -5,7 -7.85733,5.31382 -18.3965,4.42152 -24.28125,4.28125 -5.88476,-0.14027 -11.71443,-3.68705 -13.59375,-5.6875 -1.17047,-1.24589 -2.66923,-4.9176 -3.65625,-8.1875 -1.5807,-5.23674 -3.39364,-12.51448 -0.3125,-11.71875 3.31748,0.85676 2.87854,-1.07547 0.59375,-4.5625 -1.84503,-2.81587 -3.5311,-13.99379 -0.30357,-15.94643 4.33062,-2.62 7.06973,-0.93268 11.23661,-1.45089 4.16688,-0.51822 5.42603,-1.34176 8.12946,-3.10268 1.77048,-1.15323 2.65629,-1.68095 3.375,-1.75 z m 29.96875,3.1875 c 1.16812,0.004 2.7593,0.29569 4.40625,0.34375 3.29391,0.0961 5.55928,-0.68585 6.15625,0.8125 0.71944,1.80573 -1.83992,6.10739 -3.78125,8.75 -2.68762,3.20713 -5.07973,4.74625 -8.65625,6.75 -0.50474,0.28278 -2.22365,0.67073 -1.65625,-0.21875 1.36404,-2.13832 2.0465,-4.13957 2.6875,-6.59375 0.80085,-3.0662 -0.73344,-5.62438 -0.96875,-8.4375 -0.0934,-1.11671 0.64438,-1.40985 1.8125,-1.40625 z m 15.59375,0.34375 c 0.96672,0.0367 2.43409,1.31658 3.28125,1.5 4.40101,0.95287 6.34133,3.45965 8.90625,6.46875 1.79738,2.10863 2.73616,3.73013 2.84375,6.9375 0.10398,3.09958 -1.53563,5.54661 -3.8125,7.375 -0.53619,0.43057 -1.32207,0.4541 -1.59375,-0.96875 -0.50388,-2.63902 -1.98687,-5.7047 -4.21875,-8.0625 -1.95044,-2.06049 -4.26294,-3.2044 -7,-3.03125 -1.18912,0.0752 -2.58793,-1.14945 -1.78125,-2.28125 0.55178,-1.09455 1.50156,-2.32705 2.21875,-3.28125 0.7868,-1.04679 -0.0652,-3.21285 0.40625,-4.1875 0.1685,-0.34833 0.42776,-0.481 0.75,-0.46875 z m -80.9375,2.0625 c 1.4758,-0.0566 2.99087,0.0399 4.1875,0.0937 2.47283,0.11119 4.20927,-1.40993 4,1.98661 -0.14294,2.31985 -1.19303,5.59445 -0.95089,8 0.38476,3.82239 3.05831,5.98959 -0.65625,5.375 -1.69415,-0.28031 -5.27173,-2.47751 -7.23661,-5.45536 -1.47285,-2.23218 -6.2604,-7.58695 -3.25,-9.1875 1.01053,-0.53727 2.43045,-0.75591 3.90625,-0.8125 z m -12.25,0.875 c 0.49801,0.006 0.99801,0.0762 1.5,0.1875 6.64883,1.48503 3.04257,5.82223 0.5625,5.21875 -2.67206,-0.65021 -6.36261,2.62496 -8.53125,4.375 -2.29886,1.95129 -3.23313,5.13608 -5,7.34375 -0.70715,0.6397 -1.78912,0.75533 -1.78125,-0.0937 1.11525,-3.69733 1.54259,-9.3113 4.3125,-12.21875 2.14056,-2.47448 5.45144,-4.85393 8.9375,-4.8125 z m 2.28125,8.3125 c 0.6278,-0.0781 1.15833,0.10372 1.46875,0.65625 0.99335,1.76809 -1.58906,6.79458 -1.9375,9.90625 -0.34869,4.06037 1.04496,5.92251 0.96875,8.65625 -1.47433,1.00609 -5.0855,-1.19222 -7.34375,-2.65625 -2.19961,-1.42603 -3.03772,-2.40916 -4.78125,-4.3125 -0.20638,-1.39891 1.95653,-3.92978 2.84375,-5.28125 1.45741,-2.21999 2.48383,-3.63907 4.3125,-4.75 1.20117,-0.72973 3.08759,-2.04686 4.46875,-2.21875 z m 88.90625,1.5625 c 1.15436,-0.2801 3.07638,1.44833 4.40625,3.34375 1.35036,1.92463 2.0494,5.02542 2.375,7.90625 0.19907,1.7613 0.17958,3.49993 -1.9375,4 -2.69029,-0.0242 -7.55997,4.15149 -7.84375,2.5625 -0.16187,-0.90639 1.18949,-2.51203 1.9375,-4.4375 0.47516,-1.2231 0.42085,-2.69533 0.5625,-3.84375 0.2365,-1.91751 0.0696,-3.51065 0.21875,-5.3125 0.0992,-1.19945 -0.73564,-3.97201 0.28125,-4.21875 z m -83.21875,2.25 c 1.64625,0.0785 3.57342,3.89882 5.40625,5.125 1.76662,1.18189 4.94954,2.04123 6.78125,3 1.84347,0.96494 -0.10395,2.69128 -0.125,4.03125 -0.0258,1.64129 0.83929,4.33804 0,4.90625 -0.81114,0.54915 -3.17219,-0.51975 -7.09375,-0.1875 -2.66431,0.22573 -5.23177,0.77213 -6.9375,-0.6875 -1.69128,-1.44727 -1.18391,-4.36996 -1.1875,-6.5625 -0.006,-3.76001 -0.0997,-3.66386 0.5625,-5 0.92983,-1.87629 0.80684,-3.27913 2.28125,-4.59375 0.10715,-0.03 0.20275,-0.0365 0.3125,-0.0312 z m 78,0.0937 c 0.13125,-10e-4 0.2822,0.006 0.40625,0.0312 1.78558,0.36631 1.08284,3.20927 1.15625,4.40625 -0.13914,4.14056 0.88024,11.96686 -4.6875,12.375 -1.51488,0.11104 -3.83136,0.96118 -4.59375,0.5625 -0.76077,-0.39783 -0.71114,-2.28964 -0.59375,-3.375 0.22101,-2.04356 -0.41795,-5.10713 -0.78125,-6.96875 -0.36427,-1.86663 1.17774,-2.37541 2.59375,-3.15625 1.82797,-1.00802 4.53127,-3.85784 6.5,-3.875 z m 43.28125,12.21875 c 0.074,-0.0152 0.14102,-0.008 0.21875,0.0312 1.24375,0.62046 8.67392,7.85103 8.8125,8.46875 0.13859,0.61772 -7.15256,1.5941 -9.15625,-0.5625 -1.61454,-1.73774 -0.98531,-7.70931 0.125,-7.9375 z"
       id="path8176"
       style="color:#000000;fill:#8d6423;fill-opacity:1;fill-rule:nonzero;stroke:none;stroke-width:3.5;marker:none;visibility:visible;display:inline;overflow:visible;enable-background:accumulate" />
    <path
       d="m 280.62562,369.17855 c -2.93751,-4.36987 -3.29836,-5.70567 -4.77596,-17.6798 -0.60003,-4.86254 -1.94208,-11.57558 -2.98232,-14.91788 -1.85134,-5.94839 -1.85104,-6.09848 0.0143,-7.09679 1.41235,-0.75587 2.88998,-0.53033 5.70809,0.87126 2.09134,1.04013 7.2117,2.6978 11.37858,3.68371 9.12067,2.158 16.56776,5.75069 18.71582,9.02904 1.962,2.99438 2.95373,8.74989 2.09633,12.16603 -0.90781,3.61702 -2.62941,3.21982 -2.62941,-0.60665 0,-2.40948 -0.99601,-4.13435 -4.08314,-7.07107 -5.56618,-5.29497 -7.73168,-5.16432 -8.18951,0.49412 -0.50077,6.18912 -0.0165,7.72989 2.76132,8.78603 2.82668,1.0747 3.40597,5.44183 0.85186,6.42193 -3.74912,1.43867 -7.48007,-4.18597 -7.49733,-11.30268 -0.008,-3.24878 -2.6689,-8.04411 -4.79278,-8.63693 -0.97837,-0.27308 -2.87082,-0.81246 -4.20545,-1.19862 l -2.4266,-0.7021 0.71169,9.46079 c 0.67315,8.94857 1.06845,10.16292 5.04788,15.50704 1.2328,1.65557 -0.11314,6.58065 -1.79838,6.58065 -0.74723,0 -2.50449,-1.70464 -3.90501,-3.78808 z"
       id="path3799"
       style="color:#000000;fill:#8d6423;fill-opacity:1;fill-rule:nonzero;stroke:none;stroke-width:3.5;marker:none;visibility:visible;display:inline;overflow:visible;enable-background:accumulate" />
    <path
       d="m 486.94807,366.43085 c 0,-0.26118 1.39377,-3.21762 3.09726,-6.56986 2.98673,-5.87751 3.09498,-6.55133 3.03353,-18.88332 -0.0586,-11.75667 -0.65517,-15.93828 -1.81163,-12.69811 -0.25027,0.70118 -2.4006,2.61346 -4.77852,4.24952 -4.99737,3.43827 -6.67758,7.99722 -5.92034,16.06379 0.41702,4.44247 0.16802,5.2389 -2.37527,7.59717 -2.99926,2.78108 -8.41762,3.63155 -8.41762,1.32125 0,-2.03208 2.18089,-3.73756 4.77942,-3.73756 1.29528,0 2.5591,-0.56821 2.80849,-1.26269 0.77175,-2.14916 -0.95529,-11.17365 -2.21895,-11.59487 -0.65786,-0.21929 -3.95328,2.42778 -7.32315,5.88237 -5.17243,5.30246 -6.12703,5.92637 -6.12703,4.00445 0,-3.25093 11.09968,-13.67596 20.79795,-19.53384 4.39527,-2.6548 8.81352,-5.38221 9.81833,-6.06091 1.51374,-1.02247 2.06777,-0.90986 3.23182,0.65684 2.08458,2.80565 1.40365,23.6392 -1.01147,30.94612 -2.05907,6.22973 -4.43675,10.01542 -6.32012,10.06277 -0.69448,0.0175 -1.2627,-0.18195 -1.2627,-0.44312 z"
       id="path3801"
       style="color:#000000;fill:#8d6423;fill-opacity:1;fill-rule:nonzero;stroke:none;stroke-width:3.5;marker:none;visibility:visible;display:inline;overflow:visible;enable-background:accumulate" />
    <path
       d="m 424.72896,421.60983 c -4.97541,-1.03779 -12.04258,-7.1805 -11.29706,-9.41705 0.6678,-2.0034 12.70983,-8.20851 20.08102,-10.24722 3.42959,-0.94855 7.28222,-1.86386 13.86289,0.20598 16.37722,5.15117 22.22932,7.78527 16.50124,12.33971 -7.71338,6.13297 -26.92013,9.66912 -39.14809,7.11858 z m 30.49728,-6.37588 c 1.53082,-0.74588 2.94966,-1.86816 3.15299,-2.49395 0.41682,-1.28291 -4.99133,-4.75861 -8.9505,-5.7523 -2.50058,-0.62761 -2.63455,-0.43946 -3.22262,4.5259 -0.33747,2.8494 -0.39383,5.5363 -0.12524,5.97089 0.54635,0.88401 4.92213,-0.1928 9.14537,-2.25054 z m -28.88732,1.11907 c 0,-0.58317 -0.65486,-2.32668 -1.45525,-3.87446 -1.2242,-2.36734 -1.95395,-2.74095 -4.59624,-2.35315 -4.15525,0.60987 -3.68921,3.17225 1.0037,5.51859 4.08592,2.04287 5.04779,2.17797 5.04779,0.70902 z m 13.51762,-1.25281 c 1.30208,-0.9521 1.6941,-2.38023 1.45576,-5.3033 -0.272,-3.336 -0.72734,-4.05704 -2.7419,-4.34185 -1.32865,-0.18783 -4.19841,0.46236 -6.37724,1.44487 -3.45627,1.55857 -3.88041,2.10948 -3.32567,4.31974 1.18305,4.71365 7.02732,6.77743 10.98905,3.88054 z"
       id="path3803"
       style="color:#000000;fill:#8d6423;fill-opacity:1;fill-rule:nonzero;stroke:none;stroke-width:3.5;marker:none;visibility:visible;display:inline;overflow:visible;enable-background:accumulate" />
    <path
       d="m 329.28524,421.98354 c -5.81564,-2.21055 -19.11386,-11.72728 -19.11386,-13.67862 0,-1.52686 23.09323,-7.03594 27.65292,-6.42975 8.76833,1.16573 11.79021,2.9335 16.05972,6.03189 4.02368,2.91999 4.77468,3.98788 4.77468,6.78942 0,2.95881 -0.52772,3.58597 -4.79822,5.7024 -5.86829,2.90827 -18.88485,3.74761 -24.57524,1.58466 l 0,0 z m 24.82778,-4.76931 c 1.21935,-1.14207 -5.10715,-7.18917 -6.89876,-6.59407 -0.65035,0.21602 -1.28943,2.25776 -1.42016,4.53721 l -0.23769,4.14444 3.77323,-0.57072 c 2.07527,-0.31389 4.22779,-0.99648 4.78338,-1.51686 z m -11.34733,-5.54397 c 0.64191,-3.25309 -0.26174,-3.94536 -5.53492,-4.24021 -4.37394,-0.24457 -4.81364,-0.0541 -5.4161,2.34629 -0.72739,2.89814 0.62423,5.58392 3.88534,6.79028 2.54429,0.9412 6.45362,-1.79457 7.06568,-4.89636 z m -16.43187,0.64238 0,-4.09055 -5.05076,0.23046 c -3.2768,0.14952 -5.05077,0.67914 -5.05077,1.50791 0,1.17566 7.60446,6.41123 9.34392,6.43317 0.41668,0.005 0.75761,-1.83119 0.75761,-4.08099 z"
       id="path3805"
       style="color:#000000;fill:#8d6423;fill-opacity:1;fill-rule:nonzero;stroke:none;stroke-width:3.5;marker:none;visibility:visible;display:inline;overflow:visible;enable-background:accumulate" />
    <path
       d="m 330.37443,432.7826 c -0.83338,-0.25435 -2.87893,-1.04643 -4.54569,-1.76017 -1.66675,-0.71374 -4.31281,-1.58441 -5.88013,-1.93482 -1.60746,-0.35938 -2.6672,-1.1713 -2.43107,-1.86254 0.47507,-1.39069 3.97995,-1.39014 14.8772,0.002 4.6036,0.58826 8.96333,0.60883 11.11167,0.0524 8.31146,-2.15264 8.08122,-2.1576 8.08122,0.17406 0,4.33127 -13.42886,7.70457 -21.2132,5.3287 z"
       id="path3807"
       style="color:#000000;fill:#8d6423;fill-opacity:1;fill-rule:nonzero;stroke:none;stroke-width:3.5;marker:none;visibility:visible;display:inline;overflow:visible;enable-background:accumulate" />
    <path
       d="m 430.36098,431.56945 c -7.01369,-1.76685 -13.51913,-5.0631 -12.33314,-6.24909 0.81107,-0.81107 2.94138,-0.6542 7.84572,0.57773 7.00037,1.75844 15.05504,1.51709 21.29877,-0.63818 3.52995,-1.2185 6.81437,-0.42721 6.21716,1.49787 -1.13674,3.66424 -15.59298,6.68479 -23.02851,4.81167 l 0,0 z"
       id="path3809"
       style="color:#000000;fill:#8d6423;fill-opacity:1;fill-rule:nonzero;stroke:none;stroke-width:3.5;marker:none;visibility:visible;display:inline;overflow:visible;enable-background:accumulate" />
    <path
       d="m 404.7961,392.28752 c -0.27975,-1.84132 -0.98331,-5.8101 -1.346,-8.71429 -0.34826,-2.78871 -1.23317,-11.18744 -1.25394,-18.68782 -0.0359,-12.95646 1.0516,-14.68456 3.76146,-20.20305 2.64728,-5.39104 6.29707,-7.2495 5.15149,-3.21987 -1.76146,6.19602 -4.43135,11.07146 -4.68128,15.79074 -0.42623,8.04801 -1.05618,13.68608 0.53262,14.32444 0.94282,0.3788 2.9245,-2.80542 5.1824,-4.84529 5.78593,-5.22724 8.44877,-2.28954 2.1441,2.98702 -5.01105,4.1939 -7.91781,8.43459 -6.98535,10.86454 0.45466,1.18482 2.11434,0.0996 6.95193,-4.54569 3.49508,-3.35614 6.62131,-6.10208 6.94719,-6.10208 1.25921,0 1.44958,1.96795 -1.64584,5.42274 -4.86631,5.43127 -13.01838,9.64444 -11.03628,14.78031 0.47713,0 4.68189,-3.37593 9.34391,-7.50207 9.45041,-8.36412 14.72673,-12.18777 14.72673,-10.27781 0,1.05992 -4.83016,5.85213 -10.36834,10.7626 -6.1931,5.49117 -13.27157,11.13023 -15.4711,11.8634 -0.55172,0.18391 -1.67395,-0.85649 -1.9537,-2.69782 z"
       id="path3811"
       style="color:#000000;fill:#8d6423;fill-opacity:1;fill-rule:nonzero;stroke:none;stroke-width:3.5;marker:none;visibility:visible;display:inline;overflow:visible;enable-background:accumulate" />
    <path
       d="m 364.71962,399.44808 c -1.57836,-2.08909 -12.44229,-14.05783 -16.51945,-16.94189 -2.0231,-1.43107 -7.156,-7.88048 -6.58779,-9.37983 1.28255,-3.38432 11.24193,5.19931 18.7361,15.39822 4.35078,5.92102 4.50543,4.9254 5.29142,3.58616 0.84297,-1.43633 -0.62622,-3.29255 -1.29909,-4.16298 -0.35293,-0.45655 -2.57138,-2.81925 -6.1,-7.06755 -6.67787,-8.03986 -10.00234,-12.7346 -8.47969,-13.90809 1.22405,-0.94337 12.30928,11.23098 14.75212,15.33842 2.00384,3.3693 3.23814,3.56213 3.23306,0.50507 -0.005,-2.76147 -3.75622,-8.02123 -7.79315,-12.12183 -1.64088,-1.66675 -4.20606,-4.72246 -5.00593,-6.25031 -2.67796,-5.11528 2.53956,-4.23646 8.90889,2.45704 3.23542,3.40009 5.24348,7.51227 5.5571,7.39136 0.61648,-0.23768 0.0846,-6.03262 0.92728,-12.0535 0.97949,-6.9986 -2.16074,-14.98964 -2.85243,-17.18227 -1.84714,-5.85547 -0.46911,-6.95046 2.13919,-5.94956 2.81211,1.07911 5.38329,10.10236 5.38329,17.44315 0,13.24005 -4.46664,39.04425 -7.35336,42.55463 -1.16042,1.41112 -2.20387,1.31486 -2.93756,0.34376 z"
       id="path3813"
       style="color:#000000;fill:#8d6423;fill-opacity:1;fill-rule:nonzero;stroke:none;stroke-width:3.5;marker:none;visibility:visible;display:inline;overflow:visible;enable-background:accumulate" />
    <path
       d="m 325.58677,401.71428 c -1.7742,0.20955 -4.36381,1.33486 -7.90238,1.68319 -3.60111,0.35449 -18.38934,1.48757 -19.0678,-4.16498 -0.0761,-0.63398 4.38672,-0.003 7.82633,-0.003 3.43961,-7.6e-4 9.86513,-1.31334 14.5876,-2.1452 4.72246,-0.83185 11.79941,-1.51308 15.72656,-1.51384 6.98139,-10e-4 12.08177,1.48944 14.81868,2.68588 2.73691,1.19645 6.67151,3.52113 7.08294,6.29451 0.22766,1.53464 -1.01995,3.00519 -2.58852,2.1419 -3.38653,-1.86386 -7.21379,-4.84692 -10.35406,-5.51922 -3.14027,-0.67229 -9.56764,-0.70642 -20.12935,0.54104 l 0,-2.8e-4 z"
       id="path3815"
       style="color:#000000;fill:#8d6423;fill-opacity:1;fill-rule:nonzero;stroke:none;stroke-width:3.5;marker:none;visibility:visible;display:inline;overflow:visible;enable-background:accumulate" />
    <path
       d="m 416.1182,403.19754 c -2.21108,-1.36653 0.18298,-2.76461 10.46552,-6.11165 13.15846,-4.28317 21.96886,-4.5458 33.09024,-0.98637 8.56774,2.74213 10.0006,3.63606 8.39758,5.23908 -0.79037,0.79036 -2.89814,0.61858 -7.52564,-0.61333 -10.11934,-2.69393 -20.21959,-2.81818 -26.4549,-0.32545 -5.74229,2.29564 -16.16102,3.91746 -17.9728,2.79772 z"
       id="path3817"
       style="color:#000000;fill:#8d6423;fill-opacity:1;fill-rule:nonzero;stroke:none;stroke-width:3.5;marker:none;visibility:visible;display:inline;overflow:visible;enable-background:accumulate" />
    <path
       d="m 431.63222,412.33153 c -1.27886,-1.27886 0.0942,-2.93835 2.53538,-3.38732 1.01398,-0.18649 2.37096,-1.40516 3.10818,-1.74314 0.97916,-0.44889 2.07215,0.79518 1.8309,2.90485 -0.13932,1.21832 -1.76725,3.21793 -2.92301,3.73924 -1.52639,0.6885 -3.5668,-0.52898 -4.55145,-1.51363 z"
       id="path3819"
       style="color:#000000;fill:#8d6423;fill-opacity:1;fill-rule:nonzero;stroke:none;stroke-width:3.5;marker:none;visibility:visible;display:inline;overflow:visible;enable-background:accumulate" />
    <path
       d="m 333.22708,410.18557 c 0.0595,-1.50064 0.62194,-0.63437 3.38951,-0.50508 1.84486,0.0862 3.84256,0.19124 4.20784,0.69644 1.09335,1.51213 -0.52509,3.49157 -2.47685,4.00595 -4.60106,1.21259 -5.19057,-2.43073 -5.1205,-4.19731 z"
       id="path3821"
       style="color:#000000;fill:#8d6423;fill-opacity:1;fill-rule:nonzero;stroke:none;stroke-width:3.5;marker:none;visibility:visible;display:inline;overflow:visible;enable-background:accumulate" />
  </g>
</svg>
