<?xml version="1.0" encoding="UTF-8" standalone="no"?>
<!DOCTYPE svg PUBLIC "-//W3C//DTD SVG 1.1//EN" "http://www.w3.org/Graphics/SVG/1.1/DTD/svg11.dtd">
<svg width="100%" height="100%" viewBox="0 0 1080 1080" version="1.1" xmlns="http://www.w3.org/2000/svg" xmlns:xlink="http://www.w3.org/1999/xlink" xml:space="preserve" xmlns:serif="http://www.serif.com/" style="fill-rule:evenodd;clip-rule:evenodd;stroke-linecap:round;stroke-linejoin:round;stroke-miterlimit:2.613;">
    <g transform="matrix(1,0,0,1,0,-32.4061)">
        <g transform="matrix(3.62556,0,0,3.62556,1048.35,712.084)">
            <path d="M0,-77.052L-28.197,44.507L-140.798,98.266L-253.038,43.757L-280.424,-77.987L-202.341,-175.318L-77.5,-174.935L0,-77.052Z" style="fill:rgb(183,20,44);stroke:rgb(115,44,46);stroke-width:1.16px;"/>
        </g>
        <g transform="matrix(3.62556,0,0,3.62556,994.637,694.648)">
            <path d="M0,-68.916L-69.319,-156.467L-180.979,-156.809L-250.818,-69.755L-226.323,39.139L-125.933,87.893L-25.221,39.81L0,-68.916Z" style="fill:rgb(183,20,44);stroke:rgb(115,44,46);stroke-width:1.16px;"/>
        </g>
        <g transform="matrix(3.62556,0,0,3.62556,201.373,661.241)">
            <path d="M0,-70.385C0.112,-71.209 -0.263,-71.787 -0.607,-72.552C-2.453,-74.168 -3.462,-76.658 0.927,-78.245C1.381,-80.007 1.782,-82.104 -2.817,-84.233C2.477,-84.933 4.296,-84.232 6.068,-78.89C8.952,-78.229 8.796,-74.644 7.473,-73.212C6.626,-70.865 5.152,-67.957 7.858,-65.111C8.974,-65.961 10.133,-68.636 10.556,-70.223C10.673,-73.306 11.578,-75.759 16.618,-73.754C18.546,-74.332 19.778,-77.549 18.269,-80.075C23.494,-76.932 22.379,-72.189 18.604,-70.32C21.371,-65.457 14.242,-63.638 11.371,-60.278C11.141,-59.976 10.945,-59.688 10.783,-59.411C8.602,-55.694 10.401,-51.132 12.584,-47.822C17.678,-41.049 17.343,-37.156 30.274,-34.718C31.706,-39.419 33.339,-42.798 35.775,-44.581C32.984,-43.751 31.009,-40.973 28.031,-41.83C29.198,-45.966 30.701,-50.719 33.874,-52.716C31.841,-52.84 30.859,-52.14 28.436,-52.847C33.314,-56.551 33.918,-62.018 40.732,-63.841C39.419,-64.911 34.889,-64.409 33.577,-65.479C37.875,-71.063 50.87,-72.949 53.29,-79.963C37.952,-78.902 35.626,-88.254 33.161,-88.817C38.795,-89.727 41.444,-82.055 54.999,-84.031C55.214,-85.019 55.171,-85.337 54.968,-86.277C47.782,-87.337 44.166,-90.185 40.42,-91.039C36.607,-92.267 30.083,-90.177 28.863,-85.787C25.239,-95.122 33.474,-101.301 40.033,-100.437C41.248,-103.53 44.142,-103.702 47.468,-103.442C50.849,-111.418 58.453,-103.935 65.61,-103.73C66.354,-109.636 70.154,-110.489 69.194,-118.418C69.018,-118.935 69.306,-119.064 69.735,-118.772C75.562,-115.442 76.118,-109.306 75.655,-104.284C78.265,-109.285 83.549,-109.724 84.614,-115.39C84.694,-115.66 85.055,-115.613 85.221,-114.604C86.54,-107.496 90.328,-99.93 79.618,-87.868C79.259,-73.025 70.493,-71.613 68.01,-61.4C66.726,-56.121 66.749,-50.365 73.357,-48.947C75.671,-48.45 78.132,-49.052 79.711,-51.437C88.551,-66.714 76.77,-84.348 105.984,-87.889C132.415,-89.069 160.724,-89.497 187.154,-90.677C188.347,-86.511 183.808,-83.603 181.132,-82.875C185.346,-78.239 180.044,-74.391 176.932,-73.913C177.306,-65.761 169.409,-64.089 158.937,-64.339C159.685,-60.237 157.939,-57.664 152.65,-55.574C152.532,-49.783 147.041,-47.369 141.893,-47.614C141.635,-43.012 136.454,-43.444 129.178,-43.855C130.49,-41.091 130.988,-38.134 128.292,-36.372C139.252,-38.415 145.554,-36.028 158.428,-24.629C162.386,-20.728 177.064,-19.589 171.728,-38.334C167.928,-55.741 183.518,-61.786 194.501,-53.06C200.195,-54.318 211.646,-47.704 207.069,-32.801C206.512,-37.034 204.689,-41.282 203.299,-41.56C205.159,-30.586 199.753,-29.786 196.269,-25.226C196.382,-33.538 202.101,-31.503 197.923,-36.524C192.177,-37.427 195.148,-26.77 189.742,-27.41C193.355,-32.887 187.299,-32.886 188.826,-40.006C189.873,-43.25 191.855,-42.922 191.604,-46.773C189.536,-50.478 181.894,-51.499 178.615,-47.719C175.827,-44.504 177.545,-41.324 178.572,-37.988C186.224,-13.15 164.009,-12.174 152.461,-19.225C155.255,-13.339 155.315,-10.483 156.523,-8.34C161.196,-0.039 168.153,-7.13 172.533,4.213C169.407,2.693 168.591,4.499 166.218,5.235C169.572,10.539 173.469,3.706 179.394,18.998C175.182,14.924 173.39,15.033 170.404,15.674C172.664,18.732 175.761,20.349 175.694,24.183C173.335,22.118 171.561,23.899 169.398,23.393C170.677,28.152 173.106,30.64 170.049,37.655C169.6,33.573 165.06,32.38 163.108,29.428C159.527,29.687 159.065,29.098 156.235,32.366C159.645,40.188 152.245,41.859 149.65,40.264C145.569,42.916 145.488,44.562 144.811,48.679C143.078,47.092 140.507,42.938 143.63,38.546C142.323,37.605 142.492,36.521 142.487,35.725C141.103,36.942 137.696,35.326 136.313,33.537C134.798,34.777 133.631,34.022 132.319,37.981C129.62,34.156 130.896,30.97 133.273,29.124C133.801,25.935 134.676,22.371 139.716,23.693C141.209,21.027 145.24,20.491 146.385,24.442C147.295,25.649 147.644,25.953 149.922,26.32C153.907,26.507 159.718,23.29 159.191,15.959C156.985,9.047 150.812,9.303 148.896,6.353C146.302,4.844 152.051,8.423 149.872,13.289C145.754,4.021 131.992,10.932 123.676,1.621C116.298,14.574 116.557,15.608 119.386,22.925C115.305,22.512 113.532,20.433 113.322,18.735C110.903,22.445 111.713,25.736 113.322,29.447C111.041,28.933 109.157,27.28 107.88,24.762C107.364,27.608 106.249,30.662 107.902,33.219C105.402,33.989 101.366,29.001 101.46,27.089C100.679,27.084 102.056,32.795 104.203,35.459C101.627,35.697 98.687,34.107 97.349,32.438C93.256,35.229 95.555,37.879 95.548,37.896C97.461,39.235 95.285,42.75 91.636,41.563C90.619,43.063 90.789,45.683 92.324,47.726C90.834,48.435 85.011,45.55 86.687,41.798C83.407,40.062 84.687,36.966 86.325,37.026C87.864,35.905 88.341,35.429 87.982,33.751C85.879,31.286 81.621,39.987 77.115,33.553C74.903,33.484 72.858,34.134 71.004,36.135C69.401,33.689 71.62,29.568 74.007,29.221C73.441,27.999 74.083,25.867 75.114,25.44C73.712,23.511 69.601,25.823 67.844,27.048C67.61,22.684 70.136,21.696 72.43,21.165C72.899,16.447 78.222,17.277 78.402,18.016C79.505,15.779 82.274,14.842 85.153,16.273C90.276,12.806 88.43,23.125 94.469,22.404C101.163,18.682 100.735,13.561 102.872,6.98C98.274,6.103 96.135,4.368 95.621,-1.167C94.96,-5.19 98.148,-6.272 101.339,-11.697C85.266,-10.171 82.066,-4.968 61.416,-7.175C60.309,-3.006 61.08,-0.984 62.981,2.183C58.549,2.4 56.455,-0.705 55.031,-3.119C53.746,0.698 54.663,4.22 54.818,7.373C52.455,5.715 49.4,3.704 48.63,0.933C46.918,3.539 46.362,6.856 46.656,9.154C43.999,7.437 42.49,4.094 41.603,1.201C40.1,9.59 36.719,16.846 34.464,24.107C34.544,30.271 43.4,23.97 44.357,30.133C50.234,32.471 50.119,35.999 48.765,39.848C46.957,36.123 46.158,34.833 42.153,35.144C36.774,39.377 35.011,26.682 27.985,31.164C24.751,32.659 18.433,39.609 13.423,34.548C9.388,32.411 8.699,35.709 5.817,35.942C3.72,36.266 1.566,35.001 -0.82,31.891C-4.445,31.527 -4.942,34.13 -5.769,35.891C-6.844,32.512 -7.426,27.821 -1.07,25.725C-0.543,25.122 0.201,24.74 1.144,24.589C1.408,22.838 4.421,18.563 9.576,22.256C13.527,20.673 15.051,23.281 15.588,26.215C15.308,25.426 18.488,25.55 19.539,27.92C24.537,28.664 25.506,27.354 28.68,22.742C31.893,15.043 32.573,-1.774 36.299,-10.071C34.09,-9.738 32.869,-8.077 31.716,-6.335C31.46,-12.559 33.426,-17.736 34.504,-20.258C31.533,-20.034 27.371,-19.464 24.4,-19.239C23.022,-20.23 20.258,-21.988 19.582,-23.483C16.969,-29.256 15.095,-35.966 9.943,-42.165C7.818,-44.723 7.354,-46.673 4.406,-43.613C-0.032,-39.006 0.201,-26.792 -7.955,-32.888C-12.85,-31.91 -15.876,-33.711 -15.219,-41.111C-14.761,-38.945 -13.064,-35.792 -10.373,-37.121C-9.859,-40.013 -8.465,-42.146 -4.312,-39.759C0.717,-42.083 -0.296,-48.861 3.09,-52.309C3.991,-53.228 3.303,-53.637 2.721,-54.755C-1.94,-60.52 0.806,-63.483 -2.626,-64.339C-4.494,-62.397 -8.206,-62.102 -8.331,-65.756C-9.059,-67.143 -10.69,-68.106 -14.553,-65.355C-15.449,-66.357 -14.029,-69.871 -8.143,-71.215C-6.853,-73.353 -3.905,-73.536 -2.452,-71.528C-1.614,-71.187 -0.788,-70.782 0,-70.385" style="fill:rgb(244,209,27);"/>
        </g>
        <g transform="matrix(3.62556,0,0,3.62556,373.566,686.852)">
            <path d="M0,-110.448C2.067,-109.779 3.463,-107.356 6.213,-105.401C9.104,-103.552 11.398,-103.48 14.226,-104.124C16.66,-104.657 19.003,-104.9 21.496,-103.347M7.392,-90.843C7.23,-89.76 6.739,-88.367 5.791,-87.011M-7.318,-107.598C-6.126,-100.625 4.11,-102.909 7.433,-93.467M30.369,-56.822C48.354,-63.278 48.75,-86.823 67.186,-88.675L133.802,-89.814M0.998,-6.413C-0.867,-8.733 -0.846,-10.806 -1.199,-13.809M-17.158,-41.914C-18.682,-37.435 -18.811,-33.311 -18.131,-30.153C-15.678,-33.804 -11.675,-35.266 -9.221,-36.126C-10.35,-33.871 -12.64,-30.299 -12.992,-27.268M50.182,-48.551C60.353,-47.374 74.033,-41.227 80.793,-43.558M59.077,-52.708C66.638,-52.104 74.198,-51.501 81.758,-50.897M62.071,-57.511C72.806,-56.532 83.54,-55.552 94.275,-54.573M68.435,-64.46C80.594,-63.915 92.753,-63.37 104.912,-62.825M76.667,-71.758C88.285,-71.659 99.903,-71.559 111.521,-71.46M83.588,-80.482L129.339,-81.032M-11.29,-17.065C-10.686,-18.303 -8.768,-20.781 -6.102,-22.412C-7.037,-12.222 -6.691,-8.868 -5.97,-5.348M7.471,-10.091C5.821,-12.363 3.278,-16.78 3.758,-21.319M-13.719,-59.764C-9.466,-62.983 -4.488,-62.666 -2.149,-63.512M-7.107,-70.885C-5.242,-71.147 -4.077,-71.65 -1.486,-71.242M12.972,-42.996C12.339,-38.109 12.578,-35.66 15.972,-31.778C17.241,-34.078 19.462,-35.706 21.806,-39.942C25.883,-36.19 30.595,-31.192 41.198,-28.252C40.446,-31.51 39.02,-34.058 38.269,-37.315C43.656,-32.053 49.957,-30.028 57.351,-28.774C55.499,-32.879 53.362,-36.919 51.091,-42.239C60.2,-38.724 70.276,-34.549 70.819,-43.647M53.801,-18.792C57.655,-19.973 60.273,-21.57 62.353,-22.446C67.006,-24.408 69.817,-20.15 71.273,-16.236C72.35,-13.342 72.822,-9.897 76.466,-5.303M55.313,0C55.554,-2.708 57.15,-5.791 58.794,-6.557M92.918,-9.519C97.559,-8.961 95.853,-5.513 101.207,-0.623" style="fill:none;fill-rule:nonzero;stroke:rgb(97,84,19);stroke-width:0.79px;"/>
        </g>
        <g transform="matrix(3.62556,0,0,3.62556,439.828,316.338)">
            <path d="M0,-8.491C-0.147,-7.52 -0.245,-6.817 0.107,-5.108M10.068,-9.539C9.812,-8.916 9.219,-8.464 8.92,-8.058C7.299,-5.862 6.073,-3.402 7.478,1.048" style="fill:none;fill-rule:nonzero;stroke:rgb(97,84,19);stroke-width:0.83px;"/>
        </g>
        <g transform="matrix(3.29712,1.50787,1.50787,-3.29712,476.88,308.428)">
            <path d="M2.28,-0.452C-0.249,4.35 1.588,6.89 1.881,10.351C1.711,11.985 2.281,10.482 2.28,10.746C3.232,7.415 1.85,5.028 3.5,1.413C4.637,-0.537 3.069,-1.775 2.28,-0.452" style="fill:rgb(97,84,19);"/>
        </g>
        <g transform="matrix(3.62556,0,0,3.62556,502.053,452.638)">
            <path d="M0,77.915C2.19,76.092 1.931,75.015 2.022,74M4.338,85.949C4.592,83.271 4.742,82.423 2.575,81.108C0.51,82.03 -1.48,79.793 -0.134,78.045C-0.511,76.918 -1.814,75.601 -4.685,75.47M-7.977,83.058C-5.337,80.616 -2.611,81.984 -1.298,84.207C1.061,85.912 3.959,86.004 5.758,86.304M-6.168,91.183C-5.541,88.619 -7.373,86.923 -9.06,86.817M8.365,98.902C6.928,97.773 5.155,97.789 3.478,99.103M-8.337,82.587C-8.578,79.879 -10.12,78.905 -11.373,78.944M56.807,81.283C57.585,81.619 57.622,84.403 56.132,85.188M60.725,95.929C61.794,95.1 66.19,96.03 66.392,97.948M59.423,93.434C59.425,90.277 61.558,89.3 63.159,89.374C64.245,89.423 65.455,89.536 66.703,88.503C65.536,88.78 64.39,88.059 62.689,86.822C59.668,89.147 56.842,88.209 56.183,85.35C54.204,84.353 52.1,84.323 50.751,86.396M50.822,86.567C52.166,86.725 54.316,89.793 53.114,91.302M-82.967,-12.816C-81.114,-11.243 -80.349,-10.449 -79.593,-7.433M-77.081,-21.188C-77.98,-20.278 -80.633,-19.715 -82.031,-20.722M-66.346,-16.195C-67.316,-14.731 -65.245,-12.615 -64.252,-12.809M-91.753,-13.375C-88.582,-11.511 -91.398,-8.027 -91.147,-8.175M-82.031,-5.791C-82.889,-5.906 -84.208,-7.114 -85.505,-6.817M-93.207,20.118C-92.31,19.974 -90.908,21.243 -90.749,24.59M-38.652,87.563C-39.759,87.601 -41.494,89.837 -40.718,92.597M-71.166,87.03C-70.079,87.241 -68.088,89.512 -69.288,92.116M-67.555,83.638C-69.751,84.314 -71.072,85.941 -71.052,87.086C-75.225,87.573 -77.387,89.592 -77.074,93.456M-71.394,86.638C-73.864,87.031 -75.465,85.688 -76.546,84.288C-77.511,82.946 -78.814,81.13 -81.544,81.923M-84.004,83.408C-82.603,83.945 -81.85,88.147 -83.851,89.209M-73.144,79.975C-72.811,81.599 -75.148,84.269 -76.283,84.446" style="fill:none;fill-rule:nonzero;stroke:rgb(97,84,19);stroke-width:0.58px;"/>
        </g>
        <g transform="matrix(-3.46263,-1.07466,-1.07466,3.46263,401.761,328.576)">
            <ellipse cx="-0.783" cy="-2.524" rx="1.944" ry="2.643" style="fill:none;stroke:rgb(97,84,19);stroke-width:0.83px;stroke-linecap:butt;stroke-linejoin:miter;"/>
        </g>
        <g transform="matrix(3.62556,0,0,3.62556,440.197,337.078)">
            <path d="M0,-7.996C-2.58,-5.377 -2.642,-3.844 -4.161,-2.712C-8.371,0.424 -12.984,-1.835 -11.683,-8.42C-7.722,-5.923 -3.193,-8.198 0,-7.996Z" style="fill:none;fill-rule:nonzero;stroke:rgb(97,84,19);stroke-width:0.79px;"/>
        </g>
    </g>
</svg>
