<?xml version="1.0" encoding="utf-8"?>
<!-- Generator: Adobe Illustrator 15.0.2, SVG Export Plug-In . SVG Version: 6.00 Build 0)  -->
<!DOCTYPE svg PUBLIC "-//W3C//DTD SVG 1.1//EN" "http://www.w3.org/Graphics/SVG/1.1/DTD/svg11.dtd">
<svg version="1.1" xmlns="http://www.w3.org/2000/svg" xmlns:xlink="http://www.w3.org/1999/xlink" x="0px" y="0px"
	 width="620.823px" height="904.49px" viewBox="0 0 620.823 904.49" enable-background="new 0 0 620.823 904.49"
	 xml:space="preserve">
<g id="Artwork_1">
	<g id="XMLID_1_">
		<g>
			<path fill="#F8C300" d="M610.823,54.083v797.2c-272,57.81-336.22,57.41-597.93,0c0,0-2.07-784.4-2.57-795.92
				C280.473-29.977,525.753,26.163,610.823,54.083z M536.323,798.283v-70.5h-30v-71h30v-88h-30v-73h30v-86h-30v-73h30v-86h-30v-71
				h30v-71.5l-54-9v35l-63-11v-32l-74.69-3.75l0.551,31.25l-64.581-0.5l-0.03-30.64l-75.3,3.76l0.89,31.94l-62.18,9.97l0.3-34.03
				l-57.96,9v71.5h32v71h-32v86h32v73h-32v86h32v73h-32v88h32v71h-32v70.5l57,9v-34l62,11v30l76.23,7.25l0.55-31.75h61.22v31.5l75-7
				v-30l63-11v34L536.323,798.283z"/>
			<polygon fill="#183884" points="536.323,727.783 536.323,798.283 481.323,807.283 481.323,773.283 418.323,784.283 
				418.323,814.283 343.323,821.283 343.323,789.783 282.103,789.783 281.553,821.533 205.323,814.283 205.323,784.283 
				143.323,773.283 143.323,807.283 86.323,798.283 86.323,727.783 118.323,727.783 118.323,656.783 86.323,656.783 86.323,568.783 
				118.323,568.783 118.323,495.783 86.323,495.783 86.323,409.783 118.323,409.783 118.323,336.783 86.323,336.783 86.323,250.783 
				118.323,250.783 118.323,179.783 86.323,179.783 86.323,108.283 144.283,99.283 143.983,133.313 206.163,123.343 205.273,91.403 
				280.573,87.643 280.603,118.283 345.184,118.783 344.633,87.533 419.323,91.283 419.323,123.283 482.323,134.283 482.323,99.283 
				536.323,108.283 536.323,179.783 506.323,179.783 506.323,250.783 536.323,250.783 536.323,336.783 506.323,336.783 
				506.323,409.783 536.323,409.783 536.323,495.783 506.323,495.783 506.323,568.783 536.323,568.783 536.323,656.783 
				506.323,656.783 506.323,727.783 			"/>
		</g>
		<g>
			<path fill="none" stroke="#DA251D" stroke-width="20" stroke-miterlimit="10" d="M12.893,851.283c0,0-2.07-784.4-2.57-795.92
				c270.15-85.34,515.43-29.2,600.5-1.28v797.2C338.823,909.093,274.603,908.693,12.893,851.283z"/>
		</g>
	</g>
</g>
<g id="Artwork_2">
	<path fill="#F8C300" stroke="#FB7D3B" stroke-width="10" stroke-linejoin="round" stroke-miterlimit="10" d="M310.913,186.093
		l-190.69,441.19l132.855-0.049c-7.81-9-11.925-16.812-11.925-28.352c0-0.048,0.002-0.096,0.002-0.143
		c0-0.036-0.002-0.071-0.002-0.107c0-17.26,8.557-32.897,24.577-43.138c-10.21-8.299-14.787-19.131-14.787-31.251c0,0,0,0,0-0.001
		l0,0c0-19.529,10.371-34.446,33.32-41.417c-26.571,0.589-12.13-60.084,27.06-59.405c41.984,0.728,57.914,55.003,28.488,57.931
		c22.123,7.245,37.012,23.801,37.012,42.892c0,0.009,0,0.019,0,0.027c0,0.012,0,0.023,0,0.035c0,12.127-9.012,22.878-19.232,31.189
		c15.902,10.24,28.88,25.958,28.88,43.138c0,0.036,0.013,0.071,0.013,0.106c0.001,0.048,0.012,0.096,0.012,0.144
		c0,11.54-10.604,19.659-15.424,28.659l137.032-0.259L310.913,186.093z"/>
</g>
<g id="Artwork_3">
	
		<rect x="257.323" y="695.783" fill="#F8C300" stroke="#FB7D3B" stroke-width="7" stroke-linejoin="round" stroke-miterlimit="10" width="110" height="47"/>
	<path fill="#F8C300" stroke="#FB7D3B" stroke-width="7" stroke-miterlimit="10" d="M378.323,660.004
		c0,6.506-5.273,11.779-11.779,11.779H256.103c-6.505,0-11.779-5.273-11.779-11.779v-0.441c0-6.506,5.274-11.779,11.779-11.779
		h110.441c6.506,0,11.779,5.273,11.779,11.779V660.004z"/>
	<path fill="#F8C300" stroke="#FB7D3B" stroke-width="7" stroke-miterlimit="10" d="M265.73,647.783
		c34.863-310.266,34.812-309.744,36.01-322.926c1.163-12.791,19.911-15.757,21.074,1.685s34.776,321.241,34.776,321.241H265.73z"/>
	<path fill="#F8C300" stroke="#FB7D3B" stroke-width="7" stroke-miterlimit="10" d="M378.323,684.004
		c0,6.506-5.273,11.779-11.779,11.779H256.103c-6.505,0-11.779-5.273-11.779-11.779v-0.441c0-6.506,5.274-11.779,12.779-11.779
		h110.441c5.506,0,10.779,5.273,10.779,11.779V684.004z"/>
</g>
</svg>
