<?xml version="1.0" encoding="UTF-8" standalone="no"?>
<!-- Created with Inkscape (http://www.inkscape.org/) -->

<svg
   xmlns:dc="http://purl.org/dc/elements/1.1/"
   xmlns:cc="http://creativecommons.org/ns#"
   xmlns:rdf="http://www.w3.org/1999/02/22-rdf-syntax-ns#"
   xmlns:svg="http://www.w3.org/2000/svg"
   xmlns="http://www.w3.org/2000/svg"
   xmlns:sodipodi="http://sodipodi.sourceforge.net/DTD/sodipodi-0.dtd"
   xmlns:inkscape="http://www.inkscape.org/namespaces/inkscape"
   id="svg2"
   version="1.1"
   inkscape:version="0.47pre4 r22446"
   width="364.71509"
   height="359.86911"
   sodipodi:docname="WWI10D.svg">
  <metadata
     id="metadata8">
    <rdf:RDF>
      <cc:Work
         rdf:about="">
        <dc:format>image/svg+xml</dc:format>
        <dc:type
           rdf:resource="http://purl.org/dc/dcmitype/StillImage" />
      </cc:Work>
    </rdf:RDF>
  </metadata>
  <defs
     id="defs6">
    <inkscape:perspective
       sodipodi:type="inkscape:persp3d"
       inkscape:vp_x="0 : 0.5 : 1"
       inkscape:vp_y="0 : 1000 : 0"
       inkscape:vp_z="1 : 0.5 : 1"
       inkscape:persp3d-origin="0.5 : 0.33333333 : 1"
       id="perspective10" />
    <inkscape:perspective
       id="perspective2821"
       inkscape:persp3d-origin="0.5 : 0.33333333 : 1"
       inkscape:vp_z="1 : 0.5 : 1"
       inkscape:vp_y="0 : 1000 : 0"
       inkscape:vp_x="0 : 0.5 : 1"
       sodipodi:type="inkscape:persp3d" />
  </defs>
  <sodipodi:namedview
     pagecolor="#ffffff"
     bordercolor="#666666"
     borderopacity="1"
     objecttolerance="10"
     gridtolerance="10"
     guidetolerance="10"
     inkscape:pageopacity="0"
     inkscape:pageshadow="2"
     inkscape:window-width="1280"
     inkscape:window-height="970"
     id="namedview4"
     showgrid="false"
     inkscape:zoom="0.46354778"
     inkscape:cx="322.35271"
     inkscape:cy="223.3032"
     inkscape:window-x="0"
     inkscape:window-y="0"
     inkscape:window-maximized="1"
     inkscape:current-layer="svg2" />
  <rect
     style="fill:#5d6d8e;fill-opacity:1;stroke:none"
     id="rect3607"
     width="364.71509"
     height="359.86911"
     x="0"
     y="0" />
  <path
     style="fill:#fece26;fill-opacity:1;stroke:#000000;stroke-width:5;stroke-miterlimit:4;stroke-opacity:1;stroke-dasharray:none"
     d="m 183.25397,25.018988 c -86.468591,0 -156.562501,69.97063 -156.562501,156.281252 0,86.31062 70.09391,156.28125 156.562501,156.28125 86.46859,0 156.5625,-69.97063 156.5625,-156.28125 0,-86.310622 -70.09391,-156.281252 -156.5625,-156.281252 z m -0.34375,23.90625 c 73.09291,0 132.375,59.206002 132.375,132.250002 0,73.044 -59.28209,132.25 -132.375,132.25 -73.09291,0 -132.343751,-59.206 -132.343751,-132.25 0,-73.044 59.250841,-132.250002 132.343751,-132.250002 z"
     id="path2818" />
  <path
     style="fill:#f6d231;fill-opacity:1;stroke:#000000;stroke-width:4.5;stroke-linecap:butt;stroke-linejoin:miter;stroke-miterlimit:4;stroke-opacity:1;stroke-dasharray:none"
     d="m 256.56647,93.112738 -146.5,0.03125 -0.0312,20.562502 22.6875,0 38.9375,69.15625 -36.3125,65.0625 -24.28125,-0.0312 0,20.8125 146.4375,0.0625 0.0625,-20.65625 -25.40625,0 -36.25,-65.0625 38.71875,-69.34375 21.875,0 0.0625,-20.593752 z m -48.1875,20.000002 -24.6875,47.03125 -24.375,-46.96875 49.0625,-0.0625 z m -24.71875,88.34375 25.21875,46.28125 -50,-0.0312 24.78125,-46.25 z"
     id="path2827" />
</svg>
