<?xml version="1.0" encoding="UTF-8" standalone="no"?>
<!-- Created with Inkscape (http://www.inkscape.org/) -->

<svg
   xmlns:dc="http://purl.org/dc/elements/1.1/"
   xmlns:cc="http://creativecommons.org/ns#"
   xmlns:rdf="http://www.w3.org/1999/02/22-rdf-syntax-ns#"
   xmlns:svg="http://www.w3.org/2000/svg"
   xmlns="http://www.w3.org/2000/svg"
   xmlns:sodipodi="http://sodipodi.sourceforge.net/DTD/sodipodi-0.dtd"
   xmlns:inkscape="http://www.inkscape.org/namespaces/inkscape"
   id="svg2"
   version="1.1"
   inkscape:version="0.47pre4 r22446"
   width="1191"
   height="1001"
   sodipodi:docname="10th_US_Armored_Division_SSI.svg">
  <metadata
     id="metadata8">
    <rdf:RDF>
      <cc:Work
         rdf:about="">
        <dc:format>image/svg+xml</dc:format>
        <dc:type
           rdf:resource="http://purl.org/dc/dcmitype/StillImage" />
        <dc:title></dc:title>
      </cc:Work>
    </rdf:RDF>
  </metadata>
  <defs
     id="defs6">
    <inkscape:perspective
       sodipodi:type="inkscape:persp3d"
       inkscape:vp_x="0 : 0.5 : 1"
       inkscape:vp_y="0 : 1000 : 0"
       inkscape:vp_z="1 : 0.5 : 1"
       inkscape:persp3d-origin="0.5 : 0.33333333 : 1"
       id="perspective10" />
    <inkscape:perspective
       id="perspective3632"
       inkscape:persp3d-origin="0.5 : 0.33333333 : 1"
       inkscape:vp_z="1 : 0.5 : 1"
       inkscape:vp_y="0 : 1000 : 0"
       inkscape:vp_x="0 : 0.5 : 1"
       sodipodi:type="inkscape:persp3d" />
    <inkscape:perspective
       id="perspective3654"
       inkscape:persp3d-origin="0.5 : 0.33333333 : 1"
       inkscape:vp_z="1 : 0.5 : 1"
       inkscape:vp_y="0 : 1000 : 0"
       inkscape:vp_x="0 : 0.5 : 1"
       sodipodi:type="inkscape:persp3d" />
    <inkscape:perspective
       id="perspective3676"
       inkscape:persp3d-origin="0.5 : 0.33333333 : 1"
       inkscape:vp_z="1 : 0.5 : 1"
       inkscape:vp_y="0 : 1000 : 0"
       inkscape:vp_x="0 : 0.5 : 1"
       sodipodi:type="inkscape:persp3d" />
    <inkscape:perspective
       id="perspective3698"
       inkscape:persp3d-origin="0.5 : 0.33333333 : 1"
       inkscape:vp_z="1 : 0.5 : 1"
       inkscape:vp_y="0 : 1000 : 0"
       inkscape:vp_x="0 : 0.5 : 1"
       sodipodi:type="inkscape:persp3d" />
    <inkscape:perspective
       id="perspective3698-6"
       inkscape:persp3d-origin="0.5 : 0.33333333 : 1"
       inkscape:vp_z="1 : 0.5 : 1"
       inkscape:vp_y="0 : 1000 : 0"
       inkscape:vp_x="0 : 0.5 : 1"
       sodipodi:type="inkscape:persp3d" />
    <inkscape:perspective
       id="perspective3698-7"
       inkscape:persp3d-origin="0.5 : 0.33333333 : 1"
       inkscape:vp_z="1 : 0.5 : 1"
       inkscape:vp_y="0 : 1000 : 0"
       inkscape:vp_x="0 : 0.5 : 1"
       sodipodi:type="inkscape:persp3d" />
    <inkscape:perspective
       id="perspective3738"
       inkscape:persp3d-origin="0.5 : 0.33333333 : 1"
       inkscape:vp_z="1 : 0.5 : 1"
       inkscape:vp_y="0 : 1000 : 0"
       inkscape:vp_x="0 : 0.5 : 1"
       sodipodi:type="inkscape:persp3d" />
    <inkscape:perspective
       id="perspective3769"
       inkscape:persp3d-origin="0.5 : 0.33333333 : 1"
       inkscape:vp_z="1 : 0.5 : 1"
       inkscape:vp_y="0 : 1000 : 0"
       inkscape:vp_x="0 : 0.5 : 1"
       sodipodi:type="inkscape:persp3d" />
    <inkscape:perspective
       id="perspective3818"
       inkscape:persp3d-origin="0.5 : 0.33333333 : 1"
       inkscape:vp_z="1 : 0.5 : 1"
       inkscape:vp_y="0 : 1000 : 0"
       inkscape:vp_x="0 : 0.5 : 1"
       sodipodi:type="inkscape:persp3d" />
    <inkscape:perspective
       id="perspective3840"
       inkscape:persp3d-origin="0.5 : 0.33333333 : 1"
       inkscape:vp_z="1 : 0.5 : 1"
       inkscape:vp_y="0 : 1000 : 0"
       inkscape:vp_x="0 : 0.5 : 1"
       sodipodi:type="inkscape:persp3d" />
    <inkscape:perspective
       id="perspective3840-1"
       inkscape:persp3d-origin="0.5 : 0.33333333 : 1"
       inkscape:vp_z="1 : 0.5 : 1"
       inkscape:vp_y="0 : 1000 : 0"
       inkscape:vp_x="0 : 0.5 : 1"
       sodipodi:type="inkscape:persp3d" />
    <inkscape:perspective
       id="perspective3871"
       inkscape:persp3d-origin="0.5 : 0.33333333 : 1"
       inkscape:vp_z="1 : 0.5 : 1"
       inkscape:vp_y="0 : 1000 : 0"
       inkscape:vp_x="0 : 0.5 : 1"
       sodipodi:type="inkscape:persp3d" />
    <inkscape:perspective
       id="perspective3896"
       inkscape:persp3d-origin="0.5 : 0.33333333 : 1"
       inkscape:vp_z="1 : 0.5 : 1"
       inkscape:vp_y="0 : 1000 : 0"
       inkscape:vp_x="0 : 0.5 : 1"
       sodipodi:type="inkscape:persp3d" />
    <inkscape:perspective
       id="perspective3918"
       inkscape:persp3d-origin="0.5 : 0.33333333 : 1"
       inkscape:vp_z="1 : 0.5 : 1"
       inkscape:vp_y="0 : 1000 : 0"
       inkscape:vp_x="0 : 0.5 : 1"
       sodipodi:type="inkscape:persp3d" />
    <inkscape:perspective
       id="perspective3960"
       inkscape:persp3d-origin="0.5 : 0.33333333 : 1"
       inkscape:vp_z="1 : 0.5 : 1"
       inkscape:vp_y="0 : 1000 : 0"
       inkscape:vp_x="0 : 0.5 : 1"
       sodipodi:type="inkscape:persp3d" />
    <inkscape:perspective
       id="perspective4004"
       inkscape:persp3d-origin="0.5 : 0.33333333 : 1"
       inkscape:vp_z="1 : 0.5 : 1"
       inkscape:vp_y="0 : 1000 : 0"
       inkscape:vp_x="0 : 0.5 : 1"
       sodipodi:type="inkscape:persp3d" />
  </defs>
  <sodipodi:namedview
     pagecolor="#ffffff"
     bordercolor="#666666"
     borderopacity="1"
     objecttolerance="10"
     gridtolerance="10"
     guidetolerance="10"
     inkscape:pageopacity="0"
     inkscape:pageshadow="2"
     inkscape:window-width="1280"
     inkscape:window-height="970"
     id="namedview4"
     showgrid="false"
     inkscape:zoom="2.6673678"
     inkscape:cx="792.26684"
     inkscape:cy="318.02678"
     inkscape:window-x="0"
     inkscape:window-y="0"
     inkscape:window-maximized="1"
     inkscape:current-layer="svg2" />
  <path
     style="fill:#feb20e;stroke:none;stroke-width:1px;stroke-linecap:butt;stroke-linejoin:miter;stroke-opacity:1;fill-opacity:1"
     d="M 596.84307,24.756692 280.42627,552.6179 601.34188,738.569 917.75869,548.11908 596.84307,24.756692 z"
     id="path3616" />
  <path
     style="fill:#e00114;stroke:none;stroke-width:1px;stroke-linecap:butt;stroke-linejoin:miter;stroke-opacity:1;fill-opacity:1"
     d="m 900.88812,534.24772 -323.35248,176.95348 5.81098,277.80195 c 0,0 592.12558,7.94154 588.97008,2.62431 L 900.88812,534.24772 z"
     id="path3618"
     sodipodi:nodetypes="cccsc" />
  <path
     style="fill:#342cb5;stroke:none;stroke-width:1px;stroke-linecap:butt;stroke-linejoin:miter;stroke-opacity:1;fill-opacity:1"
     d="M 26.509534,985.09428 595.93432,989.33581 596.59706,700.77953 295.58131,536.55297 26.509534,985.09428 z"
     id="path3620"
     sodipodi:nodetypes="ccccc" />
  <path
     style="fill:#1f4225;stroke:none;stroke-width:0.10000000000000001;stroke-linecap:butt;stroke-linejoin:miter;stroke-opacity:1;stroke-miterlimit:4;stroke-dasharray:none;fill-opacity:1"
     d="M 596 0.4375 L 0.1875 1001 L 1190.8125 1000.9688 L 596 0.4375 z M 596.46875 42.1875 L 1154.3125 980.75 L 38.4375 980.9375 L 596.46875 42.1875 z "
     id="path2839" />
  <rect
     style="fill:none;stroke:#000000;stroke-width:5;stroke-linecap:round;stroke-linejoin:miter;stroke-miterlimit:4;stroke-opacity:1;stroke-dasharray:none;stroke-dashoffset:0"
     id="rect3795"
     width="22.551838"
     height="74.288208"
     x="301.01697"
     y="619.88385"
     ry="11.629043" />
  <rect
     style="fill:none;stroke:#000000;stroke-width:5;stroke-linecap:round;stroke-linejoin:miter;stroke-miterlimit:4;stroke-opacity:1;stroke-dasharray:none;stroke-dashoffset:0"
     id="rect3795-2"
     width="22.551838"
     height="74.288208"
     x="-693.07233"
     y="-19.958439"
     ry="11.629043"
     transform="matrix(-0.5,-0.8660254,0.8660254,-0.5,0,0)" />
  <rect
     style="fill:none;stroke:#000000;stroke-width:5;stroke-linecap:round;stroke-linejoin:miter;stroke-miterlimit:4;stroke-opacity:1;stroke-dasharray:none;stroke-dashoffset:0"
     id="rect3795-8"
     width="22.551838"
     height="74.288208"
     x="547.34033"
     y="-480.27759"
     ry="11.629043"
     transform="matrix(0,1,-1,0,0,0)" />
  <rect
     style="fill:none;stroke:#000000;stroke-width:5;stroke-linecap:round;stroke-linejoin:miter;stroke-miterlimit:4;stroke-opacity:1;stroke-dasharray:none;stroke-dashoffset:0"
     id="rect3795-4"
     width="22.551838"
     height="74.288208"
     x="547.34039"
     y="-581.87585"
     ry="11.629043"
     transform="matrix(0,1,-1,0,0,0)" />
  <rect
     style="fill:none;stroke:#000000;stroke-width:5;stroke-linecap:round;stroke-linejoin:miter;stroke-miterlimit:4;stroke-opacity:1;stroke-dasharray:none;stroke-dashoffset:0"
     id="rect3795-8-1"
     width="22.551838"
     height="74.288208"
     x="547.71527"
     y="-684.41144"
     ry="11.629043"
     transform="matrix(0,1,-1,0,0,0)" />
  <rect
     style="fill:none;stroke:#000000;stroke-width:5;stroke-linecap:round;stroke-linejoin:miter;stroke-miterlimit:4;stroke-opacity:1;stroke-dasharray:none;stroke-dashoffset:0"
     id="rect3795-4-1"
     width="22.551838"
     height="74.288208"
     x="547.71533"
     y="-786.0097"
     ry="11.629043"
     transform="matrix(0,1,-1,0,0,0)" />
  <rect
     style="fill:none;stroke:#000000;stroke-width:5;stroke-linecap:round;stroke-linejoin:miter;stroke-miterlimit:4;stroke-opacity:1;stroke-dasharray:none;stroke-dashoffset:0"
     id="rect3795-2-8"
     width="22.551838"
     height="74.288208"
     x="443.17279"
     y="635.62012"
     ry="11.629043"
     transform="matrix(-0.5,0.8660254,0.8660254,0.5,0,0)" />
  <rect
     style="fill:none;stroke:#000000;stroke-width:5;stroke-linecap:round;stroke-linejoin:miter;stroke-miterlimit:4;stroke-opacity:1;stroke-dasharray:none;stroke-dashoffset:0"
     id="rect3795-6"
     width="22.551838"
     height="74.288208"
     x="868.54694"
     y="619.58301"
     ry="11.629043" />
  <rect
     style="fill:none;stroke:#000000;stroke-width:5;stroke-linecap:round;stroke-linejoin:miter;stroke-miterlimit:4;stroke-opacity:1;stroke-dasharray:none;stroke-dashoffset:0"
     id="rect3795-2-5"
     width="22.551838"
     height="74.288208"
     x="-1061.7531"
     y="322.29477"
     ry="11.629043"
     transform="matrix(-0.5,-0.8660254,0.8660254,-0.5,0,0)" />
  <rect
     style="fill:none;stroke:#000000;stroke-width:5;stroke-linecap:round;stroke-linejoin:miter;stroke-miterlimit:4;stroke-opacity:1;stroke-dasharray:none;stroke-dashoffset:0"
     id="rect3795-8-6"
     width="22.551838"
     height="74.288208"
     x="734.67786"
     y="-785.75153"
     ry="11.629043"
     transform="matrix(0,1,-1,0,0,0)" />
  <rect
     style="fill:none;stroke:#000000;stroke-width:5;stroke-linecap:round;stroke-linejoin:miter;stroke-miterlimit:4;stroke-opacity:1;stroke-dasharray:none;stroke-dashoffset:0"
     id="rect3795-4-8"
     width="22.551838"
     height="74.288208"
     x="734.6778"
     y="-684.15326"
     ry="11.629043"
     transform="matrix(0,1,-1,0,0,0)" />
  <rect
     style="fill:none;stroke:#000000;stroke-width:5;stroke-linecap:round;stroke-linejoin:miter;stroke-miterlimit:4;stroke-opacity:1;stroke-dasharray:none;stroke-dashoffset:0"
     id="rect3795-8-1-0"
     width="22.551838"
     height="74.288208"
     x="734.30292"
     y="-581.61768"
     ry="11.629043"
     transform="matrix(0,1,-1,0,0,0)" />
  <rect
     style="fill:none;stroke:#000000;stroke-width:5;stroke-linecap:round;stroke-linejoin:miter;stroke-miterlimit:4;stroke-opacity:1;stroke-dasharray:none;stroke-dashoffset:0"
     id="rect3795-4-1-2"
     width="22.551838"
     height="74.288208"
     x="734.30286"
     y="-480.01941"
     ry="11.629043"
     transform="matrix(0,1,-1,0,0,0)" />
  <rect
     style="fill:none;stroke:#000000;stroke-width:5;stroke-linecap:round;stroke-linejoin:miter;stroke-miterlimit:4;stroke-opacity:1;stroke-dasharray:none;stroke-dashoffset:0"
     id="rect3795-2-8-2"
     width="22.551838"
     height="74.288208"
     x="74.27076"
     y="978.17847"
     ry="11.629043"
     transform="matrix(-0.5,0.8660254,0.8660254,0.5,0,0)" />
  <g
     id="g3986">
    <path
       transform="matrix(1.1538595,0,0,0.98556947,-63.270053,8.1745129)"
       d="m 470.8762,657.40283 a 61.483833,71.887344 0 1 1 -122.96767,0 61.483833,71.887344 0 1 1 122.96767,0 z"
       sodipodi:ry="71.887344"
       sodipodi:rx="61.483833"
       sodipodi:cy="657.40283"
       sodipodi:cx="409.39236"
       id="path3950"
       style="opacity:1;fill:none;stroke:#000000;stroke-width:3.75577330999999992;stroke-linecap:round;stroke-linejoin:miter;stroke-miterlimit:4;stroke-opacity:1;stroke-dasharray:none;stroke-dashoffset:0"
       sodipodi:type="arc" />
    <path
       inkscape:transform-center-y="-1.8687257"
       inkscape:transform-center-x="-1.3496301"
       transform="matrix(0.31807974,0.0303802,-0.02594926,0.27168794,295.44365,465.13857)"
       d="m 470.8762,657.40283 a 61.483833,71.887344 0 1 1 -122.96767,0 61.483833,71.887344 0 1 1 122.96767,0 z"
       sodipodi:ry="71.887344"
       sodipodi:rx="61.483833"
       sodipodi:cy="657.40283"
       sodipodi:cx="409.39236"
       id="path3950-2"
       style="fill:none;stroke:#000000;stroke-width:13.54518320000000031;stroke-linecap:round;stroke-linejoin:miter;stroke-miterlimit:4;stroke-opacity:1;stroke-dasharray:none;stroke-dashoffset:0"
       sodipodi:type="arc" />
    <path
       id="path3974"
       d="m 374.99515,594.23195 24.46232,44.42582"
       style="fill:none;stroke:#000000;stroke-width:5;stroke-linecap:butt;stroke-linejoin:miter;stroke-opacity:1;stroke-miterlimit:4;stroke-dasharray:none" />
    <path
       id="path3976"
       d="m 418.10881,639.5013 25.8682,-44.51954"
       style="fill:none;stroke:#000000;stroke-width:5;stroke-linecap:butt;stroke-linejoin:miter;stroke-opacity:1;stroke-miterlimit:4;stroke-dasharray:none" />
    <path
       id="path3978"
       d="m 428.7935,656.37187 50.70542,-0.0937"
       style="fill:none;stroke:#000000;stroke-width:5;stroke-linecap:butt;stroke-linejoin:miter;stroke-opacity:1;stroke-miterlimit:4;stroke-dasharray:none" />
    <path
       id="path3980"
       d="m 419.13979,673.52361 24.7435,43.95719"
       style="fill:none;stroke:#000000;stroke-width:5;stroke-linecap:butt;stroke-linejoin:miter;stroke-opacity:1;stroke-miterlimit:4;stroke-dasharray:none" />
    <path
       id="path3982"
       d="m 399.45747,673.80479 -24.46232,43.86346"
       style="fill:none;stroke:#000000;stroke-width:5;stroke-linecap:butt;stroke-linejoin:miter;stroke-opacity:1;stroke-miterlimit:4;stroke-dasharray:none" />
    <path
       id="path3984"
       d="m 339.6862,655.52834 48.59244,0"
       style="fill:none;stroke:#000000;stroke-width:4.93130922;stroke-linecap:butt;stroke-linejoin:miter;stroke-miterlimit:4;stroke-opacity:1;stroke-dasharray:none" />
  </g>
  <g
     transform="translate(374.24531,0.56236834)"
     id="g3986-7">
    <path
       transform="matrix(1.1538595,0,0,0.98556947,-63.270053,8.1745129)"
       d="m 470.8762,657.40283 c 0,39.70229 -27.52725,71.88735 -61.48384,71.88735 -33.95658,0 -61.48383,-32.18506 -61.48383,-71.88735 0,-39.70228 27.52725,-71.88734 61.48383,-71.88734 33.95659,0 61.48384,32.18506 61.48384,71.88734 z"
       sodipodi:ry="71.887344"
       sodipodi:rx="61.483833"
       sodipodi:cy="657.40283"
       sodipodi:cx="409.39236"
       id="path3950-1"
       style="fill:none;stroke:#000000;stroke-width:3.75577331;stroke-linecap:round;stroke-linejoin:miter;stroke-miterlimit:4;stroke-opacity:1;stroke-dasharray:none;stroke-dashoffset:0"
       sodipodi:type="arc" />
    <path
       inkscape:transform-center-y="-1.8687257"
       inkscape:transform-center-x="-1.3496301"
       transform="matrix(0.31807974,0.0303802,-0.02594926,0.27168794,295.44365,465.13857)"
       d="m 470.8762,657.40283 c 0,39.70229 -27.52725,71.88735 -61.48384,71.88735 -33.95658,0 -61.48383,-32.18506 -61.48383,-71.88735 0,-39.70228 27.52725,-71.88734 61.48383,-71.88734 33.95659,0 61.48384,32.18506 61.48384,71.88734 z"
       sodipodi:ry="71.887344"
       sodipodi:rx="61.483833"
       sodipodi:cy="657.40283"
       sodipodi:cx="409.39236"
       id="path3950-2-8"
       style="fill:none;stroke:#000000;stroke-width:13.54518318;stroke-linecap:round;stroke-linejoin:miter;stroke-miterlimit:4;stroke-opacity:1;stroke-dasharray:none;stroke-dashoffset:0"
       sodipodi:type="arc" />
    <path
       id="path3974-2"
       d="m 374.99515,594.23195 24.46232,44.42582"
       style="fill:none;stroke:#000000;stroke-width:5;stroke-linecap:butt;stroke-linejoin:miter;stroke-miterlimit:4;stroke-opacity:1;stroke-dasharray:none" />
    <path
       id="path3976-1"
       d="m 418.10881,639.5013 25.8682,-44.51954"
       style="fill:none;stroke:#000000;stroke-width:5;stroke-linecap:butt;stroke-linejoin:miter;stroke-miterlimit:4;stroke-opacity:1;stroke-dasharray:none" />
    <path
       id="path3978-9"
       d="m 428.7935,656.37187 50.70542,-0.0937"
       style="fill:none;stroke:#000000;stroke-width:5;stroke-linecap:butt;stroke-linejoin:miter;stroke-miterlimit:4;stroke-opacity:1;stroke-dasharray:none" />
    <path
       id="path3980-3"
       d="m 419.13979,673.52361 24.7435,43.95719"
       style="fill:none;stroke:#000000;stroke-width:5;stroke-linecap:butt;stroke-linejoin:miter;stroke-miterlimit:4;stroke-opacity:1;stroke-dasharray:none" />
    <path
       id="path3982-7"
       d="m 399.45747,673.80479 -24.46232,43.86346"
       style="fill:none;stroke:#000000;stroke-width:5;stroke-linecap:butt;stroke-linejoin:miter;stroke-miterlimit:4;stroke-opacity:1;stroke-dasharray:none" />
    <path
       id="path3984-7"
       d="m 339.6862,655.52834 48.59244,0"
       style="fill:none;stroke:#000000;stroke-width:4.93130922;stroke-linecap:butt;stroke-linejoin:miter;stroke-miterlimit:4;stroke-opacity:1;stroke-dasharray:none" />
  </g>
  <path
     style="fill:#000000;stroke:none;stroke-width:1px;stroke-linecap:butt;stroke-linejoin:miter;stroke-opacity:1;fill-opacity:1;opacity:1"
     d="m 388.67905,531.85773 -12.84037,40.48936 401.89432,145.03998 5.81692,-18.06005 19.74545,-17.15211 c -3.5771,-5.61606 -7.82332,-10.11692 -8.55257,-20.47939 l 6.70271,-17.92971 -412.76646,-111.90808 z"
     id="path4042"
     sodipodi:nodetypes="cccccccc" />
  <path
     style="fill:#000000;fill-opacity:1"
     d="m 642.58951,283.125 c -0.9935,0.009 -1.99694,0.0443 -3.03125,0.0937 -7.69183,0.36775 -9.97825,0.9057 -16.375,3.96875 -12.08329,5.78601 -21.29666,15.51497 -28.71875,30.34375 -11.03928,22.05566 -13.3715,56.53997 -5.625,83.28125 6.94898,23.98819 21.49699,40.81497 39.5,45.65625 7.16608,1.92706 21.0424,1.93301 28.34375,0.0312 8.95037,-2.33128 14.89917,-6.09018 22.84375,-14.40625 8.74157,-9.15032 14.52375,-20.02648 18.3125,-34.59375 3.55293,-13.66055 4.46611,-38.40845 1.96875,-53.34375 -3.34314,-19.99342 -10.04478,-34.55238 -21.0625,-45.75 -10.76868,-10.94449 -21.25379,-15.41512 -36.15625,-15.28125 z m 0.125,19.90625 c 13.64426,0 25.95946,14.60165 31.6875,37.5625 3.22147,12.91401 3.22567,36.99439 0,49.9375 -4.17914,16.76895 -13.15067,30.91157 -22.5,35.4375 -8.73875,4.23036 -19.9256,1.23031 -27.25,-7.28125 -4.4226,-5.13942 -10.76906,-18.10773 -12.84375,-26.25 -5.89202,-23.12364 -3.38622,-51.52512 6.125,-69.625 6.98013,-13.28321 15.09028,-19.78125 24.78125,-19.78125 z"
     id="path4098" />
  <path
     style="fill:#000000;fill-opacity:1"
     d="m 496.44208,438.28795 0.28621,-9.75 8.75,-0.28893 8.75,-0.28894 0,-53.92213 0,-53.92213 -8.75,-0.28894 -8.75,-0.28893 -0.28467,-9.62255 -0.28468,-9.62256 4.4496,-1.12042 c 6.07409,-1.52947 10.24915,-5.3226 12.34085,-11.2119 l 1.74834,-4.92257 11.76528,0 11.76528,0 0,72.5 0,72.5 8.5,0 8.5,0 0,10 0,10 -29.53621,0 -29.53621,0 0.28621,-9.75 z"
     id="path4100" />
  <path
     style="fill:#e00114;stroke:none;stroke-width:1px;stroke-linecap:butt;stroke-linejoin:miter;stroke-opacity:1;fill-opacity:1"
     d="m 762.73694,429.55651 17.80782,35.24072 -112.84532,125.12336 -11.8094,-25.58703 -139.08842,153.24097 -11.15332,-43.39484 -141.24412,127.65393 153.14724,-203.19658 14.0588,54.54816 147.99233,-176.29739 8.71647,34.58465 74.41792,-81.91595 z"
     id="path4044"
     sodipodi:nodetypes="cccccccccccc" />
</svg>
