<?xml version="1.0" encoding="UTF-8" standalone="no"?>
<svg
   xmlns:dc="http://purl.org/dc/elements/1.1/"
   xmlns:cc="http://web.resource.org/cc/"
   xmlns:rdf="http://www.w3.org/1999/02/22-rdf-syntax-ns#"
   xmlns:svg="http://www.w3.org/2000/svg"
   xmlns="http://www.w3.org/2000/svg"
   xmlns:sodipodi="http://sodipodi.sourceforge.net/DTD/sodipodi-0.dtd"
   xmlns:inkscape="http://www.inkscape.org/namespaces/inkscape"
   width="577.16931"
   height="785.81134"
   id="svg2207"
   sodipodi:version="0.32"
   inkscape:version="0.45.1"
   inkscape:output_extension="org.inkscape.output.svg.inkscape"
   sodipodi:docbase="C:\Documents and Settings\Steve-O\Desktop"
   sodipodi:docname="10th_Mountain_Division SSI.svg"
   version="1.0">
  <metadata
     id="metadata2242">
    <rdf:RDF>
      <cc:Work
         rdf:about="">
        <dc:format>image/svg+xml</dc:format>
        <dc:type
           rdf:resource="http://purl.org/dc/dcmitype/StillImage" />
      </cc:Work>
    </rdf:RDF>
  </metadata>
  <defs
     id="defs2240" />
  <sodipodi:namedview
     inkscape:window-height="755"
     inkscape:window-width="1280"
     inkscape:pageshadow="2"
     inkscape:pageopacity="0.0"
     guidetolerance="10.0"
     gridtolerance="10.0"
     objecttolerance="10.0"
     borderopacity="1.0"
     bordercolor="#666666"
     pagecolor="#ffffff"
     id="base"
     inkscape:zoom="1.6879"
     inkscape:cx="82.470474"
     inkscape:cy="112.26968"
     inkscape:window-x="-1"
     inkscape:window-y="-1"
     inkscape:current-layer="svg2207" />
  <g
     id="g2171"
     transform="matrix(3.5,0,0,3.5,1.4011533e-8,-7.6462323e-2)">
    <path
       id="path2209"
       d="M 79.688976,34.122047 C 53.07874,34.122047 28.948819,37.948819 11.444882,44.114173 C 9.2834646,44.893701 7.2637795,45.673228 5.3503937,46.488189 L 7.7244094,46.027559 C 9.7795276,45.141732 9.5669291,45.46063 11.870079,44.645669 C 29.19685,38.551181 53.220472,34.724409 79.688976,34.724409 C 106.15748,34.724409 130.14567,38.551181 147.47244,44.645669 C 150.23622,45.637795 152.82283,46.665354 155.23228,47.76378 L 155.23228,47.019685 C 152.92913,46.027559 150.48425,45.035433 147.89764,44.114173 C 130.3937,37.948819 106.29921,34.122047 79.688976,34.122047 z "
       style="fill:#ffffff;fill-opacity:1;fill-rule:evenodd;stroke:none" />
    <path
       id="path2211"
       d="M 26.610236,49.570866 C 10.559055,71.822835 0.49606299,103.5 0.49606299,138.64961 C 0.49606299,171.88583 9.496063,202.03937 24.059055,224.04331 L 140.88189,224.04331 C 155.40945,202.03937 164.40945,171.88583 164.40945,138.64961 C 164.40945,103.5 154.34646,71.822835 138.33071,49.570866 L 26.610236,49.570866 z "
       style="fill:#ffffff;fill-opacity:1;fill-rule:evenodd;stroke:none" />
    <path
       id="path2213"
       d="M 31.96063,59.031496 L 31.854331,59.244094 C 17.433071,79.299213 8.4330709,107.7874 8.4330709,139.42913 C 8.4330709,169.33465 16.511811,196.51181 29.551181,216.3189 L 29.728346,216.5315 L 29.940945,216.5315 L 134.32677,216.5315 L 134.5748,216.5315 L 134.71654,216.3189 C 147.79134,196.51181 155.79921,169.33465 155.79921,139.42913 C 155.79921,107.7874 146.83465,79.299213 132.44882,59.244094 L 132.27165,59.031496 L 132.05906,59.031496 L 32.208661,59.031496 L 31.96063,59.031496 z M 32.42126,59.917323 L 131.81102,59.917323 C 145.98425,79.759843 154.91339,108.03543 154.91339,139.42913 C 154.91339,169.08661 146.97638,196.01575 134.07874,215.64567 L 30.188976,215.64567 C 17.326772,196.01575 9.3543307,169.08661 9.3543307,139.42913 C 9.3543307,108.03543 18.248031,79.795276 32.42126,59.917323 z "
       style="fill:#000000;fill-opacity:1;fill-rule:evenodd;stroke:none" />
    <path
       id="path2215"
       d="M 26.610236,49.570866 C 10.559055,71.822835 0.49606299,103.5 0.49606299,138.64961 C 0.49606299,171.88583 9.496063,202.03937 24.059055,224.04331 L 140.88189,224.04331 C 155.40945,202.03937 164.40945,171.88583 164.40945,138.64961 C 164.40945,103.5 154.34646,71.822835 138.33071,49.570866 L 26.610236,49.570866 z "
       style="fill:none;stroke:#000000;stroke-width:0.99212599px;stroke-linejoin:miter;stroke-miterlimit:1;stroke-dasharray:none;stroke-opacity:1" />
    <path
       id="path2217"
       d="M 35.858268,62.362205 C 43.334646,66.437008 51.377953,73.84252 57.57874,83.161417 L 57.57874,83.19685 L 57.57874,83.19685 L 82.275591,121.42913 L 106.93701,83.19685 L 106.97244,83.19685 L 106.97244,83.161417 C 113.17323,73.84252 121.21654,66.437008 128.69291,62.362205 L 35.858268,62.362205 z M 133.79528,67.393701 C 133.72441,75.755906 131.24409,83.834646 124.68898,93.614173 L 94.145669,139.85433 L 108.38976,161.92913 L 115.01575,158.17323 L 117.70866,156.61417 L 119.51575,159.16535 L 123.55512,164.87008 L 125.75197,168.02362 L 122.42126,169.86614 L 115.90157,173.58661 L 134.64567,202.6063 L 135.35433,203.70472 L 135.14173,204.98031 C 135,206.00787 134.6811,207.03543 134.25591,207.99213 L 134.39764,208.20472 C 144.92126,189.46063 151.26378,165.01181 151.26378,138.29528 C 151.26378,111.04724 144.67323,86.244094 133.79528,67.393701 z M 30.755906,68.066929 C 20.125984,86.846457 13.641732,111.36614 13.641732,138.29528 C 13.641732,164.58661 19.771654,188.64567 29.976378,207.2126 C 29.692913,206.50394 29.480315,205.75984 29.374016,204.98031 L 29.19685,203.70472 L 29.870079,202.6063 L 48.614173,173.58661 L 42.094488,169.86614 L 38.76378,168.02362 L 40.96063,164.87008 L 45,159.16535 L 46.807087,156.61417 L 49.535433,158.17323 L 56.125984,161.92913 L 70.370079,139.85433 L 39.826772,93.614173 C 33.484252,84.11811 30.968504,76.181102 30.755906,68.066929 z M 82.275591,157.88976 L 73.204724,171.6378 L 78.625984,174.75591 L 81.708661,176.52756 L 79.830709,179.5748 L 76.251969,185.38583 L 74.515748,188.18504 L 71.610236,186.55512 L 63.496063,181.98425 C 63.425197,182.09055 63.283465,182.12598 63.212598,182.23228 L 63.070866,182.48031 L 62.858268,182.69291 C 62.149606,183.50787 61.61811,184.7126 61.61811,186.05906 C 61.61811,186.51969 61.653543,186.90945 61.724409,187.15748 L 61.830709,187.68898 L 61.795276,188.22047 C 61.334646,192.40157 59.385827,195.27165 58.429134,196.61811 L 58.358268,196.75984 L 58.251969,196.86614 C 55.948819,199.59449 53.503937,201.04724 50.775591,202.7126 L 50.740157,202.74803 L 50.704724,202.78346 C 48.791339,203.88189 47.374016,204.48425 46.73622,204.83858 C 47.232283,205.79528 47.622047,206.82283 47.65748,207.95669 C 47.692913,209.55118 47.125984,211.11024 46.240157,212.45669 L 45.850394,213.05906 L 118.70079,213.05906 L 118.27559,212.45669 C 117.38976,211.11024 116.82283,209.55118 116.85827,207.95669 C 116.8937,206.82283 117.3189,205.79528 117.81496,204.83858 C 117.14173,204.48425 115.72441,203.88189 113.84646,202.78346 L 113.77559,202.74803 L 113.74016,202.7126 C 111.01181,201.04724 108.56693,199.59449 106.26378,196.86614 L 106.15748,196.75984 L 106.08661,196.61811 C 105.12992,195.27165 103.21654,192.40157 102.75591,188.22047 L 102.68504,187.68898 L 102.82677,187.15748 C 102.8622,186.90945 102.89764,186.51969 102.89764,186.05906 C 102.89764,184.7126 102.36614,183.50787 101.65748,182.69291 L 101.48031,182.48031 L 101.30315,182.23228 C 101.23228,182.12598 101.09055,182.09055 101.01969,181.98425 L 92.905512,186.55512 L 90.035433,188.18504 L 88.26378,185.38583 L 84.685039,179.5748 L 82.807087,176.52756 L 85.889764,174.75591 L 91.346457,171.6378 L 82.275591,157.88976 z "
       style="fill:#0000ff;fill-opacity:1;fill-rule:evenodd;stroke:none" />
    <path
       id="path2219"
       d="M 34.192913,65.374016 C 33.909449,73.877953 35.893701,81.496063 42.69685,91.665354 L 74.480315,139.85433 L 57.259843,166.53543 L 47.799213,161.14961 L 43.759843,166.85433 L 53.503937,172.38189 L 32.775591,204.44882 C 33.377953,208.52362 37.027559,211.96063 43.370079,210.54331 C 44.53937,208.73622 44.433071,207.17717 43.334646,205.79528 C 41.846457,202.2874 45.46063,201.79134 48.968504,199.77165 C 51.732283,198.07087 53.716535,196.90157 55.629921,194.63386 C 56.515748,193.35827 57.968504,191.19685 58.322835,187.83071 C 58.216535,187.26378 58.181102,186.66142 58.181102,186.05906 C 58.181102,183.8622 58.996063,181.84252 60.271654,180.38976 C 60.944882,179.29134 61.937008,178.40551 63.106299,177.80315 L 73.311024,183.54331 L 76.889764,177.73228 L 68.279528,172.80709 L 82.275591,151.61811 L 96.23622,172.80709 L 87.625984,177.73228 L 91.204724,183.54331 L 101.40945,177.80315 C 102.57874,178.40551 103.57087,179.29134 104.24409,180.38976 C 105.51969,181.84252 106.33465,183.8622 106.33465,186.05906 C 106.33465,186.66142 106.29921,187.26378 106.19291,187.83071 C 106.54724,191.19685 108,193.35827 108.88583,194.63386 C 110.79921,196.90157 112.78346,198.07087 115.54724,199.77165 C 119.05512,201.79134 122.66929,202.2874 121.1811,205.79528 C 120.08268,207.17717 119.97638,208.73622 121.14567,210.54331 C 127.48819,211.96063 131.1378,208.52362 131.74016,204.44882 L 111.01181,172.38189 L 120.75591,166.85433 L 116.71654,161.14961 L 107.29134,166.53543 L 90.035433,139.85433 L 121.8189,91.665354 C 128.62205,81.496063 130.6063,73.877953 130.32283,65.374016 C 123.48425,69.094488 115.72441,76.181102 109.84252,85.03937 L 82.275591,127.77165 L 54.673228,85.03937 C 48.791339,76.181102 41.031496,69.094488 34.192913,65.374016 z "
       style="fill:#ff0000;fill-opacity:1;fill-rule:evenodd;stroke:none" />
    <path
       id="path2221"
       d="M 83.905512,0.035433071 C 51.909449,-0.28346457 22.854331,5.0314961 1.5590551,13.854331 L 1.1338583,56.692913 C 22.606299,46.73622 52.440945,40.712598 85.429134,41.031496 C 114.69685,41.314961 141.41339,46.559055 161.92913,54.956693 L 162.3189,13.818898 C 141.59055,5.5275591 114.09449,0.31889764 83.905512,0.035433071 z "
       style="fill:#0000ff;fill-opacity:1;fill-rule:evenodd;stroke:none" />
    <path
       id="path2223"
       d="M 36.531496,33.34252 C 36.566929,33.448819 36.566929,33.519685 36.531496,33.625984 C 36.496063,33.69685 36.425197,33.767717 36.318898,33.874016 C 36.177165,33.944882 36.035433,34.015748 35.822835,34.086614 C 35.610236,34.192913 35.362205,34.26378 35.043307,34.334646 C 34.724409,34.440945 34.440945,34.476378 34.228346,34.511811 C 34.015748,34.547244 33.838583,34.547244 33.69685,34.547244 C 33.555118,34.511811 33.448819,34.476378 33.377953,34.440945 C 33.307087,34.370079 33.271654,34.299213 33.23622,34.228346 L 29.622047,20.267717 L 29.586614,20.30315 L 28.240157,35.503937 C 28.240157,35.610236 28.204724,35.751969 28.169291,35.822835 C 28.098425,35.929134 27.992126,36 27.885827,36.106299 C 27.744094,36.177165 27.602362,36.248031 27.389764,36.318898 C 27.177165,36.389764 26.929134,36.46063 26.610236,36.531496 C 26.326772,36.602362 26.043307,36.673228 25.830709,36.708661 C 25.61811,36.744094 25.440945,36.744094 25.299213,36.744094 C 25.15748,36.708661 25.015748,36.673228 24.909449,36.637795 C 24.838583,36.602362 24.732283,36.531496 24.69685,36.425197 L 16.299213,23.740157 L 16.26378,23.775591 L 19.877953,37.700787 C 19.913386,37.771654 19.913386,37.877953 19.877953,37.948819 C 19.84252,38.019685 19.771654,38.125984 19.629921,38.19685 C 19.523622,38.267717 19.346457,38.338583 19.169291,38.444882 C 18.956693,38.515748 18.708661,38.586614 18.389764,38.692913 C 18.070866,38.76378 17.787402,38.834646 17.574803,38.834646 C 17.362205,38.870079 17.185039,38.870079 17.043307,38.870079 C 16.901575,38.870079 16.795276,38.834646 16.724409,38.76378 C 16.653543,38.728346 16.61811,38.622047 16.582677,38.551181 L 12.614173,23.279528 C 12.507874,22.854331 12.543307,22.464567 12.720472,22.181102 C 12.897638,21.862205 13.181102,21.685039 13.570866,21.57874 L 15.838583,20.976378 C 16.26378,20.870079 16.61811,20.799213 16.901575,20.799213 C 17.220472,20.799213 17.503937,20.834646 17.751969,20.940945 C 18,21.047244 18.248031,21.188976 18.425197,21.401575 C 18.637795,21.614173 18.850394,21.897638 19.062992,22.251969 L 25.405512,31.464567 L 25.476378,31.464567 L 26.645669,20.30315 C 26.681102,19.877953 26.716535,19.559055 26.787402,19.240157 C 26.858268,18.956693 26.964567,18.708661 27.106299,18.496063 C 27.248031,18.318898 27.425197,18.141732 27.673228,18 C 27.885827,17.858268 28.169291,17.751969 28.488189,17.681102 L 30.826772,17.07874 C 31.074803,17.007874 31.287402,16.972441 31.464567,17.007874 C 31.677165,17.007874 31.818898,17.07874 31.96063,17.149606 C 32.102362,17.255906 32.244094,17.397638 32.350394,17.53937 C 32.42126,17.681102 32.527559,17.893701 32.562992,18.106299 L 36.531496,33.34252 z "
       style="fill:#ffffff;fill-opacity:1;fill-rule:nonzero;stroke:none" />
    <path
       id="path2225"
       d="M 55.062992,22.181102 C 55.275591,23.633858 55.275591,24.980315 55.062992,26.149606 C 54.850394,27.354331 54.46063,28.417323 53.858268,29.30315 C 53.255906,30.188976 52.440945,30.933071 51.448819,31.5 C 50.456693,32.066929 49.287402,32.456693 47.905512,32.633858 C 46.523622,32.811024 45.318898,32.811024 44.255906,32.598425 C 43.192913,32.385827 42.271654,31.96063 41.492126,31.322835 C 40.712598,30.685039 40.074803,29.834646 39.57874,28.73622 C 39.082677,27.673228 38.728346,26.362205 38.515748,24.80315 C 38.30315,23.385827 38.30315,22.074803 38.515748,20.905512 C 38.728346,19.73622 39.11811,18.673228 39.720472,17.787402 C 40.322835,16.901575 41.137795,16.15748 42.129921,15.590551 C 43.122047,15.023622 44.291339,14.633858 45.708661,14.456693 C 47.019685,14.279528 48.224409,14.279528 49.287402,14.492126 C 50.350394,14.704724 51.271654,15.129921 52.051181,15.767717 C 52.830709,16.405512 53.468504,17.255906 54,18.318898 C 54.496063,19.38189 54.850394,20.65748 55.062992,22.181102 L 55.062992,22.181102 z M 51.34252,22.889764 C 51.23622,21.968504 51.023622,21.153543 50.775591,20.409449 C 50.527559,19.665354 50.208661,19.062992 49.783465,18.566929 C 49.358268,18.106299 48.826772,17.751969 48.224409,17.53937 C 47.586614,17.326772 46.84252,17.255906 45.992126,17.397638 C 45.106299,17.503937 44.397638,17.787402 43.866142,18.177165 C 43.334646,18.602362 42.909449,19.098425 42.625984,19.700787 C 42.34252,20.30315 42.165354,20.976378 42.129921,21.755906 C 42.094488,22.5 42.094488,23.279528 42.23622,24.094488 C 42.34252,25.051181 42.555118,25.901575 42.80315,26.645669 C 43.051181,27.389764 43.370079,28.027559 43.795276,28.523622 C 44.220472,29.019685 44.751969,29.374016 45.354331,29.551181 C 45.992126,29.76378 46.73622,29.799213 47.586614,29.692913 C 48.472441,29.551181 49.181102,29.30315 49.712598,28.877953 C 50.279528,28.488189 50.669291,27.992126 50.952756,27.354331 C 51.23622,26.751969 51.413386,26.07874 51.448819,25.299213 C 51.484252,24.555118 51.448819,23.740157 51.34252,22.889764 L 51.34252,22.889764 z "
       style="fill:#ffffff;fill-opacity:1;fill-rule:nonzero;stroke:none" />
    <path
       id="path2227"
       d="M 73.311024,23.456693 C 73.38189,24.555118 73.275591,25.511811 73.027559,26.397638 C 72.744094,27.283465 72.318898,28.027559 71.751969,28.665354 C 71.149606,29.267717 70.440945,29.76378 69.555118,30.153543 C 68.633858,30.507874 67.606299,30.720472 66.437008,30.791339 C 65.30315,30.862205 64.311024,30.791339 63.425197,30.57874 C 62.503937,30.330709 61.759843,29.976378 61.086614,29.444882 C 60.448819,28.913386 59.952756,28.240157 59.562992,27.425197 C 59.208661,26.610236 58.96063,25.61811 58.889764,24.484252 L 58.251969,13.748031 C 58.251969,13.677165 58.251969,13.570866 58.322835,13.5 C 58.358268,13.429134 58.464567,13.358268 58.606299,13.322835 C 58.712598,13.251969 58.925197,13.216535 59.137795,13.181102 C 59.350394,13.110236 59.669291,13.074803 60.023622,13.074803 C 60.34252,13.03937 60.625984,13.03937 60.874016,13.074803 C 61.086614,13.074803 61.299213,13.110236 61.440945,13.145669 C 61.547244,13.181102 61.653543,13.216535 61.724409,13.287402 C 61.795276,13.358268 61.830709,13.429134 61.830709,13.535433 L 62.468504,23.952756 C 62.503937,24.661417 62.645669,25.26378 62.858268,25.759843 C 63.035433,26.255906 63.318898,26.681102 63.673228,27 C 64.027559,27.318898 64.417323,27.531496 64.877953,27.673228 C 65.338583,27.814961 65.834646,27.885827 66.401575,27.850394 C 66.968504,27.814961 67.464567,27.673228 67.889764,27.496063 C 68.314961,27.283465 68.704724,27 68.988189,26.645669 C 69.271654,26.326772 69.484252,25.901575 69.625984,25.405512 C 69.767717,24.874016 69.80315,24.34252 69.767717,23.704724 L 69.129921,13.074803 C 69.129921,13.003937 69.129921,12.897638 69.200787,12.826772 C 69.23622,12.755906 69.34252,12.685039 69.448819,12.649606 C 69.590551,12.57874 69.767717,12.543307 70.015748,12.507874 C 70.228346,12.437008 70.511811,12.437008 70.866142,12.401575 C 71.220472,12.366142 71.503937,12.366142 71.716535,12.401575 C 71.964567,12.401575 72.141732,12.437008 72.283465,12.472441 C 72.425197,12.507874 72.496063,12.543307 72.566929,12.614173 C 72.637795,12.685039 72.673228,12.791339 72.673228,12.862205 L 73.311024,23.456693 z "
       style="fill:#ffffff;fill-opacity:1;fill-rule:nonzero;stroke:none" />
    <path
       id="path2229"
       d="M 92.161417,28.771654 C 92.161417,28.984252 92.125984,29.161417 92.055118,29.338583 C 91.948819,29.515748 91.877953,29.622047 91.73622,29.76378 C 91.629921,29.870079 91.488189,29.940945 91.311024,29.976378 C 91.133858,30.047244 90.956693,30.047244 90.779528,30.047244 L 89.255906,30.047244 C 88.937008,30.047244 88.653543,30.011811 88.440945,29.940945 C 88.192913,29.870079 87.980315,29.76378 87.80315,29.586614 C 87.590551,29.409449 87.413386,29.19685 87.23622,28.913386 C 87.059055,28.629921 86.846457,28.240157 86.633858,27.779528 L 82.275591,19.488189 C 82.027559,18.992126 81.779528,18.46063 81.496063,17.893701 C 81.248031,17.326772 81,16.759843 80.822835,16.228346 L 80.787402,16.228346 C 80.822835,16.866142 80.822835,17.53937 80.858268,18.177165 C 80.858268,18.814961 80.858268,19.488189 80.858268,20.19685 L 80.787402,29.444882 C 80.787402,29.551181 80.787402,29.622047 80.716535,29.692913 C 80.681102,29.76378 80.574803,29.834646 80.468504,29.870079 C 80.326772,29.940945 80.185039,29.976378 79.972441,29.976378 C 79.759843,30.011811 79.476378,30.047244 79.15748,30.011811 C 78.838583,30.011811 78.555118,30.011811 78.377953,29.976378 C 78.165354,29.940945 77.988189,29.905512 77.88189,29.870079 C 77.740157,29.799213 77.669291,29.76378 77.633858,29.692913 C 77.598425,29.586614 77.562992,29.515748 77.562992,29.444882 L 77.669291,13.535433 C 77.669291,13.110236 77.811024,12.791339 78.059055,12.57874 C 78.307087,12.366142 78.625984,12.259843 78.980315,12.259843 L 80.893701,12.259843 C 81.248031,12.259843 81.531496,12.295276 81.779528,12.366142 C 82.027559,12.437008 82.240157,12.507874 82.417323,12.649606 C 82.594488,12.791339 82.771654,13.003937 82.948819,13.216535 C 83.090551,13.464567 83.267717,13.783465 83.444882,14.137795 L 86.846457,20.622047 C 87.023622,21.011811 87.23622,21.401575 87.413386,21.791339 C 87.625984,22.145669 87.80315,22.535433 87.980315,22.925197 C 88.15748,23.314961 88.334646,23.669291 88.511811,24.023622 C 88.688976,24.413386 88.830709,24.767717 89.007874,25.122047 L 89.007874,25.122047 C 89.007874,24.484252 88.972441,23.846457 88.972441,23.137795 C 88.972441,22.429134 88.972441,21.791339 88.972441,21.153543 L 89.007874,12.862205 C 89.007874,12.755906 89.043307,12.685039 89.114173,12.614173 C 89.149606,12.543307 89.255906,12.472441 89.397638,12.437008 C 89.503937,12.366142 89.681102,12.330709 89.893701,12.295276 C 90.106299,12.295276 90.354331,12.295276 90.708661,12.295276 C 90.992126,12.295276 91.275591,12.295276 91.488189,12.330709 C 91.700787,12.330709 91.84252,12.366142 91.948819,12.437008 C 92.090551,12.507874 92.161417,12.543307 92.19685,12.649606 C 92.232283,12.720472 92.267717,12.791339 92.267717,12.862205 L 92.161417,28.771654 z "
       style="fill:#ffffff;fill-opacity:1;fill-rule:nonzero;stroke:none" />
    <path
       id="path2231"
       d="M 108.81496,14.846457 C 108.81496,15.129921 108.77953,15.34252 108.74409,15.519685 C 108.70866,15.732283 108.67323,15.874016 108.60236,15.980315 C 108.56693,16.086614 108.49606,16.15748 108.4252,16.228346 C 108.35433,16.26378 108.28346,16.299213 108.17717,16.299213 L 103.78346,15.980315 L 102.82677,30.224409 C 102.79134,30.295276 102.75591,30.366142 102.72047,30.437008 C 102.64961,30.507874 102.54331,30.57874 102.40157,30.614173 C 102.25984,30.649606 102.08268,30.685039 101.83465,30.685039 C 101.62205,30.685039 101.30315,30.685039 100.98425,30.649606 C 100.62992,30.649606 100.34646,30.614173 100.09843,30.57874 C 99.885827,30.507874 99.708661,30.472441 99.566929,30.401575 C 99.425197,30.366142 99.318898,30.295276 99.283465,30.224409 C 99.212598,30.153543 99.212598,30.047244 99.212598,29.976378 L 100.16929,15.732283 L 95.740157,15.448819 C 95.669291,15.448819 95.598425,15.413386 95.527559,15.34252 C 95.456693,15.271654 95.42126,15.200787 95.385827,15.094488 C 95.350394,14.952756 95.314961,14.811024 95.314961,14.633858 C 95.314961,14.42126 95.314961,14.208661 95.314961,13.96063 C 95.350394,13.677165 95.350394,13.429134 95.385827,13.251969 C 95.42126,13.074803 95.492126,12.897638 95.527559,12.791339 C 95.598425,12.685039 95.633858,12.614173 95.704724,12.57874 C 95.775591,12.507874 95.846457,12.507874 95.952756,12.507874 L 108.38976,13.358268 C 108.46063,13.358268 108.5315,13.393701 108.60236,13.429134 C 108.67323,13.5 108.74409,13.570866 108.77953,13.712598 C 108.81496,13.818898 108.81496,13.96063 108.85039,14.173228 C 108.85039,14.350394 108.85039,14.598425 108.81496,14.846457 L 108.81496,14.846457 z "
       style="fill:#ffffff;fill-opacity:1;fill-rule:nonzero;stroke:none" />
    <path
       id="path2233"
       d="M 124.37008,31.818898 C 124.44094,32.137795 124.47638,32.42126 124.47638,32.598425 C 124.47638,32.811024 124.44094,32.952756 124.33465,33.023622 C 124.19291,33.094488 124.01575,33.129921 123.76772,33.129921 C 123.51969,33.129921 123.16535,33.094488 122.70472,33.023622 C 122.24409,32.952756 121.88976,32.917323 121.64173,32.846457 C 121.3937,32.811024 121.1811,32.775591 121.0748,32.704724 C 120.93307,32.633858 120.8622,32.562992 120.79134,32.492126 C 120.75591,32.42126 120.72047,32.314961 120.72047,32.208661 L 120.01181,28.523622 L 113.42126,27.637795 L 111.82677,30.933071 C 111.79134,31.03937 111.72047,31.145669 111.64961,31.216535 C 111.57874,31.287402 111.47244,31.358268 111.33071,31.393701 C 111.22441,31.429134 111.01181,31.429134 110.76378,31.429134 C 110.55118,31.393701 110.23228,31.358268 109.84252,31.322835 C 109.41732,31.251969 109.09843,31.216535 108.85039,31.145669 C 108.6378,31.110236 108.46063,31.003937 108.38976,30.897638 C 108.3189,30.791339 108.3189,30.614173 108.35433,30.437008 C 108.4252,30.259843 108.5315,30.011811 108.67323,29.692913 L 116.14961,14.846457 C 116.22047,14.704724 116.29134,14.598425 116.3622,14.527559 C 116.4685,14.42126 116.5748,14.385827 116.75197,14.350394 C 116.8937,14.314961 117.14173,14.314961 117.4252,14.350394 C 117.70866,14.350394 118.06299,14.385827 118.52362,14.456693 C 119.05512,14.527559 119.48031,14.598425 119.79921,14.633858 C 120.11811,14.704724 120.36614,14.775591 120.54331,14.846457 C 120.68504,14.917323 120.82677,15.023622 120.8622,15.129921 C 120.93307,15.23622 121.00394,15.377953 121.00394,15.555118 L 124.37008,31.818898 z M 118.02756,17.893701 L 118.02756,17.893701 L 114.55512,25.015748 L 119.51575,25.653543 L 118.02756,17.893701 z "
       style="fill:#ffffff;fill-opacity:1;fill-rule:nonzero;stroke:none" />
    <path
       id="path2235"
       d="M 130.25197,33.874016 C 130.25197,33.980315 130.1811,34.051181 130.11024,34.122047 C 130.03937,34.15748 129.93307,34.228346 129.79134,34.228346 C 129.64961,34.26378 129.47244,34.26378 129.22441,34.228346 C 129.01181,34.228346 128.72835,34.192913 128.37402,34.122047 C 128.01969,34.051181 127.73622,33.980315 127.52362,33.909449 C 127.31102,33.838583 127.13386,33.767717 126.99213,33.69685 C 126.88583,33.625984 126.77953,33.555118 126.74409,33.484252 C 126.70866,33.377953 126.70866,33.307087 126.70866,33.200787 L 129.8622,16.795276 C 129.8622,16.724409 129.89764,16.61811 129.9685,16.582677 C 130.03937,16.511811 130.14567,16.476378 130.32283,16.440945 C 130.46457,16.440945 130.64173,16.440945 130.88976,16.440945 C 131.10236,16.476378 131.38583,16.511811 131.74016,16.582677 C 132.05906,16.653543 132.34252,16.724409 132.59055,16.795276 C 132.80315,16.866142 132.98031,16.901575 133.08661,16.972441 C 133.22835,17.043307 133.29921,17.149606 133.33465,17.220472 C 133.40551,17.291339 133.40551,17.397638 133.40551,17.468504 L 130.25197,33.874016 z "
       style="fill:#ffffff;fill-opacity:1;fill-rule:nonzero;stroke:none" />
    <path
       id="path2237"
       d="M 148.3937,37.629921 C 148.35827,37.84252 148.2874,37.984252 148.14567,38.125984 C 148.03937,38.267717 147.89764,38.374016 147.75591,38.444882 C 147.61417,38.515748 147.47244,38.551181 147.29528,38.586614 C 147.11811,38.586614 146.94094,38.551181 146.76378,38.515748 L 145.27559,38.090551 C 144.99213,38.019685 144.70866,37.913386 144.5315,37.807087 C 144.3189,37.665354 144.14173,37.488189 144,37.275591 C 143.85827,37.062992 143.71654,36.814961 143.61024,36.496063 C 143.50394,36.141732 143.43307,35.751969 143.32677,35.255906 L 141.23622,26.114173 C 141.12992,25.582677 141.02362,24.980315 140.91732,24.377953 C 140.81102,23.740157 140.70472,23.137795 140.66929,22.570866 L 140.63386,22.570866 C 140.49213,23.208661 140.35039,23.846457 140.20866,24.484252 C 140.0315,25.122047 139.88976,25.759843 139.67717,26.433071 L 137.26772,35.362205 C 137.23228,35.468504 137.19685,35.53937 137.12598,35.574803 C 137.05512,35.645669 136.94882,35.681102 136.84252,35.681102 C 136.70079,35.716535 136.52362,35.716535 136.31102,35.681102 C 136.09843,35.645669 135.85039,35.574803 135.5315,35.503937 C 135.2126,35.433071 134.96457,35.326772 134.7874,35.255906 C 134.5748,35.185039 134.43307,35.07874 134.32677,35.007874 C 134.22047,34.937008 134.14961,34.866142 134.14961,34.759843 C 134.11417,34.688976 134.11417,34.61811 134.14961,34.511811 L 138.29528,19.169291 C 138.43701,18.779528 138.61417,18.496063 138.93307,18.354331 C 139.21654,18.212598 139.53543,18.177165 139.88976,18.283465 L 141.76772,18.779528 C 142.08661,18.885827 142.37008,18.992126 142.58268,19.098425 C 142.79528,19.204724 142.97244,19.38189 143.11417,19.559055 C 143.25591,19.73622 143.39764,19.948819 143.4685,20.232283 C 143.5748,20.515748 143.64567,20.834646 143.71654,21.224409 L 145.34646,28.38189 C 145.45276,28.807087 145.52362,29.232283 145.62992,29.65748 C 145.70079,30.047244 145.80709,30.472441 145.87795,30.897638 C 145.94882,31.287402 146.01969,31.712598 146.09055,32.102362 C 146.16142,32.492126 146.23228,32.917323 146.30315,33.307087 L 146.30315,33.307087 C 146.44488,32.669291 146.62205,32.031496 146.76378,31.358268 C 146.94094,30.685039 147.11811,30.047244 147.29528,29.444882 L 149.45669,21.437008 C 149.49213,21.330709 149.52756,21.259843 149.59843,21.224409 C 149.66929,21.153543 149.77559,21.11811 149.91732,21.11811 C 150.05906,21.082677 150.23622,21.082677 150.44882,21.11811 C 150.62598,21.153543 150.90945,21.224409 151.22835,21.295276 C 151.51181,21.366142 151.75984,21.472441 151.97244,21.543307 C 152.14961,21.614173 152.29134,21.685039 152.39764,21.791339 C 152.50394,21.862205 152.5748,21.933071 152.5748,22.03937 C 152.61024,22.110236 152.61024,22.181102 152.5748,22.287402 L 148.3937,37.629921 z "
       style="fill:#ffffff;fill-opacity:1;fill-rule:nonzero;stroke:none" />
  </g>
</svg>
