<?xml version="1.0" encoding="UTF-8" standalone="no"?>
<svg
   xmlns:dc="http://purl.org/dc/elements/1.1/"
   xmlns:cc="http://creativecommons.org/ns#"
   xmlns:rdf="http://www.w3.org/1999/02/22-rdf-syntax-ns#"
   xmlns:svg="http://www.w3.org/2000/svg"
   xmlns="http://www.w3.org/2000/svg"
   xmlns:xlink="http://www.w3.org/1999/xlink"
   xmlns:sodipodi="http://sodipodi.sourceforge.net/DTD/sodipodi-0.dtd"
   xmlns:inkscape="http://www.inkscape.org/namespaces/inkscape"
   width="600.26489"
   height="1042.0353"
   viewBox="-300 -295 600.26489 1042.0353"
   version="1.1"
   id="svg25"
   sodipodi:docname="Coat of arms of the U.S. 11th Armored Cavalry Regiment with external ornament.svg"
   inkscape:version="0.92.3 (2405546, 2018-03-11)">
  <metadata
     id="metadata129">
    <rdf:RDF>
      <cc:Work
         rdf:about="">
        <dc:format>image/svg+xml</dc:format>
        <dc:type
           rdf:resource="http://purl.org/dc/dcmitype/StillImage" />
        <dc:title />
      </cc:Work>
    </rdf:RDF>
  </metadata>
  <sodipodi:namedview
     pagecolor="#ffffff"
     bordercolor="#666666"
     borderopacity="1"
     objecttolerance="10"
     gridtolerance="10"
     guidetolerance="10"
     inkscape:pageopacity="0"
     inkscape:pageshadow="2"
     inkscape:window-width="640"
     inkscape:window-height="480"
     id="namedview27"
     showgrid="false"
     inkscape:zoom="0.71691944"
     inkscape:cx="357.8865"
     inkscape:cy="767.2444"
     inkscape:current-layer="layer5"
     fit-margin-top="0"
     fit-margin-left="0"
     fit-margin-right="0"
     fit-margin-bottom="0"
     showguides="true" />
  <defs
     id="defs13">
    <radialGradient
       id="Gradient1"
       gradientUnits="userSpaceOnUse"
       cy="-80"
       cx="-75"
       r="405">
      <stop
         stop-color="#fff"
         stop-opacity=".31"
         offset="0"
         id="stop2" />
      <stop
         stop-color="#fff"
         stop-opacity=".25"
         offset=".19"
         id="stop4" />
      <stop
         stop-color="#6b6b6b"
         stop-opacity=".125"
         offset=".6"
         id="stop6" />
      <stop
         stop-opacity=".125"
         offset="1"
         id="stop8" />
    </radialGradient>
    <clipPath
       id="shield_cut">
      <path
         id="shield"
         d="m -298.5,-293.5 h 597 v 517 a 70,70 0 0 1 -70,70 H 70 a 70,70 0 0 0 -70,70 70,70 0 0 0 -70,-70 h -158.5 a 70,70 0 0 1 -70,-70 z"
         style="stroke-linecap:round;stroke-linejoin:round"
         inkscape:connector-curvature="0" />
    </clipPath>
  </defs>
  <g
     id="layer4"
     inkscape:label="Fond écu"
     inkscape:groupmode="layer"
     transform="translate(0.13245381,382.0564)"
     sodipodi:insensitive="true">
    <use
       xlink:href="#shield"
       id="use15"
       style="fill:#fcef3c"
       x="0"
       y="0"
       width="100%"
       height="100%" />
  </g>
  <g
     id="layer3"
     inkscape:label="Meubles"
     inkscape:groupmode="layer"
     transform="translate(0.13245381,382.0564)"
     sodipodi:insensitive="true">
    <g
       id="g1216"
       transform="matrix(0.93253292,0,0,0.9327143,-10.918988,24.472726)"
       style="stroke-width:1.07224393">
      <path
         sodipodi:nodetypes="cccczccscscsccscscccsscc"
         inkscape:connector-curvature="0"
         id="path291"
         d="M -0.45918511,181.82999 37.10278,181.6929 c 4.453901,-6.40006 -2.963573,-7.24237 -4.660975,-11.24117 -4.282128,-6.81628 34.440251,-34.7168 25.77245,-66.35035 C 94.315098,113.14855 116.9482,96.156034 103.31604,72.571253 89.683882,48.986471 58.893799,65.250079 51.496967,88.747577 49.039523,85.475466 45.216918,81.458721 38.74783,75.99844 44.428426,67.669555 52.511687,72.460611 61.865873,63.163177 74.627341,50.479133 82.898472,27.213593 55.74668,9.64809 69.478735,1.4975886 79.356189,-24.342796 57.765816,-34.878927 42.434409,-42.360674 23.007286,-7.8678757 45.754185,7.2040824 24.715178,4.7998204 12.828113,22.237311 11.823149,38.270877 11.053835,50.544787 22.472553,62.296132 17.040974,71.196342 11.941036,73.452726 7.2133226,77.399638 3.10509,83.12699 -8.965549,84.035987 -5.6231212,64.963225 -10.182655,60.190372 c -6.556597,-6.863349 -11.395733,-7.451692 -17.888656,-7.66365 4.413842,-15.881363 -9.1251,-42.172824 -18.490608,-26.943219 -7.594282,12.349346 -22.518819,29.507678 4.514145,35.088693 -9.798638,11.975039 -3.42522,33.469383 28.702364,36.711894 -2.850497,6.92848 -3.492833,13.18553 -1.739132,19.03164 -7.872021,-13.1129 -44.649796,-29.099819 -55.992519,-10.45191 -7.024842,11.54913 -9.233492,31.62714 6.735101,45.15857 21.185085,17.95176 43.291557,12.89783 66.7753905,5.53054 6.8203645,17.30544 -9.2683717,22.33991 -2.89261561,25.17706 z"
         style="fill:#5ab532;fill-rule:evenodd;stroke:#000000;stroke-width:3.21673179;stroke-linecap:butt;stroke-linejoin:miter;stroke-miterlimit:4;stroke-dasharray:none;stroke-opacity:1" />
      <g
         id="g1124"
         style="stroke-width:1.07224393">
        <path
           id="path1120"
           d="m 83.963227,-18.076247 c -2.71582,5.003601 -3.911482,7.524445 -4.341173,13.1135951 -2.927224,2.2740321 -6.924452,0.676371 -7.52241,-1.6641247 -0.422614,-4.8475564 -1.171929,-9.8411474 -3.291615,-13.5775654 -3.478013,-9.853193 22.185235,-5.075868 15.155198,2.128095 z"
           style="opacity:1;fill:#ff0000;fill-opacity:1;fill-rule:evenodd;stroke:#000000;stroke-width:3.22057104;stroke-linecap:round;stroke-linejoin:miter;stroke-miterlimit:4;stroke-dasharray:none;stroke-dashoffset:0;stroke-opacity:1"
           transform="matrix(0.88909997,0.45771306,-0.51796202,0.85540362,0,0)"
           inkscape:connector-curvature="0"
           sodipodi:nodetypes="ccccc" />
      </g>
      <use
         height="100%"
         width="100%"
         transform="rotate(-94.094357,32.606006,16.90639)"
         id="use1126"
         xlink:href="#g1124"
         y="0"
         x="0"
         style="stroke-width:1.07224393" />
      <use
         style="stroke-width:1.21328735"
         x="0"
         y="0"
         xlink:href="#g1124"
         id="use1128"
         transform="matrix(-0.23397922,-0.85000939,0.85478516,-0.23267196,-59.641779,104.84146)"
         width="100%"
         height="100%" />
      <use
         height="100%"
         width="100%"
         transform="translate(-92.670335,33.733553)"
         id="use1132"
         xlink:href="#g1124"
         y="0"
         x="0"
         style="stroke-width:1.07224393" />
      <use
         height="100%"
         width="100%"
         transform="rotate(-52.620092,5.0063163,113.15801)"
         id="use1134"
         xlink:href="#use1132"
         y="0"
         x="0"
         style="stroke-width:1.07224393" />
      <use
         height="100%"
         width="100%"
         transform="rotate(-61.539223,-42.990672,131.63221)"
         id="use1136"
         xlink:href="#use1134"
         y="0"
         x="0"
         style="stroke-width:1.07224393" />
      <use
         height="100%"
         width="100%"
         transform="rotate(23.58876,-24.576327,110.13978)"
         id="use1138"
         xlink:href="#g1124"
         y="0"
         x="0"
         style="stroke-width:1.07224393" />
      <path
         d="m -67.746901,107.23126 c -2.266333,-2.35945 -5.081015,-4.35043 -8.306402,-6.06542 m 34.981309,-5.205702 c 0.891677,3.147732 2.440543,6.227892 4.481634,9.257462 m -7.110584,50.62178 c -4.492198,2.27435 -8.669837,5.59383 -12.611887,9.69609 m -9.991713,-23.7556 c -3.254304,0.33584 -6.555321,1.33068 -9.891326,2.8191 m 33.473415,-28.72951 c 0.01748,3.10238 0.548053,6.04999 1.763673,8.79093 -2.658518,-1.90672 -5.789022,-3.35115 -9.273025,-4.44935 m 21.786195,21.69083 c 2.212762,2.17458 4.677432,3.87613 7.478438,4.94611 -3.226464,0.5415 -6.45776,1.74365 -9.692675,3.4406 M 30.383663,135.8144 c 0.253816,3.09204 -0.01702,6.07475 -0.988363,8.91146 2.481643,-2.13183 5.473879,-3.84443 8.84853,-5.24301 M 39.244914,24.215885 c -1.30759,2.813427 -2.085096,5.705716 -2.15484,8.703317 -1.591144,-2.858593 -3.806367,-5.500403 -6.489024,-7.979865 m 21.162037,27.654376 c -3.063314,0.49119 -5.895276,1.46579 -8.418352,3.08584 1.478236,-2.91858 2.427513,-6.23298 2.98062,-9.84386 m 35.541306,46.856576 c -2.428584,-1.93058 -5.058076,-3.364326 -7.955832,-4.134707 3.1519,-0.876823 6.239328,-2.411151 9.278487,-4.437944 M 44.086187,110.44464 c -3.063314,0.49119 -5.895276,1.46579 -8.418352,3.08584 1.478236,-2.91858 2.427513,-6.23298 2.98062,-9.84386 M 12.623821,120.5025 c -1.537687,2.69456 -2.553709,5.51193 -2.8732186,8.49327 -1.347184,-2.98134 -3.334359,-5.79871 -5.800866,-8.49327 M 20.574896,95.278393 c -1.537687,2.694562 -2.553709,5.511937 -2.873219,8.493277 -1.347184,-2.98134 -3.334359,-5.798715 -5.800866,-8.493276 M 81.679554,54.247626 c -0.924542,3.238226 -1.294072,6.818959 -1.247884,10.656214 m 32.64091,24.853797 c -3.22437,-0.971766 -6.79932,-1.393584 -10.63684,-1.403478 M 78.765645,110.87841 c -1.780752,-2.85829 -4.187857,-5.53486 -7.064107,-8.0753 M -8.7893165,80.332117 c 2.115148,-2.495883 4.800507,-4.658119 7.91295,-6.570455 M -30.527621,42.616907 c 2.495883,-2.115148 4.658119,-4.800507 6.570455,-7.91295 m -17.324121,-9.2282 c -1.01675,-3.109583 -2.687462,-6.125397 -4.847989,-9.070979 m 26.656872,76.105573 c -4.560592,0.490817 -9.186648,1.944736 -13.861736,4.120014 m -6.92378,-19.007442 c -3.254304,0.335839 -6.555321,1.330676 -9.891326,2.819099 m -0.96545,-28.797812 c -3.254304,0.335839 -6.555321,1.330676 -9.891326,2.819099 M 68.040204,44.704802 c 3.363012,-1.551467 6.709541,-4.123976 10.043723,-7.46124 m -10.336969,25.50184 c -2.506737,-1.216985 -5.371664,-2.030668 -8.504873,-2.54228 M 21.400334,21.853498 c -1.01675,-3.109583 -2.687462,-6.125397 -4.847989,-9.070979 m 4.610016,42.856983 c -3.23575,-0.482916 -6.680416,-0.339084 -10.28156,0.27418 m 43.289047,-86.779814 c -0.958378,-3.57265 -2.665948,-7.021517 -4.934671,-10.377674 m 24.43612,22.353031 c -2.619592,-0.159478 -5.309113,0.188981 -8.051013,0.917886 M 65.745236,6.4244218 C 64.137937,4.349745 62.102641,2.557395 59.746774,0.97650631 M 38.61075,-11.05212 c -3.23575,-0.482916 -6.680416,-0.339084 -10.28156,0.27418 m -56.400501,63.304662 c -0.966179,3.414254 -8.669059,8.478232 -13.976463,8.145474 M 45.754185,7.2040824 C 46.822898,7.7961529 53.192061,10.446887 55.74668,9.64809 M 9.5992904,149.18172 c -0.4441879,3.29057 -4.739844,6.76629 -7.1658599,7.47121 m 16.2695115,2.48339 c 2.576289,7.47089 10.968262,6.36982 13.738863,11.31541 M -8.3562104,135.89194 c -1.2623332,-6.69547 -5.3715826,-16.83569 -6.7283316,-19.47621 M 28.442675,75.012456 c 2.863628,-1.700328 8.379827,-0.619041 10.305155,0.985984 M 3.10509,83.12699 c -0.4088,3.305202 -4.6409522,7.004732 -7.0887592,7.544393 M 58.21426,104.10138 c -3.077313,-1.27343 -5.20328,-4.899567 -5.07224,-7.40273"
         style="fill:none;fill-rule:evenodd;stroke:#000000;stroke-width:3.21673179;stroke-linecap:butt;stroke-linejoin:bevel;stroke-miterlimit:4;stroke-dasharray:none;stroke-opacity:1"
         id="path1203"
         inkscape:connector-curvature="0" />
    </g>
    <use
       x="0"
       y="0"
       xlink:href="#g972"
       id="use1039"
       transform="matrix(-1,0,0,1,-1.5020938e-5,0)"
       width="100%"
       height="100%" />
    <g
       id="g972"
       transform="matrix(0.20044603,0.13013554,-0.11476675,0.17907531,-314.96852,-165.85157)"
       style="stroke-width:4.43546534">
      <path
         sodipodi:nodetypes="cssccsssc"
         inkscape:connector-curvature="0"
         id="path1003"
         d="m 522.1266,-493.37195 c 71.77275,-31.92813 164.2457,-59.92054 244.60641,-58.01227 263.96649,6.26822 556.75789,-16.6108 597.21909,-14.81822 l 141.8957,6.28652 c 12.7894,0 15.2663,75.51948 -5.613,72.9685 -0.5351,3.55126 -0.7012,9.13877 -1.7961,14.36917 -1.7897,8.55024 -12.3461,23.84463 -25.8196,19.53311 -113.6252,-36.36 -253.8245,14.85927 -416.7063,26.94222 -235.82252,17.49387 -442.98421,-15.16787 -533.7862,-67.26903 z"
         style="fill:#e20909;fill-rule:evenodd;stroke:#000000;stroke-width:13.30639744;stroke-linecap:butt;stroke-linejoin:miter;stroke-miterlimit:4;stroke-dasharray:none;stroke-opacity:1" />
      <path
         style="fill:#2b5df2;fill-rule:evenodd;stroke:#000000;stroke-width:13.30639744;stroke-linecap:butt;stroke-linejoin:miter;stroke-miterlimit:4;stroke-dasharray:none;stroke-opacity:1"
         d="m 1505.8478,-559.91592 c 100.2255,-6.37984 364.8071,-0.94981 448.1934,109.937 -21.7521,28.56886 -58.7572,54.43759 -88.0658,82.2508 l -36.821,24.24799 c -16.3102,-27.60887 -31.3002,-31.4896 -49.1696,-40.63785 -11.6925,-60.61657 -46.3955,-46.29464 -84.1944,-54.10894 -71.095,-14.69769 -103.7892,-40.91526 -192.9816,-48.35279 3.4071,-17.25999 4.783,-52.05896 3.039,-73.33621 z"
         id="path940"
         inkscape:connector-curvature="0"
         sodipodi:nodetypes="cccccscc" />
      <path
         sodipodi:nodetypes="cccccccccc"
         inkscape:connector-curvature="0"
         d="m 1814.4283,-413.41031 c 10.1012,-8.3091 19.5247,-24.51871 23.2984,-39.28338 m -57.7419,68.57571 c 6.3945,-8.69966 25.7926,-23.41095 34.4435,-29.29233 16.1767,2.15946 42.7714,18.61364 51.5471,45.68219 m 69.459,-101.61182 c -8.907,17.25392 -47.412,46.88356 -83.2356,77.5004 -17.1262,13.05461 -30.4789,22.10444 -38.3024,27.25926 m -255.9976,-197.32348 c 2.5044,28.95229 0.3426,55.91727 -3.4931,82.91876"
         style="fill:none;fill-rule:evenodd;stroke:#000000;stroke-width:13.30639744;stroke-linecap:butt;stroke-linejoin:miter;stroke-miterlimit:4;stroke-dasharray:none;stroke-opacity:1"
         id="path949" />
      <path
         sodipodi:nodetypes="ccccscc"
         inkscape:connector-curvature="0"
         id="path952"
         d="m 1200.1531,-559.69672 c -117.2911,5.42537 -274.06616,11.68276 -425.21167,8.09362 -68.87126,0.69287 -122.92931,5.58508 -252.81483,58.23115 l 4.33181,1.25245 c 66.5855,-20.76419 175.83415,-51.20504 248.24474,-49.48555 151.58298,3.59955 292.95865,-2.58251 410.28515,-8.0095 z"
         style="color:#000000;font-style:normal;font-variant:normal;font-weight:normal;font-stretch:normal;font-size:medium;line-height:normal;font-family:sans-serif;font-variant-ligatures:normal;font-variant-position:normal;font-variant-caps:normal;font-variant-numeric:normal;font-variant-alternates:normal;font-feature-settings:normal;text-indent:0;text-align:start;text-decoration:none;text-decoration-line:none;text-decoration-style:solid;text-decoration-color:#000000;letter-spacing:normal;word-spacing:normal;text-transform:none;writing-mode:lr-tb;direction:ltr;text-orientation:mixed;dominant-baseline:auto;baseline-shift:baseline;text-anchor:start;white-space:normal;shape-padding:0;clip-rule:nonzero;display:inline;overflow:visible;visibility:visible;opacity:0.7;isolation:auto;mix-blend-mode:normal;color-interpolation:sRGB;color-interpolation-filters:linearRGB;solid-color:#000000;solid-opacity:1;vector-effect:none;fill:#000000;fill-opacity:1;fill-rule:evenodd;stroke:none;stroke-width:44.35465622;stroke-linecap:butt;stroke-linejoin:miter;stroke-miterlimit:4;stroke-dasharray:none;stroke-dashoffset:0;stroke-opacity:1;color-rendering:auto;image-rendering:auto;shape-rendering:auto;text-rendering:auto;enable-background:accumulate" />
    </g>
    <path
       style="fill:#000000;stroke:#000000;stroke-width:3;stroke-linecap:round;stroke-linejoin:round;stroke-miterlimit:4;stroke-dasharray:none"
       d="m 48.646484,433.33008 v 416.99609 c 0,32.6467 40.037515,72.73828 72.617186,72.73828 h 119.94531 c 32.57968,0 58.99023,26.46465 58.99024,59.11133 10e-6,-32.64668 26.41251,-59.11133 58.99219,-59.11133 h 118.24023 c 32.57968,0 74.32227,-41.7947 74.32227,-74.4414 V 433.33008 Z m 36.59961,35.85156 H 515.08789 v 365.13672 c 0,27.68185 -22.56723,50.12305 -50.40234,50.12305 H 350.56641 c -27.83512,0 -50.40039,22.4412 -50.40039,50.12304 -10e-6,-27.68184 -22.56333,-50.12304 -50.39844,-50.12304 h -114.1211 c -27.83511,0 -50.400386,-22.4412 -50.400386,-50.12305 z"
       transform="translate(-300.13245,-677.0564)"
       id="path983"
       inkscape:connector-curvature="0" />
  </g>
  <g
     id="layer2"
     inkscape:label="Reflet final"
     inkscape:groupmode="layer"
     sodipodi:insensitive="true"
     transform="translate(0.13245381,382.0564)">
    <use
       xlink:href="#shield"
       id="use19"
       style="fill:url(#Gradient1)"
       x="0"
       y="0"
       width="100%"
       height="100%" />
  </g>
  <g
     id="layer1"
     inkscape:label="Contour final"
     inkscape:groupmode="layer"
     sodipodi:insensitive="true"
     transform="translate(0.13245381,382.0564)">
    <use
       xlink:href="#shield"
       style="fill:none;stroke:#000000;stroke-width:3"
       id="use22"
       x="0"
       y="0"
       width="100%"
       height="100%" />
  </g>
  <g
     inkscape:groupmode="layer"
     id="layer5"
     inkscape:label="Ornements"
     transform="translate(0.13245381,382.0564)">
    <g
       id="g245"
       transform="matrix(1.1977032,0,0,1,59.016065,-123.68059)"
       style="stroke-width:0.91374582">
      <g
         id="g2657"
         style="stroke-width:0.46451947;stroke-miterlimit:4;stroke-dasharray:none"
         transform="matrix(2.0158809,0.37731222,-0.34072232,1.8556827,-1205.9239,-1018.8659)">
        <path
           inkscape:connector-curvature="0"
           id="path2639"
           d="m 538.86704,287.40193 c 0,0 -13.52609,-3.22965 -19.25208,-2.19296 -3.04338,0.55099 -6.81163,2.7394 -9.27684,4.69776 -1.99522,1.58499 -3.89431,4.19962 -4.99826,6.5601 -1.44993,3.10022 -2.956,7.66641 -2.94229,11.12123 0.0141,3.54749 1.48003,8.76208 2.91042,11.97358 1.56192,3.50682 4.2025,6.54595 7.36001,8.53451 3.53591,2.22688 9.43844,3.4546 13.49626,2.6937 3.282,-0.61542 7.10806,-2.28134 9.52699,-4.69663 0.7854,-0.78422 2.01541,-3.15059 2.01541,-3.15059 0,0 3.76475,2.46586 5.49027,2.92102 1.6013,0.4224 3.11819,0.80977 4.75048,0.54796 2.18212,-0.34998 5.21928,-0.98629 7.01485,-2.33819 1.96598,-1.48022 3.9099,-5.25724 5.28627,-7.34872 1.42273,-2.16191 4.53585,-7.35211 4.53585,-7.35211 z"
           style="fill:#fcef3c;fill-opacity:1;fill-rule:evenodd;stroke:none;stroke-width:0.46451947" />
        <path
           inkscape:connector-curvature="0"
           sodipodi:nodetypes="ccssssccccccccccccc"
           transform="translate(501.69748,275.56943)"
           id="path2641"
           d="m 1.2309415,35.571945 c 6.049454,6.226882 17.3189695,14.057675 22.3327945,10.375078 0,0 -7.169833,-4.33193 -7.913195,-6.506405 -0.777404,-2.274057 -1.275913,-5.173201 0,-7.2098 1.141297,-1.821725 2.987521,-2.764902 5.099615,-3.165278 3.003561,-0.569365 8.171228,-0.09459 9.847531,2.461883 10.063304,15.347219 17.427138,12.140927 28.66335,8.440741 l -4.923765,8.264893 -6.330556,2.461883 h -3.868673 l -7.913195,-3.516976 -2.81358,4.044522 -5.275464,3.341127 L 21.6294,55.442857 15.298844,54.387764 9.6716827,51.750032 4.9237657,47.002115 2.8135804,42.430047 Z"
           style="opacity:0.03999999;fill:#000000;fill-opacity:1;stroke:none;stroke-width:0.32246569" />
        <path
           inkscape:connector-curvature="0"
           sodipodi:nodetypes="cssssssscccccc"
           id="path2643"
           d="m 550.43764,326.16286 -11.49941,-7.36195 c -2.96428,-1.89774 -4.45024,-6.09416 -7.00659,-8.51355 -1.67379,-1.58411 -1.21081,-2.3309 -3.39825,-3.05623 -1.70173,-0.56428 -3.78888,-0.58047 -5.53821,-0.18781 -1.37456,0.30854 -2.26937,0.96961 -3.10481,2.10392 -0.94769,1.28671 -1.2103,2.28794 -0.83578,3.84149 0.27236,1.12978 0.76836,1.8203 1.61738,2.61388 0.94633,0.88453 3.24868,2.13248 3.24868,2.13248 l 8.47645,-1.10229 6.48418,7.19733 5.52869,2.30564 6.02767,0.0271 z"
           style="opacity:0.03999999;fill:#000000;fill-opacity:1;stroke:none;stroke-width:0.32246569" />
        <path
           inkscape:connector-curvature="0"
           sodipodi:nodetypes="cssscsssscscssscc"
           id="path2645"
           d="m 505.30799,319.56164 c 1.56192,3.50682 4.2025,6.54595 7.36002,8.53451 3.53591,2.22688 9.43843,3.4546 13.49625,2.6937 3.28201,-0.61542 7.10807,-2.28134 9.527,-4.69663 0.78539,-0.78422 2.01541,-3.15059 2.01541,-3.15059 0,0 3.76475,2.46586 5.49026,2.92102 1.60131,0.4224 3.11819,0.80977 4.75049,0.54796 2.18212,-0.34998 5.21928,-0.98629 7.01484,-2.33819 1.96599,-1.48022 3.90991,-5.25724 5.28627,-7.34872 1.42274,-2.16191 4.53585,-7.35211 4.53585,-7.35211 -2.82848,7.28892 -8.81328,12.79841 -18.62828,11.99768 -3.92983,-0.32061 -10.08451,-4.16849 -13.86013,-4.51763 -1.92412,0.72595 -1.16902,3.81126 -2.83716,5.87636 -1.33578,1.65364 -4.99452,3.63362 -7.17269,3.34721 -3.55806,-0.46785 -5.99163,-1.77113 -7.34669,-2.38807 -4.87426,-2.21918 -8.63017,-8.66568 -11.05077,-7.92139 -0.18468,0.76355 -0.32425,1.97543 1.41933,3.79489 z"
           style="display:inline;opacity:0.07999998;fill:#000000;fill-opacity:1;fill-rule:evenodd;stroke:none;stroke-width:0.32246569" />
        <path
           inkscape:connector-curvature="0"
           sodipodi:nodetypes="cccccccscscc"
           id="path2647"
           d="m 537.2573,322.68244 -4.69876,-5.72309 -3.72203,-5.55579 -3.25014,-1.80665 -4.24592,2.2617 0.14461,4.07348 2.5985,1.80373 c 0,0 2.10385,1.09711 3.25307,1.15501 0.89447,0.0451 2.60949,-0.63992 2.60949,-0.63992 0,0 1.2894,2.05355 2.10465,2.9419 1.25055,1.36267 4.21955,3.60306 4.21955,3.60306 z"
           style="opacity:0.1;fill:#000000;fill-opacity:1;stroke:none;stroke-width:0.32246569" />
        <path
           inkscape:connector-curvature="0"
           style="fill:#000000;fill-opacity:1;fill-rule:evenodd;stroke:none;stroke-width:0.46451947"
           d="m 526.10406,309.01307 c -0.82837,-0.0832 -1.73556,0.0608 -2.59144,0.37776 -0.85587,0.31694 -1.67327,0.79697 -2.24621,1.54754 -0.55461,0.72658 -0.73963,1.6159 -0.77062,2.49695 -0.031,0.88105 0.11411,1.75268 0.47554,2.50256 0.52541,1.09 1.24696,1.44924 2.09641,1.86146 0.31363,0.15219 0.81708,0.40997 1.29021,0.51465 0.80831,0.17884 1.85507,0.25033 1.85507,0.25033 0,0 -0.77729,-0.48758 -1.38432,-1.02503 -0.39758,-0.35202 -1.43722,-0.76869 -1.65112,-0.99733 -0.58745,-0.62794 -0.99631,-1.11904 -1.12094,-1.70688 -0.0904,-0.42632 0.0413,-0.90319 0.0128,-1.52161 -0.0275,-0.59273 0.5063,-1.27674 0.66313,-1.4822 0.23045,-0.3019 0.85403,-0.75923 1.48292,-0.99211 0.62889,-0.23289 1.41971,-0.038 1.86786,0.007 1.25446,0.12595 2.34351,1.60218 3.43682,2.83268 0.44161,0.49703 1.01872,1.55998 1.41184,2.5703 0.39313,1.01032 1.40054,2.12008 2.03865,3.04246 0.56396,0.81518 1.54989,1.86577 2.44096,2.77782 0.89106,0.91205 1.66716,1.64711 1.66716,1.64711 l 1.63139,-0.60638 c 0,0 -1.42704,-1.56342 -2.29359,-2.45038 -0.86655,-0.88696 -1.8744,-1.99194 -2.24734,-2.53102 -0.40891,-0.59106 -1.40269,-1.57072 -1.80747,-2.61101 -0.40479,-1.04029 -0.82928,-2.14965 -1.60259,-3.02 -1.29729,-1.46009 -2.42451,-3.26069 -4.65479,-3.48461 v -1.4e-4 z"
           id="path2649"
           sodipodi:nodetypes="csssssscsssssssssssccsssscc" />
        <path
           inkscape:connector-curvature="0"
           sodipodi:nodetypes="csssccc"
           id="path2651"
           d="m 538.86705,287.40193 c 0,0 -13.52609,-3.22965 -19.25208,-2.19296 -3.04339,0.55099 -6.81164,2.7394 -9.27685,4.69776 -1.99522,1.58499 -3.89431,4.19962 -4.99826,6.5601 -1.44993,3.10022 -2.956,7.66641 -2.94229,11.12123 14.03061,-15.12441 30.75659,-12.24753 47.27758,-11.02387 z"
           style="display:inline;opacity:0.07999998;fill:#ffffff;fill-opacity:1;fill-rule:evenodd;stroke:none;stroke-width:0.32246569" />
        <path
           inkscape:connector-curvature="0"
           sodipodi:nodetypes="cccccccc"
           transform="translate(501.69748,275.56943)"
           id="path2653"
           d="M 2.1101853,24.317623 C 16.848445,12.759559 28.594953,16.160253 41.148614,15.525184 L 36.928243,11.480662 22.860341,9.3704771 h -5.099615 l -6.682253,2.8135799 -4.9237658,4.572069 z"
           style="opacity:0.06000001;fill:#ffffff;fill-opacity:1;stroke:none;stroke-width:0.32246569" />
        <path
           inkscape:connector-curvature="0"
           id="path2655"
           d="m 538.86704,287.40193 c 0,0 -13.52609,-3.22965 -19.25208,-2.19296 -3.04337,0.55099 -6.81163,2.7394 -9.27684,4.69776 -1.99522,1.58499 -3.89431,4.19962 -4.99826,6.5601 -1.44993,3.10022 -2.956,7.66641 -2.94229,11.12123 0.0141,3.54749 1.48003,8.76208 2.91042,11.97358 1.56192,3.50682 4.2025,6.54595 7.36001,8.53451 3.53591,2.22688 9.43845,3.4546 13.49627,2.6937 3.282,-0.61542 7.10806,-2.28134 9.52698,-4.69663 0.78541,-0.78422 2.01542,-3.15059 2.01542,-3.15059 0,0 3.76475,2.46586 5.49027,2.92102 1.60129,0.4224 3.11819,0.80977 4.75047,0.54796 2.18212,-0.34998 5.21928,-0.98629 7.01486,-2.33819 1.96597,-1.48022 3.90989,-5.25724 5.28627,-7.34872 1.42273,-2.16191 4.53585,-7.35211 4.53585,-7.35211 z"
           style="display:inline;fill:none;stroke:#000000;stroke-width:1.39355838;stroke-linecap:butt;stroke-linejoin:miter;stroke-miterlimit:4;stroke-dasharray:none;stroke-opacity:1" />
      </g>
      <g
         id="g2673"
         style="stroke-width:0.46451947;stroke-miterlimit:4;stroke-dasharray:none"
         transform="matrix(2.0439008,0.16249555,-0.14673753,1.8814756,-1274.2174,-909.46185)">
        <path
           inkscape:connector-curvature="0"
           sodipodi:nodetypes="csscsssssscsscsssssssc"
           id="path2659"
           d="m 530.935,285.36792 c 0,0 4.36407,-1.46873 6.5634,-2.12959 2.50642,-0.75315 6.13088,-0.88614 8.68205,-0.32646 2.1437,0.4703 5.03105,2.21987 5.03105,2.21987 0,0 2.75886,-2.9466 4.13386,-3.86953 2.37348,-1.59312 5.48136,-1.45757 8.21118,-0.73808 2.44372,0.64408 4.86153,2.42764 6.88463,4.00713 3.19605,2.49526 6.65261,5.88375 9.16244,9.134 1.9155,2.48056 3.02689,4.09216 5.07548,7.4527 1.16834,1.91657 2.69362,5.15306 3.66465,6.66269 2.70915,4.2118 9.28248,11.23494 9.28248,11.23494 0,0 -5.59583,3.05399 -8.53642,3.71333 -2.34347,0.52544 -4.17584,0.61756 -6.40637,-0.3018 -1.44171,-0.59423 -4.32352,-3.26467 -4.32352,-3.26467 0,0 -3.65284,3.43783 -5.31855,3.94458 -2.30189,0.70028 -6.19232,0.58803 -8.54418,0.1083 -2.30838,-0.47085 -5.11473,-1.2087 -7.05389,-2.60781 -3.64646,-2.63092 -6.00688,-5.14743 -8.7463,-8.7996 -1.49741,-1.99633 -3.44937,-6.76691 -5.20795,-10.18066 -1.2025,-2.3343 -3.34935,-5.39932 -4.37605,-6.76207 -1.95731,-2.59794 -3.31184,-5.22074 -5.49653,-7.60941 -0.715,-0.78176 -2.68146,-1.88786 -2.68146,-1.88786 z"
           style="fill:#000000;fill-opacity:1;fill-rule:evenodd;stroke:none;stroke-width:0.46451947" />
        <path
           inkscape:connector-curvature="0"
           sodipodi:nodetypes="ccsscssscscsc"
           id="path2661"
           d="m 588.34374,307.78065 c 2.70915,4.2118 9.28248,11.23494 9.28248,11.23494 0,0 -5.59583,3.05399 -8.53642,3.71333 -2.34347,0.52544 -4.17584,0.61756 -6.40637,-0.3018 -1.44171,-0.59423 -4.32352,-3.26467 -4.32352,-3.26467 0,0 -3.65284,3.43783 -5.31855,3.94458 -2.30189,0.70028 -6.19232,0.58803 -8.54418,0.1083 -2.30838,-0.47085 -5.11473,-1.2087 -7.05389,-2.60781 -3.64646,-2.63092 -6.00688,-5.14743 -8.7463,-8.7996 0,0 9.16486,3.05834 13.94403,1.28325 2.80067,-1.04024 5.09809,-7.90676 5.09809,-7.90676 0,0 8.86601,6.8544 13.72914,5.82392 2.57504,-0.54564 6.87549,-3.22768 6.87549,-3.22768 z"
           style="display:inline;opacity:0.06000001;fill:#000000;fill-opacity:1;fill-rule:evenodd;stroke:none;stroke-width:0.32246569" />
        <path
           inkscape:connector-curvature="0"
           sodipodi:nodetypes="cscsscsssccscscccc"
           id="path2663"
           d="m 539.11299,294.86519 c -1.95731,-2.59794 -3.37296,-5.33424 -5.55765,-7.72291 -0.715,-0.78176 -2.68146,-1.88786 -2.68146,-1.88786 0,0 4.42519,-1.35523 6.62452,-2.01609 2.50642,-0.75315 6.13088,-0.88614 8.68205,-0.32646 2.1437,0.4703 5.03105,2.21987 5.03105,2.21987 0,0 2.75886,-2.9466 4.13386,-3.86953 2.37348,-1.59312 5.48136,-1.45757 8.21118,-0.73808 2.44372,0.64408 4.86153,2.42764 6.88463,4.00713 3.19605,2.49526 6.65261,5.88375 9.16244,9.134 l -0.10421,-0.0883 c 0,0 -8.15111,-3.90179 -12.63967,-1.90592 -2.25874,1.00437 -2.8694,6.83836 -2.8694,6.83836 0,0 -10.89915,-6.98981 -16.26561,-5.11706 -2.89948,1.01183 -6.42975,4.6695 -6.42975,4.6695 l -2.18198,-3.19669 v 10e-6 z"
           style="display:inline;opacity:0.07999998;fill:#ffffff;fill-opacity:1;fill-rule:evenodd;stroke:none;stroke-width:0.32246569" />
        <path
           inkscape:connector-curvature="0"
           sodipodi:nodetypes="ccccsccccssccc"
           transform="translate(501.69748,275.56943)"
           id="path2665"
           d="m 29.972364,9.6827238 3.859681,4.6955712 1.809945,2.366851 c 2.088607,-6.203035 11.160068,-5.458259 21.719337,-1.949171 -2.524422,-7.5162583 2.368861,-7.7233794 6.540465,-6.8076051 2.515428,0.5522013 3.882413,1.6898905 5.711469,1.3777703 L 64.46188,5.7462506 58.475139,4.4932119 54.85525,5.050118 c 0,0 -2.227624,1.5490747 -3.743431,2.8287942 -0.699818,0.5908211 -0.330463,1.6925054 -1.82563,1.2087749 -4.733702,-1.5314916 -6.40442,-2.2276243 -6.40442,-2.2276243 l -6.961326,0.9745857 z"
           style="opacity:0.06000001;fill:#ffffff;fill-opacity:1;stroke:none;stroke-width:0.32246569" />
        <path
           inkscape:connector-curvature="0"
           sodipodi:nodetypes="ccccccccccscc"
           transform="translate(501.69748,275.56943)"
           id="path2667"
           d="m 51.667026,42.225118 5.605825,4.017508 8.78246,2.05547 5.138674,-0.560583 5.605826,-3.924078 3.550356,3.083204 3.456926,0.934305 5.699256,-1.027735 6.820421,-3.363495 -4.671521,-4.671522 c -1.518953,3.212055 -4.798446,3.497119 -7.583176,3.656415 -3.721849,0.212903 -7.855125,-1.93494 -12.224075,-3.282693 -6.789278,7.059814 -13.391694,3.946533 -20.180972,3.083204 z"
           style="opacity:0.07999998;fill:#000000;fill-opacity:1;stroke:none;stroke-width:0.32246569" />
        <path
           inkscape:connector-curvature="0"
           id="path2669"
           d="m 552.14201,284.56299 -1.69141,0.8674 c 0,0 5.47341,3.34419 7.04122,4.75045 1.63019,1.4622 6.03069,7.08968 6.03069,7.08968 0,0 -1.03382,-2.44388 -2.41599,-4.79216 -0.9243,-1.57038 -2.4416,-3.46949 -3.2935,-4.2336 -2.0634,-1.85078 -5.67101,-3.68177 -5.67101,-3.68177 z m 15.81184,21.04003 c 0,0 0.2671,1.57532 1.66852,4.2263 1.15838,2.19124 3.74316,5.78895 4.71933,6.83378 1.36816,1.46442 3.45284,3.54681 3.45284,3.54681 l 1.9714,-0.5849 c 0,0 -5.13491,-5.02613 -6.12894,-6.09011 -1.78298,-1.9084 -5.68315,-7.93188 -5.68315,-7.93188 z"
           style="fill:#000000;fill-opacity:1;fill-rule:evenodd;stroke:none;stroke-width:0.46451947" />
        <path
           inkscape:connector-curvature="0"
           sodipodi:nodetypes="csscsssssscsscsssssssc"
           id="path2671"
           d="m 530.86639,285.1368 c 0,0 4.43268,-1.23761 6.63201,-1.89847 2.50642,-0.75315 6.13088,-0.88614 8.68205,-0.32646 2.1437,0.4703 5.03105,2.21987 5.03105,2.21987 0,0 2.75886,-2.9466 4.13386,-3.86953 2.37348,-1.59312 5.48136,-1.45757 8.21118,-0.73808 2.44372,0.64408 4.86153,2.42764 6.88463,4.00713 3.19605,2.49526 6.65261,5.88375 9.16244,9.134 1.9155,2.48056 3.02689,4.09216 5.07548,7.4527 1.16834,1.91657 2.69362,5.15306 3.66465,6.66269 2.70915,4.2118 9.28248,11.23494 9.28248,11.23494 0,0 -5.59583,3.05399 -8.53642,3.71333 -2.34347,0.52544 -4.17584,0.61756 -6.40637,-0.3018 -1.44171,-0.59423 -4.32352,-3.26467 -4.32352,-3.26467 0,0 -3.65284,3.43783 -5.31855,3.94458 -2.30189,0.70028 -6.19232,0.58803 -8.54418,0.1083 -2.30838,-0.47085 -5.11473,-1.2087 -7.05389,-2.60781 -3.64646,-2.63092 -6.00688,-5.14743 -8.7463,-8.7996 -1.49741,-1.99633 -3.44937,-6.76691 -5.20795,-10.18066 -1.2025,-2.3343 -3.34935,-5.39932 -4.37605,-6.76207 -1.95731,-2.59794 -3.38045,-5.45186 -5.56514,-7.84053 -0.715,-0.78176 -2.68146,-1.88786 -2.68146,-1.88786 z"
           style="display:inline;fill:none;stroke:#000000;stroke-width:1.3935585;stroke-linecap:butt;stroke-linejoin:miter;stroke-miterlimit:4;stroke-dasharray:none;stroke-opacity:1" />
      </g>
      <g
         id="g2689"
         style="stroke-width:0.46451947;stroke-miterlimit:4;stroke-dasharray:none"
         transform="matrix(2.0501487,0.01814899,-0.01638898,1.8872272,-1317.994,-821.77464)">
        <path
           inkscape:connector-curvature="0"
           sodipodi:nodetypes="csscsssssscsscsssssssc"
           id="path2675"
           d="m 572.30713,281.30691 c 0,0 1.33154,-1.14919 3.53086,-1.81005 2.50642,-0.75313 6.13089,-0.88613 8.68206,-0.32645 2.1437,0.47029 5.03104,2.21986 5.03104,2.21986 0,0 2.75886,-2.9466 4.13387,-3.86953 2.37347,-1.59312 5.48135,-1.45756 8.21118,-0.73807 2.44372,0.64407 7.08918,2.59595 9.11227,4.17544 3.19607,2.49526 7.55391,3.2662 10.06375,6.51645 1.9155,2.48057 3.20142,4.84198 5.25001,8.20251 1.16835,1.91657 3.39681,7.0288 4.36786,8.53843 2.70914,4.21179 4.91374,11.65594 4.91374,11.65594 0,0 -5.23379,2.45668 -8.17438,3.11601 -2.34346,0.52546 -4.17584,0.61757 -6.40637,-0.3018 -1.4417,-0.59423 -4.32352,-3.26466 -4.32352,-3.26466 0,0 -3.65284,3.43783 -5.31854,3.94457 -2.30189,0.70028 -6.19233,0.58804 -8.54418,0.10831 -2.30838,-0.47085 -5.11473,-1.20871 -7.05389,-2.60782 -3.64646,-2.63091 -6.00689,-5.14742 -8.74631,-8.7996 -1.49741,-1.99633 -3.44936,-6.76691 -5.20795,-10.18065 -1.2025,-2.3343 -2.5512,-5.94125 -3.5779,-7.304 -1.95732,-2.59794 -1.22007,-3.4382 -3.40475,-5.82687 -0.71501,-0.78177 -2.53885,-3.44802 -2.53885,-3.44802 z"
           style="fill:#fcef3c;fill-opacity:1;fill-rule:evenodd;stroke:none;stroke-width:0.46451947" />
        <path
           inkscape:connector-curvature="0"
           sodipodi:nodetypes="ccsscsssccc"
           id="path2677"
           d="m 630.69003,304.2155 c 2.70914,4.21179 4.91374,11.65594 4.91374,11.65594 0,0 -5.23379,2.45668 -8.17438,3.11601 -2.34346,0.52546 -4.17584,0.61757 -6.40637,-0.3018 -1.4417,-0.59423 -4.32352,-3.26466 -4.32352,-3.26466 0,0 -3.65284,3.43783 -5.31854,3.94457 -2.30189,0.70028 -6.19233,0.58804 -8.54418,0.10831 -2.30838,-0.47085 -5.11473,-1.20871 -7.05389,-2.60782 -3.64646,-2.63091 -6.00689,-5.14742 -8.74631,-8.7996 10.80673,5.81224 18.83137,6.76887 20.23182,-3.83583 12.44733,8.13856 19.09424,6.09714 23.42163,-0.0151 z"
           style="display:inline;opacity:0.06000001;fill:#0a0000;fill-opacity:1;fill-rule:evenodd;stroke:none;stroke-width:0.32246569" />
        <path
           inkscape:connector-curvature="0"
           sodipodi:nodetypes="cscsscsssccscscc"
           id="path2679"
           d="m 577.07252,288.12233 c -1.95732,-2.59794 0.0341,-0.93704 -2.15053,-3.32571 -0.71501,-0.78177 -2.61486,-3.48971 -2.61486,-3.48971 0,0 1.33154,-1.14919 3.53086,-1.81005 2.50642,-0.75313 6.13089,-0.88613 8.68206,-0.32645 2.1437,0.47029 5.03104,2.21986 5.03104,2.21986 0,0 2.75886,-2.9466 4.13387,-3.86953 2.37347,-1.59312 5.48135,-1.45756 8.21118,-0.73807 2.44372,0.64407 7.08918,2.59595 9.11227,4.17544 3.19607,2.49526 7.55391,3.2662 10.06375,6.51645 l 2.04031,3.60347 c 0,0 -7.55225,-3.08677 -13.35276,-3.69998 -3.17887,-0.33607 -10.30891,2.63246 -10.21543,2.86616 0,0 -9.4222,-3.98597 -14.2626,-3.3424 -2.9391,0.39077 -7.18298,3.13807 -7.18298,3.13807 z"
           style="display:inline;opacity:0.07999998;fill:#ffffff;fill-opacity:1;fill-rule:evenodd;stroke:none;stroke-width:0.32246569" />
        <path
           inkscape:connector-curvature="0"
           sodipodi:nodetypes="ccccccccccc"
           transform="translate(501.69748,275.56943)"
           id="path2681"
           d="M 73.679396,9.9946656 70.518623,5.6484376 73.504112,4.2154025 79.963173,3.311134 87.972409,5.6363959 92.36457,1.7609594 96.240006,0.33996603 104.63679,2.4068655 115.10046,8.4783827 C 107.51555,7.3013934 98.057187,0.67436471 93.914745,9.5118324 85.225876,7.5993116 80.681279,2.1751151 73.679396,9.9946656 Z"
           style="opacity:0.06000001;fill:#ffffff;fill-opacity:1;stroke:none;stroke-width:0.32246569" />
        <path
           inkscape:connector-curvature="0"
           sodipodi:nodetypes="cccccccccc"
           transform="translate(501.69748,275.56943)"
           id="path2683"
           d="m 93.139657,40.386143 6.717424,3.358712 9.171869,0.516725 5.94233,-4.521343 5.16725,3.617074 4.77971,0.516725 9.43023,-3.358712 -2.84199,-5.942336 c -4.06406,4.121306 -9.83632,5.994991 -20.41063,1.550175 -4.37438,5.649914 -10.84437,5.798848 -17.956193,4.26298 z"
           style="opacity:0.07999998;fill:#000000;fill-opacity:1;stroke:none;stroke-width:0.32246569" />
        <path
           inkscape:connector-curvature="0"
           id="path2685"
           d="m 590.41087,280.45372 -1.78629,1.11698 c 0,0 1.5285,1.03319 3.20889,2.20194 1.52587,1.0613 3.17825,2.25467 3.92439,2.92392 1.63019,1.46221 6.09446,6.80872 6.09446,6.80872 0,0 -1.09688,-2.31917 -2.47904,-4.66744 -0.92431,-1.57038 -2.3176,-3.25018 -3.16949,-4.01429 -2.06341,-1.85079 -5.79292,-4.36983 -5.79292,-4.36983 z m 15.87265,21.41531 c 0,0 0.48262,2.29505 1.88404,4.94602 1.15838,2.19124 3.65377,4.81979 4.62993,5.86462 1.36816,1.46443 3.4534,3.42181 3.4534,3.42181 l 1.47197,-0.71214 c 0,0 -4.94811,-4.86905 -5.94214,-5.93302 -1.78298,-1.90842 -5.4972,-7.58729 -5.4972,-7.58729 z"
           style="fill:#000000;fill-opacity:1;fill-rule:evenodd;stroke:none;stroke-width:0.46451947" />
        <path
           inkscape:connector-curvature="0"
           sodipodi:nodetypes="csscsssssscsscsscc"
           id="path2687"
           d="m 572.30713,281.30691 c 0,0 1.33154,-1.14919 3.53086,-1.81005 2.50642,-0.75313 6.13089,-0.88613 8.68206,-0.32645 2.1437,0.47029 5.03104,2.21986 5.03104,2.21986 0,0 2.75886,-2.9466 4.13387,-3.86953 2.37347,-1.59312 5.48135,-1.45756 8.21118,-0.73807 2.44372,0.64407 7.08918,2.59595 9.11227,4.17544 3.19607,2.49526 7.55391,3.2662 10.06375,6.51645 1.9155,2.48057 3.20142,4.84198 5.25001,8.20251 1.16835,1.91657 3.39681,7.0288 4.36786,8.53843 2.70914,4.21179 4.91374,11.65594 4.91374,11.65594 0,0 -5.23379,2.45668 -8.17438,3.11601 -2.34346,0.52546 -4.17584,0.61757 -6.40637,-0.3018 -1.4417,-0.59423 -4.32352,-3.26466 -4.32352,-3.26466 0,0 -3.65284,3.43783 -5.31854,3.94457 -2.30189,0.70028 -6.19233,0.58804 -8.54418,0.10831 -2.30838,-0.47085 -5.11473,-1.20871 -7.05389,-2.60782 -12.34471,-8.48692 -14.63445,-25.46573 -23.47576,-35.55914 z"
           style="display:inline;fill:none;stroke:#000000;stroke-width:1.39355838;stroke-linecap:butt;stroke-linejoin:miter;stroke-miterlimit:4;stroke-dasharray:none;stroke-opacity:1" />
      </g>
      <g
         id="g2791"
         style="stroke-width:0.46451947;stroke-miterlimit:4;stroke-dasharray:none"
         transform="matrix(2.0501487,0.01814899,-0.01638898,1.8872272,-1238.0295,-821.06675)">
        <path
           inkscape:connector-curvature="0"
           sodipodi:nodetypes="csscsssssscsscsssssssc"
           id="path2777"
           d="m 572.30713,281.30691 c 0,0 1.33154,-1.14919 3.53086,-1.81005 2.50642,-0.75313 6.13089,-0.88613 8.68206,-0.32645 2.1437,0.47029 5.03104,2.21986 5.03104,2.21986 0,0 2.75886,-2.9466 4.13387,-3.86953 2.37347,-1.59312 5.48135,-1.45756 8.21118,-0.73807 2.44372,0.64407 7.08918,2.59595 9.11227,4.17544 3.19607,2.49526 7.55391,3.2662 10.06375,6.51645 1.9155,2.48057 3.20142,4.84198 5.25001,8.20251 1.16835,1.91657 3.39681,7.0288 4.36786,8.53843 2.70914,4.21179 4.91374,11.65594 4.91374,11.65594 0,0 -5.23379,2.45668 -8.17438,3.11601 -2.34346,0.52546 -4.17584,0.61757 -6.40637,-0.3018 -1.4417,-0.59423 -4.32352,-3.26466 -4.32352,-3.26466 0,0 -3.65284,3.43783 -5.31854,3.94457 -2.30189,0.70028 -6.19233,0.58804 -8.54418,0.10831 -2.30838,-0.47085 -5.11473,-1.20871 -7.05389,-2.60782 -3.64646,-2.63091 -6.00689,-5.14742 -8.74631,-8.7996 -1.49741,-1.99633 -3.44936,-6.76691 -5.20795,-10.18065 -1.2025,-2.3343 -2.5512,-5.94125 -3.5779,-7.304 -1.95732,-2.59794 -1.22007,-3.4382 -3.40475,-5.82687 -0.71501,-0.78177 -2.53885,-3.44802 -2.53885,-3.44802 z"
           style="fill:#000000;fill-opacity:1;fill-rule:evenodd;stroke:none;stroke-width:0.46451947" />
        <path
           inkscape:connector-curvature="0"
           sodipodi:nodetypes="ccsscsssccc"
           id="path2779"
           d="m 630.69003,304.2155 c 2.70914,4.21179 4.91374,11.65594 4.91374,11.65594 0,0 -5.23379,2.45668 -8.17438,3.11601 -2.34346,0.52546 -4.17584,0.61757 -6.40637,-0.3018 -1.4417,-0.59423 -4.32352,-3.26466 -4.32352,-3.26466 0,0 -3.65284,3.43783 -5.31854,3.94457 -2.30189,0.70028 -6.19233,0.58804 -8.54418,0.10831 -2.30838,-0.47085 -5.11473,-1.20871 -7.05389,-2.60782 -3.64646,-2.63091 -6.00689,-5.14742 -8.74631,-8.7996 10.80673,5.81224 18.83137,6.76887 20.23182,-3.83583 12.44733,8.13856 19.09424,6.09714 23.42163,-0.0151 z"
           style="display:inline;opacity:0.06000001;fill:#020000;fill-opacity:1;fill-rule:evenodd;stroke:none;stroke-width:0.32246569" />
        <path
           inkscape:connector-curvature="0"
           sodipodi:nodetypes="cscsscsssccscscc"
           id="path2781"
           d="m 577.07252,288.12233 c -1.95732,-2.59794 0.0341,-0.93704 -2.15053,-3.32571 -0.71501,-0.78177 -2.61486,-3.48971 -2.61486,-3.48971 0,0 1.33154,-1.14919 3.53086,-1.81005 2.50642,-0.75313 6.13089,-0.88613 8.68206,-0.32645 2.1437,0.47029 5.03104,2.21986 5.03104,2.21986 0,0 2.75886,-2.9466 4.13387,-3.86953 2.37347,-1.59312 5.48135,-1.45756 8.21118,-0.73807 2.44372,0.64407 7.08918,2.59595 9.11227,4.17544 3.19607,2.49526 7.55391,3.2662 10.06375,6.51645 l 2.04031,3.60347 c 0,0 -7.55225,-3.08677 -13.35276,-3.69998 -3.17887,-0.33607 -10.30891,2.63246 -10.21543,2.86616 0,0 -9.4222,-3.98597 -14.2626,-3.3424 -2.9391,0.39077 -7.18298,3.13807 -7.18298,3.13807 z"
           style="display:inline;opacity:0.07999998;fill:#feffff;fill-opacity:1;fill-rule:evenodd;stroke:none;stroke-width:0.32246569" />
        <path
           inkscape:connector-curvature="0"
           sodipodi:nodetypes="ccccccccccc"
           transform="translate(501.69748,275.56943)"
           id="path2783"
           d="M 73.679396,9.9946656 70.518623,5.6484376 73.504112,4.2154025 79.963173,3.311134 87.972409,5.6363959 92.36457,1.7609594 96.240006,0.33996603 104.63679,2.4068655 115.10046,8.4783827 C 107.51555,7.3013934 98.057187,0.67436471 93.914745,9.5118324 85.225876,7.5993116 80.681279,2.1751151 73.679396,9.9946656 Z"
           style="opacity:0.06000001;fill:#ffffff;fill-opacity:1;stroke:none;stroke-width:0.32246569" />
        <path
           inkscape:connector-curvature="0"
           sodipodi:nodetypes="cccccccccc"
           transform="translate(501.69748,275.56943)"
           id="path2785"
           d="m 93.139657,40.386143 6.717424,3.358712 9.171869,0.516725 5.94233,-4.521343 5.16725,3.617074 4.77971,0.516725 9.43023,-3.358712 -2.84199,-5.942336 c -4.06406,4.121306 -9.83632,5.994991 -20.41063,1.550175 -4.37438,5.649914 -10.84437,5.798848 -17.956193,4.26298 z"
           style="opacity:0.07999998;fill:#000000;fill-opacity:1;stroke:none;stroke-width:0.32246569" />
        <path
           inkscape:connector-curvature="0"
           id="path2787"
           d="m 590.41087,280.45372 -1.78629,1.11698 c 0,0 1.5285,1.03319 3.20889,2.20194 1.52587,1.0613 3.17825,2.25467 3.92439,2.92392 1.63019,1.46221 6.09446,6.80872 6.09446,6.80872 0,0 -1.09688,-2.31917 -2.47904,-4.66744 -0.92431,-1.57038 -2.3176,-3.25018 -3.16949,-4.01429 -2.06341,-1.85079 -5.79292,-4.36983 -5.79292,-4.36983 z m 15.87265,21.41531 c 0,0 0.48262,2.29505 1.88404,4.94602 1.15838,2.19124 3.65377,4.81979 4.62993,5.86462 1.36816,1.46443 3.4534,3.42181 3.4534,3.42181 l 1.47197,-0.71214 c 0,0 -4.94811,-4.86905 -5.94214,-5.93302 -1.78298,-1.90842 -5.4972,-7.58729 -5.4972,-7.58729 z"
           style="fill:#000000;fill-opacity:1;fill-rule:evenodd;stroke:none;stroke-width:0.46451947" />
        <path
           inkscape:connector-curvature="0"
           sodipodi:nodetypes="csscsssssscsscsscc"
           id="path2789"
           d="m 572.30713,281.30691 c 0,0 1.33154,-1.14919 3.53086,-1.81005 2.50642,-0.75313 6.13089,-0.88613 8.68206,-0.32645 2.1437,0.47029 5.03104,2.21986 5.03104,2.21986 0,0 2.75886,-2.9466 4.13387,-3.86953 2.37347,-1.59312 5.48135,-1.45756 8.21118,-0.73807 2.44372,0.64407 7.08918,2.59595 9.11227,4.17544 3.19607,2.49526 7.55391,3.2662 10.06375,6.51645 1.9155,2.48057 3.20142,4.84198 5.25001,8.20251 1.16835,1.91657 3.39681,7.0288 4.36786,8.53843 2.70914,4.21179 4.91374,11.65594 4.91374,11.65594 0,0 -5.23379,2.45668 -8.17438,3.11601 -2.34346,0.52546 -4.17584,0.61757 -6.40637,-0.3018 -1.4417,-0.59423 -4.32352,-3.26466 -4.32352,-3.26466 0,0 -3.65284,3.43783 -5.31854,3.94457 -2.30189,0.70028 -6.19233,0.58804 -8.54418,0.10831 -2.30838,-0.47085 -5.11473,-1.20871 -7.05389,-2.60782 -12.34471,-8.48692 -14.63445,-25.46573 -23.47576,-35.55914 z"
           style="display:inline;fill:none;stroke:#000000;stroke-width:1.39355838;stroke-linecap:butt;stroke-linejoin:miter;stroke-miterlimit:4;stroke-dasharray:none;stroke-opacity:1" />
      </g>
      <g
         id="g3003"
         style="stroke-width:0.46451947;stroke-miterlimit:4;stroke-dasharray:none"
         transform="matrix(2.0090853,-0.41260953,0.37259663,1.8494271,-1423.0475,-517.04405)">
        <path
           inkscape:connector-curvature="0"
           id="path2985"
           d="m 707.90816,321.882 c 0,0 11.60975,7.65504 17.3455,8.63628 3.04856,0.52154 7.33764,-0.2483 10.32346,-1.24696 2.41657,-0.80826 5.09444,-2.61708 6.93819,-4.45859 2.42157,-2.4186 5.39658,-6.19587 6.56362,-9.44763 1.19836,-3.33898 1.60148,-8.7407 1.35393,-12.24762 -0.27032,-3.8294 -1.71417,-7.58763 -4.00266,-10.535 -2.56276,-3.3006 -7.69107,-6.47039 -11.76476,-7.14111 -3.29485,-0.5425 -7.45981,-0.28346 -10.55819,1.16046 -1.006,0.46883 -2.97024,2.27282 -2.97024,2.27282 0,0 -2.69621,-3.60337 -4.16253,-4.62048 -1.36075,-0.9439 -2.65413,-1.82603 -4.27768,-2.13744 -2.17045,-0.41633 -5.24231,-0.85557 -7.39162,-0.1982 -2.35331,0.71977 -5.47031,3.60578 -7.47823,5.10143 -2.07553,1.546 -6.77408,5.36089 -6.77408,5.36089 z"
           style="fill:#000000;fill-opacity:1;fill-rule:evenodd;stroke:none;stroke-width:0.46451947" />
        <path
           inkscape:connector-curvature="0"
           sodipodi:nodetypes="ccssscccccccccccccc"
           transform="translate(501.69748,275.56943)"
           id="path2987"
           d="m 191.09992,14.702895 c 6.62785,1.058186 20.03929,-2.766043 24.30321,9.849193 0,0 1.40535,6.620131 3.83734,8.570077 2.88639,2.314289 5.12693,3.64004 8.8259,3.709436 2.59341,0.04866 6.31324,-2.195121 7.54678,-4.476905 2.21088,-4.089668 -1.91867,-11.384132 -1.91867,-11.384132 4.28,-4.129697 12.56645,6.459367 15.09357,11.256219 l -0.12791,-6.395579 -1.53494,-4.732729 -2.81406,-4.86064 -3.96526,-3.581525 -5.37228,-2.8140551 -6.13976,-0.1279116 -6.26767,1.1512047 -3.06988,2.174497 -6.6514,-6.0118452 -6.26767,-1.0232927 -4.22108,0.639558 z"
           style="opacity:0.07999998;fill:#ffffff;fill-opacity:1;stroke:none;stroke-width:0.46451947" />
        <path
           inkscape:connector-curvature="0"
           sodipodi:nodetypes="csssssssccccc"
           id="path2989"
           d="m 710.27134,281.50003 8.49948,12.20214 c 2.01175,2.88813 1.15391,5.49514 2.73025,8.64213 1.03213,2.06051 1.67856,3.69976 3.48675,5.12855 1.4067,1.11154 1.69997,1.20002 3.47821,1.42842 1.39729,0.17947 3.61526,-0.51997 4.78787,-1.30075 1.33016,-0.88568 1.70759,-2.05175 1.88617,-3.63979 0.12987,-1.15487 0.0274,-1.33371 -0.4995,-2.36954 -0.58733,-1.15454 -2.32503,-3.11377 -2.32503,-3.11377 l -8.34324,-1.85896 -3.63617,-8.97911 -4.40881,-4.05522 z"
           style="opacity:0.03999999;fill:#ffffff;fill-opacity:1;stroke:none;stroke-width:0.46451947" />
        <path
           inkscape:connector-curvature="0"
           sodipodi:nodetypes="cssscsssscscc"
           id="path2991"
           d="m 750.43287,303.11748 c -0.27032,-3.8294 -1.71418,-7.58763 -4.00268,-10.53501 -2.56276,-3.3006 -7.69106,-6.47038 -11.76475,-7.1411 -3.29485,-0.54251 -7.45982,-0.28347 -10.5582,1.16046 -1.00599,0.46883 -2.97024,2.27281 -2.97024,2.27281 0,0 -2.69621,-3.60336 -4.16252,-4.62047 -1.36076,-0.9439 -2.65413,-1.82603 -4.27769,-2.13745 -2.17045,-0.41632 -5.2423,-0.85556 -7.39161,-0.19819 -2.35332,0.71977 -5.47032,3.60577 -7.47823,5.10143 -2.07554,1.546 -6.77408,5.36089 -6.77408,5.36089 5.14779,-5.88463 13.56785,-9.86394 22.5192,-5.75923 3.58404,1.64349 6.27182,5.252 9.70117,6.86964 15.4169,-15.79591 29.34325,15.34155 27.15963,9.62622 z"
           style="display:inline;opacity:0.06000001;fill:#ffffff;fill-opacity:1;fill-rule:evenodd;stroke:none;stroke-width:0.46451947" />
        <path
           inkscape:connector-curvature="0"
           sodipodi:nodetypes="ccccccscc"
           id="path2993"
           d="m 723.93209,296.25641 1.60076,6.4929 2.43769,2.80805 4.76305,-0.6756 1.25531,-3.87793 -1.82623,-2.58274 c 0,0 -1.60265,-1.74967 -2.66299,-2.19659 -0.8253,-0.34785 -2.67114,-0.28978 -2.67114,-0.28978 z"
           style="opacity:0.07999998;fill:#000000;fill-opacity:1;stroke:none;stroke-width:0.32246569" />
        <path
           inkscape:connector-curvature="0"
           style="fill:#000000;fill-opacity:1;fill-rule:evenodd;stroke:none;stroke-width:0.46451947"
           d="m 727.28457,305.92928 c 0.75014,0.36113 1.65197,0.5356 2.56464,0.53001 0.91266,-0.006 1.84485,-0.17758 2.63968,-0.68734 0.76941,-0.49347 1.24704,-1.26613 1.57707,-2.08362 0.33001,-0.8175 0.49135,-1.68627 0.40775,-2.51449 -0.12154,-1.2039 -0.67702,-1.78797 -1.3346,-2.46552 -0.24279,-0.25015 -0.62794,-0.66438 -1.03686,-0.92435 -0.69863,-0.44415 -1.65803,-0.86885 -1.65803,-0.86885 0,0 0.56402,0.72373 0.95099,1.43619 0.25345,0.46664 1.08827,1.21332 1.21123,1.50127 0.33767,0.79081 0.55421,1.39202 0.47058,1.98708 -0.0606,0.43155 -0.34725,0.83479 -0.53174,1.42574 -0.17656,0.56649 -0.9119,1.02705 -1.12948,1.16659 -0.31969,0.20504 -1.06197,0.4219 -1.73258,0.42599 -0.67062,0.004 -1.34733,-0.44914 -1.75303,-0.64488 -1.13601,-0.54681 -1.6554,-2.30622 -2.26272,-3.83613 -0.2453,-0.61797 -0.42468,-1.8141 -0.44911,-2.89794 -0.0244,-1.08383 -0.59225,-2.47092 -0.87697,-3.55577 -0.25164,-0.95878 -0.81947,-2.28293 -1.34547,-3.44446 -0.52599,-1.16153 -1.00438,-2.11746 -1.00438,-2.11746 l -1.7404,0.0128 c 0,0 0.80728,1.95679 1.3188,3.08636 0.51152,1.12959 1.08139,2.51234 1.2478,3.14637 0.18245,0.69518 0.78189,1.95533 0.80704,3.07132 0.0252,1.11598 0.0453,2.30361 0.4748,3.38574 0.72062,1.81536 1.16511,3.89268 3.1848,4.86484 l -5e-5,1.3e-4 z"
           id="path2995"
           sodipodi:nodetypes="csssssscsssssssssssccsssscc" />
        <path
           inkscape:connector-curvature="0"
           sodipodi:nodetypes="csssccc"
           id="path2997"
           d="m 707.90815,321.882 c 0,0 11.60975,7.65503 17.3455,8.63628 3.04857,0.52154 7.33765,-0.2483 10.32347,-1.24696 2.41657,-0.80826 5.09444,-2.61708 6.93819,-4.45859 2.42157,-2.4186 5.97282,-7.63648 7.13986,-10.88824 -17.63442,12.10057 -35.14146,1.03115 -50.50477,-7.08228 z"
           style="display:inline;opacity:0.06000001;fill:#000000;fill-opacity:1;fill-rule:evenodd;stroke:none;stroke-width:0.46451947" />
        <path
           inkscape:connector-curvature="0"
           sodipodi:nodetypes="ccccccc"
           transform="translate(501.69748,275.56943)"
           id="path2999"
           d="m 201.3969,38.282722 c 13.19166,7.61103 27.65254,15.240472 41.63355,8.931765 l -4.32182,4.0337 -5.90649,2.881214 -8.7008,0.740795 -17.95044,-8.520074 z"
           style="opacity:0.07999998;fill:#000000;fill-opacity:1;stroke:none;stroke-width:0.46451947" />
        <path
           sodipodi:nodetypes="ccccccsccccccccc"
           inkscape:connector-curvature="0"
           id="path3001"
           d="m 707.90816,321.882 c 0,0 11.6801,7.00847 17.41585,7.98971 3.04855,0.52154 7.26729,0.39827 10.25311,-0.60039 2.41657,-0.80826 5.09444,-2.61708 6.93819,-4.45859 2.42157,-2.4186 5.39658,-6.19587 6.56362,-9.44763 1.19836,-3.33898 1.60148,-8.7407 1.35393,-12.24762 -0.27032,-3.8294 -1.71417,-7.58763 -4.00266,-10.535 -2.56276,-3.3006 -7.69108,-6.4704 -11.76477,-7.14112 -3.29484,-0.5425 -7.45981,-0.28346 -10.55818,1.16047 -1.00601,0.46882 -2.97025,2.27281 -2.97025,2.27281 0,0 -2.69621,-3.60336 -4.16253,-4.62047 -1.36074,-0.9439 -2.65413,-1.82604 -4.27767,-2.13744 -2.17045,-0.41633 -5.24231,-0.85557 -7.39163,-0.1982 -2.3533,0.71977 -5.4703,3.60578 -7.47823,5.10142 -2.07553,1.54601 -6.77408,5.3609 -6.77408,5.3609 z"
           style="display:inline;fill:none;stroke:#000000;stroke-width:1.39355838;stroke-linecap:butt;stroke-linejoin:miter;stroke-miterlimit:4;stroke-dasharray:none;stroke-opacity:1" />
      </g>
      <g
         transform="matrix(2.0501487,0.01814899,-0.01638898,1.8872272,-1157.9746,-820.3581)"
         style="stroke-width:0.46451947;stroke-miterlimit:4;stroke-dasharray:none"
         id="g2775">
        <path
           style="fill:#fcef3c;fill-opacity:1;fill-rule:evenodd;stroke:none;stroke-width:0.46451947"
           d="m 572.30713,281.30691 c 0,0 1.33154,-1.14919 3.53086,-1.81005 2.50642,-0.75313 6.13089,-0.88613 8.68206,-0.32645 2.1437,0.47029 5.03104,2.21986 5.03104,2.21986 0,0 2.75886,-2.9466 4.13387,-3.86953 2.37347,-1.59312 5.48135,-1.45756 8.21118,-0.73807 2.44372,0.64407 5.64493,3.01281 7.66802,4.5923 10.75318,15.57175 12.15524,30.34778 22.7441,35.93568 -1.61251,0.66163 -3.49839,1.36727 -4.87887,1.6768 -2.34346,0.52544 -4.17584,0.61757 -6.40637,-0.3018 -1.4417,-0.59423 -4.32352,-3.26466 -4.32352,-3.26466 0,0 -3.65284,3.43783 -5.31854,3.94457 -2.30189,0.70028 -6.19233,0.58804 -8.54418,0.10831 -2.30838,-0.47085 -5.11473,-1.20871 -7.05389,-2.60782 -3.64646,-2.63091 -6.00689,-5.14742 -8.74631,-8.7996 -1.49741,-1.99633 -3.44936,-6.76691 -5.20795,-10.18065 -1.2025,-2.3343 -2.5512,-5.94125 -3.5779,-7.304 -1.95732,-2.59794 -1.22007,-3.4382 -3.40475,-5.82687 -0.71501,-0.78177 -2.53885,-3.44802 -2.53885,-3.44802 z"
           id="path2761"
           sodipodi:nodetypes="csscssccsscsssssssc"
           inkscape:connector-curvature="0" />
        <path
           style="display:inline;opacity:0.06000001;fill:#000000;fill-opacity:1;fill-rule:evenodd;stroke:none;stroke-width:0.46451947"
           d="m 632.66772,317.16205 c -1.68494,0.70165 -3.75385,1.49255 -5.23833,1.8254 -2.34346,0.52544 -4.17584,0.61757 -6.40637,-0.3018 -1.4417,-0.59423 -4.32352,-3.26466 -4.32352,-3.26466 0,0 -3.65284,3.43783 -5.31854,3.94457 -2.30189,0.70028 -6.19233,0.58804 -8.54418,0.10831 -2.30838,-0.47085 -5.11473,-1.20871 -7.05389,-2.60782 -3.64646,-2.63091 -6.00689,-5.14742 -8.74631,-8.7996 10.80673,5.81224 18.83137,6.76887 20.23182,-3.83583 7.66076,5.00891 12.74434,6.24518 16.82238,4.96626 2.20032,2.77546 2.99952,5.80705 8.57694,7.96517 z"
           id="path2763"
           sodipodi:nodetypes="csscssscccc"
           inkscape:connector-curvature="0" />
        <path
           style="display:inline;opacity:0.06000001;fill:#fdffff;fill-opacity:1;fill-rule:evenodd;stroke:none;stroke-width:0.46451947"
           d="m 577.07252,288.12233 c -1.95732,-2.59794 0.0341,-0.93704 -2.15053,-3.32571 -0.71501,-0.78177 -2.61486,-3.48971 -2.61486,-3.48971 0,0 1.33154,-1.14919 3.53086,-1.81005 2.50642,-0.75313 6.13089,-0.88613 8.68206,-0.32645 2.1437,0.47029 5.03104,2.21986 5.03104,2.21986 0,0 2.75886,-2.9466 4.13387,-3.86953 2.37347,-1.59312 5.48135,-1.45756 8.21118,-0.73807 2.44372,0.64407 4.42872,1.67886 6.45181,3.25835 l 5.351,8.03134 c -1.33212,-0.31036 -2.67714,-0.56089 -3.93924,-0.69431 -3.17887,-0.33606 -10.30891,2.63246 -10.21543,2.86616 0,0 -9.4222,-3.98597 -14.2626,-3.3424 -2.9391,0.39077 -7.18298,3.13807 -7.18298,3.13807 z"
           id="path2765"
           sodipodi:nodetypes="cscsscssccscscc"
           inkscape:connector-curvature="0" />
        <path
           style="opacity:0.07999998;fill:#ffffff;fill-opacity:1;stroke:none;stroke-width:0.46451947"
           d="m 73.679396,9.9946656 -3.160773,-4.346228 2.985489,-1.4330351 6.459061,-0.9042685 8.009236,2.3252619 4.392161,-3.8754365 3.875436,-1.42099337 8.396784,2.06689947 3.39793,3.9839801 C 102.52673,4.6577733 96.748698,3.4658898 93.914745,9.5118324 85.225876,7.5993116 80.681279,2.1751151 73.679396,9.9946656 Z"
           id="path2767"
           transform="translate(501.69748,275.56943)"
           sodipodi:nodetypes="ccccccccccc"
           inkscape:connector-curvature="0" />
        <path
           style="opacity:0.07999998;fill:#000000;fill-opacity:1;stroke:none;stroke-width:0.46451947"
           d="m 93.139657,40.386143 6.717424,3.358712 9.171869,0.516725 5.94233,-4.521343 5.16725,3.617074 4.77971,0.516725 5.54997,-1.976702 -4.19572,-3.924609 c -3.64032,1.250013 -8.43153,0.985683 -15.17664,-1.849562 -4.37438,5.649914 -10.84437,5.798848 -17.956193,4.26298 z"
           id="path2769"
           transform="translate(501.69748,275.56943)"
           sodipodi:nodetypes="cccccccccc"
           inkscape:connector-curvature="0" />
        <path
           style="fill:#000000;fill-opacity:1;fill-rule:evenodd;stroke:none;stroke-width:0.46451947"
           d="m 590.41087,280.45372 -1.78629,1.11698 c 0,0 1.5285,1.03319 3.20889,2.20194 1.52587,1.0613 3.17825,2.25467 3.92439,2.92392 1.63019,1.46221 6.09446,6.80872 6.09446,6.80872 0,0 -1.09688,-2.31917 -2.47904,-4.66744 -0.92431,-1.57038 -2.3176,-3.25018 -3.16949,-4.01429 -2.06341,-1.85079 -5.79292,-4.36983 -5.79292,-4.36983 z m 15.87265,21.41531 c 0,0 0.48262,2.29505 1.88404,4.94602 1.15838,2.19124 3.65377,4.81979 4.62993,5.86462 1.36816,1.46443 3.4534,3.42181 3.4534,3.42181 l 1.47197,-0.71214 c 0,0 -4.94811,-4.86905 -5.94214,-5.93302 -1.78298,-1.90842 -5.4972,-7.58729 -5.4972,-7.58729 z"
           id="path2771"
           inkscape:connector-curvature="0" />
        <path
           style="display:inline;fill:none;stroke:#000000;stroke-width:1.3935585;stroke-linecap:butt;stroke-linejoin:miter;stroke-miterlimit:4;stroke-dasharray:none;stroke-opacity:1"
           d="m 572.30713,281.30691 c 0,0 1.33154,-1.14919 3.53086,-1.81005 2.50642,-0.75313 6.13089,-0.88613 8.68206,-0.32645 2.1437,0.47029 5.03104,2.21986 5.03104,2.21986 0,0 2.75886,-2.9466 4.13387,-3.86953 2.37347,-1.59312 5.48135,-1.45755 8.21118,-0.73807 1.18092,0.31125 2.87601,0.9279 4.54086,1.66036 12.22479,10.07589 13.32075,32.88054 26.16036,38.74828 -1.67189,0.69426 -3.70408,1.46791 -5.16797,1.79614 -2.34346,0.52544 -4.17584,0.61757 -6.40637,-0.3018 -1.4417,-0.59423 -4.32352,-3.26466 -4.32352,-3.26466 0,0 -3.65284,3.43783 -5.31854,3.94457 -2.30189,0.70028 -6.19233,0.58804 -8.54418,0.10831 -2.30838,-0.47085 -5.11473,-1.20871 -7.05389,-2.60782 -12.34471,-8.48692 -14.63445,-25.46573 -23.47576,-35.55914 z"
           id="path2773"
           sodipodi:nodetypes="csscssccsscsscc"
           inkscape:connector-curvature="0" />
      </g>
    </g>
    <g
       id="g204">
      <path
         inkscape:connector-curvature="0"
         style="fill:#000000;fill-opacity:1;fill-rule:evenodd;stroke:#313131;stroke-width:3;stroke-linecap:butt;stroke-linejoin:miter;stroke-miterlimit:4;stroke-dasharray:none;stroke-opacity:1"
         d="m -108.29825,-504.01987 c 10.071987,-2.11217 14.389787,1.27071 16.248067,9.09893 l 9.82744,-14.36811 -4.41943,-11.56863 -12.47854,1.81978 z"
         id="path2241-1"
         sodipodi:nodetypes="cccccc" />
      <path
         id="path2210-3"
         transform="translate(-300.13245,-677.0564)"
         d="M 223.81641 3.0351562 C 226.55324 13.437071 224.81888 24.568176 228.26953 34.027344 C 222.43074 39.784367 216.40886 51.045781 213.07812 50.746094 C 201.76032 57.39362 203.28635 73.993796 210.55469 80.144531 C 199.28458 106.94696 188.65902 137.77415 175.23242 161.9707 C 165.82448 176.36447 183.69164 186.63455 193.83398 185.81055 C 192.06554 165.27815 200.19838 157.81682 212.79883 160.16406 C 218.86109 171.1616 210.56843 177.53268 203.58789 185.26953 C 210.61384 186.1169 215.94848 185.29843 221.28711 172.62695 C 221.54208 159.42245 228.42521 156.02928 234.29102 150.77344 C 243.94375 143.24915 249.83469 137.38653 252.17188 125.12695 C 264.74347 127.47268 275.5139 127.22566 285.22266 115.73438 C 284.09371 118.04457 288.73485 123.956 293.16992 120.43164 C 290.87806 123.81884 291.73432 128.24064 297.14258 128.55859 C 293.70451 141.07438 287.03395 150.35557 277.81836 157.09375 C 258.92519 171.0803 228.061 183.84105 223.0332 227.9043 C 190.08783 248.11739 207.62609 256.2379 192.54297 266.13477 C 180.19247 274.2386 168.2166 278.97532 166.95898 288.79492 C 188.49438 270.92692 240.96593 306.15945 267.08008 260.64062 C 274.09726 276.0992 281.82174 292.57375 284.46289 332.86719 C 297.7318 316.12077 335.37287 310.61473 346.33984 262.37305 C 366.09091 285.23805 429.27823 294.39882 433.55664 246.86133 C 398.96473 261.89072 388.79953 233.69341 382.75391 217.69922 C 389.07811 204.50266 390.00617 200.49203 385.5 181.77539 L 387.62891 126.21094 C 387.51524 110.68605 391.80991 93.106923 380.04297 84.851562 C 383.72868 70.213894 378.2421 59.8336 368.48438 51.4375 C 370.9087 31.87746 354.05616 23.694436 338.32227 25.972656 C 324.64661 16.613146 311.61684 3.056493 294.25391 17.664062 C 283.46468 13.004203 251.88977 7.0507898 248.19922 30.849609 C 245.94171 19.536649 237.14282 10.498086 223.81641 3.0351562 z "
         style="fill:#000000;fill-opacity:1;fill-rule:evenodd;stroke:#313131;stroke-width:3;stroke-linecap:butt;stroke-linejoin:miter;stroke-miterlimit:4;stroke-dasharray:none;stroke-opacity:1" />
      <path
         inkscape:connector-curvature="0"
         style="fill:#000000;fill-opacity:1;fill-rule:evenodd;stroke:#313131;stroke-width:3;stroke-linecap:butt;stroke-linejoin:miter;stroke-miterlimit:4;stroke-dasharray:none;stroke-opacity:1"
         d="m -63.319273,-603.84111 c -16.50407,-0.92735 -14.038,9.30667 -14.4796,16.41019 6.85413,0.75203 15.52558,-6.6692 14.4796,-16.41019 z"
         id="path2222-5"
         sodipodi:nodetypes="ccc" />
      <path
         inkscape:connector-curvature="0"
         style="fill:#000000;fill-opacity:0.98578198;fill-rule:evenodd;stroke:#313131;stroke-width:3;stroke-miterlimit:4;stroke-dasharray:none"
         d="m -76.949083,-592.65526 c 1.7174,6.232 8.7381,2.46519 9.00556,-2.00581 -2.28571,-3.35733 -7.52194,-4.13634 -9.00556,2.00581 z"
         id="path2218-4"
         sodipodi:nodetypes="ccc" />
      <path
         transform="translate(-300.13245,-677.0564)"
         d="m 236.39453,45.591797 c -8.60515,-0.06497 -12.7774,4.74465 -13.90234,12.457031 -0.58207,0.144145 -1.16097,0.283334 -1.7461,0.433594 -5.89275,6.96942 -7.46046,13.071267 -10.09816,21.435707 m 17.6216,-45.890785 c 1.93843,5.372285 5.49547,10.118861 11.82419,13.788271 -2.01222,10.890525 -14.60774,10.997165 -17.74684,19.046885 -0.26245,-3.12833 -0.20595,-6.24502 0.14531,-8.81367 m -19.73155,115.53547 9.74359,-13.43085 m 151.07004,-67.2736 0.23382,30.39884 m 16.83629,-39.51848 c -1.26007,5.01779 -2.39774,10.1274 -6.07976,13.32871 m 5.61207,-14.03022 c -0.62355,1.40301 -1.2471,2.80604 0,0 z m -27.35896,29.22964 c -2.96745,6.09888 -9.08569,10.39731 -8.18428,18.70698 M 371.99241,83.0587 c -5.93519,14.56455 -11.9212,29.07827 -21.51302,39.98615 m 25.95594,32.26953 -0.23387,-48.40429 c 7.53227,5.92576 8.01726,39.33607 9.58734,68.5143 m -15.1994,-34.84175 -0.23387,15.43326 m 1.63688,-51.44419 0.46764,46.29977 m -19.17463,-64.53907 -0.23382,28.52814 m 13.3287,-47.46896 v 25.25443 m 5.61211,-27.5928 0.70151,34.60791 m -4.2091,-47.70279 -15.66709,-15.43326 c 7.6379,4.73356 12.38314,13.59946 15.66709,24.55291 m -4.91055,2.80605 C 355.43062,56.0898 345.83646,33.09423 338.5537,26.23625 c 22.2522,21.18318 18.96128,66.66046 -0.46769,98.21162 M 325.45882,29.04231 c 18.92381,13.56255 12.17797,27.1251 15.43322,40.68766 m 12.2115,51.05055 -0.17258,20.01429 m 12.94029,-23.11995 0.17252,48.48288 m -6.38383,-40.02857 0.17253,38.99334 m -32.6095,-68.32462 0.69015,17.42623 m -0.51763,-17.94383 c -0.17252,0.92019 -0.34505,1.84039 0,0 z m 2.5881,-13.1128 0.17253,12.76772 m -31.91935,-23.98263 -0.17253,9.48953 m 25.88052,-14.66564 -0.34505,20.87697 c 0.69298,-13.28456 15.25524,-21.15412 1.55284,-49.00048 14.79145,10.4306 22.41015,48.31263 8.62682,58.83508 l 0.0975,17.13867 m -16.66104,-41.81143 -0.17253,22.9474 m 2.243,-53.14138 0.17252,30.19398 m 4.48594,-37.7856 c -4.90164,-9.22509 -11.60441,-13.72221 -20.18679,-13.28534 6.74998,0.70148 13.20026,-0.39526 20.35937,2.7606 m -18.49072,60.31188 c 0.9727,-45.1224 1.27824,-55.7156 -12.21212,-67.33034 8.09653,2.74159 15.55289,7.80388 20.00555,23.75453 M 268.32358,23.66272 c 16.96219,6.21178 11.24498,17.75991 11.96641,27.79306 m 16.59867,76.81694 14.28255,-14.66856 m -18.00125,6.82675 c 5.01092,-9.268 14.34374,-17.34083 23.40546,-24.58343 m 68.71061,86.46731 c -3.44449,-0.62314 -8.55534,-2.58087 -9.09183,-12.14776 l 0.59953,8.67363 c -3.47416,-1.64793 -6.94828,-3.85476 -10.4224,-11.58044 l -1.15808,5.40421 c -2.52106,0.072 -4.68234,-2.01498 -6.17623,-8.10632 -3.38597,2.42147 -5.07816,-0.25111 -6.17622,-3.77826 l -21.01732,25.69045 -0.15616,-0.25916 21.18064,-25.26581 -0.007,-21.47818 c -1.54406,5.27095 -3.08813,12.55951 -4.63215,10.03639 -4.73179,-0.10794 -5.17722,-7.41743 -3.86015,-16.59864 l -3.08813,4.24617 c -4.1042,0.65224 -3.25989,-7.3554 -3.47412,-13.51052 -4.40199,2.62766 -3.70906,-4.93444 -4.24617,-10.03639 -5.18882,-0.27338 -10.05927,8.36691 -16.21265,-18.91473 -3.86014,0.18414 -7.72029,3.47797 -11.58043,-10.03638 -4.38518,2.53497 -7.81111,2.67179 -8.10632,-5.01819 -2.31608,4.47948 -4.63216,0.41065 -6.94824,-3.08812 1.50085,-24.27573 1.09675,-47.41851 -12.73852,-59.06026 17.79335,9.75009 24.53958,23.83323 22.77489,49.02388 M 275.60268,47.31203 c 18.02591,11.45143 23.6405,43.19638 9.87885,68.63185 M 249.34578,30.93397 c 14.00751,-1.74312 18.31293,7.29109 17.15801,21.0575 -3.30232,-8.46832 -17.07021,-8.14597 -17.15801,-21.0575 z m 5.97934,-0.25997 c 9.7186,2.13461 21.41787,1.91719 20.53755,16.63803 C 266.69761,45.82464 262.03154,36.46402 255.32512,30.674 Z m -3.3796,94.10883 c -4.04544,-2.23435 -7.82563,-2.61224 -11.17872,0 -6.08696,5.13448 -19.00293,19.39505 -21.31745,27.55673 m 16.6069,-95.60196 c -1.2739,4.68857 2.23408,4.9937 5.75088,5.29078 2.76915,-0.17924 3.16161,2.75265 1.94413,8.55335 -3.90244,11.94543 -9.83656,20.54455 -18.6515,24.39878 -12.30733,10.20993 -23.61522,21.3849 -27.65193,39.58025 m -20.37346,32.20709 c 1.03989,-4.01693 5.45937,-5.60257 8.44899,-0.51993 1.94437,2.83258 1.5446,5.70995 1.42986,9.2289 -2.95697,-9.29491 -7.44267,-4.47819 -10.13883,-6.7592 z M 231.09522,17.4153 c 4.08203,4.08824 8.52324,3.21763 12.17422,16.23232 l 3.87364,8.11616 -0.36893,2.02904 C 236.88264,38.32154 236.77296,28.15724 231.64861,20.55109 Z"
         style="fill:none;fill-opacity:0.98461537;fill-rule:evenodd;stroke:#313131;stroke-width:3;stroke-linecap:butt;stroke-linejoin:miter;stroke-miterlimit:4;stroke-dasharray:none;stroke-opacity:1"
         id="path193" />
    </g>
  </g>
</svg>
