<?xml version="1.0" encoding="UTF-8" standalone="no"?>
<!-- Created with Inkscape (http://www.inkscape.org/) -->

<svg
   xmlns:dc="http://purl.org/dc/elements/1.1/"
   xmlns:cc="http://creativecommons.org/ns#"
   xmlns:rdf="http://www.w3.org/1999/02/22-rdf-syntax-ns#"
   xmlns:svg="http://www.w3.org/2000/svg"
   xmlns="http://www.w3.org/2000/svg"
   xmlns:sodipodi="http://sodipodi.sourceforge.net/DTD/sodipodi-0.dtd"
   xmlns:inkscape="http://www.inkscape.org/namespaces/inkscape"
   id="svg2"
   version="1.1"
   inkscape:version="0.47pre4 r22446"
   width="288.31531"
   height="288.44717"
   sodipodi:docname="WWI11D.svg">
  <metadata
     id="metadata8">
    <rdf:RDF>
      <cc:Work
         rdf:about="">
        <dc:format>image/svg+xml</dc:format>
        <dc:type
           rdf:resource="http://purl.org/dc/dcmitype/StillImage" />
        <dc:title></dc:title>
      </cc:Work>
    </rdf:RDF>
  </metadata>
  <defs
     id="defs6">
    <inkscape:perspective
       sodipodi:type="inkscape:persp3d"
       inkscape:vp_x="0 : 0.5 : 1"
       inkscape:vp_y="0 : 1000 : 0"
       inkscape:vp_z="1 : 0.5 : 1"
       inkscape:persp3d-origin="0.5 : 0.33333333 : 1"
       id="perspective10" />
  </defs>
  <sodipodi:namedview
     pagecolor="#ffffff"
     bordercolor="#666666"
     borderopacity="1"
     objecttolerance="10"
     gridtolerance="10"
     guidetolerance="10"
     inkscape:pageopacity="0"
     inkscape:pageshadow="2"
     inkscape:window-width="1280"
     inkscape:window-height="970"
     id="namedview4"
     showgrid="false"
     inkscape:zoom="1.5733333"
     inkscape:cx="212.4695"
     inkscape:cy="131.25447"
     inkscape:window-x="0"
     inkscape:window-y="0"
     inkscape:window-maximized="1"
     inkscape:current-layer="svg2" />
  <path
     style="fill:#fc4c23;fill-opacity:1"
     d="M 127.3243,287.84186 C 84.717759,282.63938 47.584309,259.84328 23.914459,224.35894 7.3718993,199.55937 -1.1697807,168.87757 0.12911929,138.92172 1.8145393,100.05182 15.364949,69.222149 42.806569,41.822763 71.829729,12.844266 108.05696,-1.4250215 148.70224,0.11225853 c 28.95312,1.09506097 51.5985,8.24333707 74.84092,23.62440247 38.03149,25.167981 61.02363,63.982864 64.32139,108.586109 2.04745,27.69255 -2.87905,53.3247 -14.79942,77 -19.7623,39.25033 -56.56086,67.37635 -100.15698,76.55238 -10.92012,2.29845 -34.52608,3.31692 -45.58385,1.96671 z"
     id="path2855" />
  <path
     style="fill:#3b3366;fill-opacity:1"
     d="m 151.59919,32.599776 c -11.45781,0.428031 -24.01136,3.387095 -30.65625,13.625 -6.91841,7.870135 -15.84152,14.392002 -18.4375,25.0625 -2.962374,9.090003 -12.264754,13.17933 -16.875001,20.9375 -1.22621,5.02831 5.849997,7.04884 5.906247,12.031254 2.39466,7.00959 -6.602387,13.36796 -2.125,19.90625 7.03671,7.76963 20.429074,5.23919 26.843754,13.78125 4.90607,11.29558 -2.90572,24.03563 -12.91512,29.4454 -4.011194,3.92301 -12.637704,5.51858 -11.803634,12.52335 -0.0803,6.09322 1.42366,13.2788 -4.187497,17.46875 -3.27908,4.35748 -9.33132,7.50449 -11.31894,12.17622 -0.0296,5.74899 3.07576,11.67082 1.97519,17.29253 -5.29622,6.74583 -4.27984,15.72586 -4.875,23.78125 4.51065,-2.10852 9.16833,-4.81785 14.03125,-2.4375 8.258397,1.21909 15.463531,-4.3219 20.687501,-9.84375 9.4891,-7.58973 22.74676,-9.13803 30.625,-18.90625 5.91505,-6.00887 17.12113,-6.9631 18.96875,-16.59375 3.74426,-8.7334 14.08772,-11.54243 21.8125,-15.75 10.95546,-5.00553 22.96342,-6.92714 34.59375,-8.8125 4.59235,-3.00657 -0.42001,-8.09334 -0.21875,-12.0625 1.1073,-6.20549 2.86542,-13.56959 -2.5,-18.4375 -4.25128,-6.15264 -5.32307,-14.15341 -2.25,-20.90625 -1.09001,-4.47918 -4.34363,-0.24691 -6.59375,0.71875 -5.01006,1.80526 -9.84878,-2.82343 -8.3125,-7.90625 2.63484,-11.25907 12.20304,-19.57862 14.125,-31.218754 4.51512,-15.070881 -0.36142,-32.268661 -12.59375,-42.1875 C 183.7303,35.616191 167.1489,32.237147 151.59919,32.599776 z"
     id="path3652" />
  <path
     style="fill:#000000;fill-opacity:1"
     d="m 152.22419,27.131026 c -2.95423,0.01356 -5.72083,0.214223 -8.15625,0.59375 -15.1129,2.355144 -19.35578,5.107247 -33.75,21.96875 -3.85,4.509919 -8.08016,9.323752 -9.40625,10.6875 -1.326104,1.363747 -3.351104,5.273945 -4.500004,8.6875 -1.74505,5.184786 -2.94224,6.852501 -7.21875,10.21875 -6.225217,4.900172 -11.855517,13.5081 -10.999997,16.78125 0.32575,1.24626 2.18892,3.25745 4.125,4.500004 3.81484,2.44833 4.52088,5.34749 2.15625,8.78125 -0.74709,1.08488 -1.67699,4.82821 -2.0625,8.3125 -1.07318,9.69941 1.93774,12.74908 16.406247,16.5625 9.861064,2.59904 12.081034,3.69164 13.125004,6.4375 2.93374,7.7163 -3.77566,17.07669 -20.906254,29.1875 -5.739987,4.05799 -6.935347,6.84535 -5.406247,12.5625 0.65454,2.44723 1.1875,5.19732 1.1875,6.125 0,0.92769 -3.80459,5.32239 -8.46875,9.78125 l -8.5,8.125 0.625,6.9375 c 0.33978,3.81807 0.99821,7.70585 1.46875,8.625 0.57992,1.13281 0.0741,3.22682 -1.59375,6.5 -2.05971,4.04218 -2.511,6.48259 -2.71875,14.96875 -0.1788,7.30329 0.12972,10.58842 1.09375,11.75 1.86245,2.24411 6.6043,1.99584 11.15625,-0.5625 2.88914,-1.62379 4.18305,-1.89612 5.1875,-1.0625 0.83943,0.69667 3.507427,0.90785 7.156247,0.53125 5.41228,-0.55859 6.35289,-1.10001 14.093754,-7.71875 6.36428,-5.44171 10.685,-8.12378 18.53125,-11.5625 7.20285,-3.15673 11.74282,-5.8986 15.3125,-9.25 2.79048,-2.61984 5.40069,-4.78125 5.78125,-4.78125 1.08718,0 13.17962,-6.96836 15.125,-8.71875 1.07911,-0.97095 1.75,-3.01769 1.75,-5.34375 0,-4.63455 3.45127,-7.80194 14.40625,-13.21875 9.28432,-4.59074 18.81133,-7.24001 31.3125,-8.71875 15.14207,-1.79113 14.28125,-1.44737 14.28125,-6.09375 0,-2.22506 -0.96529,-6.29403 -2.15625,-9.0625 -1.84687,-4.29316 -1.99397,-5.50124 -1,-8.25 1.7454,-4.82683 1.43137,-7.93857 -1.21875,-11.84375 -1.31478,-1.93742 -3.02893,-5.69818 -3.8125,-8.375 -1.72318,-5.88664 -1.27056,-17.14779 0.018,-19.46875 1.20972,-2.17895 2.03464,-7.17096 -0.5572,-9.33316 -4.6843,-3.90779 -9.03493,-1.2631 -11.62448,6.16526 -0.5752,1.65 -3.00047,1.8483 -3.03177,1.0233 -0.0888,-2.33781 4.09166,-9.58302 7.35169,-13.69915 3.29079,-4.15496 7.86,-16.74923 8.71875,-24.000004 0.79448,-6.708159 -1.44048,-18.494397 -4.875,-25.78125 -3.28991,-6.980061 -12.56927,-16.210432 -21.46875,-21.34375 -7.82773,-4.515119 -24.13584,-7.683766 -36.9375,-7.625 z m 3.65625,7.4375 c 12.68021,0.24392 25.76128,3.743772 34.15625,9.90625 15.7753,11.580138 20.92164,26.478935 15.65625,45.28125 -1.16498,4.160086 -3.59452,9.8125 -5.40625,12.562504 -8.12293,12.32969 -9.9262,18.20715 -7.34375,23.875 1.76947,3.88356 9.33194,5.01529 12.5,1.875 1.6827,-1.66795 1.73682,-1.65623 0.90625,0.25 -2.81988,6.47194 -0.97884,15.58065 4.59375,22.625 2.2725,2.87269 2.46016,4.98431 1.09375,12.15625 -0.67345,3.53479 -0.55862,5.45496 0.4375,7.375 2.06306,3.97654 1.72268,6.33975 -0.90625,6.34375 -1.2375,0.002 -6.93621,0.91464 -12.6875,2.03125 -11.58736,2.24969 -25.23028,7.74551 -35,14.09375 -5.8968,3.83166 -6.67323,4.86469 -9.875,13.03125 -0.73116,1.86493 -3.08949,3.65893 -7.875,6 -4.07003,1.99105 -8.62481,5.2676 -11.3125,8.125 -3.3881,3.60204 -6.49314,5.58864 -12.59375,8.09375 -8.34479,3.42664 -15.45425,7.76591 -18.84375,11.53125 -4.739534,5.26508 -12.651404,7.92278 -17.968751,6 -2.43872,-0.88185 -3.85954,-0.81173 -6.625,0.34375 l -3.5,1.46875 0.375,-7 c 0.29928,-5.29642 0.98087,-7.8322 2.8125,-10.53125 1.78639,-2.63216 2.24997,-4.33464 1.78125,-6.46875 -0.34877,-1.58793 -0.99095,-5.41331 -1.4375,-8.53125 l -0.8125,-5.6875 6.84375,-6.5 c 3.762117,-3.57696 7.334417,-7.78878 7.937497,-9.375 0.60308,-1.58622 0.96516,-6.05459 0.8125,-9.90625 -0.23479,-5.92396 1e-4,-7.15529 1.5625,-8.09375 1.01584,-0.61018 5.585174,-3.75561 10.156254,-6.96875 7.3437,-5.16209 8.6995,-6.59166 11.53125,-12.34375 2.77706,-5.64006 3.15094,-7.29528 2.78125,-12.40625 -0.59265,-8.1933 -3.34327,-10.91683 -14.65625,-14.4375 -11.219904,-3.49171 -13.203334,-4.47271 -14.468754,-7.25 -0.82925,-1.82 -0.59759,-3.23565 1.125,-6.78125 3.5289,-7.26353 2.74028,-13.79097 -2.28125,-18.812504 -2.402797,-2.40279 -2.465567,-2.751686 -1.09375,-4.84375 0.81634,-1.244944 3.5393,-4.016754 6.0625,-6.125 5.42306,-4.531225 9.026384,-9.912806 11.593754,-17.375 1.38986,-4.039702 3.45554,-7.039553 8.125,-11.6875 3.45291,-3.436991 8.21024,-8.531068 10.5625,-11.34375 3.24588,-3.881221 5.65643,-5.644578 10,-7.28125 6.20895,-2.339554 13.67313,-3.365102 21.28125,-3.21875 z"
     id="path2851"
     sodipodi:nodetypes="csssssssssssssscccssssssssssssssssssssssssssssccsssssssssssssssssscccsscccssssssssssssssssc" />
</svg>
