<?xml version="1.0" encoding="UTF-8" standalone="no"?>
<!-- Created with Inkscape (http://www.inkscape.org/) -->

<svg
   xmlns:dc="http://purl.org/dc/elements/1.1/"
   xmlns:cc="http://creativecommons.org/ns#"
   xmlns:rdf="http://www.w3.org/1999/02/22-rdf-syntax-ns#"
   xmlns:svg="http://www.w3.org/2000/svg"
   xmlns="http://www.w3.org/2000/svg"
   xmlns:sodipodi="http://sodipodi.sourceforge.net/DTD/sodipodi-0.dtd"
   xmlns:inkscape="http://www.inkscape.org/namespaces/inkscape"
   id="svg2"
   version="1.1"
   inkscape:version="0.47pre4 r22446"
   width="1190.625"
   height="1000.5625"
   sodipodi:docname="13th_US_Armored_Division_SSI.svg">
  <metadata
     id="metadata8">
    <rdf:RDF>
      <cc:Work
         rdf:about="">
        <dc:format>image/svg+xml</dc:format>
        <dc:type
           rdf:resource="http://purl.org/dc/dcmitype/StillImage" />
        <dc:title></dc:title>
      </cc:Work>
    </rdf:RDF>
  </metadata>
  <defs
     id="defs6">
    <inkscape:perspective
       sodipodi:type="inkscape:persp3d"
       inkscape:vp_x="0 : 0.5 : 1"
       inkscape:vp_y="0 : 1000 : 0"
       inkscape:vp_z="1 : 0.5 : 1"
       inkscape:persp3d-origin="0.5 : 0.33333333 : 1"
       id="perspective10" />
    <inkscape:perspective
       id="perspective3632"
       inkscape:persp3d-origin="0.5 : 0.33333333 : 1"
       inkscape:vp_z="1 : 0.5 : 1"
       inkscape:vp_y="0 : 1000 : 0"
       inkscape:vp_x="0 : 0.5 : 1"
       sodipodi:type="inkscape:persp3d" />
    <inkscape:perspective
       id="perspective3654"
       inkscape:persp3d-origin="0.5 : 0.33333333 : 1"
       inkscape:vp_z="1 : 0.5 : 1"
       inkscape:vp_y="0 : 1000 : 0"
       inkscape:vp_x="0 : 0.5 : 1"
       sodipodi:type="inkscape:persp3d" />
    <inkscape:perspective
       id="perspective3676"
       inkscape:persp3d-origin="0.5 : 0.33333333 : 1"
       inkscape:vp_z="1 : 0.5 : 1"
       inkscape:vp_y="0 : 1000 : 0"
       inkscape:vp_x="0 : 0.5 : 1"
       sodipodi:type="inkscape:persp3d" />
    <inkscape:perspective
       id="perspective3698"
       inkscape:persp3d-origin="0.5 : 0.33333333 : 1"
       inkscape:vp_z="1 : 0.5 : 1"
       inkscape:vp_y="0 : 1000 : 0"
       inkscape:vp_x="0 : 0.5 : 1"
       sodipodi:type="inkscape:persp3d" />
    <inkscape:perspective
       id="perspective3698-6"
       inkscape:persp3d-origin="0.5 : 0.33333333 : 1"
       inkscape:vp_z="1 : 0.5 : 1"
       inkscape:vp_y="0 : 1000 : 0"
       inkscape:vp_x="0 : 0.5 : 1"
       sodipodi:type="inkscape:persp3d" />
    <inkscape:perspective
       id="perspective3698-7"
       inkscape:persp3d-origin="0.5 : 0.33333333 : 1"
       inkscape:vp_z="1 : 0.5 : 1"
       inkscape:vp_y="0 : 1000 : 0"
       inkscape:vp_x="0 : 0.5 : 1"
       sodipodi:type="inkscape:persp3d" />
    <inkscape:perspective
       id="perspective3738"
       inkscape:persp3d-origin="0.5 : 0.33333333 : 1"
       inkscape:vp_z="1 : 0.5 : 1"
       inkscape:vp_y="0 : 1000 : 0"
       inkscape:vp_x="0 : 0.5 : 1"
       sodipodi:type="inkscape:persp3d" />
    <inkscape:perspective
       id="perspective3769"
       inkscape:persp3d-origin="0.5 : 0.33333333 : 1"
       inkscape:vp_z="1 : 0.5 : 1"
       inkscape:vp_y="0 : 1000 : 0"
       inkscape:vp_x="0 : 0.5 : 1"
       sodipodi:type="inkscape:persp3d" />
    <inkscape:perspective
       id="perspective3818"
       inkscape:persp3d-origin="0.5 : 0.33333333 : 1"
       inkscape:vp_z="1 : 0.5 : 1"
       inkscape:vp_y="0 : 1000 : 0"
       inkscape:vp_x="0 : 0.5 : 1"
       sodipodi:type="inkscape:persp3d" />
    <inkscape:perspective
       id="perspective3840"
       inkscape:persp3d-origin="0.5 : 0.33333333 : 1"
       inkscape:vp_z="1 : 0.5 : 1"
       inkscape:vp_y="0 : 1000 : 0"
       inkscape:vp_x="0 : 0.5 : 1"
       sodipodi:type="inkscape:persp3d" />
    <inkscape:perspective
       id="perspective3840-1"
       inkscape:persp3d-origin="0.5 : 0.33333333 : 1"
       inkscape:vp_z="1 : 0.5 : 1"
       inkscape:vp_y="0 : 1000 : 0"
       inkscape:vp_x="0 : 0.5 : 1"
       sodipodi:type="inkscape:persp3d" />
    <inkscape:perspective
       id="perspective3871"
       inkscape:persp3d-origin="0.5 : 0.33333333 : 1"
       inkscape:vp_z="1 : 0.5 : 1"
       inkscape:vp_y="0 : 1000 : 0"
       inkscape:vp_x="0 : 0.5 : 1"
       sodipodi:type="inkscape:persp3d" />
    <inkscape:perspective
       id="perspective3896"
       inkscape:persp3d-origin="0.5 : 0.33333333 : 1"
       inkscape:vp_z="1 : 0.5 : 1"
       inkscape:vp_y="0 : 1000 : 0"
       inkscape:vp_x="0 : 0.5 : 1"
       sodipodi:type="inkscape:persp3d" />
    <inkscape:perspective
       id="perspective3918"
       inkscape:persp3d-origin="0.5 : 0.33333333 : 1"
       inkscape:vp_z="1 : 0.5 : 1"
       inkscape:vp_y="0 : 1000 : 0"
       inkscape:vp_x="0 : 0.5 : 1"
       sodipodi:type="inkscape:persp3d" />
    <inkscape:perspective
       id="perspective3960"
       inkscape:persp3d-origin="0.5 : 0.33333333 : 1"
       inkscape:vp_z="1 : 0.5 : 1"
       inkscape:vp_y="0 : 1000 : 0"
       inkscape:vp_x="0 : 0.5 : 1"
       sodipodi:type="inkscape:persp3d" />
    <inkscape:perspective
       id="perspective4004"
       inkscape:persp3d-origin="0.5 : 0.33333333 : 1"
       inkscape:vp_z="1 : 0.5 : 1"
       inkscape:vp_y="0 : 1000 : 0"
       inkscape:vp_x="0 : 0.5 : 1"
       sodipodi:type="inkscape:persp3d" />
    <inkscape:perspective
       id="perspective4152"
       inkscape:persp3d-origin="0.5 : 0.33333333 : 1"
       inkscape:vp_z="1 : 0.5 : 1"
       inkscape:vp_y="0 : 1000 : 0"
       inkscape:vp_x="0 : 0.5 : 1"
       sodipodi:type="inkscape:persp3d" />
    <inkscape:perspective
       id="perspective4174"
       inkscape:persp3d-origin="0.5 : 0.33333333 : 1"
       inkscape:vp_z="1 : 0.5 : 1"
       inkscape:vp_y="0 : 1000 : 0"
       inkscape:vp_x="0 : 0.5 : 1"
       sodipodi:type="inkscape:persp3d" />
    <inkscape:perspective
       id="perspective4209"
       inkscape:persp3d-origin="0.5 : 0.33333333 : 1"
       inkscape:vp_z="1 : 0.5 : 1"
       inkscape:vp_y="0 : 1000 : 0"
       inkscape:vp_x="0 : 0.5 : 1"
       sodipodi:type="inkscape:persp3d" />
    <inkscape:perspective
       id="perspective4223"
       inkscape:persp3d-origin="0.5 : 0.33333333 : 1"
       inkscape:vp_z="1 : 0.5 : 1"
       inkscape:vp_y="0 : 1000 : 0"
       inkscape:vp_x="0 : 0.5 : 1"
       sodipodi:type="inkscape:persp3d" />
  </defs>
  <sodipodi:namedview
     pagecolor="#ffffff"
     bordercolor="#666666"
     borderopacity="1"
     objecttolerance="10"
     gridtolerance="10"
     guidetolerance="10"
     inkscape:pageopacity="0"
     inkscape:pageshadow="2"
     inkscape:window-width="1280"
     inkscape:window-height="970"
     id="namedview4"
     showgrid="false"
     inkscape:zoom="0.33342098"
     inkscape:cx="51.371976"
     inkscape:cy="624.508"
     inkscape:window-x="0"
     inkscape:window-y="0"
     inkscape:window-maximized="1"
     inkscape:current-layer="svg2" />
  <path
     style="fill:#feb20e;fill-opacity:1;stroke:none"
     d="M 596.65557,24.319192 280.23877,552.1804 601.15438,738.1315 917.57119,547.68158 596.65557,24.319192 z"
     id="path3616" />
  <path
     style="fill:#e00114;fill-opacity:1;stroke:none"
     d="m 900.70062,533.81022 -323.35248,176.95348 5.81098,277.80195 c 0,0 592.12558,7.94154 588.97008,2.62431 L 900.70062,533.81022 z"
     id="path3618"
     sodipodi:nodetypes="cccsc" />
  <path
     style="fill:#342cb5;fill-opacity:1;stroke:none"
     d="M 26.322034,984.65678 595.74682,988.89831 596.40956,700.34203 295.39381,536.11547 26.322034,984.65678 z"
     id="path3620"
     sodipodi:nodetypes="ccccc" />
  <path
     style="fill:#1f4225;fill-opacity:1;stroke:none"
     d="M 595.8125,0 0,1000.5625 1190.625,1000.5313 595.8125,0 z M 596.28125,41.75 1154.125,980.3125 38.25,980.5 596.28125,41.75 z"
     id="path2839" />
  <rect
     style="fill:none;stroke:#000000;stroke-width:5;stroke-linecap:round;stroke-linejoin:miter;stroke-miterlimit:4;stroke-opacity:1;stroke-dasharray:none;stroke-dashoffset:0"
     id="rect3795"
     width="22.551838"
     height="74.288208"
     x="300.82947"
     y="619.44635"
     ry="11.629043" />
  <path
     style="fill:#000000"
     d="m 628.51805,445.94847 c -12.21384,-3.40634 -24.11295,-12.61579 -30.3285,-23.4731 -4.99155,-8.71922 -5.23569,-8.31654 7.25532,-11.96688 6.09796,-1.78205 11.18462,-3.08103 11.30368,-2.88661 0.11907,0.19442 0.95836,1.98857 1.8651,3.987 6.00414,13.23299 20.91205,19.28365 33.29935,13.51518 9.95399,-4.63534 15.44163,-13.73894 15.46099,-25.64869 0.0144,-8.86474 -2.62326,-15.58832 -8.36962,-21.33469 -5.39174,-5.39174 -8.98255,-6.84819 -18.32002,-7.43074 l -8.3476,-0.52079 0.28448,-9.60689 0.28449,-9.60689 8.5,-0.54449 c 9.42697,-0.60387 13.947,-2.32828 19.00861,-7.25187 9.82493,-9.55701 9.33779,-26.50914 -0.99699,-34.69444 -7.18103,-5.68748 -17.20675,-7.50801 -26.3956,-4.79308 -5.17913,1.53022 -13.85879,9.95941 -15.55847,15.1095 -0.90615,2.74567 -1.6833,3.62116 -2.89788,3.26462 -0.91282,-0.26796 -5.93467,-1.72234 -11.15967,-3.23195 -5.225,-1.50961 -9.6653,-2.8606 -9.86734,-3.00219 -0.20204,-0.1416 1.01684,-3.21537 2.70861,-6.8306 7.65749,-16.36368 25.47382,-26.47178 46.72723,-26.51072 13.806,-0.0253 26.46589,5.1737 36.51653,14.9961 9.94099,9.71524 13.97437,21.45401 11.91118,34.66637 -1.45111,9.29265 -5.02468,16.19122 -12.00137,23.16791 l -5.87043,5.87043 3.99959,3.8922 c 9.65349,9.3943 14.11191,20.42445 14.10354,34.89221 -0.004,6.53503 -0.56708,10.57021 -2.05669,14.73308 -4.70706,13.15435 -16.75069,25.21314 -30.003,30.04075 -7.45236,2.71478 -23.41168,3.33108 -31.05552,1.19927 z"
     id="path4229" />
  <rect
     style="fill:none;stroke:#000000;stroke-width:5;stroke-linecap:round;stroke-linejoin:miter;stroke-miterlimit:4;stroke-opacity:1;stroke-dasharray:none;stroke-dashoffset:0"
     id="rect3795-2"
     width="22.551838"
     height="74.288208"
     x="-692.59967"
     y="-19.902069"
     ry="11.629043"
     transform="matrix(-0.5,-0.8660254,0.8660254,-0.5,0,0)" />
  <rect
     style="fill:none;stroke:#000000;stroke-width:5;stroke-linecap:round;stroke-linejoin:miter;stroke-miterlimit:4;stroke-opacity:1;stroke-dasharray:none;stroke-dashoffset:0"
     id="rect3795-8"
     width="22.551838"
     height="74.288208"
     x="546.90283"
     y="-480.09009"
     ry="11.629043"
     transform="matrix(0,1,-1,0,0,0)" />
  <rect
     style="fill:none;stroke:#000000;stroke-width:5;stroke-linecap:round;stroke-linejoin:miter;stroke-miterlimit:4;stroke-opacity:1;stroke-dasharray:none;stroke-dashoffset:0"
     id="rect3795-4"
     width="22.551838"
     height="74.288208"
     x="546.90289"
     y="-581.68835"
     ry="11.629043"
     transform="matrix(0,1,-1,0,0,0)" />
  <rect
     style="fill:none;stroke:#000000;stroke-width:5;stroke-linecap:round;stroke-linejoin:miter;stroke-miterlimit:4;stroke-opacity:1;stroke-dasharray:none;stroke-dashoffset:0"
     id="rect3795-8-1"
     width="22.551838"
     height="74.288208"
     x="547.27777"
     y="-684.22394"
     ry="11.629043"
     transform="matrix(0,1,-1,0,0,0)" />
  <rect
     style="fill:none;stroke:#000000;stroke-width:5;stroke-linecap:round;stroke-linejoin:miter;stroke-miterlimit:4;stroke-opacity:1;stroke-dasharray:none;stroke-dashoffset:0"
     id="rect3795-4-1"
     width="22.551838"
     height="74.288208"
     x="547.27783"
     y="-785.8222"
     ry="11.629043"
     transform="matrix(0,1,-1,0,0,0)" />
  <rect
     style="fill:none;stroke:#000000;stroke-width:5;stroke-linecap:round;stroke-linejoin:miter;stroke-miterlimit:4;stroke-opacity:1;stroke-dasharray:none;stroke-dashoffset:0"
     id="rect3795-2-8"
     width="22.551838"
     height="74.288208"
     x="442.88766"
     y="635.23901"
     ry="11.629043"
     transform="matrix(-0.5,0.8660254,0.8660254,0.5,0,0)" />
  <rect
     style="fill:none;stroke:#000000;stroke-width:5;stroke-linecap:round;stroke-linejoin:miter;stroke-miterlimit:4;stroke-opacity:1;stroke-dasharray:none;stroke-dashoffset:0"
     id="rect3795-6"
     width="22.551838"
     height="74.288208"
     x="868.35944"
     y="619.14551"
     ry="11.629043" />
  <rect
     style="fill:none;stroke:#000000;stroke-width:5;stroke-linecap:round;stroke-linejoin:miter;stroke-miterlimit:4;stroke-opacity:1;stroke-dasharray:none;stroke-dashoffset:0"
     id="rect3795-2-5"
     width="22.551838"
     height="74.288208"
     x="-1061.2804"
     y="322.35114"
     ry="11.629043"
     transform="matrix(-0.5,-0.8660254,0.8660254,-0.5,0,0)" />
  <rect
     style="fill:none;stroke:#000000;stroke-width:5;stroke-linecap:round;stroke-linejoin:miter;stroke-miterlimit:4;stroke-opacity:1;stroke-dasharray:none;stroke-dashoffset:0"
     id="rect3795-8-6"
     width="22.551838"
     height="74.288208"
     x="734.24036"
     y="-785.56403"
     ry="11.629043"
     transform="matrix(0,1,-1,0,0,0)" />
  <rect
     style="fill:none;stroke:#000000;stroke-width:5;stroke-linecap:round;stroke-linejoin:miter;stroke-miterlimit:4;stroke-opacity:1;stroke-dasharray:none;stroke-dashoffset:0"
     id="rect3795-4-8"
     width="22.551838"
     height="74.288208"
     x="734.2403"
     y="-683.96576"
     ry="11.629043"
     transform="matrix(0,1,-1,0,0,0)" />
  <rect
     style="fill:none;stroke:#000000;stroke-width:5;stroke-linecap:round;stroke-linejoin:miter;stroke-miterlimit:4;stroke-opacity:1;stroke-dasharray:none;stroke-dashoffset:0"
     id="rect3795-8-1-0"
     width="22.551838"
     height="74.288208"
     x="733.86542"
     y="-581.43018"
     ry="11.629043"
     transform="matrix(0,1,-1,0,0,0)" />
  <rect
     style="fill:none;stroke:#000000;stroke-width:5;stroke-linecap:round;stroke-linejoin:miter;stroke-miterlimit:4;stroke-opacity:1;stroke-dasharray:none;stroke-dashoffset:0"
     id="rect3795-4-1-2"
     width="22.551838"
     height="74.288208"
     x="733.86536"
     y="-479.83191"
     ry="11.629043"
     transform="matrix(0,1,-1,0,0,0)" />
  <rect
     style="fill:none;stroke:#000000;stroke-width:5;stroke-linecap:round;stroke-linejoin:miter;stroke-miterlimit:4;stroke-opacity:1;stroke-dasharray:none;stroke-dashoffset:0"
     id="rect3795-2-8-2"
     width="22.551838"
     height="74.288208"
     x="73.985626"
     y="977.79736"
     ry="11.629043"
     transform="matrix(-0.5,0.8660254,0.8660254,0.5,0,0)" />
  <g
     id="g3986"
     transform="translate(-0.1875,-0.4375)">
    <path
       transform="matrix(1.1538595,0,0,0.98556947,-63.270053,8.1745129)"
       d="m 470.8762,657.40283 c 0,39.70229 -27.52725,71.88735 -61.48384,71.88735 -33.95658,0 -61.48383,-32.18506 -61.48383,-71.88735 0,-39.70228 27.52725,-71.88734 61.48383,-71.88734 33.95659,0 61.48384,32.18506 61.48384,71.88734 z"
       sodipodi:ry="71.887344"
       sodipodi:rx="61.483833"
       sodipodi:cy="657.40283"
       sodipodi:cx="409.39236"
       id="path3950"
       style="fill:none;stroke:#000000;stroke-width:3.75577331;stroke-linecap:round;stroke-linejoin:miter;stroke-miterlimit:4;stroke-opacity:1;stroke-dasharray:none;stroke-dashoffset:0"
       sodipodi:type="arc" />
    <path
       inkscape:transform-center-y="-1.8687257"
       inkscape:transform-center-x="-1.3496301"
       transform="matrix(0.31807974,0.0303802,-0.02594926,0.27168794,295.44365,465.13857)"
       d="m 470.8762,657.40283 c 0,39.70229 -27.52725,71.88735 -61.48384,71.88735 -33.95658,0 -61.48383,-32.18506 -61.48383,-71.88735 0,-39.70228 27.52725,-71.88734 61.48383,-71.88734 33.95659,0 61.48384,32.18506 61.48384,71.88734 z"
       sodipodi:ry="71.887344"
       sodipodi:rx="61.483833"
       sodipodi:cy="657.40283"
       sodipodi:cx="409.39236"
       id="path3950-2"
       style="fill:none;stroke:#000000;stroke-width:13.54518318;stroke-linecap:round;stroke-linejoin:miter;stroke-miterlimit:4;stroke-opacity:1;stroke-dasharray:none;stroke-dashoffset:0"
       sodipodi:type="arc" />
    <path
       id="path3974"
       d="m 374.99515,594.23195 24.46232,44.42582"
       style="fill:none;stroke:#000000;stroke-width:5;stroke-linecap:butt;stroke-linejoin:miter;stroke-miterlimit:4;stroke-opacity:1;stroke-dasharray:none" />
    <path
       id="path3976"
       d="m 418.10881,639.5013 25.8682,-44.51954"
       style="fill:none;stroke:#000000;stroke-width:5;stroke-linecap:butt;stroke-linejoin:miter;stroke-miterlimit:4;stroke-opacity:1;stroke-dasharray:none" />
    <path
       id="path3978"
       d="m 428.7935,656.37187 50.70542,-0.0937"
       style="fill:none;stroke:#000000;stroke-width:5;stroke-linecap:butt;stroke-linejoin:miter;stroke-miterlimit:4;stroke-opacity:1;stroke-dasharray:none" />
    <path
       id="path3980"
       d="m 419.13979,673.52361 24.7435,43.95719"
       style="fill:none;stroke:#000000;stroke-width:5;stroke-linecap:butt;stroke-linejoin:miter;stroke-miterlimit:4;stroke-opacity:1;stroke-dasharray:none" />
    <path
       id="path3982"
       d="m 399.45747,673.80479 -24.46232,43.86346"
       style="fill:none;stroke:#000000;stroke-width:5;stroke-linecap:butt;stroke-linejoin:miter;stroke-miterlimit:4;stroke-opacity:1;stroke-dasharray:none" />
    <path
       id="path3984"
       d="m 339.6862,655.52834 48.59244,0"
       style="fill:none;stroke:#000000;stroke-width:4.93130922;stroke-linecap:butt;stroke-linejoin:miter;stroke-miterlimit:4;stroke-opacity:1;stroke-dasharray:none" />
  </g>
  <g
     transform="translate(374.05781,0.12486834)"
     id="g3986-7">
    <path
       transform="matrix(1.1538595,0,0,0.98556947,-63.270053,8.1745129)"
       d="m 470.8762,657.40283 c 0,39.70229 -27.52725,71.88735 -61.48384,71.88735 -33.95658,0 -61.48383,-32.18506 -61.48383,-71.88735 0,-39.70228 27.52725,-71.88734 61.48383,-71.88734 33.95659,0 61.48384,32.18506 61.48384,71.88734 z"
       sodipodi:ry="71.887344"
       sodipodi:rx="61.483833"
       sodipodi:cy="657.40283"
       sodipodi:cx="409.39236"
       id="path3950-1"
       style="fill:none;stroke:#000000;stroke-width:3.75577331;stroke-linecap:round;stroke-linejoin:miter;stroke-miterlimit:4;stroke-opacity:1;stroke-dasharray:none;stroke-dashoffset:0"
       sodipodi:type="arc" />
    <path
       inkscape:transform-center-y="-1.8687257"
       inkscape:transform-center-x="-1.3496301"
       transform="matrix(0.31807974,0.0303802,-0.02594926,0.27168794,295.44365,465.13857)"
       d="m 470.8762,657.40283 c 0,39.70229 -27.52725,71.88735 -61.48384,71.88735 -33.95658,0 -61.48383,-32.18506 -61.48383,-71.88735 0,-39.70228 27.52725,-71.88734 61.48383,-71.88734 33.95659,0 61.48384,32.18506 61.48384,71.88734 z"
       sodipodi:ry="71.887344"
       sodipodi:rx="61.483833"
       sodipodi:cy="657.40283"
       sodipodi:cx="409.39236"
       id="path3950-2-8"
       style="fill:none;stroke:#000000;stroke-width:13.54518318;stroke-linecap:round;stroke-linejoin:miter;stroke-miterlimit:4;stroke-opacity:1;stroke-dasharray:none;stroke-dashoffset:0"
       sodipodi:type="arc" />
    <path
       id="path3974-2"
       d="m 374.99515,594.23195 24.46232,44.42582"
       style="fill:none;stroke:#000000;stroke-width:5;stroke-linecap:butt;stroke-linejoin:miter;stroke-miterlimit:4;stroke-opacity:1;stroke-dasharray:none" />
    <path
       id="path3976-1"
       d="m 418.10881,639.5013 25.8682,-44.51954"
       style="fill:none;stroke:#000000;stroke-width:5;stroke-linecap:butt;stroke-linejoin:miter;stroke-miterlimit:4;stroke-opacity:1;stroke-dasharray:none" />
    <path
       id="path3978-9"
       d="m 428.7935,656.37187 50.70542,-0.0937"
       style="fill:none;stroke:#000000;stroke-width:5;stroke-linecap:butt;stroke-linejoin:miter;stroke-miterlimit:4;stroke-opacity:1;stroke-dasharray:none" />
    <path
       id="path3980-3"
       d="m 419.13979,673.52361 24.7435,43.95719"
       style="fill:none;stroke:#000000;stroke-width:5;stroke-linecap:butt;stroke-linejoin:miter;stroke-miterlimit:4;stroke-opacity:1;stroke-dasharray:none" />
    <path
       id="path3982-7"
       d="m 399.45747,673.80479 -24.46232,43.86346"
       style="fill:none;stroke:#000000;stroke-width:5;stroke-linecap:butt;stroke-linejoin:miter;stroke-miterlimit:4;stroke-opacity:1;stroke-dasharray:none" />
    <path
       id="path3984-7"
       d="m 339.6862,655.52834 48.59244,0"
       style="fill:none;stroke:#000000;stroke-width:4.93130922;stroke-linecap:butt;stroke-linejoin:miter;stroke-miterlimit:4;stroke-opacity:1;stroke-dasharray:none" />
  </g>
  <path
     style="fill:#000000;fill-opacity:1;stroke:none"
     d="m 388.49155,531.42023 -12.84037,40.48936 401.89432,145.03998 5.81692,-18.06005 19.74545,-17.15211 c -3.5771,-5.61606 -7.82332,-10.11692 -8.55257,-20.47939 l 6.70271,-17.92971 -412.76646,-111.90808 z"
     id="path4042"
     sodipodi:nodetypes="cccccccc" />
  <path
     style="fill:#000000;fill-opacity:1"
     d="m 504.12751,438.22535 0.28621,-9.75 8.75,-0.28893 8.75,-0.28894 0,-53.92213 0,-53.92213 -8.75,-0.28894 -8.75,-0.28893 -0.28467,-9.62255 -0.28468,-9.62256 4.4496,-1.12042 c 6.07409,-1.52947 10.24915,-5.3226 12.34085,-11.2119 l 1.74834,-4.92257 11.76528,0 11.76528,0 0,72.5 0,72.5 8.5,0 8.5,0 0,10 0,10 -29.53621,0 -29.53621,0 0.28621,-9.75 z"
     id="path4100" />
  <path
     style="fill:#e00114;fill-opacity:1;stroke:none"
     d="m 762.54944,429.11901 17.80782,35.24072 -112.84532,125.12336 -11.8094,-25.58703 -139.08842,153.24097 -11.15332,-43.39484 -141.24412,127.65393 153.14724,-203.19658 14.0588,54.54816 147.99233,-176.29739 8.71647,34.58465 74.41792,-81.91595 z"
     id="path4044"
     sodipodi:nodetypes="cccccccccccc" />
</svg>
