<?xml version="1.0" encoding="UTF-8" standalone="no"?>
<!-- Created with Inkscape (http://www.inkscape.org/) -->

<svg
   xmlns:svg="http://www.w3.org/2000/svg"
   xmlns="http://www.w3.org/2000/svg"
   version="1.1"
   width="130"
   height="196.06876"
   id="svg2">
  <defs
     id="defs4" />
  <g
     transform="translate(0,-2.957594)"
     id="layer2"
     style="display:inline">
    <path
       d="M 62.71875,2.9712881 C 42.367372,3.2201105 21.490239,6.8712599 0,14.408788 L 0,187.59629 c 45.845843,16.08006 88.912968,14.37633 130,0 L 130,14.408788 C 108.17251,6.7713626 85.783646,2.6892894 62.71875,2.9712881 z"
       id="rect3606"
       style="color:#000000;fill:#ffcc33;fill-opacity:1;fill-rule:nonzero;stroke:none;stroke-width:3.5;marker:none;visibility:visible;display:inline;overflow:visible;enable-background:accumulate" />
    <path
       d="M 64.84375,12.1875 C 45.798487,12.197569 26.846629,14.801032 7.96875,20 l 0,162.0625 c 37.755758,10.39793 75.820808,10.47848 114.25,0 l 0,-162.0625 c -19.2146,-5.239244 -38.329737,-7.822569 -57.375,-7.8125 z"
       id="rect3635"
       style="color:#000000;fill:#cc0033;fill-opacity:1;fill-rule:nonzero;stroke:none;stroke-width:3.5;marker:none;visibility:visible;display:inline;overflow:visible;enable-background:accumulate" />
    <path
       d="m 49.625,51.125 c 0.750724,0.483514 3.569934,6.145936 0.1875,9.65625 -2.821835,2.928521 -0.677324,8.9276 -0.25,8.9375 -0.207347,1.088571 -6.185567,-2.259401 -6.4375,-5.78125 -0.343305,-4.799166 -4.618443,-7.4715 -6.1875,-7.78125 0.791347,1.023355 1.58712,5.868181 -0.125,10.15625 -2.369091,5.933479 2.619521,9.956915 3.21875,9.34375 -2.011581,2.27114 -5.936134,-2.658592 -6.9375,-5.875 -1.621753,-5.209106 -8.535633,-4.891887 -9.6875,-4.53125 1.116106,-0.0034 5.824338,4.486592 4.3125,8.40625 -1.640894,4.254256 4.462924,9.709357 5.5,9.15625 C 31.186664,83.641408 29.027259,83.971486 26,80.15625 20.93707,73.775471 17.902274,74.895389 16.15625,76.875 c 0.421794,-0.70299 5.674036,4.335194 5.5625,8.1875 -0.164654,5.686908 7.531285,6.460355 7.96875,5.6875 -0.356699,1.227192 -3.158843,3.645116 -8.96875,-0.5 -3.160552,-2.254917 -6.974328,-5.82708 -10,0.875 2.044373,-0.897874 5.248256,-0.619437 7.21875,4.3125 1.823127,4.56309 4.815588,5.39547 9.90625,2.8125 0.864136,0.613517 -3.937252,6.14363 -8.28125,4 -5.650624,-2.788407 -10.1146475,1.18778 -9.34375,2.28125 0,0 1.566435,-0.81398 3.25,-0.46875 2.047101,0.41978 4.332709,2.12265 4.84375,3.625 1.841689,5.41415 9.648497,3.49872 10.28125,1.78125 -0.915451,4.35628 -4.97367,4.95732 -7.8125,3.5625 -4.102154,-2.01554 -9.437538,-0.75087 -9.28125,2.84375 0,0 1.391447,-1.55488 3.0625,-1.34375 1.678684,0.2121 3.629279,2.20381 4,3.375 1.317416,4.16202 7.54923,6.52311 9.46875,3.28125 0,0 -1.177178,4.16939 -3.59375,4.5625 -8.043937,1.30853 -9.51338,2.64322 -9.5,5.21875 0,0 3.354054,-1.66153 5.25,-1 3.555056,1.24043 8.160875,4.44573 14.03125,3.65625 l 30.125,7.625 L 93.25,127.625 c -0.02007,-0.1204 5.746471,1.72177 8.84375,4.34375 2.25565,1.90949 4.37167,5.48683 7.8125,3.6875 -3.15673,-1.35739 -4.38196,-5.3903 -3.84375,-8.46875 0.87988,-5.03275 -5.94209,-8.40663 -6.875,-7.65625 -0.900764,-1.14097 6.76743,-3.07816 8.40625,-0.25 2.27525,3.92647 8.4553,3.30234 8.875,1.34375 -0.95617,0.17928 -6.5277,-3.27744 -6.625,-6.375 -0.1716,-5.46136 -7.18799,-5.95276 -7.3125,-5.6875 -0.99218,-0.33073 5.39925,-2.21668 8.28125,-0.1875 5.37097,3.78163 8.05824,-1.31083 7.8125,-1.78125 0,0 -6.78825,-1.38005 -7.5625,-4.15625 -1.21479,-4.355833 -7.69166,-3.204176 -7.96875,-2.53125 -1.1476,-1.147598 1.56286,-4.198232 7,-3.65625 4.0368,0.402394 7.98249,-3.093392 7.59375,-3.71875 -3.09359,1.199556 -5.56036,-1.287037 -7.96875,-2.71875 -2.79807,-1.663359 -5.84882,-2.731758 -9.65625,0 -0.410374,-1.483662 3.22282,-4.243112 7.40625,-5.1875 5.87046,-1.325228 5.36465,-7.021343 5.28125,-8.125 -0.76843,0.983309 -4.96838,4.316761 -9.28125,1.75 -4.951191,-2.946649 -8.637773,1.337413 -7.9375,2.40625 -1.269035,-0.67984 0.401648,-6.625404 3.96875,-7.25 5.84437,-1.023343 4.825,-7.18914 4.15625,-7.15625 0.6411,1.314246 -5.136031,3.117979 -9.59375,2.34375 -3.467755,-0.602289 -7.600555,5.3681 -7.4375,5.375 -0.515484,0.161089 0.825726,-5.49258 3.96875,-7.28125 6.650244,-3.784602 2.057991,-10.20932 1.78125,-10.15625 0.06919,1.701741 1.626333,5.429422 -7.28125,5.1875 -4.30628,-0.116955 -7.117653,1.969663 -9.21875,5.75 2.084493,-5.039505 7.300344,-10.040411 3.8125,-15.15625 -1.710955,4.156727 -3.81636,7.126659 -7.28125,5.6875 0,0 -10.093542,1.671224 -13.625,-1.21875 C 55.686741,54.248854 50.488826,51.382243 49.625,51.125 z m -12.6875,5.03125 c -0.210358,-0.272031 -0.396143,-0.2929 -0.5625,0.0625 0.05708,-0.111968 0.265853,-0.121062 0.5625,-0.0625 z"
       id="path3687"
       style="color:#000000;fill:#ffcc33;fill-opacity:1;fill-rule:nonzero;stroke:none;stroke-width:3.5;marker:none;visibility:visible;display:inline;overflow:visible;enable-background:accumulate" />
    <path
       d="m 64.5625,31.09375 -46.375,136.75 46.375,-24.1875 46.375,24.1875 -46.375,-136.75 z m 0.09375,29.09375 0.625,27.53125 4.65625,-4.90625 -0.75,21.46875 5.6875,-5.0625 -9.59375,37.625 -0.375,-27.40625 -5.1875,5.4375 1.03125,-21.59375 -5.6875,4.9375 9.59375,-38.03125 z"
       id="path3662"
       style="color:#000000;fill:#0000cc;fill-opacity:1;fill-rule:nonzero;stroke:none;stroke-width:3.5;marker:none;visibility:visible;display:inline;overflow:visible;enable-background:accumulate" />
  </g>
</svg>
