<?xml version="1.0" encoding="UTF-8" standalone="no"?>
<!-- Created with Inkscape (http://www.inkscape.org/) -->

<svg
   xmlns:dc="http://purl.org/dc/elements/1.1/"
   xmlns:cc="http://creativecommons.org/ns#"
   xmlns:rdf="http://www.w3.org/1999/02/22-rdf-syntax-ns#"
   xmlns:svg="http://www.w3.org/2000/svg"
   xmlns="http://www.w3.org/2000/svg"
   version="1.1"
   width="200"
   height="300"
   id="svg2">
  <metadata
     id="metadata19">
    <rdf:RDF>
      <cc:Work
         rdf:about="">
        <dc:format>image/svg+xml</dc:format>
        <dc:type
           rdf:resource="http://purl.org/dc/dcmitype/StillImage" />
        <dc:title></dc:title>
      </cc:Work>
    </rdf:RDF>
  </metadata>
  <defs
     id="defs4">
    <style
       type="text/css"
       id="style3677" />
  </defs>
  <g
     transform="translate(4.499999999999517,-6.500000000000057)"
     id="g4532">
    <path
       d="m 191.0000000000005,267.6283027037038 c 0,0 -47.8971973333333,32.3716972962963 -95.50000000000015,32.3716972962963 C 47.89718778333381,300.0000000000001 4.547473508864644e-13,267.6283027037038 4.547473508864644e-13,267.6283027037038 l 0,-228.43835049259288 C 4.547473508864644e-13,39.18995221111092 47.89718778333381,13 95.50000000000035,13 143.1028026666672,13 191.0000000000005,39.18995221111092 191.0000000000005,39.18995221111092 l 0,228.43835049259288 z"
       id="path2829"
       style="fill:#ffd200;stroke:#000000;stroke-width:3;stroke-miterlimit:4;stroke-dasharray:none" />
    <path
       d="M 95.87887954863468,29.02890081489497 C 51.2353014264131,29.2915908519321 15.26759482641223,49.75667859267277 15.26759482641223,49.75667859267277 l 0,105.13368055555552 0,105.1668981481482 c 0,0 35.96770660000026,26.1785136666665 80.61128472222245,26.4412037037037 44.64357600000021,-0.2626900370372 80.57812500000012,-26.4412037037037 80.57812500000012,-26.4412037037037 l 0,-105.1668981481482 0,-105.13368055555554 c 0,0 -35.9345489999999,-20.46508774074074 -80.57812500000012,-20.72777777777784 z"
       id="path2831"
       style="fill:#0000cc" />
    <path
       d="m 95.51623792343046,29.03430722530628 0,257.46956018518528 c 0.12256752699314,0.00111242587 0.242057779327,-7.219817404e-4 0.36475694444444,0 44.64357600000011,-0.2626900370371 80.57812500000019,-26.4412037037038 80.57812500000019,-26.4412037037038 l 0,-210.30057870370367 c 0,0 -35.9345490000001,-20.46508774074093 -80.57812500000029,-20.72777777777781 -0.12273841880061,7.2221271513e-4 -0.24215024818902,-0.001026772486 -0.36475694444445,0 z"
       id="path2887"
       style="fill:#dc281e;fill-opacity:1;stroke:#000000;stroke-width:1;stroke-miterlimit:4;stroke-dasharray:none" />
    <path
       d="M 95.51623792343046,29.03430722530628 C 51.04317786720442,29.40674784907728 15.2697101456527,49.76208500308406 15.26971014565258,49.76208500308406 l 0,210.30057870370376 c 2.4e-13,6e-14 35.77341316352377,26.0375646266173 80.24652777777788,26.4412037037037 l 0,-257.46956018518585 z"
       id="rect2885"
       style="fill:#0039a6;fill-opacity:1;stroke:#000000;stroke-width:1;stroke-miterlimit:4;stroke-dasharray:none" />
    <path
       d="m 95.50000000000035,58.75892569083544 -15.08862714425659,106.98654692278614 10.12117787865752,1.6172384999958 0,94.2974448458973 -9.8728054153777,3.8564918076818 0,14.3374413172688 9.8728054153777,0 0,-3.2655777403758 4.96744926559907,0 4.96744926559914,0 0,3.2655777403758 9.8728054153777,0 0,-14.3374413172688 -9.8728054153777,-3.8564918076818 0,-94.2974448458973 10.1211778786575,-1.6172384999958 L 95.50000000000035,58.75892569083541 z m -77.58534821707434,98.90035442280824 33.40609631115446,47.2731253844867 -17.01351373467795,-3.6076858846057 49.36402707689082,49.8855875767874 -24.09212893815555,-37.8807017883583 15.83374453409726,1.6794399807647 -57.49822524930843,-57.3497652690747 z m 155.17069643414839,0 -57.4982252493086,57.3497652690748 15.8337445340974,-1.6794399807647 -24.0921289381555,37.8807017883583 49.3640270768903,-49.8855875767874 -17.0135137346763,3.6076858846057 33.4060963111529,-47.2731253844867 z"
       id="path3729"
       style="fill:#ffd200;fill-opacity:1;stroke:#000000;stroke-width:1;stroke-linejoin:round;stroke-miterlimit:4;stroke-dasharray:none" />
    <path
       d="m 95.49999999999937,33.94053486397967 -2.67084975099067,7.75597547549179 -8.31264473060983,0 6.81216734241386,5.05040263520416 -2.67084975098948,8.02653275951987 6.84217689017612,-5.05040263520354 6.84217689017713,5.05040263520354 -2.67084975098851,-8.02653275951986 6.81216734241291,-5.05040263520414 -8.31264473061107,0 -2.67084975099067,-7.75597547549179 z m -16.92538493885898,17.07517081426078 -2.67084975099053,7.72591355504398 -8.31264473061094,0 6.84217689017818,5.08046455565136 -2.67084975099054,8.02653275952094 6.81216734241383,-5.0504026352038 6.84217689017711,5.0504026352038 -2.67084975099068,-8.02653275952094 6.84217689017832,-5.08046455565136 -8.34265427837431,0 -2.67084975099057,-7.72591355504398 z m 33.85076987771901,0 -2.6708497509895,7.72591355504398 -8.3426542783753,0 6.8421768901793,5.08046455565136 -2.6708497509916,8.02653275952094 6.8421768901771,-5.0504026352038 6.8121673424138,5.0504026352038 -2.6708497509907,-8.02653275952094 6.8421768901784,-5.08046455565136 -8.3126447306111,0 -2.6708497509907,-7.72591355504398 z m -50.77615481657907,16.98498505291819 -2.67084975099054,7.72591355504373 -8.31264473061009,0 6.84217689017843,5.08046455565163 -2.67084975099056,8.02653275952042 6.81216734241288,-5.05040263520399 6.8421768901772,5.05040263520399 -2.67084975099054,-8.02653275952044 6.84217689017818,-5.08046455565162 -8.31264473060986,0 -2.70085929875391,-7.72591355504373 z m 67.70153975543897,0 -2.7008592987549,7.72591355504373 -8.3126447306088,0 6.842176890177,5.08046455565163 -2.6708497509906,8.02653275952042 6.8421768901771,-5.05040263520399 6.8121673424129,5.05040263520399 -2.6708497509885,-8.02653275952044 6.8421768901761,-5.08046455565162 -8.3126447306098,0 -2.6708497509907,-7.72591355504373 z m -84.59691514653411,16.86473737112686 -2.67084975099079,7.75597547549214 -8.34265427837421,0 6.84217689017747,5.05040263520331 -2.67084975098971,8.02653275952095 6.84217689017734,-5.0504026352039 6.81216734241324,5.0504026352039 -2.67084975099052,-8.02653275952095 6.84217689017708,-5.05040263520331 -8.31264473060947,0 -2.67084975099031,-7.75597547549214 z m 101.49229053763002,0 -2.6708497509896,7.75597547549214 -8.312644730611,0 6.8421768901771,5.05040263520331 -2.6708497509895,8.02653275952095 6.812167342413,-5.0504026352039 6.842176890177,5.0504026352039 -2.6708497509895,-8.02653275952095 6.8421768901772,-5.05040263520331 -8.3426542783744,0 -2.6708497509907,-7.75597547549214 z m -118.41767547649023,16.26349896217489 -2.67084975099068,7.7559754754912 -8.31264473061033,0 6.81216734241324,5.0504026352046 -2.67084975098983,8.0565946799677 6.84217689017759,-5.0804645556519 6.84217689017734,5.0804645556519 -2.67084975099055,-8.0565946799677 6.81216734241326,-5.0504026352046 -8.31264473060938,0 -2.67084975099067,-7.7559754754912 z m 135.3430604153491,0 -2.6708497509895,7.7559754754912 -8.3126447306088,0 6.8121673424128,5.0504026352046 -2.6708497509894,8.0565946799677 6.8421768901761,-5.0804645556519 6.8421768901783,5.0804645556519 -2.6708497509894,-8.0565946799677 6.8121673424129,-5.0504026352046 -8.3126447306111,0 -2.6708497509907,-7.7559754754912 z m -105.90369405892866,0.7816099316387 -2.67084975098946,7.755975475492 -8.31264473061021,0 6.84217689017697,5.0504026352033 -2.67084975098921,8.0265327595205 6.81216734241191,-5.0504026352033 6.84217689017819,5.0504026352033 -2.67084975099053,-8.0265327595205 6.84217689017817,-5.0504026352033 -8.3426542783742,0 -2.67084975099163,-7.755975475492 z m 76.46432770250888,0 -2.6708497509906,7.755975475492 -8.3426542783743,0 6.8421768901771,5.0504026352033 -2.6708497509907,8.0265327595205 6.8421768901783,-5.0504026352033 6.8121673424139,5.0504026352033 -2.6708497509917,-8.0265327595205 6.8421768901771,-5.0504026352033 -8.3126447306099,0 -2.6708497509894,-7.755975475492 z m -93.35970309360365,16.263498962174 -2.67084975099067,7.755975475492 -8.31264473061043,0 6.84217689017708,5.0504026352042 -2.67084975098932,8.0265327595204 6.81216734241334,-5.0504026352041 6.84217689017687,5.0504026352041 -2.6708497509902,-8.0265327595204 6.84217689017708,-5.0504026352042 -8.34265427837407,0 -2.67084975098956,-7.755975475492 z m 110.25507848470044,0 -2.6708497509916,7.755975475492 -8.3426542783744,0 6.8421768901772,5.0504026352042 -2.6708497509907,8.0265327595204 6.8421768901782,-5.0504026352041 6.8121673424139,5.0504026352041 -2.6708497509916,-8.0265327595204 6.8421768901783,-5.0504026352042 -8.3126447306111,0 -2.6708497509896,-7.755975475492 z m -80.8157121282795,0.5110526476104 -2.70085929875485,7.7559754754919 -8.2826351828455,0 6.84217689017719,5.0504026352034 -2.70085929875388,8.0265327595204 6.84217689017714,-5.0504026352032 6.84217689017727,5.0504026352032 -2.70085929875394,-8.0265327595204 6.84217689017818,-5.0504026352034 -8.34265427837529,0 -2.64084020322622,-7.7559754754919 z m 51.3763457718587,0 -2.6408402032274,7.7559754754919 -8.3426542783753,0 6.8421768901793,5.0504026352034 -2.7008592987549,8.0265327595204 6.8421768901772,-5.0504026352032 6.842176890177,5.0504026352032 -2.7008592987548,-8.0265327595204 6.842176890177,-5.0504026352034 -8.2826351828456,0 -2.7008592987539,-7.7559754754919 z m -68.30173071071872,16.2634989621747 -2.64084020322573,7.7559754754913 -8.34265427837384,0 6.84217689017684,5.0504026352038 -2.64084020322719,8.0265327595207 6.78215779464988,-5.0504026352036 6.84217689017732,5.0504026352036 -2.64084020322618,-8.0265327595207 6.84217689017721,-5.0504026352038 -8.34265427837419,0 -2.70085929875174,-7.7559754754913 z m 85.22711564957681,0 -2.7008592987539,7.7559754754913 -8.3426542783743,0 6.842176890177,5.0504026352038 -2.6408402032261,8.0265327595207 6.8421768901781,-5.0504026352036 6.7821577946497,5.0504026352036 -2.6408402032275,-8.0265327595207 6.8421768901772,-5.0504026352038 -8.3426542783744,0 -2.6408402032254,-7.7559754754913 z"
       id="path3681"
       style="fill:#ffffff;fill-opacity:1;stroke:#000000;stroke-width:1;stroke-miterlimit:4;stroke-dasharray:none" />
  </g>
</svg>
