<?xml version="1.0" encoding="UTF-8" standalone="no"?>
<!-- Created with Inkscape (http://www.inkscape.org/) -->
<svg
   xmlns="http://www.w3.org/2000/svg"
   xmlns:xlink="http://www.w3.org/1999/xlink"
   width="781"
   height="1630">
  <defs
     id="defs4">
    <clipPath
       id="clipPath3559">
      <rect
         width="780"
         height="298"
         x="204.35387"
         y="36.748905"/>
    </clipPath>
  </defs>
  <rect
     fill="#f4da00"
     y="643.15515"
     x="0.5"
     height="298"
     width="780" />
  <path
     fill="#000"
     clip-path="url(#clipPath3559)"
     d="M 594.08032,-29.642607 L 723.24697,16.097526 L 723.24697,166.09752 L 594.08032,120.35739 L 594.08032,-29.642607 z M 723.247,166.09752 L 852.41365,211.83765 L 852.41365,361.83765 L 723.247,316.09752 L 723.247,166.09752 z M 852.41362,-14.162344 L 981.58027,31.577786 L 981.58027,257.57807 L 852.41362,211.83794 L 852.41362,-14.162344 z M 594.08032,270.35738 L 723.24697,316.09751 L 723.24697,466.09752 L 594.08032,420.35738 L 594.08032,270.35738 z M 206.58033,-16.862986 L 335.74698,28.877144 L 335.74698,178.87714 L 206.58033,133.13701 L 206.58033,-16.862986 z M 335.747,-121.12285 L 464.91364,-75.382717 L 464.91364,74.617281 L 335.747,28.877151 L 335.747,-121.12285 z M 464.91364,74.617281 L 594.08029,120.35741 L 594.08029,270.35741 L 464.91364,224.61728 L 464.91364,74.617281 z M 335.747,178.87715 L 464.91364,224.61728 L 464.91364,401.23694 L 335.747,355.49681 L 335.747,178.87715 z"
     transform="translate(-203.5803,606.40625)" />
  <rect
     fill="#fff"
     y="941.15625"
     x="160.43185"
     height="615"
     width="460" />
  <path
     fill="#2b2c7c"
     d="M 1.45865,941.15625 L 1.4274,1429.6875 C 1.4274,1500.5682 58.95296,1558.125 129.83365,1558.125 C 129.83365,1558.125 151.14877,1558.1249 160.77115,1558.125 L 160.77115,941.15625 L 1.45865,941.15625 z M 310.77115,941.15625 L 310.77115,1560.0625 C 324.98681,1562.9094 335.41354,1568.6728 345.1149,1575.875 C 370.46463,1594.6014 390.28816,1628 390.4274,1628.0001 C 390.56665,1628.0001 410.39016,1594.6014 435.7399,1575.875 C 445.54001,1568.5995 456.08222,1562.7841 470.52115,1559.9688 L 470.52115,941.15625 L 310.77115,941.15625 z M 780.22535,941.15625 L 780.2566,1429.6875 C 780.2566,1500.5682 722.73104,1558.125 651.85035,1558.125 C 651.85035,1558.125 630.53523,1558.1249 620.91285,1558.125 L 620.91285,941.15625 L 780.22535,941.15625 z"
     id="path20" />
  <path
     fill="#c42e40"
     id="path2396"
     d="M 600.78935,1246.1588 C 600.78935,1362.1386 506.76915,1456.1588 390.78935,1456.1588 C 274.80954,1456.1588 180.78934,1362.1386 180.78934,1246.1588 C 180.78934,1130.179 274.80954,1036.1588 390.78935,1036.1588 C 506.76915,1036.1588 600.78935,1130.179 600.78935,1246.1588 z" />
  <path
     fill="#fff"
     d="M 277.53189,1278.0942 C 275.94452,1278.9879 275.30796,1277.9938 272.72598,1281.2552 C 270.36319,1284.2398 255.14846,1307.1483 236.01718,1325.0671 C 229.23136,1331.7654 225.08768,1330.9476 223.63928,1324.8831 C 222.97184,1321.2411 223.26219,1316.8514 224.60703,1314.2779 C 231.15699,1301.7438 239.15433,1288.3558 238.75251,1272.8298 C 238.54473,1264.8013 236.43732,1257.3943 238.55133,1254.4155 C 238.55133,1254.4155 226.44381,1227.5099 281.60032,1185.9983 C 288.53054,1180.7826 292.69751,1173.6215 299.31348,1165.8652 C 325.99885,1134.5806 359.79107,1097.2531 411.13164,1092.5974 C 411.13164,1092.5974 489.42322,1087.764 498.95925,1176.0048 C 506.83875,1248.9171 435.14015,1303.2907 561.4594,1321.6023 L 561.4594,1321.6023 C 561.4594,1321.6023 555.27245,1336.9748 518.558,1336.6999 C 481.05137,1336.4181 469.22853,1339.4178 491.9228,1368.0914 C 491.9228,1368.0914 489.88439,1374.7502 472.76176,1370.5375 C 457.20945,1366.7112 424.87441,1340.8634 414.18029,1346.1838 C 406.97679,1349.6988 415.76981,1373.1444 419.3955,1378.854 C 419.3955,1378.854 413.10435,1390.378 371.38493,1363.7428 C 329.66551,1337.1076 325.99638,1357.7635 325.5887,1382.9039 C 325.5887,1382.9039 296.44872,1356.3972 296.47747,1316.1234 C 296.49128,1296.7904 305.02776,1271.2135 333.48971,1259.0279 C 378.10089,1239.9281 451.49006,1228.663 452.45097,1175.8126 L 452.45097,1175.8126 C 452.45097,1175.8126 452.64316,1131.8028 406.51924,1140.8353 C 360.39533,1149.8679 327.39496,1204.2908 321.92577,1212.1585 C 316.97236,1219.2843 323.88057,1236.5425 305.23882,1260.181 C 299.15857,1267.891 282.68252,1275.1945 277.53189,1278.0942 z"
     id="path3237"
  />
  <rect
     fill="#fff"
     id="rect3483"
     y="792.73944"
     x="719.27411"
     height="66.821594"
     width="25.809397" />
  <path
     id="path2403"
     fill="#605e5d"
     d="M 717.77115,791.25 L 717.77115,861.0625 L 746.87091,861.0625 L 746.87091,791.25 L 717.77115,791.25 z M 720.77115,794.25 L 742.96493,794.25 L 742.96493,858.0625 L 720.77115,858.0625 L 720.77115,794.25 z" />
  <path
     style="fill:#fff;stroke:#605e5d;stroke-width:2.5;stroke-linejoin:round"
     id="rect3489"
     d="M 25.33365,745.625 L 31.4274,751.46875 L 534.27115,805.90625 L 557.14615,786.59375 L 562.58365,786.59375 C 566.97648,786.54077 579.18559,788.61341 597.27115,809.15625 L 597.64615,809.125 L 597.64615,848.28125 L 720.1149,848.28125 L 720.1149,806.3125 L 618.14615,806.3125 C 614.63419,802.742 611.15811,799.16424 607.64615,795.59375 C 595.74571,783.49498 582.81506,771.66907 565.64615,767.96875 L 544.95865,745.625 L 25.33365,745.625 z" />
  <path
     style="opacity:1;fill:none;fill-rule:evenodd;stroke:#a8a7a6;stroke-width:3.99999976;stroke-linecap:round;stroke-linejoin:miter;stroke-miterlimit:4;stroke-dasharray:none;stroke-opacity:1"
     id="path3513"
     d="M 564.66022,777.75549 C 564.66022,777.75549 588.59904,780.83391 603.37468,802.15483" />
  <path
     style="opacity:1;fill:none;fill-rule:evenodd;stroke:#393633;stroke-width:4;stroke-linecap:round;stroke-linejoin:miter;stroke-miterlimit:4;stroke-dasharray:none;stroke-opacity:1"
     id="path3511"
     d="M 560.77115,779.14343 C 560.77115,779.14343 586.89615,782.51843 603.02115,805.89343" />
  <path
     style="opacity:1;fill:#393633;fill-opacity:1;fill-rule:evenodd;stroke:none;stroke-width:2.5;stroke-linecap:butt;stroke-linejoin:round;marker:none;marker-start:none;marker-mid:none;marker-end:none;stroke-miterlimit:4;stroke-dasharray:none;stroke-dashoffset:0;stroke-opacity:1;visibility:visible;display:inline;overflow:visible;enable-background:accumulate"
     id="path3517"
     d="M 34.8649,749.625 C 34.8649,749.625 526.8649,801.0625 526.8649,801.0625 C 526.8649,801.0625 550.6774,781.375 550.6774,781.375 C 550.6774,781.375 525.27116,792.40624 525.27115,792.40625 C 525.27115,792.40625 34.8649,749.625 34.8649,749.625 z" />
  <path
     id="rect3485"
     style="fill:#a8a7a6;fill-opacity:1;fill-rule:evenodd;stroke:none;stroke-width:3;stroke-linecap:butt;stroke-linejoin:miter;stroke-miterlimit:4;stroke-dashoffset:0;stroke-opacity:1;marker:none;marker-start:none;marker-mid:none;marker-end:none;visibility:visible;display:inline;overflow:visible;enable-background:accumulate"
     d="M 725.10773,802.28534 L 733.06268,802.28534 L 733.06268,854.58945 L 725.10773,854.58945 L 725.10773,802.28534 zM 601.40625,827.28125 L 601.40625,839.28125 L 717.40625,839.28125 L 717.40625,827.28125 L 601.40625,827.28125 zM 564.77115,771.875 C 564.77115,771.875 550.47122,756.92986 543.2399,749.625 C 528.61455,749.625 513.98919,749.625 499.36384,749.625 C 499.36384,749.625 533.7469,751.19688 564.77115,771.875 zM 525.27336,792.40963 C 525.27336,792.40963 550.69004,781.38945 550.69004,781.38945 C 550.69004,781.38945 34.8649,749.625 34.8649,749.625 C 34.8649,749.625 525.27336,792.40963 525.27336,792.40963 z" />
  <rect
     style="opacity:1;fill:none;fill-opacity:1;fill-rule:evenodd;stroke:none;stroke-width:3;stroke-linecap:round;stroke-linejoin:round;marker:none;marker-start:none;marker-mid:none;marker-end:none;stroke-miterlimit:4;stroke-dasharray:none;stroke-dashoffset:0;stroke-opacity:1;visibility:visible;display:inline;overflow:visible;enable-background:accumulate"
     id="rect3409"
     y="643.15515"
     x="0.50001657"
     height="298"
     width="780" />
  <path
     style="opacity:1;fill:none;fill-opacity:1;fill-rule:evenodd;stroke:#000000;stroke-width:4;stroke-linecap:butt;stroke-linejoin:round;stroke-miterlimit:4;stroke-dasharray:none;stroke-opacity:1"
     id="path3381"
     d="M 778.95968,644.07021 L 779.00004,1429.7024 C 779.00004,1500.5831 721.5476,1558.1094 650.75802,1558.1094 C 650.75802,1558.1094 490.39067,1558.1118 490.39067,1558.1118 C 464.79375,1558.2259 449.55464,1565.6104 435.75669,1575.8671 C 410.43955,1594.5935 390.63909,1628.0093 390.50002,1628.0093 C 390.36095,1628.0093 370.56049,1594.5935 345.24334,1575.8671 C 331.4454,1565.6104 316.20629,1558.2259 290.60936,1558.1118 C 290.60936,1558.1118 130.24202,1558.1094 130.24202,1558.1094 C 59.45243,1558.1094 2,1500.5831 2,1429.7024 L 2.04036,644.07021 L 778.95968,644.07021 z" />
  <path
     style="opacity:1;fill:none;fill-rule:evenodd;stroke:#393633;stroke-width:3;stroke-linecap:round;stroke-linejoin:round;stroke-miterlimit:4;stroke-dasharray:none;stroke-opacity:1"
     id="path3565"
     d="M 237.64615,1302.7059 C 237.64615,1302.7059 229.64615,1306.2059 233.08365,1311.5809 M 241.0047,1253.0659 C 241.0047,1253.0659 251.87647,1255.1872 261.15725,1247.6742 M 269.20059,1220.9809 C 269.20059,1220.9809 280.69107,1219.6551 285.19888,1232.383 M 279.45363,1223.8094 C 279.45363,1223.8094 284.49177,1212.4073 298.81068,1213.1144" />
  <path
     style="opacity:1;fill:#a8a7a6;fill-opacity:1;fill-rule:evenodd;stroke:#393633;stroke-width:2.5;stroke-linecap:round;stroke-linejoin:round;marker:none;marker-start:none;marker-mid:none;marker-end:none;stroke-miterlimit:4;stroke-dasharray:none;stroke-dashoffset:0;stroke-opacity:1;visibility:visible;display:inline;overflow:visible;enable-background:accumulate"
     id="path3599"
     d="M 278.83487,1236.8908 C 278.83487,1242.8951 273.96741,1247.7626 267.9631,1247.7626 C 261.95879,1247.7626 257.09133,1242.8951 257.09133,1236.8908 C 257.09133,1230.8865 261.95879,1226.019 267.9631,1226.019 C 273.96741,1226.019 278.83487,1230.8865 278.83487,1236.8908 z" />
  <path
     style="opacity:1;fill:#1f1a17;fill-opacity:1;fill-rule:evenodd;stroke:none;stroke-width:1.50406516;stroke-linecap:round;stroke-linejoin:round;marker:none;marker-start:none;marker-mid:none;marker-end:none;stroke-miterlimit:4;stroke-dasharray:none;stroke-dashoffset:0;stroke-opacity:1;visibility:visible;display:inline;overflow:visible;enable-background:accumulate"
     id="path3601"
     d="M 274.0619,1237.156 C 274.0619,1241.0124 270.93565,1244.1387 267.07922,1244.1387 C 263.22279,1244.1387 260.09654,1241.0124 260.09654,1237.156 C 260.09654,1233.2996 263.22279,1230.1733 267.07922,1230.1733 C 270.93565,1230.1733 274.0619,1233.2996 274.0619,1237.156 z" />
  <path
     style="opacity:1;fill:#ffffff;fill-opacity:1;fill-rule:evenodd;stroke:none;stroke-width:1.50406516;stroke-linecap:round;stroke-linejoin:round;marker:none;marker-start:none;marker-mid:none;marker-end:none;stroke-miterlimit:4;stroke-dasharray:none;stroke-dashoffset:0;stroke-opacity:1;visibility:visible;display:inline;overflow:visible;enable-background:accumulate"
     id="path3603"
     d="M 267.0792,1239.0121 C 267.0792,1240.5254 265.85244,1241.7522 264.33916,1241.7522 C 262.82588,1241.7522 261.59912,1240.5254 261.59912,1239.0121 C 261.59912,1237.4988 262.82588,1236.2721 264.33916,1236.2721 C 265.85244,1236.2721 267.0792,1237.4988 267.0792,1239.0121 z" />
  <path
     id="path3590"
     style="opacity:1;fill:#a8a7a6;fill-opacity:1;fill-rule:evenodd;stroke:none;stroke-width:1px;stroke-linecap:butt;stroke-linejoin:miter;stroke-opacity:1"
     d="M 266.8141,1251.9169 L 266.8141,1251.9169 C 266.8141,1251.9169 257.17977,1248.0278 256.29589,1257.1318 C 255.412,1266.2358 250.52866,1278.2724 247.98738,1281.8805 C 247.22773,1282.9591 247.4871,1284.8842 249.95532,1283.4592 C 251.0445,1282.8304 263.36695,1272.3346 263.36695,1272.3346 C 263.36695,1272.3346 264.47181,1272.5997 263.19018,1274.5885 C 261.90855,1276.5772 242.86086,1309.2809 232.25426,1322.274 C 232.25426,1322.274 232.6962,1324.3953 234.46396,1324.2185 C 236.23173,1324.0418 265.93022,1290.7194 273.00128,1278.345 C 273.00128,1278.345 271.05674,1277.0192 272.1174,1273.9256 C 272.1174,1273.9256 266.0186,1261.1977 266.8141,1251.9169 zM 291.56284,1180.5875 C 291.20928,1180.5875 284.49177,1184.6533 288.11569,1190.045 C 291.73961,1195.4367 294.03771,1193.669 297.39647,1210.286 C 297.39647,1210.286 302.4346,1196.3206 291.56284,1180.5875 zM 300.04065,1216.0262 C 300.04065,1216.0262 319.88115,1226.0823 309.28143,1245.5152 C 298.68171,1264.948 283.82123,1270.3673 282.0546,1270.639 C 280.97412,1270.8053 278.29617,1271.4872 276.72028,1269.8873 C 274.68104,1267.8166 276.38113,1265.6634 279.24608,1264.6492 C 283.86082,1262.9968 311.77304,1244.3259 300.04065,1216.0262 zM 321.76656,1358.7708 C 321.76656,1358.7708 309.08248,1346.2789 307.16065,1324.7544 C 305.23882,1303.23 309.73043,1280.3467 326.57113,1276.5165 C 332.42537,1275.1851 338.46536,1280.4349 335.69749,1282.5382 C 321.19769,1293.5567 311.14608,1314.0667 321.76656,1358.7708 zM 310.90822,1200.5082 C 310.90822,1200.5082 318.78772,1197.8176 318.78772,1207.715 L 319.26818,1207.715 C 335.79591,1181.7703 373.46377,1141.6041 408.82544,1136.0308 C 444.1871,1130.4575 457.8321,1161.5911 457.8321,1161.5911 C 457.28305,1136.973 427.59274,1122.8778 405.57237,1127.6719 C 355.42272,1137.6281 310.90822,1200.5082 310.90822,1200.5082 L 310.90822,1200.5082 zM 479.96414,1144.4101 C 479.96414,1144.4101 503.0661,1150.5253 489.7485,1210.5904 C 476.4309,1270.6555 468.26852,1276.7157 482.41023,1296.4754 C 487.92025,1304.1743 504.76992,1314.0489 518.14915,1318.2266 C 518.14915,1318.2266 478.28721,1327.034 461.48957,1292.6342 C 452.92537,1273.8924 464.40544,1253.3811 471.09631,1235.9917 C 473.77438,1225.5938 494.40011,1170.8831 479.96414,1144.4101 z" />
  <path
 
     id="path3267"
     d="M 207.80206,583.79585 C 207.80206,583.79585 224.67318,600.78756 264.00709,586.91741 C 269.30603,585.04887 273.0733,582.45393 278.03798,581.52717 C 278.03798,581.52717 250.47696,540.45218 245.28575,533.57815 C 241.50303,528.56921 235.35372,520.78843 219.86148,520.669 C 211.14483,520.60181 202.50518,529.3695 185.03404,530.92905 C 177.41035,523.78613 145.23001,514.36551 128.50775,525.35292 C 122.54791,531.0755 119.39368,538.1794 141.7739,570.37848 C 153.17916,586.78755 145.36521,588.80305 168.80893,591.18475 C 194.89849,590.33007 195.69454,582.83494 207.80206,583.79585 z"
     style="fill:#2b2c7c" />
  <path
     style="fill:none;stroke:#203051;stroke-width:6"
     d="M 175.69385,565.14045 C 194.24799,563.63596 207.80206,583.79585 207.80206,583.79585 C 195.69454,582.83494 194.89849,590.33007 168.80893,591.18475 C 145.36521,588.80305 153.17916,586.78755 141.7739,570.37848 C 119.39368,538.1794 122.54791,531.0755 128.50775,525.35292 C 145.23001,514.36551 177.41035,523.78613 185.64073,531.8405 C 197.34479,543.29427 214.54778,539.04454 214.54778,539.04454 M 207.80206,583.79585 C 207.80206,583.79585 224.67318,600.78756 264.00709,586.91741 C 269.30603,585.04887 273.0733,582.45393 278.03798,581.52717 C 278.03798,581.52717 250.47696,540.45218 245.28575,533.57815 C 241.50303,528.56921 235.35372,520.78843 219.86148,520.669 C 211.14483,520.60181 202.50518,529.3695 184.42735,530.0176"
     id="path3261" />
  <use
     x="0"
     y="0"
     xlink:href="#path3267"
     id="use3269"
     transform="translate(259.82909,0)"
     width="744.09448"
     height="1052.3622"
     style="opacity:1" />
  <use
     x="0"
     y="0"
     xlink:href="#path3261"
     id="use3271"
     transform="translate(259.82909,0)"
     width="744.09448"
     height="1052.3622"
     style="opacity:1" />
  <path
     style="opacity:1;fill:#2b2c7c;fill-opacity:1;fill-rule:evenodd;stroke:none;stroke-width:6;stroke-linecap:round;stroke-linejoin:round;stroke-miterlimit:4;stroke-dasharray:none;stroke-opacity:1"
     d="M 723.88037,583.02712 C 759.11665,598.32574 774.0941,588.10683 776.61267,574.07715 C 778.99629,560.79923 776.46034,548.49213 766.16864,542.0342 C 766.92248,510.29157 707.76061,523.76903 702.7459,531.79387 C 696.47269,522.26663 676.29859,513.59678 641.8955,530.34967 C 635.93566,536.07226 636.24163,538.44934 659.00531,570.37848 C 666.18254,580.44551 671.24485,590.53269 691.22928,591.37694 C 707.13314,592.2519 711.77285,582.06621 723.88037,583.02712 z"
     id="path3277" />
  <path
     id="path3275"
     d="M 691.96435,573.5965 C 713.40123,569.97799 723.88037,583.02712 723.88037,583.02712 C 711.77285,582.06621 707.13314,592.2519 691.22928,591.37694 C 671.24485,590.53269 666.18254,580.44551 659.00531,570.37848 C 636.24163,538.44934 635.93566,536.07226 641.8955,530.34967 C 676.29859,513.59678 696.47269,522.26663 702.87214,531.8405 C 715.15275,550.21286 732.16356,546.73186 732.16356,546.73186 M 723.88037,583.02712 C 759.11665,598.32574 774.0941,588.10683 776.61267,574.07715 C 778.99629,560.79923 776.46034,548.49213 766.16864,542.0342 C 766.92248,510.29157 707.76061,523.76903 702.61967,531.74724"
     style="opacity:1;fill:none;fill-rule:evenodd;stroke:#203051;stroke-width:6;stroke-linecap:round;stroke-linejoin:round;stroke-miterlimit:4;stroke-dasharray:none;stroke-opacity:1" />
  <path
     style="fill:#ffffff"
     d="M 90.76263,537.95739 C 90.76263,537.95739 75.96455,541.41668 62.12737,532.38408 C 48.2902,523.35148 19.27057,513.55015 10.43015,525.08113 C 1.58974,536.61211 3.70375,565.24737 17.73311,571.97377 L 17.73311,571.97377 C 17.73311,571.97377 14.59873,593.62906 45.40746,592.72953 C 71.9287,591.9608 70.00688,584.46566 82.1144,585.42658 C 82.1144,585.42658 103.06234,602.1465 133.42725,587.73277 C 138.50315,585.32333 143.30882,582.72572 148.2735,581.79896 C 148.2735,581.79896 121.70409,534.88246 114.97769,529.50134 C 108.25128,524.12021 77.69419,510.28304 63.08829,532.1919"
     id="path3241" />
  <path
     style="fill:none;stroke:#393633;stroke-width:6"
     d="M 82.1144,585.42658 C 82.1144,585.42658 103.06234,602.1465 133.42725,587.73277 C 138.50315,585.32333 143.30882,582.72572 148.2735,581.79896 C 148.2735,581.79896 121.70409,534.88246 114.97769,529.50134 C 108.25128,524.12021 77.69419,510.28304 63.08829,532.1919 M 90.76263,537.95739 C 90.76263,537.95739 75.96455,541.41668 62.12737,532.38408 C 48.2902,523.35148 19.27057,513.55015 10.43015,525.08113 C 1.60346,542.37965 4.87503,564.30066 17.73311,571.97377 C 17.73311,571.97377 28.87971,562.17244 13.3129,550.64146 M 17.73311,571.97377 C 20.80588,573.80746 14.59873,593.62906 45.40746,592.72953 C 71.9287,591.9608 70.00688,584.46566 82.1144,585.42658 C 82.1144,585.42658 74.81145,567.1692 51.36513,568.13011"
     id="path3239" />
  <path
     style="opacity:1;fill:#ffffff;fill-rule:evenodd;stroke:none;stroke-width:6;stroke-linecap:round;stroke-linejoin:round;stroke-miterlimit:4;stroke-dasharray:none;stroke-opacity:1"
     d="M 318.89747,530.56117 C 333.50337,508.65231 364.06046,524.12021 370.78687,529.50134 C 377.51327,534.88246 404.08268,581.79896 404.08268,581.79896 C 399.118,582.72572 395.39948,582.06188 390.32358,584.47132 C 359.95867,598.88504 339.01073,582.16513 339.01073,582.16513 C 326.90321,581.20421 326.92252,591.14544 300.83296,592.00012 C 281.19427,589.61841 284.64795,585.98517 272.16721,570.37848 C 248.15626,540.3537 251.85407,535.96768 257.27033,525.35292 C 266.11075,513.82194 304.09938,521.72075 317.93655,530.75335"
     id="path3253" />
  <path
     id="path3249"
     d="M 308.26146,564.86866 C 331.70778,563.90774 339.01073,582.16513 339.01073,582.16513 C 326.90321,581.20421 326.92252,591.14544 300.83296,592.00012 C 281.19427,589.61841 284.64795,585.98517 272.16721,570.37848 C 248.15626,540.3537 251.85407,535.96768 257.27033,525.35292 C 266.11075,513.82194 304.09938,521.72075 317.93655,530.75335 C 331.77373,539.78595 346.57181,536.32666 346.57181,536.32666 M 339.01073,582.16513 C 339.01073,582.16513 359.95867,598.88504 390.32358,584.47132 C 395.39948,582.06188 399.118,582.72572 404.08268,581.79896 C 404.08268,581.79896 377.51327,534.88246 370.78687,529.50134 C 364.06046,524.12021 333.50337,508.65231 318.89747,530.56117"
     style="opacity:1;fill:none;fill-rule:evenodd;stroke:#393633;stroke-width:6;stroke-linecap:round;stroke-linejoin:round;stroke-miterlimit:4;stroke-dasharray:none;stroke-opacity:1" />
  <use
     x="0"
     y="0"
     xlink:href="#path3253"
     id="use3255"
     transform="translate(260.91624,0)"
     width="744.09448"
     height="1052.3622"
     style="opacity:1" />
  <use
     x="0"
     y="0"
     xlink:href="#path3249"
     id="use3257"
     transform="translate(260.91624,0)"
     width="744.09448"
     height="1052.3622"
     style="opacity:1" />
  <path
     style="fill:#ffffff"
     id="path3454"
     d="M 388.89615,3 C 367.36815,2.99999 349.89615,20.472 349.89615,42 C 349.89615,51.93074 353.62099,60.98734 359.7399,67.875 L 355.02115,72.59375 C 347.96463,65.55303 338.23807,61.1875 327.4899,61.1875 C 305.9619,61.18751 288.4899,78.6595 288.4899,100.1875 C 288.4899,121.71551 305.9619,139.1875 327.4899,139.1875 C 335.29258,139.1875 342.54787,136.88915 348.64615,132.9375 L 348.64615,226.1875 L 255.39615,226.1875 C 259.3478,220.08922 261.64615,212.83393 261.64615,205.03125 C 261.64615,183.50325 244.17416,166.03125 222.64615,166.03125 C 201.11815,166.03125 183.64616,183.50325 183.64615,205.03125 C 183.64615,215.77942 188.01168,225.50598 195.0524,232.5625 L 190.33365,237.28125 C 183.44599,231.16234 174.38939,227.4375 164.45865,227.4375 C 142.93065,227.4375 125.45864,244.9095 125.45865,266.4375 C 125.45864,287.9655 142.93065,305.4375 164.45865,305.4375 C 174.38939,305.4375 183.44599,301.71266 190.33365,295.59375 L 195.0524,300.3125 C 188.01168,307.36902 183.64615,317.09558 183.64615,327.84375 C 183.64616,349.37175 201.11815,366.84375 222.64615,366.84375 C 244.17416,366.84375 261.64615,349.37175 261.64615,327.84375 C 261.64615,320.04107 259.3478,312.78578 255.39615,306.6875 L 348.64615,306.6875 L 348.64615,399.9375 C 342.54787,395.98585 335.29258,393.6875 327.4899,393.6875 C 305.9619,393.6875 288.4899,411.15949 288.4899,432.6875 C 288.4899,454.2155 305.9619,471.68749 327.4899,471.6875 C 338.23807,471.6875 347.96463,467.32197 355.02115,460.28125 L 359.7399,465 C 353.62099,471.88766 349.89615,480.94426 349.89615,490.875 C 349.89615,512.403 367.36815,529.87501 388.89615,529.875 C 410.42415,529.87501 427.89615,512.403 427.89615,490.875 C 427.89615,480.94426 424.17131,471.88766 418.0524,465 L 422.77115,460.28125 C 429.82767,467.32197 439.55423,471.6875 450.3024,471.6875 C 471.8304,471.68749 489.3024,454.2155 489.3024,432.6875 C 489.3024,411.15949 471.8304,393.6875 450.3024,393.6875 C 442.49972,393.6875 435.24443,395.98585 429.14615,399.9375 L 429.14615,306.6875 L 522.39615,306.6875 C 518.4445,312.78578 516.14615,320.04107 516.14615,327.84375 C 516.14615,349.37175 533.61814,366.84375 555.14615,366.84375 C 576.67415,366.84375 594.14614,349.37175 594.14615,327.84375 C 594.14615,317.09558 589.78062,307.36902 582.7399,300.3125 L 587.45865,295.59375 C 594.34631,301.71266 603.40291,305.4375 613.33365,305.4375 C 634.86165,305.4375 652.33366,287.9655 652.33365,266.4375 C 652.33366,244.9095 634.86165,227.4375 613.33365,227.4375 C 603.40291,227.4375 594.34631,231.16234 587.45865,237.28125 L 582.7399,232.5625 C 589.78062,225.50598 594.14615,215.77942 594.14615,205.03125 C 594.14614,183.50325 576.67415,166.03125 555.14615,166.03125 C 533.61814,166.03125 516.14615,183.50325 516.14615,205.03125 C 516.14615,212.83393 518.4445,220.08922 522.39615,226.1875 L 429.14615,226.1875 L 429.14615,132.9375 C 435.24443,136.88915 442.49972,139.1875 450.3024,139.1875 C 471.8304,139.1875 489.3024,121.71551 489.3024,100.1875 C 489.3024,78.6595 471.8304,61.18751 450.3024,61.1875 C 439.55423,61.1875 429.82767,65.55303 422.77115,72.59375 L 418.0524,67.875 C 424.17131,60.98734 427.89615,51.93074 427.89615,42 C 427.89615,20.472 410.42415,2.99999 388.89615,3 z" />
  <path
     style="fill:#c42e40"
     d="M 388.89615,3 C 367.36815,2.99999 349.89615,20.472 349.89615,42 C 349.89615,51.93074 353.62099,60.98734 359.7399,67.875 L 355.02115,72.59375 C 347.96463,65.55303 338.23807,61.1875 327.4899,61.1875 C 305.9619,61.18751 288.4899,78.6595 288.4899,100.1875 C 288.4899,121.71551 305.9619,139.1875 327.4899,139.1875 C 335.29258,139.1875 342.54787,136.88915 348.64615,132.9375 L 348.64615,226.1875 L 255.39615,226.1875 C 259.3478,220.08922 261.64615,212.83393 261.64615,205.03125 C 261.64615,183.50325 244.17416,166.03125 222.64615,166.03125 C 201.11815,166.03125 183.64616,183.50325 183.64615,205.03125 C 183.64615,215.77942 188.01168,225.50598 195.0524,232.5625 L 190.33365,237.28125 C 183.44599,231.16234 174.38939,227.4375 164.45865,227.4375 C 142.93065,227.4375 125.45864,244.9095 125.45865,266.4375 C 125.45865,266.4375 143.44444,266.4375 161.1774,266.4375 C 182.16838,266.4375 203.45864,266.4375 203.45865,266.4375 L 230.89615,266.4375 L 286.1774,266.4375 L 348.64615,266.4375 L 388.89615,266.4375 L 388.89615,226.1875 L 388.89615,163.71875 L 388.89615,108.4375 L 388.89615,81 C 388.89615,80.99999 388.89615,59.70973 388.89615,38.71875 C 388.89615,20.98579 388.89615,3 388.89615,3 z M 388.89615,266.4375 L 388.89615,306.6875 L 388.89615,369.15625 L 388.89615,424.4375 L 388.89615,451.875 C 388.89615,451.87501 388.89615,473.16527 388.89615,494.15625 C 388.89615,511.88921 388.89615,529.875 388.89615,529.875 C 410.42415,529.87501 427.89615,512.403 427.89615,490.875 C 427.89615,480.94426 424.17131,471.88766 418.0524,465 L 422.77115,460.28125 C 429.82767,467.32197 439.55423,471.6875 450.3024,471.6875 C 471.8304,471.68749 489.3024,454.2155 489.3024,432.6875 C 489.3024,411.15949 471.8304,393.6875 450.3024,393.6875 C 442.49972,393.6875 435.24443,395.98585 429.14615,399.9375 L 429.14615,306.6875 L 522.39615,306.6875 C 518.4445,312.78578 516.14615,320.04107 516.14615,327.84375 C 516.14615,349.37175 533.61814,366.84375 555.14615,366.84375 C 576.67415,366.84375 594.14614,349.37175 594.14615,327.84375 C 594.14615,317.09558 589.78062,307.36902 582.7399,300.3125 L 587.45865,295.59375 C 594.34631,301.71266 603.40291,305.4375 613.33365,305.4375 C 634.86165,305.4375 652.33366,287.9655 652.33365,266.4375 C 652.33365,266.4375 634.34786,266.4375 616.6149,266.4375 C 595.62392,266.4375 574.33366,266.4375 574.33365,266.4375 L 546.89615,266.4375 L 491.6149,266.4375 L 429.14615,266.4375 L 388.89615,266.4375 z"
     id="path51" />
  <path
     style="fill:none;stroke:#000000;stroke-width:6"
     d="M 388.89615,3 C 367.36815,2.99999 349.89615,20.472 349.89615,42 C 349.89615,51.93074 353.62099,60.98734 359.7399,67.875 L 355.02115,72.59375 C 347.96463,65.55303 338.23807,61.1875 327.4899,61.1875 C 305.9619,61.18751 288.4899,78.6595 288.4899,100.1875 C 288.4899,121.71551 305.9619,139.1875 327.4899,139.1875 C 335.29258,139.1875 342.54787,136.88915 348.64615,132.9375 L 348.64615,226.1875 L 255.39615,226.1875 C 259.3478,220.08922 261.64615,212.83393 261.64615,205.03125 C 261.64615,183.50325 244.17416,166.03125 222.64615,166.03125 C 201.11815,166.03125 183.64616,183.50325 183.64615,205.03125 C 183.64615,215.77942 188.01168,225.50598 195.0524,232.5625 L 190.33365,237.28125 C 183.44599,231.16234 174.38939,227.4375 164.45865,227.4375 C 142.93065,227.4375 125.45864,244.9095 125.45865,266.4375 C 125.45864,287.9655 142.93065,305.4375 164.45865,305.4375 C 174.38939,305.4375 183.44599,301.71266 190.33365,295.59375 L 195.0524,300.3125 C 188.01168,307.36902 183.64615,317.09558 183.64615,327.84375 C 183.64616,349.37175 201.11815,366.84375 222.64615,366.84375 C 244.17416,366.84375 261.64615,349.37175 261.64615,327.84375 C 261.64615,320.04107 259.3478,312.78578 255.39615,306.6875 L 348.64615,306.6875 L 348.64615,399.9375 C 342.54787,395.98585 335.29258,393.6875 327.4899,393.6875 C 305.9619,393.6875 288.4899,411.15949 288.4899,432.6875 C 288.4899,454.2155 305.9619,471.68749 327.4899,471.6875 C 338.23807,471.6875 347.96463,467.32197 355.02115,460.28125 L 359.7399,465 C 353.62099,471.88766 349.89615,480.94426 349.89615,490.875 C 349.89615,512.403 367.36815,529.87501 388.89615,529.875 C 410.42415,529.87501 427.89615,512.403 427.89615,490.875 C 427.89615,480.94426 424.17131,471.88766 418.0524,465 L 422.77115,460.28125 C 429.82767,467.32197 439.55423,471.6875 450.3024,471.6875 C 471.8304,471.68749 489.3024,454.2155 489.3024,432.6875 C 489.3024,411.15949 471.8304,393.6875 450.3024,393.6875 C 442.49972,393.6875 435.24443,395.98585 429.14615,399.9375 L 429.14615,306.6875 L 522.39615,306.6875 C 518.4445,312.78578 516.14615,320.04107 516.14615,327.84375 C 516.14615,349.37175 533.61814,366.84375 555.14615,366.84375 C 576.67415,366.84375 594.14614,349.37175 594.14615,327.84375 C 594.14615,317.09558 589.78062,307.36902 582.7399,300.3125 L 587.45865,295.59375 C 594.34631,301.71266 603.40291,305.4375 613.33365,305.4375 C 634.86165,305.4375 652.33366,287.9655 652.33365,266.4375 C 652.33366,244.9095 634.86165,227.4375 613.33365,227.4375 C 603.40291,227.4375 594.34631,231.16234 587.45865,237.28125 L 582.7399,232.5625 C 589.78062,225.50598 594.14615,215.77942 594.14615,205.03125 C 594.14614,183.50325 576.67415,166.03125 555.14615,166.03125 C 533.61814,166.03125 516.14615,183.50325 516.14615,205.03125 C 516.14615,212.83393 518.4445,220.08922 522.39615,226.1875 L 429.14615,226.1875 L 429.14615,132.9375 C 435.24443,136.88915 442.49972,139.1875 450.3024,139.1875 C 471.8304,139.1875 489.3024,121.71551 489.3024,100.1875 C 489.3024,78.6595 471.8304,61.18751 450.3024,61.1875 C 439.55423,61.1875 429.82767,65.55303 422.77115,72.59375 L 418.0524,67.875 C 424.17131,60.98734 427.89615,51.93074 427.89615,42 C 427.89615,20.472 410.42415,2.99999 388.89615,3 z"
     id="path53" />
  <path
     style="opacity:1;fill:none;fill-opacity:1;fill-rule:evenodd;stroke:#393633;stroke-width:4;stroke-linecap:butt;stroke-linejoin:round;marker:none;marker-start:none;marker-mid:none;marker-end:none;stroke-miterlimit:4;stroke-dasharray:none;stroke-dashoffset:0;stroke-opacity:1;visibility:visible;display:inline;overflow:visible;enable-background:accumulate"
     id="path3491"
     d="M 600.41265,840.76844 L 718.87973,840.76844 M 718.14619,809.5349 L 718.14619,846.00198" />
  <path
     style="opacity:1;fill:none;fill-rule:evenodd;stroke:#393633;stroke-width:2.5;stroke-linecap:butt;stroke-linejoin:round;stroke-miterlimit:4;stroke-dasharray:none;stroke-opacity:1"
     id="path3487"
     d="M 725.28445,801.04791 L 725.28445,854.78802 L 741.72472,854.78802" />
  <path
     style="opacity:1;fill:#393633;fill-opacity:1;fill-rule:evenodd;stroke:none;stroke-width:3;stroke-linecap:round;stroke-linejoin:round;marker:none;stroke-miterlimit:4;stroke-dasharray:none;stroke-dashoffset:0;stroke-opacity:1;visibility:visible;display:inline;overflow:visible;enable-background:accumulate"
     id="path3574"
     d="M 266.39615,1250.9375 C 265.24995,1250.8571 265.73989,1252.8125 265.7399,1252.8125 C 266.86621,1265.1427 269.06943,1270.0191 270.39615,1271.9063 C 270.25748,1272.0344 270.13574,1272.1681 270.0524,1272.3438 C 254.57657,1302.4288 232.02115,1322.125 232.02115,1322.125 C 231.3912,1322.6773 231.31262,1323.6513 231.8649,1324.2813 C 232.41718,1324.9112 233.3912,1324.9585 234.02115,1324.4063 C 234.02115,1324.4063 256.13057,1305.0807 271.8649,1275.3438 C 273.18089,1275.1641 275.03123,1274.3862 272.39615,1271.0938 C 267.90074,1265.4769 267.8649,1254.133 267.8649,1252.7188 C 267.8649,1251.3045 266.9899,1251.125 266.9899,1251.125 C 266.75236,1251.02 266.55989,1250.949 266.39615,1250.9375 z" />
</svg>
