<?xml version="1.0" encoding="UTF-8" standalone="no"?>

<svg
   xmlns:svg="http://www.w3.org/2000/svg"
   xmlns="http://www.w3.org/2000/svg"
   version="1.0"
   width="790"
   height="975"
   id="svg2298">
  <defs
     id="defs2301" />
  <g
     transform="translate(-6.21867e-2,0.1865625)"
     id="g2307">
    <path
       d="M 393.46362,974.23469 C 392.89361,973.83061 388.69529,968.90577 384.13401,963.29061 C 368.06493,943.50873 349.0375,930.15924 325,921.80265 L 315.5,918.5 L 208,918.27643 C 89.788968,918.03059 95.684537,918.3227 77,911.78575 C 55.471034,904.25366 34.252248,888.1643 22.069436,870.1341 C 10.331906,852.7629 3.5696289,833.05417 1.0097138,808.75529 C -0.52737109,794.16518 -0.34088584,2.7408858 1.2,1.2 C 2.9490164,-0.54901642 787.05098,-0.54901642 788.8,1.2 C 790.34089,2.7408858 790.52737,794.16518 788.99029,808.75529 C 786.43037,833.05417 779.66809,852.7629 767.93056,870.1341 C 755.74775,888.1643 734.52897,904.25366 713,911.78575 C 694.31622,918.32243 700.21052,918.03039 582,918.27634 L 474.5,918.5 L 465,921.80265 C 440.9625,930.15924 421.93507,943.50873 405.86599,963.29061 C 397.9835,972.99436 396.14594,974.96937 395,974.96937 C 394.725,974.96937 394.03363,974.63877 393.46362,974.23469 z M 399.92935,958.47588 C 405.973,950.90197 419.1582,938.40392 427,932.81603 C 434.86517,927.21148 447.49262,920.25695 454.98976,917.40076 C 458.02039,916.24618 460.37159,914.89618 460.21465,914.40076 L 397.5,852.99811 L 366.27551,884.74906 C 349.10204,902.21208 335.03954,916.78872 335.02551,917.14159 C 335.01148,917.49447 336.05312,918.0475 337.34027,918.37055 C 340.80737,919.24074 355.56085,927.55788 363,932.836 C 370.81532,938.38101 384.0023,950.87102 390.07065,958.47588 C 392.49506,961.51415 394.71326,964 395,964 C 395.28674,964 397.50494,961.51415 399.92935,958.47588 z M 187.2593,576.5 L 118.5,504.05208 L 87,504 L 87,480 L 188.66925,480 L 187.72896,463.75701 L 156.5,421.07686 L 132,421 L 132,399 L 188,399 L 188,379.72999 C 194.92694,370.32181 199.39135,358.83573 207.15337,350.03543 L 225.85667,378.5 L 227.25405,397.728 L 284,399 L 284,421 L 261.17996,421 L 243.83998,443.05977 C 234.30299,455.19264 226.5375,465.76764 226.58333,466.55977 L 227,481.27772 L 327,479.80187 L 327,504 L 295.5,504.17063 L 226.77688,577.21835 C 227.6665,682.39025 226.88895,787.58555 228.62018,892.75 L 229.21684,911 L 271.47758,911 L 313.73832,911 L 314.2378,907.75 L 392.43777,269 C 395.3457,269.33043 400.10943,267.84955 402,270.40912 C 428.50233,483.53196 456.59104,696.45647 483,909.59088 C 483,910.78119 489.67705,911 526,911 L 569,911 L 570.27952,576.5 L 501.5,504.03374 L 470,504 L 470,480 L 520.90544,480 L 571.81088,480 L 570.69068,463.65666 L 555.09534,442.35662 L 539.5,421.05657 L 515,421 L 515,399 L 571,399 L 571,379.74517 L 580.25,364.9182 L 590.13317,350.04562 L 609.04279,377.81761 L 609.51908,399.14928 L 667,399 L 667,421 L 644.27385,421 L 609.5,465.13965 L 610.16094,481.27535 L 660.08047,480.53861 L 710,479.80187 L 710,504 L 678.5,504.1766 L 609.77922,577.31306 L 612.22755,911 L 649.0484,911 C 687.61447,911 691.66738,910.65087 706.5938,906.04282 C 735.21364,897.20738 759.7603,875.3659 771.49011,848.29845 C 775.73527,838.50242 779.7027,823.40459 780.99478,812.12903 L 782,8 L 8,8 L 8.0082048,405.75 C 8.0134779,661.37594 8.3697307,806.58332 9.0052179,812.12903 C 14.832663,862.98337 46.734293,898.59368 96.155168,909.41048 C 100.95728,910.46152 112.65132,910.82359 144.25,910.89959 L 186,911 L 187.2593,576.5 z M 61.233045,259.24976 L 211.24454,271.53842 L 189.31269,237.35398 L 352.69456,283.8032 L 247.02549,276.79958 L 264.69282,316.88515 L 61.233045,259.24976 z M 556.91442,276.80561 L 451.30605,283.80472 L 531.52401,260.18001 L 614.67221,237.33888 L 592.75546,271.53842 L 742.76289,259.24976 L 539.27295,316.591 L 556.91442,276.80561 z M 204,186.02015 L 259.13742,178.09046 L 174.35667,107.76809 L 337.36118,176.32593 L 289.3988,187.88629 L 358.73472,249.73512 L 361.5,252.9004 L 204,186.02015 z M 443.5,251.25556 L 480.73765,218.67372 L 515.97531,188.07044 L 512.23765,187.08862 L 488.5,181.52471 L 466.82208,176.22131 L 526.32208,150.17901 L 608.73831,116.04342 L 629.57458,107.86441 L 586.16924,143 L 544.83297,178.09046 L 573.25,182.07434 L 600,186.00329 L 442.65835,252.86706 L 443.5,251.25556 z M 356.35267,93.313996 L 397.88302,117.45129 L 399.79739,26.011288 C 400.65461,26.02506 444.22989,176.10344 443.56866,176.76467 L 397.58705,151.16073 L 400.51797,250.71423 L 356.35267,93.313996 z M 187.66536,504.33202 L 140.74996,504.5 L 187.5,554.78857 C 186.99359,538.01291 188.89695,521.08879 187.66536,504.33202 z M 273,504.57738 L 227.28921,504 L 226,554.92927 C 241.19225,537.75519 258.38506,522.26572 273,504.57738 z M 570.66536,504.33202 L 523.85766,504.5 L 570.5,554.81834 L 570.66536,504.33202 z M 610.27187,504.39479 L 608.68588,555.28364 L 656.6562,504.5 L 610.27187,504.39479 z M 187.65776,421.32443 L 169.8316,421.5 L 187.5,445.73119 C 187.52853,437.60314 188.24282,429.43813 187.65776,421.32443 z M 245,422.65326 L 225.99552,421.5 C 226.75067,429.03994 224.39675,438.43666 227.98469,445.29911 C 233.68816,437.78185 239.75987,430.5055 245,422.65326 z M 570.65776,421.32443 L 552.90802,421.5 L 570.5,445.61037 L 570.65776,421.32443 z M 628.90823,422.13085 L 608.73175,421.5 L 610.84244,445.45 L 628.90823,422.13085 z M 468.76015,910.08324 L 396.1562,286.54224 L 327.35816,907.47727 L 397.49163,841.64467 L 468.76015,910.08324 z "
       style="fill:#e55828"
       id="path2313" />
    <path
       d="M 386.2447,965.23819 C 369.40475,944.14935 349.46222,929.92172 324,920.83083 L 317.5,918.51011 L 207,917.98604 L 96.5,917.46196 L 88.53817,915.16173 C 61.933568,907.47547 42.169545,894.95879 27.102893,876.25438 C 18.721559,865.84942 10.226444,849.40458 6.5664795,836.5 C 0.63978057,815.6032 1.0073761,844.13654 1.0021065,404.5847 C 0.99944972,182.98128 1.1512681,1.5153985 1.3394807,1.327186 C 1.781201,0.88546569 788.23246,0.89912739 788.6742,1.340863 C 788.85756,1.5242284 789.00405,182.98505 788.99972,404.58713 C 788.99114,844.11725 789.35853,815.60914 783.43352,836.5 C 779.77356,849.40458 771.27844,865.84942 762.89711,876.25438 C 747.83045,894.95879 728.06643,907.47547 701.46183,915.16173 L 693.5,917.46196 L 583,917.98604 L 472.5,918.51011 L 466,920.83083 C 440.53778,929.92172 420.59525,944.14935 403.7553,965.23819 C 399.72871,970.28073 396.0122,974 395,974 C 393.9878,974 390.27129,970.28073 386.2447,965.23819 z M 397.98253,961.34194 C 402.05397,955.36498 416.96429,940.68834 425,934.7479 C 433.73134,928.29321 446.25211,921.2288 454.91336,917.87033 C 458.26101,916.57225 461,915.22281 461,914.87157 C 461,913.84656 398.15115,853.5 397.08364,853.5 L 334.34243,917.25308 L 345.10161,922.63914 C 351.01915,925.60146 359.60461,930.77757 364.18039,934.14159 C 372.85681,940.52031 387.74111,955.06415 392.01747,961.34194 C 393.38286,963.34636 394.725,964.98633 395,964.98633 C 395.275,964.98633 396.61714,963.34636 397.98253,961.34194 z M 314.43906,908.75 C 341.06291,696.3039 365.79865,483.62249 392.56365,271.19412 C 393.00481,269.16975 393.57501,268.92558 397.2342,269.19412 L 401.40224,269.5 C 428.48196,483.10571 456.00983,696.6548 482.96471,910.27634 C 482.98412,910.70333 530.5875,910.92356 588.75,910.76574 L 694.5,910.4788 L 704.47276,907.13452 C 724.22967,900.50921 737.76141,892.41619 750.54617,879.57911 C 766.54921,863.51057 775.68798,844.86019 780.72019,818 C 782.40783,808.99199 782.5,787.75891 782.5,408 L 782.5,7.5 L 395,7.5 L 7.5,7.5 L 7.5,408 C 7.5,787.75891 7.5921728,808.99199 9.2798102,818 C 18.0522,864.82393 43.870028,894.50428 87,907.34768 C 91.675,908.73981 96.625,910.06982 98,910.30324 C 99.375,910.53666 148.52893,910.78892 207.23095,910.86382 L 313.9619,911 L 314.43906,908.75 z M 449.5,798.7272 L 408.27094,842.46477 L 460.55172,893.95372 L 449.5,798.7272 z M 385.5,842.45532 L 348.26831,801.40284 L 338,891.6461 L 385.5,842.45532 z M 444.78192,781.5 L 349.82738,781.5 L 397.1996,831.68423 L 444.78192,781.5 z M 397.08562,719.22146 L 352.63662,764 L 441.20732,764 L 397.08562,719.22146 z M 435.81859,680.48526 L 405.54678,709.97819 L 444.53646,750 L 435.81859,680.48526 z M 361.19111,683.47555 L 353.9727,745.5 L 388.99777,710.52366 L 361.19111,683.47555 z M 363.16028,666.5 L 397.00676,701.80208 L 431.5,666.5 L 363.16028,666.5 z M 397.5,618.26964 L 365,650.12399 L 431.5,650.95396 L 397.5,618.26964 z M 425.01498,592 L 403.84053,611.31339 L 430.69879,637.63455 L 425.01498,592 z M 370.89198,593.82073 L 365.76782,636.5 L 391.11629,611.5 L 370.89198,593.82073 z M 421,582.26563 L 373.53126,582 L 397.46935,606.00061 L 421,582.26563 z M 397.38151,545.91998 L 377.83372,567 L 417.338,567 L 397.38151,545.91998 z M 416.90864,526 L 409.0507,533.65279 L 401.90384,541.30558 L 421.59022,561.72163 L 416.90864,526 z M 387.97064,536 L 380.7022,528.17083 L 378.20255,525.84166 L 373.81046,561.5 L 392.73943,541.5 L 387.97064,536 z M 413.77619,518.90914 L 397.5567,517 L 380,517.59733 L 388.68638,527.3913 L 397.37275,536.58792 L 404.90587,528.7031 L 413.77619,518.90914 z M 414.46916,503.0499 L 406.27448,490.74569 L 397.49261,479.39158 L 395.41171,481.94579 L 380.53602,503.05829 L 414.46916,503.0499 z M 393.23057,474.08205 L 385.04265,464.47364 L 382.36433,487.56433 L 393.23057,474.08205 z M 411.5007,476.0053 L 409.67005,464.33672 L 402.61104,472.77622 L 412.62301,487.71032 L 411.5007,476.0053 z M 409.24224,449.623 L 386,450.19915 L 397.41787,468 L 409.24224,449.623 z M 396.6869,357.35356 L 387.97363,436.19275 L 406,436 L 396.6869,357.35356 z "
       style="fill:#23211b"
       id="path2309" />
  </g>
</svg>
