<?xml version="1.0" encoding="UTF-8" standalone="no"?>
<!-- Created with Inkscape (http://www.inkscape.org/) -->
<svg
 xmlns="http://www.w3.org/2000/svg"
 version="1.1"
 width="300"
 height="393">
<circle cx="150" cy="243" r="144" style="fill:#000;" />
<path
 d="m 0,31.470342 c 86.96024,-41.63082 215.18102,-41.3447056 300,0 l 0,89.293358 c -96.53567,-36.567885 -195.77151,-44.633942 -300,0 L 0,31.470342 z"
 style="fill:#000;stroke:none" />
<path
 d="m 158.03724,20.0762 c -9.58195,0 -17.30522,8.2335 -17.30522,18.47175 l 0,8.85059 c 0,10.23825 7.72327,18.48245 17.30522,18.48245 l 1.73374,0 c 9.58194,0 17.29452,-8.2442 17.29452,-18.48245 l 0,-8.85059 c 0,-10.23825 -7.71258,-18.47175 -17.29452,-18.47175 l -1.73374,0 z m -0.33176,7.97303 2.39726,0 c 4.95889,0 8.94692,6.19478 8.94692,13.89127 l 0,2.15111 c 0,7.69649 -3.98803,13.89127 -8.94692,13.89127 l -2.39726,0 c -4.95889,0 -8.94692,-6.19478 -8.94692,-13.89127 l 0,-2.15111 c 0,-7.69649 3.98803,-13.89127 8.94692,-13.89127 z m -32.87671,-6.99914 c -0.85365,0.008 -1.75043,0.0931 -2.70762,0.25684 l -17.13399,1.61602 0,45.14126 21.66096,-1.81935 c 14.28655,-1.91679 13.31185,-21.03418 4.23801,-24.68964 7.98908,-4.22759 6.74733,-20.62982 -6.05736,-20.50513 z m -2.20463,8.31549 c 6.59443,-0.33585 7.27278,9.00739 0.20334,9.57834 l -9.47132,0.503 0,-9.57834 9.26798,-0.503 z m 0.26756,17.40154 c 0.19565,-0.005 0.39302,-0.002 0.58861,0 2.73823,0.0339 5.17409,0.99133 5.37243,5.36173 0.22667,4.99475 -2.94725,5.99831 -6.35702,6.34632 l -9.13956,0.62072 0,-11.67594 8.94692,-0.62072 c 0.19904,-0.0128 0.39296,-0.0267 0.58862,-0.0321 z M 68.366274,28.8792 l 0,44.67038 7.823202,-1.19106 0,-18.47175 c 3.757185,-0.97135 6.367384,-0.57423 8.037243,2.18302 1.66986,2.75726 7.095463,13.73263 7.095463,13.73263 L 101.44633,68.46628 C 99.463366,62.14586 94.478921,51.84551 89.556342,50.26305 95.296486,48.41086 99.385798,45.46855 99.049065,34.49939 98.718226,23.72229 88.902822,25.1731 84.644099,25.99524 80.132452,26.86621 68.366274,28.8792 68.366274,28.8792 z m 7.930223,6.29115 c 0,0 5.848037,-1.04302 8.979024,-1.52198 3.130986,-0.47897 5.321575,0.97741 5.425941,3.76542 0.112086,2.99425 -1.147096,6.27885 -4.591181,6.84746 -3.958849,0.6536 -9.918151,1.69189 -9.813784,1.55764 l 0,-10.64854 z m -21.921696,-2.93894 8.244935,-1.90404 0,44.9564 -8.244935,1.90404 0,-44.9564 z M 28.700712,66.64682 33.188459,50.67878 37.36311,63.72456 28.700712,66.64682 z M 14.92437,89.18992 28.700712,39.61597 37.05001,36.90244 51.97438,78.02274 42.581418,80.31879 40.07663,71.86513 26.509021,75.62231 23.586767,86.99823 14.92437,89.18992 z m 167.29952,-67.52982 0,44.67038 7.8232,1.0488 0,-18.47175 c 3.75718,0.10437 6.36738,1.24881 8.03724,4.48417 1.66986,3.23535 7.09546,15.76412 7.09546,15.76412 l 10.12415,1.5625 c -1.98296,-6.88817 -6.96741,-18.61561 -11.88998,-21.60745 5.74014,-0.20873 9.82945,-1.98023 9.49272,-13.0458 C 212.57584,25.19324 202.76043,23.83382 198.50171,23.43664 193.99007,23.01588 182.22389,21.6601 182.22389,21.6601 z m 7.93022,8.56165 c 0,0 5.84804,0.63133 8.97902,1.0488 3.13099,0.41746 5.32158,2.50103 5.42595,5.31892 0.11208,3.02634 -1.1471,5.95043 -4.59119,5.53296 -3.95885,-0.47986 -9.91815,-1.14777 -9.81378,-1.25214 l 0,-10.64854 z m 28.70186,41.22591 0,-44.98184 7.7231,1.2524 14.61128,31.5186 0,-28.17889 7.51436,1.77423 0,45.19058 -8.14056,-2.08733 -14.19381,-30.78804 0,27.76142 -7.51437,-1.46113 z m 36.10978,-36.83807 0,45.08776 27.55779,8.76498 0,-7.95163 -19.21018,-6.52825 0,-11.70805 17.95804,6.35702 0,-7.64127 -17.95804,-6.35702 0,-9.48202 19.21018,6.52826 0,-8.3048 -27.55779,-8.76498 z"
 style="fill:#ff0;stroke:none;fill-rule:evenodd;" />
<path
 d="m 133.43401,101.66907 c 13.97093,24.1427 15.78946,49.1235 1.11196,75.24196 7.9673,-4.20405 15.13489,-10.00752 21.12705,-18.16186 0.63937,8.68094 -1.42563,13.30532 -2.59455,19.27381 2.5447,-2.58897 3.89899,-2.58096 11.1195,-9.6369 -2.68442,5.5897 -3.61431,10.59456 -3.33585,15.19665 2.2126,-3.51587 4.25509,-7.88232 7.413,-6.6717 -2.13049,4.40258 -3.90442,9.34001 -4.07715,16.67925 -2.05496,0.0681 -3.25684,1.41579 -3.33585,4.4478 -6.33772,0.33398 -10.38816,5.58848 -10.00755,10.00755 -7.03758,-0.61298 -13.06072,-0.21152 -15.19666,4.07715 -6.42261,-0.97847 -12.91983,-2.32998 -17.42055,6.30105 -11.39381,-6.01856 -13.95098,-1.23679 -16.67925,3.33585 -8.225449,-5.10304 -15.487716,-6.35336 -20.756401,0.37065 -6.58637,-2.77854 -12.350254,-10.90326 -20.756404,-1.85325 -16.33426,-15.91095 -38.135597,4.83541 -25.204202,18.90315 -18.744087,11.12607 -12.102688,38.76367 2.965202,42.99537 -4.717501,-10.2376 -12.193414,-30.9699 18.398154,-36.06418 9.099003,10.93088 20.585753,6.24478 23.114651,-2.11274 8.222845,5.41402 12.620352,2.41232 15.937952,-2.9652 5.117718,3.05033 9.459088,2.99526 12.602098,-1.85325 5.92696,3.36557 11.10593,4.23781 14.0847,-2.2239 0,0 7.04235,2.2239 6.67171,-1.85325 -0.37066,-4.07715 1.48259,-4.4478 2.96519,-3.33585 1.4826,1.11195 5.1891,0.37065 5.55975,2.59455 0.37065,2.2239 0,3.7065 -2.59454,3.7065 -2.59456,0 -7.04236,4.07715 -6.30106,7.78365 0.7413,3.70647 -10.74885,-1.85325 -13.3434,1.85327 -2.59455,3.7065 -4.81845,9.2662 -4.81845,9.2662 -9.35297,-3.4721 -15.712926,4.4223 -14.0847,12.2315 -18.195038,-4.8207 -29.327494,17.6266 -18.161853,28.1694 -18.817528,21.5899 -1.079243,41.1965 19.273805,37.065 -17.733641,-13.8359 -10.763141,-29.38 1.111948,-36.3237 11.18029,11.9373 23.12063,-1.0376 18.90315,-10.7489 4.20051,3.1504 12.0271,-4.3567 11.76195,-8.9554 -0.22065,-3.8268 -1.04307,-5.4956 0.84015,-5.4999 6.82046,-0.016 9.78589,-7.6797 8.15431,-12.6021 5.09663,-1.328 10.18246,-2.6668 8.52495,-10.7489 0.942,0.471 10.79597,-3.68291 7.78365,-8.89557 -1.65875,-2.87037 3.7065,-3.33585 5.1891,-1.4826 1.4826,1.85325 2.44022,2.10709 0.7413,3.33585 -3.32031,2.40146 -2.11192,12.91672 0,11.86082 -5.10878,3.8084 -11.18434,7.1335 -4.81845,16.6792 -5.1224,5.6286 -10.37176,11.1985 -2.9652,22.6097 -17.08415,10.4902 -5.31617,27.5043 5.9304,24.0922 -0.38261,13.8629 4.00816,36.4313 30.02265,26.6868 -13.78895,-6.9762 -19.19754,-16.7458 -15.19665,-29.652 14.15151,2.9744 22.0782,-13.8742 10.74885,-24.4629 5.14439,-6.2296 3.10671,-11.8062 -2.59455,-17.0499 5.42414,-6.2036 2.14412,-11.4401 -1.11195,-16.6792 4.56774,-5.5336 3.11374,-8.9791 2.90508,-12.60212 3.44087,3.57182 8.43614,4.58352 13.40352,2.9652 0.47726,4.99542 3.03074,8.17412 10.80322,6.78622 5.35887,6.3291 11.5871,5.0512 18.16185,0.7413 6.45596,10.688 20.59184,6.3368 25.52049,-0.4852 5.53242,6.943 4.05391,15.5552 -11.1195,27.4281 19.29257,7.1699 45.02078,-20.6681 17.7912,-39.65952 -2.6755,-7.83842 -10.1714,-19.11608 -21.12705,-6.6717 -5.43621,-6.02854 -10.8724,-7.3489 -16.30861,-1.4826 -6.16688,-5.25477 -11.79831,-5.51189 -17.0499,-2.2239 -1.99005,-3.68199 -4.41386,-6.87238 -10.91196,-5.44526 1.09781,-1.21979 -2.06948,-7.91486 -5.25737,-8.74935 -0.631,-0.16518 -1.31443,-0.83017 -1.2784,-1.48143 0.043,-0.77801 1.03918,-1.19936 1.7131,-1.59051 1.93158,-1.12112 7.0927,-5.11942 10.54553,-9.7909 1.26866,4.39557 1.27484,9.21195 -1.11195,14.826 6.21945,-1.33963 9.38864,-7.08521 12.97275,-12.23145 2.22423,5.00843 0.53316,10.64912 -1.11195,16.84811 10.18168,-2.96448 13.85917,-11.03878 16.88105,-18.47813 1.00113,2.23673 1.87139,5.25867 2.56736,9.32636 5.18614,-3.98385 6.3077,-9.66127 7.9797,-15.10934 9.114,12.34332 19.42851,18.28394 31.50525,14.826 -11.06325,-17.04186 -26.04944,-32.49004 -6.6717,-61.89856 C 221.7601,107.27056 178.5225,96.60348 133.43401,101.66907 z"
 style="fill:#ff0;stroke:none" />
<circle cx="150" cy="243" r="144" style="stroke:#003314;stroke-width:12px;fill:none;" />
</svg>
