<?xml version="1.0" encoding="utf-8"?>
<!-- Generator: Adobe Illustrator 15.0.2, SVG Export Plug-In . SVG Version: 6.00 Build 0)  -->
<!DOCTYPE svg PUBLIC "-//W3C//DTD SVG 1.1//EN" "http://www.w3.org/Graphics/SVG/1.1/DTD/svg11.dtd">
<svg version="1.1" xmlns="http://www.w3.org/2000/svg" xmlns:xlink="http://www.w3.org/1999/xlink" x="0px" y="0px"
	 width="471.191px" height="591.75px" viewBox="0 0 471.191 591.75" enable-background="new 0 0 471.191 591.75"
	 xml:space="preserve">
<g id="background">
	<path fill="#1776B5" d="M15.767,13.797L400.44,393.108c0,0-87.355,163.217-164.556,174.714
		C220.459,570.119-24.081,455.941,15.767,13.797z"/>
	<path fill="#AFABA7" d="M15.767,13.797c0,0,395.401-0.766,439.08,0c0,68.965,9.195,313.41-54.406,379.311
		C369.177,362.28,15.767,13.797,15.767,13.797z"/>
</g>
<g id="Chevron">
	<g>
		<path fill="#EABF11" d="M374.914,27c30.024,0,53.004,0.014,69.232,0.043c0.133,51.8,0.183,105.207-3.228,156.116
			c-3.859,57.609-11.85,106.127-24.427,148.328c-14.818,49.714-36.189,92.049-65.336,129.422
			c-15.793,20.251-34.195,39.299-54.694,56.616c-18.238,15.406-38.687,29.909-60.934,43.227
			C145.165,509.85,93.451,453.071,63.848,372.964c-15.431-41.755-25.645-92.315-31.226-154.546
			c-4.587-51.154-6.316-112.26-5.356-191.26c1.902,0,3.902,0,5.999,0c31.994,0,83.747-0.026,138.539-0.065
			C239.482,27.044,316.193,27,374.914,27 M374.914,0c-106.69,0-270.5,0.181-341.65,0.181c-16.374,0-27.847-0.01-32.582-0.033
			C-5.689,341,29.558,481.231,235.885,591.75C480.536,454.472,471.372,225.122,471.087,0.147C460.466,0.038,423.657,0,374.914,0
			L374.914,0z"/>
	</g>
</g>
<g id="logos">
	<polygon fill="#EABF11" points="43.558,74.904 156.761,210.733 130.628,200.005 183.581,281.231 155.885,274.659 198.141,368.657 
		100.056,236.159 120.885,236.159 60.209,161.941 84.73,163.349 	"/>
	<polygon fill="#EABF11" points="429.006,75.683 315.255,211.054 341.432,200.431 288.15,281.443 315.873,274.982 273.239,368.558 
		371.859,236.208 351.03,236.124 412.004,162.401 387.478,163.835 	"/>
	<path fill="#EABF11" d="M236.915,488.159l-0.03,20.87v-20.87H236.915z"/>
	<path fill="#EABF11" d="M249.085,493.059c3.06,3.05,4.95,7.27,4.95,11.93c0,9.31-7.551,16.85-16.86,16.85
		c-9.31,0-16.86-7.54-16.86-16.85c0-4.37,1.67-8.36,4.41-11.36l-7.84-66.63v-2.84h-26l-7-27h32l-0.378-302c0,0,12.369-30,21.609-32
		c0.113,0,0.229,0,0.229,0c9.24,2,21.133,32,21.133,32l-0.593,302h34l-6.39,27h-28.61v-0.02v0.02v2.81l-7.75,66.091"/>
	<polygon fill="#EABF11" points="236.915,488.159 236.885,509.029 236.885,488.159 	"/>
	<polygon fill="#EABF11" points="236.915,488.159 236.885,509.029 236.885,488.159 	"/>
	<line fill="#EABF11" x1="256.885" y1="424.159" x2="256.885" y2="424.159"/>
	<line fill="none" stroke="#4D4D4D" stroke-miterlimit="10" x1="215.885" y1="396.659" x2="257.885" y2="396.659"/>
	<line fill="none" stroke="#4D4D4D" stroke-miterlimit="10" x1="216.885" y1="424.659" x2="256.885" y2="424.659"/>
	
		<line fill="none" stroke="#4D4D4D" stroke-linejoin="round" stroke-miterlimit="10" x1="237.345" y1="63.159" x2="236.307" y2="396.668"/>
</g>
</svg>
