<?xml version="1.0" encoding="UTF-8" standalone="no"?>
<!-- Created with Inkscape (http://www.inkscape.org/) -->
<svg
   xmlns:dc="http://purl.org/dc/elements/1.1/"
   xmlns:cc="http://web.resource.org/cc/"
   xmlns:rdf="http://www.w3.org/1999/02/22-rdf-syntax-ns#"
   xmlns:svg="http://www.w3.org/2000/svg"
   xmlns="http://www.w3.org/2000/svg"
   xmlns:sodipodi="http://sodipodi.sourceforge.net/DTD/sodipodi-0.dtd"
   xmlns:inkscape="http://www.inkscape.org/namespaces/inkscape"
   id="svg2222"
   sodipodi:version="0.32"
   inkscape:version="0.45.1"
   width="560"
   height="560"
   version="1.0"
   sodipodi:docbase="C:\Documents and Settings\Steve-O\Desktop"
   sodipodi:docname="24_Infantry_Division_SSI.svg"
   inkscape:output_extension="org.inkscape.output.svg.inkscape">
  <metadata
     id="metadata2227">
    <rdf:RDF>
      <cc:Work
         rdf:about="">
        <dc:format>image/svg+xml</dc:format>
        <dc:type
           rdf:resource="http://purl.org/dc/dcmitype/StillImage" />
      </cc:Work>
    </rdf:RDF>
  </metadata>
  <defs
     id="defs2225" />
  <sodipodi:namedview
     inkscape:window-height="755"
     inkscape:window-width="1280"
     inkscape:pageshadow="2"
     inkscape:pageopacity="0.0"
     guidetolerance="10.0"
     gridtolerance="10.0"
     objecttolerance="10.0"
     borderopacity="1.0"
     bordercolor="#666666"
     pagecolor="#ffffff"
     id="base"
     inkscape:zoom="2.4771242"
     inkscape:cx="100.90467"
     inkscape:cy="58.603851"
     inkscape:window-x="-1"
     inkscape:window-y="-1"
     inkscape:current-layer="svg2222" />
  <g
     id="g11008"
     transform="scale(3.5,3.5)">
    <path
       id="path9030"
       d="M 160,79.999999 C 160,124.15999 124.16001,160 80,160 C 35.839998,160 0,124.15999 0,79.999999 C 0,35.84 35.839998,1.3322676e-015 80,1.3322676e-015 C 124.16001,1.3322676e-015 160,35.84 160,79.999999 z "
       style="fill:#000000;fill-opacity:1;fill-rule:evenodd;stroke:none;stroke-width:0.5482372;stroke-miterlimit:4;stroke-dasharray:none;stroke-opacity:1" />
    <g
       transform="translate(1.9297795,3.0517532)"
       id="g11002">
      <path
         sodipodi:type="arc"
         style="fill:#c80000;fill-opacity:1;fill-rule:evenodd;stroke:none;stroke-width:4;stroke-miterlimit:4;stroke-dasharray:none;stroke-opacity:1"
         id="path4183"
         sodipodi:cx="28.258575"
         sodipodi:cy="71.251976"
         sodipodi:rx="25.432718"
         sodipodi:ry="64.792877"
         d="M 53.691294 71.251976 A 25.432718 64.792877 0 1 1  2.8258572,71.251976 A 25.432718 64.792877 0 1 1  53.691294 71.251976 z"
         transform="matrix(2.9096379,0,0,1.1421008,-4.1520015,-4.4286901)" />
      <g
         id="g4179">
        <path
           sodipodi:nodetypes="ccccczsccccccccccc"
           id="path3204"
           d="M 93.858839,26.038258 C 97.895779,22.741424 103.74934,16.215039 107.78628,32.093667 C 115.05277,42.589709 121.91557,54.49868 116.26385,64.187335 C 112.63061,72.664908 113.0343,81.14248 113.23615,89.620053 C 114.11081,95.944592 112.36148,100.25066 104.96042,107.98813 C 100.8562,110.34301 99.039578,117.94591 95.675462,122.11741 C 92.311346,126.28892 86.452494,125.66017 83.842184,130.26699 C 78.726679,139.2951 74.582454,139.64446 68.829815,131.40237 C 64.860158,127.97097 61.496042,125.14512 58.131926,122.31926 C 54.364116,117.81135 52.211082,110.07388 48.039578,104.55673 C 43.195251,100.78892 40.974934,95.406334 40.773087,86.592349 C 41.916887,79.460423 39.427441,68.291557 37.543536,59.746702 C 38.283641,52.480211 40.436676,46.021108 42.186016,41.580475 C 46.693932,37.543535 47.770449,32.295514 49.048813,26.441952 C 52.412929,16.618733 59.813985,19.108179 64.591029,25.432718 C 68.829815,31.757256 71.85752,35.861478 76.096306,23.817942 C 79.729551,15.878628 86.390501,9.5540895 85.784961,24.221636 C 85.246702,34.717678 86.121372,34.313984 93.858839,26.038258 z "
           style="opacity:1;fill:#007000;fill-opacity:1;fill-rule:evenodd;stroke:none;stroke-width:4;stroke-linecap:butt;stroke-linejoin:miter;stroke-miterlimit:4;stroke-dasharray:none;stroke-opacity:1" />
        <path
           id="path2233"
           d="M 83.28125,13.40625 C 82.769628,13.402596 82.277765,13.499076 81.84375,13.65625 C 80.107689,14.284947 78.866814,15.617438 77.625,17.25 C 76.383186,18.882562 75.243974,20.89627 74.28125,23 L 74.25,23.0625 L 74.21875,23.15625 C 73.195618,26.063245 72.232624,27.915521 71.53125,28.8125 C 70.829876,29.709479 70.788989,29.548635 70.6875,29.53125 C 70.586011,29.513865 69.914897,29.161245 69.09375,28.21875 C 68.272603,27.276255 67.304089,25.885266 66.25,24.3125 L 66.21875,24.28125 L 66.1875,24.21875 C 63.575648,20.760804 60.201482,18.119854 56.40625,17.875 C 54.508634,17.752573 52.543875,18.361288 50.9375,19.71875 C 49.331125,21.076212 48.078495,23.088295 47.15625,25.78125 L 47.125,25.90625 L 47.09375,26 C 45.812157,31.868346 44.827834,36.525914 40.84375,40.09375 L 40.5,40.40625 L 40.3125,40.84375 C 38.525867,45.379051 36.330118,51.994626 35.5625,59.53125 L 35.53125,59.875 L 35.59375,60.1875 C 37.478521,68.736281 39.83275,79.9197 38.8125,86.28125 L 38.78125,86.46875 L 38.78125,86.625 C 38.98473,95.510295 41.390766,101.60051 46.4375,105.75 C 50.266131,110.81367 52.344176,118.50945 56.59375,123.59375 L 56.71875,123.75 L 56.84375,123.84375 C 60.1387,126.61151 63.460195,129.39205 67.3125,132.71875 C 68.773343,134.79082 70.166423,136.41345 71.65625,137.5625 C 73.188577,138.74433 74.924116,139.45159 76.71875,139.3125 C 78.513384,139.17341 80.153332,138.22442 81.5625,136.84375 C 82.971668,135.46308 84.260501,133.60299 85.59375,131.25 C 86.563271,129.53893 88.082877,128.79623 90.25,127.875 C 92.417123,126.95377 95.149716,125.94061 97.21875,123.375 C 99.163097,120.96401 100.46172,117.92549 101.8125,115.28125 C 103.16328,112.63701 104.61203,110.4972 105.96875,109.71875 L 106.21875,109.59375 L 106.40625,109.375 C 110.18047,105.42922 112.62593,102.27222 114.03125,99.09375 C 115.40564,95.985223 115.64766,92.879655 115.21875,89.5625 L 115.25,89.5625 C 115.04739,81.053209 114.67181,72.9533 118.09375,64.96875 C 121.14308,59.56628 120.75333,53.527633 118.75,47.78125 C 116.75069,42.046386 113.204,36.447856 109.59375,31.21875 C 108.57745,27.345902 107.45352,24.632225 106.0625,22.78125 C 104.61939,20.860965 102.66327,19.83019 100.78125,19.875 C 97.017206,19.96462 94.478247,22.960993 92.59375,24.5 L 92.5,24.5625 L 92.40625,24.6875 C 90.479181,26.748626 88.988588,28.279904 87.9375,29.21875 C 87.842971,29.303184 87.805936,29.300989 87.71875,29.375 C 87.647441,28.261443 87.660718,26.662886 87.78125,24.3125 C 87.938624,20.500542 87.719457,17.937606 86.875,16.03125 C 86.452772,15.078072 85.786548,14.222704 84.8125,13.75 C 84.325476,13.513648 83.792872,13.409904 83.28125,13.40625 z M 83.15625,17.5 C 83.186473,17.539022 83.135301,17.467865 83.21875,17.65625 C 83.566452,18.441186 83.926646,20.603185 83.78125,24.125 C 83.645301,26.776024 83.599846,28.736282 83.75,30.28125 C 83.825077,31.053734 83.91939,31.732289 84.25,32.4375 C 84.58061,33.142711 85.405808,33.998285 86.40625,34.15625 C 87.406692,34.314215 88.130629,33.952803 88.75,33.59375 C 89.369371,33.234697 89.957623,32.786947 90.59375,32.21875 C 91.815953,31.127063 93.291613,29.552486 95.125,27.59375 C 97.277441,25.835923 99.693794,23.903124 100.875,23.875 C 101.4656,23.860938 101.95902,23.968644 102.875,25.1875 C 103.79098,26.406356 104.87102,28.767664 105.84375,32.59375 L 105.9375,32.9375 L 106.15625,33.21875 C 109.75572,38.417988 113.16359,43.915804 114.96875,49.09375 C 116.77391,54.271696 116.99987,58.955575 114.53125,63.1875 L 114.46875,63.28125 L 114.4375,63.40625 C 110.59297,72.376852 111.04891,81.210395 111.25,89.65625 L 111.25,89.78125 L 111.25,89.90625 C 111.6541,92.828275 111.47595,94.978681 110.375,97.46875 C 109.27405,99.958819 107.12684,102.80206 103.5,106.59375 C 101.06318,108.21533 99.585355,110.85469 98.25,113.46875 C 96.82538,116.25755 95.544769,119.11449 94.125,120.875 C 92.829919,122.4809 90.94341,123.22852 88.6875,124.1875 C 86.43159,125.14648 83.734539,126.3855 82.09375,129.28125 C 80.869246,131.44232 79.73638,133.00232 78.75,133.96875 C 77.76362,134.93518 77.00619,135.266 76.40625,135.3125 C 75.80631,135.359 75.116254,135.16362 74.09375,134.375 C 73.071246,133.58638 71.838611,132.21267 70.46875,130.25 L 70.3125,130.0625 L 70.125,129.875 C 66.212528,126.49303 62.899958,123.71474 59.59375,120.9375 C 56.343246,116.98155 54.109439,109.27478 49.625,103.34375 L 49.46875,103.125 L 49.28125,102.96875 C 44.931786,99.585831 42.975838,95.028253 42.78125,86.53125 C 43.903551,78.758248 41.411696,68.056777 39.5625,59.6875 C 40.286618,52.922357 42.265196,46.874386 43.9375,42.59375 C 48.503746,38.209667 49.722157,32.667259 50.9375,27.09375 C 51.697313,24.875096 52.654487,23.522156 53.53125,22.78125 C 54.408013,22.040344 55.185957,21.8124 56.15625,21.875 C 58.096836,22.000199 60.834808,23.758407 63,26.625 C 64.040418,28.176746 65.013977,29.640279 66.0625,30.84375 C 67.133668,32.073213 68.284867,33.206204 70,33.5 C 71.715133,33.793796 73.496559,32.804332 74.6875,31.28125 C 75.851153,29.793066 76.838671,27.656747 77.90625,24.65625 C 78.760149,22.790323 79.802459,21.01536 80.8125,19.6875 C 81.795457,18.395247 82.817463,17.645155 83.15625,17.5 z "
           style="opacity:1;fill:#ffff00;fill-opacity:1;fill-rule:evenodd;stroke:none;stroke-width:4;stroke-linecap:butt;stroke-linejoin:miter;stroke-miterlimit:4;stroke-dasharray:none;stroke-opacity:1" />
      </g>
    </g>
  </g>
</svg>
