<?xml version="1.0" encoding="UTF-8" standalone="no"?>
<!-- Created with Inkscape (http://www.inkscape.org/) -->
<svg
   xmlns:dc="http://purl.org/dc/elements/1.1/"
   xmlns:cc="http://web.resource.org/cc/"
   xmlns:rdf="http://www.w3.org/1999/02/22-rdf-syntax-ns#"
   xmlns:svg="http://www.w3.org/2000/svg"
   xmlns="http://www.w3.org/2000/svg"
   xmlns:sodipodi="http://sodipodi.sourceforge.net/DTD/sodipodi-0.dtd"
   xmlns:inkscape="http://www.inkscape.org/namespaces/inkscape"
   id="svg2211"
   sodipodi:version="0.32"
   inkscape:version="0.45.1"
   width="654.50586"
   height="916.15405"
   version="1.0"
   sodipodi:docbase="C:\Documents and Settings\Steve-O\Desktop"
   sodipodi:docname="25th_Infantry_Division SSI.svg"
   inkscape:output_extension="org.inkscape.output.svg.inkscape">
  <metadata
     id="metadata2216">
    <rdf:RDF>
      <cc:Work
         rdf:about="">
        <dc:format>image/svg+xml</dc:format>
        <dc:type
           rdf:resource="http://purl.org/dc/dcmitype/StillImage" />
      </cc:Work>
    </rdf:RDF>
  </metadata>
  <defs
     id="defs2214" />
  <sodipodi:namedview
     inkscape:window-height="755"
     inkscape:window-width="1280"
     inkscape:pageshadow="2"
     inkscape:pageopacity="0.0"
     guidetolerance="10.0"
     gridtolerance="10.0"
     objecttolerance="10.0"
     borderopacity="1.0"
     bordercolor="#666666"
     pagecolor="#ffffff"
     id="base"
     inkscape:zoom="1.7689338"
     inkscape:cx="108"
     inkscape:cy="140.3923"
     inkscape:window-x="-1"
     inkscape:window-y="-1"
     inkscape:current-layer="svg2211" />
  <g
     id="g22613"
     transform="matrix(3.2,0,0,3.2,-15.295661,-20.195202)">
    <path
       sodipodi:nodetypes="cccccczccccccsccccc"
       id="path2220"
       d="M 25.439053,65.00353 C 38.252798,56.900721 37.499048,45.406037 41.833109,34.476666 C 55.400604,14.502299 68.968098,22.228233 79.143719,33.911354 C 89.884652,44.46385 89.319339,43.7101 104.58277,31.650105 C 129.64495,-8.2986296 145.09682,30.896355 133.97901,44.086975 C 145.47369,30.51948 167.70931,9.6029258 176.94274,44.086975 C 177.69649,60.669469 175.87345,60.014435 193.3368,81.962898 C 210.57882,103.6332 195.22117,124.73819 192.20618,130.01444 C 177.50806,144.901 172.98556,156.39568 176.94274,172.97818 C 181.84212,186.16879 172.60868,203.88191 164.50587,209.15816 C 152.069,220.65284 150.93837,242.32315 141.32807,246.46877 C 131.15245,246.65721 120.41152,260.41314 117.01964,269.64658 C 105.33652,289.62094 94.501369,286.70016 85.362155,277.56094 C 81.640516,272.42603 80.018356,254.34307 69.215422,247.77606 C 59.664,241.96982 49.653262,229.98049 50.312793,217.07253 C 45.601857,209.91191 38.629673,197.09816 31.657488,189.93755 C 25.250615,180.13879 26.192802,168.64411 28.830926,157.14943 C 34.484049,141.886 26.004365,126.62257 18.655305,116.44695 C 6.7837472,91.573209 13.567496,74.61384 25.439053,65.00353 z "
       style="fill:#c60042;fill-opacity:1;fill-rule:evenodd;stroke:none;stroke-width:15.5;stroke-linecap:butt;stroke-linejoin:round;stroke-miterlimit:4;stroke-dasharray:none;stroke-opacity:1" />
    <path
       id="path8046"
       d="M 124.34375,6.5625 C 122.45531,6.5866905 120.55639,6.9172804 118.6875,7.59375 C 111.56406,10.172174 105.38231,16.276221 98.96875,26.15625 C 94.109622,29.923481 90.707323,32.139104 89.5625,33 C 88.632414,32.268859 87.064249,30.799056 84.75,28.53125 C 84.664109,28.447083 84.650042,28.461006 84.5625,28.375 C 78.981998,22.047354 72.147742,15.965701 62.84375,14.65625 C 53.315307,13.31521 43.156874,18.760365 35.4375,30.125 C 35.1123,30.593581 34.839817,31.096628 34.625,31.625 C 32.058025,38.098241 31.158479,43.805757 29.5625,48.09375 C 27.966521,52.381743 26.262188,55.3388 21.3125,58.46875 C 21.053012,58.620726 20.802589,58.787675 20.5625,58.96875 C 6.3474979,70.476135 -1.2994714,92.635927 11.65625,119.78125 C 11.858174,120.20856 12.09876,120.61651 12.375,121 C 19.227046,130.48745 25.754514,143.15031 21.5625,154.46875 C 21.449092,154.77501 21.355155,155.08814 21.28125,155.40625 C 18.481139,167.60673 17.039722,181.77398 25.15625,194.1875 C 25.43093,194.6021 25.744878,194.9893 26.09375,195.34375 C 31.273336,200.66332 37.685301,211.7024 42.6875,219.5 C 43.183164,235.28972 54.292942,247.78353 65.1875,254.40625 C 68.038047,256.13907 70.682614,260.50526 72.6875,265.90625 C 73.689943,268.60674 74.535876,271.43369 75.4375,274.125 C 76.339124,276.81631 77.051928,279.27655 79.09375,282.09375 C 79.329122,282.4263 79.590348,282.73977 79.875,283.03125 C 85.235546,288.3918 92.412452,293.24629 101.15625,292.21875 C 109.90005,291.19121 117.26691,284.59306 123.71875,273.5625 C 123.9428,273.16326 124.13103,272.74496 124.28125,272.3125 C 125.49372,269.0119 128.64743,263.79625 132.25,260 C 135.85257,256.20375 139.82096,254.24927 141.46875,254.21875 C 142.4793,254.20393 143.4772,253.99161 144.40625,253.59375 C 149.01287,251.60658 151.85868,247.95409 153.9375,244.4375 C 156.01632,240.92091 157.50909,237.22456 159.03125,233.53125 C 162.07557,226.14463 165.2596,219.02285 169.78125,214.84375 C 175.48327,210.73044 179.76138,204.44777 182.78125,196.9375 C 185.88308,189.22339 187.40912,180.0558 184.4375,171.1875 L 184.46875,171.1875 C 182.73873,163.93789 182.9533,158.78924 184.875,153.5 C 186.7967,148.21076 190.79116,142.48516 197.71875,135.46875 C 198.19233,134.99255 198.60201,134.45681 198.9375,133.875 C 199.84112,132.29367 205.44903,124.24379 207.90625,113.9375 C 210.36347,103.63121 209.48847,89.79665 199.40625,77.125 C 190.733,66.224193 187.27412,61.202704 186.09375,58.1875 C 184.91338,55.172296 185.07704,52.319751 184.6875,43.75 C 184.66424,43.190507 184.58042,42.635181 184.4375,42.09375 C 181.8775,32.532937 178.24201,25.6807 172.59375,21.4375 C 166.94549,17.1943 159.63137,16.860854 153.9375,18.6875 C 150.3701,19.831956 147.19103,21.668783 144.1875,23.71875 C 143.16013,19.79289 141.45706,16.032239 138.6875,12.84375 C 135.4304,9.0939837 130.00907,6.4899284 124.34375,6.5625 z M 125.5,21.71875 C 125.60579,21.713707 125.69662,21.718238 125.78125,21.75 C 126.11978,21.877049 126.36839,22.304103 127,23.03125 C 128.26322,24.485543 129.68084,27.96503 129.875,31.40625 C 130.0671,34.810928 129.07399,37.828845 128.09375,39.03125 C 128.0849,39.041693 128.07134,39.052067 128.0625,39.0625 C 128.0582,39.067669 128.0668,39.088653 128.0625,39.09375 C 127.77319,39.44338 127.53056,39.806518 127.3125,40.1875 L 120.78125,46.34375 C 118.47767,48.500633 118.10183,52.036045 119.90625,54.625 C 121.71068,57.213953 125.14789,58.070947 127.96875,56.65625 C 128.29064,56.495304 129.6757,55.914781 131.21875,54.84375 C 131.18595,54.86338 131.27512,54.819984 131.59375,54.6875 C 132.23101,54.422533 133.77924,53.689506 135,52.46875 C 135.60966,51.859098 135.90368,51.601535 135.96875,51.53125 C 137.44648,51.14977 138.83553,50.33666 139.90625,49.09375 C 145.33011,42.691815 153.7754,35.013346 158.6875,33.4375 C 161.14355,32.649577 161.80422,32.702899 163.28125,33.8125 C 164.70275,34.880389 167.20043,38.253255 169.21875,45.34375 C 169.51205,52.768969 169.30169,57.829142 171.65625,63.84375 C 174.11863,70.133768 178.49115,75.733594 187.28125,86.78125 C 194.44104,95.779902 194.50859,103.36091 192.84375,110.34375 C 191.27294,116.93219 188.04428,121.76355 185.90625,125.40625 C 178.56783,132.96452 173.19681,140.19402 170.28125,148.21875 C 167.25646,156.54411 167.17909,165.44836 169.40625,174.78125 C 169.4814,175.08879 169.57533,175.39144 169.6875,175.6875 C 171.18964,179.7317 170.61675,185.65883 168.40625,191.15625 C 166.19575,196.65367 162.13741,201.44759 160.28125,202.65625 C 159.91514,202.89743 159.57015,203.16924 159.25,203.46875 C 151.33478,210.78433 147.72028,220.26639 144.6875,227.625 C 143.17111,231.30431 141.81847,234.49074 140.59375,236.5625 C 139.54194,238.34176 138.80331,238.9348 138.46875,239.15625 C 131.30184,240.21794 125.57827,244.51934 121,249.34375 C 116.13516,254.47014 112.42883,260.31072 110.1875,265.9375 C 105.03636,274.65016 101.20405,276.59389 99.34375,276.8125 C 97.581239,277.01962 94.902073,275.80814 91.46875,272.5625 C 91.426545,272.40483 90.822658,271.26998 90.125,269.1875 C 89.338166,266.83884 88.437419,263.78299 87.21875,260.5 C 84.781412,253.93403 81.202387,245.99044 73.25,241.15625 C 65.691177,236.5613 57.619387,226.14111 58.0625,217.46875 C 58.142186,215.81983 57.693306,214.18853 56.78125,212.8125 C 52.635272,206.51062 46.09381,194.2011 38.125,185.59375 C 33.486432,178.42498 33.908569,169.62159 36.375,158.875 L 36.34375,158.875 C 42.589044,140.5339 33.187635,123.61607 25.5625,112.875 C 14.927157,90.425316 20.817276,78.717861 30.3125,71.03125 C 37.683096,66.105759 41.857526,59.508168 44.09375,53.5 C 46.280925,47.623613 47.196752,42.474916 48.78125,38.15625 C 54.275758,30.344606 57.603756,29.565992 60.6875,30 C 63.878583,30.449115 68.789414,33.806827 73.3125,39 C 73.442248,39.150997 73.577765,39.296938 73.71875,39.4375 C 76.412641,42.084131 78.457201,44.186103 80.96875,46 C 83.480299,47.813897 87.29718,49.42894 91.09375,48.96875 C 98.68689,48.048369 101.84143,43.671202 109.375,37.71875 C 110.07486,37.179184 110.67729,36.523906 111.15625,35.78125 C 116.92808,26.581034 121.81453,22.955937 123.9375,22.1875 C 124.73361,21.899337 125.18262,21.73388 125.5,21.71875 z "
       style="fill:#ffef00;fill-opacity:1;fill-rule:evenodd;stroke:none;stroke-width:0.5;stroke-linecap:butt;stroke-linejoin:round;stroke-miterlimit:4;stroke-dasharray:none;stroke-opacity:1" />
    <path
       id="path15822"
       d="M 105.43074,84.789459 L 130.30448,135.38491 L 102.60418,135.38491 L 127.47792,192.48145 L 101.47355,191.06817 L 101.47355,232.33596 L 75.751846,173.26083 L 95.25512,174.39146 L 72.642628,119.27351 L 104.86543,119.27351 L 105.43074,84.789459 z "
       style="fill:#ffef00;fill-opacity:1;fill-rule:evenodd;stroke:none;stroke-width:1px;stroke-linecap:butt;stroke-linejoin:miter;stroke-opacity:1" />
    <path
       id="path20669"
       d="M 124.34375,6.3125 C 122.42829,6.3370367 120.48909,6.6577065 118.59375,7.34375 C 111.41403,9.942547 105.2224,16.112315 98.8125,25.96875 C 98.795605,25.99473 98.766898,26.005218 98.75,26.03125 C 94.049879,29.669091 90.815634,31.781276 89.59375,32.6875 C 88.674093,31.9522 87.187565,30.54866 84.9375,28.34375 C 84.88476,28.292068 84.837392,28.267577 84.8125,28.25 C 84.793831,28.236818 84.766794,28.234239 84.75,28.21875 C 79.155085,21.874762 72.268046,15.728235 62.875,14.40625 C 53.229792,13.048776 42.974549,18.581739 35.21875,30 C 34.883061,30.483695 34.627996,30.985836 34.40625,31.53125 C 31.82809,38.032696 30.925144,43.751193 29.34375,48 C 27.75496,52.268677 26.098981,55.14421 21.1875,58.25 C 20.919642,58.406878 20.654083,58.594335 20.40625,58.78125 C 6.1033328,70.359804 -1.5574732,92.647435 11.4375,119.875 C 11.645937,120.31609 11.902351,120.76039 12.1875,121.15625 C 19.02185,130.6192 25.454065,143.19277 21.3125,154.375 C 21.195433,154.69114 21.107539,155.01538 21.03125,155.34375 C 18.225885,167.56712 16.765875,181.81471 24.9375,194.3125 C 25.22104,194.74047 25.546126,195.16537 25.90625,195.53125 C 31.029988,200.79346 37.432888,211.78952 42.4375,219.59375 C 42.444524,219.6047 42.461731,219.61406 42.46875,219.625 C 43.024612,235.46603 54.143034,247.98714 65.0625,254.625 C 67.812412,256.29664 70.473527,260.62504 72.46875,266 C 73.467352,268.69014 74.284087,271.5221 75.1875,274.21875 C 76.087154,276.90418 76.840066,279.39919 78.90625,282.25 C 79.149214,282.59328 79.393666,282.91787 79.6875,283.21875 C 85.073575,288.60483 92.337305,293.50879 101.1875,292.46875 C 110.03834,291.42863 117.46572,284.75215 123.9375,273.6875 C 124.16878,273.27538 124.37619,272.85266 124.53125,272.40625 C 125.72473,269.15734 128.86349,263.95366 132.4375,260.1875 C 134.22198,258.30708 136.0916,256.86076 137.71875,255.90625 C 139.3459,254.95174 140.73993,254.48225 141.46875,254.46875 C 142.51189,254.45345 143.54099,254.22319 144.5,253.8125 C 149.17454,251.79603 152.06516,248.09985 154.15625,244.5625 C 156.24744,241.02498 157.72829,237.31722 159.25,233.625 C 162.29249,226.24282 165.47686,219.15397 169.9375,215.03125 C 175.68936,210.88199 179.96764,204.57257 183,197.03125 C 186.09883,189.3246 187.64579,180.14359 184.71875,171.25 C 184.71549,171.2401 184.72202,171.22865 184.71875,171.21875 C 184.7194,171.20834 184.7194,171.19791 184.71875,171.1875 C 184.71547,171.1776 184.72204,171.16615 184.71875,171.15625 C 184.7194,171.14584 184.7194,171.13541 184.71875,171.125 C 182.99602,163.90592 183.21904,158.83966 185.125,153.59375 C 187.0285,148.35459 190.99268,142.65846 197.90625,135.65625 C 198.39511,135.16469 198.80994,134.60057 199.15625,134 C 199.58819,133.2441 201.23395,130.7921 203.0625,127.28125 C 204.89105,123.7704 206.92109,119.1806 208.15625,114 C 210.62828,103.63159 209.72678,89.70426 199.59375,76.96875 C 190.92363,66.071873 187.46678,61.042314 186.3125,58.09375 C 185.1545,55.135691 185.3273,52.325438 184.9375,43.75 C 184.91349,43.172462 184.83503,42.590146 184.6875,42.03125 C 182.11992,32.442143 178.46041,25.53989 172.75,21.25 C 167.0239,16.948327 159.63659,16.589128 153.875,18.4375 C 150.38553,19.556954 147.24494,21.331551 144.3125,23.3125 C 143.26884,19.486288 141.59157,15.814982 138.875,12.6875 C 135.56541,8.8773077 130.0877,6.2389211 124.34375,6.3125 z M 124.34375,6.8125 C 129.93044,6.7409357 135.29539,9.3106597 138.5,13 C 141.23901,16.153322 142.91736,19.883024 143.9375,23.78125 C 143.94494,23.803443 143.95546,23.824482 143.96875,23.84375 C 143.97822,23.855069 143.98868,23.865526 144,23.875 C 144.03058,23.918801 144.07439,23.951656 144.125,23.96875 C 144.15597,23.974661 144.18778,23.974661 144.21875,23.96875 C 144.25177,23.964674 144.28364,23.95405 144.3125,23.9375 C 144.32291,23.938152 144.33334,23.938152 144.34375,23.9375 C 147.33687,21.894638 150.46555,20.071385 154,18.9375 C 159.62615,17.13258 166.86708,17.440273 172.4375,21.625 C 178.02361,25.82151 181.63508,32.623731 184.1875,42.15625 C 184.32581,42.680216 184.41499,43.208552 184.4375,43.75 C 184.82678,52.314064 184.67226,55.208901 185.875,58.28125 C 187.08146,61.363094 190.54237,66.376513 199.21875,77.28125 C 209.25016,89.88904 210.09866,103.63083 207.65625,113.875 C 206.43419,119.00069 204.44061,123.5765 202.625,127.0625 C 200.80939,130.5485 199.19043,132.92457 198.71875,133.75 C 198.39408,134.31305 197.98955,134.82041 197.53125,135.28125 C 190.58964,142.31186 186.5649,148.06693 184.625,153.40625 C 182.69951,158.70592 182.48484,163.91498 184.1875,171.125 C 184.18685,171.13541 184.18685,171.14584 184.1875,171.15625 C 184.17692,171.19724 184.17692,171.24026 184.1875,171.28125 C 187.13444,180.07589 185.64934,189.16692 182.5625,196.84375 C 179.55512,204.32297 175.27718,210.57889 169.625,214.65625 C 165.04234,218.89173 161.85865,226.04644 158.8125,233.4375 C 157.28989,237.1319 155.7852,240.81684 153.71875,244.3125 C 151.6522,247.80833 148.8512,251.41713 144.3125,253.375 C 143.41341,253.76003 142.44671,253.95441 141.46875,253.96875 C 140.54978,253.98577 139.13838,254.48932 137.46875,255.46875 C 135.79912,256.44818 133.88059,257.89667 132.0625,259.8125 C 128.43137,263.63884 125.26271,268.86646 124.03125,272.21875 C 123.88587,272.63726 123.71682,273.05114 123.5,273.4375 C 117.0681,284.43397 109.76176,290.95379 101.125,291.96875 C 92.487599,292.98379 85.397517,288.17877 80.0625,282.84375 C 79.78703,282.56167 79.54028,282.25932 79.3125,281.9375 C 79.302094,281.93685 79.291656,281.93685 79.28125,281.9375 C 77.26379,279.15391 76.591094,276.72844 75.6875,274.03125 C 74.787665,271.34528 73.912534,268.52334 72.90625,265.8125 C 70.891701,260.38548 68.263682,255.9815 65.3125,254.1875 C 54.472733,247.59809 43.429618,235.17676 42.9375,219.5 C 42.938183,219.45632 42.927408,219.41322 42.90625,219.375 C 37.909526,211.58594 31.509492,200.52579 26.28125,195.15625 C 25.94363,194.81323 25.64082,194.46373 25.375,194.0625 C 17.313569,181.73325 18.736393,167.64634 21.53125,155.46875 C 21.602771,155.1609 21.702751,154.85888 21.8125,154.5625 C 26.054963,143.10785 19.432242,130.3557 12.5625,120.84375 C 12.295169,120.47263 12.070411,120.10103 11.875,119.6875 C -1.0414696,92.624419 6.591663,70.592466 20.71875,59.15625 C 20.951095,58.981015 21.186382,58.834574 21.4375,58.6875 C 26.425395,55.53339 28.178082,52.494809 29.78125,48.1875 C 31.391814,43.860321 32.28796,38.163786 34.84375,31.71875 C 35.051638,31.20742 35.341539,30.734717 35.65625,30.28125 C 35.656902,30.270844 35.656902,30.260406 35.65625,30.25 C 43.339199,18.938991 53.400822,13.581644 62.8125,14.90625 C 72.027438,16.203167 78.808911,22.219946 84.375,28.53125 C 84.374348,28.541656 84.374348,28.552094 84.375,28.5625 C 84.428357,28.614921 84.474501,28.638245 84.5,28.65625 C 84.525499,28.674255 84.529349,28.686265 84.5625,28.71875 C 86.878504,30.988276 88.455522,32.440132 89.40625,33.1875 C 89.415724,33.198819 89.426181,33.209276 89.4375,33.21875 C 89.46636,33.2353 89.498232,33.245924 89.53125,33.25 C 89.599681,33.255802 89.667486,33.2332 89.71875,33.1875 C 90.838089,32.345768 94.258725,30.116522 99.125,26.34375 C 99.14938,26.326794 99.170544,26.30563 99.1875,26.28125 C 105.58672,16.423314 111.73302,10.394951 118.78125,7.84375 C 120.62369,7.1768543 122.48233,6.8363443 124.34375,6.8125 z M 125.5,21.46875 C 125.10723,21.487474 124.63935,21.649522 123.84375,21.9375 C 122.72168,22.343647 120.97536,23.48743 118.75,25.65625 C 116.52464,27.82507 113.83244,31.04176 110.9375,35.65625 C 110.47399,36.374954 109.89604,37.009087 109.21875,37.53125 C 105.44189,40.515433 102.78365,43.093034 100.125,45.03125 C 97.466348,46.969466 94.816177,48.263759 91.0625,48.71875 C 87.355165,49.168124 83.596188,47.597247 81.125,45.8125 C 78.63556,44.014571 76.602236,41.898689 73.90625,39.25 C 73.769812,39.113971 73.625563,38.989876 73.5,38.84375 C 68.953105,33.623241 64.045066,30.218148 60.71875,29.75 C 59.144157,29.528391 57.452251,29.636258 55.5,30.78125 C 53.547749,31.926242 51.32117,34.077948 48.5625,38 C 48.549209,38.019268 48.53869,38.040307 48.53125,38.0625 C 46.93535,42.412243 46.053481,47.553221 43.875,53.40625 C 41.653384,59.37517 37.508605,65.920082 30.1875,70.8125 C 30.176181,70.821974 30.165724,70.832431 30.15625,70.84375 C 25.380042,74.710204 21.499722,79.613368 20.15625,86.375 C 18.812778,93.136632 20.011235,101.71258 25.34375,112.96875 C 25.341136,112.9895 25.341136,113.0105 25.34375,113.03125 C 32.953305,123.75037 42.299248,140.55702 36.09375,158.78125 C 36.083166,158.82224 36.083166,158.86526 36.09375,158.90625 C 36.093098,158.91666 36.093098,158.92709 36.09375,158.9375 C 33.648724,169.6478 33.232364,178.4954 37.90625,185.71875 C 37.915724,185.73007 37.926181,185.74053 37.9375,185.75 C 45.871921,194.32021 52.400727,206.61161 56.5625,212.9375 C 57.445156,214.26917 57.889617,215.87298 57.8125,217.46875 C 57.586736,221.88729 59.509827,226.67558 62.4375,230.96875 C 65.365173,235.26192 69.307663,239.05447 73.125,241.375 C 81.001962,246.16334 84.567556,254.04096 87,260.59375 C 88.215042,263.86697 89.085673,266.92515 89.875,269.28125 C 90.226386,270.33012 90.566874,271.11874 90.8125,271.6875 C 90.935313,271.97188 91.051606,272.21402 91.125,272.375 C 91.198394,272.53598 91.227335,272.65707 91.21875,272.625 C 91.22619,272.64719 91.236709,272.66823 91.25,272.6875 C 91.266956,272.71188 91.28812,272.73304 91.3125,272.75 C 94.770436,276.01891 97.471096,277.28624 99.375,277.0625 C 101.36637,276.82849 105.23575,274.8079 110.40625,266.0625 C 110.4069,266.05209 110.4069,266.04166 110.40625,266.03125 C 112.63453,260.43724 116.34428,254.63486 121.1875,249.53125 C 125.74523,244.72848 131.41083,240.45642 138.5,239.40625 C 138.53302,239.40217 138.56489,239.39155 138.59375,239.375 C 138.95839,239.13364 139.74698,238.48995 140.8125,236.6875 C 142.05333,234.58849 143.38928,231.39947 144.90625,227.71875 C 147.94119,220.35489 151.54225,210.92449 159.40625,203.65625 C 159.71607,203.3664 160.05195,203.1084 160.40625,202.875 C 161.39117,202.23366 162.87213,200.70798 164.40625,198.65625 C 165.94037,196.60452 167.50938,194.02451 168.625,191.25 C 170.85313,185.70874 171.44337,179.73214 169.90625,175.59375 C 169.7977,175.30724 169.72898,175.01637 169.65625,174.71875 C 167.43773,165.42205 167.52553,156.58537 170.53125,148.3125 C 173.42962,140.3351 178.76836,133.1386 186.09375,125.59375 C 186.10704,125.57448 186.11756,125.55344 186.125,125.53125 C 188.25626,121.90008 191.51141,117.04304 193.09375,110.40625 C 194.76841,103.38222 194.67066,95.676585 187.46875,86.625 C 178.67913,75.577944 174.31912,69.99337 171.875,63.75 C 169.53963,57.784421 169.76241,52.778156 169.46875,45.34375 C 169.47136,45.322999 169.47136,45.302001 169.46875,45.28125 C 167.44128,38.158599 164.94868,34.760257 163.4375,33.625 C 162.68621,33.060603 162.0939,32.714852 161.375,32.65625 C 160.6561,32.597648 159.8608,32.791046 158.625,33.1875 C 156.09617,33.998772 152.72757,36.354334 149.3125,39.28125 C 145.89743,42.208166 142.44018,45.725316 139.71875,48.9375 C 138.68262,50.140254 137.33744,50.911783 135.90625,51.28125 C 135.87065,51.294679 135.83859,51.316055 135.8125,51.34375 C 135.80118,51.353224 135.79072,51.363681 135.78125,51.375 C 135.77282,51.38411 135.69031,51.47447 135.53125,51.625 C 135.37219,51.77553 135.11909,51.974662 134.8125,52.28125 C 133.63109,53.462657 132.11888,54.211427 131.5,54.46875 C 131.35323,54.529776 131.27884,54.567903 131.21875,54.59375 C 131.21308,54.596188 131.19248,54.591609 131.1875,54.59375 C 131.18775,54.593728 131.1629,54.591793 131.15625,54.59375 C 131.14295,54.597665 131.1257,54.624727 131.125,54.625 C 131.11459,54.624348 131.10416,54.624348 131.09375,54.625 C 131.0897,54.627424 131.07143,54.618932 131.0625,54.625 C 130.30238,55.152601 129.60358,55.579514 129.03125,55.875 C 128.45892,56.170486 128.02544,56.346652 127.84375,56.4375 C 125.1318,57.797577 121.85907,56.956754 120.125,54.46875 C 118.39094,51.980744 118.72351,48.604248 120.9375,46.53125 L 127.46875,40.375 C 127.49313,40.358044 127.51429,40.33688 127.53125,40.3125 C 127.74362,39.941465 127.97113,39.587017 128.25,39.25 C 128.25011,39.249873 128.24233,39.231645 128.25,39.21875 C 128.24984,39.218944 128.26981,39.206738 128.28125,39.1875 C 128.28568,39.182071 128.27683,39.16174 128.28125,39.15625 C 128.28115,39.156513 128.30853,39.139112 128.3125,39.125 C 128.31259,39.124464 128.31157,39.106602 128.3125,39.09375 C 129.35207,37.766044 130.31747,34.817558 130.125,31.40625 C 129.92752,27.906161 128.51946,24.408428 127.1875,22.875 C 126.87694,22.517459 126.6603,22.223009 126.46875,22 C 126.2772,21.776991 126.11169,21.620078 125.875,21.53125 C 125.7426,21.48156 125.6197,21.463044 125.5,21.46875 z M 125.5,21.96875 C 125.59188,21.96437 125.65064,21.954916 125.6875,21.96875 C 125.78934,22.006971 125.91846,22.139683 126.09375,22.34375 C 126.26904,22.547817 126.49145,22.817894 126.8125,23.1875 C 128.00698,24.562658 129.43416,28.023899 129.625,31.40625 C 129.8139,34.754248 128.80929,37.767288 127.90625,38.875 C 127.92604,38.851652 127.91251,38.861976 127.875,38.90625 C 127.87473,38.906573 127.84392,38.968311 127.84375,38.96875 C 127.83597,38.981693 127.84368,39.000174 127.84375,39 C 127.83962,39.014701 127.81256,39.030926 127.8125,39.03125 C 127.8098,39.040748 127.81246,39.062714 127.8125,39.0625 C 127.57012,39.367451 127.34615,39.674981 127.15625,40 C 127.14182,40.024706 127.10796,40.037673 127.09375,40.0625 L 120.625,46.15625 C 118.23183,48.397018 117.81272,52.091346 119.6875,54.78125 C 121.56229,57.471152 125.16398,58.344317 128.09375,56.875 C 128.23395,56.804902 128.66356,56.61527 129.25,56.3125 C 129.81985,56.018292 130.55408,55.614933 131.3125,55.09375 C 131.32466,55.089042 131.33122,55.067885 131.34375,55.0625 C 131.34545,55.061347 131.37053,55.065937 131.375,55.0625 C 131.38199,55.059492 131.39802,55.034788 131.40625,55.03125 C 131.46659,55.005301 131.54845,54.964067 131.6875,54.90625 C 132.34314,54.633639 133.92739,53.916355 135.1875,52.65625 C 135.49057,52.353186 135.71837,52.116985 135.875,51.96875 C 135.97072,51.878162 135.98105,51.8289 136.03125,51.78125 C 136.05359,51.775483 136.07145,51.755958 136.09375,51.75 C 137.59304,51.349383 139.00464,50.514263 140.09375,49.25 C 142.79618,46.060249 146.26469,42.563014 149.65625,39.65625 C 153.04781,36.749486 156.36673,34.452074 158.75,33.6875 C 159.97025,33.296031 160.74905,33.107772 161.34375,33.15625 C 161.93845,33.204728 162.39926,33.454796 163.125,34 C 164.45682,35.000521 166.95958,38.347911 168.96875,45.40625 C 169.25759,52.784079 169.07129,57.893136 171.4375,63.9375 C 173.91814,70.274166 178.30317,75.889244 187.09375,86.9375 C 194.21142,95.883219 194.24877,103.3396 192.59375,110.28125 C 191.04183,116.79048 187.86333,121.57099 185.71875,125.21875 C 185.70858,125.23604 185.69762,125.26401 185.6875,125.28125 C 178.36085,132.83488 172.95754,140.07074 170.03125,148.125 C 166.98739,156.50285 166.92045,165.47467 169.15625,174.84375 C 169.23382,175.16121 169.35296,175.47564 169.46875,175.78125 C 170.93591,179.73126 170.38037,185.60892 168.1875,191.0625 C 167.09262,193.78541 165.51171,196.35325 164,198.375 C 162.48829,200.39675 161.02749,201.87018 160.15625,202.4375 C 159.77833,202.68646 159.42423,202.97208 159.09375,203.28125 C 151.12731,210.64417 147.49937,220.17789 144.46875,227.53125 C 142.95294,231.20915 141.58361,234.39299 140.375,236.4375 C 139.3369,238.19357 138.64823,238.73596 138.34375,238.9375 C 131.14614,240.03577 125.39006,244.33259 120.8125,249.15625 C 115.93308,254.298 112.22411,260.16052 109.96875,265.8125 C 109.96549,265.82066 109.972,265.83559 109.96875,265.84375 C 104.84484,274.50119 101.03999,276.3595 99.3125,276.5625 C 97.701251,276.75184 95.066199,275.58397 91.6875,272.40625 C 91.660267,272.33393 91.616875,272.27551 91.5625,272.15625 C 91.488993,271.99502 91.401892,271.77935 91.28125,271.5 C 91.039966,270.9413 90.721272,270.12736 90.375,269.09375 C 89.590659,266.75253 88.659796,263.69901 87.4375,260.40625 C 84.995268,253.8271 81.402812,245.81754 73.375,240.9375 C 69.633514,238.66308 65.762149,234.92125 62.875,230.6875 C 59.987851,226.45375 58.095151,221.72257 58.3125,217.46875 C 58.394755,215.76668 57.941456,214.10789 57,212.6875 C 52.87484,206.41726 46.333678,194.11167 38.34375,185.46875 C 38.336075,185.45689 38.320147,185.44937 38.3125,185.4375 C 33.752751,178.35931 34.167957,169.64319 36.625,158.9375 C 36.625652,158.92709 36.625652,158.91666 36.625,158.90625 C 36.625652,158.89584 36.625652,158.88541 36.625,158.875 C 36.628366,158.86503 36.621643,158.85372 36.625,158.84375 C 36.625652,158.83334 36.625652,158.82291 36.625,158.8125 C 42.803593,140.415 33.400342,123.45131 25.78125,112.71875 L 25.75,112.71875 C 20.474822,101.55912 19.311129,93.081399 20.625,86.46875 C 21.938352,79.858711 25.734442,75.065591 30.4375,71.25 C 30.448977,71.240689 30.457262,71.22805 30.46875,71.21875 C 37.86511,66.262919 42.065528,59.630795 44.3125,53.59375 C 46.498119,47.721544 47.440283,42.588156 49,38.3125 C 49.010127,38.298102 49.021138,38.295599 49.03125,38.28125 C 49.034436,38.272544 49.028059,38.258698 49.03125,38.25 C 51.745075,34.403007 53.904369,32.26996 55.75,31.1875 C 57.606311,30.098776 59.147099,30.037601 60.65625,30.25 C 63.7121,30.680082 68.625723,33.990413 73.125,39.15625 C 73.258933,39.312118 73.385718,39.479905 73.53125,39.625 C 76.223046,42.269573 78.278842,44.357635 80.8125,46.1875 C 83.36441,48.030547 87.239195,49.689756 91.125,49.21875 C 94.964463,48.75336 97.705954,47.406076 100.40625,45.4375 C 103.10655,43.468924 105.77454,40.874519 109.53125,37.90625 C 110.25368,37.349281 110.88059,36.672858 111.375,35.90625 C 114.25189,31.320524 116.90218,28.135892 119.09375,26 C 121.28532,23.864108 123.03035,22.79979 124.03125,22.4375 C 124.82787,22.149152 125.25801,21.980286 125.5,21.96875 z "
       style="fill:#c60042;fill-opacity:1;fill-rule:evenodd;stroke:none;stroke-width:0.5;stroke-linecap:butt;stroke-linejoin:round;stroke-miterlimit:4;stroke-dasharray:none;stroke-opacity:1" />
  </g>
</svg>
