<?xml version="1.0" encoding="utf-8"?>
<!DOCTYPE svg PUBLIC "-//W3C//DTD SVG 1.1//EN" "http://www.w3.org/Graphics/SVG/1.1/DTD/svg11.dtd">
<svg version="1.1" xmlns="http://www.w3.org/2000/svg" x="0" y="0" width="168" height="166" viewBox="0 0 168 166">
<style type="text/css">
	.st0{fill:#fff;stroke:#000;}
	.st1{fill:#004000;}
	.st2{fill:#fff;}
	.st3{fill:#2E3192;}
</style>
<ellipse class="st0" cx="83.5" cy="82.5" rx="83.5" ry="82.5"/>
<path class="st1" d="M83.5,157C41.9,157,8,123.6,8,82.5C8,41.4,41.9,8,83.5,8S159,41.4,159,82.5C159,123.6,125.1,157,83.5,157z"/>
<path class="st2" d="M155.9,57.6c-3.5-10-9-19.4-16.1-26.9c-4.3,8.2-17.2,15-24.2,15.7c-13.1,1.3-23.9,9.3-29.2,15.8
	c-0.8,1-1.9,1.5-3.2,1.5c0,0,0,0,0,0c-9.9,0-14.6-1.1-27.2-13.2C44.9,39.8,35.1,34.1,26.7,32.8c-7,7.7-12.5,16.9-15.7,27.1
	c0.4,0,1.3,0,1.6,0c9.2,0,19.6,7.5,23.5,13c7.3,10,17.4,16.4,27.6,17.6c1.2,0.1,2.2,0.8,2.9,1.7c5.6,8.1,7.3,13.9,2.9,30.1
	c-4.8,17.7-3.6,27.8-1.5,33.6c5.1,1.1,10.1,1.2,15.5,1.2c5.4,0,10.9-0.2,16.1-1.3c-4.6-7.9-3.6-21.1-0.8-27.4
	c4.8-10.8,5.2-21.4,1.1-33.3c-0.3-1-0.3-2.1,0.1-3c3-6.5,11.4-13.7,25-17.3C142.7,70,151.6,63.3,155.9,57.6z"/>
<path class="st3" d="M152.7,52.7c-2.7-6.1-6.2-11.8-10.4-16.9c-5.9,9.1-18.6,14.7-26.2,15.4c-12.7,1.3-23.4,10.1-27,15.5
	c-0.7,1.1-2,1.8-3.3,1.8C72.3,68.9,66.6,67.5,52.6,54C37,39.2,28.3,37.5,23.4,37.5c-4.1,5.3-7.4,11.1-10,17.3
	c10.9,0.4,22.3,8.8,26.8,15C47.9,80.5,57.8,85.2,66,85.5c1.3,0,2.5,0.7,3.2,1.7c7.3,10.2,10.2,17.1,5.1,36.3
	c-5.5,20.4-3,28.7-0.5,32.8c3.2,0.4,6.4,0.6,9.6,0.6c3.6,0,7.2-0.3,10.7-0.8c-4.6-9.6-3.1-23.1,0-29.9c5.2-11.5,3.9-21.8,0.3-31.2
	c-0.3-0.9-0.4-1.8-0.1-2.7c2.8-8.7,12.7-18.1,29.2-22.5C144.8,64.3,150.4,57.1,152.7,52.7z"/>
<polygon class="st2" points="83.5,10.4 88.7,26.3 105.4,26.3 91.9,36.1 97,52 83.5,42.1 70,52 75.1,36.1 61.6,26.3 78.3,26.3 "/>
<polygon class="st2" points="40.2,83.4 45.4,99.3 62.1,99.3 48.6,109.1 53.7,125 40.2,115.2 26.7,125 31.8,109.1 18.3,99.3 35,99.3 
	"/>
<polygon class="st2" points="126.8,83.4 121.6,99.3 104.9,99.3 118.4,109.1 113.3,125 126.8,115.2 140.3,125 135.2,109.1 
	148.7,99.3 132,99.3 "/>
</svg>
