<?xml version="1.0" encoding="UTF-8" standalone="no"?>
<!-- Created with Inkscape (http://www.inkscape.org/) -->
<svg
   xmlns:dc="http://purl.org/dc/elements/1.1/"
   xmlns:cc="http://web.resource.org/cc/"
   xmlns:rdf="http://www.w3.org/1999/02/22-rdf-syntax-ns#"
   xmlns:svg="http://www.w3.org/2000/svg"
   xmlns="http://www.w3.org/2000/svg"
   xmlns:sodipodi="http://sodipodi.sourceforge.net/DTD/sodipodi-0.dtd"
   xmlns:inkscape="http://www.inkscape.org/namespaces/inkscape"
   id="svg2211"
   sodipodi:version="0.32"
   inkscape:version="0.45.1"
   width="558.06372"
   height="546.87335"
   version="1.0"
   sodipodi:docbase="C:\Documents and Settings\steven.williamson\Desktop"
   sodipodi:docname="28id.svg"
   inkscape:output_extension="org.inkscape.output.svg.inkscape">
  <metadata
     id="metadata2216">
    <rdf:RDF>
      <cc:Work
         rdf:about="">
        <dc:format>image/svg+xml</dc:format>
        <dc:type
           rdf:resource="http://purl.org/dc/dcmitype/StillImage" />
      </cc:Work>
    </rdf:RDF>
  </metadata>
  <defs
     id="defs2214" />
  <sodipodi:namedview
     inkscape:window-height="968"
     inkscape:window-width="1280"
     inkscape:pageshadow="2"
     inkscape:pageopacity="0.0"
     guidetolerance="10.0"
     gridtolerance="10.0"
     objecttolerance="10.0"
     borderopacity="1.0"
     bordercolor="#666666"
     pagecolor="#ffffff"
     id="base"
     inkscape:zoom="0.8078159"
     inkscape:cx="341.42338"
     inkscape:cy="371.85354"
     inkscape:window-x="0"
     inkscape:window-y="22"
     inkscape:current-layer="svg2211" />
  <g
     id="g6129">
    <g
       id="g5156">
      <path
         style="fill:#cc0033;fill-opacity:1;stroke:none;stroke-width:0.14980204;stroke-linecap:round;stroke-linejoin:round;stroke-miterlimit:4;stroke-dasharray:none;stroke-opacity:1"
         d="M 469.83725,0.92812714 L 88.27474,1.0312521 L 134.47475,145.81875 L 0.92786526,145.81875 L 127.46225,545.94375 L 430.75287,545.94375 L 557.18412,145.6125 L 423.74037,145.6125 L 469.83725,0.92812714 z "
         id="path4173" />
      <path
         style="fill:#000000;fill-opacity:1;stroke:none;stroke-width:0.55000001;stroke-linecap:round;stroke-linejoin:round;stroke-miterlimit:4;stroke-dasharray:none;stroke-opacity:1"
         d="M 469.83751,2.1435546e-006 L 88.275008,0.10312714 C 88.166504,0.11854144 88.061686,0.15347854 87.965633,0.20625214 C 87.801114,0.26732854 87.657832,0.37478974 87.553133,0.51562714 C 87.450011,0.63307414 87.378968,0.77516224 87.346883,0.92812714 C 87.34811,1.071852 87.383453,1.2132306 87.450008,1.3406271 L 133.23751,144.89063 L 0.92813256,144.89063 C 0.81962526,144.90604 0.71481066,144.94098 0.61875756,144.99375 C 0.45423936,145.05483 0.31095666,145.16229 0.20625756,145.30313 C 0.10313586,145.42057 0.032093464,145.56266 7.564258e-006,145.71563 C 0.0012351643,145.85935 0.036578164,146.00073 0.10313256,146.12813 L 126.63751,546.25313 C 126.69859,546.41763 126.80604,546.56092 126.94689,546.66563 C 127.06433,546.76875 127.20643,546.8398 127.35939,546.87188 C 127.39374,546.87382 127.42816,546.87382 127.46251,546.87188 L 430.75314,546.87188 C 430.86164,546.85647 430.96645,546.82152 431.06251,546.76875 C 431.22702,546.70767 431.3703,546.60022 431.47501,546.45938 C 431.51801,546.39529 431.55266,546.32599 431.57814,546.25313 L 558.00939,145.92188 C 558.08185,145.72199 558.08185,145.50301 558.00939,145.30313 C 557.88966,144.9455 557.56125,144.69918 557.18439,144.68438 L 424.97814,144.68438 L 470.66251,1.2375021 C 470.73498,1.0376178 470.73498,0.81863314 470.66251,0.61875214 C 470.54279,0.26112454 470.21437,0.014809244 469.83751,2.1435546e-006 L 469.83751,2.1435546e-006 z M 468.60001,1.8562521 L 422.91564,145.30313 C 422.84317,145.50301 422.84317,145.72199 422.91564,145.92188 C 423.03536,146.2795 423.36378,146.52582 423.74064,146.54063 L 555.94689,146.54063 L 430.13439,545.01563 L 128.08126,545.01563 L 2.1656326,146.74688 L 134.47501,146.74688 C 134.58351,146.73146 134.68832,146.69653 134.78439,146.64375 C 134.94889,146.58268 135.09218,146.47521 135.19689,146.33438 C 135.30001,146.21693 135.37106,146.07484 135.40314,145.92188 C 135.40191,145.77815 135.36657,145.63677 135.30001,145.50938 L 89.512508,1.9593771 L 468.60001,1.8562521 z "
         id="path8061" />
    </g>
    <path
       sodipodi:nodetypes="ccccccccccc"
       id="path4184"
       d="M 128.22368,31.56167 L 176.54681,175.35411 L 40.320909,175.35411 L 147.97368,515.31167 L 276.16118,515.31167 L 409.34868,515.31167 L 517.74282,175.30266 L 380.90107,175.61214 L 428.97368,31.56167 L 276.16118,31.56167 L 128.22368,31.56167 z "
       style="opacity:1;fill:none;fill-opacity:1;stroke:#000000;stroke-width:0.85;stroke-linecap:round;stroke-linejoin:round;stroke-miterlimit:4;stroke-dasharray:none;stroke-opacity:1" />
  </g>
</svg>
