<?xml version="1.0" encoding="UTF-8" standalone="no"?>
<!-- Created with Inkscape (http://www.inkscape.org/) -->

<svg
   xmlns:dc="http://purl.org/dc/elements/1.1/"
   xmlns:cc="http://creativecommons.org/ns#"
   xmlns:rdf="http://www.w3.org/1999/02/22-rdf-syntax-ns#"
   xmlns:svg="http://www.w3.org/2000/svg"
   xmlns="http://www.w3.org/2000/svg"
   xmlns:sodipodi="http://sodipodi.sourceforge.net/DTD/sodipodi-0.dtd"
   xmlns:inkscape="http://www.inkscape.org/namespaces/inkscape"
   id="svg2"
   version="1.1"
   inkscape:version="0.47pre4 r22446"
   width="1165.7812"
   height="1176.8125"
   sodipodi:docname="2nd_US_Armored_Division_SSI.svg">
  <metadata
     id="metadata8">
    <rdf:RDF>
      <cc:Work
         rdf:about="">
        <dc:format>image/svg+xml</dc:format>
        <dc:type
           rdf:resource="http://purl.org/dc/dcmitype/StillImage" />
        <dc:title></dc:title>
      </cc:Work>
    </rdf:RDF>
  </metadata>
  <defs
     id="defs6">
    <inkscape:perspective
       sodipodi:type="inkscape:persp3d"
       inkscape:vp_x="0 : 0.5 : 1"
       inkscape:vp_y="0 : 1000 : 0"
       inkscape:vp_z="1 : 0.5 : 1"
       inkscape:persp3d-origin="0.5 : 0.33333333 : 1"
       id="perspective10" />
    <inkscape:perspective
       id="perspective3632"
       inkscape:persp3d-origin="0.5 : 0.33333333 : 1"
       inkscape:vp_z="1 : 0.5 : 1"
       inkscape:vp_y="0 : 1000 : 0"
       inkscape:vp_x="0 : 0.5 : 1"
       sodipodi:type="inkscape:persp3d" />
    <inkscape:perspective
       id="perspective3654"
       inkscape:persp3d-origin="0.5 : 0.33333333 : 1"
       inkscape:vp_z="1 : 0.5 : 1"
       inkscape:vp_y="0 : 1000 : 0"
       inkscape:vp_x="0 : 0.5 : 1"
       sodipodi:type="inkscape:persp3d" />
    <inkscape:perspective
       id="perspective3676"
       inkscape:persp3d-origin="0.5 : 0.33333333 : 1"
       inkscape:vp_z="1 : 0.5 : 1"
       inkscape:vp_y="0 : 1000 : 0"
       inkscape:vp_x="0 : 0.5 : 1"
       sodipodi:type="inkscape:persp3d" />
    <inkscape:perspective
       id="perspective3698"
       inkscape:persp3d-origin="0.5 : 0.33333333 : 1"
       inkscape:vp_z="1 : 0.5 : 1"
       inkscape:vp_y="0 : 1000 : 0"
       inkscape:vp_x="0 : 0.5 : 1"
       sodipodi:type="inkscape:persp3d" />
    <inkscape:perspective
       id="perspective3698-6"
       inkscape:persp3d-origin="0.5 : 0.33333333 : 1"
       inkscape:vp_z="1 : 0.5 : 1"
       inkscape:vp_y="0 : 1000 : 0"
       inkscape:vp_x="0 : 0.5 : 1"
       sodipodi:type="inkscape:persp3d" />
    <inkscape:perspective
       id="perspective3698-7"
       inkscape:persp3d-origin="0.5 : 0.33333333 : 1"
       inkscape:vp_z="1 : 0.5 : 1"
       inkscape:vp_y="0 : 1000 : 0"
       inkscape:vp_x="0 : 0.5 : 1"
       sodipodi:type="inkscape:persp3d" />
    <inkscape:perspective
       id="perspective3738"
       inkscape:persp3d-origin="0.5 : 0.33333333 : 1"
       inkscape:vp_z="1 : 0.5 : 1"
       inkscape:vp_y="0 : 1000 : 0"
       inkscape:vp_x="0 : 0.5 : 1"
       sodipodi:type="inkscape:persp3d" />
    <inkscape:perspective
       id="perspective3769"
       inkscape:persp3d-origin="0.5 : 0.33333333 : 1"
       inkscape:vp_z="1 : 0.5 : 1"
       inkscape:vp_y="0 : 1000 : 0"
       inkscape:vp_x="0 : 0.5 : 1"
       sodipodi:type="inkscape:persp3d" />
    <inkscape:perspective
       id="perspective3818"
       inkscape:persp3d-origin="0.5 : 0.33333333 : 1"
       inkscape:vp_z="1 : 0.5 : 1"
       inkscape:vp_y="0 : 1000 : 0"
       inkscape:vp_x="0 : 0.5 : 1"
       sodipodi:type="inkscape:persp3d" />
    <inkscape:perspective
       id="perspective3840"
       inkscape:persp3d-origin="0.5 : 0.33333333 : 1"
       inkscape:vp_z="1 : 0.5 : 1"
       inkscape:vp_y="0 : 1000 : 0"
       inkscape:vp_x="0 : 0.5 : 1"
       sodipodi:type="inkscape:persp3d" />
    <inkscape:perspective
       id="perspective3840-1"
       inkscape:persp3d-origin="0.5 : 0.33333333 : 1"
       inkscape:vp_z="1 : 0.5 : 1"
       inkscape:vp_y="0 : 1000 : 0"
       inkscape:vp_x="0 : 0.5 : 1"
       sodipodi:type="inkscape:persp3d" />
    <inkscape:perspective
       id="perspective3871"
       inkscape:persp3d-origin="0.5 : 0.33333333 : 1"
       inkscape:vp_z="1 : 0.5 : 1"
       inkscape:vp_y="0 : 1000 : 0"
       inkscape:vp_x="0 : 0.5 : 1"
       sodipodi:type="inkscape:persp3d" />
    <inkscape:perspective
       id="perspective3896"
       inkscape:persp3d-origin="0.5 : 0.33333333 : 1"
       inkscape:vp_z="1 : 0.5 : 1"
       inkscape:vp_y="0 : 1000 : 0"
       inkscape:vp_x="0 : 0.5 : 1"
       sodipodi:type="inkscape:persp3d" />
    <inkscape:perspective
       id="perspective3918"
       inkscape:persp3d-origin="0.5 : 0.33333333 : 1"
       inkscape:vp_z="1 : 0.5 : 1"
       inkscape:vp_y="0 : 1000 : 0"
       inkscape:vp_x="0 : 0.5 : 1"
       sodipodi:type="inkscape:persp3d" />
    <inkscape:perspective
       id="perspective3960"
       inkscape:persp3d-origin="0.5 : 0.33333333 : 1"
       inkscape:vp_z="1 : 0.5 : 1"
       inkscape:vp_y="0 : 1000 : 0"
       inkscape:vp_x="0 : 0.5 : 1"
       sodipodi:type="inkscape:persp3d" />
    <inkscape:perspective
       id="perspective4004"
       inkscape:persp3d-origin="0.5 : 0.33333333 : 1"
       inkscape:vp_z="1 : 0.5 : 1"
       inkscape:vp_y="0 : 1000 : 0"
       inkscape:vp_x="0 : 0.5 : 1"
       sodipodi:type="inkscape:persp3d" />
    <inkscape:perspective
       id="perspective4152"
       inkscape:persp3d-origin="0.5 : 0.33333333 : 1"
       inkscape:vp_z="1 : 0.5 : 1"
       inkscape:vp_y="0 : 1000 : 0"
       inkscape:vp_x="0 : 0.5 : 1"
       sodipodi:type="inkscape:persp3d" />
    <inkscape:perspective
       id="perspective4174"
       inkscape:persp3d-origin="0.5 : 0.33333333 : 1"
       inkscape:vp_z="1 : 0.5 : 1"
       inkscape:vp_y="0 : 1000 : 0"
       inkscape:vp_x="0 : 0.5 : 1"
       sodipodi:type="inkscape:persp3d" />
    <inkscape:perspective
       id="perspective4209"
       inkscape:persp3d-origin="0.5 : 0.33333333 : 1"
       inkscape:vp_z="1 : 0.5 : 1"
       inkscape:vp_y="0 : 1000 : 0"
       inkscape:vp_x="0 : 0.5 : 1"
       sodipodi:type="inkscape:persp3d" />
    <inkscape:perspective
       id="perspective4223"
       inkscape:persp3d-origin="0.5 : 0.33333333 : 1"
       inkscape:vp_z="1 : 0.5 : 1"
       inkscape:vp_y="0 : 1000 : 0"
       inkscape:vp_x="0 : 0.5 : 1"
       sodipodi:type="inkscape:persp3d" />
    <inkscape:perspective
       id="perspective4344"
       inkscape:persp3d-origin="0.5 : 0.33333333 : 1"
       inkscape:vp_z="1 : 0.5 : 1"
       inkscape:vp_y="0 : 1000 : 0"
       inkscape:vp_x="0 : 0.5 : 1"
       sodipodi:type="inkscape:persp3d" />
    <inkscape:perspective
       id="perspective4468"
       inkscape:persp3d-origin="0.5 : 0.33333333 : 1"
       inkscape:vp_z="1 : 0.5 : 1"
       inkscape:vp_y="0 : 1000 : 0"
       inkscape:vp_x="0 : 0.5 : 1"
       sodipodi:type="inkscape:persp3d" />
    <inkscape:perspective
       id="perspective4589"
       inkscape:persp3d-origin="0.5 : 0.33333333 : 1"
       inkscape:vp_z="1 : 0.5 : 1"
       inkscape:vp_y="0 : 1000 : 0"
       inkscape:vp_x="0 : 0.5 : 1"
       sodipodi:type="inkscape:persp3d" />
    <inkscape:perspective
       id="perspective4713"
       inkscape:persp3d-origin="0.5 : 0.33333333 : 1"
       inkscape:vp_z="1 : 0.5 : 1"
       inkscape:vp_y="0 : 1000 : 0"
       inkscape:vp_x="0 : 0.5 : 1"
       sodipodi:type="inkscape:persp3d" />
    <inkscape:perspective
       id="perspective4816"
       inkscape:persp3d-origin="0.5 : 0.33333333 : 1"
       inkscape:vp_z="1 : 0.5 : 1"
       inkscape:vp_y="0 : 1000 : 0"
       inkscape:vp_x="0 : 0.5 : 1"
       sodipodi:type="inkscape:persp3d" />
    <inkscape:perspective
       id="perspective4862"
       inkscape:persp3d-origin="0.5 : 0.33333333 : 1"
       inkscape:vp_z="1 : 0.5 : 1"
       inkscape:vp_y="0 : 1000 : 0"
       inkscape:vp_x="0 : 0.5 : 1"
       sodipodi:type="inkscape:persp3d" />
    <inkscape:perspective
       id="perspective4962"
       inkscape:persp3d-origin="0.5 : 0.33333333 : 1"
       inkscape:vp_z="1 : 0.5 : 1"
       inkscape:vp_y="0 : 1000 : 0"
       inkscape:vp_x="0 : 0.5 : 1"
       sodipodi:type="inkscape:persp3d" />
    <inkscape:perspective
       id="perspective5008"
       inkscape:persp3d-origin="0.5 : 0.33333333 : 1"
       inkscape:vp_z="1 : 0.5 : 1"
       inkscape:vp_y="0 : 1000 : 0"
       inkscape:vp_x="0 : 0.5 : 1"
       sodipodi:type="inkscape:persp3d" />
    <inkscape:perspective
       id="perspective5111"
       inkscape:persp3d-origin="0.5 : 0.33333333 : 1"
       inkscape:vp_z="1 : 0.5 : 1"
       inkscape:vp_y="0 : 1000 : 0"
       inkscape:vp_x="0 : 0.5 : 1"
       sodipodi:type="inkscape:persp3d" />
    <inkscape:perspective
       id="perspective5157"
       inkscape:persp3d-origin="0.5 : 0.33333333 : 1"
       inkscape:vp_z="1 : 0.5 : 1"
       inkscape:vp_y="0 : 1000 : 0"
       inkscape:vp_x="0 : 0.5 : 1"
       sodipodi:type="inkscape:persp3d" />
    <inkscape:perspective
       id="perspective5258"
       inkscape:persp3d-origin="0.5 : 0.33333333 : 1"
       inkscape:vp_z="1 : 0.5 : 1"
       inkscape:vp_y="0 : 1000 : 0"
       inkscape:vp_x="0 : 0.5 : 1"
       sodipodi:type="inkscape:persp3d" />
    <inkscape:perspective
       id="perspective5301"
       inkscape:persp3d-origin="0.5 : 0.33333333 : 1"
       inkscape:vp_z="1 : 0.5 : 1"
       inkscape:vp_y="0 : 1000 : 0"
       inkscape:vp_x="0 : 0.5 : 1"
       sodipodi:type="inkscape:persp3d" />
    <inkscape:perspective
       id="perspective5454"
       inkscape:persp3d-origin="0.5 : 0.33333333 : 1"
       inkscape:vp_z="1 : 0.5 : 1"
       inkscape:vp_y="0 : 1000 : 0"
       inkscape:vp_x="0 : 0.5 : 1"
       sodipodi:type="inkscape:persp3d" />
    <inkscape:perspective
       id="perspective5555"
       inkscape:persp3d-origin="0.5 : 0.33333333 : 1"
       inkscape:vp_z="1 : 0.5 : 1"
       inkscape:vp_y="0 : 1000 : 0"
       inkscape:vp_x="0 : 0.5 : 1"
       sodipodi:type="inkscape:persp3d" />
    <inkscape:perspective
       id="perspective5598"
       inkscape:persp3d-origin="0.5 : 0.33333333 : 1"
       inkscape:vp_z="1 : 0.5 : 1"
       inkscape:vp_y="0 : 1000 : 0"
       inkscape:vp_x="0 : 0.5 : 1"
       sodipodi:type="inkscape:persp3d" />
    <inkscape:perspective
       id="perspective5723"
       inkscape:persp3d-origin="0.5 : 0.33333333 : 1"
       inkscape:vp_z="1 : 0.5 : 1"
       inkscape:vp_y="0 : 1000 : 0"
       inkscape:vp_x="0 : 0.5 : 1"
       sodipodi:type="inkscape:persp3d" />
    <inkscape:perspective
       id="perspective5842"
       inkscape:persp3d-origin="0.5 : 0.33333333 : 1"
       inkscape:vp_z="1 : 0.5 : 1"
       inkscape:vp_y="0 : 1000 : 0"
       inkscape:vp_x="0 : 0.5 : 1"
       sodipodi:type="inkscape:persp3d" />
    <inkscape:perspective
       id="perspective5964"
       inkscape:persp3d-origin="0.5 : 0.33333333 : 1"
       inkscape:vp_z="1 : 0.5 : 1"
       inkscape:vp_y="0 : 1000 : 0"
       inkscape:vp_x="0 : 0.5 : 1"
       sodipodi:type="inkscape:persp3d" />
    <inkscape:perspective
       id="perspective6067"
       inkscape:persp3d-origin="0.5 : 0.33333333 : 1"
       inkscape:vp_z="1 : 0.5 : 1"
       inkscape:vp_y="0 : 1000 : 0"
       inkscape:vp_x="0 : 0.5 : 1"
       sodipodi:type="inkscape:persp3d" />
    <inkscape:perspective
       id="perspective6113"
       inkscape:persp3d-origin="0.5 : 0.33333333 : 1"
       inkscape:vp_z="1 : 0.5 : 1"
       inkscape:vp_y="0 : 1000 : 0"
       inkscape:vp_x="0 : 0.5 : 1"
       sodipodi:type="inkscape:persp3d" />
    <inkscape:perspective
       id="perspective6219"
       inkscape:persp3d-origin="0.5 : 0.33333333 : 1"
       inkscape:vp_z="1 : 0.5 : 1"
       inkscape:vp_y="0 : 1000 : 0"
       inkscape:vp_x="0 : 0.5 : 1"
       sodipodi:type="inkscape:persp3d" />
    <inkscape:perspective
       id="perspective6265"
       inkscape:persp3d-origin="0.5 : 0.33333333 : 1"
       inkscape:vp_z="1 : 0.5 : 1"
       inkscape:vp_y="0 : 1000 : 0"
       inkscape:vp_x="0 : 0.5 : 1"
       sodipodi:type="inkscape:persp3d" />
    <inkscape:perspective
       id="perspective6395"
       inkscape:persp3d-origin="0.5 : 0.33333333 : 1"
       inkscape:vp_z="1 : 0.5 : 1"
       inkscape:vp_y="0 : 1000 : 0"
       inkscape:vp_x="0 : 0.5 : 1"
       sodipodi:type="inkscape:persp3d" />
    <inkscape:perspective
       id="perspective6519"
       inkscape:persp3d-origin="0.5 : 0.33333333 : 1"
       inkscape:vp_z="1 : 0.5 : 1"
       inkscape:vp_y="0 : 1000 : 0"
       inkscape:vp_x="0 : 0.5 : 1"
       sodipodi:type="inkscape:persp3d" />
    <inkscape:perspective
       id="perspective6684"
       inkscape:persp3d-origin="0.5 : 0.33333333 : 1"
       inkscape:vp_z="1 : 0.5 : 1"
       inkscape:vp_y="0 : 1000 : 0"
       inkscape:vp_x="0 : 0.5 : 1"
       sodipodi:type="inkscape:persp3d" />
    <inkscape:perspective
       id="perspective6721"
       inkscape:persp3d-origin="0.5 : 0.33333333 : 1"
       inkscape:vp_z="1 : 0.5 : 1"
       inkscape:vp_y="0 : 1000 : 0"
       inkscape:vp_x="0 : 0.5 : 1"
       sodipodi:type="inkscape:persp3d" />
  </defs>
  <sodipodi:namedview
     pagecolor="#ffffff"
     bordercolor="#666666"
     borderopacity="1"
     objecttolerance="10"
     gridtolerance="10"
     guidetolerance="10"
     inkscape:pageopacity="0"
     inkscape:pageshadow="2"
     inkscape:window-width="1280"
     inkscape:window-height="970"
     id="namedview4"
     showgrid="false"
     inkscape:zoom="0.33342098"
     inkscape:cx="597.05459"
     inkscape:cy="556.79599"
     inkscape:window-x="0"
     inkscape:window-y="0"
     inkscape:window-maximized="1"
     inkscape:current-layer="svg2" />
  <rect
     style="fill:#f5b522;fill-opacity:1;stroke:none"
     id="rect6690"
     width="1151.6971"
     height="179.95268"
     x="8.4319801"
     y="991.56488" />
  <path
     style="fill:#feb20e;fill-opacity:1;stroke:none"
     d="M 584.09307,24.319192 267.67627,552.1804 588.59188,738.1315 905.00869,547.68158 584.09307,24.319192 z"
     id="path3616" />
  <path
     style="fill:#e00114;fill-opacity:1;stroke:none"
     d="m 888.13812,533.81022 -323.35248,176.95348 5.81098,277.80195 c 0,0 592.12558,7.94154 588.97008,2.62431 L 888.13812,533.81022 z"
     id="path3618"
     sodipodi:nodetypes="cccsc" />
  <path
     style="fill:#342cb5;fill-opacity:1;stroke:none"
     d="M 13.759534,984.65678 583.18432,988.89831 583.84706,700.34203 282.83131,536.11547 13.759534,984.65678 z"
     id="path3620"
     sodipodi:nodetypes="ccccc" />
  <path
     style="fill:#1f4225;fill-opacity:1;stroke:none"
     d="M 583.25,0 0,979.46875 l 0,21.09375 1165.7813,-0.031 0,-20.6562 L 583.25,0 z M 583.71875,41.75 1141.5625,980.3125 25.6875,980.5 583.71875,41.75 z"
     id="path2839" />
  <rect
     style="fill:none;stroke:#000000;stroke-width:5;stroke-linecap:round;stroke-linejoin:miter;stroke-miterlimit:4;stroke-opacity:1;stroke-dasharray:none;stroke-dashoffset:0"
     id="rect3795"
     width="22.551838"
     height="74.288208"
     x="288.26697"
     y="619.44635"
     ry="11.629043" />
  <rect
     style="fill:none;stroke:#000000;stroke-width:5;stroke-linecap:round;stroke-linejoin:miter;stroke-miterlimit:4;stroke-opacity:1;stroke-dasharray:none;stroke-dashoffset:0"
     id="rect3795-2"
     width="22.551838"
     height="74.288208"
     x="-686.31842"
     y="-30.781513"
     ry="11.629043"
     transform="matrix(-0.5,-0.8660254,0.8660254,-0.5,0,0)" />
  <rect
     style="fill:none;stroke:#000000;stroke-width:5;stroke-linecap:round;stroke-linejoin:miter;stroke-miterlimit:4;stroke-opacity:1;stroke-dasharray:none;stroke-dashoffset:0"
     id="rect3795-8"
     width="22.551838"
     height="74.288208"
     x="546.90283"
     y="-467.52759"
     ry="11.629043"
     transform="matrix(0,1,-1,0,0,0)" />
  <rect
     style="fill:none;stroke:#000000;stroke-width:5;stroke-linecap:round;stroke-linejoin:miter;stroke-miterlimit:4;stroke-opacity:1;stroke-dasharray:none;stroke-dashoffset:0"
     id="rect3795-4"
     width="22.551838"
     height="74.288208"
     x="546.90289"
     y="-569.12585"
     ry="11.629043"
     transform="matrix(0,1,-1,0,0,0)" />
  <rect
     style="fill:none;stroke:#000000;stroke-width:5;stroke-linecap:round;stroke-linejoin:miter;stroke-miterlimit:4;stroke-opacity:1;stroke-dasharray:none;stroke-dashoffset:0"
     id="rect3795-8-1"
     width="22.551838"
     height="74.288208"
     x="547.27777"
     y="-671.66144"
     ry="11.629043"
     transform="matrix(0,1,-1,0,0,0)" />
  <rect
     style="fill:none;stroke:#000000;stroke-width:5;stroke-linecap:round;stroke-linejoin:miter;stroke-miterlimit:4;stroke-opacity:1;stroke-dasharray:none;stroke-dashoffset:0"
     id="rect3795-4-1"
     width="22.551838"
     height="74.288208"
     x="547.27783"
     y="-773.2597"
     ry="11.629043"
     transform="matrix(0,1,-1,0,0,0)" />
  <rect
     style="fill:none;stroke:#000000;stroke-width:5;stroke-linecap:round;stroke-linejoin:miter;stroke-miterlimit:4;stroke-opacity:1;stroke-dasharray:none;stroke-dashoffset:0"
     id="rect3795-2-8"
     width="22.551838"
     height="74.288208"
     x="449.16891"
     y="624.35956"
     ry="11.629043"
     transform="matrix(-0.5,0.8660254,0.8660254,0.5,0,0)" />
  <rect
     style="fill:none;stroke:#000000;stroke-width:5;stroke-linecap:round;stroke-linejoin:miter;stroke-miterlimit:4;stroke-opacity:1;stroke-dasharray:none;stroke-dashoffset:0"
     id="rect3795-6"
     width="22.551838"
     height="74.288208"
     x="855.79694"
     y="619.14551"
     ry="11.629043" />
  <rect
     style="fill:none;stroke:#000000;stroke-width:5;stroke-linecap:round;stroke-linejoin:miter;stroke-miterlimit:4;stroke-opacity:1;stroke-dasharray:none;stroke-dashoffset:0"
     id="rect3795-2-5"
     width="22.551838"
     height="74.288208"
     x="-1054.9991"
     y="311.47168"
     ry="11.629043"
     transform="matrix(-0.5,-0.8660254,0.8660254,-0.5,0,0)" />
  <rect
     style="fill:none;stroke:#000000;stroke-width:5;stroke-linecap:round;stroke-linejoin:miter;stroke-miterlimit:4;stroke-opacity:1;stroke-dasharray:none;stroke-dashoffset:0"
     id="rect3795-8-6"
     width="22.551838"
     height="74.288208"
     x="734.24036"
     y="-773.00153"
     ry="11.629043"
     transform="matrix(0,1,-1,0,0,0)" />
  <rect
     style="fill:none;stroke:#000000;stroke-width:5;stroke-linecap:round;stroke-linejoin:miter;stroke-miterlimit:4;stroke-opacity:1;stroke-dasharray:none;stroke-dashoffset:0"
     id="rect3795-4-8"
     width="22.551838"
     height="74.288208"
     x="734.2403"
     y="-671.40326"
     ry="11.629043"
     transform="matrix(0,1,-1,0,0,0)" />
  <rect
     style="fill:none;stroke:#000000;stroke-width:5;stroke-linecap:round;stroke-linejoin:miter;stroke-miterlimit:4;stroke-opacity:1;stroke-dasharray:none;stroke-dashoffset:0"
     id="rect3795-8-1-0"
     width="22.551838"
     height="74.288208"
     x="733.86542"
     y="-568.86768"
     ry="11.629043"
     transform="matrix(0,1,-1,0,0,0)" />
  <rect
     style="fill:none;stroke:#000000;stroke-width:5;stroke-linecap:round;stroke-linejoin:miter;stroke-miterlimit:4;stroke-opacity:1;stroke-dasharray:none;stroke-dashoffset:0"
     id="rect3795-4-1-2"
     width="22.551838"
     height="74.288208"
     x="733.86536"
     y="-467.26941"
     ry="11.629043"
     transform="matrix(0,1,-1,0,0,0)" />
  <rect
     style="fill:none;stroke:#000000;stroke-width:5;stroke-linecap:round;stroke-linejoin:miter;stroke-miterlimit:4;stroke-opacity:1;stroke-dasharray:none;stroke-dashoffset:0"
     id="rect3795-2-8-2"
     width="22.551838"
     height="74.288208"
     x="80.266876"
     y="966.91791"
     ry="11.629043"
     transform="matrix(-0.5,0.8660254,0.8660254,0.5,0,0)" />
  <g
     id="g3986"
     transform="translate(-12.75,-0.4375)">
    <path
       transform="matrix(1.1538595,0,0,0.98556947,-63.270053,8.1745129)"
       d="m 470.8762,657.40283 c 0,39.70229 -27.52725,71.88735 -61.48384,71.88735 -33.95658,0 -61.48383,-32.18506 -61.48383,-71.88735 0,-39.70228 27.52725,-71.88734 61.48383,-71.88734 33.95659,0 61.48384,32.18506 61.48384,71.88734 z"
       sodipodi:ry="71.887344"
       sodipodi:rx="61.483833"
       sodipodi:cy="657.40283"
       sodipodi:cx="409.39236"
       id="path3950"
       style="fill:none;stroke:#000000;stroke-width:3.75577331;stroke-linecap:round;stroke-linejoin:miter;stroke-miterlimit:4;stroke-opacity:1;stroke-dasharray:none;stroke-dashoffset:0"
       sodipodi:type="arc" />
    <path
       inkscape:transform-center-y="-1.8687257"
       inkscape:transform-center-x="-1.3496301"
       transform="matrix(0.31807974,0.0303802,-0.02594926,0.27168794,295.44365,465.13857)"
       d="m 470.8762,657.40283 c 0,39.70229 -27.52725,71.88735 -61.48384,71.88735 -33.95658,0 -61.48383,-32.18506 -61.48383,-71.88735 0,-39.70228 27.52725,-71.88734 61.48383,-71.88734 33.95659,0 61.48384,32.18506 61.48384,71.88734 z"
       sodipodi:ry="71.887344"
       sodipodi:rx="61.483833"
       sodipodi:cy="657.40283"
       sodipodi:cx="409.39236"
       id="path3950-2"
       style="fill:none;stroke:#000000;stroke-width:13.54518318;stroke-linecap:round;stroke-linejoin:miter;stroke-miterlimit:4;stroke-opacity:1;stroke-dasharray:none;stroke-dashoffset:0"
       sodipodi:type="arc" />
    <path
       id="path3974"
       d="m 374.99515,594.23195 24.46232,44.42582"
       style="fill:none;stroke:#000000;stroke-width:5;stroke-linecap:butt;stroke-linejoin:miter;stroke-miterlimit:4;stroke-opacity:1;stroke-dasharray:none" />
    <path
       id="path3976"
       d="m 418.10881,639.5013 25.8682,-44.51954"
       style="fill:none;stroke:#000000;stroke-width:5;stroke-linecap:butt;stroke-linejoin:miter;stroke-miterlimit:4;stroke-opacity:1;stroke-dasharray:none" />
    <path
       id="path3978"
       d="m 428.7935,656.37187 50.70542,-0.0937"
       style="fill:none;stroke:#000000;stroke-width:5;stroke-linecap:butt;stroke-linejoin:miter;stroke-miterlimit:4;stroke-opacity:1;stroke-dasharray:none" />
    <path
       id="path3980"
       d="m 419.13979,673.52361 24.7435,43.95719"
       style="fill:none;stroke:#000000;stroke-width:5;stroke-linecap:butt;stroke-linejoin:miter;stroke-miterlimit:4;stroke-opacity:1;stroke-dasharray:none" />
    <path
       id="path3982"
       d="m 399.45747,673.80479 -24.46232,43.86346"
       style="fill:none;stroke:#000000;stroke-width:5;stroke-linecap:butt;stroke-linejoin:miter;stroke-miterlimit:4;stroke-opacity:1;stroke-dasharray:none" />
    <path
       id="path3984"
       d="m 339.6862,655.52834 48.59244,0"
       style="fill:none;stroke:#000000;stroke-width:4.93130922;stroke-linecap:butt;stroke-linejoin:miter;stroke-miterlimit:4;stroke-opacity:1;stroke-dasharray:none" />
  </g>
  <g
     transform="translate(361.49531,0.12486834)"
     id="g3986-7">
    <path
       transform="matrix(1.1538595,0,0,0.98556947,-63.270053,8.1745129)"
       d="m 470.8762,657.40283 c 0,39.70229 -27.52725,71.88735 -61.48384,71.88735 -33.95658,0 -61.48383,-32.18506 -61.48383,-71.88735 0,-39.70228 27.52725,-71.88734 61.48383,-71.88734 33.95659,0 61.48384,32.18506 61.48384,71.88734 z"
       sodipodi:ry="71.887344"
       sodipodi:rx="61.483833"
       sodipodi:cy="657.40283"
       sodipodi:cx="409.39236"
       id="path3950-1"
       style="fill:none;stroke:#000000;stroke-width:3.75577331;stroke-linecap:round;stroke-linejoin:miter;stroke-miterlimit:4;stroke-opacity:1;stroke-dasharray:none;stroke-dashoffset:0"
       sodipodi:type="arc" />
    <path
       inkscape:transform-center-y="-1.8687257"
       inkscape:transform-center-x="-1.3496301"
       transform="matrix(0.31807974,0.0303802,-0.02594926,0.27168794,295.44365,465.13857)"
       d="m 470.8762,657.40283 c 0,39.70229 -27.52725,71.88735 -61.48384,71.88735 -33.95658,0 -61.48383,-32.18506 -61.48383,-71.88735 0,-39.70228 27.52725,-71.88734 61.48383,-71.88734 33.95659,0 61.48384,32.18506 61.48384,71.88734 z"
       sodipodi:ry="71.887344"
       sodipodi:rx="61.483833"
       sodipodi:cy="657.40283"
       sodipodi:cx="409.39236"
       id="path3950-2-8"
       style="fill:none;stroke:#000000;stroke-width:13.54518318;stroke-linecap:round;stroke-linejoin:miter;stroke-miterlimit:4;stroke-opacity:1;stroke-dasharray:none;stroke-dashoffset:0"
       sodipodi:type="arc" />
    <path
       id="path3974-2"
       d="m 374.99515,594.23195 24.46232,44.42582"
       style="fill:none;stroke:#000000;stroke-width:5;stroke-linecap:butt;stroke-linejoin:miter;stroke-miterlimit:4;stroke-opacity:1;stroke-dasharray:none" />
    <path
       id="path3976-1"
       d="m 418.10881,639.5013 25.8682,-44.51954"
       style="fill:none;stroke:#000000;stroke-width:5;stroke-linecap:butt;stroke-linejoin:miter;stroke-miterlimit:4;stroke-opacity:1;stroke-dasharray:none" />
    <path
       id="path3978-9"
       d="m 428.7935,656.37187 50.70542,-0.0937"
       style="fill:none;stroke:#000000;stroke-width:5;stroke-linecap:butt;stroke-linejoin:miter;stroke-miterlimit:4;stroke-opacity:1;stroke-dasharray:none" />
    <path
       id="path3980-3"
       d="m 419.13979,673.52361 24.7435,43.95719"
       style="fill:none;stroke:#000000;stroke-width:5;stroke-linecap:butt;stroke-linejoin:miter;stroke-miterlimit:4;stroke-opacity:1;stroke-dasharray:none" />
    <path
       id="path3982-7"
       d="m 399.45747,673.80479 -24.46232,43.86346"
       style="fill:none;stroke:#000000;stroke-width:5;stroke-linecap:butt;stroke-linejoin:miter;stroke-miterlimit:4;stroke-opacity:1;stroke-dasharray:none" />
    <path
       id="path3984-7"
       d="m 339.6862,655.52834 48.59244,0"
       style="fill:none;stroke:#000000;stroke-width:4.93130922;stroke-linecap:butt;stroke-linejoin:miter;stroke-miterlimit:4;stroke-opacity:1;stroke-dasharray:none" />
  </g>
  <path
     style="fill:#000000;fill-opacity:1;stroke:none"
     d="m 375.92905,531.42023 -12.84037,40.48936 401.89432,145.03998 5.81692,-18.06005 19.74545,-17.15211 c -3.5771,-5.61606 -7.82332,-10.11692 -8.55257,-20.47939 l 6.70271,-17.92971 -412.76646,-111.90808 z"
     id="path4042"
     sodipodi:nodetypes="cccccccc" />
  <path
     style="fill:#e00114;fill-opacity:1;stroke:none"
     d="m 749.98694,429.11901 17.80782,35.24072 -112.84532,125.12336 -11.8094,-25.58703 -139.08842,153.24097 -11.15332,-43.39484 -141.24412,127.65393 153.14724,-203.19658 14.0588,54.54816 147.99233,-176.29739 8.71647,34.58465 74.41792,-81.91595 z"
     id="path4044"
     sodipodi:nodetypes="cccccccccccc" />
  <path
     style="fill:#214327;fill-opacity:1;stroke:none"
     d="m 0,994.5625 0,182.25 1165.7813,0 0,-182.25 -1165.7813,0 z m 1145.875,5.9687 0,155.625 -1125.8125,0 0,-155.5937 1125.8125,-0.031 z"
     id="rect6652" />
  <path
     style="fill:#000000"
     d="m 441.35673,1038.9731 c -4.29795,0.055 -6.63265,0.5664 -10.375,1.9688 -10.4044,3.8987 -19.52835,15.3083 -22.46875,28.0625 -1.5205,6.5955 -1.30215,23.6288 0.40625,30.1875 3.9997,15.3559 13.1678,25.1422 25.875,27.6562 14.0902,2.7876 29.9461,-2.2116 37.5,-11.8125 14.1269,-17.9555 13.347,-51.8716 -1.5313,-66.75 -6.11705,-6.117 -13.25725,-8.8234 -24.31245,-9.2187 -1.98537,-0.071 -3.6611,-0.1122 -5.09375,-0.094 z m 2.78125,13.9063 c 6.9912,0 10.74655,1.1409 14.15625,4.3125 8.4002,7.8136 10.6784,31.9004 4.21875,44.5625 -2.5451,4.9888 -8.0766,9.7473 -12.8125,11.0625 -5.4124,1.503 -9.1823,1.2849 -13.75,-0.8125 -4.9303,-2.2641 -6.79305,-4.2963 -9.71875,-10.6563 -2.0049,-4.3585 -2.28125,-6.5533 -2.28125,-17.9687 -0.005,-13.8243 0.7384,-17.2174 5.25,-23.3438 3.873,-5.2595 7.8517,-7.1562 14.9375,-7.1562 z"
     id="path6833" />
  <path
     style="fill:#000000"
     d="m 1084.7073,1126.8912 c -6.2068,-1.3136 -13.2697,-4.6804 -13.2697,-6.3256 0,-1.6269 4.7336,-12.6807 5.4302,-12.6807 0.2505,0 1.9437,0.8709 3.7626,1.9353 11.6825,6.8362 26.8072,4.0494 26.8072,-4.9395 0,-6.8431 -3.5847,-10.6371 -17,-17.9929 -11.1026,-6.0876 -14.5687,-9.0266 -17.1041,-14.5029 -2.0856,-4.5046 -2.53,-14.6826 -0.8378,-19.1849 1.7569,-4.6742 8.8484,-11.1233 14.1779,-12.8935 6.9484,-2.3079 21.6068,-1.6278 28.02,1.3 l 4.756,2.1713 -2.1295,5.8035 c -1.1712,3.192 -2.4704,6.1776 -2.887,6.6346 -0.4167,0.4571 -2.6419,-0.1303 -4.9449,-1.3052 -5.4362,-2.7733 -13.0653,-3.6766 -17.064,-2.0202 -3.226,1.3362 -5.9866,5.4596 -5.9866,8.9419 0,3.452 6.3867,9.3585 15.5463,14.3772 11.9078,6.5246 14.6658,8.8117 17.9892,14.9178 2.3017,4.229 2.8621,6.5171 2.879,11.7544 0.046,14.3721 -9.9441,23.2991 -27.3813,24.467 -3.5932,0.2407 -8.4368,0.035 -10.7635,-0.4576 z"
     id="path6829" />
  <path
     style="fill:#000000"
     d="m 540.93753,1100.6767 -20,-26.1943 -0.2669,25.7012 -0.2669,25.7013 -7.4831,0 -7.4831,0 0,-43.0604 0,-43.0603 3.71,0.3103 c 3.5596,0.2978 4.5019,1.3217 23.25,25.2621 l 19.54,24.9517 0.5,-24.9517 0.5,-24.9517 7.25,-0.2938 7.25,-0.2938 0,43.5438 0,43.5438 -3.25,-0.01 c -3.0727,-0.01 -4.3411,-1.436 -23.25,-26.2013 z"
     id="path6827" />
  <path
     style="fill:#000000"
     d="m 645.91723,1088.1349 c -6.9294,-21.3125 -13.2471,-40.7427 -14.0393,-43.1781 -0.7922,-2.4355 -1.4404,-4.573 -1.4404,-4.75 0,-0.1771 3.5694,-0.3219 7.9319,-0.3219 l 7.932,0 4.1513,13.25 c 2.2832,7.2875 5.8013,18.5353 7.818,24.9951 2.0168,6.4598 3.8951,11.7473 4.1741,11.75 0.279,0 4.329,-11.1326 9,-24.7451 l 8.4927,-24.75 3.5,-0.282 3.5,-0.2819 8.4673,25.0146 c 4.657,13.7581 8.7759,24.685 9.153,24.282 0.3771,-0.403 3.4577,-9.5077 6.8457,-20.2327 3.388,-10.725 6.8428,-21.6375 7.6774,-24.25 l 1.5173,-4.75 7.9197,0 c 4.3558,0 7.8958,0.3375 7.8667,0.75 -0.029,0.4125 -6.2343,19.875 -13.7893,43.25 l -13.7365,42.5 -3.4606,0.2932 -3.4607,0.2931 -8.9159,-26.0431 c -4.9038,-14.3238 -9.1788,-26.0391 -9.5,-26.0341 -0.3213,0.01 -4.5712,11.705 -9.4444,26 l -8.8603,25.9909 -3.3503,0 -3.3504,0 -12.599,-38.75 z"
     id="path6825" />
  <path
     style="fill:#000000"
     d="m 52.437533,1082.8849 0,-43 7.5,0 7.5,0 0,17 0,17 17,0 16.999997,0 0,-17 0,-17 7.5,0 7.5,0 0,43 0,43 -7.5,0 -7.5,0 0,-19 0,-19 -16.999997,0 -17,0 0,19 0,19 -7.5,0 -7.5,0 0,-43 z"
     id="path6823" />
  <path
     style="fill:#000000"
     d="m 143.43753,1082.8849 0,-43 27,0 27,0 0,7 0,7 -19.5,0 -19.5,0 0,10 0,10 14,0 14,0 0,6.5 0,6.5 -14,0 -14,0 0,12.5 0,12.5 19.5,0 19.5,0 0,7 0,7 -27,0 -27,0 0,-43 z"
     id="path6821" />
  <path
     style="fill:#000000"
     d="m 220.43753,1082.8849 0,-43 7.5,0 7.5,0 0,35.9784 0,35.9784 19.25,0.2716 19.25,0.2716 0.2957,6.75 0.2957,6.75 -27.0457,0 -27.0457,0 0,-43 z"
     id="path6819" />
  <path
     style="fill:#000000"
     d="m 295.43753,1082.8849 0,-43 7.5,0 7.5,0 0,35.9784 0,35.9784 19.25,0.2716 19.25,0.2716 0.2957,6.75 0.2957,6.75 -27.0457,0 -27.0457,0 0,-43 z"
     id="path6817" />
  <path
     style="fill:#000000"
     d="m 754.43753,1082.8849 0,-43 7.5,0 7.5,0 0,17 0,17 17,0 17,0 0,-17 0,-17 7.5,0 7.5,0 0,43 0,43 -7.5,0 -7.5,0 0,-19 0,-19 -17,0 -17,0 0,19 0,19 -7.5,0 -7.5,0 0,-43 z"
     id="path6815" />
  <path
     style="fill:#000000"
     d="m 845.43753,1082.8849 0,-43 27,0 27,0 0,7 0,7 -19.5,0 -19.5,0 0,10 0,10 14,0 14,0 0,6.5 0,6.5 -14,0 -14,0 0,12.5 0,12.5 19.5,0 19.5,0 0,7 0,7 -27,0 -27,0 0,-43 z"
     id="path6813" />
  <path
     style="fill:#000000"
     d="m 922.43753,1082.8849 0,-43 27,0 27,0 0,7 0,7 -19.5,0 -19.5,0 0,10 0,10 14,0 14,0 0,6.5 0,6.5 -14,0 -14,0 0,12.5 0,12.5 19.5,0 19.5,0 0,7 0,7 -27,0 -27,0 0,-43 z"
     id="path6811" />
  <path
     style="fill:#000000"
     d="m 1000.4375,1082.8849 0,-43 7.5001,0 7.5,0 0,35.9784 0,35.9784 19.25,0.2716 19.25,0.2716 0.2957,6.75 0.2957,6.75 -27.0457,0 -27.0458,0 0,-43 z"
     id="path6809" />
  <path
     style="fill:#000000"
     d="m 532.15911,438.46093 0,-9.63124 12.2622,-13.11876 c 6.7443,-7.21532 16.9789,-18.29376 22.7436,-24.61876 5.7647,-6.325 16.4778,-17.92557 23.8069,-25.77905 16.1478,-17.3033 17.6752,-20.12979 17.6823,-32.72095 0,-7.8472 -0.3551,-9.7332 -2.8059,-14.7243 -4.8494,-9.8753 -12.6313,-14.8017 -23.3051,-14.7537 -12.9555,0.058 -24.384,12.786 -24.384,27.1561 0,2.7398 -0.4592,4.8219 -1.0635,4.8219 -2.7199,0 -22.5106,-3.3229 -23.0826,-3.8757 -0.3554,-0.3433 -0.2437,-3.5493 0.2483,-7.1243 1.3553,-9.8492 6.5339,-19.4948 14.4345,-26.8855 10.4335,-9.76 21.0571,-14.1145 34.4347,-14.1145 14.5507,0 25.3224,4.423 35.4645,14.5624 12.5591,12.5555 17.2378,29.4719 13.0565,47.20676 -2.9576,12.54422 -3.4637,13.22359 -37.3857,50.18242 -11.3337,12.34837 -22.7839,24.82992 -25.4449,27.73677 l -4.8383,5.28519 34.3383,0.26323 34.3382,0.26323 0.2862,9.75 0.2862,9.75 -50.5362,0 -50.5362,0 0,-9.63124 z"
     id="path6727" />
</svg>
