<?xml version="1.0" encoding="UTF-8" standalone="no"?>
<!-- Created with Inkscape (http://www.inkscape.org/) -->
<svg
   xmlns:dc="http://purl.org/dc/elements/1.1/"
   xmlns:cc="http://web.resource.org/cc/"
   xmlns:rdf="http://www.w3.org/1999/02/22-rdf-syntax-ns#"
   xmlns:svg="http://www.w3.org/2000/svg"
   xmlns="http://www.w3.org/2000/svg"
   xmlns:sodipodi="http://sodipodi.sourceforge.net/DTD/sodipodi-0.dtd"
   xmlns:inkscape="http://www.inkscape.org/namespaces/inkscape"
   id="svg2211"
   sodipodi:version="0.32"
   inkscape:version="0.45.1"
   width="897.40466"
   height="897.29767"
   version="1.0"
   sodipodi:docbase="C:\Documents and Settings\steven.williamson\Desktop"
   sodipodi:docname="31st ID SSI.svg"
   inkscape:output_extension="org.inkscape.output.svg.inkscape">
  <metadata
     id="metadata2216">
    <rdf:RDF>
      <cc:Work
         rdf:about="">
        <dc:format>image/svg+xml</dc:format>
        <dc:type
           rdf:resource="http://purl.org/dc/dcmitype/StillImage" />
      </cc:Work>
    </rdf:RDF>
  </metadata>
  <defs
     id="defs2214" />
  <sodipodi:namedview
     inkscape:window-height="968"
     inkscape:window-width="1280"
     inkscape:pageshadow="2"
     inkscape:pageopacity="0.0"
     guidetolerance="10.0"
     gridtolerance="10.0"
     objecttolerance="10.0"
     borderopacity="1.0"
     bordercolor="#666666"
     pagecolor="#ffffff"
     id="base"
     inkscape:zoom="1"
     inkscape:cx="393.75261"
     inkscape:cy="503.51654"
     inkscape:window-x="-4"
     inkscape:window-y="-4"
     inkscape:current-layer="svg2211" />
  <g
     id="g18929"
     transform="translate(-9.83684,5.45585)">
    <g
       transform="matrix(3,0,0,3,-1351.3156,703.45627)"
       id="g17873">
      <path
         sodipodi:type="arc"
         style="fill:#ffffff;fill-opacity:1;stroke:none;stroke-width:11.75699997;stroke-linecap:round;stroke-linejoin:miter;stroke-miterlimit:4;stroke-dasharray:none;stroke-opacity:1"
         id="path2220"
         sodipodi:cx="149.04243"
         sodipodi:cy="166.12466"
         sodipodi:rx="124.27321"
         sodipodi:ry="124.27321"
         d="M 273.31564 166.12466 A 124.27321 124.27321 0 1 1  24.769226,166.12466 A 124.27321 124.27321 0 1 1  273.31564 166.12466 z"
         transform="matrix(1.1443295,0,0,1.1443299,432.72619,-276.85623)" />
      <path
         style="fill:#ca0000;fill-opacity:1;stroke:none;stroke-width:12.84594822;stroke-linecap:round;stroke-linejoin:miter;stroke-miterlimit:4;stroke-dasharray:none;stroke-opacity:1"
         d="M 603.26705,-236.30404 C 520.79059,-236.30404 453.71748,-169.23091 453.71748,-86.754425 C 453.71748,-4.2779464 520.79059,62.795166 603.26705,62.795188 C 685.7435,62.795188 752.85237,-4.2779464 752.85237,-86.754425 C 752.85237,-169.23091 685.7435,-236.30404 603.26705,-236.30404 z M 603.26705,-221.60655 C 677.78988,-221.60655 738.15489,-161.27729 738.15489,-86.754425 C 738.15489,-12.231566 677.78988,48.097701 603.26705,48.097701 C 528.74421,48.09769 468.41497,-12.231566 468.41497,-86.754425 C 468.41497,-161.27729 528.74421,-221.60655 603.26705,-221.60655 z "
         id="path10078" />
    </g>
    <g
       transform="translate(10.188013,-5.2802649)"
       id="g18911">
      <g
         id="g18904">
        <path
           id="path17893"
           d="M 467.2965,172.47326 L 467.2965,693.62951 L 467.2965,718.19201 L 467.2965,724.37951 L 469.9215,724.37951 L 469.9215,724.47326 L 479.20275,724.47326 L 575.859,724.47326 L 585.14025,724.47326 L 694.359,599.87951 L 694.359,294.06701 L 691.734,291.16076 L 691.734,287.78576 L 587.859,172.47326 L 578.57775,172.47326 L 476.57775,172.47326 L 467.2965,172.47326 z "
           style="fill:#ca0000;fill-opacity:1;fill-rule:nonzero;stroke:none;stroke-width:12;stroke-linecap:round;stroke-linejoin:miter;stroke-miterlimit:4;stroke-dasharray:none;stroke-opacity:1" />
        <path
           id="path9101"
           d="M 513.7965,213.34826 L 560.859,213.34826 L 647.859,311.12951 L 647.859,574.75451 L 550.734,683.59826 L 513.7965,683.59826 L 513.7965,213.34826 z "
           style="fill:#ffffff;fill-opacity:1;fill-rule:nonzero;stroke:none;stroke-width:12;stroke-linecap:round;stroke-linejoin:miter;stroke-miterlimit:4;stroke-dasharray:none;stroke-opacity:1" />
        <g
           transform="matrix(-1,0,0,1,897.577,-0.1755882)"
           id="g18870">
          <path
             style="fill:#ca0000;fill-opacity:1;fill-rule:nonzero;stroke:none;stroke-width:12;stroke-linecap:round;stroke-linejoin:miter;stroke-miterlimit:4;stroke-dasharray:none;stroke-opacity:1"
             d="M 413.68675,172.50822 L 413.68675,172.78947 L 316.37425,172.78947 L 307.093,172.78947 L 203.218,288.10197 L 203.218,593.91447 L 205.843,596.91447 L 205.843,600.19572 L 315.06175,724.78947 L 324.343,724.78947 L 420.99925,724.78947 L 430.2805,724.78947 L 430.2805,179.07072 L 430.2805,172.50822 L 413.68675,172.50822 z "
             id="path18872" />
          <path
             style="fill:#ffffff;fill-opacity:1;fill-rule:nonzero;stroke:none;stroke-width:12;stroke-linecap:round;stroke-linejoin:miter;stroke-miterlimit:4;stroke-dasharray:none;stroke-opacity:1"
             d="M 340.6555,213.66447 L 385.093,213.66447 L 385.093,683.91447 L 345.5305,683.91447 L 251.0305,577.97697 L 251.0305,314.35197 L 340.6555,213.66447 z "
             id="path18874" />
        </g>
      </g>
      <g
         id="g18893"
         transform="translate(89,32)">
        <g
           transform="translate(-89.87465,-32.175588)"
           id="g18866">
          <path
             style="fill:#ca0000;fill-opacity:1;fill-rule:nonzero;stroke:none;stroke-width:12;stroke-linecap:round;stroke-linejoin:miter;stroke-miterlimit:4;stroke-dasharray:none;stroke-opacity:1"
             d="M 413.68675,172.50822 L 413.68675,172.78947 L 316.37425,172.78947 L 307.093,172.78947 L 203.218,288.10197 L 203.218,593.91447 L 205.843,596.91447 L 205.843,600.19572 L 315.06175,724.78947 L 324.343,724.78947 L 420.99925,724.78947 L 430.2805,724.78947 L 430.2805,179.07072 L 430.2805,172.50822 L 413.68675,172.50822 z "
             id="path17895" />
          <path
             style="fill:#ffffff;fill-opacity:1;fill-rule:nonzero;stroke:none;stroke-width:12;stroke-linecap:round;stroke-linejoin:miter;stroke-miterlimit:4;stroke-dasharray:none;stroke-opacity:1"
             d="M 340.6555,213.66447 L 385.093,213.66447 L 385.093,683.91447 L 345.5305,683.91447 L 251.0305,577.97697 L 251.0305,314.35197 L 340.6555,213.66447 z "
             id="path17891" />
        </g>
        <g
           transform="translate(89.874625,32.175588)"
           id="g18886">
          <path
             style="fill:#ca0000;fill-opacity:1;fill-rule:nonzero;stroke:none;stroke-width:12;stroke-linecap:round;stroke-linejoin:miter;stroke-miterlimit:4;stroke-dasharray:none;stroke-opacity:1"
             d="M 250.5312,108.29767 L 250.5312,629.45392 L 250.5312,654.01642 L 250.5312,660.20392 L 247.9062,660.20392 L 247.9062,660.29767 L 238.62495,660.29767 L 141.9687,660.29767 L 132.68745,660.29767 L 23.4687,535.70392 L 23.4687,229.89142 L 26.0937,226.98517 L 26.0937,223.61017 L 129.9687,108.29767 L 139.24995,108.29767 L 241.24995,108.29767 L 250.5312,108.29767 z "
             id="path18876" />
          <path
             style="fill:#ffffff;fill-opacity:1;fill-rule:nonzero;stroke:none;stroke-width:12;stroke-linecap:round;stroke-linejoin:miter;stroke-miterlimit:4;stroke-dasharray:none;stroke-opacity:1"
             d="M 204.0312,149.17267 L 156.9687,149.17267 L 69.9687,246.95392 L 69.9687,510.57892 L 167.0937,619.42267 L 204.0312,619.42267 L 204.0312,149.17267 z "
             id="path18878" />
          <g
             id="g18880"
             transform="translate(-179.74925,-64.351176)">
            <path
               id="path18882"
               d="M 413.68675,172.50822 L 413.68675,172.78947 L 316.37425,172.78947 L 307.093,172.78947 L 203.218,288.10197 L 203.218,593.91447 L 205.843,596.91447 L 205.843,600.19572 L 315.06175,724.78947 L 324.343,724.78947 L 420.99925,724.78947 L 430.2805,724.78947 L 430.2805,179.07072 L 430.2805,172.50822 L 413.68675,172.50822 z "
               style="fill:#ca0000;fill-opacity:1;fill-rule:nonzero;stroke:none;stroke-width:12;stroke-linecap:round;stroke-linejoin:miter;stroke-miterlimit:4;stroke-dasharray:none;stroke-opacity:1" />
            <path
               id="path18884"
               d="M 340.6555,213.66447 L 385.093,213.66447 L 385.093,683.91447 L 345.5305,683.91447 L 251.0305,577.97697 L 251.0305,314.35197 L 340.6555,213.66447 z "
               style="fill:#ffffff;fill-opacity:1;fill-rule:nonzero;stroke:none;stroke-width:12;stroke-linecap:round;stroke-linejoin:miter;stroke-miterlimit:4;stroke-dasharray:none;stroke-opacity:1" />
          </g>
        </g>
      </g>
    </g>
  </g>
</svg>
