<?xml version="1.0" encoding="UTF-8" standalone="no"?>
<svg
	xmlns:svg="http://www.w3.org/2000/svg"
	xmlns="http://www.w3.org/2000/svg"
	xmlns:xlink="http://www.w3.org/1999/xlink"
	version="1.1"
	width="400" height="600">
	<title>31st Air Defense Artillery Brigade Shoulder Sleeve Insignia</title>
	<path d="M 200,0 C 128.15389,0 60.252931,16.867545 0,46.8125 L 0,553.1875 C 60.252931,583.13246 128.15389,600 200,600 271.84611,600 339.74707,583.13246 400,553.1875 L 400,46.8125 C 339.74707,16.867545 271.84611,0 200,0 z"
		style="fill:#905b00;stroke:none" />
	<path d="M 200,4 C 129.67194,4 63.158624,20.286578 4,49.28125 L 4,550.71875 C 63.158624,579.71342 129.67194,596 200,596 270.32805,596 336.84138,579.71342 396,550.71875 L 396,49.28125 C 336.84138,20.286578 270.32805,4 200,4 z"
		style="fill:#fc3;stroke:none" />
	<path d="M 200,26 C 137.985,26 79.095095,39.32657 26,63.25 L 26,224.09375 174.1875,573.21875 C 182.72617,573.73201 191.33193,574 200,574 208.66779,574 217.27391,573.73205 225.8125,573.21875 L 374,224.09375 374,63.25 C 320.90665,39.327711 262.01301,26 200,26 z M 26,403.09375 26,536.75 C 65.435949,554.51893 108.07686,566.4164 152.8125,571.375 L 26,403.09375 z M 374,403.09375 247.1875,571.375 C 291.9233,566.41613 334.56535,554.51809 374,536.75 L 374,403.09375 z"
		style="fill:#c03;stroke:none" />
	<g style="fill:#fc3;stroke:none">
		<path d="M 200,88 240.06275,182 160,182 z" />
		<path d="M 200,210 280,416 120,416 z" />
		<path d="M 182,88 182,458 C 182,480 200,498 200,498 200,498 218,480 218,458 L 218,88 C 218,66 200,48 200,48 200,48 182,66 182,88 z" />
	</g>
	<path d="M 218,130.21875 218,182 219,182 219,132.59375 z M 182,130.3125 181,132.65625 181,182 182,182 z M 182 256.34375 L 181 258.9375 L 181 416 L 182 416 L 182 256.34375 z M 218 256.34375 L 218 416 L 219 416 L 219 258.9375 L 218 256.34375 z"
style="fill:#905b00;stroke:none" />
	<path id="Star01" d="M 90,82 97.184448,104.11146 120.43381,104.11146 101.62468,117.77709 108.80913,139.88854 90,126.22291 71.190872,139.88854 78.375319,117.77709 59.566191,104.11146 82.815552,104.11146 z"
		style="fill:#fc3;stroke:none" />
	<use xlink:href="#Star01" transform="translate(-30.433809,72)" />
	<use xlink:href="#Star01" transform="translate(30.433809,72)" />
	<use xlink:href="#Star01" transform="translate(220,16)" />
</svg>
