<?xml version="1.0" encoding="UTF-8" standalone="no"?>
<!-- Created with Inkscape (http://www.inkscape.org/) -->

<svg
   xmlns:dc="http://purl.org/dc/elements/1.1/"
   xmlns:cc="http://creativecommons.org/ns#"
   xmlns:rdf="http://www.w3.org/1999/02/22-rdf-syntax-ns#"
   xmlns:svg="http://www.w3.org/2000/svg"
   xmlns="http://www.w3.org/2000/svg"
   xmlns:sodipodi="http://sodipodi.sourceforge.net/DTD/sodipodi-0.dtd"
   xmlns:inkscape="http://www.inkscape.org/namespaces/inkscape"
   id="svg2854"
   version="1.1"
   inkscape:version="0.47 r22583"
   width="563"
   height="1166"
   sodipodi:docname="32nd_infantry_division_shoulder_patch.svg">
  <title
     id="title2884">32nd Infantry Division shoulder patch</title>
  <metadata
     id="metadata2860">
    <rdf:RDF>
      <cc:Work
         rdf:about="">
        <dc:format>image/svg+xml</dc:format>
        <dc:type
           rdf:resource="http://purl.org/dc/dcmitype/StillImage" />
        <dc:title>32nd Infantry Division shoulder patch</dc:title>
      </cc:Work>
    </rdf:RDF>
  </metadata>
  <defs
     id="defs2858">
    <inkscape:perspective
       sodipodi:type="inkscape:persp3d"
       inkscape:vp_x="0 : 0.5 : 1"
       inkscape:vp_y="0 : 1000 : 0"
       inkscape:vp_z="1 : 0.5 : 1"
       inkscape:persp3d-origin="0.5 : 0.33333333 : 1"
       id="perspective2862" />
  </defs>
  <sodipodi:namedview
     pagecolor="#ffffff"
     bordercolor="#666666"
     borderopacity="1"
     objecttolerance="10"
     gridtolerance="10"
     guidetolerance="10"
     inkscape:pageopacity="0"
     inkscape:pageshadow="2"
     inkscape:window-width="1024"
     inkscape:window-height="718"
     id="namedview2856"
     showgrid="false"
     inkscape:zoom="0.20240137"
     inkscape:cx="281.5"
     inkscape:cy="583"
     inkscape:window-x="-8"
     inkscape:window-y="-8"
     inkscape:window-maximized="1"
     inkscape:current-layer="svg2854" />
  <g
     id="g2866">
    <path
       style="fill:#5e9188"
       d="M 0,583 0,0 281.5,0 563,0 l 0,583 0,583 -281.5,0 L 0,1166 0,583 z"
       id="path2882" />
    <path
       style="fill:#4c8969"
       d="M 0,583 0,0 281.5,0 563,0 l 0,583 0,583 -281.5,0 L 0,1166 0,583 z M 525,582.5 525,38 281.5,38 38,38 l 0,544.5 0,544.5 243.5,0 243.5,0 0,-544.5 z M 41.25,1124.3388 C 40.252162,1123.9353 40,1014.6352 40,582.52366 40,89.842517 40.1421,41.159449 41.581787,40.606989 c 2.384637,-0.915071 478.725223,-0.6989 480.169133,0.217908 0.99921,0.634451 1.20043,109.741423 1,542.234683 L 522.5,1124.5 l -240,0.1721 c -132,0.095 -240.5625,-0.055 -241.25,-0.3333 z"
       id="path2880" />
    <path
       style="fill:#fc0032"
       d="M 0,583 0,0 281.5,0 563,0 l 0,583 0,583 -281.5,0 L 0,1166 0,583 z m 525.5,-0.5 0,-545 -244,0 -244,0 -0.255637,544 c -0.1406,299.2 -0.04187,544.5634 0.219391,545.252 0.379,0.9989 49.755501,1.2011 244.255636,1 L 525.5,1127.5 l 0,-545 z M 41.463763,1122.7521 C 41.202489,1122.0634 41.103757,878.5 41.244359,581.5 L 41.5,41.5 l 240,0 240,0 0,541 0,541 -239.7806,0.2521 c -191.300087,0.201 -239.876641,0 -240.255637,-1 z"
       id="path2878" />
    <path
       style="fill:#327643"
       d="M 0,583 0,0 281.5,0 563,0 l 0,583 0,583 -281.5,0 L 0,1166 0,583 z m 525.5,-0.5 0,-545 -244,0 -244,0 -0.255637,544 c -0.1406,299.2 -0.04187,544.5634 0.219391,545.252 0.379,0.9989 49.755501,1.2011 244.255636,1 L 525.5,1127.5 l 0,-545 z M 41.463763,1122.7521 C 41.202489,1122.0634 41.103757,878.5 41.244359,581.5 L 41.5,41.5 l 240,0 240,0 0,541 0,541 -239.7806,0.2521 c -191.300087,0.201 -239.876641,0 -240.255637,-1 z M 211,1037.8245 c 23.375,-14.5631 48.4213,-30.1562 55.65844,-34.6514 C 273.89558,998.67788 280.5809,995 281.5147,995 c 1.74401,0 8.67887,4.19518 78.82148,47.6823 22.4599,13.9247 41.24975,25.3177 41.75521,25.3177 0.5539,0 0.81763,-36.6439 0.66382,-92.23352 L 402.5,883.53295 372,864.23663 c -16.775,-10.61297 -31.21542,-19.89177 -32.08983,-20.61954 -1.42619,-1.18703 -1.66346,-12.15403 -2.30524,-106.55113 -0.54502,-80.16409 -0.43491,-105.5659 0.46227,-106.64693 C 339.06185,629.22054 349.25192,629 403.63233,629 l 64.38745,0 -0.25989,-46.75 L 467.5,535.5 403.5,535 c -35.2,-0.275 -64.5625,-0.86406 -65.25,-1.30902 -1.93374,-1.25154 -1.8225,-224.53406 0.11223,-225.27649 0.74923,-0.2875 15.39809,5.80162 32.55303,13.53139 C 400.64894,335.34344 404,336.71193 404,335.45683 404,333.6829 282.33626,97.054581 281.55763,97.314124 280.2195,97.760167 159.62393,334.95727 160.3607,335.69403 c 0.33157,0.33157 14.83616,-5.79286 32.23243,-13.60985 17.39626,-7.81698 32.25446,-13.97291 33.01822,-13.67983 1.95831,0.75148 2.09572,224.01999 0.13865,225.28663 C 225.0625,534.13594 195.7,534.725 160.5,535 l -64,0.5 -0.259888,46.75 -0.259889,46.75 64.450867,0 c 45.29783,0 64.65037,0.32278 65.12217,1.08618 0.36922,0.59741 0.61452,48.40991 0.54512,106.25 L 225.97219,841.5 223.04183,844 c -1.61169,1.375 -9.14293,6.38975 -16.73609,11.14389 -34.73964,21.75078 -44.85755,28.25294 -45.54043,29.2661 -0.87971,1.30518 -1.03332,182.98871 -0.15545,183.86651 0.33542,0.3354 2.24792,-0.4214 4.25,-1.6819 2.00208,-1.2605 22.76514,-14.2071 46.14014,-28.7701 z"
       id="path2876" />
    <path
       style="fill:#9f2820"
       d="M 0,583 0,0 281.5,0 563,0 l 0,583 0,583 -281.5,0 L 0,1166 0,583 z m 526.70031,544.571 C 527.14014,1126.7851 527.275,880.97263 527,581.32105 L 526.5,36.5 l -245,0 -245,0 -0.255636,545 c -0.1406,299.75 -0.04222,545.5625 0.218615,546.25 0.377617,0.9953 50.290191,1.25 244.955951,1.25 210.87472,0 244.59162,-0.1964 245.28138,-1.429 z M 42.463765,1121.7521 C 42.202489,1121.0634 42.103756,877.95 42.244359,581.5 L 42.5,42.5 l 239,0 239,0 0,540 0,540 -238.78059,0.2521 c -190.500083,0.2011 -238.87665,0 -239.255645,-1 z M 158.7497,929.67434 c -0.14859,-25.39589 -0.27012,-4.32434 -0.27006,46.82566 5e-5,51.15 0.12163,71.9285 0.27017,46.1743 0.14853,-25.75408 0.14849,-67.60408 -1.1e-4,-92.99996 z M 211,1037.8245 c 23.375,-14.5631 48.4213,-30.1562 55.65844,-34.6514 C 273.89558,998.67788 280.5809,995 281.5147,995 c 1.74401,0 8.67887,4.19518 78.82148,47.6823 22.4599,13.9247 41.24975,25.3177 41.75521,25.3177 0.5539,0 0.81763,-36.6439 0.66382,-92.23352 L 402.5,883.53295 372,864.23663 c -16.775,-10.61297 -31.21542,-19.89177 -32.08983,-20.61954 -1.42619,-1.18703 -1.66346,-12.15403 -2.30524,-106.55113 -0.54502,-80.16409 -0.43491,-105.5659 0.46227,-106.64693 C 339.06185,629.22054 349.25192,629 403.63233,629 l 64.38745,0 -0.25989,-46.75 L 467.5,535.5 403.5,535 c -35.2,-0.275 -64.5625,-0.86406 -65.25,-1.30902 -1.93374,-1.25154 -1.8225,-224.53406 0.11223,-225.27649 0.74923,-0.2875 15.39809,5.80162 32.55303,13.53139 C 400.64894,335.34344 404,336.71193 404,335.45683 404,333.6829 282.33626,97.054581 281.55763,97.314124 280.2195,97.760167 159.62393,334.95727 160.3607,335.69403 c 0.33157,0.33157 14.83616,-5.79286 32.23243,-13.60985 17.39626,-7.81698 32.25446,-13.97291 33.01822,-13.67983 1.95831,0.75148 2.09572,224.01999 0.13865,225.28663 C 225.0625,534.13594 195.7,534.725 160.5,535 l -64,0.5 -0.259888,46.75 -0.259889,46.75 64.450867,0 c 45.29783,0 64.65037,0.32278 65.12217,1.08618 0.36922,0.59741 0.61452,48.40991 0.54512,106.25 L 225.97219,841.5 223.04183,844 c -1.61169,1.375 -9.14293,6.38975 -16.73609,11.14389 -34.73964,21.75078 -44.85755,28.25294 -45.54043,29.2661 -0.87971,1.30518 -1.03332,182.98871 -0.15545,183.86651 0.33542,0.3354 2.24792,-0.4214 4.25,-1.6819 2.00208,-1.2605 22.76514,-14.2071 46.14014,-28.7701 z M 339.74908,737.75 c -0.15828,-12.7875 -0.28778,-2.325 -0.28778,23.25 0,25.575 0.1295,36.0375 0.28778,23.25 0.15828,-12.7875 0.15828,-33.7125 0,-46.5 z m -114.9998,-70.43114 c -0.15799,-13.10037 -0.28741,-2.66886 -0.28761,23.18114 -2.1e-4,25.85 0.12905,36.56849 0.28724,23.81886 0.15819,-12.74963 0.15835,-33.89963 3.7e-4,-47 z M 111.25,533.26276 c -2.8875,-0.202 -7.6125,-0.202 -10.5,0 -2.8875,0.202 -0.525,0.36728 5.25,0.36728 5.775,0 8.1375,-0.16528 5.25,-0.36728 z m 350.96648,-10e-4 c -2.90594,-0.20265 -7.40594,-0.20052 -10,0.005 -2.59406,0.20525 -0.21648,0.37104 5.28352,0.36844 5.5,-0.003 7.62242,-0.17053 4.71648,-0.37317 z"
       id="path2874" />
    <path
       style="fill:#006400"
       d="M 0,583 0,0 281.5,0 563,0 l 0,583 0,583 -281.5,0 L 0,1166 0,583 z m 526.70031,544.571 C 527.14014,1126.7851 527.275,880.97263 527,581.32105 L 526.5,36.5 l -245,0 -245,0 -0.255636,545 c -0.1406,299.75 -0.04222,545.5625 0.218615,546.25 0.377617,0.9953 50.290191,1.25 244.955951,1.25 210.87472,0 244.59162,-0.1964 245.28138,-1.429 z M 42.463765,1121.7521 C 42.202489,1121.0634 42.103756,877.95 42.244359,581.5 L 42.5,42.5 l 239,0 239,0 0,540 0,540 -238.78059,0.2521 c -190.500083,0.2011 -238.87665,0 -239.255645,-1 z M 197.57167,1048.459 C 216.78225,1036.5017 239.475,1022.3433 248,1016.9959 271.45172,1002.2856 280.48896,997 282.18847,997 c 0.848,0 2.615,0.81416 3.92667,1.80925 1.31167,0.99509 3.95986,2.72525 5.88486,3.84475 1.925,1.1195 22.175,13.6331 45,27.808 61.08153,37.9332 66.05216,40.8858 67.0871,39.8509 0.55486,-0.5549 0.82144,-38.2066 0.66809,-94.35776 L 404.5,882.52066 372.40931,862.20444 340.31863,841.88823 339.60598,737.29744 C 339.21403,679.77251 339.274,632.326 339.73925,631.86075 340.2045,631.3955 369.591,630.899 405.04258,630.75742 L 469.5,630.5 469.76212,583 c 0.24152,-43.76732 0.12827,-47.59823 -1.44113,-48.75 -1.31949,-0.96836 -15.72373,-1.25 -63.93033,-1.25 -34.2249,0 -62.93889,-0.27314 -63.80887,-0.60699 C 339.15256,531.84457 339,521.09044 339,420.89301 339,359.90186 339.19485,310 339.43299,310 c 0.23814,0 14.86255,6.525 32.49868,14.5 17.63613,7.975 32.48973,14.5 33.008,14.5 0.51826,0 1.2244,-0.45646 1.5692,-1.01436 0.54008,-0.87387 -16.57723,-35.28766 -44.50988,-89.48564 -4.2519,-8.25 -14.60275,-28.5 -23.00188,-45 C 285.17886,97.774608 283.71718,95 281.8386,95 c -2.19406,0 -3.13824,1.729749 -30.84073,56.5 -12.7966,25.3 -26.97006,53.2 -31.49658,62 -4.52651,8.8 -17.94989,35.125 -29.82972,58.5 -11.87983,23.375 -24.1922,47.55116 -27.36082,53.72481 -4.42426,8.62009 -5.48751,11.49843 -4.58199,12.40395 1.10605,1.10605 16.95317,-5.53853 58.5562,-24.5522 5.5402,-2.53202 7.92122,-3.20018 8.25752,-2.31724 0.2599,0.68237 0.35667,50.74068 0.21504,111.24068 l -0.25752,110 -65,0.51825 c -35.75,0.28504 -65.116822,0.62254 -65.259604,0.75 -0.142782,0.12746 -0.142782,21.94425 0,48.48175 L 94.5,630.5 l 64.86476,0.5 64.86475,0.5 -0.16919,104.46313 c -0.11645,71.90223 -0.49972,104.86139 -1.22961,105.74085 -0.58323,0.70275 -10.79623,7.41798 -22.69556,14.92272 -11.89933,7.50475 -23.21015,14.65056 -25.13515,15.87959 -13.11342,8.37233 -15.58023,10.03753 -16.23469,10.95913 -0.40408,0.56902 -0.74158,42.45708 -0.75,93.08458 -0.0156,93.7897 0.0451,95.4083 3.52821,94.0717 0.6049,-0.2321 16.81756,-10.2053 36.02815,-22.1627 z"
       id="path2872" />
    <path
       style="fill:#045702"
       d="M 0,583 0,0 281.5,0 563,0 l 0,583 0,583 -281.5,0 L 0,1166 0,583 z m 557.5,0 0,-577.5 -276,0 -276,0 L 5.2443905,582 c -0.1405853,317.075 -0.041899,577.0633 0.2193018,577.7518 0.3790266,0.999 56.1551617,1.2009 276.2556077,1 L 557.5,1160.5 557.5,583 z m -399.89301,487.4182 c -0.87523,-2.2808 -0.71987,-186.71612 0.15832,-187.95278 0.76966,-1.08381 4.57627,-3.60061 22.73469,-15.03136 6.05,-3.80849 13.11156,-8.27667 15.69237,-9.92929 2.5808,-1.65262 9.66416,-6.15477 15.74079,-10.00477 l 11.04844,-7 0.009,-104.10623 0.009,-104.10623 -63.75,0.42279 C 116.48401,632.99395 95.006259,632.7942 94,632.1035 92.708528,631.21703 92.461379,624.40967 92.22219,583.13619 91.973933,540.29816 92.114509,535.02835 93.543618,533.59924 94.924871,532.21799 98.5866,532 120.40765,532 c 13.89564,0 42.8885,-0.29812 64.42857,-0.66248 L 224,530.67504 l 0,-109.40491 0,-109.40491 -2.14156,0.67971 c -1.17786,0.37384 -5.79036,2.36996 -10.25,4.43583 C 195.33229,324.52046 189.85222,327 189.46476,327 c -0.21764,0 -6.80281,2.9443 -14.63371,6.54289 -7.8309,3.59858 -15.15894,6.41108 -16.28452,6.25 -3.67465,-0.5259 -2.83277,-4.32111 3.76374,-16.96708 3.53623,-6.7792 14.19582,-27.62581 23.68799,-46.32581 9.49216,-18.7 23.44961,-46.15 31.01654,-61 7.56694,-14.85 21.29742,-41.85 30.51217,-60 25.98831,-51.18833 30.52182,-59.897846 31.93555,-61.352779 3.05455,-3.143578 5.08604,-0.211766 19.47351,28.103909 7.89443,15.53688 17.15529,33.64887 20.57968,40.24887 3.42439,6.6 13.09614,25.5 21.49277,42 8.39664,16.5 19.64127,38.55 24.98807,49 C 399.62171,319.21841 408,335.92543 408,337.25848 c 0,0.82315 -0.61778,2.00935 -1.37285,2.636 -1.34181,1.1136 -5.43171,-0.4915 -29.62715,-11.62725 C 366.42773,323.40142 340.76392,312 340.38361,312 340.17263,312 340,361.275 340,421.5 l 0,109.5 19.75,0.13918 c 10.8625,0.0765 40.19688,0.41405 65.18751,0.75 l 45.43751,0.61082 0.84156,3.25183 c 0.46285,1.78851 0.71597,23.96765 0.56249,49.28698 -0.23995,39.58115 -0.48937,46.1795 -1.77907,47.06473 -1.00623,0.69065 -22.48537,0.8904 -65.25,0.60679 l -63.75,-0.42279 0,104.26683 0,104.26682 9.25,5.73812 c 5.0875,3.15597 12.85,8.07043 17.25,10.92103 4.4,2.8506 13.625,8.69101 20.5,12.97869 6.875,4.28768 13.9625,8.88635 15.75,10.21927 l 3.25,2.42348 0,92.86732 c 0,51.077 -0.27314,93.5791 -0.60699,94.4491 -0.33384,0.87 -1.57134,1.5744 -2.75,1.5653 -2.46716,-0.019 -3.59238,-0.6575 -27.42632,-15.5644 -9.74418,-6.0945 -28.51669,-17.7405 -41.71669,-25.88 -13.2,-8.1395 -30.41907,-18.8259 -38.26459,-23.7475 -7.84553,-4.9217 -14.62006,-8.80073 -15.05452,-8.62007 -0.88062,0.36618 -35.05284,21.56917 -59.68089,37.03037 -39.48833,24.7905 -59.49719,36.7981 -61.31819,36.7981 -1.08231,0 -2.24098,-0.7118 -2.57482,-1.5818 z m 39.96468,-21.9592 C 216.78225,1036.5017 239.475,1022.3433 248,1016.9959 271.45172,1002.2856 280.48896,997 282.18847,997 c 0.848,0 2.615,0.81416 3.92667,1.80925 1.31167,0.99509 3.95986,2.72525 5.88486,3.84475 1.925,1.1195 22.175,13.6331 45,27.808 61.08153,37.9332 66.05216,40.8858 67.0871,39.8509 0.55486,-0.5549 0.82144,-38.2066 0.66809,-94.35776 L 404.5,882.52066 372.40931,862.20444 340.31863,841.88823 339.60598,737.29744 C 339.21403,679.77251 339.274,632.326 339.73925,631.86075 340.2045,631.3955 369.591,630.899 405.04258,630.75742 L 469.5,630.5 469.76212,583 c 0.24152,-43.76732 0.12827,-47.59823 -1.44113,-48.75 -1.31949,-0.96836 -15.72373,-1.25 -63.93033,-1.25 -34.2249,0 -62.93889,-0.27314 -63.80887,-0.60699 C 339.15256,531.84457 339,521.09044 339,420.89301 339,359.90186 339.19485,310 339.43299,310 c 0.23814,0 14.86255,6.525 32.49868,14.5 17.63613,7.975 32.48973,14.5 33.008,14.5 0.51826,0 1.2244,-0.45646 1.5692,-1.01436 0.54008,-0.87387 -16.57723,-35.28766 -44.50988,-89.48564 -4.2519,-8.25 -14.60275,-28.5 -23.00188,-45 C 285.17886,97.774608 283.71718,95 281.8386,95 c -2.19406,0 -3.13824,1.729749 -30.84073,56.5 -12.7966,25.3 -26.97006,53.2 -31.49658,62 -4.52651,8.8 -17.94989,35.125 -29.82972,58.5 -11.87983,23.375 -24.1922,47.55116 -27.36082,53.72481 -4.42426,8.62009 -5.48751,11.49843 -4.58199,12.40395 1.10605,1.10605 16.95317,-5.53853 58.5562,-24.5522 5.5402,-2.53202 7.92122,-3.20018 8.25752,-2.31724 0.2599,0.68237 0.35667,50.74068 0.21504,111.24068 l -0.25752,110 -65,0.51825 c -35.75,0.28504 -65.116822,0.62254 -65.259604,0.75 -0.142782,0.12746 -0.142782,21.94425 0,48.48175 L 94.5,630.5 l 64.86476,0.5 64.86475,0.5 -0.16919,104.46313 c -0.11645,71.90223 -0.49972,104.86139 -1.22961,105.74085 -0.58323,0.70275 -10.79623,7.41798 -22.69556,14.92272 -11.89933,7.50475 -23.21015,14.65056 -25.13515,15.87959 -13.11342,8.37233 -15.58023,10.03753 -16.23469,10.95913 -0.40408,0.56902 -0.74158,42.45708 -0.75,93.08458 -0.0156,93.7897 0.0451,95.4083 3.52821,94.0717 0.6049,-0.2321 16.81756,-10.2053 36.02815,-22.1627 z"
       id="path2870" />
    <path
       style="fill:#011201"
       d="M 0,583 0,0 281.5,0 563,0 l 0,583 0,583 -281.5,0 L 0,1166 0,583 z M 559,583 559,4 281.5,4 4,4 l 0,579 0,579 277.5,0 277.5,0 0,-579 z"
       id="path2868" />
  </g>
</svg>
