<?xml version="1.0" encoding="UTF-8" standalone="no"?>
<!-- Created with Inkscape (http://www.inkscape.org/) -->

<svg
   xmlns:svg="http://www.w3.org/2000/svg"
   xmlns="http://www.w3.org/2000/svg"
   version="1.1"
   width="90"
   height="130"
   viewBox="-31.434 -10.728 90 130"
   id="Layer_1"
   xml:space="preserve"><defs
   id="defs21" />
<path
   d="m 13.565498,-10.500499 c -22.3429996,0 -39.785,6.2689997 -40.517,6.5359997 l -3.549,1.295 v 3.778 105.3329993 3.906 l 3.709,1.223 c 0.864,0.283 21.3750004,6.974 40.357,6.974 18.982,0 39.493,-6.688 40.357,-6.974 l 3.71,-1.223 v -3.906 -105.3329993 -3.778 l -3.55,-1.294 c -0.731,-0.268 -18.173,-6.5369997 -40.517,-6.5369997 l 0,0 z"
   id="path3"
   style="fill:#ffce31" />
<polygon
   points="63.92,60.109 44.066,27.942 24.213,60.109 35.879,60.109 40.066,48.944 36.066,91.274 36.066,91.274 36.066,91.274 44.066,79.608 52.066,91.274 48.066,48.942 52.254,60.109 "
   transform="translate(-30.500502,-10.500499)"
   id="polygon5"
   style="fill:#ce0031" />
<path
   d="m 54.083498,-3.9644993 c -0.732,-0.267 -18.173,-6.5359997 -40.517,-6.5359997 l 0,0 0,0 c -22.3439996,0 -39.786,6.2689997 -40.518,6.5359997 l -3.549,1.295 v 3.778 105.3329993 3.906 l 3.709,1.223 c 0.864,0.283 21.3750004,6.974 40.357,6.974 l 0,0 0,0 c 18.982,0 39.493,-6.688 40.357,-6.974 l 3.709,-1.223 v -3.906 -105.3329993 -3.778 l -3.548,-1.295 z m -26.707,93.2130003 12.523,-21.807 12.332,18 V 106.4415 c 0,0 -0.02,0.007 -0.059,0.02 -1.21,0.393 -20.848,6.684 -38.607,6.684 -18.3329996,0 -38.667,-6.703 -38.667,-6.703 V 85.442501 l 12.333,-18 12.5240004,21.807 3.738,-5.451 L -25.100502,1.1085007 c 0,0 17.0210004,-6.209 38.667,-6.209 20.292,0 36.521,5.45700004 38.47,6.139 0.13,0.045 0.195,0.07 0.195,0.07 l -28.593,82.6890003 3.738,5.451 z"
   id="path7"
   style="fill:#ce0031" />
<polygon
   points="48.654,30.614 59.639,48.244 79.42,13.275 "
   transform="translate(-30.500502,-10.500499)"
   id="polygon9"
   style="fill:#231f20" />
<polygon
   points="44.066,123.024 34.297,98.274 44.066,84.028 53.835,98.274 "
   transform="translate(-30.500502,-10.500499)"
   id="polygon11"
   style="fill:#ce0031" />
<polygon
   points="44.066,16.275 28.952,9.161 40.884,28.346 44.066,23.182 47.251,28.346 59.182,9.161 "
   transform="translate(-30.500502,-10.500499)"
   id="polygon13"
   style="fill:#231f20" />
<polygon
   points="39.48,30.614 28.495,48.244 8.713,13.275 "
   transform="translate(-30.500502,-10.500499)"
   id="polygon15"
   style="fill:#231f20" />
<rect
   width="88.133003"
   height="129.545"
   x="-30.500502"
   y="-10.500499"
   id="rect17"
   style="fill:none" />
</svg>