<?xml version="1.0" encoding="UTF-8" standalone="no"?>
<!-- Created with Inkscape (http://www.inkscape.org/) -->
<svg xmlns:dc="http://purl.org/dc/elements/1.1/" xmlns:cc="http://web.resource.org/cc/" xmlns:rdf="http://www.w3.org/1999/02/22-rdf-syntax-ns#" xmlns:svg="http://www.w3.org/2000/svg" xmlns="http://www.w3.org/2000/svg" xmlns:sodipodi="http://sodipodi.sourceforge.net/DTD/sodipodi-0.dtd" xmlns:inkscape="http://www.inkscape.org/namespaces/inkscape" id="svg2211" sodipodi:version="0.32" inkscape:version="0.45.1" width="470.91006" height="535" version="1.0" sodipodi:docbase="C:\Documents and Settings\steven.williamson\Desktop" sodipodi:docname="38th_Infantry_Division SSI.svg" inkscape:output_extension="org.inkscape.output.svg.inkscape">
  <metadata id="metadata2216">
    <rdf:RDF>
      <cc:Work rdf:about="">
        <dc:format>image/svg+xml</dc:format>
        <dc:type rdf:resource="http://purl.org/dc/dcmitype/StillImage"/>
      </cc:Work>
    </rdf:RDF>
  </metadata>
  <defs id="defs2214"/>
  <sodipodi:namedview inkscape:window-height="968" inkscape:window-width="1280" inkscape:pageshadow="2" inkscape:pageopacity="0.0" guidetolerance="10.0" gridtolerance="10.0" objecttolerance="10.0" borderopacity="1.0" bordercolor="#666666" pagecolor="#ffffff" id="base" inkscape:zoom="0.54796512" inkscape:cx="78.419515" inkscape:cy="86.288316" inkscape:window-x="-4" inkscape:window-y="-4" inkscape:current-layer="svg2211"/>
  <g id="g9043" transform="matrix(3.14244, 0, 0, 3.14244, -2.67846, -2.25863)">
    <g id="g4171">
      <path style="fill:#0033ff;fill-opacity:1;fill-rule:evenodd;stroke:none;stroke-width:1px;stroke-linecap:butt;stroke-linejoin:miter;stroke-opacity:1" d="M 4.1061008,3.877984 L 147.3634,4.3342174 C 150.57934,71.816419 115.0957,131.12359 75.962865,166.75332 C 33.98939,130.71088 1.8249338,70.716182 4.1061008,3.877984 z " id="path3195" sodipodi:nodetypes="cccc"/>
      <path style="fill:#ff0033;fill-opacity:1;fill-rule:evenodd;stroke:none;stroke-width:1px;stroke-linecap:butt;stroke-linejoin:miter;stroke-opacity:1" d="M 75.9375,4.125 L 75.9375,166.71875 C 75.948616,166.7283 75.957632,166.74045 75.96875,166.75 C 115.10159,131.12027 150.59094,71.825951 147.375,4.34375 L 75.9375,4.125 z " id="path2220"/>
    </g>
    <path id="path3200" d="M 1.0625,0.71875 L 0.96875,3.78125 C -1.3490395,71.692487 31.225441,132.50642 73.90625,169.15625 L 76.03125,170.96875 L 78.09375,169.09375 C 117.81236,132.93068 153.77256,72.857832 150.5,4.1875 L 150.375,1.1875 L 147.375,1.1875 L 4.125,0.71875 L 1.0625,0.71875 z M 7.25,7.03125 L 144.25,7.46875 C 146.19239,71.351377 112.99064,127.66598 75.84375,162.40625 C 36.282231,127.3386 6.0905764,70.411552 7.25,7.03125 z " style="fill:#006633;fill-opacity:1;fill-rule:evenodd;stroke:none;stroke-width:6.30000019;stroke-linecap:butt;stroke-linejoin:miter;stroke-miterlimit:4;stroke-dasharray:none;stroke-opacity:1"/>
    <path id="path4175" d="M 76.03125,27.625 C 60.426861,27.625 47.750002,40.413981 47.75,56.1875 C 47.75,70.66412 58.430912,82.626391 72.25,84.5 L 72.25,106.59375 L 79.4375,106.59375 L 79.4375,84.5625 C 86.120812,83.744377 92.092784,80.570416 96.5,75.875 L 91.0625,70.96875 C 88.023249,74.218121 83.97877,76.491293 79.4375,77.28125 L 79.4375,74.28125 L 93.53125,59.71875 L 87.875,54.53125 L 76,66.8125 L 63.625,54.03125 L 58.71875,60.03125 L 72.25,73.96875 L 72.25,77.25 C 62.440125,75.498943 54.96875,66.851001 54.96875,56.4375 C 54.96875,45.127992 63.763604,35.879288 74.8125,35.3125 C 75.168916,35.294217 75.545365,35.3125 75.90625,35.3125 C 81.997589,35.312499 87.460577,37.958101 91.28125,42.15625 L 96.46875,36.5 C 91.323528,31.038858 84.081324,27.625001 76.03125,27.625 z " style="opacity:1;fill:#ffffff;fill-opacity:1;stroke:none;stroke-width:0.91345114;stroke-linejoin:round;stroke-miterlimit:4;stroke-dasharray:none;stroke-opacity:1"/>
  </g>
</svg>