<?xml version="1.0" encoding="UTF-8" standalone="no"?>
<!-- Created with Inkscape (http://www.inkscape.org/) -->
<svg
   xmlns:dc="http://purl.org/dc/elements/1.1/"
   xmlns:cc="http://creativecommons.org/ns#"
   xmlns:rdf="http://www.w3.org/1999/02/22-rdf-syntax-ns#"
   xmlns:svg="http://www.w3.org/2000/svg"
   xmlns="http://www.w3.org/2000/svg"
   xmlns:xlink="http://www.w3.org/1999/xlink"
   xmlns:sodipodi="http://sodipodi.sourceforge.net/DTD/sodipodi-0.dtd"
   xmlns:inkscape="http://www.inkscape.org/namespaces/inkscape"
   id="svg2551"
   sodipodi:version="0.32"
   inkscape:version="0.46"
   width="201.81516"
   height="357.17047"
   version="1.0"
   sodipodi:docname="3rd_Infantry_Regiment_COA.svg"
   inkscape:output_extension="org.inkscape.output.svg.inkscape">
  <metadata
     id="metadata2556">
    <rdf:RDF>
      <cc:Work
         rdf:about="">
        <dc:format>image/svg+xml</dc:format>
        <dc:type
           rdf:resource="http://purl.org/dc/dcmitype/StillImage" />
      </cc:Work>
    </rdf:RDF>
  </metadata>
  <defs
     id="defs2554">
    <linearGradient
       inkscape:collect="always"
       id="linearGradient3501">
      <stop
         style="stop-color:#cccccc;stop-opacity:1;"
         offset="0"
         id="stop3503" />
      <stop
         style="stop-color:#cccccc;stop-opacity:0;"
         offset="1"
         id="stop3505" />
    </linearGradient>
    <linearGradient
       inkscape:collect="always"
       id="linearGradient3468">
      <stop
         style="stop-color:#666666;stop-opacity:1;"
         offset="0"
         id="stop3470" />
      <stop
         style="stop-color:#666666;stop-opacity:0;"
         offset="1"
         id="stop3472" />
    </linearGradient>
    <linearGradient
       id="linearGradient3454">
      <stop
         style="stop-color:#ffffff;stop-opacity:1;"
         offset="0"
         id="stop3456" />
      <stop
         style="stop-color:#6f6f6f;stop-opacity:1;"
         offset="1"
         id="stop3458" />
    </linearGradient>
    <linearGradient
       inkscape:collect="always"
       id="linearGradient3446">
      <stop
         style="stop-color:#4d4d4d;stop-opacity:1;"
         offset="0"
         id="stop3448" />
      <stop
         style="stop-color:#4d4d4d;stop-opacity:0;"
         offset="1"
         id="stop3450" />
    </linearGradient>
    <linearGradient
       id="linearGradient3410">
      <stop
         style="stop-color:#ffffff;stop-opacity:1;"
         offset="0"
         id="stop3412" />
      <stop
         style="stop-color:#6b6868;stop-opacity:1;"
         offset="1"
         id="stop3414" />
    </linearGradient>
    <linearGradient
       id="linearGradient3400">
      <stop
         style="stop-color:#000000;stop-opacity:1;"
         offset="0"
         id="stop3402" />
      <stop
         style="stop-color:#2f2f2f;stop-opacity:1;"
         offset="1"
         id="stop3404" />
    </linearGradient>
    <linearGradient
       id="linearGradient4726">
      <stop
         style="stop-color:#ffffff;stop-opacity:1;"
         offset="0"
         id="stop4728" />
      <stop
         style="stop-color:#000000;stop-opacity:1;"
         offset="1"
         id="stop4730" />
    </linearGradient>
    <linearGradient
       id="linearGradient4720">
      <stop
         id="stop4722"
         offset="0"
         style="stop-color:#ffffff;stop-opacity:1;" />
      <stop
         id="stop4724"
         offset="1"
         style="stop-color:#000000;stop-opacity:1;" />
    </linearGradient>
    <linearGradient
       id="linearGradient3385">
      <stop
         style="stop-color:#ffffff;stop-opacity:1;"
         offset="0"
         id="stop3387" />
      <stop
         style="stop-color:#000000;stop-opacity:1;"
         offset="1"
         id="stop3389" />
    </linearGradient>
    <inkscape:perspective
       sodipodi:type="inkscape:persp3d"
       inkscape:vp_x="0 : 526.18109 : 1"
       inkscape:vp_y="0 : 1000 : 0"
       inkscape:vp_z="744.09448 : 526.18109 : 1"
       inkscape:persp3d-origin="372.04724 : 350.78739 : 1"
       id="perspective2558" />
    <linearGradient
       inkscape:collect="always"
       xlink:href="#linearGradient3410"
       id="linearGradient3416"
       x1="132.73846"
       y1="53.048901"
       x2="124.60188"
       y2="53.048901"
       gradientUnits="userSpaceOnUse"
       gradientTransform="translate(31.441399,-19.071013)" />
    <radialGradient
       inkscape:collect="always"
       xlink:href="#linearGradient3400"
       id="radialGradient3560"
       gradientUnits="userSpaceOnUse"
       gradientTransform="matrix(3.8798832,-2.1257834e-6,1.4068206e-6,2.5676649,-684.6401,-2.1762619)"
       cx="237.7319"
       cy="1.3885405"
       fx="237.7319"
       fy="1.3885405"
       r="16.583244" />
    <linearGradient
       inkscape:collect="always"
       xlink:href="#linearGradient3501"
       id="linearGradient3597"
       gradientUnits="userSpaceOnUse"
       x1="355.85434"
       y1="4.4241076"
       x2="326.2713"
       y2="4.4241076"
       gradientTransform="translate(0,12)" />
    <radialGradient
       inkscape:collect="always"
       xlink:href="#linearGradient3468"
       id="radialGradient3601"
       gradientUnits="userSpaceOnUse"
       gradientTransform="matrix(1,0,0,0.2423777,0,6.6756949)"
       cx="339.85208"
       cy="-7.0276508"
       fx="339.85208"
       fy="-7.0276508"
       r="11.83404" />
    <linearGradient
       inkscape:collect="always"
       xlink:href="#linearGradient3454"
       id="linearGradient3604"
       gradientUnits="userSpaceOnUse"
       x1="353.3075"
       y1="5.4530563"
       x2="268.7251"
       y2="5.4530563"
       gradientTransform="translate(0,12)" />
    <radialGradient
       inkscape:collect="always"
       xlink:href="#linearGradient3446"
       id="radialGradient3606"
       gradientUnits="userSpaceOnUse"
       gradientTransform="matrix(1.6824001,8.9235834e-7,-9.7199939e-7,1.8325507,-231.64461,7.4597509)"
       cx="339.45572"
       cy="5.4530563"
       fx="339.45572"
       fy="5.4530563"
       r="13.851797" />
    <linearGradient
       inkscape:collect="always"
       xlink:href="#linearGradient3410"
       id="linearGradient3609"
       gradientUnits="userSpaceOnUse"
       gradientTransform="translate(209.38338,-0.242861)"
       x1="132.73846"
       y1="53.048901"
       x2="124.60188"
       y2="53.048901" />
    <radialGradient
       inkscape:collect="always"
       xlink:href="#linearGradient4726"
       id="radialGradient3647"
       gradientUnits="userSpaceOnUse"
       gradientTransform="matrix(3.2165736,-4.5865911e-8,2.2874246e-8,1.6041695,134.2545,133.76998)"
       cx="54.883808"
       cy="-42.168621"
       fx="54.883808"
       fy="-42.168621"
       r="71.777695" />
    <radialGradient
       inkscape:collect="always"
       xlink:href="#linearGradient3385"
       id="radialGradient3651"
       gradientUnits="userSpaceOnUse"
       gradientTransform="matrix(4.3722184,3.5082897e-2,-6.8845841e-2,8.5799756,-133.75797,-399.81003)"
       cx="101.95527"
       cy="53.860882"
       fx="101.95527"
       fy="53.860882"
       r="73.275345" />
  </defs>
  <sodipodi:namedview
     inkscape:window-height="726"
     inkscape:window-width="1036"
     inkscape:pageshadow="2"
     inkscape:pageopacity="0.0"
     guidetolerance="10.0"
     gridtolerance="10.0"
     objecttolerance="10.0"
     borderopacity="1.0"
     bordercolor="#666666"
     pagecolor="#ffffff"
     id="base"
     showgrid="false"
     inkscape:zoom="3.96"
     inkscape:cx="110.98488"
     inkscape:cy="366.94441"
     inkscape:window-x="184"
     inkscape:window-y="22"
     inkscape:current-layer="svg2551"
     showguides="true"
     inkscape:guide-bbox="true"
     units="cm">
    <sodipodi:guide
       orientation="0,1"
       position="188.09624,43.942712"
       id="guide3190" />
  </sodipodi:namedview>
  <g
     id="g2735">
    <g
       id="g2714">
      <path
         style="fill:#ffffff;fill-opacity:1;fill-rule:evenodd;stroke:none;stroke-width:0.30000001;stroke-linecap:butt;stroke-linejoin:miter;stroke-miterlimit:4;stroke-dasharray:none;stroke-opacity:1"
         d="M 0.15,110.05077 L 201.66515,110.05077 L 201.66515,305.50532 C 201.1643,332.55516 190.48452,344.01642 151.53889,342.374 C 126.20559,341.32694 111.02831,341.65818 101.403,357.02047 C 89.64946,339.11133 77.47119,341.78343 49.77121,342.374 C 19.60089,343.02801 1.33658,336.05116 0.15,305.00027 L 0.15,110.05077 z"
         id="path3336"
         sodipodi:nodetypes="cccscscc" />
      <path
         style="fill:#de2021;fill-opacity:1;fill-rule:evenodd;stroke:none;stroke-width:1px;stroke-linecap:butt;stroke-linejoin:miter;stroke-opacity:1"
         d="M 26.46249,340.54664 L 26.46249,186.05077 L 12.06855,186.05077 L 12.06855,334.38012 C 16.3312,336.93216 20.52394,339.67487 26.46249,340.54664 z M 55.25036,342.1976 L 55.25036,186.05077 L 40.85643,186.05077 L 40.85643,342.32269 C 45.46014,342.76588 51.26422,342.14695 55.25036,342.1976 z M 84.03826,343.29869 L 84.03826,186.05077 L 69.64431,186.05077 L 69.64431,341.87748 C 73.8774,342.01072 79.43626,342.3245 84.03826,343.29869 z"
         id="path3339"
         sodipodi:nodetypes="ccccccccccccccc" />
      <path
         style="fill:#de2021;fill-opacity:1;fill-rule:evenodd;stroke:none;stroke-width:1px;stroke-linecap:butt;stroke-linejoin:miter;stroke-opacity:1"
         d="M 176.11971,340.90758 L 176.11971,186.05077 L 190.51365,186.05077 L 190.51365,335.05235 C 186.36619,337.88124 181.46693,340.27234 176.11971,340.90758 z M 147.33184,342.1976 L 147.33184,186.05077 L 161.72577,186.05077 L 161.72577,342.32269 C 157.12206,342.76588 151.31798,342.14695 147.33184,342.1976 z M 118.54394,344.11081 L 118.54394,186.05077 L 132.93789,186.05077 L 132.93789,341.96771 C 128.7048,342.10095 123.14594,343.13662 118.54394,344.11081 z"
         id="path3345"
         sodipodi:nodetypes="ccccccccccccccc" />
      <rect
         style="fill:#0060aa;fill-opacity:1;fill-rule:nonzero;stroke:none;stroke-width:1;stroke-linecap:butt;stroke-linejoin:miter;marker:none;marker-start:none;marker-mid:none;marker-end:none;stroke-miterlimit:4;stroke-dasharray:none;stroke-dashoffset:0;stroke-opacity:1;visibility:visible;display:inline;overflow:visible;enable-background:accumulate"
         id="rect2564"
         width="201.51515"
         height="77.272728"
         x="0.1499922"
         y="109.04068" />
      <path
         style="fill:#ffffff;fill-rule:evenodd;stroke:none;stroke-width:1px;stroke-linecap:butt;stroke-linejoin:miter;stroke-opacity:1"
         d="M 19.78207,169.63774 L 49.22128,169.63774 L 39.48735,152.06917 L 56.58108,161.80311 L 56.58108,133.31355 L 39.48735,144.47196 L 49.22128,125.71634 L 19.78207,125.71634 L 30.70307,144.47196 L 12.65968,133.31355 L 12.65968,161.80311 L 30.70307,152.06917 L 19.78207,169.63774 z"
         id="path3355"
         sodipodi:nodetypes="ccccccccccccc" />
      <path
         style="fill:#ffffff;fill-rule:evenodd;stroke:none;stroke-width:1px;stroke-linecap:butt;stroke-linejoin:miter;stroke-opacity:1"
         d="M 84.67851,169.63774 L 114.11772,169.63774 L 104.38379,152.06917 L 121.47752,161.80311 L 121.47752,133.31355 L 104.38379,144.47196 L 114.11772,125.71634 L 84.67851,125.71634 L 95.59951,144.47196 L 77.55612,133.31355 L 77.55612,161.80311 L 95.59951,152.06917 L 84.67851,169.63774 z"
         id="path3357"
         sodipodi:nodetypes="ccccccccccccc" />
      <path
         style="fill:#ffffff;fill-rule:evenodd;stroke:none;stroke-width:1px;stroke-linecap:butt;stroke-linejoin:miter;stroke-opacity:1"
         d="M 149.57493,169.63774 L 179.01414,169.63774 L 169.28021,152.06917 L 186.37394,161.80311 L 186.37394,133.31355 L 169.28021,144.47196 L 179.01414,125.71634 L 149.57493,125.71634 L 160.49593,144.47196 L 142.45254,133.31355 L 142.45254,161.80311 L 160.49593,152.06917 L 149.57493,169.63774 z"
         id="path3359"
         sodipodi:nodetypes="ccccccccccccc" />
      <path
         style="fill:none;fill-rule:evenodd;stroke:#000000;stroke-width:0.30000001;stroke-linecap:butt;stroke-linejoin:miter;stroke-miterlimit:4;stroke-dasharray:none;stroke-opacity:1"
         d="M 0.15,109.18647 L 201.66515,109.18647 L 201.66515,305.50532 C 201.1643,332.55516 190.48452,344.01642 151.53889,342.374 C 126.20559,341.32694 110.87844,341.65818 101.25313,357.02047 C 89.49959,339.11133 77.47119,341.78343 49.77121,342.374 C 19.60089,343.02801 1.33658,336.05116 0.15,305.00027 L 0.15,109.18647 z"
         id="path4201"
         sodipodi:nodetypes="cccscscc" />
      <path
         style="fill:#ffffff;fill-opacity:1;fill-rule:evenodd;stroke:none;stroke-width:0.1754102;stroke-linecap:butt;stroke-linejoin:miter;stroke-miterlimit:4;stroke-dasharray:none;stroke-opacity:1"
         d="M 26.430982,186.09139 L 176.18918,186.09139 L 176.18918,286.24086 C 175.81696,298.66213 167.88017,303.92514 138.93728,303.17093 C 120.11059,302.69013 108.72001,302.84224 101.56689,309.89658 C 92.832102,301.67272 83.893032,302.89975 63.307502,303.17093 C 40.886132,303.47126 27.312792,300.26749 26.430982,286.00894 L 26.430982,186.09139 z"
         id="path2404"
         sodipodi:nodetypes="cccscscc" />
      <path
         style="fill:#fb101d;fill-opacity:1;fill-rule:evenodd;stroke:none;stroke-width:0.1;stroke-linecap:butt;stroke-linejoin:miter;stroke-miterlimit:4;stroke-dasharray:none;stroke-opacity:1"
         d="M 84.660772,225.18526 L 87.779202,225.18526 L 87.779202,227.24342 L 90.648152,227.24342 L 90.648152,225.18526 L 94.140792,225.18526 L 94.140792,227.24342 L 97.134472,227.24342 L 97.134472,225.18526 L 100.00342,225.18526 L 100.00342,227.24342 L 100.00342,229.92526 L 102.12395,229.92526 L 102.12395,227.55526 L 104.93944,227.55526 L 104.94835,229.92526 L 107.77275,229.92526 L 107.75493,227.55526 L 110.57042,227.55526 L 110.59715,229.92526 L 113.42156,229.92526 L 113.38591,227.55526 L 116.2014,227.55526 L 116.24596,229.92526 L 119.07036,229.92526 L 119.01689,227.55526 L 121.83238,227.55526 L 121.89476,229.92526 L 121.95714,239.40528 L 84.660772,239.28054 L 84.660772,227.24342 L 84.660772,225.18526 z"
         id="path3198"
         sodipodi:nodetypes="cccccccccccccccccccccccccccccccc" />
      <path
         style="fill:#295539;fill-opacity:1;fill-rule:evenodd;stroke:none;stroke-width:0.1754102;stroke-linecap:butt;stroke-linejoin:miter;stroke-miterlimit:4;stroke-dasharray:none;stroke-opacity:1"
         d="M 101.09602,229.57871 C 99.195932,229.57871 98.179012,230.01265 96.591742,230.39121 C 94.882412,230.79888 94.490312,231.82743 92.650492,232.26621 C 91.013662,232.6566 89.502062,233.29736 88.396452,234.70371 C 87.137522,236.30502 85.953832,237.10996 83.610652,237.10996 C 81.591762,237.10996 81.074792,237.86853 79.669412,238.20371 C 77.845902,238.63861 76.893622,239.25423 75.165122,240.07871 C 74.322502,240.48064 70.076682,243.29747 69.816292,243.29746 C 68.031712,243.29746 66.252032,243.29747 64.467462,243.29746 C 62.209872,243.29746 60.835292,245.16613 59.118622,245.98496 C 58.053632,246.49296 55.910192,247.22691 54.583062,247.85996 C 52.602012,248.8049 51.256422,250.67662 49.234232,251.64121 C 47.844642,252.30404 46.167132,253.49904 44.729942,254.04746 C 43.317332,254.5865 41.090292,255.09761 40.225662,255.92246 C 38.764402,257.31648 37.412482,257.14999 35.721382,258.35996 C 34.293742,259.38141 31.904022,259.57375 30.654062,260.76621 C 29.854962,261.52853 27.750042,263.08576 26.400022,263.85996 L 26.400022,286.17246 C 27.282672,300.43101 40.867392,303.62905 63.310112,303.32871 C 83.915222,303.05753 92.853382,301.82359 101.5965,310.04746 C 108.75642,302.99312 120.16247,302.84792 139.00706,303.32871 C 167.97749,304.08292 175.91995,298.81248 176.2925,286.39121 L 176.2925,264.92246 C 176.22661,264.50586 176.17418,264.12238 176.10482,263.85996 C 175.10314,263.38216 173.5943,262.15672 172.38253,261.57871 C 171.10407,260.96889 169.96904,259.54883 168.7228,258.35996 C 167.96632,257.63828 166.62584,256.7615 165.90763,255.39121 C 165.11796,253.88456 164.12801,253.59748 162.52942,252.45371 C 160.815,251.22705 159.84824,251.2977 158.27537,250.54746 C 156.66292,249.77834 156.19455,249.27088 154.61565,248.14121 C 153.26528,247.17503 151.953,245.75863 150.6744,245.45371 C 149.76873,245.2377 147.33749,244.27932 147.01467,243.04746 C 146.41919,240.77516 145.07893,241.31657 143.07342,240.35996 C 142.23446,239.95978 139.67894,239.85883 138.85066,239.26621 C 137.44144,238.25793 136.2351,237.62104 134.6279,237.10996 C 133.19639,236.65475 131.43493,234.17246 130.12361,234.17246 C 128.52564,234.17246 127.01319,233.89122 125.30654,233.89121 C 124.23367,233.89121 120.55965,234.01219 120.23922,235.23496 C 120.18021,235.46013 118.65753,238.39502 117.70556,236.57871 C 116.84256,234.9321 115.96919,235.69369 114.04583,235.23496 C 112.2354,234.80318 111.58055,234.13476 110.10459,233.07871 C 108.81485,232.15591 106.75949,231.26607 105.31879,230.92246 C 103.57136,230.50571 102.55558,229.57871 101.09602,229.57871 z"
         id="path3192" />
      <path
         style="fill:#214f31;fill-opacity:1;fill-rule:evenodd;stroke:none;stroke-width:1px;stroke-linecap:butt;stroke-linejoin:miter;stroke-opacity:1"
         d="M 56.886702,297.33993 C 58.711532,294.83208 61.589912,293.32106 62.434442,289.94295 C 63.179322,286.96344 64.568962,284.44106 65.516512,282.54596 C 68.256492,277.06602 62.006682,282.78507 61.201612,284.3952 C 59.912412,286.9736 57.069202,288.05582 55.653872,289.94295 C 54.579642,291.37524 56.557472,296.51685 56.886702,297.33993 z"
         id="path3201" />
      <path
         style="fill:#214f31;fill-opacity:1;fill-rule:evenodd;stroke:none;stroke-width:1px;stroke-linecap:butt;stroke-linejoin:miter;stroke-opacity:1"
         d="M 45.791222,293.02502 C 43.905352,295.53952 45.347622,286.59007 43.941982,283.77879 C 42.130162,280.15517 41.794802,279.46387 38.394242,279.46387 C 35.131232,279.46387 36.622342,285.08897 37.777822,286.24445 C 40.308922,288.77556 42.215442,290.18838 43.325552,292.4086 C 43.704432,293.16634 44.969332,292.81955 45.791222,293.02502 z"
         id="path3203" />
      <path
         style="fill:#214f31;fill-opacity:1;fill-rule:evenodd;stroke:none;stroke-width:1px;stroke-linecap:butt;stroke-linejoin:miter;stroke-opacity:1"
         d="M 38.009422,258.05231 C 40.973232,263.97995 39.339762,265.25427 37.393002,269.1478 C 36.195762,271.54228 36.160172,273.80082 36.160172,277.1612 C 36.160172,278.09911 31.514192,273.43223 30.612432,272.22987 C 29.615862,270.90113 30.612432,264.75337 30.612432,262.98364 C 30.612432,260.51087 35.483342,258.05231 38.009422,258.05231 z"
         id="path3205" />
      <path
         style="fill:#214f31;fill-opacity:1;fill-rule:evenodd;stroke:none;stroke-width:1px;stroke-linecap:butt;stroke-linejoin:miter;stroke-opacity:1"
         d="M 63.050862,260.97141 C 63.050862,255.25729 56.131802,259.26064 61.818032,253.57442 C 63.625792,251.76666 66.963162,250.9484 69.215012,249.25951 C 72.501182,246.79489 74.143952,247.41979 75.379172,242.47894 C 75.417192,242.32686 77.182382,246.22347 74.762762,248.64309 C 71.324462,252.08139 71.905122,252.62297 72.913502,256.6565 C 73.826292,260.30765 69.444492,261.06814 67.365772,261.58783 C 66.352202,261.84122 63.305762,261.02239 63.050862,260.97141 z"
         id="path3207" />
      <path
         style="fill:#214f31;fill-opacity:1;fill-rule:evenodd;stroke:none;stroke-width:1px;stroke-linecap:butt;stroke-linejoin:miter;stroke-opacity:1"
         d="M 141.98336,278.47083 C 141.59623,278.5676 135.66367,272.70649 133.96995,271.69025 C 131.10635,269.9721 129.73079,269.2814 127.18938,267.37535 C 123.63065,264.7063 123.13526,264.1036 122.25805,260.59478 C 121.48863,257.51706 126.73792,256.08452 128.42221,255.66345 C 132.17155,254.72612 128.86174,254.78304 125.34012,255.66345 C 121.2389,256.68876 122.13377,258.86982 119.17598,261.82761 C 118.13585,262.86773 121.5566,267.20526 122.25805,268.60818 C 123.42043,270.93293 129.60167,272.8964 132.1207,274.15592 C 135.19006,275.6906 135.78909,277.07636 138.90127,277.85441 C 139.9177,278.10852 140.95599,278.26536 141.98336,278.47083 z"
         id="path3209" />
      <path
         style="fill:#214f31;fill-opacity:1;fill-rule:evenodd;stroke:none;stroke-width:1px;stroke-linecap:butt;stroke-linejoin:miter;stroke-opacity:1"
         d="M 134.05129,249.07826 C 134.35222,246.02684 127.86184,243.47995 126.03789,239.83203 C 124.76813,237.29252 121.04086,237.21017 118.18908,237.21017 C 119.74562,236.81966 122.41302,236.76835 124.80506,237.36637 C 125.61433,237.56869 130.34292,242.29276 131.58563,242.9141 C 133.22597,243.73427 135.07188,247.30051 134.05129,249.07826 z"
         id="path3211"
         sodipodi:nodetypes="cscssc" />
      <path
         style="fill:#214f31;fill-opacity:1;fill-rule:evenodd;stroke:none;stroke-width:1px;stroke-linecap:butt;stroke-linejoin:miter;stroke-opacity:1"
         d="M 162.94149,269.22459 C 166.64414,271.07592 156.13051,266.02089 154.92807,261.21119 C 154.1572,258.12767 149.35553,255.04083 154.31166,256.27986 C 157.66243,257.11756 159.8294,258.71552 160.47582,259.36195 C 160.74152,259.62766 153.01327,256.83072 157.39374,261.21119 C 160.68474,264.50219 160.1872,264.63413 162.94149,269.22459 z"
         id="path3213" />
      <path
         style="fill:#214f31;fill-opacity:1;fill-rule:evenodd;stroke:none;stroke-width:1px;stroke-linecap:butt;stroke-linejoin:miter;stroke-opacity:1"
         d="M 110.21862,267.78327 C 111.42553,268.74496 115.40548,270.01447 116.62256,271.23155 C 118.27233,272.88132 120.32807,273.14315 122.53389,273.6946 C 124.6048,274.21233 118.20086,274.21233 116.12995,273.6946 C 111.56875,272.5543 111.23027,272.84152 110.21862,267.78327 z"
         id="path3215" />
    </g>
    <g
       id="g2657">
      <g
         id="g3758"
         transform="translate(-208.00394,-2.00983)">
        <path
           sodipodi:nodetypes="ccsssssssccsc"
           id="path3365"
           d="M 239.73438,78.292928 C 274.91377,30.438536 325.5864,13.530858 360.52238,61.657457 C 362.78087,66.174433 367.77627,69.655691 369.92504,73.95324 C 370.96734,76.037845 371.19384,78.34043 373.54145,80.101131 C 375.26981,81.397405 377.18938,81.579218 378.96606,83.355899 C 380.25264,84.642485 381.33299,84.867555 381.85918,86.972306 C 382.96025,91.376593 368.1521,92.035275 365.58535,92.035275 C 356.19261,92.035275 345.64526,91.923037 336.29246,93.481838 C 327.6244,94.926514 317.30729,93.843479 308.44612,93.843479 C 297.92802,93.843479 287.14946,92.035275 276.62173,92.035275 C 263.75322,95.613891 253.44341,91.248439 241.54259,88.057228 C 240.52128,87.801902 235.11396,82.56464 235.39469,81.547694 C 236.02059,79.280462 239.49329,78.895662 239.73438,78.292928 z"
           style="fill:#000000;fill-rule:evenodd;stroke:none;stroke-width:1px;stroke-linecap:butt;stroke-linejoin:miter;stroke-opacity:1" />
        <path
           sodipodi:nodetypes="ccsssscsccsc"
           id="path3375"
           d="M 239.38095,77.864219 C 273.44427,29.5634 327.33037,10.921961 360.48064,61.280697 C 362.73913,65.797673 367.42284,69.226982 369.57161,73.524531 C 370.61391,75.609136 370.84041,77.911721 373.18802,79.672422 C 374.91638,80.968696 376.83595,81.150509 378.61263,82.92719 C 379.89921,84.213776 380.97956,84.438846 381.50575,86.543597 C 382.60682,90.947884 371.14687,80.445884 367.68727,76.874466 C 350.75163,55.439388 346.12226,35.16883 311.97923,33.002631 C 275.08899,30.665691 249.47976,67.044089 239.88652,78.554353 C 230.91334,81.414977 242.15251,85.90903 240.51951,88.074946 C 239.49821,87.81962 234.76052,82.135931 235.04126,81.118985 C 235.66715,78.851753 239.13986,78.466953 239.38095,77.864219 z"
           style="fill:url(#radialGradient3651);fill-opacity:1;fill-rule:evenodd;stroke:none;stroke-width:1px;stroke-linecap:butt;stroke-linejoin:miter;stroke-opacity:1" />
        <path
           sodipodi:nodetypes="csccsccccc"
           id="path3369"
           d="M 239.01461,86.632286 C 249.976,95.957316 264.27734,48.358308 289.45224,42.065694 C 303.22398,38.623366 306.17128,62.33256 311.15067,62.317573 C 320.9902,57.675596 319.70717,40.986986 332.48748,40.980772 C 342.01928,41.011224 350.34469,46.384441 354.18592,52.553274 C 363.78395,67.967218 359.45201,60.757479 362.67322,64.871552 C 367.10607,67.266647 368.84823,70.908713 370.09811,73.890075 C 371.78828,79.936921 374.84969,81.130969 381.67061,83.654374 C 383.24061,84.439371 382.70189,89.424804 380.46975,90.503052 C 345.09887,87.193914 250.80649,105.65701 239.01461,86.632286 z"
           style="fill:#000000;fill-rule:evenodd;stroke:none;stroke-width:1px;stroke-linecap:butt;stroke-linejoin:miter;stroke-opacity:1" />
        <path
           sodipodi:nodetypes="cccccsccsc"
           id="path3593"
           d="M 298.47506,46.9073 C 304.25627,43.111303 319.2288,41.617796 325.07094,46.188493 C 326.945,48.06255 325.13203,47.641381 323.63332,47.266704 C 320.96918,45.502418 316.99506,44.422563 313.88252,45.551053 C 309.57094,47.833841 311.55002,52.167273 315.00763,50.592151 C 314.83928,53.190258 312.49071,53.654826 311.1011,53.361028 C 308.08541,52.723439 308.15123,49.469378 309.61658,46.547896 C 307.40248,44.319618 301.9844,45.956481 300.7223,49.186666 C 300.32774,50.764905 300.0436,49.78253 298.11566,49.78253 C 297.14979,49.78253 298.11635,47.804087 298.47506,46.9073 z"
           style="fill:#1a1a1a;fill-opacity:1;fill-rule:evenodd;stroke:none;stroke-width:1px;stroke-linecap:butt;stroke-linejoin:miter;stroke-opacity:1" />
        <path
           sodipodi:nodetypes="csccscccccssssscc"
           id="path3373"
           d="M 239.01461,86.632286 C 249.976,95.957316 264.27734,48.358308 289.45224,42.065694 C 303.22398,38.623366 306.17128,62.33256 311.15067,62.317573 C 320.9902,57.675596 319.70717,40.986986 332.48748,40.980772 C 342.01928,41.011224 350.34469,45.99862 354.18592,52.167453 C 363.78395,67.581397 359.45201,60.371658 362.67322,64.485731 C 367.10607,66.880826 368.84823,70.522892 370.09811,73.504254 C 371.78828,79.5511 374.84969,80.745148 381.67061,83.268553 C 383.24061,84.05355 383.28062,89.617715 381.04848,90.695963 C 378.45288,87.460987 369.20883,86.928265 367.57654,81.001138 C 364.24148,75.852071 368.87263,79.880054 359.4421,68.667399 C 357.67878,66.570858 352.79784,63.531193 349.83986,57.928514 C 348.41392,55.227647 346.64163,46.629544 333.24001,47.569406 C 323.13482,48.278087 320.47305,71.375444 310.94213,71.080292 C 300.18341,70.747117 301.93136,48.479003 290.00283,50.249027 C 274.7077,52.518605 256.72705,92.263873 247.14028,91.248828 C 244.05346,91.184593 241.72236,90.232893 239.01461,86.632286 z"
           style="fill:url(#radialGradient3647);fill-opacity:1;fill-rule:evenodd;stroke:none;stroke-width:1px;stroke-linecap:butt;stroke-linejoin:miter;stroke-opacity:1" />
        <g
           transform="translate(0,4)"
           id="g3654">
          <g
             id="g3364"
             transform="translate(103.11974,52.777404)">
            <path
               sodipodi:nodetypes="ccccccccccccccccccccccccccccccccccc"
               id="path3245"
               d="M 236.33781,-17.527151 L 233.93036,-14.431856 L 228.77153,-14.431856 L 228.77153,-10.648718 L 224.76478,-9.9707755 L 224.86809,-5.2662785 L 221.14865,-3.0923435 L 223.04517,1.8994715 L 221.54918,5.5155995 L 224.31046,7.9598525 L 223.11878,11.53918 L 227.45245,13.619708 L 228.46441,18.51102 L 231.86683,16.781511 L 234.99893,20.10042 L 238.05742,17.552859 L 241.15271,20.304232 L 243.59697,16.501291 L 247.70702,17.005125 L 248.14155,12.811559 L 251.56377,12.163322 L 251.16324,7.8126465 L 254.31514,5.7321185 L 251.38686,2.6368235 L 253.73061,-0.067846462 L 250.78252,-2.6324065 L 252.52193,-5.9513165 L 249.12942,-7.4105085 L 250.09342,-11.148159 L 246.475,-10.772573 L 245.48587,-14.510225 L 242.54362,-13.29996 L 242.05427,-17.193131 L 239.17268,-14.682371 L 236.33781,-17.527151 z"
               style="fill:url(#radialGradient3560);fill-opacity:1;fill-rule:evenodd;stroke:none;stroke-width:0.40000001;stroke-linecap:butt;stroke-linejoin:miter;stroke-miterlimit:4;stroke-dasharray:none;stroke-opacity:1" />
            <path
               id="path3249"
               d="M 231.075,15.898464 C 231.075,15.606298 231.075,14.502591 231.075,13.815131 C 231.075,13.495202 231.61772,12.078662 231.72605,11.862006 C 232.20377,10.906548 232.45483,10.235355 232.89792,9.1276305 C 233.47635,7.6815665 233.8513,7.5232055 232.76771,8.6067975 C 232.13479,9.2397205 231.72137,9.4810905 231.20521,10.169298 C 230.59711,10.980104 230.28941,10.707491 230.03334,11.731798 C 229.88096,12.341311 229.16803,12.672906 228.99167,13.554714 C 228.80705,14.477806 229.29263,14.767135 229.77292,15.247423 C 230.36081,15.835317 230.03786,16.313322 231.075,15.898464 z"
               style="fill:#1a1a1a;fill-rule:evenodd;stroke:none;stroke-width:1px;stroke-linecap:butt;stroke-linejoin:miter;stroke-opacity:1" />
            <path
               sodipodi:nodetypes="cccc"
               id="path3251"
               d="M 231.98646,7.1745055 C 230.55891,8.5178335 228.50073,9.8031995 227.29896,11.862006 C 226.62131,10.755309 226.14682,9.9272125 225.99688,8.6067975 C 226.60084,7.0178385 230.55,6.3009785 231.98646,7.1745055 z"
               style="fill:#1a1a1a;fill-opacity:1;fill-rule:evenodd;stroke:none;stroke-width:1px;stroke-linecap:butt;stroke-linejoin:miter;stroke-opacity:1" />
            <path
               id="path3263"
               d="M 230.55417,3.5286725 C 230.05119,3.6153815 228.70876,4.1965835 228.21042,4.5703385 C 227.66689,4.9779895 226.83059,4.9478485 226.25729,5.0911725 C 225.91413,5.1769635 224.74003,6.4782325 224.56459,6.6536725 C 224.29622,6.9220365 224.04375,5.1892645 224.04375,4.8307555 C 224.04375,4.1723085 224.05873,3.3385565 224.17396,2.8776305 C 224.24236,2.6040555 225.33431,2.2323515 225.60625,2.0963805 C 226.05133,1.8738415 227.16965,2.0963805 227.68959,2.0963805 C 228.41636,2.0963805 229.30096,2.2461385 229.90313,2.4870055 C 230.40807,2.6889805 230.81949,3.4402315 231.33542,3.2682555 C 231.59584,3.1814495 230.81459,3.4418665 230.55417,3.5286725 z"
               style="fill:#1a1a1a;fill-opacity:1;fill-rule:evenodd;stroke:none;stroke-width:1px;stroke-linecap:butt;stroke-linejoin:miter;stroke-opacity:1" />
            <path
               id="path3267"
               d="M 231.46563,-1.9400775 C 230.81673,-1.8072365 229.77234,-1.9925115 228.99167,-2.4609115 C 228.41707,-2.8056685 227.42658,-3.0481435 227.03855,-3.2421615 C 226.53067,-3.4960975 225.65243,-3.4933425 224.95521,-3.6327865 C 224.21431,-3.7809675 224.28516,-2.4960805 224.17396,-1.9400775 C 224.09735,-1.5570385 223.99927,-1.1175885 224.17396,-0.76820246 C 224.27265,-0.57082246 225.56123,-2.0252605 225.60625,-2.0702865 C 225.91173,-2.3757605 227.10483,-2.2004945 227.55938,-2.2004945 C 228.15268,-2.2004945 229.12912,-1.6246795 229.64271,-1.4192445 C 230.52197,-1.0675405 231.6587,-0.78166946 231.46563,-1.9400775 z"
               style="fill:#1a1a1a;fill-opacity:1;fill-rule:evenodd;stroke:none;stroke-width:1px;stroke-linecap:butt;stroke-linejoin:miter;stroke-opacity:1" />
            <path
               sodipodi:nodetypes="ccssscc"
               id="path3269"
               d="M 232.6375,-4.6744525 C 231.34252,-6.3083245 230.8162,-6.2177745 229.12188,-7.9296615 C 228.75361,-8.6867945 227.61767,-8.7939955 226.90834,-8.9713275 C 226.61202,-9.0454065 226.50572,-7.8817035 226.3875,-7.4088275 C 226.28224,-6.9877595 226.3875,-6.5407725 226.3875,-6.1067445 C 226.3875,-5.4329525 227.71503,-6.7476095 228.34063,-6.4973695 C 229.74317,-5.7740475 231.24265,-4.8802475 232.6375,-4.6744525 z"
               style="fill:#1a1a1a;fill-opacity:1;fill-rule:evenodd;stroke:none;stroke-width:1px;stroke-linecap:butt;stroke-linejoin:miter;stroke-opacity:1" />
            <path
               id="path3271"
               d="M 235.37188,-6.4973695 C 235.35805,-7.1520315 234.73868,-8.2846055 234.33021,-9.1015365 C 233.98676,-9.7884405 233.70639,-10.218967 233.28855,-11.054661 C 232.97117,-11.689419 232.9193,-12.661867 232.76771,-13.268202 C 232.53259,-14.208686 232.27495,-13.386911 231.59584,-12.877577 C 231.02038,-12.445981 230.44286,-12.375644 230.29375,-12.226536 C 230.26866,-12.201445 231.18015,-10.871059 231.33542,-10.664036 C 231.95603,-9.8365575 232.45189,-9.4108845 233.02813,-8.4504945 C 233.36425,-7.8902915 234.03742,-7.8642075 234.33021,-7.2786195 C 234.45202,-7.0350105 235.11269,-6.6528795 235.37188,-6.4973695 z"
               style="fill:#1a1a1a;fill-opacity:1;fill-rule:evenodd;stroke:none;stroke-width:1px;stroke-linecap:butt;stroke-linejoin:miter;stroke-opacity:1" />
            <path
               id="path3273"
               d="M 240.05938,-6.2369525 C 240.05938,-6.6089565 240.05938,-7.8067765 240.05938,-8.5807025 C 240.05938,-9.4503695 240.12405,-10.271699 240.31979,-11.054661 C 240.52158,-11.861803 240.91534,-12.469863 241.10105,-13.398411 C 241.22889,-14.037633 240.216,-13.216302 239.79896,-13.007786 C 239.25335,-12.73498 239.40834,-12.119861 239.40834,-11.445286 C 239.40834,-10.750841 239.40834,-10.056397 239.40834,-9.3619525 C 239.40834,-8.5362455 239.60078,-7.9411505 239.79896,-7.1484115 C 240.21283,-5.4929365 240.05938,-9.2056265 240.05938,-6.2369525 z"
               style="fill:#1a1a1a;fill-opacity:1;fill-rule:evenodd;stroke:none;stroke-width:1px;stroke-linecap:butt;stroke-linejoin:miter;stroke-opacity:1" />
            <path
               id="path3275"
               d="M 241.88229,-5.8463275 C 241.8712,-6.4963945 242.13509,-7.3986685 242.53334,-7.9296615 C 243.03086,-8.5930305 243.43543,-8.9526075 243.70521,-9.4921615 C 243.92667,-9.9350775 244.98821,-10.203534 245.26771,-10.273411 C 246.05951,-10.47136 245.94677,-10.868429 245.65834,-11.445286 C 245.46305,-11.835868 244.64342,-12.069574 244.35625,-12.356744 C 243.9722,-12.740798 243.44592,-11.608892 243.05417,-11.315077 C 242.5425,-10.931323 242.01184,-9.8801365 241.88229,-9.3619525 C 241.74301,-8.8048005 241.75209,-8.1307505 241.75209,-7.4088275 C 241.75209,-6.8524535 241.77069,-6.4043315 241.88229,-5.8463275 z"
               style="fill:#1a1a1a;fill-opacity:1;fill-rule:evenodd;stroke:none;stroke-width:1px;stroke-linecap:butt;stroke-linejoin:miter;stroke-opacity:1" />
            <path
               id="path3277"
               d="M 243.44479,-4.6744525 C 243.98288,-4.6230255 244.70424,-5.6729075 245.39792,-5.8463275 C 245.84937,-5.9591915 246.19299,-6.6961365 246.96042,-6.8879945 C 247.67877,-7.0675825 247.7474,-7.7994525 248.78334,-7.7994525 C 248.92072,-7.7994525 248.0117,-9.0453105 247.87188,-9.2317445 C 247.35601,-9.9195735 247.41542,-9.9149725 246.56979,-9.4921615 C 246.08574,-9.2501335 245.57483,-8.1399745 245.00729,-7.7994525 C 244.59881,-7.5543625 244.24945,-6.2603535 243.96563,-5.9765365 C 243.58415,-5.5950625 243.55389,-5.2199305 243.44479,-4.6744525 z"
               style="fill:#1a1a1a;fill-opacity:1;fill-rule:evenodd;stroke:none;stroke-width:1px;stroke-linecap:butt;stroke-linejoin:miter;stroke-opacity:1" />
            <path
               id="path3279"
               d="M 244.61667,-1.6796615 C 245.00129,-2.0481565 246.41369,-2.2591255 247.22084,-2.4609115 C 247.99192,-2.6536825 248.15832,-3.1835625 248.91355,-3.3723695 C 249.47263,-3.5121405 249.94388,-3.7629945 250.73646,-3.7629945 C 251.39898,-3.7629945 250.16326,-4.9872345 249.69479,-5.4557025 C 248.9344,-6.2160995 249.61296,-6.5457455 248.52292,-5.4557025 C 248.00831,-4.9410925 246.87006,-4.3788185 246.04896,-3.7629945 C 245.2673,-3.1767495 244.84127,-3.4895355 244.61667,-2.5911195 C 244.54298,-2.2963715 244.61667,-1.9834805 244.61667,-1.6796615 z"
               style="fill:#1a1a1a;fill-opacity:1;fill-rule:evenodd;stroke:none;stroke-width:1px;stroke-linecap:butt;stroke-linejoin:miter;stroke-opacity:1" />
            <path
               id="path3281"
               d="M 244.61667,1.9661725 C 245.28474,2.1112825 246.34062,1.7057555 247.35105,1.7057555 C 248.13575,1.7057555 248.72795,1.6683445 249.17396,1.4453385 C 249.54642,1.2591105 250.66085,1.3151305 250.99688,1.3151305 C 251.88363,1.3151305 250.63039,-0.041571462 250.47605,-0.24736946 C 250.18489,-0.63557546 250.33332,-1.2088915 250.21563,-1.6796615 C 250.03667,-2.3954785 248.92245,-0.96796946 248.2625,-0.63799446 C 247.57168,-0.29258046 246.6622,-0.042606462 245.91875,0.14325554 C 245.48588,0.25147254 244.72539,1.6943825 244.61667,1.9661725 z"
               style="fill:#1a1a1a;fill-opacity:1;fill-rule:evenodd;stroke:none;stroke-width:1px;stroke-linecap:butt;stroke-linejoin:miter;stroke-opacity:1" />
            <path
               id="path3283"
               d="M 244.61667,4.7005475 C 245.42338,4.6928905 247.01001,4.4773195 248.00209,5.2213805 C 248.72906,5.7666145 248.89402,5.8626595 249.69479,6.2630475 C 250.51988,6.6755895 250.73646,7.1408665 250.73646,5.8724225 C 250.73646,5.3445925 251.22905,4.8135305 251.3875,4.1797135 C 251.64389,3.1541635 250.83061,3.3984635 250.08542,3.3984635 C 248.9384,3.3984635 248.00509,3.3969645 246.96042,3.9192975 C 246.01869,4.3901645 245.56354,3.9430545 244.61667,4.7005475 z"
               style="fill:#1a1a1a;fill-opacity:1;fill-rule:evenodd;stroke:none;stroke-width:1px;stroke-linecap:butt;stroke-linejoin:miter;stroke-opacity:1" />
            <path
               id="path3285"
               d="M 243.575,7.3047135 C 244.28938,8.0097185 245.86433,9.0320055 246.96042,9.9088805 C 247.72069,10.517094 247.68019,10.834817 247.87188,11.601589 C 248.07161,12.400514 249.22771,11.233685 249.30417,11.080756 C 249.73473,10.21963 250.52177,10.246824 250.73646,9.3880475 C 251.01839,8.2603335 249.71499,8.8191705 248.65313,8.6067975 C 247.70092,8.4163565 246.79593,8.3052585 245.91875,8.0859635 C 245.26997,7.9237675 245.37685,7.4349225 244.35625,7.4349225 C 244.09224,7.4349225 243.83542,7.3481165 243.575,7.3047135 z"
               style="fill:#1a1a1a;fill-opacity:1;fill-rule:evenodd;stroke:none;stroke-width:1px;stroke-linecap:butt;stroke-linejoin:miter;stroke-opacity:1" />
            <path
               id="path3287"
               d="M 240.45,8.8672135 C 241.27231,9.1551285 241.81448,10.833233 242.53334,11.731798 C 242.90512,12.196523 243.11487,13.094585 243.575,13.554714 C 243.98733,13.967041 243.94393,14.835096 244.35625,15.247423 C 244.81342,15.704585 245.88124,15.191696 246.17917,15.117214 C 246.24275,15.101319 247.31307,13.605342 247.35105,13.554714 C 247.51586,13.334963 246.33154,12.144582 246.17917,11.992214 C 245.63619,11.449234 245.10843,11.391739 244.48646,11.080756 C 243.63383,10.65444 242.92617,10.300609 241.88229,9.7786725 C 240.97763,9.3263375 240.71255,10.179944 240.45,8.8672135 z"
               style="fill:#1a1a1a;fill-opacity:1;fill-rule:evenodd;stroke:none;stroke-width:1px;stroke-linecap:butt;stroke-linejoin:miter;stroke-opacity:1" />
            <path
               id="path3289"
               d="M 239.14792,9.2578385 C 239.13079,10.02446 239.42827,11.100688 240.05938,11.731798 C 240.4857,12.158115 240.45,13.180872 240.45,13.815131 C 240.45,14.645264 241.57594,15.701249 242.0125,16.028673 C 242.98211,16.755874 241.28477,17.085678 240.71042,17.200548 C 239.85097,17.372438 239.23769,17.160114 238.8875,16.809923 C 238.29887,16.221291 238.36667,14.236444 238.36667,13.424506 C 238.36667,12.594732 238.31006,11.697803 238.49688,10.950548 C 238.6432,10.365248 238.87222,9.9470935 239.14792,9.2578385 z"
               style="fill:#1a1a1a;fill-opacity:1;fill-rule:evenodd;stroke:none;stroke-width:1px;stroke-linecap:butt;stroke-linejoin:miter;stroke-opacity:1" />
            <path
               id="path3291"
               d="M 234.06979,8.8672135 C 234.18824,9.5936735 233.80938,11.131505 233.80938,12.252631 C 233.80938,13.065218 233.67917,13.496709 233.67917,14.335964 C 233.67917,15.134352 233.21732,15.436614 234.06979,16.289089 C 234.77271,16.992 234.98814,17.28005 235.89271,17.460964 C 236.96226,17.674874 236.94069,17.076647 236.41355,16.549506 C 235.97834,16.114304 235.89536,14.609603 235.7625,13.945339 C 235.6066,13.165848 235.66095,12.421052 235.24167,11.862006 C 234.87006,11.36652 234.85362,10.3098 234.72084,9.7786725 C 234.65143,9.5010415 234.12125,8.9315285 234.06979,8.8672135 z"
               style="fill:#1a1a1a;fill-opacity:1;fill-rule:evenodd;stroke:none;stroke-width:1px;stroke-linecap:butt;stroke-linejoin:miter;stroke-opacity:1" />
            <path
               sodipodi:nodetypes="ccccccccccccccccccccccccccccccccccc"
               id="path3294"
               d="M 237.4306,-9.7392675 L 236.07498,-7.9963265 L 233.17008,-7.9963265 L 233.17008,-5.8660655 L 230.9139,-5.4843205 L 230.97207,-2.8352475 L 228.87768,-1.6111195 L 229.9456,1.1997405 L 229.10322,3.2359585 L 230.65807,4.6123015 L 229.98705,6.6277975 L 232.42731,7.7993295 L 232.99714,10.553597 L 234.91302,9.5797205 L 236.67669,11.448578 L 238.3989,10.014063 L 240.14184,11.563343 L 241.51818,9.4219305 L 243.83253,9.7056365 L 244.07721,7.3442665 L 246.00424,6.9792485 L 245.77871,4.5294105 L 247.55352,3.3578785 L 245.90462,1.6149375 L 247.22437,0.091955538 L 245.56432,-1.3521315 L 246.54377,-3.2209895 L 244.63347,-4.0426505 L 245.1763,-6.1472975 L 243.13879,-5.9358085 L 242.58181,-8.0404555 L 240.92505,-7.3589635 L 240.6495,-9.5511825 L 239.0269,-8.1373905 L 237.4306,-9.7392675 z"
               style="fill:#ffffff;fill-opacity:1;fill-rule:evenodd;stroke:none;stroke-width:0.40000001;stroke-linecap:butt;stroke-linejoin:miter;stroke-miterlimit:4;stroke-dasharray:none;stroke-opacity:1" />
            <path
               id="path3296"
               d="M 234.46714,9.0824825 C 234.46714,8.9179665 234.46714,8.2964755 234.46714,7.9093715 C 234.46714,7.7292215 234.77275,6.9315775 234.83374,6.8095785 C 235.10275,6.2715675 235.24411,5.8936225 235.49362,5.2698695 C 235.81933,4.4556005 236.03046,4.3664285 235.4203,4.9765915 C 235.0639,5.3329875 234.83111,5.4689005 234.54046,5.8564265 C 234.19805,6.3129855 234.02478,6.1594795 233.88059,6.7362595 C 233.79479,7.0794725 233.39334,7.2661915 233.29404,7.7627315 C 233.19008,8.2825195 233.4635,8.4454385 233.73395,8.7158855 C 234.06499,9.0469255 233.88313,9.3160865 234.46714,9.0824825 z"
               style="fill:#999999;fill-rule:evenodd;stroke:none;stroke-width:1px;stroke-linecap:butt;stroke-linejoin:miter;stroke-opacity:1" />
            <path
               sodipodi:nodetypes="cccc"
               id="path3298"
               d="M 234.98038,4.1700785 C 234.17654,4.9264975 233.01759,5.6502785 232.34088,6.8095785 C 231.9593,6.1864045 231.69212,5.7201095 231.60768,4.9765915 C 231.94777,4.0818595 234.17152,3.6782005 234.98038,4.1700785 z"
               style="fill:#999999;fill-opacity:1;fill-rule:evenodd;stroke:none;stroke-width:1px;stroke-linecap:butt;stroke-linejoin:miter;stroke-opacity:1" />
            <path
               id="path3300"
               d="M 234.17387,2.1171325 C 233.89064,2.1659575 233.13473,2.4932295 232.85412,2.7036875 C 232.54806,2.9332335 232.07714,2.9162615 231.75432,2.9969655 C 231.56109,3.0452745 230.89996,3.7780105 230.80118,3.8768005 C 230.65005,4.0279135 230.50789,3.0522015 230.50789,2.8503275 C 230.50789,2.4795595 230.51632,2.0100785 230.58121,1.7505345 C 230.61973,1.5964865 231.2346,1.3871825 231.38773,1.3106175 C 231.63835,1.1853075 232.26806,1.3106175 232.56084,1.3106175 C 232.97008,1.3106175 233.46819,1.3949465 233.80727,1.5305765 C 234.0916,1.6443075 234.32327,2.0673315 234.61379,1.9704935 C 234.76043,1.9216135 234.32051,2.0682525 234.17387,2.1171325 z"
               style="fill:#999999;fill-opacity:1;fill-rule:evenodd;stroke:none;stroke-width:1px;stroke-linecap:butt;stroke-linejoin:miter;stroke-opacity:1" />
            <path
               id="path3302"
               d="M 234.68711,-0.96228546 C 234.32171,-0.88748446 233.73363,-0.99181146 233.29404,-1.2555645 C 232.97048,-1.4496945 232.41274,-1.5862305 232.19424,-1.6954805 C 231.90826,-1.8384705 231.41373,-1.8369195 231.02113,-1.9154395 C 230.60393,-1.9988795 230.64383,-1.2753675 230.58121,-0.96228546 C 230.53808,-0.74659846 230.48284,-0.49914746 230.58121,-0.30241046 C 230.63679,-0.19126746 231.36237,-1.0102515 231.38773,-1.0356055 C 231.55974,-1.2076155 232.23157,-1.1089245 232.48752,-1.1089245 C 232.82161,-1.1089245 233.37143,-0.78468746 233.66063,-0.66900846 C 234.15573,-0.47096546 234.79582,-0.30999346 234.68711,-0.96228546 z"
               style="fill:#999999;fill-opacity:1;fill-rule:evenodd;stroke:none;stroke-width:1px;stroke-linecap:butt;stroke-linejoin:miter;stroke-opacity:1" />
            <path
               sodipodi:nodetypes="ccssscc"
               id="path3304"
               d="M 235.34698,-2.5019945 C 234.61778,-3.4220175 234.32141,-3.3710295 233.36736,-4.3349825 C 233.15998,-4.7613195 232.52034,-4.8216825 232.12093,-4.9215375 C 231.95407,-4.9632515 231.89421,-4.3079775 231.82764,-4.0417045 C 231.76838,-3.8046035 231.82764,-3.5529075 231.82764,-3.3085095 C 231.82764,-2.9291015 232.57517,-3.6693755 232.92743,-3.5284675 C 233.7172,-3.1211705 234.56155,-2.6178765 235.34698,-2.5019945 z"
               style="fill:#999999;fill-opacity:1;fill-rule:evenodd;stroke:none;stroke-width:1px;stroke-linecap:butt;stroke-linejoin:miter;stroke-opacity:1" />
            <path
               id="path3306"
               d="M 236.88669,-3.5284675 C 236.87891,-3.8971035 236.53014,-4.5348485 236.30013,-4.9948575 C 236.10674,-5.3816485 235.94886,-5.6240755 235.71358,-6.0946495 C 235.53487,-6.4520785 235.50566,-6.9996575 235.4203,-7.3410805 C 235.2879,-7.8706615 235.14283,-7.4079245 234.76043,-7.1211225 C 234.43639,-6.8780935 234.11119,-6.8384875 234.02723,-6.7545245 C 234.0131,-6.7403965 234.52636,-5.9912645 234.61379,-5.8746915 C 234.96325,-5.4087425 235.24246,-5.1690495 235.56694,-4.6282605 C 235.75621,-4.3128125 236.13526,-4.2981255 236.30013,-3.9683845 C 236.36873,-3.8312095 236.74074,-3.6160345 236.88669,-3.5284675 z"
               style="fill:#999999;fill-opacity:1;fill-rule:evenodd;stroke:none;stroke-width:1px;stroke-linecap:butt;stroke-linejoin:miter;stroke-opacity:1" />
            <path
               id="path3308"
               d="M 239.52619,-3.3818285 C 239.52619,-3.5913025 239.52619,-4.2657865 239.52619,-4.7015795 C 239.52619,-5.1912825 239.56261,-5.6537685 239.67282,-6.0946495 C 239.78645,-6.5491455 240.00818,-6.8915405 240.11275,-7.4144005 C 240.18474,-7.7743415 239.61438,-7.3118565 239.37955,-7.1944425 C 239.07232,-7.0408265 239.1596,-6.6944565 239.1596,-6.3146085 C 239.1596,-5.9235705 239.1596,-5.5325335 239.1596,-5.1414965 C 239.1596,-4.6765455 239.26796,-4.3414515 239.37955,-3.8950655 C 239.6126,-2.9628785 239.52619,-5.0534705 239.52619,-3.3818285 z"
               style="fill:#999999;fill-opacity:1;fill-rule:evenodd;stroke:none;stroke-width:1px;stroke-linecap:butt;stroke-linejoin:miter;stroke-opacity:1" />
            <path
               id="path3324"
               d="M 239.01295,5.3431895 C 239.00331,5.7748685 239.17082,6.3808855 239.52619,6.7362595 C 239.76625,6.9763165 239.74615,7.5522245 239.74615,7.9093715 C 239.74615,8.3768135 240.38016,8.9714325 240.62598,9.1558025 C 241.17196,9.5652845 240.2162,9.7509955 239.89279,9.8156785 C 239.40883,9.9124685 239.0635,9.7929095 238.86632,9.5957195 C 238.53486,9.2642645 238.57304,8.1466105 238.57304,7.6894125 C 238.57304,7.2221725 238.54116,6.7171175 238.64636,6.2963425 C 238.72875,5.9667645 238.85771,5.7313035 239.01295,5.3431895 z"
               style="fill:#999999;fill-opacity:1;fill-rule:evenodd;stroke:none;stroke-width:1px;stroke-linecap:butt;stroke-linejoin:miter;stroke-opacity:1" />
            <path
               id="path3326"
               d="M 236.15349,5.1232305 C 236.22019,5.5322955 236.00686,6.3982385 236.00686,7.0295375 C 236.00686,7.4870995 235.93354,7.7300695 235.93354,8.2026485 C 235.93354,8.6522155 235.67347,8.8224175 236.15349,9.3024415 C 236.5493,9.6982455 236.67061,9.8604455 237.17997,9.9623165 C 237.78222,10.082769 237.77008,9.7459105 237.47324,9.4490795 C 237.22818,9.2040205 237.18146,8.3567335 237.10664,7.9826905 C 237.01886,7.5437635 237.04946,7.1243735 236.81337,6.8095785 C 236.60412,6.5305735 236.59486,5.9355415 236.52009,5.6364675 C 236.48101,5.4801345 236.18247,5.1594465 236.15349,5.1232305 z"
               style="fill:#999999;fill-opacity:1;fill-rule:evenodd;stroke:none;stroke-width:1px;stroke-linecap:butt;stroke-linejoin:miter;stroke-opacity:1" />
            <path
               style="fill:#999999;fill-opacity:1;fill-rule:evenodd;stroke:none;stroke-width:1px;stroke-linecap:butt;stroke-linejoin:miter;stroke-opacity:1"
               d="M 346.4754,48.324041 C 346.33802,48.536443 345.78272,48.942339 345.56887,49.049265 C 345.23242,49.217492 345.13824,49.643502 344.78321,49.170135 C 344.53635,48.840982 344.38088,48.346441 344.29973,48.021865 C 344.19044,47.58469 343.87831,47.118589 343.63494,46.631854 C 343.32349,46.008938 342.8309,45.600084 342.42624,45.060537 C 342.1666,44.714356 343.38926,45.662526 343.69538,45.846195 C 344.21705,46.159198 344.89732,46.340809 345.20626,46.752724 C 345.4201,47.037842 345.89857,47.373629 346.11279,47.659253 C 346.32624,47.943848 346.06446,47.913104 346.4754,48.324041 z"
               id="path3426"
               transform="translate(-103.11974,-40.777404)" />
            <path
               style="fill:#999999;fill-opacity:1;fill-rule:evenodd;stroke:none;stroke-width:1px;stroke-linecap:butt;stroke-linejoin:miter;stroke-opacity:1"
               d="M 348.46977,45.604454 C 348.22437,45.749107 348.07303,46.424237 347.86541,46.631854 C 347.58325,46.914018 347.64787,47.16367 347.26106,47.357077 C 346.92701,47.524104 346.72919,47.018559 346.59627,46.752724 C 346.4799,46.519981 345.91941,46.172551 345.62931,46.027501 C 345.03404,45.729865 344.74613,45.809109 344.2393,45.302278 C 343.98229,45.045268 343.83198,44.894963 343.57451,44.63749 C 343.33567,44.398648 343.01704,44.080025 342.97016,44.033137 C 342.94419,44.007175 343.92364,44.214443 344.90408,44.214443 C 345.63996,44.214443 346.46464,44.571674 347.07975,44.879231 C 347.39375,45.036227 347.79572,44.995474 348.04672,45.120972 C 348.08443,45.139829 348.40304,45.564416 348.46977,45.604454 z"
               id="path3428"
               transform="translate(-103.11974,-40.777404)" />
            <path
               style="fill:#999999;fill-opacity:1;fill-rule:evenodd;stroke:none;stroke-width:1px;stroke-linecap:butt;stroke-linejoin:miter;stroke-opacity:1"
               d="M 348.71151,42.46182 C 348.73003,42.649221 348.60764,43.17948 348.5302,43.48922 C 348.46164,43.763473 348.40933,43.908504 348.40933,44.274878 C 348.40933,44.536197 348.05097,44.109744 347.74454,44.033137 C 347.29315,43.920289 346.87731,43.855463 346.41497,43.670526 C 345.77511,43.414585 345.53609,43.126608 344.84365,43.126608 C 344.37175,43.126608 343.87892,43.066173 343.3932,43.066173 C 343.3838,43.066173 343.87774,42.280514 344.72278,42.280514 C 345.10554,42.280514 345.48829,42.280514 345.87105,42.280514 C 346.27395,42.280514 346.67685,42.280514 347.07975,42.280514 C 347.46251,42.280514 347.84527,42.280514 348.22802,42.280514 C 348.48543,42.280514 348.39896,42.274289 348.71151,42.46182 z"
               id="path3430"
               transform="translate(-103.11974,-40.777404)" />
            <path
               style="fill:#999999;fill-opacity:1;fill-rule:evenodd;stroke:none;stroke-width:1px;stroke-linecap:butt;stroke-linejoin:miter;stroke-opacity:1"
               d="M 348.5302,40.04441 C 348.5302,40.214801 348.5302,40.772596 348.5302,41.132244 C 348.5302,41.707888 348.58881,41.736597 347.98628,41.736597 C 347.42052,41.736597 346.9069,41.373985 346.2941,41.373985 C 345.66598,41.373985 345.16958,41.655113 344.60191,41.797032 C 344.26342,41.881655 343.79657,42.440742 344.11843,41.797032 C 344.32636,41.38116 344.88863,41.208133 345.20626,40.890503 C 345.48528,40.611487 346.0971,40.407021 346.4754,40.407021 C 346.98078,40.407021 347.30625,40.04441 347.80498,40.04441 C 348.04672,40.04441 348.28846,40.04441 348.5302,40.04441 z"
               id="path3432"
               transform="translate(-103.11974,-40.777404)" />
            <path
               style="fill:#999999;fill-opacity:1;fill-rule:evenodd;stroke:none;stroke-width:1px;stroke-linecap:butt;stroke-linejoin:miter;stroke-opacity:1"
               d="M 347.38193,37.324822 C 347.35306,37.530373 347.79368,38.065284 347.86541,38.352222 C 347.94441,38.66821 348.05385,38.970847 348.16759,39.198316 C 348.35311,39.569366 347.18105,39.429843 346.89845,39.500492 C 346.51585,39.596143 345.97374,40.079173 345.38757,40.225715 C 344.97783,40.32815 344.05799,40.235961 344.05799,40.709197 C 344.05799,40.851645 343.99628,40.359439 344.11843,40.286151 C 344.37434,40.132605 345.12146,39.307491 345.2667,39.01701 C 345.43431,38.681792 345.85345,38.309386 346.11279,38.050046 C 346.43476,37.728077 346.66602,37.592124 347.07975,37.385258 C 347.17163,37.33932 347.28121,37.344967 347.38193,37.324822 z"
               id="path3434"
               transform="translate(-103.11974,-40.777404)" />
            <path
               style="fill:#999999;fill-opacity:1;fill-rule:evenodd;stroke:none;stroke-width:1px;stroke-linecap:butt;stroke-linejoin:miter;stroke-opacity:1"
               d="M 345.93148,35.330458 C 346.06562,35.62037 346.60181,35.654799 346.71714,36.116117 C 346.81274,36.498497 347.30262,36.397512 346.65671,36.72047 C 346.0326,37.032523 345.59335,37.226921 345.448,37.808305 C 345.35269,38.189573 345.06229,38.263326 344.96452,38.654398 C 344.88852,38.958386 344.43634,39.028183 344.2393,39.077445 C 343.89812,39.162739 343.58344,39.448294 343.45364,39.621363 C 343.2379,39.909007 343.808,38.703893 343.87669,38.291787 C 343.89357,38.190464 343.91698,38.090336 343.93712,37.98961 C 344.02523,37.549071 344.21936,37.049226 344.4206,36.780905 C 344.69964,36.408852 344.69279,36.085671 345.02496,35.753505 C 345.09815,35.680308 345.82181,35.403575 345.93148,35.330458 z"
               id="path3436"
               transform="translate(-103.11974,-40.777404)" />
            <path
               style="fill:#999999;fill-opacity:1;fill-rule:evenodd;stroke:none;stroke-width:1px;stroke-linecap:butt;stroke-linejoin:miter;stroke-opacity:1"
               d="M 343.99756,34.000883 C 344.36195,33.894299 344.91655,34.33951 345.32713,34.5448 C 345.79024,34.776352 345.62505,34.728233 345.14583,34.967847 C 344.74368,35.168918 344.18358,35.565907 343.99756,35.813941 C 343.79145,36.088748 343.8469,36.476998 343.75581,36.84134 C 343.64537,37.283131 343.72123,37.799916 343.63494,38.231351 C 343.55929,38.609646 343.44059,38.727882 343.2119,38.956575 C 342.91203,39.256444 343.03059,39.23903 343.03059,38.654398 C 343.03059,38.149604 343.15146,37.749864 343.15146,37.264387 C 343.15146,36.858655 343.1199,36.423672 343.2119,36.055682 C 343.31967,35.62461 343.49328,35.31162 343.63494,35.028282 C 343.83031,34.637556 343.82864,34.423181 343.99756,34.000883 z"
               id="path3438"
               transform="translate(-103.11974,-40.777404)" />
          </g>
          <path
             style="fill:url(#linearGradient3609);fill-opacity:1;fill-rule:evenodd;stroke:none;stroke-width:1px;stroke-linecap:butt;stroke-linejoin:miter;stroke-opacity:1"
             d="M 342.12185,72.972956 L 342.12185,34.919307 L 340.04782,32.366644 L 338.61195,35.078848 L 338.61195,72.972956 C 338.61195,74.492423 342.12185,74.087241 342.12185,72.972956 z"
             id="path3422"
             sodipodi:nodetypes="ccccss" />
          <path
             style="fill:url(#linearGradient3604);fill-opacity:1;fill-rule:evenodd;stroke:url(#radialGradient3606);stroke-width:0.60000002;stroke-linecap:butt;stroke-linejoin:miter;stroke-miterlimit:4;stroke-dasharray:none;stroke-opacity:1"
             d="M 339.6702,36.576723 C 338.38287,36.7785 337.61619,35.384348 336.5776,33.999559 C 335.89468,33.088997 335.06766,31.495117 334.51587,30.39153 C 333.93976,29.239306 332.97486,27.561935 332.19642,26.7835 C 331.26914,25.856215 331.756,24.004873 330.65013,23.175471 C 329.59091,22.381059 329.20279,21.311662 328.58839,20.082874 C 327.92407,18.754225 328.31293,16.697056 327.81525,15.701696 C 327.01706,14.105318 326.45577,13.871834 326.01123,12.093666 C 325.65279,10.659899 326.28726,9.1488867 326.52666,7.7124883 C 326.75214,6.3596026 328.11054,4.5447447 328.58839,3.5890261 C 329.25651,2.252798 330.37752,1.542182 331.42327,0.49643 C 332.48092,-0.561217 332.81781,-0.625353 334.51587,-1.049869 C 335.80704,-1.372662 337.11157,-1.247791 338.38162,-1.565302 C 339.50543,-1.846255 341.08211,-1.565302 342.24736,-1.565302 C 343.83232,-1.565302 345.00746,-1.39071 346.37083,-1.049869 C 347.79779,-0.693128 348.90497,0.474922 349.97885,1.011862 C 351.29185,1.668359 352.06977,3.1222327 352.81373,4.3621753 C 353.24973,5.088828 352.81373,7.5912822 352.81373,8.4856375 C 352.81373,10.686629 352.5392,12.676386 352.04059,14.67083 C 351.61465,16.374588 351.41314,17.953754 351.00972,19.567442 C 350.77257,20.516023 349.85045,21.627343 349.46342,23.175471 C 348.97365,25.134577 349.79518,25.310528 348.17484,26.525784 C 346.67873,27.647869 345.86277,30.37677 345.08224,31.937828 C 344.61594,32.870437 344.02541,34.309216 343.27823,35.803574 C 342.89072,36.5786 340.3458,36.576723 339.6702,36.576723 z"
             id="path3444" />
          <path
             style="fill:none;fill-rule:evenodd;stroke:url(#radialGradient3601);stroke-width:1px;stroke-linecap:butt;stroke-linejoin:miter;stroke-opacity:1"
             d="M 328.51804,3.2807012 C 329.90705,3.5497002 330.98083,5.4996468 331.563,6.6639971 C 331.97187,7.4817254 335.81288,7.0023267 336.63795,7.0023267 C 338.38952,7.0023267 339.87312,7.3406563 341.71289,7.3406563 C 343.15367,7.3406563 343.73755,6.3256675 345.77284,6.3256675 C 348.34167,6.3256675 348.70357,5.4249209 350.17113,3.9573604 C 350.84296,3.2855272 350.72459,3.2194133 351.18612,2.6040421"
             id="path3466" />
          <path
             style="fill:#949694;fill-opacity:1;fill-rule:evenodd;stroke:none;stroke-width:1px;stroke-linecap:butt;stroke-linejoin:miter;stroke-opacity:1"
             d="M 345.04065,31.884 C 344.30492,33.320898 343.77673,33.834159 343.25572,35.453859 C 342.97178,36.021734 341.87127,36.277673 341.05888,36.277673 C 340.37237,36.277673 339.68586,36.277673 338.99935,36.277673 C 343.87618,34.559562 339.53395,31.070331 343.66763,30.648279 C 344.58186,30.648279 345.36028,31.084911 345.04065,31.884 z"
             id="path3486"
             sodipodi:nodetypes="ccsccc" />
          <path
             style="fill:url(#linearGradient3597);fill-opacity:1;fill-rule:evenodd;stroke:none;stroke-width:1px;stroke-linecap:butt;stroke-linejoin:miter;stroke-opacity:1"
             d="M 348.26533,10.578175 C 348.21068,11.267823 347.85342,11.762623 347.85342,12.775012 C 347.85342,13.457379 347.27923,14.166767 346.755,14.559942 C 346.04055,15.095778 343.96144,14.697244 343.04784,14.697244 C 342.26301,14.697244 341.68943,14.357641 340.851,14.148035 C 340.1292,13.967585 339.88989,15.030773 339.88989,15.65836 C 339.88989,16.479104 339.75112,17.573249 339.88989,18.267103 C 339.89048,18.270085 340.851,17.798808 340.851,19.640126 C 340.851,20.330734 338.78833,21.013149 338.24226,21.013149 C 336.86642,21.013149 339.21375,21.425056 339.75258,21.425056 C 340.74743,21.425056 342.0808,21.732506 343.04784,21.974265 C 344.40243,22.312912 345.9008,22.470018 347.16691,21.836963 C 348.00325,21.418791 348.68846,21.677198 349.08914,20.875847 C 349.4268,20.200518 349.35155,19.289192 349.50105,18.541708 C 349.7046,17.523928 350.79005,17.092873 351.01137,16.207569 C 351.17951,15.535034 350.32486,14.878584 350.32486,14.010733 C 350.32486,13.035888 350.23205,12.589389 349.91295,11.951198 C 349.48562,11.096541 349.26453,11.177696 348.26533,10.578175 z"
             id="path3490" />
          <path
             style="fill:#949694;fill-opacity:1;fill-rule:evenodd;stroke:none;stroke-width:1px;stroke-linecap:butt;stroke-linejoin:miter;stroke-opacity:1"
             d="M 339.92159,7.2399177 C 339.3557,8.5342367 340.34438,10.696262 340.79928,12.515888 C 341.51959,15.397107 341.13761,11.847282 341.13761,10.485911 C 341.13761,10.025117 344.34265,8.8833944 344.52091,8.7942634 C 346.00834,8.0505484 347.19606,7.6258504 348.24253,7.1026154 C 349.84399,6.3018884 349.28062,9.9016464 349.59585,11.16257 C 350.08114,13.103739 350.33918,14.212513 349.93418,16.237514 C 349.6839,17.488947 346.88129,18.613747 346.21256,19.28248 C 345.08479,20.410245 346.88922,22.424193 346.88922,24.019094 C 346.88922,25.893255 345.65132,25.925718 345.19757,27.74072 C 344.45994,30.69124 345.4804,28.811206 346.55089,27.74072 C 347.81621,26.475395 349.19379,26.457039 349.19379,24.082819 C 349.19379,22.315069 348.85795,20.88077 349.25752,19.28248 C 349.65933,17.675245 351.06331,16.628819 351.62583,15.222525 C 352.20025,13.786479 352.41041,11.961719 352.97915,10.82424 C 353.5123,9.7579384 352.97915,6.9728804 352.97915,5.7492974 C 352.14901,3.1702046 353.17455,2.8389565 348.91919,-0.002307 C 347.5972,0.328193 350.61084,2.3566354 350.61084,3.7193194 C 349.35994,5.7630018 347.59859,6.9038802 345.3007,6.3963991 C 344.71394,6.3963991 342.99999,7.8946046 339.92159,7.2399177 z"
             id="path3478"
             sodipodi:nodetypes="cssssssssssssssccccc" />
        </g>
      </g>
      <g
         id="g2649">
        <path
           sodipodi:nodetypes="cccccccscscc"
           id="path3233"
           d="M 3.6496116,92.472929 C 5.4080216,93.909308 7.9563116,96.180646 4.8835616,98.13941 C 2.9238016,105.01045 17.012562,103.97385 20.890992,100.84731 C 22.062922,99.67538 18.293802,98.3217 13.258922,97.76971 C 14.226092,97.046583 20.061742,98.62217 22.001062,100.72635 C 27.871102,105.23669 37.821632,104.90539 41.581612,97.89262 C 39.210492,90.547845 26.864792,86.228007 19.659942,88.162341 C 12.906842,90.096435 19.263992,90.667948 23.107252,90.871214 C 27.673752,91.112732 24.325832,90.995096 21.383602,90.995096 C 14.007492,91.038359 7.1143016,82.705071 1.5582016,89.517264 C -0.078678388,91.524201 -0.34943838,96.81091 5.3713116,96.906426 C 7.3517416,96.411319 3.9589316,92.885358 3.6496116,92.472929 z"
           style="fill:#ffffff;fill-rule:evenodd;stroke:#000000;stroke-width:0.30000001;stroke-linecap:butt;stroke-linejoin:miter;stroke-miterlimit:4;stroke-dasharray:none;stroke-opacity:1" />
        <path
           sodipodi:nodetypes="ccssccssscc"
           id="path3235"
           d="M 48.919632,97.175572 C 51.645142,97.343757 56.242062,98.63005 57.523312,100.12541 C 55.500722,102.93983 47.335212,104.01164 43.757412,102.46069 C 39.485232,100.60874 35.768372,95.700848 35.399552,91.398812 C 34.705862,83.307455 46.272292,89.094015 51.377822,89.800985 C 54.468512,90.287937 59.078972,93.215636 60.104422,91.521722 C 59.080062,92.292243 55.208742,91.522901 52.238192,89.555165 C 50.275662,88.255152 55.785122,85.190509 63.545892,87.834428 C 69.446522,89.844636 75.566532,98.63139 72.764132,101.47741 C 68.662302,105.64309 61.887592,102.51489 58.137862,99.87959 C 55.390292,97.91388 52.125522,97.68132 48.919632,97.175572 z"
           style="fill:#0060aa;fill-opacity:1;fill-rule:evenodd;stroke:#000000;stroke-width:0.30000000999999998;stroke-linecap:butt;stroke-linejoin:miter;stroke-miterlimit:4;stroke-dasharray:none;stroke-opacity:1" />
        <path
           sodipodi:nodetypes="ccssccssscc"
           id="path3237"
           d="M 80.830162,97.298482 C 83.555672,97.466667 88.152602,98.75296 89.433852,100.24832 C 87.411252,103.06274 79.245742,104.13455 75.667952,102.5836 C 71.395762,100.73165 67.678902,95.823758 67.310082,91.521722 C 66.616392,83.430365 78.182832,89.216925 83.288362,89.923895 C 86.379042,90.410847 90.989502,93.338546 92.014952,91.644632 C 90.990592,92.415153 87.119272,91.645811 84.148722,89.678075 C 82.186192,88.378062 87.695652,85.313419 95.456422,87.957338 C 101.35705,89.967546 107.47706,98.7543 104.67466,101.60032 C 100.57283,105.766 93.798132,102.6378 90.048392,100.0025 C 87.300822,98.03679 84.036062,97.80423 80.830162,97.298482 z"
           style="fill:#ffffff;fill-rule:evenodd;stroke:#000000;stroke-width:0.30000001;stroke-linecap:butt;stroke-linejoin:miter;stroke-miterlimit:4;stroke-dasharray:none;stroke-opacity:1" />
        <path
           sodipodi:nodetypes="ccssccssscc"
           id="path3239"
           d="M 113.53418,97.175572 C 116.25969,97.343757 120.85661,98.63005 122.13786,100.12541 C 120.11527,102.93983 111.94976,104.01164 108.37196,102.46069 C 104.09978,100.60874 100.38292,95.700848 100.0141,91.398812 C 99.320412,83.307455 110.88684,89.094015 115.99237,89.800985 C 119.08306,90.287937 123.69352,93.215636 124.71897,91.521722 C 123.69461,92.292243 119.82329,91.522901 116.85274,89.555165 C 114.89021,88.255152 120.39967,85.190509 128.16044,87.834428 C 134.06107,89.844636 140.18108,98.63139 137.37868,101.47741 C 133.27685,105.64309 126.50214,102.51489 122.75241,99.87959 C 120.00484,97.91388 116.74007,97.68132 113.53418,97.175572 z"
           style="fill:#0060aa;fill-opacity:1;fill-rule:evenodd;stroke:#000000;stroke-width:0.30000000999999998;stroke-linecap:butt;stroke-linejoin:miter;stroke-miterlimit:4;stroke-dasharray:none;stroke-opacity:1" />
        <path
           sodipodi:nodetypes="ccssccssscc"
           id="path3241"
           d="M 146.83016,97.298482 C 149.55567,97.466667 154.1526,98.75296 155.43385,100.24832 C 153.41125,103.06274 145.24574,104.13455 141.66795,102.5836 C 137.39576,100.73165 133.6789,95.823758 133.31008,91.521722 C 132.61639,83.430365 144.18283,89.216925 149.28836,89.923895 C 152.37904,90.410847 156.9895,93.338546 158.01495,91.644632 C 156.99059,92.415153 153.11927,91.645811 150.14872,89.678075 C 148.18619,88.378062 153.69565,85.313419 161.45642,87.957338 C 167.35705,89.967546 173.47706,98.7543 170.67466,101.60032 C 166.57283,105.766 159.79813,102.6378 156.04839,100.0025 C 153.30082,98.03679 150.03606,97.80423 146.83016,97.298482 z"
           style="fill:#ffffff;fill-rule:evenodd;stroke:#000000;stroke-width:0.30000001;stroke-linecap:butt;stroke-linejoin:miter;stroke-miterlimit:4;stroke-dasharray:none;stroke-opacity:1" />
        <path
           sodipodi:nodetypes="ccssccssccc"
           id="path3404"
           d="M 178.40226,97.322762 C 181.12777,97.490942 185.72469,98.777232 187.00594,100.27259 C 184.98335,103.08701 176.81784,104.15882 173.24004,102.60787 C 168.96786,100.75592 165.251,95.848032 164.88218,91.546012 C 164.18849,83.454648 175.75492,89.241212 180.86045,89.948182 C 183.95114,90.435132 188.5616,93.362822 189.58705,91.668922 C 188.56269,92.439432 184.69137,91.670092 181.72082,89.702362 C 179.75829,88.402352 185.68844,84.328784 193.02852,87.981622 C 204.65777,93.769002 197.59933,94.874142 199.51661,97.677862 C 206.933,106.02714 192.18959,104.43252 187.62049,100.02677 C 184.87292,98.061062 181.60815,97.828502 178.40226,97.322762 z"
           style="fill:#0060aa;fill-opacity:1;fill-rule:evenodd;stroke:#000000;stroke-width:0.30000000999999998;stroke-linecap:butt;stroke-linejoin:miter;stroke-miterlimit:4;stroke-dasharray:none;stroke-opacity:1" />
      </g>
    </g>
  </g>
</svg>
