<?xml version="1.0" encoding="UTF-8" standalone="no"?>
<!-- Created with Inkscape (http://www.inkscape.org/) -->

<svg
   xmlns:svg="http://www.w3.org/2000/svg"
   xmlns="http://www.w3.org/2000/svg"
   version="1.1"
   width="1191"
   height="1191"
   id="svg2">
  <defs
     id="defs4" />
  <g
     id="layer3"
     style="display:inline">
    <rect
       width="1191"
       height="1191"
       x="0"
       y="0"
       id="rect3605"
       style="color:#000000;fill:#ffffff;fill-opacity:1;fill-rule:nonzero;stroke:none;stroke-width:148.80000305;marker:none;visibility:visible;display:inline;overflow:visible;enable-background:accumulate" />
    <path
       d="m 588.19877,1184.6434 c -3.1746,-1.5723 -5.772,-3.7393 -5.772,-4.8157 0,-1.0764 -1.20987,-1.957 -2.68858,-1.957 -1.47871,0 -9.00471,-4.0404 -16.72447,-8.9787 -7.71977,-4.9383 -14.46057,-8.9787 -14.97956,-8.9787 -0.8313,0 -50.81664,-32.9477 -64.37282,-42.4312 -13.03186,-9.1167 -56.57521,-40.8981 -57.72006,-42.1287 -0.70547,-0.7584 -7.63188,-6.5707 -15.39202,-12.9163 C 355.61014,1017.5122 300.54237,956.54305 271.72149,908.73171 255.70553,882.1626 235.61646,836.01087 229.19255,811.02766 212.77532,747.17935 213.0184,753.11787 213.0184,415.8853 c 0,-291.63899 0.19666,-304.57712 4.69133,-308.64475 2.58024,-2.33508 5.66394,-4.2456 6.85268,-4.2456 1.18874,0 4.291,-1.92731 6.89392,-4.282918 25.74877,-23.302318 123.0749,-67.110854 168.83159,-75.99465 3.52734,-0.684842 18.36042,-3.687609 32.96241,-6.672816 C 475.48584,7.4100067 497.30736,5.4327048 568.50938,3.7884112 652.75396,1.8429215 704.43199,5.3672518 763.28295,17.071553 837.67192,31.866057 892.27976,53.505114 949.99484,91.058527 l 27.66107,17.998203 -0.78723,324.69077 -0.78719,324.69077 -5.95464,25.65336 c -6.73141,28.99994 -25.083,80.06657 -35.29425,98.21276 -3.7439,6.65317 -9.32132,16.71429 -12.39426,22.35803 -3.07297,5.64374 -9.30168,15.45615 -13.84158,21.80535 -4.5399,6.34921 -11.2147,16.0341 -14.83285,21.52199 -20.24635,30.70884 -95.1205,102.72844 -147.98299,142.34114 -29.78999,22.3233 -99.65938,69.2174 -119.74344,80.3681 -6.34921,3.5251 -15.58442,8.8853 -20.52269,11.9116 -9.94501,6.0944 -9.2741,6.0157 -17.31602,2.0328 l 0,0 z"
       id="path3608"
       style="color:#000000;fill:#fac422;fill-opacity:1;fill-rule:nonzero;stroke:none;stroke-width:148.80000305;marker:none;visibility:visible;display:inline;overflow:visible;enable-background:accumulate" />
    <path
       d="m 775.97703,871.88543 c 20.47231,-10.2862 30.13277,-21.53862 39.48672,-36.94725 14.29345,-23.5454 18.67867,-42.56341 22.246,-79.58211 9.52874,-98.88025 -19.13871,-148.58438 -98.47682,-163.62897 l -17.15569,-3.3114 15.71269,-2.93194 c 20.82519,-3.55374 46.59501,-17.55657 60.51322,-33.17244 22.17964,-24.88501 32.20322,-55.60052 32.06815,-106.05596 -0.21933,-81.92887 -26.76414,-122.46333 -92.74171,-140.59564 -34.44459,-9.46624 -59.53362,-12.46002 -121.85346,-13.92191 -87.96182,-2.06337 -140.23924,2.82396 -179.57351,18.34965 -28.53164,11.26177 -39.46177,21.64197 -55.68676,50.52919 -10.60926,18.8889 -18.59979,60.02876 -18.66319,100.88404 l 0.27587,27.41703 57.72006,0 56.27706,-0.16033 0.003,-16.03335 c 0.005,-24.11693 5.08739,-57.85887 11.81404,-67.7183 11.6066,-17.01218 41.62791,-23.14701 111.31856,-22.90576 52.63233,0.1822 79.51262,3.65118 93.95754,13.86799 5.81396,4.11218 9.56146,9.16167 12.06895,15.24867 2.50961,6.09214 5.35285,18.16298 6.86788,31.69036 1.76836,15.78937 1.90148,33.62123 0.24847,47.13502 -3.74616,30.62598 -10.53518,39.28982 -28.32642,46.78134 -10.93552,4.60473 -70.36819,7.83711 -106.30111,7.86789 l -27.89707,-0.4585 0,44.89338 0.16033,43.77105 44.72266,0.32066 c 54.22953,0 78.80976,0.41818 97.67814,9.29068 11.29417,5.31086 17.39787,10.19167 22.5633,21.69997 4.98453,11.10524 6.82642,18.57454 7.59736,44.04543 0.99278,32.80141 -2.55521,53.93096 -10.87144,70.32671 -10.99224,21.6716 -38.78341,30.68702 -113.75031,29.64868 -64.95499,-0.89966 -91.56442,-2.62118 -111.01115,-18.38022 -7.75311,-6.28289 -14.57546,-20.94042 -17.1388,-47.91895 -2.56334,-26.97853 -2.04084,-49.8699 -2.04084,-49.8699 l -57.43347,0 -59.35748,0 c 0.55481,23.32672 0.0569,46.68539 2.18374,69.93562 3.03339,33.16012 11.61087,55.55049 23.70512,73.95574 19.09331,29.05653 49.89393,42.30935 82.1671,50.9895 19.55768,5.26021 42.74249,8.67425 69.50139,11.12323 12.526,1.14638 48.31657,1.73992 83.26653,0.95976 40.3643,-0.90101 75.03329,-2.49231 92.29864,-5.56351 17.26535,-3.0712 51.3844,-11.28896 71.85671,-21.57515 z"
       id="path3608-1"
       style="color:#000000;fill:#174cdd;fill-opacity:1;fill-rule:nonzero;stroke:none;stroke-width:148.80000305;marker:none;visibility:visible;display:inline;overflow:visible;enable-background:accumulate" />
  </g>
</svg>
