<?xml version="1.0" encoding="UTF-8" ?>
<!DOCTYPE svg PUBLIC "-//W3C//DTD SVG 1.1//EN" "http://www.w3.org/Graphics/SVG/1.1/DTD/svg11.dtd">
<svg width="696pt" height="854pt" viewBox="0 0 696 854" version="1.1" xmlns="http://www.w3.org/2000/svg">
<g id="#077e71ff">
<path fill="#077e71" opacity="1.00" d=" M 0.00 0.00 L 696.00 0.00 L 696.00 704.60 C 693.24 736.89 676.07 767.89 649.24 786.30 C 634.14 796.89 616.26 803.38 597.91 805.13 C 591.29 805.96 584.60 805.55 577.95 805.63 C 546.64 805.63 515.32 805.63 484.01 805.63 C 463.96 805.80 443.76 804.71 423.90 808.15 C 404.49 811.34 385.07 817.39 368.98 829.02 C 359.60 835.62 351.75 844.26 345.73 854.00 L 345.31 854.00 C 340.56 846.49 335.41 839.17 329.10 832.88 C 311.10 815.30 285.96 806.14 261.02 805.62 C 211.01 805.66 161.01 805.60 111.00 805.65 C 77.53 805.35 44.73 789.23 23.96 763.00 C 10.31 746.28 2.10 725.37 0.00 703.93 L 0.00 0.00 M 45.24 30.75 C 47.74 37.97 54.90 42.20 61.44 45.33 C 64.60 44.87 67.42 46.45 70.14 47.82 C 105.71 64.25 144.77 73.17 183.95 73.65 C 188.82 74.35 193.76 74.29 198.60 73.39 C 188.75 69.76 179.06 65.50 170.21 59.82 C 165.60 56.88 161.10 53.23 158.90 48.08 C 158.62 46.57 157.54 43.38 160.06 43.25 C 161.45 45.80 161.67 48.96 163.83 51.09 C 169.62 57.41 177.51 61.25 185.13 64.89 C 193.08 68.44 201.08 72.01 209.48 74.36 C 224.16 77.13 237.66 85.56 246.55 97.58 C 250.85 102.86 253.23 109.34 257.00 114.96 C 262.78 123.63 269.45 131.91 277.93 138.08 C 281.79 141.04 286.21 143.13 290.23 145.85 C 284.56 149.48 278.32 152.34 271.56 153.03 C 271.06 156.80 270.41 160.67 271.43 164.42 C 271.97 167.71 274.51 170.91 277.98 171.28 C 284.73 172.49 291.32 169.16 296.89 165.69 C 296.88 167.07 296.89 168.45 296.90 169.83 C 295.51 171.15 294.09 172.44 292.69 173.74 C 293.83 176.80 294.35 180.64 297.56 182.30 C 302.15 184.46 307.96 183.94 312.12 181.01 C 318.71 176.72 324.98 171.96 330.95 166.84 C 332.28 165.66 333.91 164.90 335.50 164.13 C 335.17 170.70 334.04 177.41 335.95 183.86 C 336.98 187.08 337.86 191.32 341.62 192.36 C 347.60 194.39 354.34 194.46 360.30 192.31 C 361.33 191.82 362.66 191.54 363.27 190.47 C 365.37 186.65 366.39 182.34 366.93 178.04 C 367.62 173.74 366.31 169.47 366.35 165.16 C 366.72 164.97 367.45 164.59 367.82 164.41 C 375.55 170.60 383.09 177.14 391.66 182.18 C 395.95 184.06 401.60 184.44 405.45 181.36 C 407.80 179.46 408.24 176.30 409.01 173.57 C 406.17 171.69 404.73 168.74 404.51 165.39 C 408.95 168.31 413.89 170.70 419.18 171.51 C 422.49 171.66 426.49 171.30 428.71 168.53 C 431.70 163.96 431.02 158.25 430.48 153.10 C 423.65 152.29 417.28 149.59 411.56 145.85 C 415.10 143.59 418.85 141.66 422.32 139.28 C 433.85 131.15 442.63 119.63 449.33 107.33 C 457.55 90.42 473.94 77.63 492.53 74.37 C 504.80 70.47 516.78 65.40 527.99 59.04 C 532.86 55.88 538.61 52.58 540.43 46.67 C 541.00 45.40 541.29 43.80 542.75 43.18 C 544.34 39.67 541.90 36.19 540.80 32.92 C 504.19 51.34 463.72 61.75 422.87 64.29 C 417.60 64.23 412.93 66.97 408.57 69.62 C 403.62 72.85 398.89 77.51 398.55 83.78 C 399.13 87.93 400.52 91.88 402.35 95.63 C 405.42 102.04 405.79 110.37 401.31 116.21 C 394.71 127.09 384.04 135.33 371.81 138.84 C 358.20 142.67 343.58 142.46 329.93 138.93 C 316.58 135.17 305.33 125.55 298.57 113.56 C 295.39 107.34 297.06 99.95 299.94 93.96 C 302.27 89.22 304.24 83.43 301.66 78.38 C 298.07 71.64 290.85 67.89 284.05 65.13 C 276.65 63.50 268.95 63.96 261.48 62.69 C 226.46 58.80 192.26 48.50 160.64 33.02 C 159.08 36.54 158.17 40.29 158.37 44.16 C 151.60 43.25 144.75 43.12 138.00 42.09 C 107.48 38.50 77.29 30.79 49.47 17.58 C 46.46 21.18 43.26 25.88 45.24 30.75 M 638.46 23.56 C 608.31 35.82 575.96 41.56 543.65 44.18 C 543.50 50.59 538.16 54.91 533.55 58.55 C 524.27 64.85 513.89 69.29 503.52 73.43 C 508.02 74.23 512.61 74.38 517.15 73.73 C 556.61 73.21 595.98 64.30 631.84 47.80 C 634.13 46.67 636.41 45.40 638.99 45.10 C 643.79 44.45 647.73 41.27 651.30 38.23 C 655.26 34.75 658.32 28.99 656.13 23.73 C 655.18 21.67 654.04 19.06 651.90 18.17 C 647.17 19.15 643.06 22.10 638.46 23.56 M 62.60 47.26 C 62.17 53.27 62.07 59.60 64.91 65.11 C 69.85 74.93 79.37 81.39 88.86 86.34 C 94.66 88.88 100.24 92.12 106.43 93.59 C 119.61 94.77 132.78 96.55 146.04 96.13 C 167.62 96.67 189.14 94.08 210.37 90.42 C 205.77 87.27 203.54 81.89 203.32 76.47 C 192.90 76.42 182.45 76.93 172.06 75.96 C 134.13 73.90 96.72 63.92 62.60 47.26 M 585.56 67.24 C 567.04 71.89 548.09 75.06 529.00 75.94 C 519.00 77.10 508.92 76.16 498.90 76.62 L 498.15 77.19 C 496.73 81.91 496.36 87.50 491.73 90.38 C 526.39 96.94 562.15 98.14 597.06 93.18 C 609.35 88.41 621.97 82.92 631.11 73.09 C 637.66 66.40 640.79 56.39 638.75 47.20 C 621.95 56.06 603.83 62.21 585.56 67.24 M 205.74 76.35 C 206.55 80.07 207.23 84.12 210.09 86.90 C 213.45 90.15 218.17 91.60 222.70 92.26 C 228.03 92.79 233.42 93.58 238.73 92.41 C 229.78 83.68 218.00 78.38 205.74 76.35 M 463.10 92.36 C 471.04 93.64 479.48 92.95 487.01 90.07 C 492.64 88.08 495.62 82.14 495.77 76.44 C 483.60 78.38 472.05 83.84 463.10 92.36 M 460.28 95.32 C 456.80 99.61 453.74 104.22 451.31 109.20 C 459.54 112.90 469.43 114.95 477.92 110.85 C 485.15 107.70 488.60 99.59 489.14 92.13 C 480.10 96.29 469.96 95.66 460.28 95.32 M 163.03 98.47 C 144.91 99.57 126.73 98.62 108.74 96.38 C 109.99 102.17 113.60 107.27 118.52 110.53 C 128.57 117.33 141.10 119.09 152.99 118.90 C 155.39 118.75 158.14 119.41 160.18 117.75 C 163.74 117.06 167.36 116.84 170.96 116.51 C 185.84 114.90 200.66 112.13 214.73 106.93 C 212.31 102.68 210.68 98.03 209.95 93.20 C 194.40 95.65 178.74 97.53 163.03 98.47 M 212.35 91.96 C 213.54 98.49 215.60 105.58 221.45 109.46 C 230.24 115.18 241.66 113.34 250.67 109.11 C 247.98 104.27 245.02 99.57 241.47 95.31 C 231.70 95.68 221.42 96.33 212.35 91.96 M 490.59 93.98 C 490.31 95.42 490.15 96.88 490.19 98.35 C 490.80 101.57 488.18 104.18 486.87 106.88 C 504.30 113.42 522.86 115.85 541.28 117.65 C 542.09 118.23 542.99 118.61 543.96 118.79 C 555.33 119.34 567.17 118.62 577.59 113.60 C 584.75 110.43 591.41 104.49 592.80 96.44 C 560.28 100.70 527.14 99.43 494.88 93.68 C 493.43 93.34 491.98 93.56 490.59 93.98 M 159.66 120.22 C 161.34 126.50 167.18 130.50 173.17 132.13 C 175.51 129.68 179.03 130.74 182.02 130.53 C 199.64 129.95 217.62 125.79 232.30 115.64 C 226.41 115.62 220.97 112.90 216.66 109.04 C 198.46 115.99 179.01 118.84 159.66 120.22 M 469.81 115.78 C 486.40 127.15 507.02 130.99 526.83 130.56 C 527.34 130.97 528.37 131.79 528.88 132.21 C 534.51 130.00 540.94 126.68 541.76 119.95 C 522.47 119.09 503.13 115.82 485.02 108.98 C 480.90 112.96 475.51 115.30 469.81 115.78 M 251.60 111.37 C 247.32 113.83 242.53 115.10 237.67 115.74 C 242.36 122.94 251.92 123.99 259.75 123.14 C 256.64 119.50 254.16 115.40 251.60 111.37 M 450.12 111.52 C 447.62 115.46 445.14 119.42 442.28 123.11 C 450.01 124.06 459.46 122.97 464.07 115.83 C 459.26 114.97 454.52 113.68 450.12 111.52 M 174.66 133.56 C 175.90 136.93 177.45 140.44 180.54 142.51 C 185.94 146.14 193.06 148.30 199.34 145.70 C 213.00 142.84 226.50 138.18 237.84 129.84 C 237.58 128.52 237.32 127.21 237.05 125.90 C 237.49 124.23 237.93 122.56 238.41 120.90 C 237.38 119.45 236.39 117.98 235.42 116.51 C 218.17 129.63 195.84 133.43 174.66 133.56 M 463.57 120.97 C 464.37 123.85 464.72 126.85 464.19 129.82 C 476.54 139.44 492.03 143.33 506.97 146.87 C 515.59 147.26 524.68 142.26 526.91 133.50 C 506.51 133.43 485.09 129.89 468.16 117.77 C 466.04 115.73 464.35 119.37 463.57 120.97 M 240.46 122.49 C 239.35 125.68 240.04 128.99 242.85 131.04 C 250.27 135.79 259.98 135.93 268.11 133.00 C 265.75 130.60 263.52 128.09 261.37 125.51 C 254.31 126.34 246.74 126.25 240.46 122.49 M 440.56 125.48 C 438.33 128.10 436.05 130.68 433.65 133.15 C 438.92 134.58 444.48 135.81 449.91 134.50 C 453.87 133.54 458.59 132.70 460.96 128.99 C 462.54 127.14 461.52 124.63 461.39 122.49 C 455.11 126.18 447.60 126.41 440.56 125.48 M 197.33 148.75 C 197.67 155.25 201.00 162.27 207.56 164.38 C 213.04 164.22 218.55 163.74 223.99 163.06 C 235.34 161.52 246.12 156.06 253.53 147.24 C 251.83 144.16 251.27 140.69 251.49 137.22 C 246.98 136.44 242.84 134.43 239.11 131.83 C 227.16 141.34 212.13 145.94 197.33 148.75 M 462.45 131.91 C 459.01 134.65 454.90 136.29 450.62 137.12 C 450.77 140.61 449.97 144.02 448.33 147.09 C 453.89 154.12 461.91 158.84 470.40 161.45 C 477.07 163.52 484.11 163.75 491.03 164.22 C 492.84 164.31 494.88 164.76 496.37 163.37 C 501.43 160.30 504.00 154.49 504.10 148.72 C 489.32 145.86 474.61 141.05 462.45 131.91 M 431.51 135.40 C 426.78 139.22 422.03 143.07 416.62 145.93 C 424.68 150.02 434.71 152.36 443.20 148.22 C 447.10 146.15 447.58 141.40 448.05 137.49 C 444.22 137.49 440.28 137.92 436.59 136.62 C 434.89 136.27 433.24 135.27 431.51 135.40 M 253.97 137.48 C 254.18 140.55 254.32 143.99 256.53 146.39 C 259.34 149.80 264.16 150.02 268.23 150.43 C 273.99 150.03 280.34 149.33 284.90 145.43 C 279.32 143.02 274.90 138.81 270.09 135.22 C 264.91 137.09 259.48 137.98 253.97 137.48 M 255.19 149.18 C 252.50 152.69 248.77 155.12 245.63 158.16 C 244.95 160.74 246.27 163.20 247.33 165.48 C 254.11 168.54 261.68 166.83 268.62 165.31 C 268.01 161.20 268.21 157.05 268.72 152.94 C 263.94 153.10 259.05 152.14 255.19 149.18 M 433.19 152.94 C 433.64 157.07 433.69 161.25 433.14 165.38 C 439.17 166.48 445.43 168.10 451.54 166.64 C 456.08 165.84 458.22 158.51 454.00 156.08 C 451.24 154.11 448.81 151.76 446.60 149.21 C 442.70 152.02 437.96 153.19 433.19 152.94 M 209.54 166.40 C 209.28 166.97 208.75 168.12 208.48 168.69 C 209.19 171.71 209.77 174.85 211.37 177.56 C 214.10 182.54 219.12 185.74 224.20 187.94 C 230.10 180.62 236.33 173.58 242.33 166.36 C 244.29 164.51 243.01 161.74 243.10 159.46 C 232.93 165.09 221.08 167.23 209.54 166.40 M 459.37 159.47 C 458.94 161.25 458.52 163.03 458.07 164.79 C 464.89 172.23 470.98 180.29 477.73 187.78 C 486.55 184.52 493.31 176.13 493.05 166.49 C 481.54 166.96 469.36 165.67 459.37 159.47 M 245.16 166.96 C 239.86 173.36 234.44 179.65 229.16 186.07 C 227.80 187.59 226.50 189.50 224.28 189.73 C 222.56 194.09 221.29 198.97 222.66 203.61 C 223.90 206.99 227.26 209.95 231.05 209.50 C 239.00 209.38 245.13 203.55 250.92 198.81 C 255.24 195.81 257.68 191.00 261.44 187.42 C 266.10 182.93 270.16 177.87 274.91 173.48 C 272.82 171.82 270.95 169.92 269.26 167.87 C 261.44 169.69 252.33 171.83 245.16 166.96 M 432.35 167.94 C 430.78 169.89 429.04 171.69 427.08 173.25 C 433.01 179.88 439.27 186.19 445.30 192.71 C 445.82 193.65 446.28 194.63 446.68 195.64 C 454.55 201.45 462.15 210.81 473.00 209.32 C 480.64 206.78 480.85 196.57 477.34 190.62 C 469.79 183.45 463.71 174.88 456.75 167.15 C 449.28 171.71 440.36 169.60 432.35 167.94 M 310.22 185.28 C 308.69 185.61 307.16 185.98 305.64 186.37 C 301.55 193.65 296.99 200.64 292.69 207.79 C 291.22 210.14 294.33 211.81 295.66 213.35 C 301.37 218.61 310.20 217.19 316.01 212.87 C 323.31 207.29 330.36 201.39 337.60 195.73 C 337.57 203.44 336.22 211.42 338.94 218.86 C 341.05 224.07 346.13 228.72 352.03 228.45 C 356.12 227.33 359.59 224.35 361.76 220.76 C 365.54 212.97 364.43 204.01 363.77 195.68 C 370.94 201.33 378.10 206.99 385.24 212.69 C 389.47 215.72 394.94 217.71 400.16 216.43 C 404.23 215.64 407.38 212.46 409.50 209.06 C 405.74 201.18 400.38 194.06 396.18 186.37 C 394.01 185.81 391.71 185.49 389.82 184.20 C 382.70 179.71 376.06 174.52 369.55 169.21 C 369.70 176.15 369.84 183.35 366.64 189.73 C 365.18 194.58 359.48 195.56 355.18 196.36 C 348.89 197.05 341.69 196.59 336.64 192.39 C 332.42 185.34 331.34 176.67 332.61 168.63 C 325.71 174.87 318.22 180.52 310.22 185.28 M 277.64 174.11 C 271.09 180.78 264.97 187.85 258.37 194.47 C 257.77 195.24 256.45 196.45 257.51 197.42 C 260.99 202.96 268.39 200.60 273.56 199.47 C 279.37 192.52 285.83 186.15 291.64 179.20 C 290.95 176.96 290.45 174.67 290.07 172.36 C 286.06 173.55 281.86 175.06 277.64 174.11 M 411.61 172.21 C 411.56 174.74 411.00 177.21 410.26 179.62 C 416.56 186.12 422.49 192.97 428.62 199.63 C 432.23 200.52 435.97 201.26 439.71 200.75 C 442.07 200.05 443.48 197.87 445.08 196.16 C 438.96 189.86 433.07 183.35 426.97 177.05 C 425.75 175.98 424.93 173.91 422.98 174.36 C 419.07 174.54 415.23 173.63 411.61 172.21 M 283.84 191.78 C 280.64 194.91 278.28 198.98 274.25 201.19 C 275.97 204.18 277.91 207.37 281.24 208.77 C 284.10 210.26 287.33 209.12 290.04 207.85 C 293.63 200.22 298.74 193.40 302.83 186.03 C 298.92 186.41 295.72 184.44 292.90 182.01 C 289.66 185.05 286.96 188.62 283.84 191.78 M 398.83 186.44 C 402.15 190.50 404.41 195.27 407.28 199.64 C 409.09 202.38 410.76 205.22 411.99 208.28 C 414.76 209.18 417.95 210.24 420.70 208.63 C 424.02 207.24 425.77 203.93 427.30 200.88 C 426.80 200.69 425.81 200.29 425.32 200.10 C 420.18 193.64 414.02 188.07 409.00 181.52 C 406.61 184.77 402.64 185.93 398.83 186.44 M 1.57 310.01 C 1.74 311.43 1.18 313.31 2.65 314.20 C 189.00 454.57 375.30 595.01 561.64 735.39 C 586.41 754.21 611.45 772.69 636.10 791.67 C 670.61 774.64 693.08 737.18 694.00 698.98 C 693.98 689.44 693.97 679.89 694.00 670.35 C 502.53 526.11 311.06 381.85 119.64 237.54 C 80.30 237.52 40.97 237.52 1.63 237.54 C 1.54 261.70 1.66 285.85 1.57 310.01 M 302.31 237.56 C 432.90 336.52 563.40 435.61 693.97 534.60 C 694.01 486.36 693.96 438.12 693.99 389.89 C 628.81 340.45 563.70 290.92 498.56 241.43 C 496.22 239.85 494.10 237.21 491.00 237.52 C 428.10 237.55 365.20 237.49 302.31 237.56 M 1.63 446.76 C 1.54 495.09 1.67 543.41 1.56 591.74 C 94.09 661.83 186.51 732.06 279.03 802.15 C 281.86 804.54 284.87 806.91 288.64 807.54 C 312.23 813.76 332.78 829.65 345.51 850.36 C 352.84 839.32 362.71 830.02 374.00 823.12 C 391.23 812.64 411.15 807.41 431.03 804.96 C 444.34 803.18 457.77 803.38 471.17 803.34 C 453.78 789.86 436.14 776.68 418.65 763.32 C 294.94 669.33 171.20 575.36 47.51 481.34 C 32.16 469.88 17.15 457.97 1.63 446.76 Z" />
</g>
<g id="#fefefeff">
<path fill="#fefefe" opacity="1.00" d=" M 45.24 30.75 C 43.26 25.88 46.46 21.18 49.47 17.58 C 77.29 30.79 107.48 38.50 138.00 42.09 C 144.75 43.12 151.60 43.25 158.37 44.16 C 158.17 40.29 159.08 36.54 160.64 33.02 C 192.26 48.50 226.46 58.80 261.48 62.69 C 268.95 63.96 276.65 63.50 284.05 65.13 C 290.85 67.89 298.07 71.64 301.66 78.38 C 304.24 83.43 302.27 89.22 299.94 93.96 C 297.06 99.95 295.39 107.34 298.57 113.56 C 305.33 125.55 316.58 135.17 329.93 138.93 C 343.58 142.46 358.20 142.67 371.81 138.84 C 384.04 135.33 394.71 127.09 401.31 116.21 C 405.79 110.37 405.42 102.04 402.35 95.63 C 400.52 91.88 399.13 87.93 398.55 83.78 C 398.89 77.51 403.62 72.85 408.57 69.62 C 412.93 66.97 417.60 64.23 422.87 64.29 C 463.72 61.75 504.19 51.34 540.80 32.92 C 541.90 36.19 544.34 39.67 542.75 43.18 C 541.29 43.80 541.00 45.40 540.43 46.67 C 538.61 52.58 532.86 55.88 527.99 59.04 C 516.78 65.40 504.80 70.47 492.53 74.37 C 473.94 77.63 457.55 90.42 449.33 107.33 C 442.63 119.63 433.85 131.15 422.32 139.28 C 418.85 141.66 415.10 143.59 411.56 145.85 C 417.28 149.59 423.65 152.29 430.48 153.10 C 431.02 158.25 431.70 163.96 428.71 168.53 C 426.49 171.30 422.49 171.66 419.18 171.51 C 413.89 170.70 408.95 168.31 404.51 165.39 C 404.73 168.74 406.17 171.69 409.01 173.57 C 408.24 176.30 407.80 179.46 405.45 181.36 C 401.60 184.44 395.95 184.06 391.66 182.18 C 383.09 177.14 375.55 170.60 367.82 164.41 C 367.45 164.59 366.72 164.97 366.35 165.16 C 366.31 169.47 367.62 173.74 366.93 178.04 C 366.39 182.34 365.37 186.65 363.27 190.47 C 362.66 191.54 361.33 191.82 360.30 192.31 C 354.34 194.46 347.60 194.39 341.62 192.36 C 337.86 191.32 336.98 187.08 335.95 183.86 C 334.04 177.41 335.17 170.70 335.50 164.13 C 333.91 164.90 332.28 165.66 330.95 166.84 C 324.98 171.96 318.71 176.72 312.12 181.01 C 307.96 183.94 302.15 184.46 297.56 182.30 C 294.35 180.64 293.83 176.80 292.69 173.74 C 294.09 172.44 295.51 171.15 296.90 169.83 C 296.89 168.45 296.88 167.07 296.89 165.69 C 291.32 169.16 284.73 172.49 277.98 171.28 C 274.51 170.91 271.97 167.71 271.43 164.42 C 270.41 160.67 271.06 156.80 271.56 153.03 C 278.32 152.34 284.56 149.48 290.23 145.85 C 286.21 143.13 281.79 141.04 277.93 138.08 C 269.45 131.91 262.78 123.63 257.00 114.96 C 253.23 109.34 250.85 102.86 246.55 97.58 C 237.66 85.56 224.16 77.13 209.48 74.36 C 201.08 72.01 193.08 68.44 185.13 64.89 C 177.51 61.25 169.62 57.41 163.83 51.09 C 161.67 48.96 161.45 45.80 160.06 43.25 C 157.54 43.38 158.62 46.57 158.90 48.08 C 161.10 53.23 165.60 56.88 170.21 59.82 C 179.06 65.50 188.75 69.76 198.60 73.39 C 193.76 74.29 188.82 74.35 183.95 73.65 C 144.77 73.17 105.71 64.25 70.14 47.82 C 67.42 46.45 64.60 44.87 61.44 45.33 C 54.90 42.20 47.74 37.97 45.24 30.75 Z" />
<path fill="#fefefe" opacity="1.00" d=" M 638.46 23.56 C 643.06 22.10 647.17 19.15 651.90 18.17 C 654.04 19.06 655.18 21.67 656.13 23.73 C 658.32 28.99 655.26 34.75 651.30 38.23 C 647.73 41.27 643.79 44.45 638.99 45.10 C 636.41 45.40 634.13 46.67 631.84 47.80 C 595.98 64.30 556.61 73.21 517.15 73.73 C 512.61 74.38 508.02 74.23 503.52 73.43 C 513.89 69.29 524.27 64.85 533.55 58.55 C 538.16 54.91 543.50 50.59 543.65 44.18 C 575.96 41.56 608.31 35.82 638.46 23.56 Z" />
<path fill="#fefefe" opacity="1.00" d=" M 62.60 47.26 C 96.72 63.92 134.13 73.90 172.06 75.96 C 182.45 76.93 192.90 76.42 203.32 76.47 C 203.54 81.89 205.77 87.27 210.37 90.42 C 189.14 94.08 167.62 96.67 146.04 96.13 C 132.78 96.55 119.61 94.77 106.43 93.59 C 100.24 92.12 94.66 88.88 88.86 86.34 C 79.37 81.39 69.85 74.93 64.91 65.11 C 62.07 59.60 62.17 53.27 62.60 47.26 Z" />
<path fill="#fefefe" opacity="1.00" d=" M 585.56 67.24 C 603.83 62.21 621.95 56.06 638.75 47.20 C 640.79 56.39 637.66 66.40 631.11 73.09 C 621.97 82.92 609.35 88.41 597.06 93.18 C 562.15 98.14 526.39 96.94 491.73 90.38 C 496.36 87.50 496.73 81.91 498.15 77.19 L 498.90 76.62 C 508.92 76.16 519.00 77.10 529.00 75.94 C 548.09 75.06 567.04 71.89 585.56 67.24 Z" />
<path fill="#fefefe" opacity="1.00" d=" M 205.74 76.35 C 218.00 78.38 229.78 83.68 238.73 92.41 C 233.42 93.58 228.03 92.79 222.70 92.26 C 218.17 91.60 213.45 90.15 210.09 86.90 C 207.23 84.12 206.55 80.07 205.74 76.35 Z" />
<path fill="#fefefe" opacity="1.00" d=" M 463.10 92.36 C 472.05 83.84 483.60 78.38 495.77 76.44 C 495.62 82.14 492.64 88.08 487.01 90.07 C 479.48 92.95 471.04 93.64 463.10 92.36 Z" />
<path fill="#fefefe" opacity="1.00" d=" M 460.28 95.32 C 469.96 95.66 480.10 96.29 489.14 92.13 C 488.60 99.59 485.15 107.70 477.92 110.85 C 469.43 114.95 459.54 112.90 451.31 109.20 C 453.74 104.22 456.80 99.61 460.28 95.32 Z" />
<path fill="#fefefe" opacity="1.00" d=" M 163.03 98.47 C 178.74 97.53 194.40 95.65 209.95 93.20 C 210.68 98.03 212.31 102.68 214.73 106.93 C 200.66 112.13 185.84 114.90 170.96 116.51 C 167.36 116.84 163.74 117.06 160.18 117.75 C 158.14 119.41 155.39 118.75 152.99 118.90 C 141.10 119.09 128.57 117.33 118.52 110.53 C 113.60 107.27 109.99 102.17 108.74 96.38 C 126.73 98.62 144.91 99.57 163.03 98.47 Z" />
<path fill="#fefefe" opacity="1.00" d=" M 212.35 91.96 C 221.42 96.33 231.70 95.68 241.47 95.31 C 245.02 99.57 247.98 104.27 250.67 109.11 C 241.66 113.34 230.24 115.18 221.45 109.46 C 215.60 105.58 213.54 98.49 212.35 91.96 Z" />
<path fill="#fefefe" opacity="1.00" d=" M 490.59 93.98 C 491.98 93.56 493.43 93.34 494.88 93.68 C 527.14 99.43 560.28 100.70 592.80 96.44 C 591.41 104.49 584.75 110.43 577.59 113.60 C 567.17 118.62 555.33 119.34 543.96 118.79 C 542.99 118.61 542.09 118.23 541.28 117.65 C 522.86 115.85 504.30 113.42 486.87 106.88 C 488.18 104.18 490.80 101.57 490.19 98.35 C 490.15 96.88 490.31 95.42 490.59 93.98 Z" />
<path fill="#fefefe" opacity="1.00" d=" M 159.66 120.22 C 179.01 118.84 198.46 115.99 216.66 109.04 C 220.97 112.90 226.41 115.62 232.30 115.64 C 217.62 125.79 199.64 129.95 182.02 130.53 C 179.03 130.74 175.51 129.68 173.17 132.13 C 167.18 130.50 161.34 126.50 159.66 120.22 Z" />
<path fill="#fefefe" opacity="1.00" d=" M 469.81 115.78 C 475.51 115.30 480.90 112.96 485.02 108.98 C 503.13 115.82 522.47 119.09 541.76 119.95 C 540.94 126.68 534.51 130.00 528.88 132.21 C 528.37 131.79 527.34 130.97 526.83 130.56 C 507.02 130.99 486.40 127.15 469.81 115.78 Z" />
<path fill="#fefefe" opacity="1.00" d=" M 251.60 111.37 C 254.16 115.40 256.64 119.50 259.75 123.14 C 251.92 123.99 242.36 122.94 237.67 115.74 C 242.53 115.10 247.32 113.83 251.60 111.37 Z" />
<path fill="#fefefe" opacity="1.00" d=" M 450.12 111.52 C 454.52 113.68 459.26 114.97 464.07 115.83 C 459.46 122.97 450.01 124.06 442.28 123.11 C 445.14 119.42 447.62 115.46 450.12 111.52 Z" />
<path fill="#fefefe" opacity="1.00" d=" M 174.66 133.56 C 195.84 133.43 218.17 129.63 235.42 116.51 C 236.39 117.98 237.38 119.45 238.41 120.90 C 237.93 122.56 237.49 124.23 237.05 125.90 C 237.32 127.21 237.58 128.52 237.84 129.84 C 226.50 138.18 213.00 142.84 199.34 145.70 C 193.06 148.30 185.94 146.14 180.54 142.51 C 177.45 140.44 175.90 136.93 174.66 133.56 Z" />
<path fill="#fefefe" opacity="1.00" d=" M 463.57 120.97 C 464.35 119.37 466.04 115.73 468.16 117.77 C 485.09 129.89 506.51 133.43 526.91 133.50 C 524.68 142.26 515.59 147.26 506.97 146.87 C 492.03 143.33 476.54 139.44 464.19 129.82 C 464.72 126.85 464.37 123.85 463.57 120.97 Z" />
<path fill="#fefefe" opacity="1.00" d=" M 240.46 122.49 C 246.74 126.25 254.31 126.34 261.37 125.51 C 263.52 128.09 265.75 130.60 268.11 133.00 C 259.98 135.93 250.27 135.79 242.85 131.04 C 240.04 128.99 239.35 125.68 240.46 122.49 Z" />
<path fill="#fefefe" opacity="1.00" d=" M 440.56 125.48 C 447.60 126.41 455.11 126.18 461.39 122.49 C 461.52 124.63 462.54 127.14 460.96 128.99 C 458.59 132.70 453.87 133.54 449.91 134.50 C 444.48 135.81 438.92 134.58 433.65 133.15 C 436.05 130.68 438.33 128.10 440.56 125.48 Z" />
<path fill="#fefefe" opacity="1.00" d=" M 197.33 148.75 C 212.13 145.94 227.16 141.34 239.11 131.83 C 242.84 134.43 246.98 136.44 251.49 137.22 C 251.27 140.69 251.83 144.16 253.53 147.24 C 246.12 156.06 235.34 161.52 223.99 163.06 C 218.55 163.74 213.04 164.22 207.56 164.38 C 201.00 162.27 197.67 155.25 197.33 148.75 Z" />
<path fill="#fefefe" opacity="1.00" d=" M 462.45 131.91 C 474.61 141.05 489.32 145.86 504.10 148.72 C 504.00 154.49 501.43 160.30 496.37 163.37 C 494.88 164.76 492.84 164.31 491.03 164.22 C 484.11 163.75 477.07 163.52 470.40 161.45 C 461.91 158.84 453.89 154.12 448.33 147.09 C 449.97 144.02 450.77 140.61 450.62 137.12 C 454.90 136.29 459.01 134.65 462.45 131.91 Z" />
<path fill="#fefefe" opacity="1.00" d=" M 431.51 135.40 C 433.24 135.27 434.89 136.27 436.59 136.62 C 440.28 137.92 444.22 137.49 448.05 137.49 C 447.58 141.40 447.10 146.15 443.20 148.22 C 434.71 152.36 424.68 150.02 416.62 145.93 C 422.03 143.07 426.78 139.22 431.51 135.40 Z" />
<path fill="#fefefe" opacity="1.00" d=" M 253.97 137.48 C 259.48 137.98 264.91 137.09 270.09 135.22 C 274.90 138.81 279.32 143.02 284.90 145.43 C 280.34 149.33 273.99 150.03 268.23 150.43 C 264.16 150.02 259.34 149.80 256.53 146.39 C 254.32 143.99 254.18 140.55 253.97 137.48 Z" />
<path fill="#fefefe" opacity="1.00" d=" M 255.19 149.18 C 259.05 152.14 263.94 153.10 268.72 152.94 C 268.21 157.05 268.01 161.20 268.62 165.31 C 261.68 166.83 254.11 168.54 247.33 165.48 C 246.27 163.20 244.95 160.74 245.63 158.16 C 248.77 155.12 252.50 152.69 255.19 149.18 Z" />
<path fill="#fefefe" opacity="1.00" d=" M 433.19 152.94 C 437.96 153.19 442.70 152.02 446.60 149.21 C 448.81 151.76 451.24 154.11 454.00 156.08 C 458.22 158.51 456.08 165.84 451.54 166.64 C 445.43 168.10 439.17 166.48 433.14 165.38 C 433.69 161.25 433.64 157.07 433.19 152.94 Z" />
<path fill="#fefefe" opacity="1.00" d=" M 209.54 166.40 C 221.08 167.23 232.93 165.09 243.10 159.46 C 243.01 161.74 244.29 164.51 242.33 166.36 C 236.33 173.58 230.10 180.62 224.20 187.94 C 219.12 185.74 214.10 182.54 211.37 177.56 C 209.77 174.85 209.19 171.71 208.48 168.69 C 208.75 168.12 209.28 166.97 209.54 166.40 Z" />
<path fill="#fefefe" opacity="1.00" d=" M 459.37 159.47 C 469.36 165.67 481.54 166.96 493.05 166.49 C 493.31 176.13 486.55 184.52 477.73 187.78 C 470.98 180.29 464.89 172.23 458.07 164.79 C 458.52 163.03 458.94 161.25 459.37 159.47 Z" />
<path fill="#fefefe" opacity="1.00" d=" M 245.16 166.96 C 252.33 171.83 261.44 169.69 269.26 167.87 C 270.95 169.92 272.82 171.82 274.91 173.48 C 270.16 177.87 266.10 182.93 261.44 187.42 C 257.68 191.00 255.24 195.81 250.92 198.81 C 245.13 203.55 239.00 209.38 231.05 209.50 C 227.26 209.95 223.90 206.99 222.66 203.61 C 221.29 198.97 222.56 194.09 224.28 189.73 C 226.50 189.50 227.80 187.59 229.16 186.07 C 234.44 179.65 239.86 173.36 245.16 166.96 Z" />
<path fill="#fefefe" opacity="1.00" d=" M 432.35 167.94 C 440.36 169.60 449.28 171.71 456.75 167.15 C 463.71 174.88 469.79 183.45 477.34 190.62 C 480.85 196.57 480.64 206.78 473.00 209.32 C 462.15 210.81 454.55 201.45 446.68 195.64 C 446.28 194.63 445.82 193.65 445.30 192.71 C 439.27 186.19 433.01 179.88 427.08 173.25 C 429.04 171.69 430.78 169.89 432.35 167.94 Z" />
<path fill="#fefefe" opacity="1.00" d=" M 310.22 185.28 C 318.22 180.52 325.71 174.87 332.61 168.63 C 331.34 176.67 332.42 185.34 336.64 192.39 C 341.69 196.59 348.89 197.05 355.18 196.36 C 359.48 195.56 365.18 194.58 366.64 189.73 C 369.84 183.35 369.70 176.15 369.55 169.21 C 376.06 174.52 382.70 179.71 389.82 184.20 C 391.71 185.49 394.01 185.81 396.18 186.37 C 400.38 194.06 405.74 201.18 409.50 209.06 C 407.38 212.46 404.23 215.64 400.16 216.43 C 394.94 217.71 389.47 215.72 385.24 212.69 C 378.10 206.99 370.94 201.33 363.77 195.68 C 364.43 204.01 365.54 212.97 361.76 220.76 C 359.59 224.35 356.12 227.33 352.03 228.45 C 346.13 228.72 341.05 224.07 338.94 218.86 C 336.22 211.42 337.57 203.44 337.60 195.73 C 330.36 201.39 323.31 207.29 316.01 212.87 C 310.20 217.19 301.37 218.61 295.66 213.35 C 294.33 211.81 291.22 210.14 292.69 207.79 C 296.99 200.64 301.55 193.65 305.64 186.37 C 307.16 185.98 308.69 185.61 310.22 185.28 Z" />
<path fill="#fefefe" opacity="1.00" d=" M 277.64 174.11 C 281.86 175.06 286.06 173.55 290.07 172.36 C 290.45 174.67 290.95 176.96 291.64 179.20 C 285.83 186.15 279.37 192.52 273.56 199.47 C 268.39 200.60 260.99 202.96 257.51 197.42 C 256.45 196.45 257.77 195.24 258.37 194.47 C 264.97 187.85 271.09 180.78 277.64 174.11 Z" />
<path fill="#fefefe" opacity="1.00" d=" M 411.61 172.21 C 415.23 173.63 419.07 174.54 422.98 174.36 C 424.93 173.91 425.75 175.98 426.97 177.05 C 433.07 183.35 438.96 189.86 445.08 196.16 C 443.48 197.87 442.07 200.05 439.71 200.75 C 435.97 201.26 432.23 200.52 428.62 199.63 C 422.49 192.97 416.56 186.12 410.26 179.62 C 411.00 177.21 411.56 174.74 411.61 172.21 Z" />
<path fill="#fefefe" opacity="1.00" d=" M 283.84 191.78 C 286.96 188.62 289.66 185.05 292.90 182.01 C 295.72 184.44 298.92 186.41 302.83 186.03 C 298.74 193.40 293.63 200.22 290.04 207.85 C 287.33 209.12 284.10 210.26 281.24 208.77 C 277.91 207.37 275.97 204.18 274.25 201.19 C 278.28 198.98 280.64 194.91 283.84 191.78 Z" />
<path fill="#fefefe" opacity="1.00" d=" M 398.83 186.44 C 402.64 185.93 406.61 184.77 409.00 181.52 C 414.02 188.07 420.18 193.64 425.32 200.10 C 425.81 200.29 426.80 200.69 427.30 200.88 C 425.77 203.93 424.02 207.24 420.70 208.63 C 417.95 210.24 414.76 209.18 411.99 208.28 C 410.76 205.22 409.09 202.38 407.28 199.64 C 404.41 195.27 402.15 190.50 398.83 186.44 Z" />
<path fill="#fefefe" opacity="1.00" d=" M 1.57 310.01 C 1.66 285.85 1.54 261.70 1.63 237.54 C 40.97 237.52 80.30 237.52 119.64 237.54 C 311.06 381.85 502.53 526.11 694.00 670.35 C 693.97 679.89 693.98 689.44 694.00 698.98 C 693.08 737.18 670.61 774.64 636.10 791.67 C 611.45 772.69 586.41 754.21 561.64 735.39 C 375.30 595.01 189.00 454.57 2.65 314.20 C 1.18 313.31 1.74 311.43 1.57 310.01 Z" />
<path fill="#fefefe" opacity="1.00" d=" M 302.31 237.56 C 365.20 237.49 428.10 237.55 491.00 237.52 C 494.10 237.21 496.22 239.85 498.56 241.43 C 563.70 290.92 628.81 340.45 693.99 389.89 C 693.96 438.12 694.01 486.36 693.97 534.60 C 563.40 435.61 432.90 336.52 302.31 237.56 Z" />
<path fill="#fefefe" opacity="1.00" d=" M 1.63 446.76 C 17.15 457.97 32.16 469.88 47.51 481.34 C 171.20 575.36 294.94 669.33 418.65 763.32 C 436.14 776.68 453.78 789.86 471.17 803.34 C 457.77 803.38 444.34 803.18 431.03 804.96 C 411.15 807.41 391.23 812.64 374.00 823.12 C 362.71 830.02 352.84 839.32 345.51 850.36 C 332.78 829.65 312.23 813.76 288.64 807.54 C 284.87 806.91 281.86 804.54 279.03 802.15 C 186.51 732.06 94.09 661.83 1.56 591.74 C 1.67 543.41 1.54 495.09 1.63 446.76 Z" />
<path fill="#fefefe" opacity="1.00" d=" M 0.00 703.93 C 2.10 725.37 10.31 746.28 23.96 763.00 C 44.73 789.23 77.53 805.35 111.00 805.65 C 161.01 805.60 211.01 805.66 261.02 805.62 C 285.96 806.14 311.10 815.30 329.10 832.88 C 335.41 839.17 340.56 846.49 345.31 854.00 L 0.00 854.00 L 0.00 703.93 Z" />
<path fill="#fefefe" opacity="1.00" d=" M 649.24 786.30 C 676.07 767.89 693.24 736.89 696.00 704.60 L 696.00 854.00 L 345.73 854.00 C 351.75 844.26 359.60 835.62 368.98 829.02 C 385.07 817.39 404.49 811.34 423.90 808.15 C 443.76 804.71 463.96 805.80 484.01 805.63 C 515.32 805.63 546.64 805.63 577.95 805.63 C 584.60 805.55 591.29 805.96 597.91 805.13 C 616.26 803.38 634.14 796.89 649.24 786.30 Z" />
</g>
</svg>
