<?xml version="1.0" encoding="UTF-8" standalone="no"?>
<!-- Created with Inkscape (http://www.inkscape.org/) -->

<svg
   xmlns:dc="http://purl.org/dc/elements/1.1/"
   xmlns:cc="http://creativecommons.org/ns#"
   xmlns:rdf="http://www.w3.org/1999/02/22-rdf-syntax-ns#"
   xmlns:svg="http://www.w3.org/2000/svg"
   xmlns="http://www.w3.org/2000/svg"
   xmlns:sodipodi="http://sodipodi.sourceforge.net/DTD/sodipodi-0.dtd"
   xmlns:inkscape="http://www.inkscape.org/namespaces/inkscape"
   id="svg2"
   version="1.1"
   inkscape:version="0.47pre4 r22446"
   width="1165.7812"
   height="1176.8125"
   sodipodi:docname="3rd_US_Armored_Division_SSI.svg">
  <metadata
     id="metadata8">
    <rdf:RDF>
      <cc:Work
         rdf:about="">
        <dc:format>image/svg+xml</dc:format>
        <dc:type
           rdf:resource="http://purl.org/dc/dcmitype/StillImage" />
        <dc:title></dc:title>
      </cc:Work>
    </rdf:RDF>
  </metadata>
  <defs
     id="defs6">
    <inkscape:perspective
       sodipodi:type="inkscape:persp3d"
       inkscape:vp_x="0 : 0.5 : 1"
       inkscape:vp_y="0 : 1000 : 0"
       inkscape:vp_z="1 : 0.5 : 1"
       inkscape:persp3d-origin="0.5 : 0.33333333 : 1"
       id="perspective10" />
    <inkscape:perspective
       id="perspective3632"
       inkscape:persp3d-origin="0.5 : 0.33333333 : 1"
       inkscape:vp_z="1 : 0.5 : 1"
       inkscape:vp_y="0 : 1000 : 0"
       inkscape:vp_x="0 : 0.5 : 1"
       sodipodi:type="inkscape:persp3d" />
    <inkscape:perspective
       id="perspective3654"
       inkscape:persp3d-origin="0.5 : 0.33333333 : 1"
       inkscape:vp_z="1 : 0.5 : 1"
       inkscape:vp_y="0 : 1000 : 0"
       inkscape:vp_x="0 : 0.5 : 1"
       sodipodi:type="inkscape:persp3d" />
    <inkscape:perspective
       id="perspective3676"
       inkscape:persp3d-origin="0.5 : 0.33333333 : 1"
       inkscape:vp_z="1 : 0.5 : 1"
       inkscape:vp_y="0 : 1000 : 0"
       inkscape:vp_x="0 : 0.5 : 1"
       sodipodi:type="inkscape:persp3d" />
    <inkscape:perspective
       id="perspective3698"
       inkscape:persp3d-origin="0.5 : 0.33333333 : 1"
       inkscape:vp_z="1 : 0.5 : 1"
       inkscape:vp_y="0 : 1000 : 0"
       inkscape:vp_x="0 : 0.5 : 1"
       sodipodi:type="inkscape:persp3d" />
    <inkscape:perspective
       id="perspective3698-6"
       inkscape:persp3d-origin="0.5 : 0.33333333 : 1"
       inkscape:vp_z="1 : 0.5 : 1"
       inkscape:vp_y="0 : 1000 : 0"
       inkscape:vp_x="0 : 0.5 : 1"
       sodipodi:type="inkscape:persp3d" />
    <inkscape:perspective
       id="perspective3698-7"
       inkscape:persp3d-origin="0.5 : 0.33333333 : 1"
       inkscape:vp_z="1 : 0.5 : 1"
       inkscape:vp_y="0 : 1000 : 0"
       inkscape:vp_x="0 : 0.5 : 1"
       sodipodi:type="inkscape:persp3d" />
    <inkscape:perspective
       id="perspective3738"
       inkscape:persp3d-origin="0.5 : 0.33333333 : 1"
       inkscape:vp_z="1 : 0.5 : 1"
       inkscape:vp_y="0 : 1000 : 0"
       inkscape:vp_x="0 : 0.5 : 1"
       sodipodi:type="inkscape:persp3d" />
    <inkscape:perspective
       id="perspective3769"
       inkscape:persp3d-origin="0.5 : 0.33333333 : 1"
       inkscape:vp_z="1 : 0.5 : 1"
       inkscape:vp_y="0 : 1000 : 0"
       inkscape:vp_x="0 : 0.5 : 1"
       sodipodi:type="inkscape:persp3d" />
    <inkscape:perspective
       id="perspective3818"
       inkscape:persp3d-origin="0.5 : 0.33333333 : 1"
       inkscape:vp_z="1 : 0.5 : 1"
       inkscape:vp_y="0 : 1000 : 0"
       inkscape:vp_x="0 : 0.5 : 1"
       sodipodi:type="inkscape:persp3d" />
    <inkscape:perspective
       id="perspective3840"
       inkscape:persp3d-origin="0.5 : 0.33333333 : 1"
       inkscape:vp_z="1 : 0.5 : 1"
       inkscape:vp_y="0 : 1000 : 0"
       inkscape:vp_x="0 : 0.5 : 1"
       sodipodi:type="inkscape:persp3d" />
    <inkscape:perspective
       id="perspective3840-1"
       inkscape:persp3d-origin="0.5 : 0.33333333 : 1"
       inkscape:vp_z="1 : 0.5 : 1"
       inkscape:vp_y="0 : 1000 : 0"
       inkscape:vp_x="0 : 0.5 : 1"
       sodipodi:type="inkscape:persp3d" />
    <inkscape:perspective
       id="perspective3871"
       inkscape:persp3d-origin="0.5 : 0.33333333 : 1"
       inkscape:vp_z="1 : 0.5 : 1"
       inkscape:vp_y="0 : 1000 : 0"
       inkscape:vp_x="0 : 0.5 : 1"
       sodipodi:type="inkscape:persp3d" />
    <inkscape:perspective
       id="perspective3896"
       inkscape:persp3d-origin="0.5 : 0.33333333 : 1"
       inkscape:vp_z="1 : 0.5 : 1"
       inkscape:vp_y="0 : 1000 : 0"
       inkscape:vp_x="0 : 0.5 : 1"
       sodipodi:type="inkscape:persp3d" />
    <inkscape:perspective
       id="perspective3918"
       inkscape:persp3d-origin="0.5 : 0.33333333 : 1"
       inkscape:vp_z="1 : 0.5 : 1"
       inkscape:vp_y="0 : 1000 : 0"
       inkscape:vp_x="0 : 0.5 : 1"
       sodipodi:type="inkscape:persp3d" />
    <inkscape:perspective
       id="perspective3960"
       inkscape:persp3d-origin="0.5 : 0.33333333 : 1"
       inkscape:vp_z="1 : 0.5 : 1"
       inkscape:vp_y="0 : 1000 : 0"
       inkscape:vp_x="0 : 0.5 : 1"
       sodipodi:type="inkscape:persp3d" />
    <inkscape:perspective
       id="perspective4004"
       inkscape:persp3d-origin="0.5 : 0.33333333 : 1"
       inkscape:vp_z="1 : 0.5 : 1"
       inkscape:vp_y="0 : 1000 : 0"
       inkscape:vp_x="0 : 0.5 : 1"
       sodipodi:type="inkscape:persp3d" />
    <inkscape:perspective
       id="perspective4152"
       inkscape:persp3d-origin="0.5 : 0.33333333 : 1"
       inkscape:vp_z="1 : 0.5 : 1"
       inkscape:vp_y="0 : 1000 : 0"
       inkscape:vp_x="0 : 0.5 : 1"
       sodipodi:type="inkscape:persp3d" />
    <inkscape:perspective
       id="perspective4174"
       inkscape:persp3d-origin="0.5 : 0.33333333 : 1"
       inkscape:vp_z="1 : 0.5 : 1"
       inkscape:vp_y="0 : 1000 : 0"
       inkscape:vp_x="0 : 0.5 : 1"
       sodipodi:type="inkscape:persp3d" />
    <inkscape:perspective
       id="perspective4209"
       inkscape:persp3d-origin="0.5 : 0.33333333 : 1"
       inkscape:vp_z="1 : 0.5 : 1"
       inkscape:vp_y="0 : 1000 : 0"
       inkscape:vp_x="0 : 0.5 : 1"
       sodipodi:type="inkscape:persp3d" />
    <inkscape:perspective
       id="perspective4223"
       inkscape:persp3d-origin="0.5 : 0.33333333 : 1"
       inkscape:vp_z="1 : 0.5 : 1"
       inkscape:vp_y="0 : 1000 : 0"
       inkscape:vp_x="0 : 0.5 : 1"
       sodipodi:type="inkscape:persp3d" />
    <inkscape:perspective
       id="perspective4344"
       inkscape:persp3d-origin="0.5 : 0.33333333 : 1"
       inkscape:vp_z="1 : 0.5 : 1"
       inkscape:vp_y="0 : 1000 : 0"
       inkscape:vp_x="0 : 0.5 : 1"
       sodipodi:type="inkscape:persp3d" />
    <inkscape:perspective
       id="perspective4468"
       inkscape:persp3d-origin="0.5 : 0.33333333 : 1"
       inkscape:vp_z="1 : 0.5 : 1"
       inkscape:vp_y="0 : 1000 : 0"
       inkscape:vp_x="0 : 0.5 : 1"
       sodipodi:type="inkscape:persp3d" />
    <inkscape:perspective
       id="perspective4589"
       inkscape:persp3d-origin="0.5 : 0.33333333 : 1"
       inkscape:vp_z="1 : 0.5 : 1"
       inkscape:vp_y="0 : 1000 : 0"
       inkscape:vp_x="0 : 0.5 : 1"
       sodipodi:type="inkscape:persp3d" />
    <inkscape:perspective
       id="perspective4713"
       inkscape:persp3d-origin="0.5 : 0.33333333 : 1"
       inkscape:vp_z="1 : 0.5 : 1"
       inkscape:vp_y="0 : 1000 : 0"
       inkscape:vp_x="0 : 0.5 : 1"
       sodipodi:type="inkscape:persp3d" />
    <inkscape:perspective
       id="perspective4816"
       inkscape:persp3d-origin="0.5 : 0.33333333 : 1"
       inkscape:vp_z="1 : 0.5 : 1"
       inkscape:vp_y="0 : 1000 : 0"
       inkscape:vp_x="0 : 0.5 : 1"
       sodipodi:type="inkscape:persp3d" />
    <inkscape:perspective
       id="perspective4862"
       inkscape:persp3d-origin="0.5 : 0.33333333 : 1"
       inkscape:vp_z="1 : 0.5 : 1"
       inkscape:vp_y="0 : 1000 : 0"
       inkscape:vp_x="0 : 0.5 : 1"
       sodipodi:type="inkscape:persp3d" />
    <inkscape:perspective
       id="perspective4962"
       inkscape:persp3d-origin="0.5 : 0.33333333 : 1"
       inkscape:vp_z="1 : 0.5 : 1"
       inkscape:vp_y="0 : 1000 : 0"
       inkscape:vp_x="0 : 0.5 : 1"
       sodipodi:type="inkscape:persp3d" />
    <inkscape:perspective
       id="perspective5008"
       inkscape:persp3d-origin="0.5 : 0.33333333 : 1"
       inkscape:vp_z="1 : 0.5 : 1"
       inkscape:vp_y="0 : 1000 : 0"
       inkscape:vp_x="0 : 0.5 : 1"
       sodipodi:type="inkscape:persp3d" />
    <inkscape:perspective
       id="perspective5111"
       inkscape:persp3d-origin="0.5 : 0.33333333 : 1"
       inkscape:vp_z="1 : 0.5 : 1"
       inkscape:vp_y="0 : 1000 : 0"
       inkscape:vp_x="0 : 0.5 : 1"
       sodipodi:type="inkscape:persp3d" />
    <inkscape:perspective
       id="perspective5157"
       inkscape:persp3d-origin="0.5 : 0.33333333 : 1"
       inkscape:vp_z="1 : 0.5 : 1"
       inkscape:vp_y="0 : 1000 : 0"
       inkscape:vp_x="0 : 0.5 : 1"
       sodipodi:type="inkscape:persp3d" />
    <inkscape:perspective
       id="perspective5258"
       inkscape:persp3d-origin="0.5 : 0.33333333 : 1"
       inkscape:vp_z="1 : 0.5 : 1"
       inkscape:vp_y="0 : 1000 : 0"
       inkscape:vp_x="0 : 0.5 : 1"
       sodipodi:type="inkscape:persp3d" />
    <inkscape:perspective
       id="perspective5301"
       inkscape:persp3d-origin="0.5 : 0.33333333 : 1"
       inkscape:vp_z="1 : 0.5 : 1"
       inkscape:vp_y="0 : 1000 : 0"
       inkscape:vp_x="0 : 0.5 : 1"
       sodipodi:type="inkscape:persp3d" />
    <inkscape:perspective
       id="perspective5454"
       inkscape:persp3d-origin="0.5 : 0.33333333 : 1"
       inkscape:vp_z="1 : 0.5 : 1"
       inkscape:vp_y="0 : 1000 : 0"
       inkscape:vp_x="0 : 0.5 : 1"
       sodipodi:type="inkscape:persp3d" />
    <inkscape:perspective
       id="perspective5555"
       inkscape:persp3d-origin="0.5 : 0.33333333 : 1"
       inkscape:vp_z="1 : 0.5 : 1"
       inkscape:vp_y="0 : 1000 : 0"
       inkscape:vp_x="0 : 0.5 : 1"
       sodipodi:type="inkscape:persp3d" />
    <inkscape:perspective
       id="perspective5598"
       inkscape:persp3d-origin="0.5 : 0.33333333 : 1"
       inkscape:vp_z="1 : 0.5 : 1"
       inkscape:vp_y="0 : 1000 : 0"
       inkscape:vp_x="0 : 0.5 : 1"
       sodipodi:type="inkscape:persp3d" />
    <inkscape:perspective
       id="perspective5723"
       inkscape:persp3d-origin="0.5 : 0.33333333 : 1"
       inkscape:vp_z="1 : 0.5 : 1"
       inkscape:vp_y="0 : 1000 : 0"
       inkscape:vp_x="0 : 0.5 : 1"
       sodipodi:type="inkscape:persp3d" />
    <inkscape:perspective
       id="perspective5842"
       inkscape:persp3d-origin="0.5 : 0.33333333 : 1"
       inkscape:vp_z="1 : 0.5 : 1"
       inkscape:vp_y="0 : 1000 : 0"
       inkscape:vp_x="0 : 0.5 : 1"
       sodipodi:type="inkscape:persp3d" />
    <inkscape:perspective
       id="perspective5964"
       inkscape:persp3d-origin="0.5 : 0.33333333 : 1"
       inkscape:vp_z="1 : 0.5 : 1"
       inkscape:vp_y="0 : 1000 : 0"
       inkscape:vp_x="0 : 0.5 : 1"
       sodipodi:type="inkscape:persp3d" />
    <inkscape:perspective
       id="perspective6067"
       inkscape:persp3d-origin="0.5 : 0.33333333 : 1"
       inkscape:vp_z="1 : 0.5 : 1"
       inkscape:vp_y="0 : 1000 : 0"
       inkscape:vp_x="0 : 0.5 : 1"
       sodipodi:type="inkscape:persp3d" />
    <inkscape:perspective
       id="perspective6113"
       inkscape:persp3d-origin="0.5 : 0.33333333 : 1"
       inkscape:vp_z="1 : 0.5 : 1"
       inkscape:vp_y="0 : 1000 : 0"
       inkscape:vp_x="0 : 0.5 : 1"
       sodipodi:type="inkscape:persp3d" />
    <inkscape:perspective
       id="perspective6219"
       inkscape:persp3d-origin="0.5 : 0.33333333 : 1"
       inkscape:vp_z="1 : 0.5 : 1"
       inkscape:vp_y="0 : 1000 : 0"
       inkscape:vp_x="0 : 0.5 : 1"
       sodipodi:type="inkscape:persp3d" />
    <inkscape:perspective
       id="perspective6265"
       inkscape:persp3d-origin="0.5 : 0.33333333 : 1"
       inkscape:vp_z="1 : 0.5 : 1"
       inkscape:vp_y="0 : 1000 : 0"
       inkscape:vp_x="0 : 0.5 : 1"
       sodipodi:type="inkscape:persp3d" />
    <inkscape:perspective
       id="perspective6395"
       inkscape:persp3d-origin="0.5 : 0.33333333 : 1"
       inkscape:vp_z="1 : 0.5 : 1"
       inkscape:vp_y="0 : 1000 : 0"
       inkscape:vp_x="0 : 0.5 : 1"
       sodipodi:type="inkscape:persp3d" />
    <inkscape:perspective
       id="perspective6519"
       inkscape:persp3d-origin="0.5 : 0.33333333 : 1"
       inkscape:vp_z="1 : 0.5 : 1"
       inkscape:vp_y="0 : 1000 : 0"
       inkscape:vp_x="0 : 0.5 : 1"
       sodipodi:type="inkscape:persp3d" />
    <inkscape:perspective
       id="perspective6684"
       inkscape:persp3d-origin="0.5 : 0.33333333 : 1"
       inkscape:vp_z="1 : 0.5 : 1"
       inkscape:vp_y="0 : 1000 : 0"
       inkscape:vp_x="0 : 0.5 : 1"
       sodipodi:type="inkscape:persp3d" />
    <inkscape:perspective
       id="perspective6721"
       inkscape:persp3d-origin="0.5 : 0.33333333 : 1"
       inkscape:vp_z="1 : 0.5 : 1"
       inkscape:vp_y="0 : 1000 : 0"
       inkscape:vp_x="0 : 0.5 : 1"
       sodipodi:type="inkscape:persp3d" />
    <inkscape:perspective
       id="perspective6869"
       inkscape:persp3d-origin="0.5 : 0.33333333 : 1"
       inkscape:vp_z="1 : 0.5 : 1"
       inkscape:vp_y="0 : 1000 : 0"
       inkscape:vp_x="0 : 0.5 : 1"
       sodipodi:type="inkscape:persp3d" />
    <inkscape:perspective
       id="perspective7053"
       inkscape:persp3d-origin="0.5 : 0.33333333 : 1"
       inkscape:vp_z="1 : 0.5 : 1"
       inkscape:vp_y="0 : 1000 : 0"
       inkscape:vp_x="0 : 0.5 : 1"
       sodipodi:type="inkscape:persp3d" />
  </defs>
  <sodipodi:namedview
     pagecolor="#ffffff"
     bordercolor="#666666"
     borderopacity="1"
     objecttolerance="10"
     gridtolerance="10"
     guidetolerance="10"
     inkscape:pageopacity="0"
     inkscape:pageshadow="2"
     inkscape:window-width="1280"
     inkscape:window-height="970"
     id="namedview4"
     showgrid="false"
     inkscape:zoom="0.23576424"
     inkscape:cx="177.82576"
     inkscape:cy="120.72477"
     inkscape:window-x="0"
     inkscape:window-y="0"
     inkscape:window-maximized="1"
     inkscape:current-layer="svg2" />
  <rect
     style="fill:#f5b522;fill-opacity:1;stroke:none"
     id="rect6690"
     width="1151.6971"
     height="179.95268"
     x="8.4319801"
     y="991.56488" />
  <path
     style="fill:#feb20e;fill-opacity:1;stroke:none"
     d="M 584.09307,24.319192 267.67627,552.1804 588.59188,738.1315 905.00869,547.68158 584.09307,24.319192 z"
     id="path3616" />
  <path
     style="fill:#e00114;fill-opacity:1;stroke:none"
     d="m 888.13812,533.81022 -323.35248,176.95348 5.81098,277.80195 c 0,0 592.12558,7.94154 588.97008,2.62431 L 888.13812,533.81022 z"
     id="path3618"
     sodipodi:nodetypes="cccsc" />
  <path
     style="fill:#342cb5;fill-opacity:1;stroke:none"
     d="M 13.759534,984.65678 583.18432,988.89831 583.84706,700.34203 282.83131,536.11547 13.759534,984.65678 z"
     id="path3620"
     sodipodi:nodetypes="ccccc" />
  <path
     style="fill:#1f4225;fill-opacity:1;stroke:none"
     d="M 583.25,0 0,979.46875 l 0,21.09375 1165.7813,-0.031 0,-20.6562 L 583.25,0 z M 583.71875,41.75 1141.5625,980.3125 25.6875,980.5 583.71875,41.75 z"
     id="path2839" />
  <rect
     style="fill:none;stroke:#000000;stroke-width:5;stroke-linecap:round;stroke-linejoin:miter;stroke-miterlimit:4;stroke-opacity:1;stroke-dasharray:none;stroke-dashoffset:0"
     id="rect3795"
     width="22.551838"
     height="74.288208"
     x="288.26697"
     y="619.44635"
     ry="11.629043" />
  <rect
     style="fill:none;stroke:#000000;stroke-width:5;stroke-linecap:round;stroke-linejoin:miter;stroke-miterlimit:4;stroke-opacity:1;stroke-dasharray:none;stroke-dashoffset:0"
     id="rect3795-2"
     width="22.551838"
     height="74.288208"
     x="-686.31842"
     y="-30.781513"
     ry="11.629043"
     transform="matrix(-0.5,-0.8660254,0.8660254,-0.5,0,0)" />
  <rect
     style="fill:none;stroke:#000000;stroke-width:5;stroke-linecap:round;stroke-linejoin:miter;stroke-miterlimit:4;stroke-opacity:1;stroke-dasharray:none;stroke-dashoffset:0"
     id="rect3795-8"
     width="22.551838"
     height="74.288208"
     x="546.90283"
     y="-467.52759"
     ry="11.629043"
     transform="matrix(0,1,-1,0,0,0)" />
  <rect
     style="fill:none;stroke:#000000;stroke-width:5;stroke-linecap:round;stroke-linejoin:miter;stroke-miterlimit:4;stroke-opacity:1;stroke-dasharray:none;stroke-dashoffset:0"
     id="rect3795-4"
     width="22.551838"
     height="74.288208"
     x="546.90289"
     y="-569.12585"
     ry="11.629043"
     transform="matrix(0,1,-1,0,0,0)" />
  <rect
     style="fill:none;stroke:#000000;stroke-width:5;stroke-linecap:round;stroke-linejoin:miter;stroke-miterlimit:4;stroke-opacity:1;stroke-dasharray:none;stroke-dashoffset:0"
     id="rect3795-8-1"
     width="22.551838"
     height="74.288208"
     x="547.27777"
     y="-671.66144"
     ry="11.629043"
     transform="matrix(0,1,-1,0,0,0)" />
  <rect
     style="fill:none;stroke:#000000;stroke-width:5;stroke-linecap:round;stroke-linejoin:miter;stroke-miterlimit:4;stroke-opacity:1;stroke-dasharray:none;stroke-dashoffset:0"
     id="rect3795-4-1"
     width="22.551838"
     height="74.288208"
     x="547.27783"
     y="-773.2597"
     ry="11.629043"
     transform="matrix(0,1,-1,0,0,0)" />
  <rect
     style="fill:none;stroke:#000000;stroke-width:5;stroke-linecap:round;stroke-linejoin:miter;stroke-miterlimit:4;stroke-opacity:1;stroke-dasharray:none;stroke-dashoffset:0"
     id="rect3795-2-8"
     width="22.551838"
     height="74.288208"
     x="449.16891"
     y="624.35956"
     ry="11.629043"
     transform="matrix(-0.5,0.8660254,0.8660254,0.5,0,0)" />
  <rect
     style="fill:none;stroke:#000000;stroke-width:5;stroke-linecap:round;stroke-linejoin:miter;stroke-miterlimit:4;stroke-opacity:1;stroke-dasharray:none;stroke-dashoffset:0"
     id="rect3795-6"
     width="22.551838"
     height="74.288208"
     x="855.79694"
     y="619.14551"
     ry="11.629043" />
  <rect
     style="fill:none;stroke:#000000;stroke-width:5;stroke-linecap:round;stroke-linejoin:miter;stroke-miterlimit:4;stroke-opacity:1;stroke-dasharray:none;stroke-dashoffset:0"
     id="rect3795-2-5"
     width="22.551838"
     height="74.288208"
     x="-1054.9991"
     y="311.47168"
     ry="11.629043"
     transform="matrix(-0.5,-0.8660254,0.8660254,-0.5,0,0)" />
  <rect
     style="fill:none;stroke:#000000;stroke-width:5;stroke-linecap:round;stroke-linejoin:miter;stroke-miterlimit:4;stroke-opacity:1;stroke-dasharray:none;stroke-dashoffset:0"
     id="rect3795-8-6"
     width="22.551838"
     height="74.288208"
     x="734.24036"
     y="-773.00153"
     ry="11.629043"
     transform="matrix(0,1,-1,0,0,0)" />
  <rect
     style="fill:none;stroke:#000000;stroke-width:5;stroke-linecap:round;stroke-linejoin:miter;stroke-miterlimit:4;stroke-opacity:1;stroke-dasharray:none;stroke-dashoffset:0"
     id="rect3795-4-8"
     width="22.551838"
     height="74.288208"
     x="734.2403"
     y="-671.40326"
     ry="11.629043"
     transform="matrix(0,1,-1,0,0,0)" />
  <rect
     style="fill:none;stroke:#000000;stroke-width:5;stroke-linecap:round;stroke-linejoin:miter;stroke-miterlimit:4;stroke-opacity:1;stroke-dasharray:none;stroke-dashoffset:0"
     id="rect3795-8-1-0"
     width="22.551838"
     height="74.288208"
     x="733.86542"
     y="-568.86768"
     ry="11.629043"
     transform="matrix(0,1,-1,0,0,0)" />
  <rect
     style="fill:none;stroke:#000000;stroke-width:5;stroke-linecap:round;stroke-linejoin:miter;stroke-miterlimit:4;stroke-opacity:1;stroke-dasharray:none;stroke-dashoffset:0"
     id="rect3795-4-1-2"
     width="22.551838"
     height="74.288208"
     x="733.86536"
     y="-467.26941"
     ry="11.629043"
     transform="matrix(0,1,-1,0,0,0)" />
  <rect
     style="fill:none;stroke:#000000;stroke-width:5;stroke-linecap:round;stroke-linejoin:miter;stroke-miterlimit:4;stroke-opacity:1;stroke-dasharray:none;stroke-dashoffset:0"
     id="rect3795-2-8-2"
     width="22.551838"
     height="74.288208"
     x="80.266876"
     y="966.91791"
     ry="11.629043"
     transform="matrix(-0.5,0.8660254,0.8660254,0.5,0,0)" />
  <g
     id="g3986"
     transform="translate(-12.75,-0.4375)">
    <path
       transform="matrix(1.1538595,0,0,0.98556947,-63.270053,8.1745129)"
       d="m 470.8762,657.40283 c 0,39.70229 -27.52725,71.88735 -61.48384,71.88735 -33.95658,0 -61.48383,-32.18506 -61.48383,-71.88735 0,-39.70228 27.52725,-71.88734 61.48383,-71.88734 33.95659,0 61.48384,32.18506 61.48384,71.88734 z"
       sodipodi:ry="71.887344"
       sodipodi:rx="61.483833"
       sodipodi:cy="657.40283"
       sodipodi:cx="409.39236"
       id="path3950"
       style="fill:none;stroke:#000000;stroke-width:3.75577331;stroke-linecap:round;stroke-linejoin:miter;stroke-miterlimit:4;stroke-opacity:1;stroke-dasharray:none;stroke-dashoffset:0"
       sodipodi:type="arc" />
    <path
       inkscape:transform-center-y="-1.8687257"
       inkscape:transform-center-x="-1.3496301"
       transform="matrix(0.31807974,0.0303802,-0.02594926,0.27168794,295.44365,465.13857)"
       d="m 470.8762,657.40283 c 0,39.70229 -27.52725,71.88735 -61.48384,71.88735 -33.95658,0 -61.48383,-32.18506 -61.48383,-71.88735 0,-39.70228 27.52725,-71.88734 61.48383,-71.88734 33.95659,0 61.48384,32.18506 61.48384,71.88734 z"
       sodipodi:ry="71.887344"
       sodipodi:rx="61.483833"
       sodipodi:cy="657.40283"
       sodipodi:cx="409.39236"
       id="path3950-2"
       style="fill:none;stroke:#000000;stroke-width:13.54518318;stroke-linecap:round;stroke-linejoin:miter;stroke-miterlimit:4;stroke-opacity:1;stroke-dasharray:none;stroke-dashoffset:0"
       sodipodi:type="arc" />
    <path
       id="path3974"
       d="m 374.99515,594.23195 24.46232,44.42582"
       style="fill:none;stroke:#000000;stroke-width:5;stroke-linecap:butt;stroke-linejoin:miter;stroke-miterlimit:4;stroke-opacity:1;stroke-dasharray:none" />
    <path
       id="path3976"
       d="m 418.10881,639.5013 25.8682,-44.51954"
       style="fill:none;stroke:#000000;stroke-width:5;stroke-linecap:butt;stroke-linejoin:miter;stroke-miterlimit:4;stroke-opacity:1;stroke-dasharray:none" />
    <path
       id="path3978"
       d="m 428.7935,656.37187 50.70542,-0.0937"
       style="fill:none;stroke:#000000;stroke-width:5;stroke-linecap:butt;stroke-linejoin:miter;stroke-miterlimit:4;stroke-opacity:1;stroke-dasharray:none" />
    <path
       id="path3980"
       d="m 419.13979,673.52361 24.7435,43.95719"
       style="fill:none;stroke:#000000;stroke-width:5;stroke-linecap:butt;stroke-linejoin:miter;stroke-miterlimit:4;stroke-opacity:1;stroke-dasharray:none" />
    <path
       id="path3982"
       d="m 399.45747,673.80479 -24.46232,43.86346"
       style="fill:none;stroke:#000000;stroke-width:5;stroke-linecap:butt;stroke-linejoin:miter;stroke-miterlimit:4;stroke-opacity:1;stroke-dasharray:none" />
    <path
       id="path3984"
       d="m 339.6862,655.52834 48.59244,0"
       style="fill:none;stroke:#000000;stroke-width:4.93130922;stroke-linecap:butt;stroke-linejoin:miter;stroke-miterlimit:4;stroke-opacity:1;stroke-dasharray:none" />
  </g>
  <g
     transform="translate(361.49531,0.12486834)"
     id="g3986-7">
    <path
       transform="matrix(1.1538595,0,0,0.98556947,-63.270053,8.1745129)"
       d="m 470.8762,657.40283 c 0,39.70229 -27.52725,71.88735 -61.48384,71.88735 -33.95658,0 -61.48383,-32.18506 -61.48383,-71.88735 0,-39.70228 27.52725,-71.88734 61.48383,-71.88734 33.95659,0 61.48384,32.18506 61.48384,71.88734 z"
       sodipodi:ry="71.887344"
       sodipodi:rx="61.483833"
       sodipodi:cy="657.40283"
       sodipodi:cx="409.39236"
       id="path3950-1"
       style="fill:none;stroke:#000000;stroke-width:3.75577331;stroke-linecap:round;stroke-linejoin:miter;stroke-miterlimit:4;stroke-opacity:1;stroke-dasharray:none;stroke-dashoffset:0"
       sodipodi:type="arc" />
    <path
       inkscape:transform-center-y="-1.8687257"
       inkscape:transform-center-x="-1.3496301"
       transform="matrix(0.31807974,0.0303802,-0.02594926,0.27168794,295.44365,465.13857)"
       d="m 470.8762,657.40283 c 0,39.70229 -27.52725,71.88735 -61.48384,71.88735 -33.95658,0 -61.48383,-32.18506 -61.48383,-71.88735 0,-39.70228 27.52725,-71.88734 61.48383,-71.88734 33.95659,0 61.48384,32.18506 61.48384,71.88734 z"
       sodipodi:ry="71.887344"
       sodipodi:rx="61.483833"
       sodipodi:cy="657.40283"
       sodipodi:cx="409.39236"
       id="path3950-2-8"
       style="fill:none;stroke:#000000;stroke-width:13.54518318;stroke-linecap:round;stroke-linejoin:miter;stroke-miterlimit:4;stroke-opacity:1;stroke-dasharray:none;stroke-dashoffset:0"
       sodipodi:type="arc" />
    <path
       id="path3974-2"
       d="m 374.99515,594.23195 24.46232,44.42582"
       style="fill:none;stroke:#000000;stroke-width:5;stroke-linecap:butt;stroke-linejoin:miter;stroke-miterlimit:4;stroke-opacity:1;stroke-dasharray:none" />
    <path
       id="path3976-1"
       d="m 418.10881,639.5013 25.8682,-44.51954"
       style="fill:none;stroke:#000000;stroke-width:5;stroke-linecap:butt;stroke-linejoin:miter;stroke-miterlimit:4;stroke-opacity:1;stroke-dasharray:none" />
    <path
       id="path3978-9"
       d="m 428.7935,656.37187 50.70542,-0.0937"
       style="fill:none;stroke:#000000;stroke-width:5;stroke-linecap:butt;stroke-linejoin:miter;stroke-miterlimit:4;stroke-opacity:1;stroke-dasharray:none" />
    <path
       id="path3980-3"
       d="m 419.13979,673.52361 24.7435,43.95719"
       style="fill:none;stroke:#000000;stroke-width:5;stroke-linecap:butt;stroke-linejoin:miter;stroke-miterlimit:4;stroke-opacity:1;stroke-dasharray:none" />
    <path
       id="path3982-7"
       d="m 399.45747,673.80479 -24.46232,43.86346"
       style="fill:none;stroke:#000000;stroke-width:5;stroke-linecap:butt;stroke-linejoin:miter;stroke-miterlimit:4;stroke-opacity:1;stroke-dasharray:none" />
    <path
       id="path3984-7"
       d="m 339.6862,655.52834 48.59244,0"
       style="fill:none;stroke:#000000;stroke-width:4.93130922;stroke-linecap:butt;stroke-linejoin:miter;stroke-miterlimit:4;stroke-opacity:1;stroke-dasharray:none" />
  </g>
  <path
     style="fill:#000000;fill-opacity:1;stroke:none"
     d="m 375.92905,531.42023 -12.84037,40.48936 401.89432,145.03998 5.81692,-18.06005 19.74545,-17.15211 c -3.5771,-5.61606 -7.82332,-10.11692 -8.55257,-20.47939 l 6.70271,-17.92971 -412.76646,-111.90808 z"
     id="path4042"
     sodipodi:nodetypes="cccccccc" />
  <path
     style="fill:#e00114;fill-opacity:1;stroke:none"
     d="m 749.98694,429.11901 17.80782,35.24072 -112.84532,125.12336 -11.8094,-25.58703 -139.08842,153.24097 -11.15332,-43.39484 -141.24412,127.65393 153.14724,-203.19658 14.0588,54.54816 147.99233,-176.29739 8.71647,34.58465 74.41792,-81.91595 z"
     id="path4044"
     sodipodi:nodetypes="cccccccccccc" />
  <path
     style="fill:#214327;fill-opacity:1;stroke:none"
     d="m 0,994.5625 0,182.25 1165.7813,0 0,-182.25 -1165.7813,0 z m 1145.875,5.9687 0,155.625 -1125.8125,0 0,-155.5937 1125.8125,-0.031 z"
     id="rect6652" />
  <g
     id="g7189"
     transform="translate(-464.31449,1311.2941)">
    <g
       id="g7178">
      <path
         style="fill:#000000"
         d="m 681.92645,-184.88458 c -6.2068,-1.3136 -13.2697,-4.6804 -13.2697,-6.3256 0,-1.6269 4.7336,-12.6807 5.4302,-12.6807 0.2505,0 1.9437,0.8709 3.7626,1.9353 11.6825,6.8362 26.8072,4.0494 26.8072,-4.9395 0,-6.8431 -3.5847,-10.6371 -17,-17.9929 -11.1026,-6.0876 -14.5687,-9.0266 -17.1041,-14.5029 -2.0856,-4.5046 -2.53,-14.6826 -0.8378,-19.1849 1.7568,-4.6742 8.8484,-11.1233 14.1779,-12.8935 6.9484,-2.3079 21.6068,-1.6278 28.02,1.3 l 4.756,2.1713 -2.1295,5.8035 c -1.1712,3.192 -2.4704,6.1776 -2.887,6.6346 -0.4167,0.4571 -2.6419,-0.1303 -4.9449,-1.3052 -5.4362,-2.7733 -13.0653,-3.6766 -17.064,-2.0202 -3.226,1.3362 -5.9866,5.4596 -5.9866,8.9419 0,3.452 6.3867,9.3585 15.5463,14.3772 11.9078,6.5246 14.6658,8.8117 17.9892,14.9178 2.3017,4.229 2.8621,6.5171 2.8789,11.7544 0.046,14.3721 -9.944,23.2991 -27.3812,24.467 -3.5933,0.2407 -8.4368,0.035 -10.7635,-0.4576 z"
         id="path7167" />
      <path
         style="fill:#000000"
         d="m 765.71875,-272.65625 c -2.19943,0.018 -4.48032,0.12391 -6.8125,0.28125 l -10.25,0.6875 0,42.90625 0,42.875 7.5,0 7.5,0 0,-15.34375 0,-15.34375 9.75,-0.59375 c 12.5081,-0.7401 18.3162,-2.77865 24.3125,-8.59375 10.1322,-9.826 10.8378,-28.25605 1.4375,-37.65625 -6.0774,-6.0774 -18.04151,-9.34463 -33.4375,-9.21875 z m -2.0625,13.46875 7.5,0.625 c 8.9318,0.755 13.40925,2.4569 16.34375,6.1875 4.1801,5.3141 2.06785,15.34035 -3.96875,18.90625 -2.0368,1.2031 -5.92675,1.99805 -11.46875,2.34375 l -8.40625,0.53125 0,-14.3125 0,-14.28125 z"
         id="path7165" />
      <path
         style="fill:#000000"
         d="m 833.65675,-228.89088 0,-43 27,0 27,0 0,7 0,7 -19.5,0 -19.5,0 0,10 0,10 14,0 14,0 0,6.5 0,6.5 -14,0 -14,0 0,12.5 0,12.5 19.5,0 19.5,0 0,7 0,7 -27,0 -27,0 0,-43 z"
         id="path7161" />
      <path
         style="fill:#000000"
         d="m 942.96875,-272.90625 -15.84375,40.25 c -8.7062,22.1375 -16.41945,41.7125 -17.15625,43.5 l -1.34375,3.25 8.8125,0 8.8125,0 2.75,-8.5 2.78125,-8.5 14.8125,0 14.78125,0 2.96875,8.25 2.9375,8.25 8.71875,0.28125 8.71875,0.3125 -1.375,-3.3125 c -0.7503,-1.8092 -8.52755,-21.39605 -17.28125,-43.53125 l -15.90625,-40.25 -3.59375,0 -3.59375,0 z m 4,28.96875 c 0.0335,-0.0146 0.0467,-0.007 0.0625,0.0312 0.7541,1.8469 9.625,28.31395 9.625,28.71875 0,0.1604 -4.5,0.28125 -10,0.28125 -5.5,0 -10,-0.3231 -10,-0.75 0,-2.53105 9.27332,-27.82973 10.3125,-28.28125 z"
         id="path7159" />
      <path
         style="fill:#000000"
         d="m 1029.625,-272.9375 c -4.3015,-0.0171 -9.0304,0.19749 -14.2188,0.6875 l -6.75,0.65625 0,42.84375 0,42.84375 8,0 8,0 0,-17.96875 0,-17.96875 4.75,0.625 c 2.6126,0.3475 5.037,1.11425 5.4063,1.71875 0.3693,0.6046 5.3693,8.29375 11.0937,17.09375 l 10.4063,16 9.1563,0.3125 9.1562,0.28125 -8.625,-13.28125 c -4.7524,-7.3081 -10.4357,-15.9496 -12.625,-19.1875 -3.6257,-5.3623 -3.8285,-5.9741 -2.2188,-6.875 3.968,-2.2206 9.9151,-8.4955 11.625,-12.25 2.2804,-5.0069 2.4373,-15.19475 0.3126,-20.28125 -4.3043,-10.30388 -14.8292,-15.17603 -33.4688,-15.25 z m -4.9688,13.75 8,0.625 c 12.4603,0.9609 16,3.5819 16,11.875 0,5.2149 -2.0877,8.52355 -6.5937,10.40625 -1.8354,0.7669 -6.5073,1.375 -10.375,1.375 l -7.0313,0 0,-12.125 0,-12.15625 z"
         id="path7155" />
      <path
         style="fill:#000000"
         d="m 1096.6567,-228.89088 0,-43 7.5,0 7.5,0 0,17 0,17 17,0 17,0 0,-17 0,-17 7.5,0 7.5,0 0,43 0,43 -7.5,0 -7.5,0 0,-19 0,-19 -17,0 -17,0 0,19 0,19 -7.5,0 -7.5,0 0,-43 z"
         id="path7151" />
      <path
         style="fill:#000000"
         d="m 1193.6567,-228.89088 0,-43 27,0 27,0 0,7 0,7 -19.5,0 -19.5,0 0,10 0,10 14,0 14,0 0,6.5 0,6.5 -14,0 -14,0 0,12.5 0,12.5 19.5,0 19.5,0 0,7 0,7 -27,0 -27,0 0,-43 z"
         id="path7149" />
      <path
         style="fill:#000000"
         d="m 1301.9688,-272.90625 -15.8438,40.25 c -8.7062,22.1375 -16.4195,41.7125 -17.1562,43.5 l -1.3438,3.25 8.8125,0 8.8125,0 2.75,-8.5 2.7812,-8.5 14.8126,0 14.7812,0 2.9688,8.25 2.9374,8.25 8.7188,0.28125 8.7188,0.3125 -1.375,-3.3125 c -0.7503,-1.8092 -8.5276,-21.39605 -17.2813,-43.53125 l -15.9063,-40.25 -3.5937,0 -3.5937,0 z m 4,28.96875 c 0.034,-0.0146 0.047,-0.007 0.062,0.0312 0.7542,1.8469 9.625,28.31395 9.625,28.71875 0,0.1604 -4.5,0.28125 -10,0.28125 -5.5,0 -10,-0.3231 -10,-0.75 0,-2.53105 9.2734,-27.82973 10.3126,-28.28125 z"
         id="path7147" />
      <path
         style="fill:#000000"
         d="m 1386.9688,-272.59375 c -2.2283,0.005 -4.5853,0.0775 -7.0626,0.21875 l -12.25,0.6875 0,43 0,43 16.25,-0.4375 c 18.5872,-0.5193 23.7814,-1.75785 31.5,-7.46875 9.2952,-6.8773 14.3425,-17.2532 15.7188,-32.3125 1.3243,-14.4909 -2.5716,-27.1342 -10.9375,-35.5 -7.8505,-7.8505 -17.6209,-11.22295 -33.2187,-11.1875 z m 2.2187,13.75 c 4.622,0.0985 10.8238,1.42552 14.4687,3.28125 3.0576,1.5566 5.4515,3.84405 7.5,7.15625 2.93,4.7375 3,5.1844 3,17.5 0,12.0923 -0.1195,12.89465 -3,18.53125 -2.0155,3.9441 -4.4515,6.9043 -7.3437,8.9375 -3.8307,2.6928 -5.2931,3.09375 -12.75,3.40625 l -8.4063,0.34375 0,-29.09375 0,-29.0625 2.5938,-0.65625 c 1.0361,-0.26005 2.3968,-0.3766 3.9375,-0.34375 z"
         id="path7143" />
    </g>
    <path
       id="path7059"
       d="m 1028.769,-865.47144 c -12.8912,-3.46688 -25.2722,-13.36256 -31.32505,-25.03705 -1.7846,-3.44201 -2.9988,-6.50418 -2.6981,-6.80482 0.5834,-0.58337 20.31385,-6.58014 21.62915,-6.57383 0.4299,0.002 1.6058,2.00775 2.613,4.45709 2.1105,5.13228 8.0585,10.90432 14.0317,13.61668 9.0713,4.11914 20.8877,1.12062 27.909,-7.08216 9.6687,-11.29567 8.8113,-29.57875 -1.8889,-40.27889 -5.1351,-5.13511 -9.7487,-6.99668 -18.6331,-7.51836 l -7.75,-0.45508 0,-9.87152 0,-9.87151 7.75,-0.01 c 9.037,-0.0114 15.7133,-2.59843 20.9493,-8.11777 11.955,-12.60193 6.3918,-32.92284 -10.5985,-38.71384 -4.1905,-1.4283 -12.3709,-1.4891 -17.2702,-0.1283 -5.2572,1.4602 -13.3221,9.07123 -15.4127,14.54541 -0.9494,2.48597 -2.2193,4.34492 -2.822,4.13099 -0.6028,-0.21393 -5.7067,-1.69796 -11.3421,-3.29784 -5.63545,-1.59989 -10.24795,-3.27425 -10.24995,-3.72081 0,-0.44655 1.2035,-3.37155 2.6792,-6.49995 5.38755,-11.4222 18.50985,-21.3707 32.55665,-24.6825 8.2505,-1.9453 21.0409,-1.904 27.8288,0.09 13.322,3.913 26.1918,14.1236 31.5459,25.0277 2.6497,5.39652 2.8856,6.77596 2.8856,16.87687 0,9.94779 -0.2675,11.57393 -2.7968,17 -1.6906,3.6267 -5.1931,8.4258 -8.8549,12.13273 l -6.0581,6.13273 4.3549,4.0272 c 9.8681,9.12555 14.331,21.24517 13.6819,37.1547 -0.3336,8.17779 -0.8496,10.53306 -3.5849,16.36475 -5.9073,12.59453 -18.277,23.01071 -32.1736,27.09251 -6.7022,1.96862 -19.6647,1.97575 -26.9562,0.0148 z"
       style="fill:#000000" />
  </g>
</svg>
