<?xml version="1.0" encoding="UTF-8" standalone="no"?>
<!-- Created with Inkscape (http://www.inkscape.org/) -->
<svg xmlns:dc="http://purl.org/dc/elements/1.1/" xmlns:cc="http://web.resource.org/cc/" xmlns:rdf="http://www.w3.org/1999/02/22-rdf-syntax-ns#" xmlns:svg="http://www.w3.org/2000/svg" xmlns="http://www.w3.org/2000/svg" xmlns:sodipodi="http://sodipodi.sourceforge.net/DTD/sodipodi-0.dtd" xmlns:inkscape="http://www.inkscape.org/namespaces/inkscape" id="svg2211" sodipodi:version="0.32" inkscape:version="0.45.1" width="566.93933" height="570" version="1.0" sodipodi:docbase="C:\Documents and Settings\steven.williamson\Desktop" sodipodi:docname="40th_Infantry_Division SSI.svg" inkscape:output_extension="org.inkscape.output.svg.inkscape">
  <metadata id="metadata2216">
    <rdf:RDF>
      <cc:Work rdf:about="">
        <dc:format>image/svg+xml</dc:format>
        <dc:type rdf:resource="http://purl.org/dc/dcmitype/StillImage"/>
      </cc:Work>
    </rdf:RDF>
  </metadata>
  <defs id="defs2214"/>
  <sodipodi:namedview inkscape:window-height="968" inkscape:window-width="1280" inkscape:pageshadow="2" inkscape:pageopacity="0.0" guidetolerance="10.0" gridtolerance="10.0" objecttolerance="10.0" borderopacity="1.0" bordercolor="#666666" pagecolor="#ffffff" id="base" inkscape:zoom="0.49605263" inkscape:cx="94.5" inkscape:cy="112.71344" inkscape:window-x="-4" inkscape:window-y="-4" inkscape:current-layer="svg2211"/>
  <g id="g12032" transform="matrix(3.01042, 0, 0, 3.01042, 0.0551248, 0.259757)">
    <rect transform="matrix(0.705204, 0.709005, -0.705204, 0.709005, 0, 0)" y="-66.340103" x="67.156799" height="132.60695" width="132.60596" id="rect7116" style="fill:#0000ff;fill-opacity:1;fill-rule:nonzero;stroke:none;stroke-width:1.30000925;stroke-linecap:round;stroke-linejoin:round;stroke-miterlimit:4;stroke-dasharray:none;stroke-opacity:1"/>
    <g transform="translate(-0.563704, -1.13004)" id="g9060">
      <g id="g5156">
        <path sodipodi:nodetypes="cccc" id="path2220" d="M 81.644563,46.870026 L 83.786472,82.40053 L 96.763926,77.612732 L 81.644563,46.870026 z " style="fill:#ffcc33;fill-opacity:1;fill-rule:evenodd;stroke:none;stroke-width:1px;stroke-linecap:butt;stroke-linejoin:miter;stroke-opacity:1"/>
        <path sodipodi:nodetypes="cccc" id="path3194" d="M 59.038258,59.188804 L 78.230642,89.16642 L 87.227112,78.659234 L 59.038258,59.188804 z " style="fill:#ffcc33;fill-opacity:1;fill-rule:evenodd;stroke:none;stroke-width:1px;stroke-linecap:butt;stroke-linejoin:miter;stroke-opacity:1"/>
        <path sodipodi:nodetypes="cccc" id="path3196" d="M 46.40498,82.060492 L 77.908377,98.629749 L 80.533843,85.048725 L 46.40498,82.060492 z " style="fill:#ffcc33;fill-opacity:1;fill-rule:evenodd;stroke:none;stroke-width:1px;stroke-linecap:butt;stroke-linejoin:miter;stroke-opacity:1"/>
        <path sodipodi:nodetypes="cccc" id="path3198" d="M 45.971481,107.73636 L 81.537563,106.30159 L 77.008835,93.231474 L 45.971481,107.73636 z " style="fill:#ffcc33;fill-opacity:1;fill-rule:evenodd;stroke:none;stroke-width:1px;stroke-linecap:butt;stroke-linejoin:miter;stroke-opacity:1"/>
        <path sodipodi:nodetypes="cccc" id="path3200" d="M 59.390122,130.85312 L 88.851353,110.87712 L 78.110654,102.16077 L 59.390122,130.85312 z " style="fill:#ffcc33;fill-opacity:1;fill-rule:evenodd;stroke:none;stroke-width:1px;stroke-linecap:butt;stroke-linejoin:miter;stroke-opacity:1"/>
        <path sodipodi:nodetypes="cccc" id="path3202" d="M 81.585423,144.58528 L 96.639653,112.33043 L 82.949252,110.35299 L 81.585423,144.58528 z " style="fill:#ffcc33;fill-opacity:1;fill-rule:evenodd;stroke:none;stroke-width:1px;stroke-linecap:butt;stroke-linejoin:miter;stroke-opacity:1"/>
        <path sodipodi:nodetypes="cccc" id="path3204" d="M 107.09801,143.62622 L 106.16963,108.04333 L 93.036378,112.38555 L 107.09801,143.62622 z " style="fill:#ffcc33;fill-opacity:1;fill-rule:evenodd;stroke:none;stroke-width:1px;stroke-linecap:butt;stroke-linejoin:miter;stroke-opacity:1"/>
        <path sodipodi:nodetypes="cccc" id="path3206" d="M 130.09716,131.00526 L 111.25586,100.80574 L 102.13741,111.20723 L 130.09716,131.00526 z " style="fill:#ffcc33;fill-opacity:1;fill-rule:evenodd;stroke:none;stroke-width:1px;stroke-linecap:butt;stroke-linejoin:miter;stroke-opacity:1"/>
        <path sodipodi:nodetypes="cccc" id="path3208" d="M 143.21907,108.14729 L 111.1762,92.646993 L 109.00901,106.30865 L 143.21907,108.14729 z " style="fill:#ffcc33;fill-opacity:1;fill-rule:evenodd;stroke:none;stroke-width:0.99999988px;stroke-linecap:butt;stroke-linejoin:miter;stroke-opacity:1"/>
        <path sodipodi:nodetypes="cccc" id="path3210" d="M 143.4403,81.973456 L 107.9082,84.088633 L 112.68623,97.069687 L 143.4403,81.973456 z " style="fill:#ffcc33;fill-opacity:1;fill-rule:evenodd;stroke:none;stroke-width:1px;stroke-linecap:butt;stroke-linejoin:miter;stroke-opacity:1"/>
        <path sodipodi:nodetypes="cccc" id="path3212" d="M 130.0782,58.900125 L 100.73105,79.043353 L 111.52115,87.698476 L 130.0782,58.900125 z " style="fill:#ffcc33;fill-opacity:1;fill-rule:evenodd;stroke:none;stroke-width:1px;stroke-linecap:butt;stroke-linejoin:miter;stroke-opacity:1"/>
        <path sodipodi:nodetypes="cccc" id="path3214" d="M 107.59008,46.895274 L 91.181588,78.482698 L 104.77581,81.038918 L 107.59008,46.895274 z " style="fill:#ffcc33;fill-opacity:1;fill-rule:evenodd;stroke:none;stroke-width:1px;stroke-linecap:butt;stroke-linejoin:miter;stroke-opacity:1"/>
        <path transform="matrix(1.69976, 0, 0, 1.58118, -71.8691, -61.8125)" d="M 110.62334 99.094826 A 12.599469 13.54443 0 1 1  85.424403,99.094826 A 12.599469 13.54443 0 1 1  110.62334 99.094826 z" sodipodi:ry="13.54443" sodipodi:rx="12.599469" sodipodi:cy="99.094826" sodipodi:cx="98.023872" id="path3216" style="opacity:1;fill:#ffcc33;fill-opacity:1;fill-rule:nonzero;stroke:none;stroke-width:0.06099804;stroke-linecap:round;stroke-linejoin:round;stroke-miterlimit:4;stroke-dasharray:none;stroke-opacity:1" sodipodi:type="arc"/>
      </g>
      <path style="opacity:1;fill:#ff9933;fill-opacity:1;fill-rule:nonzero;stroke:none;stroke-width:0.59506524;stroke-linecap:round;stroke-linejoin:round;stroke-miterlimit:4;stroke-dasharray:none;stroke-opacity:1" d="M 94.618277,73.681375 C 82.767348,73.681375 72.98432,83.011047 72.984326,94.663452 C 72.984326,106.31587 82.767346,115.64553 94.618277,115.64553 C 106.46921,115.64553 116.19163,106.31587 116.19163,94.663452 C 116.19163,83.011047 106.46921,73.681373 94.618277,73.681375 z M 94.618277,75.056063 C 105.96464,75.05606 115.04024,83.933462 115.04024,94.663452 C 115.04024,105.39343 105.96464,114.19849 94.618277,114.19849 C 83.27191,114.19849 74.135713,105.39343 74.135713,94.663452 C 74.135707,83.933462 83.27191,75.056063 94.618277,75.056063 z " id="path5171"/>
    </g>
    <path id="rect7120" d="M 94.567751,8.8961746 C 94.307411,8.6768021 93.922401,8.6961097 93.685178,8.9404342 L 8.7374777,94.140117 C 8.613054,94.262547 8.542952,94.430022 8.542952,94.604842 C 8.542952,94.779663 8.613054,94.947138 8.7374777,95.069568 L 93.685178,180.26925 C 93.942999,180.50865 94.343937,180.49884 94.589816,180.24712 L 179.53752,95.047438 C 179.78849,94.80083 179.79827,94.398703 179.55958,94.140117 L 94.61188,8.9404342 C 94.597886,8.9249799 94.58316,8.9102097 94.567751,8.8961746 L 94.567751,8.8961746 z M 94.148529,10.334611 L 178.16953,94.604842 L 94.148529,178.87507 L 10.127531,94.604842 L 94.148529,10.334611 z " style="fill:#000079;fill-opacity:1;fill-rule:nonzero;stroke:none;stroke-width:1.30000281;stroke-linecap:round;stroke-linejoin:round;stroke-miterlimit:4;stroke-dasharray:none;stroke-opacity:1"/>
    <path id="rect11057" d="M 94.563435,0.066469172 C 94.30341,-0.15316547 93.918868,-0.13383472 93.681931,0.11078195 L 0.15426335,94.142504 C -0.084134223,94.401402 -0.074367135,94.804011 0.17630098,95.050916 L 93.681931,189.06048 C 93.927512,189.3125 94.327963,189.32232 94.585473,189.08264 L 188.11314,95.050916 C 188.23741,94.928338 188.30743,94.760662 188.30743,94.585632 C 188.30743,94.410601 188.23741,94.242925 188.11314,94.120347 L 94.607511,0.11078195 C 94.593534,0.095309094 94.578825,0.08052108 94.563435,0.066469172 z M 94.144721,1.5066346 L 186.74681,94.607788 L 94.144721,187.70894 L 1.5426335,94.607788 L 94.144721,1.5066346 z " style="fill:#000000;fill-opacity:1;fill-rule:nonzero;stroke:none;stroke-width:1.30000925;stroke-linecap:round;stroke-linejoin:round;stroke-miterlimit:4;stroke-dasharray:none;stroke-opacity:1"/>
  </g>
</svg>