<?xml version="1.0" encoding="UTF-8" standalone="no"?>
<!-- Created with Inkscape (http://www.inkscape.org/) -->
<svg xmlns:dc="http://purl.org/dc/elements/1.1/" xmlns:cc="http://web.resource.org/cc/" xmlns:rdf="http://www.w3.org/1999/02/22-rdf-syntax-ns#" xmlns:svg="http://www.w3.org/2000/svg" xmlns="http://www.w3.org/2000/svg" xmlns:sodipodi="http://sodipodi.sourceforge.net/DTD/sodipodi-0.dtd" xmlns:inkscape="http://www.inkscape.org/namespaces/inkscape" id="svg2211" sodipodi:version="0.32" inkscape:version="0.45.1" width="735" height="729.52313" version="1.0" sodipodi:docbase="C:\Documents and Settings\steven.williamson\Desktop" sodipodi:docname="42nd_Infantry_Division_SSI.svg" inkscape:output_extension="org.inkscape.output.svg.inkscape">
  <metadata id="metadata2216">
    <rdf:RDF>
      <cc:Work rdf:about="">
        <dc:format>image/svg+xml</dc:format>
        <dc:type rdf:resource="http://purl.org/dc/dcmitype/StillImage"/>
      </cc:Work>
    </rdf:RDF>
  </metadata>
  <defs id="defs2214"/>
  <sodipodi:namedview inkscape:window-height="968" inkscape:window-width="1280" inkscape:pageshadow="2" inkscape:pageopacity="0.0" guidetolerance="10.0" gridtolerance="10.0" objecttolerance="10.0" borderopacity="1.0" bordercolor="#666666" pagecolor="#ffffff" id="base" inkscape:zoom="0.39202832" inkscape:cx="140.37008" inkscape:cy="48.996049" inkscape:window-x="-4" inkscape:window-y="-4" inkscape:current-layer="svg2211"/>
  <g id="g10987" transform="matrix(4.37823, 0, 0, 4.37823, -8.75182, -8.48224)">
    <g id="g9033">
      <path style="opacity:1;fill:#cc0033;fill-opacity:1;fill-rule:nonzero;stroke:none;stroke-width:0.20622496;stroke-linecap:round;stroke-linejoin:round;stroke-miterlimit:4;stroke-dasharray:none;stroke-opacity:1" d="M 161.875,9.5 C 79.545432,10.354048 12.791123,77.167562 10.90625,160.09375 L 96.8125,160.09375 C 98.005804,125.46516 126.65648,97.709431 161.875,97.59375 L 161.875,9.5 z " id="path2220"/>
      <path style="opacity:1;fill:#ffcc33;fill-opacity:1;fill-rule:nonzero;stroke:none;stroke-width:0.1;stroke-linecap:round;stroke-linejoin:round;stroke-miterlimit:4;stroke-dasharray:none;stroke-opacity:1" d="M 161.875,38.6875 C 94.956323,38.937696 40.459922,92.838482 38.21875,160.09375 L 96.8125,160.09375 C 98.005804,125.46516 126.65648,97.709431 161.875,97.59375 L 161.875,38.6875 z " id="path4163"/>
      <path style="opacity:1;fill:#0000cc;fill-opacity:1;fill-rule:nonzero;stroke:none;stroke-width:0.09999998;stroke-linecap:round;stroke-linejoin:round;stroke-miterlimit:4;stroke-dasharray:none;stroke-opacity:1" d="M 161.875,66.125 C 111.71005,67.797296 71.365951,109.06215 70.1875,160.09375 L 96.8125,160.09375 C 98.005804,125.46516 126.65648,97.709431 161.875,97.59375 L 161.875,66.125 z " id="path5134"/>
    </g>
    <path id="path9038" d="M 165.4375,1.9375 C 76.337571,2.8566451 4.0392437,74.843147 2,164.0625 C 1.9740085,165.24749 2.4268283,166.39292 3.2560774,167.23982 C 4.0853265,168.08671 5.2209736,168.56354 6.40625,168.5625 L 68.875,168.5625 L 96.9375,168.5625 C 99.299735,168.54868 101.23023,166.67334 101.3125,164.3125 C 101.34961,163.24144 101.41193,162.19243 101.5,161.15625 C 101.94404,155.93227 103.06358,150.85575 104.71875,146.0625 C 105.06262,145.06667 105.38935,144.11866 105.75,143.21875 C 106.10783,142.32591 106.4976,141.42914 106.9375,140.46875 C 116.99237,118.51633 139.38708,103.1478 165.5,103.0625 C 167.92194,103.04686 169.8766,101.07824 169.875,98.65625 L 169.875,65.6875 L 169.875,6.34375 C 169.87578,5.1694728 169.40751,4.0435234 168.57424,3.2161231 C 167.74097,2.3887228 166.61174,1.9284169 165.4375,1.9375 z M 161.09375,11.03125 L 161.09375,65.6875 L 161.09375,94.59375 C 133.43633,96.316923 109.82858,113.0344 98.9375,136.8125 C 98.480616,137.80997 98.008601,138.82441 97.5625,139.9375 C 97.119234,141.04355 96.739493,142.13194 96.375,143.1875 C 94.558805,148.44707 93.354546,154.01821 92.8125,159.75 L 68.875,159.75 L 11.125,159.75 C 15.275238,78.779869 80.260612,14.155921 161.09375,11.03125 z " style="opacity:1;fill:#006600;fill-opacity:1;fill-rule:nonzero;stroke:none;stroke-width:8.80599976;stroke-linecap:round;stroke-linejoin:round;stroke-miterlimit:4;stroke-dasharray:none;stroke-opacity:1"/>
  </g>
</svg>