<?xml version="1.0" encoding="UTF-8" standalone="no"?>
<!-- Created with Inkscape (http://www.inkscape.org/) -->

<svg
   xmlns:dc="http://purl.org/dc/elements/1.1/"
   xmlns:cc="http://creativecommons.org/ns#"
   xmlns:rdf="http://www.w3.org/1999/02/22-rdf-syntax-ns#"
   xmlns:svg="http://www.w3.org/2000/svg"
   xmlns="http://www.w3.org/2000/svg"
   xmlns:sodipodi="http://sodipodi.sourceforge.net/DTD/sodipodi-0.dtd"
   xmlns:inkscape="http://www.inkscape.org/namespaces/inkscape"
   width="600"
   height="600"
   id="svg2"
   version="1.1"
   inkscape:version="0.47 r22583"
   style="display:inline"
   sodipodi:docname="43rd ssi.svg">
  <defs
     id="defs4">
    <inkscape:perspective
       sodipodi:type="inkscape:persp3d"
       inkscape:vp_x="0 : 526.18109 : 1"
       inkscape:vp_y="0 : 1000 : 0"
       inkscape:vp_z="744.09448 : 526.18109 : 1"
       inkscape:persp3d-origin="372.04724 : 350.78739 : 1"
       id="perspective10" />
    <inkscape:perspective
       id="perspective2824"
       inkscape:persp3d-origin="0.5 : 0.33333333 : 1"
       inkscape:vp_z="1 : 0.5 : 1"
       inkscape:vp_y="0 : 1000 : 0"
       inkscape:vp_x="0 : 0.5 : 1"
       sodipodi:type="inkscape:persp3d" />
    <inkscape:perspective
       id="perspective3613"
       inkscape:persp3d-origin="0.5 : 0.33333333 : 1"
       inkscape:vp_z="1 : 0.5 : 1"
       inkscape:vp_y="0 : 1000 : 0"
       inkscape:vp_x="0 : 0.5 : 1"
       sodipodi:type="inkscape:persp3d" />
    <inkscape:perspective
       id="perspective3613-7"
       inkscape:persp3d-origin="0.5 : 0.33333333 : 1"
       inkscape:vp_z="1 : 0.5 : 1"
       inkscape:vp_y="0 : 1000 : 0"
       inkscape:vp_x="0 : 0.5 : 1"
       sodipodi:type="inkscape:persp3d" />
    <inkscape:perspective
       id="perspective3613-0"
       inkscape:persp3d-origin="0.5 : 0.33333333 : 1"
       inkscape:vp_z="1 : 0.5 : 1"
       inkscape:vp_y="0 : 1000 : 0"
       inkscape:vp_x="0 : 0.5 : 1"
       sodipodi:type="inkscape:persp3d" />
    <inkscape:perspective
       id="perspective3663"
       inkscape:persp3d-origin="0.5 : 0.33333333 : 1"
       inkscape:vp_z="1 : 0.5 : 1"
       inkscape:vp_y="0 : 1000 : 0"
       inkscape:vp_x="0 : 0.5 : 1"
       sodipodi:type="inkscape:persp3d" />
    <inkscape:perspective
       id="perspective3663-8"
       inkscape:persp3d-origin="0.5 : 0.33333333 : 1"
       inkscape:vp_z="1 : 0.5 : 1"
       inkscape:vp_y="0 : 1000 : 0"
       inkscape:vp_x="0 : 0.5 : 1"
       sodipodi:type="inkscape:persp3d" />
    <inkscape:perspective
       id="perspective3663-2"
       inkscape:persp3d-origin="0.5 : 0.33333333 : 1"
       inkscape:vp_z="1 : 0.5 : 1"
       inkscape:vp_y="0 : 1000 : 0"
       inkscape:vp_x="0 : 0.5 : 1"
       sodipodi:type="inkscape:persp3d" />
  </defs>
  <sodipodi:namedview
     id="base"
     pagecolor="#ffffff"
     bordercolor="#666666"
     borderopacity="1.0"
     inkscape:pageopacity="0.0"
     inkscape:pageshadow="2"
     inkscape:zoom="0.70710678"
     inkscape:cx="-60.227976"
     inkscape:cy="247.96887"
     inkscape:document-units="px"
     inkscape:current-layer="layer2"
     showgrid="false"
     inkscape:window-width="1440"
     inkscape:window-height="838"
     inkscape:window-x="-8"
     inkscape:window-y="-8"
     inkscape:window-maximized="1" />
  <metadata
     id="metadata7">
    <rdf:RDF>
      <cc:Work
         rdf:about="">
        <dc:format>image/svg+xml</dc:format>
        <dc:type
           rdf:resource="http://purl.org/dc/dcmitype/StillImage" />
        <dc:title />
      </cc:Work>
    </rdf:RDF>
  </metadata>
  <g
     inkscape:groupmode="layer"
     id="layer2"
     inkscape:label="Layer"
     style="display:inline">
    <path
       sodipodi:type="arc"
       style="fill:#dc251e;fill-rule:evenodd;stroke:none;fill-opacity:1"
       id="path2831"
       sodipodi:cx="84"
       sodipodi:cy="150"
       sodipodi:rx="138"
       sodipodi:ry="131"
       d="m 222,150 a 138,131 0 1 1 -276,0 138,131 0 1 1 276,0 z"
       transform="matrix(0.97896386,0.03318158,-0.03250146,0.99944934,60.47068,148.79535)" />
    <path
       sodipodi:type="arc"
       style="fill:#dc251e;fill-rule:evenodd;stroke:none;fill-opacity:1"
       id="path2831-1"
       sodipodi:cx="84"
       sodipodi:cy="150"
       sodipodi:rx="138"
       sodipodi:ry="131"
       d="m 222,150 a 138,131 0 1 1 -276,0 138,131 0 1 1 276,0 z"
       transform="matrix(0.96872112,0.03318158,-0.0321614,0.99944934,224.45163,-21.70465)" />
    <path
       sodipodi:type="arc"
       style="fill:#dc251e;fill-rule:evenodd;stroke:none;fill-opacity:1"
       id="path2831-4"
       sodipodi:cx="84"
       sodipodi:cy="150"
       sodipodi:rx="138"
       sodipodi:ry="131"
       d="m 222,150 a 138,131 0 1 1 -276,0 138,131 0 1 1 276,0 z"
       transform="matrix(0.98408523,0.03318158,-0.03267149,0.99944934,383.11624,148.79535)" />
    <path
       sodipodi:type="arc"
       style="fill:#dc251e;fill-rule:evenodd;stroke:none;fill-opacity:1"
       id="path2831-9"
       sodipodi:cx="84"
       sodipodi:cy="150"
       sodipodi:rx="138"
       sodipodi:ry="131"
       d="m 222,150 a 138,131 0 1 1 -276,0 138,131 0 1 1 276,0 z"
       transform="matrix(0.95335701,0.03210702,-0.03165132,0.96708294,224.9586,319.99793)" />
  </g>
  <g
     inkscape:groupmode="layer"
     id="layer4"
     inkscape:label="Layer#2"
     style="display:inline">
    <path
       style="fill:none;stroke:#000000;stroke-width:2.75600004;stroke-miterlimit:4;stroke-opacity:1;stroke-dasharray:none"
       d="m 299.8125,10.96875 c -68.35385,0 -123.75,54.770951 -123.75,122.34375 0,20.60097 5.15283,39.99832 14.25,57.03125 -16.45609,-8.0006 -34.98534,-12.5 -54.5625,-12.5 -68.353847,0 -123.75,54.77095 -123.75,122.34375 0,67.5728 55.396153,122.34375 123.75,122.34375 19.46132,0 37.89835,-4.43178 54.28125,-12.34375 -8.03946,16.29977 -12.5625,34.6588 -12.5625,54.0625 0,67.57431 54.76944,122.34375 122.34375,122.34375 67.57431,0 122.34375,-54.76944 122.34375,-122.34375 0,-19.57801 -4.60579,-38.09103 -12.78125,-54.5 16.96111,8.63652 36.201,13.5 56.59375,13.5 68.35385,0 123.78125,-54.77095 123.78125,-122.34375 0,-67.5728 -55.4274,-122.375 -123.78125,-122.375 -20.95246,0 -40.67157,5.1652 -57.96875,14.25 9.92598,-17.60695 15.59375,-37.88132 15.59375,-59.46875 0,-67.572799 -55.4274,-122.34375 -123.78125,-122.34375 z m 58,230.46875 c -9.92139,17.6039 -15.59375,37.88669 -15.59375,59.46875 0,19.42817 4.5982,37.7787 12.75,54.09375 -16.57645,-8.38799 -35.3083,-13.125 -55.15625,-13.125 -18.92053,0 -36.81971,4.30115 -52.8125,11.96875 8.01507,-16.20515 12.53125,-34.40239 12.53125,-53.65625 0,-20.60097 -5.15283,-39.99832 -14.25,-57.03125 16.454,7.99806 34.95741,12.5 54.53125,12.5 20.95626,0 40.70057,-5.13087 58,-14.21875 z"
       id="path3653" />
  </g>
  <g
     inkscape:groupmode="layer"
     id="layer3"
     inkscape:label="Layer#1"
     style="display:inline">
    <path
       style="fill:#1f1a17;fill-opacity:1;stroke:none"
       d="M 232.87868,266.35355 C 226.0197,263.43493 222.1219,256.56806 218,250 219.7072,238.23674 201.23934,229.5894 198.87868,227 165.82417,219.04908 155.66858,207.95504 140.12132,195.06066 125.96687,194.51042 111.75577,220.81135 115,225 c 2.39327,4.67623 8.8799,11.1477 8.93934,15.93934 3.68408,5.58048 -12.21301,17.89499 -9.52513,31.76777 2.25496,15.70972 10.40772,17.71779 16.87868,27.52512 -9.96021,9.4155 -12.01355,13.75719 -10.46446,21.5962 5.23475,10.03976 12.16527,13.90147 22.11091,16.4038 9.32716,4.99409 14.68701,14.36303 16.47487,24.3033 L 159,378.46447 c 2.59204,11.29808 16.18433,16.39159 27.87868,17.59619 4.93985,-1.41537 10.79931,15.73256 15.13922,21.37434 8.9176,11.59267 22.44118,19.35187 39.9821,21.565 43.90933,-4.59728 45.43506,-37.0483 46.23223,-63.58579 l 2.68024,-0.2654 L 291.41421,394 c -1.34042,20.92863 -3.53899,38.72674 -7.35355,55.76777 -5.99939,25.50449 0.18163,47.35486 2.93934,70.23223 2.63489,6.78733 26.39902,7.88249 29.18198,2.17157 C 320.57473,508.6155 322.20422,495.26878 320,477 c -7.53035,-32.75408 -4.5681,-66.31527 0,-100 l 3.76777,1.35355 c -1.07437,16.51905 2.54889,24.70349 8,29.93934 8.59784,10.79678 15.76956,17.06432 32,18.35356 C 388.46172,428.7208 410.99408,411.44526 427,392 c 9.97429,-17.98597 20.8207,-20.55774 28.93934,-35.70711 11.37194,-26.82076 9.07962,-27.0713 11.06066,-38.52512 2.12709,-5.40995 3.95534,-3.82179 8.92475,-7.2468 C 479.89359,307.78558 485.27563,304.20059 486,298 c 1.60034,-17.91658 -14.04031,-17.31318 -9,-32 3.78116,-12.06424 15.22587,-14.82147 15,-25 -2.18376,-6.82763 -11.3555,-12.03305 -13.46447,-17 -0.91632,-29.38718 -14.04148,-37.53104 -24.0104,-40.23223 C 431.37746,182.89824 401.73963,198.7546 388,208 c -15.7389,15.45046 -13.28894,29.38519 -19,44 -4.64808,6.75304 -10.75283,0.68525 -9,-5 31.0458,-59.08254 21.43896,-65.32921 23.12132,-71 0.44855,-17.63344 -3.02768,-30.85152 -10.12132,-40 -5.5137,-9.45891 -18.55054,-2.71233 -22,-12 0.32421,-7.47749 2.83761,-14.64225 -3,-23 C 337.86521,90.199452 328.98821,80.842852 326.12132,72.767767 322.72518,65.996402 314.05554,65.42374 306.47487,62 296.42941,47.440429 290.03461,40.075193 283,40 277.80056,37.869318 272.68592,36.618582 268.41421,43.767767 260.43348,52.511845 258.61554,61.255922 255,70 247.30775,77.432195 237.44238,83.826547 227.06066,87.414214 222.85291,90.09956 219.44669,93.553249 219,100 c 2,6.58609 4,10.14194 6,14 0.88127,1.30006 -1.60273,3.94623 -10.13173,9.01041 -4.44582,1.12923 -5.08976,5.10987 -5.86827,8.98959 -0.16542,7.33283 2.45502,13.55133 7,19 0.83535,8.33736 -1.07282,11.1877 -3,14 -7.27712,5.43508 -12.37292,10.5066 -14,15 -2.6886,9.02193 -2.53604,17.67758 1.18198,20.29289 L 218,223 c 9.60303,12.87289 13.94787,23.30365 14.34031,31.61431 0.1751,3.7081 0.56269,7.51389 0.53837,11.73924 z"
       id="path3648"
       sodipodi:nodetypes="cccccccccccccscccccccccccccccscccccccccccccccccccccccccccsc" />
  </g>
</svg>
