<?xml version="1.0" encoding="utf-8"?>
<!-- Generator: Adobe Illustrator 13.0.1, SVG Export Plug-In . SVG Version: 6.00 Build 14948)  -->
<!DOCTYPE svg PUBLIC "-//W3C//DTD SVG 1.1//EN" "http://www.w3.org/Graphics/SVG/1.1/DTD/svg11.dtd">
<svg version="1.1" id="svg2" xmlns:svg="http://www.w3.org/2000/svg"
	 xmlns="http://www.w3.org/2000/svg" xmlns:xlink="http://www.w3.org/1999/xlink" x="0px" y="0px" width="500px" height="500px"
	 viewBox="0 0 500 500" enable-background="new 0 0 500 500" xml:space="preserve">
<path id="path3824" fill="#FF0000" enable-background="new    " d="M498,249.5C498,386.742,386.743,498,249.5,498
	C112.257,498,1,386.742,1,249.5C1,112.257,112.257,1,249.5,1C386.743,1,498,112.257,498,249.5L498,249.5z"/>
<path id="path3826" fill="none" stroke="#000000" stroke-width="2.3452" enable-background="new    " d="M470.5,249.5
	c0,122.055-98.945,221-221,221c-122.055,0-221-98.945-221-221s98.945-221,221-221C371.555,28.5,470.5,127.445,470.5,249.5
	L470.5,249.5z"/>
<path id="path3828" fill="#FFFFFF" enable-background="new    " d="M444.5,249.5c0,107.695-87.305,195-195,195s-195-87.305-195-195
	s87.305-195,195-195S444.5,141.805,444.5,249.5L444.5,249.5z"/>
<path id="path3830" fill="#0926EE" enable-background="new    " d="M433.748,249.5c0,101.758-82.49,184.248-184.248,184.248
	S65.252,351.258,65.252,249.5S147.742,65.252,249.5,65.252S433.748,147.742,433.748,249.5L433.748,249.5z"/>
<g>
	<path fill="#FFFFFF" d="M126.776,349.758c-2.422-20.528-2.515-44.645,6.057-64.091c13.027-8,19.75-6,25.896-31.967
		c2.458-10.385,3.841-11.844,20.306-45.022s40.379-60.488,69.314-81.915c12.668-7.987,24.546,4.753,36.651,8.07
		c16.85-3.708,33.44,2.798,45.666,14c13.101,11.189,29.876,26.158,25.432,45.278c-3.618,16.847-16.319,29.347-34.261,34.805
		c-11.504,3.5-17.582,17.853-26.254,27c-20.333-0.982-42.24-0.994-53.25-1.5c-21.75-1-14.3-25.089-10-38.5
		c4.012-12.513,16.583-45.5,35.25-74c-22.167,21-28.819,39.083-37.75,63.25c-8.5,23-20.75,58.75,10.5,58.5
		c18.125,2.066,36.226-0.107,53.75,5.5c10.25,41.75,57.009,29.357,63.808,15.981c-6.058,4.852-25.225,8.185-39.725-0.648
		s-13.72-31.371-1.833-41c10.139-9.795,25.324-12.785,35.03-23.08c13.132-13.448,18.557-32.874,17.111-51.37
		c-0.156-15.385-1.469-34.841,13.298-44.404c6.854-5.144,13.737-5.889,8.047,3.482c-9.111,18.163-1.886,31.033,2.639,46.038
		c5.724,21.584,11.566,45.907-0.054,66.597c-6.475,13.989-15.112,27.018-26.076,37.893c10.585,5.95,26.309,8.643,28.988,22.338
		c0.934,13.472,1.267,23.589,0.697,40.664c-23.764-10.909-52.877-12.384-80.764-15.409c-46.422-3.941-96.085-2.235-141.468,8.923
		c-15.928,4.384-31.72,10.44-46.508,17.141l-0.304-0.504L126.776,349.758L126.776,349.758L126.776,349.758z"/>
	<path fill="#FFFFFF" d="M94.708,310.792c-4.821-2.31-7.628-5.36-10.375-8.458C71.042,287.347,62.25,263.75,80.75,234.75
		c25.482-39.946,24.25-59.5,27.917-91.417c10.833,10.833,16.078,33.01,15.5,48.833c-0.833,22.833-14.333,44.5-14.537,52.136
		c-0.116,4.363,0.376,6.122,7.574,9.278c-6.563,17.181-10.66,26.801-11.761,40.486c-0.309,3.84-1.047,9.521-0.985,17.1
		C101.764,311.194,98.02,312.378,94.708,310.792z"/>
	<path fill="#FFFFFF" d="M398.833,284.417c-3.25-4.625-7.25-6.5-15.5-10.25c4.292-5.854,11.75-14.625,15.5-23.75
		c2.625,4.25,9.375,18,9,34.125L398.833,284.417z"/>
	<path fill="#FFFFFF" d="M203.667,143.5c-17.667,18.667-34.449,44.216-46.5,70c-16.347,34.976-21.5,65.667-33.333,64.417
		C109.963,276.452,158.417,171.125,203.667,143.5z"/>
	<path fill="#FFFFFF" d="M384.75,353.25c0.357,11.252-54.423,20.153-120.5,22.25c-66.078,2.094-120.301-3.349-120.658-14.602
		c-0.357-11.252,51.332-25.052,117.408-27.148C327.078,331.656,384.395,341.997,384.75,353.25z"/>
</g>
</svg>
