<?xml version="1.0" encoding="UTF-8"?>
<svg width="715" height="715" version="1.1" xmlns="http://www.w3.org/2000/svg" xmlns:xlink="http://www.w3.org/1999/xlink">
 <path d="m671.14 357.5-313.64 313.64-313.64-313.64 313.64-313.64zm42.011 0-355.65 355.65-355.65-355.65 355.65-355.65z" fill="#e5d07c" stroke="#7f6911" stroke-linejoin="round" stroke-width="4"/>
 <g id="b">
  <path id="a" d="m358.45 74.092c-14.264 13.63-42.315 38.67-42.791 76.549-24.09 0.31697-47.23 15.373-62.287 38.037l41.842 34.234-3.8066 33.758c17.161-10.535 36.399-16.814 55.631-18.561v84.289h20.922v-84.373c19.471 1.6572 38.135 8.2242 53.727 20.07l-0.47461-37.086 40.414-29.479c-15.215-25.992-37.087-38.195-62.762-39.463 3.6452-35.026-23.615-63.396-40.414-77.977z" fill="#007a00"/>
  <use transform="rotate(90,357.5,357.5)" xlink:href="#a"/>
 </g>
 <use transform="rotate(180,357.5,357.5)" xlink:href="#b"/>
 <circle cx="357.5" cy="357.5" r="34.366" fill="none" stroke="#007a00" stroke-width="27"/>
</svg>
