<?xml version="1.0" encoding="UTF-8" standalone="no"?>
<!-- Created with Inkscape (http://www.inkscape.org/) -->
<svg
   xmlns:dc="http://purl.org/dc/elements/1.1/"
   xmlns:cc="http://creativecommons.org/ns#"
   xmlns:rdf="http://www.w3.org/1999/02/22-rdf-syntax-ns#"
   xmlns:svg="http://www.w3.org/2000/svg"
   xmlns="http://www.w3.org/2000/svg"
   xmlns:sodipodi="http://sodipodi.sourceforge.net/DTD/sodipodi-0.dtd"
   xmlns:inkscape="http://www.inkscape.org/namespaces/inkscape"
   id="svg2"
   sodipodi:version="0.32"
   inkscape:version="0.46"
   width="598.86395"
   height="570.34277"
   version="1.0"
   sodipodi:docname="51_INF_DIV_SSI.svg"
   inkscape:output_extension="org.inkscape.output.svg.inkscape">
  <metadata
     id="metadata7">
    <rdf:RDF>
      <cc:Work
         rdf:about="">
        <dc:format>image/svg+xml</dc:format>
        <dc:type
           rdf:resource="http://purl.org/dc/dcmitype/StillImage" />
      </cc:Work>
    </rdf:RDF>
  </metadata>
  <defs
     id="defs5">
    <inkscape:perspective
       sodipodi:type="inkscape:persp3d"
       inkscape:vp_x="0 : 526.18109 : 1"
       inkscape:vp_y="0 : 1000 : 0"
       inkscape:vp_z="744.09448 : 526.18109 : 1"
       inkscape:persp3d-origin="372.04724 : 350.78739 : 1"
       id="perspective9" />
  </defs>
  <sodipodi:namedview
     inkscape:window-height="1895"
     inkscape:window-width="1200"
     inkscape:pageshadow="2"
     inkscape:pageopacity="0.0"
     guidetolerance="10.0"
     gridtolerance="10.0"
     objecttolerance="10.0"
     borderopacity="1.0"
     bordercolor="#666666"
     pagecolor="#ffffff"
     id="base"
     showgrid="false"
     inkscape:zoom="0.87368421"
     inkscape:cx="263.09852"
     inkscape:cy="-190.35516"
     inkscape:window-x="1200"
     inkscape:window-y="0"
     inkscape:current-layer="svg2" />
  <path
     style="fill:#1f1a17;fill-opacity:1;fill-rule:evenodd;stroke:none;stroke-width:1px;stroke-linecap:butt;stroke-linejoin:miter;stroke-opacity:1"
     d="M 299.05079,1.0436096e-14 L 0,217.91454 L 114.91598,570.34279 L 484.58161,570.34279 L 598.86393,218.43669 L 299.05079,1.0436096e-14 z"
     id="path2404"
     sodipodi:nodetypes="cccccc" />
  <path
     style="fill:#8d562f;fill-opacity:1;fill-rule:evenodd;stroke:#fede87;stroke-width:7;stroke-linecap:butt;stroke-linejoin:miter;stroke-miterlimit:4;stroke-dasharray:none;stroke-opacity:1"
     d="M 47.842005,231.83672 L 144.6592,528.25716 L 454.63607,528.25716 L 552.5661,232.03905 L 299.24296,48.319084 L 47.842005,231.83672 z"
     id="path3176" />
  <path
     style="fill:#cebe73;fill-opacity:1;fill-rule:evenodd;stroke:none;stroke-width:1px;stroke-linecap:butt;stroke-linejoin:miter;stroke-opacity:1"
     d="M 300.0523,88.786038 L 86.386779,244.98848 L 166.51135,495.07425 L 432.78391,497.50227 L 516.14584,243.3698 L 300.0523,88.786038 z"
     id="path3178" />
  <path
     style="fill:#133984;fill-opacity:1;fill-rule:evenodd;stroke:none;stroke-width:1px;stroke-linecap:butt;stroke-linejoin:miter;stroke-opacity:1"
     d="M 300.86164,89.595377 L 300.86164,496.69293 L 168.13003,495.07425 L 84.768101,245.79782 L 300.86164,89.595377 z"
     id="path3180" />
  <path
     style="opacity:1;fill:none;fill-opacity:1;fill-rule:evenodd;stroke:#fee097;stroke-width:7;stroke-linecap:butt;stroke-linejoin:miter;stroke-miterlimit:4;stroke-dasharray:none;stroke-opacity:1"
     d="M 299.84997,87.217943 L 85.57744,243.82506 L 166.76427,495.98476 L 433.34033,496.4906 L 515.13417,243.82506 L 299.84997,87.217943 z"
     id="path3182"
     sodipodi:nodetypes="cccccc" />
  <path
     style="fill:#ffffff;fill-opacity:1;fill-rule:evenodd;stroke:none;stroke-width:1px;stroke-linecap:butt;stroke-linejoin:miter;stroke-opacity:1"
     d="M 275.05858,224.96628 L 239.29051,226.11086 C 230.44728,229.40055 223.14526,233.7911 216.97124,238.98737 C 213.82564,246.39857 215.25531,253.13196 222.40798,259.01749 C 230.80719,263.37035 239.21598,267.6913 248.73329,268.31718 C 258.51675,268.22189 268.75,269.41446 277.0616,266.74339 L 295.94714,261.87893 C 303.37902,264.64211 311.31202,265.56781 317.69413,272.18014 L 321.9863,282.76749 C 308.94734,274.98277 295.13417,275.32732 281.35377,275.32773 C 267.98447,276.44251 254.2937,277.19565 243.86883,281.62291 C 234.3712,285.51923 226.28904,292.24648 218.6881,299.93616 C 210.45322,307.96087 212.92829,318.12757 213.82364,327.97833 C 204.47202,332.64524 198.97195,340.49963 200.66099,354.30363 C 186.57642,366.95603 192.64924,381.26067 201.51943,395.7946 C 211.87597,402.34536 222.18508,409.08581 233.28148,412.67713 C 249.92504,416.8319 266.91012,417.22997 283.92907,417.25544 L 324.84774,405.80966 L 358.04051,391.50243 L 392.66401,385.20725 L 418.98931,368.89701 L 439.01943,346.00544 C 442.97505,339.15748 444.27227,332.73486 438.73328,327.40604 C 429.72507,324.89445 424.24563,332.96919 417.27244,336.56267 L 384.36581,357.73737 L 386.08268,331.69821 L 372.34774,314.52954 L 358.32666,295.93014 L 360.04352,265.59881 L 347.16702,245.28255 L 317.26491,229.68767 C 302.9296,228.64137 288.00423,230.87638 275.05858,224.96628 z"
     id="path3186"
     sodipodi:nodetypes="cccccccccccccccccccccccccccccccc" />
  <path
     style="fill:#1f1a16;fill-opacity:1;fill-rule:evenodd;stroke:none;stroke-width:1px;stroke-linecap:butt;stroke-linejoin:miter;stroke-opacity:1"
     d="M 218.25889,238.8443 L 194.54465,238.88007 C 189.67666,241.05106 185.75733,242.0889 184.20768,246.31982 C 194.4951,246.98828 204.3228,246.61527 214.539,247.42863 L 214.50324,248.60897 C 198.32007,249.42728 199.68595,252.69698 184.06461,252.86538 C 184.13115,256.79985 188.72089,256.9237 191.61168,259.23209 L 223.37372,259.94746 L 215.89819,251.14851 L 216.18434,242.20649 L 218.25889,238.8443 z"
     id="path3184"
     sodipodi:nodetypes="ccccccccccc" />
  <path
     style="fill:#010000;fill-opacity:1;fill-rule:evenodd;stroke:none;stroke-width:1px;stroke-linecap:butt;stroke-linejoin:miter;stroke-opacity:1"
     d="M 252.45316,235.26749 C 249.78873,235.27277 248.5375,237.69004 248.73328,240.13195 C 249.22655,243.11109 252.03033,243.70693 253.34737,243.78029 C 256.04071,243.24653 257.92725,241.66058 257.35339,239.95311 C 256.60748,237.92819 255.37682,236.15619 252.45316,235.26749 z"
     id="path3188"
     sodipodi:nodetypes="ccccc" />
  <path
     style="fill:#8f5831;fill-opacity:1;fill-rule:evenodd;stroke:none;stroke-width:1px;stroke-linecap:butt;stroke-linejoin:miter;stroke-opacity:1"
     d="M 275.55934,226.25393 L 289.50889,261.44972 C 296.12447,261.80637 302.75271,262.1354 307.32139,266.958 L 306.89217,228.97231 C 294.73533,230.74672 283.37082,231.28095 275.55934,226.25393 z"
     id="path3190"
     sodipodi:nodetypes="ccccc" />
  <path
     style="fill:#8f5831;fill-opacity:1;fill-rule:evenodd;stroke:none;stroke-width:1px;stroke-linecap:butt;stroke-linejoin:miter;stroke-opacity:1"
     d="M 329.13991,234.98134 L 312.97274,268.7464 L 320.55557,276.32924 L 350.17154,249.28857 L 329.13991,234.98134 z"
     id="path3192" />
  <path
     style="fill:#8f5831;fill-opacity:1;fill-rule:evenodd;stroke:none;stroke-width:1px;stroke-linecap:butt;stroke-linejoin:miter;stroke-opacity:1"
     d="M 360.04352,271.60785 L 323.84624,285.34279 L 319.69714,298.2193 L 356.0375,298.50544 L 360.04352,271.60785 z"
     id="path3194" />
  <path
     style="fill:#8f5831;fill-opacity:1;fill-rule:evenodd;stroke:none;stroke-width:1px;stroke-linecap:butt;stroke-linejoin:miter;stroke-opacity:1"
     d="M 340.15648,320.96779 L 307.39292,311.0958 L 293.65798,318.39249 L 322.27244,332.2705 L 340.15648,320.96779 z"
     id="path3196" />
  <path
     style="fill:#8f5831;fill-opacity:1;fill-rule:evenodd;stroke:none;stroke-width:1px;stroke-linecap:butt;stroke-linejoin:miter;stroke-opacity:1"
     d="M 293.80105,344.28857 L 274.4863,322.54158 L 258.74834,320.68165 L 269.04955,347.43616 L 293.80105,344.28857 z"
     id="path3198" />
  <path
     style="fill:#8f5831;fill-opacity:1;fill-rule:evenodd;stroke:none;stroke-width:1px;stroke-linecap:butt;stroke-linejoin:miter;stroke-opacity:1"
     d="M 257.03148,319.39399 L 243.01039,344.00243 L 223.12334,335.56116 L 253.02545,315.38797 L 257.03148,319.39399 z"
     id="path3200" />
  <path
     style="fill:#8f5831;fill-opacity:1;fill-rule:evenodd;stroke:none;stroke-width:1px;stroke-linecap:butt;stroke-linejoin:miter;stroke-opacity:1"
     d="M 263.46973,304.22833 L 233.56762,287.63195 L 214.39593,306.37442 L 255.02846,310.66658 L 263.46973,304.22833 z"
     id="path3202" />
  <path
     style="fill:#8f5831;fill-opacity:1;fill-rule:evenodd;stroke:none;stroke-width:1px;stroke-linecap:butt;stroke-linejoin:miter;stroke-opacity:1"
     d="M 281.35377,300.07924 L 267.61883,277.18767 L 251.30858,278.61839 L 270.05105,302.36839 L 281.35377,300.07924 z"
     id="path3204" />
  <path
     style="fill:#8f5831;fill-opacity:1;fill-rule:evenodd;stroke:none;stroke-width:1px;stroke-linecap:butt;stroke-linejoin:miter;stroke-opacity:1"
     d="M 292.5134,300.07924 L 283.92907,275.90002 L 304.81762,277.61689 L 305.10377,299.93616 L 292.5134,300.07924 z"
     id="path3206" />
  <path
     style="fill:#8f5831;fill-opacity:1;fill-rule:evenodd;stroke:none;stroke-width:1px;stroke-linecap:butt;stroke-linejoin:miter;stroke-opacity:1"
     d="M 223.69563,366.60785 L 222.26491,336.27652 L 213.5375,328.69369 C 203.55841,333.78021 199.53015,341.4921 202.52093,352.30062 L 223.69563,366.60785 z"
     id="path3208"
     sodipodi:nodetypes="ccccc" />
  <path
     style="fill:#8f5831;fill-opacity:1;fill-rule:evenodd;stroke:none;stroke-width:1px;stroke-linecap:butt;stroke-linejoin:miter;stroke-opacity:1"
     d="M 241.57967,344.86086 L 250.7363,375.04911 L 276.63238,378.48285 L 267.04654,347.57924 L 241.57967,344.86086 z"
     id="path3210" />
  <path
     style="fill:#8f5831;fill-opacity:1;fill-rule:evenodd;stroke:none;stroke-width:1px;stroke-linecap:butt;stroke-linejoin:miter;stroke-opacity:1"
     d="M 281.06762,346.43466 L 305.10377,373.47532 L 330.14142,365.3202 L 297.37786,342.57171 L 281.06762,346.43466 z"
     id="path3212" />
  <path
     style="fill:#8f5831;fill-opacity:1;fill-rule:evenodd;stroke:none;stroke-width:1px;stroke-linecap:butt;stroke-linejoin:miter;stroke-opacity:1"
     d="M 319.84021,334.13044 L 349.88539,350.01146 C 357.96801,341.4977 366.09708,333.03038 369.34322,319.68014 L 340.72877,319.39399 L 319.84021,334.13044 z"
     id="path3214"
     sodipodi:nodetypes="ccccc" />
  <path
     style="fill:#8f5831;fill-opacity:1;fill-rule:evenodd;stroke:none;stroke-width:1px;stroke-linecap:butt;stroke-linejoin:miter;stroke-opacity:1"
     d="M 345.45015,354.73285 L 378.78599,369.61237 L 386.79804,346.29158 L 354.89292,346.29158 L 345.45015,354.73285 z"
     id="path3216" />
  <path
     style="fill:#8f5831;fill-opacity:1;fill-rule:evenodd;stroke:none;stroke-width:1px;stroke-linecap:butt;stroke-linejoin:miter;stroke-opacity:1"
     d="M 326.56461,367.46628 L 362.47575,385.77954 L 343.30407,398.3699 L 311.54202,373.18918 L 326.56461,367.46628 z"
     id="path3218" />
  <path
     style="fill:#8f5831;fill-opacity:1;fill-rule:evenodd;stroke:none;stroke-width:1px;stroke-linecap:butt;stroke-linejoin:miter;stroke-opacity:1"
     d="M 322.41551,406.38195 L 289.65196,376.33677 L 258.60527,376.47984 L 284.35828,415.53857 L 322.41551,406.38195 z"
     id="path3220" />
  <path
     style="fill:#8f5831;fill-opacity:1;fill-rule:evenodd;stroke:none;stroke-width:1px;stroke-linecap:butt;stroke-linejoin:miter;stroke-opacity:1"
     d="M 258.74834,415.53857 L 242.4381,373.76146 L 223.69563,367.46628 L 232.27997,411.67562 L 258.74834,415.53857 z"
     id="path3222" />
  <path
     style="fill:#8f5831;fill-opacity:1;fill-rule:evenodd;stroke:none;stroke-width:1px;stroke-linecap:butt;stroke-linejoin:miter;stroke-opacity:1"
     d="M 200.37485,390.50092 L 203.37937,354.73285 C 196.34202,357.86278 191.96105,364.00327 190.64593,373.61839 C 192.8,382.29484 196.32189,387.14139 200.37485,390.50092 z"
     id="path3224"
     sodipodi:nodetypes="cccc" />
  <path
     style="fill:#8f5831;fill-opacity:1;fill-rule:evenodd;stroke:none;stroke-width:1px;stroke-linecap:butt;stroke-linejoin:miter;stroke-opacity:1"
     d="M 361.61732,390.35785 C 377.13004,389.76997 391.2677,385.84268 404.10979,378.76899 L 378.92907,368.32472 L 361.61732,390.35785 z"
     id="path3226"
     sodipodi:nodetypes="cccc" />
  <path
     style="fill:#8f5831;fill-opacity:1;fill-rule:evenodd;stroke:none;stroke-width:1px;stroke-linecap:butt;stroke-linejoin:miter;stroke-opacity:1"
     d="M 390.66099,353.73134 L 418.13087,368.61086 L 427.00136,359.88345 L 401.82063,348.43767 L 390.66099,353.73134 z"
     id="path3228" />
  <path
     style="fill:#8f5831;fill-opacity:1;fill-rule:evenodd;stroke:none;stroke-width:1px;stroke-linecap:butt;stroke-linejoin:miter;stroke-opacity:1"
     d="M 417.70166,336.84881 L 435.87184,348.43767 L 444.3131,335.84731 C 440.49967,328.76233 435.43642,326.92657 429.71973,327.83526 L 417.70166,336.84881 z"
     id="path3230"
     sodipodi:nodetypes="ccccc" />
  <path
     style="opacity:1;fill:none;fill-rule:evenodd;stroke:#cc8624;stroke-width:6;stroke-linecap:butt;stroke-linejoin:round;stroke-miterlimit:4;stroke-dasharray:none;stroke-opacity:1"
     d="M 315.69111,302.51146 C 306.5148,298.38685 295.89104,299.56956 285.64594,299.36388 C 275.38316,300.22819 265.64806,301.92171 258.03298,306.9467 C 254.00253,311.38194 250.68373,315.81719 257.88991,320.25243 C 268.38993,326.6458 279.87351,321.72822 291.08268,319.96628 C 302.60905,317.05371 308.79263,309.76977 316.40648,303.65604 C 323.55617,295.34413 323.69971,286.07053 319.55406,274.89851 C 312.71044,266.23412 300.65686,265.13266 288.65045,262.73737 C 278.16847,268.00942 259.04709,267.70603 241.29352,267.88797 C 225.19848,264.92906 213.98754,250.83876 213.25136,245.99791 C 216.22091,236.67182 227.99309,228.34356 242.58118,224.53706 C 255.69061,225.51065 272.65732,222.92369 281.35377,227.9708 C 291.20062,231.73343 298.42706,225.87241 317.12183,229.40152 C 329.1947,232.74709 346.86263,243.53622 354.89292,253.00845 C 362.86506,263.31536 360.43015,276.49883 359.47124,288.77652 C 357.94124,298.93238 352.3461,306.71691 346.30858,314.24339 C 336.01595,324.04497 325.17235,333.05509 311.97124,338.42261 C 297.17003,345.56841 279.51615,347.38367 261.89593,348.15152 C 247.66645,346.78005 233.12337,343.44479 223.83871,337.4211 C 214.3169,329.68686 207.31874,320.66504 216.25587,303.51297 C 222.2167,295.12704 230.18369,287.91137 240.72123,282.19519 C 252.48165,276.8272 265.82558,276.60561 279.06461,276.04309 C 293.50201,276.17717 307.42385,275.998 320.4125,280.47833"
     id="path3232"
     sodipodi:nodetypes="ccccccccccccccccccccccc" />
  <path
     style="opacity:1;fill:none;fill-rule:evenodd;stroke:#cc8624;stroke-width:6;stroke-linecap:butt;stroke-linejoin:round;stroke-miterlimit:4;stroke-dasharray:none;stroke-opacity:1"
     d="M 215.54051,328.40755 C 207.3069,332.82413 196.52421,336.57754 203.2363,353.4452 C 217.36155,363.29532 231.8257,372.60887 250.45016,375.33526 C 264.92638,378.36986 280.18276,378.02205 294.23027,376.90905 C 311.54283,373.73021 325.78898,368.79324 337.72425,361.74339 C 347.85274,355.86988 358.40309,343.6755 364.62184,331.69822 C 371.46933,317.1205 366.63015,305.99566 356.75286,296.35935"
     id="path3234"
     sodipodi:nodetypes="ccccccc" />
  <path
     style="opacity:1;fill:none;fill-rule:evenodd;stroke:#cc8624;stroke-width:6;stroke-linecap:butt;stroke-linejoin:round;stroke-miterlimit:4;stroke-dasharray:none;stroke-opacity:1"
     d="M 202.95015,352.30062 C 195.73104,360.60385 187.61367,368.4458 194.07967,383.77652 C 199.76775,393.71657 213.38009,406.54127 228.41702,411.81869 C 242.04787,416.58089 264.10614,417.4709 285.78901,415.82472 C 303.21629,413.98198 323.48585,407.49782 340.44262,399.94369 C 358.73208,393.04706 369.36791,380.19781 381.07515,368.18164 C 387.56009,358.11889 387.11675,344.62241 386.08268,332.84279 C 382.17816,323.45816 373.14143,316.23507 365.90948,309.80815"
     id="path3236"
     sodipodi:nodetypes="cccccccc" />
  <path
     style="opacity:1;fill:none;fill-rule:evenodd;stroke:#cc8624;stroke-width:6;stroke-linecap:butt;stroke-linejoin:round;stroke-miterlimit:4;stroke-dasharray:none;stroke-opacity:1"
     d="M 355.82289,391.21629 C 371.58293,389.69722 392.05307,386.50643 405.03976,378.91207 C 417.78606,372.01107 430.51656,355.29038 441.16551,342.28556 C 444.87881,337.75494 444.55598,333.22432 441.02244,328.6937 C 433.26872,325.49047 428.66502,328.58729 424.28298,332.12743 C 411.62183,342.50241 398.54566,351.63233 384.36582,357.45122"
     id="path3238"
     sodipodi:nodetypes="cccccc" />
</svg>
