<?xml version="1.0" encoding="utf-8"?>
<!-- Generator: Adobe Illustrator 15.0.2, SVG Export Plug-In . SVG Version: 6.00 Build 0)  -->
<!DOCTYPE svg PUBLIC "-//W3C//DTD SVG 1.1//EN" "http://www.w3.org/Graphics/SVG/1.1/DTD/svg11.dtd">
<svg version="1.1" xmlns="http://www.w3.org/2000/svg" xmlns:xlink="http://www.w3.org/1999/xlink" x="0px" y="0px" width="300px"
	 height="365px" viewBox="0 0 300 365" enable-background="new 0 0 300 365" xml:space="preserve">
<symbol  id="BeigeSquare" viewBox="-27 -25 54 49">
	<polygon fill="#F5BA0E" points="27,-25 -27,-25 -27,24 27,24"/>
	<polygon display="none" fill="none" points="-27,24 27,24 27,-25 -27,-25"/>
</symbol>
<symbol  id="BlackSquare" viewBox="-27 -25 54 49">
	<polygon fill="#1F1A17" points="27,-25 -27,-25 -27,24 27,24"/>
	<polygon display="none" fill="none" points="-27,24 27,24 27,-25 -27,-25"/>
</symbol>
<g id="back">
	<polygon fill="#B3B3B3" points="286.196,116.418 50.539,116.418 110.969,177.001 110.689,145.993 183.149,221.764 182.103,186.014 
		283.306,314.647"/>
	<path fill="#0099FF" d="M286.196,319.418c0,0-75.401,38.019-135.125,36.132S10.196,319.418,10.196,319.418v-146l127.692,10.925
		l147.668,129.318L286.196,319.418z"/>
</g>
<g id="Airborne">
</g>
<g id="Lightning">
	<g>
		<polygon fill="#FADA04" points="204.711,244.673 204.941,281.876 128.767,220.313 127.692,259.852 13.196,175.055 13.196,115.418 
			50.011,115.418 109.196,176.019 109.196,143.467 182.196,221.133 182.196,184.321 275.461,306.157 		"/>
		<path fill="#C48D02" d="M49.165,117.418l55.16,56.658l6.871,6.877v-9.869v-22.57l66.085,70.31l6.915,7.356v-10.096v-25.86
			l77.683,101.479l-52.517-45.638l-6.679-5.804l0.055,8.848l0.176,28.558l-69.735-56.36l-6.31-5.1l-0.203,8.111l-0.877,31.634
			L15.196,174.048v-56.629h34 M50.857,113.418H11.196v62.644l118.399,87.69l1.027-39.333l76.323,61.667l-0.218-37l82.312,71.525
			L180.196,178.418v37.667l-73-77.667v32.667L50.857,113.418L50.857,113.418z"/>
	</g>
</g>
<g id="Checker">
	<g>
		
			<use xlink:href="#BlackSquare"  width="54" height="49" x="-27" y="-25" transform="matrix(1 0 0 -1 97.1963 44.4185)" overflow="visible"/>
			<use xlink:href="#BlackSquare"  width="54" height="49" x="-27" y="-25" transform="matrix(1 0 0 -1 151.1963 93.4185)" overflow="visible"/>
			<use xlink:href="#BlackSquare"  width="54" height="49" x="-27" y="-25" transform="matrix(1 0 0 -1 43.1963 93.4185)" overflow="visible"/>
			<use xlink:href="#BeigeSquare"  width="54" height="49" x="-27" y="-25" transform="matrix(1 0 0 -1 43.1963 44.4185)" overflow="visible"/>
			<use xlink:href="#BeigeSquare"  width="54" height="49" x="-27" y="-25" transform="matrix(1 0 0 -1 97.1963 93.4185)" overflow="visible"/>
			<use xlink:href="#BlackSquare"  width="54" height="49" x="-27" y="-25" transform="matrix(1 0 0 -1 205.1963 44.4185)" overflow="visible"/>
			<use xlink:href="#BlackSquare"  width="54" height="49" x="-27" y="-25" transform="matrix(1 0 0 -1 259.1963 93.4185)" overflow="visible"/>
			<use xlink:href="#BeigeSquare"  width="54" height="49" x="-27" y="-25" transform="matrix(1 0 0 -1 151.1963 44.4185)" overflow="visible"/>
			<use xlink:href="#BeigeSquare"  width="54" height="49" x="-27" y="-25" transform="matrix(1 0 0 -1 205.1963 93.4185)" overflow="visible"/>
			<use xlink:href="#BeigeSquare"  width="54" height="49" x="-27" y="-25" transform="matrix(1 0 0 -1 259.1963 44.4185)" overflow="visible"/>
	</g>
</g>
<g id="Layer_6">
	<g>
		<path fill="#6E4304" d="M281.183,22.418c-0.05,0-0.206,249.361-0.146,291.675c-13.2,9.559-31.125,17.39-52.353,23.064
			c-23.82,6.369-51.164,9.674-79.075,9.674c-53.918,0-102.949-12.255-130.469-32.648c-0.25-48.172-0.037-235.765,0.034-291.765
			h262.021 M297.196,6.418h-294c0,0-0.393,278.941,0,315.42c31.239,27.408,88.705,41.055,146.414,41.055
			c57.498,0,115.238-13.494,147.452-40.992C296.927,309.952,297.196,6.418,297.196,6.418L297.196,6.418z"/>
		<path fill="#F5BA0E" d="M283.185,20.418c-0.048,0-0.211,254.112-0.146,294.688c-13.479,9.974-31.935,18.128-53.838,23.984
			c-23.987,6.413-51.509,9.741-79.591,9.741c-54.838,0-104.742-12.65-132.463-33.646c-0.262-47.113-0.038-241.768,0.031-294.768
			h266.019 M297.196,6.418h-294c0,0-0.393,278.941,0,315.42c31.239,27.408,88.705,41.055,146.414,41.055
			c57.498,0,115.238-13.494,147.452-40.992C296.927,309.952,297.196,6.418,297.196,6.418L297.196,6.418z"/>
		<path fill="#6E4304" d="M295.194,8.418c-0.022,0-0.251,291.587-0.14,312.497c-15.065,12.609-36.738,22.812-62.754,29.768
			c-24.983,6.68-53.577,10.147-82.691,10.147c-29.184,0-57.75-3.572-82.612-10.273c-25.84-6.965-47.188-17.046-61.811-29.623
			C4.831,283.232,5.16,33.418,5.193,8.418h290.003 M297.196,6.418h-294c0,0-0.393,278.941,0,315.42
			c31.239,27.408,88.705,41.055,146.414,41.055c57.498,0,115.238-13.494,147.452-40.992
			C296.927,309.952,297.196,6.418,297.196,6.418L297.196,6.418z"/>
	</g>
	<path fill="none" stroke="#999999" stroke-miterlimit="10" d="M18.196,21.918"/>
</g>
</svg>
