<?xml version="1.0" encoding="UTF-8" standalone="no"?>
<!-- Created with Inkscape (http://www.inkscape.org/) -->

<svg
   xmlns:svg="http://www.w3.org/2000/svg"
   xmlns="http://www.w3.org/2000/svg"
   version="1.1"
   width="860.3847"
   height="818.27142"
   id="svg2"
   style="display:inline">
  <defs
     id="defs4" />
  <g
     transform="translate(-3,-3.57334)"
     id="layer3"
     style="display:inline">
    <path
       d="m 433.1875,32.9375 -201.125,146.125 -201.125,146.125 76.8125,236.46875 76.8125,236.4375 248.625,0 248.625,0 L 758.625,561.625 835.4375,325.1875 634.3125,179.0625 433.1875,32.9375 z"
       id="path3855"
       style="color:#000000;fill:#ffffff;fill-opacity:1;fill-rule:nonzero;stroke:none;stroke-width:0.704;marker:none;visibility:visible;display:inline;overflow:visible;enable-background:accumulate" />
    <path
       d="M 250,347.71428 C 260.16114,301.34253 294.95022,272.15144 354.28572,287 c -2.49947,-22.1883 1.38177,-47.38556 10.68297,-64.81654 16.36846,-30.67547 63.94322,-65.83344 69.67417,-82.32632 5.73095,16.49288 53.30571,51.65084 69.67417,82.32631 9.3012,17.43098 13.18244,42.62824 10.68297,64.81654 59.3355,-14.84856 94.12458,14.34253 104.28572,60.71428"
       id="path3750-4"
       style="color:#000000;fill:none;stroke:#079ed3;stroke-width:18.50399971;stroke-linejoin:round;stroke-miterlimit:4;stroke-opacity:1;stroke-dasharray:none;marker:none;visibility:visible;display:inline;overflow:visible;enable-background:accumulate" />
    <path
       d="m 420.375,299.6875 c -4.15596,-0.18517 -7.50318,0.12304 -9.9375,0.9375 -2.43432,0.81446 -4.01987,2.19613 -4.375,4.125 -0.43523,2.36389 -1.1766,3.81134 -2.5,4.71875 -1.3234,0.90741 -3.3352,1.3125 -6.40625,1.3125 -4.88467,0 -7.48876,1.12106 -12.3125,5.25 -1.92994,1.65196 -3.37195,3.04663 -4.375,4.25 -1.00305,1.20337 -1.58928,2.2093 -1.625,3.15625 -0.0179,0.47348 0.13997,0.92315 0.4375,1.28125 0.29753,0.3581 0.70659,0.61922 1.21875,0.8125 1.02433,0.38655 2.45757,0.53125 4.34375,0.53125 2.62159,0 4.43893,0.25783 5.375,0.65625 0.46804,0.19921 0.6785,0.43332 0.75,0.59375 0.0715,0.16043 0.0938,0.32379 -0.0937,0.65625 -0.37508,0.66491 -1.58495,1.70601 -3.53125,2.84375 -1.9463,1.13774 -4.63396,2.41578 -8.0625,3.8125 -6.57026,2.6766 -11.39868,3.61763 -14.8125,2.875 -3.41382,-0.74263 -5.55236,-3.09729 -6.875,-7.4375 -0.34157,-1.12086 -0.6909,-1.97041 -1.15625,-2.5625 -0.46535,-0.59209 -1.11186,-0.92388 -1.78125,-0.8125 -0.66939,0.11138 -1.27902,0.56824 -1.875,1.28125 -0.59598,0.71301 -1.18311,1.72246 -1.84375,3 -1.2634,2.44314 -1.69855,4.7328 -1.125,7.125 0.57355,2.3922 2.11162,4.85486 4.59375,7.6875 1.30383,1.48795 2.49763,2.42816 4.3125,2.96875 1.81487,0.54059 4.21532,0.69385 8,0.75 4.24417,0.063 9.2674,-0.55785 13.65625,-1.53125 4.38885,-0.9734 8.10842,-2.23688 9.8125,-3.71875 0.19251,-0.1674 1.03191,-0.48646 2.09375,-0.6875 1.06184,-0.20104 2.36157,-0.34375 3.625,-0.34375 1.67644,0 2.79031,0.19414 3.40625,0.5 0.61594,0.30586 0.8125,0.62426 0.8125,1.34375 0,1.28364 -0.91724,2.69111 -2.375,3.78125 -1.45776,1.09014 -3.41896,1.8478 -5.34375,1.875 -0.96133,0.0136 -1.85435,0.23713 -2.53125,0.625 -0.6769,0.38787 -1.1875,0.97733 -1.1875,1.71875 0,1.01557 0.69129,1.90327 1.71875,2.65625 1.02746,0.75298 2.42768,1.41905 4.09375,1.96875 3.33213,1.09939 7.70688,1.73333 11.96875,1.5625 3.65071,-0.14634 5.64511,-0.10355 7,0.375 1.35489,0.47855 2.19691,1.41216 3.625,3.34375 1.71934,2.32554 2.73499,5.62561 2.9375,8.6875 0.20251,3.06189 -0.42373,5.86123 -1.78125,7.21875 -2.86273,2.86273 -8.60548,4.75 -14.84375,4.75 -1.80853,0 -3.26313,0.16006 -4.3125,0.5 -0.52469,0.16997 -0.95352,0.39472 -1.28125,0.6875 -0.32773,0.29278 -0.53474,0.68689 -0.53125,1.125 0.008,1.00626 0.46427,2.4399 1.15625,4.1875 0.69198,1.7476 1.62756,3.77341 2.65625,5.75 1.02869,1.97659 2.15113,3.89523 3.1875,5.46875 1.03637,1.57352 1.96076,2.78402 2.78125,3.375 2.1849,1.57375 3.30847,2.82804 3.625,4.03125 0.31653,1.20321 -0.12119,2.52394 -1.375,4.4375 -0.72899,1.11258 -1.56516,3.20027 -2.4375,5.75 -0.87234,2.54973 -1.75171,5.5311 -2.40625,8.375 l -2.28125,9.875 -4.375,-0.34375 c -3.06796,-1.34812 -8.26865,-1.21945 -13.34375,-0.625 -5.12038,0.59975 -10.03431,1.72232 -12.375,2.5625 -0.3945,0.1416 -0.68949,0.24965 -0.9375,0.28125 -0.24801,0.0316 -0.46179,0.005 -0.78125,-0.125 -0.63892,-0.2609 -1.67887,-1.05355 -3.5,-2.75 -4.80744,-4.47832 -8.48248,-6.36803 -14.28125,-7.28125 -3.12965,-0.49288 -4.85628,-0.95192 -5.875,-1.8125 -1.01872,-0.86058 -1.50704,-2.21727 -2.0625,-4.84375 -0.56462,-2.66982 -2.30866,-6.18862 -4,-8.03125 -1.77805,-1.93711 -2.26052,-3.57393 -1.78125,-4.8125 0.47927,-1.23857 2.03292,-2.29408 4.78125,-2.84375 3.20055,-0.64011 6.6575,-2.8573 9.59375,-5.78125 2.93625,-2.92395 5.36768,-6.55426 6.4375,-10.125 3.45688,-11.53806 -2.9129,-23.13742 -15.96875,-29.3125 -17.01214,-8.04629 -37.44246,-13.40625 -51.0625,-13.40625 -2.15709,0 -4.38808,-0.16448 -6.25,-0.40625 -1.86192,-0.24177 -3.38681,-0.597 -3.90625,-0.875 -0.44613,-0.23876 -1.13802,-0.44865 -2.0625,-0.65625 -0.92448,-0.2076 -2.08189,-0.3914 -3.40625,-0.59375 -2.64872,-0.40469 -5.94747,-0.78446 -9.28125,-1.03125 -6.84186,-0.50649 -13.14691,-1.33042 -17.875,-2.25 -2.36404,-0.45979 -4.32026,-0.95629 -5.75,-1.4375 -0.71487,-0.24061 -1.3018,-0.46339 -1.71875,-0.6875 -0.41695,-0.22411 -0.65839,-0.46484 -0.71875,-0.5625 -0.34443,-0.55729 -0.99004,-0.84272 -1.75,-1.09375 -0.75996,-0.25103 -1.65772,-0.40625 -2.5625,-0.40625 -1.22048,0 -3.56678,-0.50204 -6.75,-1.46875 -3.18322,-0.96671 -7.22707,-2.39255 -11.9375,-4.21875 -1.48951,-0.57747 -6.91752,-3.13453 -11.875,-5.65625 -2.49557,-1.26942 -4.8309,-2.36307 -6.625,-3.0625 -0.89705,-0.34972 -1.6657,-0.60086 -2.25,-0.75 -0.29215,-0.0746 -0.52596,-0.11052 -0.75,-0.125 -0.22404,-0.0145 -0.45179,-0.0482 -0.71875,0.21875 -0.21142,0.21142 -0.2659,0.41331 -0.3125,0.65625 -0.0466,0.24294 -0.0871,0.51723 -0.0937,0.84375 -0.0134,0.65305 0.0578,1.48409 0.15625,2.46875 0.19686,1.96931 0.59069,4.51768 1.09375,7.1875 1.00613,5.33964 2.40353,11.13655 3.625,13.78125 2.91674,6.31525 5.00471,9.27374 11.46875,16.375 4.30774,4.7324 8.5144,7.99901 14.40625,10.53125 5.89185,2.53224 13.44645,4.33832 24.5625,6.25 9.87095,1.69756 18.90304,4.44237 25.1875,7.34375 3.14223,1.45069 5.60689,2.95714 7.125,4.34375 0.75905,0.6933 1.26424,1.34993 1.53125,1.9375 0.26701,0.58757 0.30568,1.06042 0.125,1.53125 -0.16571,0.43183 -0.35237,0.70962 -0.6875,0.9375 -0.33513,0.22788 -0.86621,0.41905 -1.6875,0.53125 -1.64258,0.22441 -4.43149,0.1516 -9.09375,-0.125 -27.20786,-1.61414 -47.24015,-5.44413 -60.875,-11.59375 -5.1919,-2.34166 -9.0633,-3.95788 -11.78125,-4.90625 -1.35897,-0.47419 -2.41552,-0.78783 -3.25,-0.9375 -0.83448,-0.14967 -1.46393,-0.187 -1.96875,0.125 -0.46916,0.28995 -0.67678,0.8461 -0.71875,1.40625 -0.042,0.56015 0.0785,1.19347 0.28125,1.90625 0.40555,1.42555 1.20045,3.1583 2.28125,5 2.1616,3.6834 5.36756,7.7466 8.46875,10.15625 14.05899,10.92393 28.20998,14.00914 56.6875,12.5 7.09171,-0.37582 12.01228,-0.51998 15.34375,-0.40625 3.33147,0.11373 5.08152,0.54895 5.625,1 0.7822,0.64917 1.27287,1.30021 1.53125,1.875 0.25838,0.57479 0.30496,1.06708 0.125,1.625 -0.35991,1.11584 -1.73002,2.4409 -4.1875,3.78125 -1.93332,1.05447 -3.91472,1.65046 -8.3125,2 -4.39778,0.34954 -11.16334,0.43329 -22.5,0.40625 -14.3347,-0.0342 -22.70695,-0.28376 -28.71875,-1.375 -6.0118,-1.09124 -9.68174,-2.99522 -14.8125,-6.5 -1.65465,-1.13027 -3.32637,-2.1845 -4.6875,-2.9375 -0.68056,-0.3765 -1.2846,-0.65675 -1.78125,-0.875 -0.49665,-0.21825 -0.8237,-0.375 -1.21875,-0.375 -0.28786,0 -0.57279,0.15008 -0.75,0.34375 -0.17721,0.19367 -0.2853,0.42567 -0.375,0.6875 -0.17939,0.52365 -0.27452,1.19087 -0.3125,2 -0.076,1.61827 0.0976,3.76664 0.40625,6.125 0.61737,4.71672 1.87058,10.15618 3.4375,13.28125 1.51314,3.01781 4.84523,7.14434 7.5625,9.3125 4.64734,3.7082 8.07994,5.78878 14.625,6.875 6.54506,1.08622 16.19758,1.20576 33.46875,1.15625 13.56038,-0.0389 21.55741,0.0184 26.21875,0.3125 2.33067,0.14703 3.84366,0.3606 4.75,0.625 0.90634,0.2644 1.14214,0.53142 1.25,0.8125 0.24403,0.63594 0.20301,1.1972 -0.125,1.8125 -0.32801,0.6153 -0.98127,1.25131 -1.90625,1.84375 -1.84996,1.18488 -4.81956,2.1846 -8.53125,2.6875 -3.55191,0.48125 -9.32401,1.43252 -12.875,2.125 -18.54995,3.61741 -28.25301,4.3412 -38.53125,2.875 -11.43084,-1.63061 -20.09735,-3.75121 -25.09375,-6.09375 -0.92672,-0.43448 -1.87709,-0.70197 -2.6875,-0.8125 -0.81041,-0.11053 -1.5001,-0.1249 -2,0.375 -0.34912,0.34912 -0.42435,0.81378 -0.40625,1.3125 0.0181,0.49872 0.13795,1.04967 0.3125,1.6875 0.3491,1.27566 0.96569,2.7964 1.6875,4.28125 0.72181,1.48485 1.54333,2.94083 2.34375,4.03125 0.40021,0.54521 0.80112,1.00223 1.1875,1.34375 0.38638,0.34152 0.76678,0.59375 1.25,0.59375 0.75323,0 1.66873,0.6312 1.875,1.25 0.17775,0.53325 0.61922,0.85037 1.21875,1.1875 0.59953,0.33713 1.39552,0.68177 2.34375,1 1.89646,0.63646 4.44319,1.24114 7.34375,1.78125 5.80113,1.08022 12.99611,1.85778 19.09375,1.875 5.47823,0.0155 14.63437,-0.8295 23.25,-1.96875 8.61563,-1.13925 16.63595,-2.5487 19.9375,-3.75 3.02104,-1.09922 6.36174,-1.84193 9.1875,-2.125 1.41288,-0.14153 2.67666,-0.15247 3.71875,-0.0625 1.04209,0.09 1.8436,0.32626 2.25,0.59375 0.43144,0.28398 0.7373,0.50041 0.90625,0.6875 0.16895,0.18709 0.21875,0.3033 0.21875,0.4375 0,0.2684 -0.34012,0.90466 -1.21875,1.96875 -2.88986,3.49983 -11.50505,6.93374 -30.3125,11.75 -20.90823,5.35423 -26.94863,5.44621 -47.3125,0.59375 -4.42952,-1.0555 -8.56701,-1.90091 -11.65625,-2.4375 -1.54462,-0.26829 -2.83422,-0.47311 -3.78125,-0.5625 -0.47351,-0.0447 -0.84618,-0.0711 -1.15625,-0.0625 -0.15503,0.004 -0.30637,0.0359 -0.4375,0.0625 -0.13113,0.0266 -0.24215,0.0546 -0.40625,0.21875 -0.34996,0.34996 -0.41429,0.79675 -0.40625,1.3125 0.008,0.51575 0.11995,1.11756 0.28125,1.8125 0.32261,1.38987 0.9107,3.12383 1.65625,4.9375 1.4911,3.62734 3.57595,7.57783 5.46875,9.71875 1.83305,2.07333 6.12429,5.17803 9.71875,7.0625 2.99358,1.56949 5.07283,2.46038 8.65625,2.875 3.58342,0.41462 8.67679,0.38097 17.875,0.25 5.80684,-0.0827 10.94777,-0.30858 14.75,-0.625 1.90111,-0.15821 3.46115,-0.33177 4.625,-0.53125 0.58192,-0.0997 1.05577,-0.19852 1.4375,-0.3125 0.38173,-0.11398 0.65787,-0.22037 0.90625,-0.46875 0.29683,-0.29682 1.05617,-0.67484 1.9375,-0.9375 0.88133,-0.26266 1.89683,-0.42587 2.84375,-0.4375 0.61656,-0.008 1.45572,-0.20227 2.5625,-0.53125 1.10678,-0.32898 2.4649,-0.79977 3.96875,-1.375 3.0077,-1.15047 6.63823,-2.70638 10.1875,-4.4375 3.53739,-1.72533 6.4877,-3.02146 8.78125,-3.84375 2.29355,-0.82229 3.95311,-1.17609 4.78125,-1.125 0.41407,0.0256 0.53771,0.14461 0.5625,0.1875 0.0248,0.0429 0.0588,0.22254 -0.125,0.625 -0.36754,0.80492 -1.4998,2.18906 -3.4375,4 -1.23837,1.15736 -2.44883,2.21796 -3.40625,2.96875 -0.47871,0.37539 -0.90959,0.67574 -1.21875,0.875 -0.15458,0.0996 -0.28844,0.17674 -0.375,0.21875 -0.0866,0.042 -0.1422,0.0312 -0.0312,0.0312 -0.28891,0 -0.38269,0.07 -0.5625,0.15625 -0.17981,0.0862 -0.37082,0.1951 -0.625,0.34375 -0.50836,0.29729 -1.18733,0.73119 -1.96875,1.25 -1.56284,1.03761 -3.59661,2.46354 -5.71875,4.03125 -19.9258,14.72005 -38.42494,19.22822 -62.875,15.3125 -3.85837,-0.61792 -7.28979,-1.01185 -9.8125,-1.15625 -1.26136,-0.0722 -2.2844,-0.0893 -3.0625,-0.0312 -0.38905,0.029 -0.72724,0.0818 -1,0.15625 -0.27276,0.0745 -0.53003,0.13215 -0.71875,0.4375 -0.15655,0.25331 -0.13755,0.51759 -0.0937,0.75 0.0438,0.23241 0.12842,0.46123 0.25,0.71875 0.24316,0.51504 0.62329,1.12312 1.125,1.8125 1.00341,1.37876 2.4988,3.07226 4.21875,4.78125 5.3253,5.29132 7.74376,6.56067 15.71875,8.03125 16.39456,3.02312 32.76999,-1.81009 55,-16.15625 3.43046,-2.21385 6.62414,-4.22951 9.03125,-5.6875 1.20356,-0.72899 2.21395,-1.31427 2.9375,-1.71875 0.36178,-0.20224 0.66918,-0.36804 0.875,-0.46875 0.0918,-0.0449 0.13727,-0.10441 0.1875,-0.125 0.20552,0 0.29584,-0.0357 0.4375,-0.0937 0.14166,-0.0581 0.32228,-0.15441 0.5,-0.25 0.35545,-0.19118 0.7756,-0.45392 1.28125,-0.78125 1.0113,-0.65465 2.29663,-1.54189 3.59375,-2.53125 2.51759,-1.92026 5.18486,-3.06986 7.125,-3.34375 0.97007,-0.13695 1.74764,-0.053 2.21875,0.1875 0.47111,0.24048 0.6875,0.56841 0.6875,1.21875 0,0.33635 -0.3054,1.11237 -0.875,1.90625 -0.5696,0.79388 -1.38019,1.62825 -2.25,2.3125 -3.11205,2.44813 -14.36066,12.22166 -24.5625,21.28125 -2.29319,2.03643 -8.83106,6.79451 -14.40625,10.5 -12.62551,8.39139 -30.1889,12.48906 -42.84375,10.0625 -4.71339,-0.90378 -6.84525,-1.38649 -8.03125,-1.34375 -0.2965,0.0107 -0.54702,0.0528 -0.78125,0.1875 -0.23423,0.13467 -0.40307,0.39783 -0.46875,0.625 -0.13135,0.45434 -0.0422,0.83416 -0.0312,1.34375 0.0106,0.49665 0.21746,1.00363 0.53125,1.59375 0.31379,0.59012 0.74506,1.27695 1.28125,2 1.07238,1.44611 2.55068,3.09601 4.1875,4.78125 3.27363,3.37048 7.17599,6.76427 10.03125,8.3125 3.80549,2.0635 8.09717,2.72878 17.28125,2.71875 12.50702,-0.0134 19.93504,-2.31146 28.8125,-8.90625 5.02751,-3.73478 22.97171,-21.69934 26.96875,-27 10.19414,-13.51891 13.02562,-17.61669 15.125,-21.6875 1.25601,-2.43548 2.81674,-4.11237 4.25,-4.90625 1.43326,-0.79388 2.66099,-0.7765 3.65625,0.21875 0.38755,0.38755 0.52915,0.98611 0.28125,2.125 -0.2479,1.13889 -0.91318,2.73281 -2.03125,4.84375 -0.88515,1.67118 -1.69602,3.40131 -2.28125,4.8125 -0.29262,0.70559 -0.51946,1.31885 -0.6875,1.84375 -0.16804,0.5249 -0.28204,0.91945 -0.28125,1.28125 8.4e-4,0.3532 -0.12821,0.74497 -0.3125,1.0625 -0.18429,0.31753 -0.43604,0.55257 -0.625,0.625 -0.19521,0.0748 -0.24478,0.15471 -0.34375,0.25 -0.099,0.0953 -0.22238,0.20186 -0.34375,0.34375 -0.24274,0.28377 -0.54529,0.67151 -0.90625,1.15625 -0.72192,0.96947 -1.65704,2.34283 -2.78125,4 -2.24841,3.31434 -5.18734,7.79166 -8.25,12.6875 -12.72424,20.34054 -16.75904,25.20349 -27.6875,33.25 -2.16334,1.59283 -4.1947,3.11499 -5.75,4.3125 -0.77765,0.59876 -1.44882,1.13642 -1.9375,1.53125 -0.48868,0.39483 -0.75098,0.59885 -0.9375,0.8125 -0.34265,0.39248 -1.35412,1.20032 -2.65625,2.09375 -1.30213,0.89343 -2.9292,1.92487 -4.625,2.9375 -3.3916,2.02526 -7.0706,3.98928 -8.9375,4.65625 -2.24926,0.80357 -7.7683,1.86667 -12.0625,2.34375 -3.71494,0.41272 -6.95155,1.10271 -9.125,1.875 -1.08673,0.38614 -1.91649,0.78768 -2.4375,1.25 -0.2605,0.23116 -0.45939,0.48082 -0.5,0.84375 -0.0406,0.36293 0.16272,0.74666 0.4375,0.96875 16.13211,13.03873 40.90856,9.38682 58.53125,-8.40625 3.16575,-3.19636 9.72675,-11.79889 15.5625,-19.96875 2.91787,-4.08493 5.6253,-8.05394 7.625,-11.15625 0.99985,-1.55115 1.83176,-2.8719 2.40625,-3.90625 0.28725,-0.51718 0.5274,-0.97837 0.6875,-1.34375 0.1601,-0.36538 0.25,-0.60996 0.25,-0.9375 0,0.0953 0.0411,-0.18017 0.15625,-0.5 0.11513,-0.31983 0.30678,-0.75226 0.53125,-1.28125 0.44893,-1.05798 1.08728,-2.50295 1.875,-4.1875 1.57544,-3.3691 3.71998,-7.74532 5.9375,-12.1875 2.21752,-4.44218 4.51846,-8.93138 6.4375,-12.5625 1.91904,-3.63112 3.4701,-6.4508 4.09375,-7.3125 0.74842,-1.0341 1.7134,-1.95231 2.625,-2.625 0.9116,-0.67269 1.80001,-1.0625 2.25,-1.0625 1.18163,0 2.22569,0.8348 2.78125,1.96875 0.55556,1.13395 0.58499,2.51243 -0.125,3.5 -0.21627,0.30082 -0.4413,0.73735 -0.71875,1.375 -0.27745,0.63765 -0.59205,1.44935 -0.9375,2.375 -0.69091,1.8513 -1.46638,4.16403 -2.1875,6.53125 -4.76899,15.6551 -4.78428,15.70927 -11.65625,32.84375 -5.76684,14.37893 -9.93367,21.60394 -18.09375,31.28125 -13.04488,15.47036 -20.26995,21.60452 -31.78125,27.125 l -11.1875,5.375 a 0.50612426,0.50612426 0 0 0 0.0937,0.96875 l 5.6875,1.28125 c 13.49365,3.07067 31.8742,-0.39748 41.3125,-7.90625 2.47595,-1.96977 6.56557,-7.15083 10.6875,-13.09375 4.12193,-5.94292 8.23252,-12.61723 10.5625,-17.5 7.31067,-15.32043 8.9226,-20.19797 14.46875,-43.65625 2.17199,-9.18679 3.68242,-14.92623 5,-18.5625 1.31758,-3.63627 2.41144,-5.11459 3.78125,-5.96875 1.11527,-0.69544 1.85948,-0.8729 2.34375,-0.65625 0.48427,0.21665 0.9682,0.95265 1.3125,2.59375 0.6886,3.2822 0.75635,9.76576 0.375,20.59375 -0.70644,20.05876 -0.74886,20.27121 -6.40625,32.34375 -3.14107,6.70288 -7.08261,14.11516 -8.625,16.28125 -1.20207,1.68815 -2.03397,3.0193 -2.5,4.0625 -0.23301,0.5216 -0.39783,0.9644 -0.4375,1.375 -0.0397,0.4106 0.0742,0.83944 0.375,1.125 0.30081,0.28556 0.69975,0.36743 1.125,0.34375 0.42525,-0.0237 0.90243,-0.14572 1.46875,-0.34375 1.13264,-0.39605 2.60912,-1.12954 4.46875,-2.1875 15.03017,-8.55081 22.85688,-21.03311 25.75,-41.0625 1.31304,-9.09041 1.34197,-14.82621 0.1875,-22.53125 -0.93038,-6.20951 -0.9787,-9.96221 0,-11.875 0.48935,-0.95639 1.172,-1.49056 2.28125,-1.8125 1.10925,-0.32194 2.64495,-0.38211 4.59375,-0.21875 l 4.6875,0.40625 0.875,8 c 1.46173,13.60832 4.19636,19.77713 13.09375,29.59375 2.6836,2.96087 4.69083,5.30341 6,7.34375 1.30917,2.04034 1.91619,3.7419 1.90625,5.5625 -0.0199,3.6412 -2.65153,7.91504 -8.09375,15.53125 -8.98455,12.5736 -10.42767,14.19736 -20.21875,23.15625 -17.35897,15.88357 -42.70979,25.94468 -70.96875,28.0625 -2.30643,0.17285 -3.66348,0.27723 -4.5,1.09375 -0.41826,0.40826 -0.61241,0.97314 -0.6875,1.625 -0.0751,0.65186 -0.0409,1.42425 0.0312,2.40625 0.58667,7.98087 7.66593,14.23307 17.84375,17.71875 10.17782,3.48568 23.51419,4.26775 36.96875,1.3125 6.18348,-1.35819 13.56174,-3.66244 16.59375,-5.1875 2.82821,-1.42256 5.42606,-2.23713 7.40625,-2.46875 0.9901,-0.11581 1.80904,-0.0759 2.4375,0.0937 0.62846,0.16964 1.04077,0.45465 1.28125,0.84375 0.0407,0.0659 0.15507,0.52906 0.15625,1.1875 10e-4,0.65844 -0.0608,1.50636 -0.1875,2.5 -0.25331,1.98729 -0.74499,4.50563 -1.34375,7.03125 -0.59876,2.52562 -1.29137,5.05568 -2,7.125 -0.70863,2.06932 -1.47562,3.70201 -1.9375,4.21875 -1.28502,1.43766 -2.48646,3.82975 -2.78125,5.5625 -0.10233,0.60153 -0.15053,1.1141 -0.0937,1.5625 0.0568,0.4484 0.24534,0.85498 0.59375,1.125 0.69682,0.54004 1.68125,0.4962 3.15625,0.3125 6.91317,-0.86095 22.19334,-4.96893 28.46875,-7.65625 1.68129,-0.71998 3.36338,-1.30004 4.6875,-1.625 0.66206,-0.16248 1.25934,-0.2466 1.6875,-0.28125 0.42816,-0.0347 0.68901,0.0515 0.65625,0.0312 0.41329,0.25543 0.7405,0.73067 0.90625,1.5 0.16575,0.76933 0.17503,1.79896 0,3.0625 -0.35006,2.52708 -1.43275,5.91315 -3.1875,9.875 -2.2995,5.19181 -4.6684,8.93361 -7.40625,11.5 -2.73785,2.56639 -5.82306,3.99236 -9.625,4.5625 -1.85988,0.2789 -3.47401,0.705 -4.65625,1.21875 -0.59112,0.25687 -1.07093,0.52746 -1.4375,0.84375 -0.36657,0.31629 -0.65625,0.71119 -0.65625,1.1875 0,3.06017 2.55469,7.28528 6.15625,11.4375 3.60156,4.15222 8.29843,8.15167 12.71875,10.4375 2.39325,1.23761 7.59904,2.76746 11.8125,3.46875 2.07813,0.34589 4.00455,0.67703 5.40625,0.9375 0.70085,0.13024 1.25746,0.26022 1.65625,0.34375 0.1994,0.0418 0.36793,0.0686 0.46875,0.0937 0.0504,0.0126 0.0802,0.027 0.0937,0.0312 -0.0143,-0.006 -0.041,-0.006 -0.15625,-0.125 0.25926,0.26701 0.46181,0.23919 0.65625,0.25 0.19444,0.0108 0.39155,-0.008 0.65625,-0.0312 0.52939,-0.0466 1.23941,-0.16415 2.0625,-0.3125 1.64619,-0.2967 3.78167,-0.76282 6.03125,-1.3125 4.49915,-1.09936 9.33272,-2.45593 11.28125,-3.375 2.81419,-1.32737 6.82629,-4.63623 10.21875,-7.96875 1.69623,-1.66626 3.22749,-3.33426 4.34375,-4.78125 0.55813,-0.72349 1.01899,-1.37544 1.34375,-1.96875 0.32476,-0.59331 0.53125,-1.11574 0.53125,-1.625 0,-0.4224 0.12563,-0.78449 0.3125,-1.03125 0.18687,-0.24676 0.41522,-0.375 0.625,-0.375 0.67273,0 1.1622,-0.51189 1.46875,-1.125 0.30655,-0.61311 0.46875,-1.39432 0.46875,-2.25 0,-0.60449 -0.0664,-1.13082 -0.25,-1.59375 -0.18362,-0.46293 -0.49981,-0.8605 -0.9375,-1.125 -0.87538,-0.529 -2.10945,-0.625 -4,-0.625 -5.01297,0 -10.54006,-3.61543 -14.78125,-8.90625 -4.24119,-5.29082 -7.1875,-12.22458 -7.1875,-18.625 0,-1.1654 0.13181,-2.02106 0.375,-2.5625 0.24319,-0.54144 0.54626,-0.79244 1.125,-0.90625 1.15749,-0.22763 3.5341,0.42815 7.34375,2.0625 4.11842,1.76681 11.35566,3.91822 17.8125,5.53125 3.22842,0.80651 6.25466,1.47446 8.59375,1.875 1.16955,0.20027 2.16071,0.35433 2.9375,0.40625 0.3884,0.026 0.71583,0.0207 1,0 0.28417,-0.0207 0.53639,-0.0362 0.78125,-0.1875 0.25732,-0.15904 0.35534,-0.46182 0.375,-0.6875 0.0197,-0.22568 -0.0351,-0.44128 -0.0937,-0.6875 -0.11727,-0.49244 -0.35285,-1.08461 -0.6875,-1.78125 -0.66929,-1.39329 -1.73934,-3.1618 -3.0625,-5.03125 -2.89821,-4.09482 -5.0893,-8.56594 -6.3125,-12.5625 -1.2232,-3.99656 -1.44771,-7.52461 -0.59375,-9.75 0.10687,-0.27849 0.542,-0.66679 1.21875,-0.9375 0.67675,-0.27071 1.55894,-0.4403 2.40625,-0.5 0.84731,-0.0597 1.6673,0.0175 2.21875,0.1875 0.27573,0.085 0.48755,0.18421 0.59375,0.28125 0.1062,0.097 0.125,0.15124 0.125,0.25 0,0.29271 0.11532,0.45775 0.25,0.625 0.13468,0.16725 0.32427,0.32932 0.53125,0.5 0.41395,0.34136 0.96317,0.74086 1.65625,1.15625 1.38616,0.83077 3.29513,1.78332 5.375,2.6875 14.82017,6.44278 30.30383,8.22868 43.0625,5.96875 12.75867,-2.25993 22.82106,-8.5901 26.59375,-18.46875 0.77499,-2.02929 1.33925,-3.58564 1.53125,-4.875 0.192,-1.28936 -0.0472,-2.38384 -0.875,-3.15625 -0.82776,-0.77241 -2.10463,-1.21826 -4,-1.59375 -1.89537,-0.37549 -4.40954,-0.67732 -7.71875,-1.03125 -17.62217,-1.88477 -26.58128,-4.36814 -42.84375,-11.8125 -12.52105,-5.73167 -31.65399,-22.96694 -41.71875,-37.6875 -5.35483,-7.83189 -7.9183,-12.51195 -7.8125,-16.59375 0.1058,-4.0818 2.87782,-7.84372 8.59375,-13.90625 7.95792,-8.44048 12.61516,-18.54931 12.65625,-27.5625 0.0131,-2.88239 0.30519,-4.71574 1.03125,-5.9375 0.72606,-1.22176 1.91734,-1.95355 3.96875,-2.59375 1.86869,-0.58316 3.8926,-0.53569 5.53125,-0.0625 1.63865,0.47319 2.85271,1.38325 3.28125,2.5 0.048,0.12516 0.13694,0.63802 0.15625,1.34375 0.0193,0.70573 -0.006,1.64085 -0.0625,2.6875 -0.11277,2.0933 -0.37433,4.7223 -0.75,7.375 -2.64526,18.67896 2.75415,40.69693 13.21875,53.71875 2.25115,2.80125 6.16238,5.87078 9.875,8.15625 1.85631,1.14273 3.67167,2.08918 5.21875,2.6875 1.54708,0.59832 2.80856,0.91957 3.78125,0.5625 0.18698,-0.0686 0.31361,-0.22934 0.375,-0.375 0.0614,-0.14566 0.0619,-0.27738 0.0625,-0.40625 0.001,-0.25775 -0.0373,-0.51976 -0.125,-0.84375 -0.17538,-0.64798 -0.51248,-1.50437 -0.96875,-2.53125 -0.91254,-2.05377 -2.32994,-4.79055 -4.0625,-7.75 -3.42795,-5.85537 -7.30263,-14.27399 -8.5625,-18.5 -1.09792,-3.68276 -2.36306,-13.98655 -3.15625,-23.90625 -0.3966,-4.95985 -0.70435,-9.83874 -0.8125,-13.78125 -0.10815,-3.94251 0.009,-7.01218 0.28125,-8.09375 0.34695,-1.37894 0.92185,-1.90822 1.59375,-2.03125 0.6719,-0.12303 1.6001,0.19356 2.625,1.03125 2.04981,1.67539 4.26777,5.24976 5.21875,9.53125 5.67336,25.54249 11.50249,45.0946 16.3125,54.6875 1.80155,3.59289 4.42846,8.93144 5.875,11.875 0.73355,1.49268 1.52612,2.87082 2.21875,3.875 0.34632,0.50209 0.67312,0.9122 0.96875,1.21875 0.14782,0.15328 0.28668,0.27273 0.4375,0.375 0.15082,0.10227 0.3179,0.1875 0.5625,0.1875 0.0815,0 0.22588,0.0842 0.375,0.3125 0.14912,0.22826 0.27317,0.56582 0.28125,0.96875 0.009,0.45033 0.20815,0.8804 0.5,1.40625 0.29185,0.52585 0.68176,1.13361 1.1875,1.8125 1.01148,1.35779 2.41896,2.98599 4.03125,4.71875 3.22458,3.46553 7.28162,7.31586 10.71875,9.9375 7.04874,5.37632 21.44841,8.24275 32.15625,6.5 2.22349,-0.36188 4.31185,-0.76533 5.90625,-1.125 0.7972,-0.17984 1.46193,-0.3492 1.96875,-0.5 0.25341,-0.0754 0.48193,-0.14891 0.65625,-0.21875 0.17432,-0.0698 0.26747,-0.11121 0.4375,-0.28125 0.4339,-0.43389 0.60938,-1.01885 0.46875,-1.5625 -0.14063,-0.54365 -0.51576,-1.01255 -1.03125,-1.4375 -1.03097,-0.8499 -2.67142,-1.56553 -4.6875,-1.96875 -3.13619,-0.62724 -9.04572,-3.98896 -15,-8.34375 -5.95428,-4.35479 -12.03539,-9.68985 -15.78125,-14.1875 -3.93029,-4.71909 -7.77343,-9.29425 -8.65625,-10.25 -0.51142,-0.55366 -1.58026,-2.10134 -2.8125,-4.0625 -1.23224,-1.96116 -2.6451,-4.34975 -4,-6.71875 -1.3549,-2.369 -2.65401,-4.72698 -3.59375,-6.5625 -0.46987,-0.91776 -0.86242,-1.71213 -1.125,-2.3125 -0.13129,-0.30019 -0.21696,-0.53037 -0.28125,-0.71875 -0.0643,-0.18838 -0.0937,-0.34811 -0.0937,-0.3125 0,-0.51249 -0.15777,-1.12218 -0.40625,-1.84375 -0.24848,-0.72157 -0.60213,-1.51156 -0.96875,-2.21875 -0.32565,-0.62817 -1.07988,-2.4014 -2,-4.65625 -0.92012,-2.25485 -2.01121,-5.03465 -3.0625,-7.78125 -1.05422,-2.75427 -2.15627,-5.54077 -3.09375,-7.8125 -0.93748,-2.27173 -1.70232,-4.01158 -2.09375,-4.75 -0.66921,-1.26242 -1.25,-3.49557 -1.25,-4.75 0,-0.85505 -0.31794,-2.32294 -0.84375,-4.21875 -0.52581,-1.89581 -1.26873,-4.17525 -2.0625,-6.34375 -1.48452,-4.05556 -2.15867,-6.88195 -2.09375,-8.5625 0.0325,-0.84028 0.22013,-1.34263 0.53125,-1.65625 0.31112,-0.31362 0.79086,-0.5 1.53125,-0.5 0.77989,0 1.6287,0.35306 2.65625,1.25 1.02755,0.89694 2.20022,2.34021 3.59375,4.46875 2.78706,4.25708 6.40223,11.20623 11.5,21.84375 2.82687,5.89882 5.79593,11.75546 8.28125,16.46875 2.48532,4.71329 4.46488,8.25377 5.46875,9.59375 0.92795,1.23863 1.7685,2.47783 2.375,3.46875 0.30325,0.49546 0.55679,0.92027 0.71875,1.25 0.16196,0.32973 0.21875,0.62551 0.21875,0.53125 0,0.29251 0.0889,0.51 0.21875,0.78125 0.12984,0.27125 0.30515,0.57733 0.53125,0.9375 0.45219,0.72033 1.09616,1.61539 1.875,2.65625 1.55769,2.08172 3.67711,4.70782 5.9375,7.375 4.52079,5.33437 9.54514,10.8212 11.96875,12.65625 11.54934,8.74466 18.59073,11.35325 30.8125,11.53125 8.27066,0.12046 12.34176,-0.34396 14.375,-2.03125 1.33221,-1.10555 3.87021,-2.74997 5.5,-3.5625 1.37177,-0.6839 2.31325,-1.26739 2.8125,-1.96875 0.24962,-0.35068 0.39399,-0.7746 0.3125,-1.1875 -0.0815,-0.4129 -0.35738,-0.74934 -0.71875,-1.03125 -0.72274,-0.56381 -1.88185,-0.99997 -3.5625,-1.4375 -1.68065,-0.43753 -3.89805,-0.854 -6.65625,-1.28125 -15.62306,-2.42002 -16.31763,-2.73169 -31.125,-13.8125 C 582.03454,577.52457 575.62805,571.38695 570.75,564 c -1.35567,-2.05295 -3.14878,-4.65863 -3.96875,-5.84375 -3.63261,-5.2502 -18.71363,-28.98773 -22.21875,-34.96875 -1.80804,-3.08519 -2.70166,-4.81058 -2.875,-5.84375 -0.0867,-0.51659 -0.0405,-0.84162 0.15625,-1.21875 0.19671,-0.37713 0.55942,-0.80942 1.09375,-1.34375 0.53905,-0.53906 0.95664,-0.90029 1.28125,-1.125 0.32461,-0.22471 0.52699,-0.29921 0.71875,-0.28125 0.38353,0.0359 1.08131,0.57826 2.34375,1.875 0.69855,0.71753 2.19113,2.59756 3.9375,4.96875 1.74637,2.37119 3.79477,5.26169 5.6875,8.09375 14.09243,21.08625 29.95689,36.84786 44.75,44.34375 7.02386,3.5591 9.82503,4.1271 20.40625,4.09375 6.52804,-0.0206 10.49414,-0.27887 14.09375,-1.6875 3.59961,-1.40863 6.76212,-3.93095 11.75,-8.40625 2.35722,-2.11498 4.10764,-3.7482 5.1875,-5.03125 0.53993,-0.64152 0.89676,-1.17878 1.09375,-1.71875 0.19699,-0.53997 0.20298,-1.12439 -0.125,-1.5625 -0.32798,-0.43811 -0.85718,-0.68837 -1.53125,-0.875 -0.67407,-0.18663 -1.53357,-0.32625 -2.59375,-0.40625 -2.12036,-0.15999 -5.06829,-0.14135 -8.96875,-0.0937 -11.80263,0.14404 -20.02128,-0.88163 -28.6875,-4.84375 -8.66622,-3.96212 -17.80078,-10.89158 -31.40625,-22.65625 -7.57105,-6.54668 -13.00045,-11.49806 -16.375,-14.96875 -1.68728,-1.73534 -2.85083,-3.09651 -3.53125,-4.09375 -0.34021,-0.49862 -0.5642,-0.90861 -0.65625,-1.1875 -0.092,-0.27889 -0.0373,-0.36521 -0.0312,-0.375 0.12453,-0.2015 0.26005,-0.33391 0.5625,-0.40625 0.30245,-0.0723 0.75869,-0.0618 1.375,0.0625 1.23261,0.24871 3.09299,0.95775 5.625,2.25 5.06402,2.58449 12.89834,7.4289 24.65625,15.0625 8.8108,5.72026 18.31547,10.09371 27.0625,12.6875 8.74703,2.59379 16.73963,3.41877 22.5625,1.96875 2.77172,-0.69023 6.88202,-1.68784 9.09375,-2.1875 1.25729,-0.28404 2.91476,-1.19975 4.75,-2.46875 1.83524,-1.269 3.81648,-2.91232 5.46875,-4.59375 l 5.90625,-6.03125 A 0.50612426,0.50612426 0 0 0 667,524.34375 l -5.4375,-0.4375 c -3.08539,-0.25592 -7.47154,0.21232 -10,1.09375 -4.29847,1.49846 -12.49934,1.73704 -21.03125,0.9375 -8.53191,-0.79954 -17.46158,-2.63104 -23.28125,-5.125 -5.23893,-2.24509 -14.85756,-8.04434 -18.75,-11.3125 -0.51019,-0.42835 -1.09792,-0.81553 -1.65625,-1.09375 -0.55833,-0.27822 -1.04458,-0.46875 -1.53125,-0.46875 0.0604,0 -0.19503,-0.0506 -0.5,-0.21875 -0.30497,-0.16811 -0.71415,-0.43154 -1.15625,-0.75 -0.88421,-0.63692 -1.95518,-1.53119 -3,-2.5 -1.07065,-0.99276 -2.12721,-1.87234 -3,-2.53125 -0.4364,-0.32946 -0.83232,-0.61727 -1.15625,-0.8125 -0.16196,-0.0976 -0.29871,-0.18906 -0.4375,-0.25 -0.13879,-0.0609 -0.26887,-0.0937 -0.46875,-0.0937 -0.13148,0 -0.59848,-0.19231 -1.09375,-0.5625 -0.49527,-0.37019 -1.05108,-0.88973 -1.5625,-1.46875 -0.51142,-0.57902 -0.9821,-1.21468 -1.3125,-1.78125 -0.3304,-0.56657 -0.5,-1.08254 -0.5,-1.3125 0,-0.38272 0.10607,-0.55062 0.40625,-0.71875 0.30018,-0.16813 0.85932,-0.26089 1.5625,-0.21875 1.40636,0.0843 3.42452,0.69649 5.625,1.875 2.10264,1.12611 4.76124,2.40257 6,2.875 1.12558,0.42928 3.07707,1.40137 4.21875,2.09375 0.67778,0.41104 1.9274,0.91464 3.5,1.46875 1.5726,0.55411 3.43722,1.14491 5.21875,1.625 3.51987,0.94854 8.13609,2.36575 10.21875,3.125 0.62619,0.22829 1.66105,0.41731 3.0625,0.59375 1.40145,0.17644 3.17663,0.3276 5.1875,0.46875 4.02174,0.28229 9.0216,0.48001 14.0625,0.53125 9.66689,0.0983 14.96299,0.0578 19.375,-1.125 4.41201,-1.18276 7.86299,-3.49538 13.6875,-7.75 0.98352,-0.71843 2.02181,-2.10016 3.125,-3.84375 1.10319,-1.74359 2.224,-3.8461 3.1875,-5.90625 0.9635,-2.06015 1.77461,-4.08011 2.25,-5.71875 0.2377,-0.81932 0.39138,-1.55382 0.4375,-2.15625 0.0461,-0.60243 0.0208,-1.10422 -0.375,-1.5 -0.28535,-0.28536 -0.475,-0.26353 -0.75,-0.28125 -0.275,-0.0177 -0.62804,0.002 -1.03125,0.0312 -0.80643,0.0586 -1.86663,0.19286 -3.15625,0.40625 -2.57924,0.42677 -6.01042,1.1327 -9.65625,2.03125 -18.68615,4.60538 -31.4099,5.26337 -43.21875,2.25 -7.94469,-2.02732 -16.02082,-4.40267 -22.53125,-6.59375 -3.25521,-1.09554 -6.12268,-2.14372 -8.375,-3.0625 -2.25232,-0.91878 -3.92445,-1.73289 -4.6875,-2.28125 -1.67463,-1.20346 -2.56173,-2.31428 -2.84375,-3.125 -0.28202,-0.81072 -0.10262,-1.29813 0.59375,-1.78125 1.39273,-0.96625 5.13687,-1.26586 10.1875,0.0312 17.28195,4.43839 29.28956,5.98677 47.78125,6.15625 9.32757,0.0855 14.44328,0.0821 18.125,-0.375 3.68172,-0.45709 5.90691,-1.39598 9.25,-3.0625 5.33606,-2.65999 8.01663,-5.14861 9.96875,-9.3125 0.74326,-1.58536 1.26047,-2.87482 1.5625,-3.90625 0.30203,-1.03143 0.41372,-1.81872 0.15625,-2.46875 -0.12874,-0.32501 -0.39974,-0.60955 -0.71875,-0.75 -0.31901,-0.14045 -0.64864,-0.16484 -1.03125,-0.125 -0.76523,0.0797 -1.70286,0.4192 -2.875,0.96875 -4.50052,2.11006 -12.98986,4.21295 -24.9375,6.125 -10.18388,1.62978 -24.60542,0.62143 -40.8125,-2.90625 -3.16471,-0.68885 -8.60639,-1.65014 -12.125,-2.125 -3.61122,-0.48738 -6.07446,-1.18135 -7.5625,-2.15625 -1.48804,-0.9749 -2.0625,-2.16422 -2.0625,-3.9375 0,-0.28758 0.0312,-0.48035 0.0937,-0.625 0.0626,-0.14465 0.1599,-0.26552 0.40625,-0.40625 0.4927,-0.28145 1.60761,-0.55778 3.71875,-0.71875 4.22229,-0.32193 12.36959,-0.31511 27.78125,-0.21875 15.96038,0.0998 24.12675,0.14908 29.3125,-0.28125 5.18575,-0.43033 7.4178,-1.35376 11.28125,-3.125 9.53913,-4.37332 13.50418,-8.56239 16.375,-17.15625 2.18672,-6.54601 3.04083,-12.01306 2.625,-15.375 -0.20791,-1.68097 -0.71732,-2.95271 -1.78125,-3.40625 -0.53196,-0.22677 -1.1606,-0.17628 -1.78125,0.0625 -0.62065,0.23878 -1.26848,0.66875 -1.96875,1.3125 -2.71879,2.49936 -6.63501,4.88747 -12.5,7.625 -0.73266,0.34197 -2.26607,0.72235 -4.3125,1.03125 -2.04643,0.3089 -4.62949,0.58659 -7.5625,0.8125 -5.86602,0.45182 -13.12031,0.72541 -20.40625,0.8125 -7.28594,0.0871 -14.59437,-0.0328 -20.5,-0.34375 -2.95281,-0.15548 -5.54862,-0.36548 -7.625,-0.625 -2.07638,-0.25952 -3.66081,-0.57839 -4.4375,-0.90625 -2.75742,-1.16396 -4.45455,-2.60465 -5.03125,-3.90625 -0.28835,-0.6508 -0.30393,-1.26819 -0.0937,-1.875 0.21018,-0.60681 0.69367,-1.21636 1.5,-1.8125 0.8609,-0.63648 2.41597,-1.07659 5.625,-1.21875 3.20903,-0.14216 8.0215,-0.004 15.28125,0.375 29.35336,1.53408 46.01662,-2.28903 58.40625,-13.5625 2.40556,-2.18885 5.08515,-6.06008 7.03125,-9.59375 0.97305,-1.76684 1.76561,-3.44594 2.21875,-4.8125 0.22657,-0.68328 0.3672,-1.28961 0.40625,-1.8125 0.039,-0.52289 -0.0162,-0.98491 -0.375,-1.34375 -0.14775,-0.14775 -0.27164,-0.17342 -0.375,-0.1875 -0.10336,-0.0141 -0.18598,-0.008 -0.28125,0 -0.19054,0.0155 -0.40217,0.0326 -0.65625,0.0937 -0.50815,0.12224 -1.17221,0.34747 -1.96875,0.625 -1.59308,0.55506 -3.72038,1.38066 -5.96875,2.375 -20.52161,9.07563 -44.89325,14.09985 -69.21875,14.21875 -4.82225,0.0236 -7.50092,-0.0646 -8.84375,-0.40625 -0.67141,-0.17081 -0.96303,-0.38255 -1.125,-0.625 -0.16197,-0.24245 -0.25,-0.60183 -0.25,-1.1875 0,-0.88837 0.72536,-2.00297 2.28125,-3.21875 1.55589,-1.21578 3.89007,-2.51995 6.84375,-3.78125 5.90737,-2.52259 14.32459,-4.96958 24.25,-6.9375 20.01561,-3.96851 33.46427,-9.70198 39.40625,-16.96875 2.06833,-2.52948 4.56326,-5.60546 5.5625,-6.84375 3.1664,-3.92389 6.28697,-10.46511 7.875,-16.5 1.00494,-3.81899 1.82953,-8.2753 2.28125,-11.8125 0.22586,-1.7686 0.36456,-3.32082 0.375,-4.4375 0.005,-0.55834 -0.0229,-1.01511 -0.0937,-1.375 -0.0354,-0.17995 -0.0904,-0.33774 -0.1875,-0.5 -0.0971,-0.16226 -0.31813,-0.34375 -0.59375,-0.34375 -0.14953,0 -0.19548,0.007 -0.28125,0.0312 -0.0858,0.0247 -0.19932,0.0842 -0.3125,0.125 -0.22636,0.0815 -0.51724,0.1961 -0.875,0.34375 -0.71553,0.2953 -1.67789,0.69651 -2.84375,1.21875 -2.33171,1.04449 -5.43268,2.47921 -8.75,4.0625 -6.59011,3.14533 -16.39267,6.796 -21.625,8.0625 -5.33118,1.29043 -11.87427,3.29161 -14.6875,4.5 -1.24988,0.53687 -4.4419,1.29903 -8.4375,2.03125 -3.9956,0.73222 -8.85268,1.4649 -13.5625,2 -34.98844,3.97519 -41.88356,5.07475 -55.09375,8.84375 -3.63791,1.03793 -7.55477,2.36266 -10.6875,3.5625 -1.56636,0.59992 -2.93435,1.15908 -4,1.65625 -1.06565,0.49717 -1.76994,0.89494 -2.1875,1.3125 -0.15629,0.15629 -0.61637,0.37055 -1.15625,0.53125 -0.53988,0.1607 -1.17681,0.28125 -1.75,0.28125 -1.09909,0 -2.40786,0.59204 -3.875,1.5 -1.46714,0.90796 -3.05698,2.14862 -4.625,3.5625 -3.13603,2.82776 -6.10031,6.27965 -7.25,9.03125 -1.11615,2.67135 -2,6.74347 -2,9.28125 0,4.52219 2.38705,9.91769 5.5625,14.25 3.17545,4.33231 7.10826,7.65625 10.625,7.65625 0.5099,0 1.378,0.28691 2.25,0.78125 0.872,0.49434 1.76416,1.19347 2.4375,1.9375 0.63251,0.69891 1.08619,1.21197 1.34375,1.625 0.25756,0.41303 0.33546,0.66522 0.28125,0.96875 -0.10842,0.60706 -0.98837,1.65715 -2.84375,3.59375 -2.30929,2.41038 -3.9375,5.70894 -3.9375,8.21875 0,1.02335 -0.0203,1.77976 -0.15625,2.3125 -0.13594,0.53274 -0.35508,0.8551 -0.875,1.21875 -1.03984,0.7273 -3.39122,1.37676 -8.03125,2.5625 -3.35957,0.85852 -8.48945,3.50176 -11.59375,5.96875 -2.54349,2.02131 -3.98468,3.06057 -5.5625,3.46875 -1.57782,0.40818 -3.42677,0.2237 -6.75,-0.28125 -3.99955,-0.60771 -11.03626,-1.11728 -15.75,-1.15625 -4.12507,-0.0341 -6.24578,-0.12308 -7.28125,-0.59375 -0.51774,-0.23533 -0.80476,-0.54127 -1.0625,-1.0625 -0.25774,-0.52123 -0.44097,-1.27805 -0.6875,-2.3125 -0.56857,-2.38564 -2.08121,-7.85816 -3.375,-12.1875 -0.93829,-3.13975 -1.68319,-5.40306 -2.09375,-7.09375 -0.41056,-1.69069 -0.46935,-2.77704 -0.21875,-3.53125 0.2506,-0.75421 0.81866,-1.29206 2,-1.96875 1.18134,-0.67669 2.92363,-1.43286 5.28125,-2.53125 1.57204,-0.7324 2.75857,-1.45359 3.59375,-2.28125 0.83518,-0.82766 1.29946,-1.80975 1.28125,-2.875 -0.0364,-2.1305 -1.73178,-4.45237 -4.9375,-7.71875 -4.48103,-4.56584 -5.73338,-6.88827 -6,-11.1875 -0.0867,-1.39834 -0.13751,-2.43634 -0.0937,-3.1875 0.0438,-0.75116 0.18278,-1.17813 0.4375,-1.46875 0.25472,-0.29062 0.70178,-0.52119 1.5,-0.71875 0.79822,-0.19756 1.90235,-0.35393 3.40625,-0.5625 1.9248,-0.26695 3.47385,-0.54177 4.65625,-0.875 1.1824,-0.33323 2.02749,-0.70928 2.5625,-1.25 0.2675,-0.27036 0.44806,-0.60644 0.5,-0.96875 0.0519,-0.36231 -0.023,-0.71556 -0.1875,-1.0625 -0.32894,-0.69388 -0.99978,-1.38582 -1.9375,-2.15625 -2.61039,-2.1447 -5.24741,-5.2385 -7.21875,-8.28125 -1.97134,-3.04275 -3.25,-6.06979 -3.25,-7.75 0,-0.81665 0.056,-1.43234 0.15625,-1.875 0.10022,-0.44266 0.24419,-0.68945 0.46875,-0.875 0.44912,-0.3711 1.48586,-0.55299 3.5,-0.5625 1.3199,-0.006 2.73673,-0.16303 4,-0.4375 1.26327,-0.27447 2.3603,-0.65452 3.0625,-1.125 0.4771,-0.31966 0.86106,-0.58422 1.125,-0.9375 0.26394,-0.35328 0.36697,-0.8441 0.25,-1.28125 -0.23393,-0.87429 -1.05618,-1.56422 -2.46875,-2.75 -1.98119,-1.66312 -3.65375,-5.35783 -4.75,-10.75 -0.46897,-2.30675 -1.09693,-4.53929 -1.75,-6.28125 -0.32654,-0.87098 -0.67682,-1.62903 -1,-2.21875 -0.32318,-0.58972 -0.58273,-1.02027 -1,-1.28125 -0.69044,-0.43184 -1.13546,-0.86961 -1.34375,-1.34375 -0.20829,-0.47414 -0.20474,-1.00531 0,-1.65625 0.40948,-1.30188 1.80057,-3.066 4.25,-5.21875 2.70468,-2.37707 4.9357,-5.24422 6.25,-7.75 0.65715,-1.25289 1.09587,-2.41424 1.21875,-3.40625 0.0614,-0.49601 0.0353,-0.95929 -0.0937,-1.375 -0.12906,-0.41571 -0.37249,-0.79794 -0.75,-1.03125 -0.3837,-0.23715 -0.82683,-0.26224 -1.40625,-0.28125 -0.57942,-0.019 -1.27536,0.0187 -2.09375,0.0937 -1.63678,0.15006 -3.70463,0.47313 -5.78125,0.9375 -8.09529,1.81027 -18.22296,1.40427 -36.09375,-1.53125 -3.46337,-0.5689 -6.60414,-0.9078 -9.375,-1.03125 z"
       id="path3830"
       style="color:#000000;fill:#000000;fill-opacity:1;fill-rule:nonzero;stroke:none;stroke-width:0.704;marker:none;visibility:visible;display:inline;overflow:visible;enable-background:accumulate" />
    <path
       d="m 50.33253,330.28895 30.28432,-22.00284 30.28431,-22.00285 14.27479,19.64755 14.2748,19.64755 46.22954,-33.58772 46.22954,-33.58773 -14.2748,-19.64757 -14.27478,-19.64753 37.56151,-27.29004 37.56151,-27.29003 14.27477,19.64755 14.27479,19.64755 45.93293,-33.37221 45.93291,-33.37222 -14.01766,-19.61365 -14.01767,-19.613628 30.27516,-21.996189 33.20772,-22.887213 30.28757,22.00522 30.28758,22.0052 -14.27217,19.64395 -14.27216,19.64394 46.21509,33.57723 46.24039,33.5956 14.27216,-19.64394 14.27216,-19.64394 37.54344,27.27691 37.56873,27.29528 -14.27216,19.64394 -14.27216,19.64394 45.93699,33.37518 45.937,33.37518 14.31364,-19.38204 14.33201,-19.40732 30.26229,21.98683 32.05099,24.52248 -11.58555,35.61751 -11.56676,35.59237 -23.09177,-7.50612 -23.09176,-7.50612 -17.6582,54.34311 -17.6582,54.34312 23.09176,7.50612 23.09177,7.50613 -14.34976,44.15429 -14.34975,44.1543 -23.09177,-7.50612 -23.09176,-7.50612 -17.53205,54.00988 -17.55732,53.99153 22.88721,7.6284 22.84354,7.63533 -11.56676,35.59236 -13.40673,38.03116 -37.4375,0 -37.4375,0 0,-24.28125 0,-24.28125 -57.125,0 -57.15625,0 0,24.28125 0,24.28125 -46.40625,0 -46.4375,0 0,-24.28125 0,-24.28125 -56.78125,0 -56.78125,0 -0.1875,24.09375 -0.1875,24.125 -37.40625,0 -40.34375,-1 -11.5625,-35.625 L 172.28125,710 195.375,702.5 218.46875,695 200.8125,640.65625 183.15625,586.3125 l -23.09375,7.5 -23.09375,7.5 L 122.625,557.15625 108.28125,513 131.375,505.5 154.46875,498 136.90625,444 119.375,390 l -23,7.28125 -22.96875,7.25 -11.5625,-35.59375 -11.51122,-38.64855 z m 648.73113,491.5558 -10e-4,-10e-4 -1.6e-4,-2.9e-4 L 781.23248,568.9732 863.38471,316.12815 648.28732,159.85075 433.18993,3.57334 218.09197,159.84476 3,316.125 85.15625,569 l 82.15625,252.84375 265.875,0"
       id="path3634-1-7-4-0-9"
       style="color:#000000;fill:#c02e41;fill-opacity:1;fill-rule:nonzero;stroke:none;stroke-width:0.704;marker:none;visibility:visible;display:inline;overflow:visible;enable-background:accumulate" />
  </g>
</svg>
