<?xml version="1.0" encoding="utf-8"?>
<!-- Generator: Adobe Illustrator 15.1.0, SVG Export Plug-In . SVG Version: 6.00 Build 0)  -->
<!DOCTYPE svg PUBLIC "-//W3C//DTD SVG 1.0//EN" "http://www.w3.org/TR/2001/REC-SVG-20010904/DTD/svg10.dtd">
<svg version="1.0" xmlns="http://www.w3.org/2000/svg" xmlns:xlink="http://www.w3.org/1999/xlink" x="0px" y="0px" width="455px"
	 height="680px" viewBox="0 0 455 680" enable-background="new 0 0 455 680" xml:space="preserve">
<g id="Layer_2">
	<polygon fill="#fff" stroke="#949494" stroke-miterlimit="10" points="227.4,0.6 0.5,130.7 0.5,547.8 227.5,678.6 454.1,547.2 
		453.8,129.9"/>
</g>
<g id="Layer_3">
	<polygon fill="#171F96" points="426.8,161.9 426.8,179.2 284.8,262.1 284.8,614.5 227.5,647.1 227.5,647.1 227.5,647.1 
		170.2,614.5 170.2,262.1 27.7,179.2 27.7,161.9 	"/>
</g>
<g id="Layer_4">
	<polygon fill="#BD1931" points="227.4,31.7 27.7,146.5 27.7,161.9 426.8,161.9 426.8,145.6 	"/>
	<polygon fill="#BD1931" points="427.1,245.8 427.1,317.2 227.3,432.1 27.5,317.2 27.5,245.8 227.3,360 	"/>
	<polygon fill="#BD1931" points="427.1,386.9 427.1,458.3 227.3,573.1 27.5,458.3 27.5,386.9 227.3,501 	"/>
</g>
<g id="Layer_6">
	<path fill="#fff" d="M227.6,31.9c-2.4,5-20.9,34.1-7.5,76.3c11.5,36.1,0.6,49.6-1.9,53.7c0,0,12.8,0,16.9,0
		c2.9-5.3,12.8-28.3-1.6-60.7c-11.3-25.5,4.4-55.4,7.5-61.7C235.8,36.5,227.6,31.9,227.6,31.9z"/>
	<path fill="#fff" d="M286,65.1c-1.7,11.9-1.4,26.5,3.9,43.1c11.5,36.1,0.6,49.6-1.9,53.7c0,0,12.8,0,16.9,0
		c2.9-5.3,12.8-28.3-1.6-60.7c-4.1-9.3-4.7-19.1-3.5-28.2L286,65.1z"/>
	<path fill="#fff" d="M359.3,107c0.1,0.4,0.2,0.8,0.4,1.2c11.5,36.1,0.6,49.6-1.9,53.7c0,0,12.8,0,16.9,0
		c2.4-4.3,9.4-20.4,4.1-43.8L359.3,107z"/>
	<path fill="#fff" d="M159.9,70.4c-1.6,9.8-1.3,20.6,3.2,30.8c14.4,32.4,4.5,55.4,1.6,60.7c-4.1,0-16.9,0-16.9,0
		c2.5-4.1,13.4-17.6,1.9-53.7c-3.4-10.6-4.7-20.4-4.8-29.2L159.9,70.4z"/>
	<path fill="#fff" d="M98.4,105.7c11.5,30,2.4,51.1-0.4,56.2c-4.1,0-16.9,0-16.9,0c2.4-3.9,12.3-16.2,3.5-48.3L98.4,105.7z"/>
</g>
<g id="Layer_5">
	<polygon fill="none" stroke="#949494" points="27.5,532.2 27.5,146.3 227.4,31.7 426.8,145.6 427.1,531.7 
		227.5,647.4"/>
</g>
</svg>
