<?xml version="1.0" encoding="UTF-8" standalone="no"?>
<!-- Created with Inkscape (http://www.inkscape.org/) -->
<svg
   xmlns:dc="http://purl.org/dc/elements/1.1/"
   xmlns:cc="http://web.resource.org/cc/"
   xmlns:rdf="http://www.w3.org/1999/02/22-rdf-syntax-ns#"
   xmlns:svg="http://www.w3.org/2000/svg"
   xmlns="http://www.w3.org/2000/svg"
   xmlns:sodipodi="http://sodipodi.sourceforge.net/DTD/sodipodi-0.dtd"
   xmlns:inkscape="http://www.inkscape.org/namespaces/inkscape"
   id="svg2211"
   sodipodi:version="0.32"
   inkscape:version="0.45.1"
   width="600"
   height="957.72723"
   version="1.0"
   sodipodi:docbase="C:\Documents and Settings\steven.williamson\Desktop"
   sodipodi:docname="63th_Infantry_Division_SSI.svg"
   inkscape:output_extension="org.inkscape.output.svg.inkscape">
  <metadata
     id="metadata2216">
    <rdf:RDF>
      <cc:Work
         rdf:about="">
        <dc:format>image/svg+xml</dc:format>
        <dc:type
           rdf:resource="http://purl.org/dc/dcmitype/StillImage" />
      </cc:Work>
    </rdf:RDF>
  </metadata>
  <defs
     id="defs2214" />
  <sodipodi:namedview
     inkscape:window-height="968"
     inkscape:window-width="1280"
     inkscape:pageshadow="2"
     inkscape:pageopacity="0.0"
     guidetolerance="10.0"
     gridtolerance="10.0"
     objecttolerance="10.0"
     borderopacity="1.0"
     bordercolor="#666666"
     pagecolor="#ffffff"
     id="base"
     inkscape:zoom="0.37851406"
     inkscape:cx="79.5"
     inkscape:cy="669.65218"
     inkscape:window-x="-4"
     inkscape:window-y="-4"
     inkscape:current-layer="svg2211" />
  <g
     id="g10982"
     transform="matrix(3.818466,0,0,3.818466,-3.1181875,6.3243343)">
    <path
       sodipodi:nodetypes="ccc"
       id="path9034"
       d="M 79.587533,-0.99071631 C 197.70292,96.429708 167.87135,249.33024 80.248011,248.66976 C -8.4761272,248.66976 -40.068966,105.34615 79.587533,-0.99071631 z "
       style="fill:#5e5600;fill-opacity:1;fill-rule:evenodd;stroke:none;stroke-width:1px;stroke-linecap:butt;stroke-linejoin:miter;stroke-opacity:1" />
    <path
       id="path2220"
       d="M 79.5625,-1.65625 L 79.25,-1.375 C 19.322043,51.882044 -2.7653774,114.44468 1.28125,163.75 C 3.3045637,188.40266 11.876014,209.74348 25.53125,224.9375 C 39.186486,240.13152 57.934351,249.15625 80.25,249.15625 C 102.30145,249.32247 120.73806,239.83047 134.09375,223.96875 C 147.44944,208.10703 155.73297,185.90374 157.5625,160.65625 C 161.22156,110.16126 139.07894,47.430059 79.90625,-1.375 L 79.5625,-1.65625 z M 79.59375,-0.3125 C 138.28899,48.263532 160.18944,110.54201 156.5625,160.59375 C 154.74564,185.66638 146.53444,207.64674 133.34375,223.3125 C 120.15306,238.97826 102.01022,248.32027 80.25,248.15625 C 58.203581,248.15625 39.73282,239.28343 26.25,224.28125 C 12.76718,209.27907 4.2896011,188.15785 2.28125,163.6875 C -1.7279216,114.83855 20.118597,52.702132 79.59375,-0.3125 z "
       style="fill:#000000;fill-opacity:1;fill-rule:evenodd;stroke:none;stroke-width:1px;stroke-linecap:butt;stroke-linejoin:miter;stroke-opacity:1" />
    <path
       id="path2224"
       d="M 80.75,16.03125 C 80.86008,26.543849 79.032472,35.670893 70.65625,40.625 C 55.860722,49.375799 57.176766,61.828048 62.25,81.90625 C 64.346712,90.20435 56.859996,102.71659 48.21875,109.15625 C 48.604028,97.873093 40.392656,80.138679 31.53125,76.78125 C 32.907245,83.716263 34.238895,90.723287 32.6875,97.59375 C 31.156667,104.37316 26.820716,116.11887 26.25,128.625 C 25.554801,143.85892 28.85494,155.1497 39.3125,165.9375 C 32.597646,166.92822 26.053849,164.8851 24.59375,156.53125 C 23.043538,147.66182 21.910809,133.87193 13.875,129.46875 C 15.677276,143.17697 17.805189,153.96201 11.0625,167.625 C 16.236264,209.82724 42.403558,240.09375 80.34375,240.09375 C 118.26047,240.38726 143.99772,207.47951 148.375,163.375 C 147.28101,155.9327 145.50738,150.406 143.96875,147.9375 C 141.28215,143.62728 138.79842,126.53274 141,114.09375 C 137.91777,116.07518 135.05334,118.795 132.25,123 C 126.46712,131.67431 126.69861,146.47456 128.625,162.65625 C 121.91015,157.20731 116.18974,152.73231 115.90625,136.375 C 115.63934,120.97436 127.85148,115.29384 128.46875,91.65625 C 128.78716,79.462943 122.96485,73.751988 116.25,71 C 117.46245,80.798456 117.73944,85.992514 111.9375,93.46875 C 103.92592,103.79229 103.14508,101.43806 105.5,87.84375 C 106.7777,80.467903 99.370575,75.469527 93.78125,71.65625 C 75.813548,59.397909 90.977619,46.178134 90.8125,36.65625 C 89.931863,27.464606 88.23541,19.939074 80.75,16.03125 z "
       style="opacity:1;fill:#da0034;fill-opacity:1;fill-rule:evenodd;stroke:none;stroke-width:0.99999994px;stroke-linecap:butt;stroke-linejoin:miter;stroke-opacity:1" />
    <path
       id="path2222"
       d="M 79.75,11.21875 L 79.4375,11.53125 C 26.090363,60.218537 6.4287933,117.39163 10.03125,162.46875 C 11.832478,185.00731 19.432381,204.54076 31.59375,218.4375 C 43.755119,232.33424 60.463941,240.59375 80.34375,240.59375 C 99.989922,240.74583 116.44953,232.03822 128.34375,217.53125 C 140.23797,203.02428 147.59006,182.70702 149.21875,159.625 C 152.47613,113.46096 132.77056,56.119002 80.09375,11.5 L 79.75,11.21875 z M 79.75,12.5625 C 131.95407,56.948026 151.4454,113.83393 148.21875,159.5625 C 146.60208,182.47418 139.29509,202.56516 127.5625,216.875 C 115.82991,231.18484 99.722087,239.74351 80.375,239.59375 L 80.34375,239.59375 C 60.740432,239.59375 44.335792,231.4845 32.34375,217.78125 C 20.351708,204.078 12.787034,184.7672 11,162.40625 C 7.4337548,117.78224 26.86364,60.999871 79.75,12.5625 z "
       style="fill:#000000;fill-opacity:1;fill-rule:evenodd;stroke:none;stroke-width:0.99999994px;stroke-linecap:butt;stroke-linejoin:miter;stroke-opacity:1" />
    <path
       id="path6108"
       d="M 78.84375,70 C 71.369137,76.480935 68.231742,85.545756 68.1875,94.875 L 68.1875,181.75 L 59.3125,181.75 L 59.3125,191.09375 L 67.5625,191.09375 C 67.968554,192.74925 69.061666,194.24098 70.65625,195.40625 C 68.613621,196.89466 67.374999,198.90567 67.375,201.125 C 67.375,203.19992 68.469211,205.10797 70.28125,206.5625 C 68.469211,208.01703 67.374999,209.92508 67.375,212 C 67.375,214.28797 68.688182,216.3433 70.84375,217.84375 C 68.688182,219.66119 67.374999,222.16616 67.375,224.9375 C 67.375,230.48019 72.707367,235 79.28125,235 C 85.855137,235 91.187501,230.48019 91.1875,224.9375 C 91.1875,222.16616 89.843068,219.66119 87.6875,217.84375 C 89.843068,216.3433 91.187501,214.28797 91.1875,212 C 91.1875,209.91971 90.07043,208.01849 88.25,206.5625 C 90.070431,205.10651 91.1875,203.20529 91.1875,201.125 C 91.1875,198.90393 89.920459,196.895 87.875,195.40625 C 89.471988,194.24068 90.58634,192.74957 91,191.09375 L 100.40625,191.09375 L 100.40625,181.75 L 89.65625,181.75 L 89.65625,94.875 C 89.639528,85.174237 87.075159,77.100136 78.84375,70 z M 79.5,76.875 C 79.059682,81.305706 82.200156,88.548615 83.375,90.40625 C 84.060443,91.490057 82.742048,95.167832 82.5625,97.03125 C 82.415436,98.557533 83.733657,102.23276 84.96875,106.84375 C 86.710601,113.34662 73.860163,116.62077 71.90625,106.90625 C 71.548489,101.56739 76.473889,101.10113 76.28125,92.625 C 76.446366,88.441973 72.895225,82.04874 79.5,76.875 z "
       style="opacity:1;fill:#ffcf2d;fill-opacity:1;fill-rule:nonzero;stroke:none;stroke-width:23.70599937;stroke-linecap:round;stroke-linejoin:round;stroke-miterlimit:4;stroke-dasharray:none;stroke-opacity:1" />
  </g>
</svg>
