<?xml version="1.0" encoding="UTF-8" standalone="no"?>
<!-- Created with Inkscape (http://www.inkscape.org/) -->

<svg
   xmlns:dc="http://purl.org/dc/elements/1.1/"
   xmlns:cc="http://creativecommons.org/ns#"
   xmlns:rdf="http://www.w3.org/1999/02/22-rdf-syntax-ns#"
   xmlns:svg="http://www.w3.org/2000/svg"
   xmlns="http://www.w3.org/2000/svg"
   xmlns:sodipodi="http://sodipodi.sourceforge.net/DTD/sodipodi-0.dtd"
   xmlns:inkscape="http://www.inkscape.org/namespaces/inkscape"
   id="svg2"
   version="1.1"
   inkscape:version="0.47pre4 r22446"
   width="938.79852"
   height="1185.4515"
   sodipodi:docname="US_65th_Cavalry_Division.svg">
  <metadata
     id="metadata8">
    <rdf:RDF>
      <cc:Work
         rdf:about="">
        <dc:format>image/svg+xml</dc:format>
        <dc:type
           rdf:resource="http://purl.org/dc/dcmitype/StillImage" />
        <dc:title></dc:title>
      </cc:Work>
    </rdf:RDF>
  </metadata>
  <defs
     id="defs6">
    <inkscape:perspective
       sodipodi:type="inkscape:persp3d"
       inkscape:vp_x="0 : 0.5 : 1"
       inkscape:vp_y="0 : 1000 : 0"
       inkscape:vp_z="1 : 0.5 : 1"
       inkscape:persp3d-origin="0.5 : 0.33333333 : 1"
       id="perspective10" />
  </defs>
  <sodipodi:namedview
     pagecolor="#ffffff"
     bordercolor="#666666"
     borderopacity="1"
     objecttolerance="10"
     gridtolerance="10"
     guidetolerance="10"
     inkscape:pageopacity="0"
     inkscape:pageshadow="2"
     inkscape:window-width="1280"
     inkscape:window-height="970"
     id="namedview4"
     showgrid="false"
     inkscape:zoom="0.39630563"
     inkscape:cx="707.32183"
     inkscape:cy="924.21687"
     inkscape:window-x="0"
     inkscape:window-y="0"
     inkscape:window-maximized="1"
     inkscape:current-layer="svg2" />
  <path
     sodipodi:nodetypes="ccccccc"
     id="path3613"
     d="M 10,10.000001 10.31541,448.73967 C 18.99887,780.2087 190.82192,1020.541 468.92611,1175.4515 766.67208,1012.7392 920.85891,755.502 928.79851,439.9081 L 927.85231,10 C 847.0816,127.50333 549.192,108.44416 468.6107,10.315413 381.4254,105.70961 104.07397,131.28559 10,10.000001 z"
     style="fill:#fedf31;fill-opacity:1;stroke:none" />
  <path
     style="fill:#1344ca;fill-opacity:1;stroke:none"
     d="M 468.91826,23.031866 191.91405,942.36469 c 70.39781,100.14641 167.14394,173.94441 277.89633,233.73621 99.43926,-66.6247 205.28473,-124.3364 278.78846,-227.04529 L 468.91826,23.031866 z"
     id="path3615"
     sodipodi:nodetypes="ccccc" />
  <path
     style="fill:#fedf31;fill-opacity:1;stroke:none"
     d="m 469.16267,186.78907 c -10.72562,0.25437 -11.89748,25.03048 -14.74556,38.00728 l -0.0788,551.18445 -50.46611,87.92141 50.54495,-0.0789 0,123.08998 3.54879,-0.0103 c 7.67493,10.81112 15.34987,10.78802 23.0248,-0.0592 l 3.54837,-0.009 0,-123.08998 50.70267,-10e-6 -50.78153,-88.00026 0.15771,-550.79019 c -2.865,-11.82799 -4.72962,-38.41935 -15.45524,-38.16498 z"
     id="path3617"
     sodipodi:nodetypes="cccccccccccccz" />
  <path
     style="fill:none;stroke:#4b5227;stroke-width:20;stroke-linecap:round;stroke-linejoin:round;stroke-miterlimit:4;stroke-opacity:1;stroke-dasharray:none"
     d="M 10,10.000001 10.31541,448.73967 C 18.99887,780.2087 190.82192,1020.541 468.92611,1175.4515 766.67208,1012.7392 920.85891,755.502 928.79851,439.9081 L 927.85231,10 C 847.0816,127.50333 549.192,108.44416 468.6107,10.315413 381.4254,105.70961 104.07397,131.28559 10,10.000001 z"
     id="path2839"
     sodipodi:nodetypes="ccccccc" />
</svg>
