<?xml version="1.0" encoding="UTF-8" standalone="no"?>
<!-- Created with Inkscape (http://www.inkscape.org/) -->

<svg
   xmlns:svg="http://www.w3.org/2000/svg"
   xmlns="http://www.w3.org/2000/svg"
   version="1.1"
   width="205.44757"
   height="276.20486"
   id="svg2816">
  <defs
     id="defs2820" />
  <path
     d="m 10.038059,28.849618 c 95.465851,-48.231065 184.517071,-0.215289 184.906381,0 C 209.55213,146.65745 172.29083,221.72583 101.10306,268.83919 63.792516,240.40723 -7.2768844,201.29526 10.038059,28.849618 z"
     id="path2828"
     style="fill:#10144e;fill-opacity:1;stroke:#080829;stroke-width:14.73133373;stroke-linecap:butt;stroke-linejoin:miter;stroke-miterlimit:4;stroke-opacity:1;stroke-dasharray:none" />
  <path
     d="M 69.344893,35.589386 C 9.5466479,85.223963 9.3603009,163.07667 68.480436,201.27714 62.483993,187.38102 48.5116,144.06524 82.311761,162.37654 86.045364,149.05956 87.888993,134.6626 101.90614,127.22193 l -4.034138,46.96887 c -10.315668,-0.0138 -9.594549,12.03325 -0.5763,12.10241 l -1.72892,39.18875 25.645588,0 -2.01707,-39.76506 c 8.26892,0.003 8.97459,-12.08153 -0.57631,-11.95833 l -2.88152,-46.24849 c 19.87962,19.34361 25.62089,40.99535 25.64558,63.39357 10.98456,-4.25374 20.64255,-33.10808 -1.44076,-59.35944 9.36295,3.33244 15.56047,10.7894 22.76405,17.001 3.02008,-5.28279 0.78229,-10.56559 0.28815,-15.84839 7.04383,-2.56126 15.712,-3.21003 16.85694,-11.67018 -4.64981,-6.49052 -12.26142,-8.01248 -19.16216,-8.5005 5.26024,-6.14726 3.10811,-12.29451 3.45783,-18.441774 -5.48199,7.354454 -13.64962,11.128044 -21.32329,15.560244 13.0088,-18.516544 15.7848,-37.963343 3.45783,-58.783135 -10.47193,45.480561 -22.51858,53.308735 -27.66265,60.512055 6.75802,-32.748756 14.02582,-65.621505 -6.91566,-91.632537 C 87.796433,48.505284 97.056332,79.820867 101.90614,110.79722 89.562406,105.07109 85.868096,92.857876 85.769593,77.94782 47.266634,95.435396 64.25989,58.451454 69.344893,35.589386 z"
     id="path3602"
     style="fill:#ad9c94;fill-opacity:1;stroke:#f7efe6;stroke-width:2;stroke-linecap:butt;stroke-linejoin:miter;stroke-miterlimit:4;stroke-opacity:1;stroke-dasharray:none" />
</svg>
