<?xml version="1.0" encoding="utf-8"?>
<!-- Generator: Adobe Illustrator 15.0.2, SVG Export Plug-In . SVG Version: 6.00 Build 0)  -->
<!DOCTYPE svg PUBLIC "-//W3C//DTD SVG 1.1//EN" "http://www.w3.org/Graphics/SVG/1.1/DTD/svg11.dtd">
<svg version="1.1" xmlns="http://www.w3.org/2000/svg" xmlns:xlink="http://www.w3.org/1999/xlink" x="0px" y="0px"
	 width="296.763px" height="432.375px" viewBox="0 0 296.763 432.375" enable-background="new 0 0 296.763 432.375"
	 xml:space="preserve">
<symbol  id="Flame" viewBox="-69 -146 138 292">
	<path fill="#FBCC30" d="M3.902-146c13.148,9.391,70.218,50.697,43.296,167.149c8.14-5.635,15.701-13.156,21.336-20.67
		c-5.636,17.53-25.646,75.753-52.568,92.658c0,0,5.646,1.386,15.664-1.744C25.369,100.785-2.793,135-35.35,146
		c-10.018,0-19.792,0-19.792,0s-9.01-28.974-13.392-44.626C-53.507,92.609-4.045,41.638-12.185-0.364
		C-0.289,9.6-2.167,9.418,2.842,20.062C5.346,6.287,10.355-35.753-7.802-67.683C1.59-63.3,13.484-56.458,21.625-44.563
		C22.251-58.336,27.504-102.138,3.902-146z"/>
	<polygon display="none" fill="none" points="-69,146 69,146 69,-146 -69,-146 	"/>
</symbol>
<symbol  id="Star" viewBox="-73 -69.365 146 138.729">
	<polygon fill="#FBCC30" points="-72.872,16.225 -17.203,16.374 -0.144,69.364 17.202,16.469 72.872,16.619 27.922,-16.225 
		45.269,-69.122 0.144,-36.523 -44.805,-69.365 -27.747,-16.375 	"/>
	<path d="M28.039-6.069c0.202-15.669-12.336-28.536-28.006-28.738C-15.636-35.009-28.502-22.47-28.704-6.801
		C-28.906,8.867-16.367,21.734-0.697,21.937C14.971,22.138,27.837,9.599,28.039-6.069z"/>
	<polygon display="none" fill="none" points="-73,69 73,69 73,-69 -73,-69 	"/>
</symbol>
<g id="rear">
	<g>
		<path fill="#E10932" d="M250.365,421.997c-19.053-0.015-66.293-0.071-112.179-0.126c-40.503-0.048-79.361-0.095-95.039-0.107
			c-13.255-26.521-27.896-89.746-32.032-167.651C6.17,160.975,17.739,74,43.73,10h207.493c9.665,19,26.572,75.326,33.018,150.974
			C289.995,228.508,288.639,327.787,250.365,421.997z"/>
		<path fill="#FBCC30" d="M244.84,20c9.252,0,23.676,74.219,29.437,141.823c5.533,64.938,4.405,159.775-30.698,250.293
			c-22.024-0.021-64.246-0.133-105.381-0.183c-35.911-0.043-70.32-0.115-88.652-0.133c-11.829-27.873-24.682-87.585-28.445-158.453
			c-2.327-43.836-1.002-85.979,3.938-125.734C30.023,87.501,38.595,51,50.558,20h194.48 M257.039,0h-220
			c-65.333,154-30.489,381.377,0.19,432.011c17.462,0,198.477,0.364,219.81,0.364C334.286,250.375,278.901,33,257.039,0L257.039,0z"
			/>
	</g>
</g>
<g id="insignia">
	
		<use xlink:href="#Flame"  width="138" height="292" x="-69" y="-146" transform="matrix(1 0 0 -1 211.0386 164)" overflow="visible"/>
	
		<use xlink:href="#Flame"  width="138" height="292" x="-69" y="-146" transform="matrix(-1 0 0 1 85.1118 266)" overflow="visible"/>
	
		<use xlink:href="#Star"  width="146" height="138.729" x="-73" y="-69.365" transform="matrix(1 0 0 -1 192.0386 342)" overflow="visible"/>
	
		<use xlink:href="#Star"  width="146" height="138.729" x="-73" y="-69.365" transform="matrix(-1 0 0 1 104.0386 88)" overflow="visible"/>
</g>
</svg>
