<?xml version="1.0" encoding="UTF-8" standalone="no"?>
<!-- Created with Inkscape (http://www.inkscape.org/) -->
<svg
   xmlns:dc="http://purl.org/dc/elements/1.1/"
   xmlns:cc="http://web.resource.org/cc/"
   xmlns:rdf="http://www.w3.org/1999/02/22-rdf-syntax-ns#"
   xmlns:svg="http://www.w3.org/2000/svg"
   xmlns="http://www.w3.org/2000/svg"
   xmlns:sodipodi="http://sodipodi.sourceforge.net/DTD/sodipodi-0.dtd"
   xmlns:inkscape="http://www.inkscape.org/namespaces/inkscape"
   id="svg2211"
   sodipodi:version="0.32"
   inkscape:version="0.45.1"
   width="400"
   height="525.547"
   version="1.0"
   sodipodi:docbase="C:\Documents and Settings\steven.williamson\Desktop"
   sodipodi:docname="70th_Infantry_Division_patch.svg"
   inkscape:output_extension="org.inkscape.output.svg.inkscape">
  <metadata
     id="metadata2216">
    <rdf:RDF>
      <cc:Work
         rdf:about="">
        <dc:format>image/svg+xml</dc:format>
        <dc:type
           rdf:resource="http://purl.org/dc/dcmitype/StillImage" />
      </cc:Work>
    </rdf:RDF>
  </metadata>
  <defs
     id="defs2214" />
  <sodipodi:namedview
     inkscape:window-height="968"
     inkscape:window-width="1280"
     inkscape:pageshadow="2"
     inkscape:pageopacity="0.0"
     guidetolerance="10.0"
     gridtolerance="10.0"
     objecttolerance="10.0"
     borderopacity="1.0"
     bordercolor="#666666"
     pagecolor="#ffffff"
     id="base"
     inkscape:zoom="0.60862844"
     inkscape:cx="78.580889"
     inkscape:cy="114.37898"
     inkscape:window-x="0"
     inkscape:window-y="22"
     inkscape:current-layer="svg2211" />
  <g
     id="g7098"
     transform="matrix(2.4024024,0,0,2.4024024,3.6036036,-1.1260578)">
    <path
       sodipodi:nodetypes="ccccc"
       id="path2220"
       d="M -0.87135279,12.779841 C 34.757296,-3.0013261 129.05703,-2.8076922 164.39523,12.48939 C 138.44828,102.91645 148.22679,158.19894 146.67772,214.93369 C 113.49904,219.47433 54.446198,220.67093 21.202918,214.35279 C 19.072944,155.00398 29.432361,99.431036 -0.87135279,12.779841 z "
       style="fill:#c41e04;fill-opacity:1;fill-rule:evenodd;stroke:none;stroke-width:1px;stroke-linecap:butt;stroke-linejoin:miter;stroke-opacity:1" />
    <path
       sodipodi:nodetypes="cccccccccc"
       id="path2222"
       d="M 28.754642,102.23873 C 50.344828,77.163132 64.092838,45.697614 74.355438,12.198939 C 89.362068,14.71618 108.14456,20.428382 120.24668,31.078249 L 114.14721,44.148541 L 130.99337,47.633952 L 141.74005,56.928382 C 139.61008,64.67374 138.64191,72.128647 138.83554,80.164456 L 106.01459,68.83687 C 100.3992,87.716179 97.107427,104.27188 96.139257,126.34615 C 73.677719,129.34748 55.572944,123.34483 28.754642,102.23873 z "
       style="fill:#ffffff;fill-opacity:1;fill-rule:evenodd;stroke:none;stroke-width:1px;stroke-linecap:butt;stroke-linejoin:miter;stroke-opacity:1" />
    <path
       id="path2224"
       d="M 65.34375,154.8125 C 63.472875,154.87861 60.608428,160.93248 58.65625,164.6875 C 58.260199,165.44931 57.453581,160.90228 53,169.90625 C 49.119868,177.75086 41.357743,178.27945 32.03125,178.8125 L 32.03125,201.96875 L 108.90625,199.53125 L 111.25,174.28125 L 92.375,176.3125 C 92.375,176.3125 86.340116,177.90164 82.78125,168.75 C 80.157216,162.0023 73.383186,162.01767 70.59375,162.0625 C 69.884277,162.0739 67.638069,154.73144 65.34375,154.8125 z "
       style="fill:#ffffff;fill-opacity:1;fill-rule:evenodd;stroke:none;stroke-width:1px;stroke-linecap:butt;stroke-linejoin:miter;stroke-opacity:1" />
    <path
       id="path2226"
       d="M 113.0625,107.40625 L 100.21875,135.5625 L 108.40625,135.5625 L 94.09375,166 L 103.625,165.90625 L 88.21875,186.03125 L 97,186.09375 L 88.4375,194.6875 C 88.4375,194.6875 85.340612,190.73642 84,190.46875 C 82.758285,190.22083 80.593747,194.09375 80.59375,194.09375 C 80.59375,194.09375 78.591473,190.66939 77.5625,190.75 C 76.635619,190.82261 74.437496,194.375 74.4375,194.375 C 74.4375,194.375 70.961238,189.7984 69.625,189.8125 C 68.283741,189.82665 63.59375,197.9375 63.59375,197.9375 C 63.59375,197.9375 60.563417,192.90128 59.03125,192.21875 C 57.534801,191.55213 54.593751,198.09376 54.59375,198.09375 C 54.59375,198.09375 50.543461,192.34109 49.53125,191.78125 C 48.565592,191.24716 46.75,195.75 46.75,195.75 C 46.75,195.75 45.667749,192.87447 43.9375,192.875 C 42.204239,192.87553 40.656248,197 40.65625,197 C 40.65625,197 39.241325,193.41502 37.40625,193.15625 C 36.449717,193.02137 34.023729,195.75774 32.03125,198.28125 L 32.03125,205.375 C 57.177319,208.6397 109.20509,207.9537 135.84375,205.25 L 135.84375,184.28125 L 128.25,171.875 L 134.125,171.875 L 124.15625,144 L 130.125,143.84375 L 113.0625,107.40625 z "
       style="fill:#004800;fill-opacity:1;fill-rule:evenodd;stroke:none;stroke-width:1px;stroke-linecap:butt;stroke-linejoin:miter;stroke-opacity:1" />
    <path
       id="path6123"
       d="M 81.875,0.46875 C 49.3893,0.48086708 16.901865,4.3554583 -1.0625,12.3125 L -1.5,12.5 L -1.34375,12.9375 C 28.926251,99.492296 18.586292,154.95694 20.71875,214.375 L 20.71875,214.78125 L 21.125,214.84375 C 54.486361,221.18433 113.50405,219.98735 146.75,215.4375 L 147.15625,215.375 L 147.1875,214.9375 C 148.73838,158.1365 138.95213,102.96812 164.875,12.625 L 165,12.21875 L 164.59375,12.03125 C 146.77656,4.3186038 114.3607,0.45663292 81.875,0.46875 z M 81.875,1.46875 C 114.05169,1.4567482 146.17594,5.3022763 163.78125,12.78125 C 138.03323,102.81008 147.67484,158.06673 146.1875,214.5 C 113.12653,218.96921 54.74682,220.12854 21.6875,213.9375 C 19.625627,154.91954 29.812488,99.368276 -0.25,13.09375 C 17.495626,5.3785097 49.695645,1.4807528 81.875,1.46875 z "
       style="fill:#000000;fill-opacity:1;fill-rule:evenodd;stroke:none;stroke-width:1px;stroke-linecap:butt;stroke-linejoin:miter;stroke-opacity:1" />
  </g>
</svg>
