<?xml version="1.0" encoding="UTF-8" standalone="no"?>
<svg
   xmlns:svg="http://www.w3.org/2000/svg"
   xmlns="http://www.w3.org/2000/svg"
   version="1.0"
   width="168"
   height="154"
   id="svg2">
  <defs
     id="defs5" />
  <g
     id="g2384">
    <path
       d="M 15,3.71875 L 25.22243,20.851714 L 28.949747,57.183637 L 141.87603,57.078244 L 144.4375,21.9375 L 157.375,5.4375 L 15,3.71875 z M 50.03125,20 L 84.28125,20 L 118.5625,20 L 128,39.5 L 111,40 L 111,28 L 89,28.46875 L 93.875,40 L 75,40 L 80,28 L 58,28 L 58,40 L 39.96875,40 L 50.03125,20 z"
       id="path2390"
       style="fill:#0133fb" />
    <path
       d="M 84.161742,153.90318 L 24,116.51905 L 29.18545,58.600172 L 140.89026,57.515874 L 139.86336,113.59381 L 84.161742,153.90318 z"
       id="path2388"
       style="fill:#c90032" />
    <path
       d="M 5.15625,0 C 2,0.67708333 1.8854167,1.9791667 2,4.03125 L 24,21.4375 L 24,116.53125 L 53.75,135.15625 L 84.15625,153.90625 L 113.65625,136.03125 L 143.5,116.1875 L 144.46875,68.15625 L 144.4375,21.9375 L 167,4.96875 C 167.34697,2.1045259 167.34038,2.0981917 164.59375,0 L 5.15625,0 z M 18.5,7.5 L 151.34375,7.5 L 137,17.96875 L 137,52 L 32,52 L 32,18.1875 L 18.5,7.5 z M 32,61 L 137,61 L 137,112.5 L 84.25,144.9375 L 32,112.625 L 32,61 z"
       id="path2386"
       style="fill:#023303" />
  </g>
</svg>
