<?xml version="1.0" encoding="UTF-8"?>
<!DOCTYPE svg PUBLIC "-//W3C//DTD SVG 1.1//EN" "http://www.w3.org/Graphics/SVG/1.1/DTD/svg11.dtd">
<!-- Creator: CorelDRAW X7 -->
<svg xmlns="http://www.w3.org/2000/svg" xml:space="preserve" width="2.17228in" height="4.12669in" version="1.1" style="shape-rendering:geometricPrecision; text-rendering:geometricPrecision; image-rendering:optimizeQuality; fill-rule:evenodd; clip-rule:evenodd"
viewBox="0 0 11682 22193"
 xmlns:xlink="http://www.w3.org/1999/xlink">
 <defs>
  <style type="text/css">
   <![CDATA[
    .str2 {stroke:#981B1E;stroke-width:38.6833}
    .str0 {stroke:#C08329;stroke-width:38.6833;stroke-linecap:round;stroke-linejoin:round}
    .str8 {stroke:#ED1D24;stroke-width:27.9274;stroke-linecap:round;stroke-linejoin:round}
    .str4 {stroke:black;stroke-width:45.12;stroke-linecap:round;stroke-linejoin:round}
    .str6 {stroke:black;stroke-width:34.8086;stroke-linecap:round;stroke-linejoin:round}
    .str3 {stroke:black;stroke-width:35.6344;stroke-linecap:round;stroke-linejoin:round}
    .str5 {stroke:white;stroke-width:35.6344;stroke-linecap:round;stroke-linejoin:round}
    .str7 {stroke:black;stroke-width:25.3866;stroke-linecap:round;stroke-linejoin:round}
    .str9 {stroke:#981B1E;stroke-width:25.7677;stroke-linecap:round;stroke-linejoin:round}
    .str1 {stroke:#C08329;stroke-width:25.7677;stroke-linecap:round;stroke-linejoin:round}
    .fil1 {fill:none}
    .fil3 {fill:black}
    .fil4 {fill:#439539}
    .fil7 {fill:#6C3C00}
    .fil10 {fill:#6D6E71}
    .fil9 {fill:#808285}
    .fil6 {fill:#B4B6B8}
    .fil8 {fill:#CF7418}
    .fil2 {fill:#D31245}
    .fil0 {fill:#FDC057}
    .fil5 {fill:white}
   ]]>
  </style>
 </defs>
 <g id="Layer_x0020_1">
  <metadata id="CorelCorpID_0Corel-Layer"/>
  <path class="fil0" d="M5800 22174c-266,-431 -655,-746 -1225,-807l-3059 -4c-82,-8 -147,-15 -242,-32 -811,-232 -1215,-776 -1212,-1631l-10 -11402 11496 0 -10 11402c3,827 -375,1363 -1134,1607 -122,40 -216,56 -343,56l-3036 4c-622,9 -981,355 -1225,807z"/>
  <path class="fil1 str0" d="M5800 22174c-266,-431 -655,-746 -1225,-807l-3059 -4c-82,-8 -147,-15 -242,-32 -811,-232 -1215,-776 -1212,-1631l-10 -11402 11496 0 -10 11402c3,827 -375,1363 -1134,1607 -122,40 -216,56 -343,56l-3036 4c-622,9 -981,355 -1225,807z"/>
  <polygon class="fil2" points="6622,8298 11548,8298 11544,12883 6622,12883 "/>
  <path class="fil0" d="M8964 12519l-176 -985c-2,0 -5,-1 -8,-2 -63,63 -76,144 -48,277 39,149 -72,295 -253,335 -154,62 -171,129 -139,245 -218,-124 -199,-270 -31,-416 115,-69 141,-157 96,-229 -82,-131 -51,-278 2,-365l-787 544 552 -774c-13,-17 -25,-35 -37,-53 -89,2 -155,51 -227,167 -78,113 -230,136 -414,67 -154,-61 -213,-25 -270,81 -72,-241 42,-333 265,-321 131,29 211,-17 228,-100 36,-174 153,-245 267,-261 -3,-15 -5,-30 -8,-45l-943 -219 952 -129c2,-8 3,-15 5,-23 -64,-74 -147,-91 -289,-61 -114,44 -250,-65 -335,-253 -62,-154 -128,-171 -245,-139 124,-218 270,-199 416,-30 69,114 158,141 230,95 158,-99 296,-55 385,24 1,0 1,-1 1,-1l-549 -824 804 573c5,-4 11,-7 17,-11 16,-110 -27,-187 -159,-272 -112,-49 -131,-223 -58,-416 65,-152 30,-212 -75,-271 242,-67 332,50 316,272 -32,130 12,211 94,231 191,43 255,182 257,305 0,0 0,0 0,0l200 -999 167 997c99,-67 125,-153 91,-312 -44,-114 65,-250 253,-335 154,-62 171,-128 139,-245 218,124 200,270 31,416 -115,69 -141,158 -96,230 96,153 48,307 -26,397l844 -577 -595 835c119,23 199,-18 288,-156 49,-112 223,-131 416,-58 152,65 212,30 271,-75 67,243 -50,332 -272,316 -130,-32 -211,12 -230,95 -31,168 -190,259 -302,264l1012 176 -1000 167c-2,10 -3,20 -5,29 66,88 151,111 303,78 114,-44 251,65 335,253 62,154 129,171 245,139 -124,219 -270,200 -416,31 -69,-115 -157,-141 -230,-96 -118,80 -274,67 -375,-21l571 822 -805 -574c-17,14 -34,26 -51,38 -6,97 40,168 161,246 112,49 131,223 58,416 -65,152 -30,212 75,272 -242,66 -332,-51 -316,-273 32,-130 -11,-211 -94,-230 -173,-39 -241,-157 -254,-270 -7,1 -13,2 -19,4l-210 984z"/>
  <path class="fil1 str1" d="M8983 9518c561,0 1017,456 1017,1018 0,561 -456,1017 -1017,1017 -562,0 -1018,-456 -1018,-1017 0,-562 456,-1018 1018,-1018z"/>
  <polygon class="fil3" points="8438,11197 8438,9850 8607,9850 8607,11197 "/>
  <path class="fil3" d="M9019 10886c50,95 135,169 247,169 160,0 287,-122 287,-283 0,-260 -324,-376 -523,-230l7 -175 367 -365 -462 9 0 -159 640 0 0 182 -294 309c228,5 431,185 431,413 0,128 -42,234 -127,319 -141,140 -384,167 -555,67 -67,-40 -122,-97 -165,-175l147 -81z"/>
  <line class="fil1 str1" x1="9002" y1="8535" x2="8978" y2= "9505" />
  <line class="fil1 str1" x1="7605" y1="9122" x2="8269" y2= "9796" />
  <line class="fil1 str1" x1="7032" y1="10463" x2="7956" y2= "10514" />
  <line class="fil1 str1" x1="7618" y1="11922" x2="8283" y2= "11292" />
  <line class="fil1 str1" x1="8962" y1="12520" x2="8986" y2= "11554" />
  <line class="fil1 str1" x1="10419" y1="11909" x2="9753" y2= "11211" />
  <line class="fil1 str1" x1="10992" y1="10506" x2="10002" y2= "10496" />
  <line class="fil1 str1" x1="10405" y1="9108" x2="9706" y2= "9803" />
  <path class="fil1 str1" d="M8140 8726c55,10 113,31 153,83 53,70 62,178 41,261 -34,71 -67,185 61,248 199,56 214,172 207,274"/>
  <path class="fil1 str1" d="M7125 9855c46,-33 103,-58 167,-50 88,12 170,82 214,156 19,67 75,170 218,132 181,-101 271,-44 323,25"/>
  <path class="fil1 str1" d="M7222 11405c21,-217 165,-258 341,-202 61,32 175,63 247,-66 38,-151 130,-221 218,-234"/>
  <path class="fil1 str1" d="M8335 12385c-120,-146 -68,-304 106,-381 67,-19 170,-75 132,-218 -101,-181 -54,-266 25,-313"/>
  <path class="fil1 str1" d="M9851 12305c-185,-23 -248,-178 -195,-345 34,-61 67,-174 -60,-248 -200,-56 -196,-159 -187,-243"/>
  <path class="fil1 str1" d="M10865 11176c-46,32 -102,57 -167,49 -87,-12 -170,-82 -214,-155 -19,-67 -75,-171 -218,-133 -180,94 -265,10 -336,-57"/>
  <path class="fil1 str1" d="M10785 9660c-10,55 -32,113 -84,153 -70,54 -178,62 -261,41 -61,-34 -174,-67 -248,61 -56,199 -167,219 -274,197"/>
  <path class="fil1 str1" d="M9656 8645c97,141 35,296 -106,381 -67,19 -171,75 -133,218 101,181 15,306 -54,343"/>
  <path class="fil2" d="M54 10965l-2 -2667 2220 0 9267 10629 -1 773c3,827 -375,1363 -1134,1607 -122,40 -216,56 -343,56l-931 1 -9076 -10399z"/>
  <path class="fil1 str2" d="M6622 8298l4926 0 -4 4585m-11490 -1918l-2 -2667 2220 0m9267 10629l-1 773c3,827 -375,1363 -1134,1607 -122,40 -216,56 -343,56l-931 1"/>
  <path class="fil4" d="M2682 15688c1176,0 2130,953 2130,2129 0,1176 -954,2130 -2130,2130 -1176,0 -2130,-954 -2130,-2130 0,-1176 954,-2129 2130,-2129z"/>
  <path class="fil3" d="M2682 15960c1026,0 1857,832 1857,1857 0,1026 -831,1858 -1857,1858 -1026,0 -1858,-832 -1858,-1858 0,-1025 832,-1857 1858,-1857z"/>
  <polygon class="fil2" points="2713,17824 3648,19396 1741,19396 2676,17824 1741,16252 3648,16252 "/>
  <path class="fil5" d="M4429 4354c140,78 253,179 301,325 -18,76 -36,153 -54,229 18,22 36,45 54,67 -45,146 -90,258 -135,336 29,26 57,52 86,79 -125,140 -94,358 -193,498 7,22 66,44 72,66 -64,54 -72,201 -99,284 -72,-101 -172,-187 -336,-242 3,-269 -147,-537 -416,-564 64,-144 -91,-416 -291,-473 13,-86 109,-68 204,-55 361,-417 562,-304 807,-550zm-1328 431c-128,185 -69,604 240,552 -88,406 158,567 399,576 -56,187 39,529 400,555 -52,187 16,378 155,453 -84,83 -168,374 29,523 1862,17 3705,-44 5566,-27 -89,-110 -357,-256 -447,-365 11,-30 21,-60 31,-90 -153,-12 -248,-380 -461,-392l60 -52c-167,-136 -226,-315 -234,-515 13,-20 27,-41 40,-61 -71,-200 -77,-400 -54,-600 -120,-282 10,-731 -111,-847 7,-33 15,-66 22,-99 -133,-82 -51,-545 -291,-818 -2,-42 -4,-84 -7,-127 -57,-114 -128,-234 -177,-411 8,-36 15,-72 22,-108 -124,-36 -192,-155 -253,-286 -43,-15 -86,-30 -130,-45 14,-26 -5,-53 9,-80 -126,-53 -181,-223 -287,-335 -14,-35 24,-57 10,-93 -131,-54 -251,-224 -322,-338 -98,-125 -248,-118 -365,-236 -21,-46 -138,-137 -326,-183 3,-35 -3,-24 0,-59 -101,-42 -205,-54 -307,-95 -121,-65 -242,-163 -363,-228 -230,-46 -352,-197 -635,-316 -16,83 -35,164 -79,220 -4,44 6,73 2,117 16,196 -156,199 -281,198 -232,-70 -143,-151 -85,-245 -83,-53 -154,-275 -186,-401 -149,-21 -204,-22 -338,29 -228,-67 -545,187 -561,216 -369,-258 -953,-740 -1106,-754 -39,95 642,587 964,889 -186,265 -399,359 -592,527 -199,174 -117,143 -92,349 -39,27 -59,89 -88,103 -41,-12 -132,43 -42,126 15,23 28,39 9,64 -132,-8 -102,126 -31,152 1,14 5,96 65,154 -277,431 -576,772 -1028,1065 -215,5 -183,175 -188,345 -192,120 -240,176 -216,296 -184,219 -47,363 16,384l1644 313z"/>
  <path class="fil1 str3" d="M4429 4354c140,78 253,179 301,325 -18,76 -36,153 -54,229 18,22 36,45 54,67 -45,146 -90,258 -135,336 29,26 57,52 86,79 -125,140 -94,358 -193,498 7,22 66,44 72,66 -64,54 -72,201 -99,284 -72,-101 -172,-187 -336,-242 3,-269 -147,-537 -416,-564 64,-144 -91,-416 -291,-473 13,-86 109,-68 204,-55 361,-417 562,-304 807,-550zm-1328 431c-128,185 -69,604 240,552 -88,406 158,567 399,576 -56,187 39,529 400,555 -52,187 16,378 155,453 -84,83 -168,374 29,523 1862,17 3705,-44 5566,-27 -89,-110 -357,-256 -447,-365 11,-30 21,-60 31,-90 -153,-12 -248,-380 -461,-392l60 -52c-167,-136 -226,-315 -234,-515 13,-20 27,-41 40,-61 -71,-200 -77,-400 -54,-600 -120,-282 10,-731 -111,-847 7,-33 15,-66 22,-99 -133,-82 -51,-545 -291,-818 -2,-42 -4,-84 -7,-127 -57,-114 -128,-234 -177,-411 8,-36 15,-72 22,-108 -124,-36 -192,-155 -253,-286 -43,-15 -86,-30 -130,-45 14,-26 -5,-53 9,-80 -126,-53 -181,-223 -287,-335 -14,-35 24,-57 10,-93 -131,-54 -251,-224 -322,-338 -98,-125 -248,-118 -365,-236 -21,-46 -138,-137 -326,-183 3,-35 -3,-24 0,-59 -101,-42 -205,-54 -307,-95 -121,-65 -242,-163 -363,-228 -230,-46 -352,-197 -635,-316 -16,83 -35,164 -79,220 -4,44 6,73 2,117 16,196 -156,199 -281,198 -232,-70 -143,-151 -85,-245 -83,-53 -154,-275 -186,-401 -149,-21 -204,-22 -338,29 -228,-67 -545,187 -561,216 -369,-258 -953,-740 -1106,-754 -39,95 642,587 964,889 -186,265 -399,359 -592,527 -199,174 -117,143 -92,349 -39,27 -59,89 -88,103 -41,-12 -132,43 -42,126 15,23 28,39 9,64 -132,-8 -102,126 -31,152 1,14 5,96 65,154 -277,431 -576,772 -1028,1065 -215,5 -183,175 -188,345 -192,120 -240,176 -216,296 -184,219 -47,363 16,384l1644 313z"/>
  <path class="fil6" d="M4481 3848c353,108 474,724 249,831 -18,76 -36,153 -54,229 18,22 140,45 158,67 -45,146 -194,258 -239,336 29,26 148,52 177,79 -125,140 -94,358 -193,499 7,21 -26,43 -19,65 -63,57 -60,348 -143,347 -58,-117 -175,-260 -356,-293 11,-266 -19,-508 -400,-583 65,-143 -88,-404 -288,-461 13,-86 96,-164 191,-151 -76,-701 573,-777 917,-965zm-381 -1925c228,0 664,31 796,177 118,54 253,654 140,648 -12,-54 -175,-62 -246,-92 -125,114 -396,200 -643,218 -375,0 -663,-314 -663,-544 58,-121 338,-334 616,-407zm-970 2847c-104,240 24,579 265,473 -57,408 235,660 364,603 -56,187 44,550 404,576 -52,186 102,441 242,516 -84,84 -180,312 18,462 352,77 1109,156 1449,64 140,-39 792,178 908,-206 -348,-203 -990,-171 -1122,-100 -346,-42 -577,-217 -510,-244 728,163 2186,62 2015,-95 -1889,74 -2338,-505 -2199,-603 164,81 2425,259 2281,67 -1785,-49 -2497,-259 -2261,-500 782,295 2489,117 2296,-168 321,148 -2008,72 -1996,-12 91,64 -296,-152 -52,-333 147,191 1861,-69 1908,-246 -217,230 -2064,10 -1887,-170 25,183 1788,-189 1817,-442 -881,129 -1584,149 -1599,53 204,73 1603,-330 1459,-521 -264,150 -795,399 -1231,26 605,-1104 343,-1639 82,-2103 28,-61 96,-114 21,-222 1667,1363 1906,5430 1023,5543 141,-22 959,291 1044,167 155,-2779 -167,-4734 -2269,-6310 1322,639 2301,2252 2558,3265 137,1043 376,2264 301,2767 -876,12 -574,239 125,464 177,160 1169,110 1306,-124 -89,-110 -422,-178 -512,-287 11,-30 21,-60 31,-90 -153,-12 -299,-354 -513,-366 20,-17 40,-35 60,-52 -167,-136 -225,-315 -234,-515 13,-20 27,-41 40,-61 -71,-200 -77,-400 -54,-600 -120,-282 10,-731 -111,-847 8,-33 15,-66 22,-99 -133,-82 -25,-532 -265,-805 -2,-42 -4,-85 -6,-127 -58,-114 -129,-235 -178,-411 8,-36 15,-72 22,-108 -124,-36 -192,-155 -253,-286 -43,-15 -86,-30 -130,-45 14,-27 -5,-53 8,-80 -125,-53 -180,-224 -286,-335 -14,-36 24,-57 10,-93 -131,-54 -209,-189 -280,-303 -271,149 -305,-166 -342,-409 -96,109 -138,1 -326,-45 3,-35 2,-106 5,-142 -101,-41 -197,-10 -299,-51 -121,-65 -229,-241 -350,-306 -252,106 -365,-105 -635,-316 -16,83 -35,164 -79,220 -4,44 6,73 2,117 16,196 -224,199 -348,198 20,402 -798,790 -1146,662 272,80 1215,-363 1047,-799 69,-28 -4,-317 -105,-455 -149,-21 -164,-43 -297,9 151,373 -136,684 -401,799 -280,205 -613,-152 -319,-379 25,-23 191,184 220,165 176,70 313,-122 240,-188 -44,-54 -250,-198 -342,-215 -369,-230 -953,-729 -1106,-754 58,86 1172,784 1347,1044 -7,7 -56,56 -117,32 -133,-41 -230,-168 -238,-157 -141,156 -102,109 -264,299 -206,246 -444,204 -420,410 27,99 174,291 33,282 -64,-3 -121,-18 -149,-42 34,17 -7,93 -12,140 14,23 -2,25 -21,50 -12,78 13,195 -10,152 1,14 9,68 69,125 -301,513 -566,860 -983,1073 101,-51 201,-70 302,-18 17,73 486,-530 510,-619 218,82 -243,716 -323,767 31,50 48,86 80,98 473,-250 816,-477 1046,-762l87 23c-227,419 -557,798 -957,1151l139 272c489,-261 947,-488 1449,-816 491,-41 560,333 311,703l-274 -534 -911 615 -68 129c56,233 -117,223 -176,335z"/>
  <path class="fil3" d="M7438 3467c-611,665 -1165,731 -2107,631 -55,71 -353,443 -407,472 107,73 732,107 896,90 -83,42 -823,-153 -706,-133 26,-29 118,-205 143,-234 38,-58 134,-36 172,-95 1149,96 1668,-152 2009,-731z"/>
  <path class="fil7" d="M3056 5197c-172,89 -445,179 -554,270 -111,92 -221,-19 -349,-52 -97,-50 -323,-33 -304,-248 -102,-100 -288,-44 -329,-209 -20,-84 -37,-184 -53,-271 -27,-151 55,-250 84,-287 58,-94 70,-221 110,-341 170,-24 602,211 711,375 200,236 267,266 462,284 93,10 182,32 275,42 -140,215 -65,419 -53,437z"/>
  <path class="fil3" d="M2968 5050c-172,89 -244,57 -353,148 -94,80 -99,116 -302,137 -32,-47 -286,56 -464,-169 244,17 311,255 606,29 202,-175 435,-145 608,-372 -141,216 -109,214 -95,227z"/>
  <path class="fil8" d="M3022 5202c-172,89 -369,103 -478,193 -111,173 -280,46 -407,-14 -169,-36 -306,-46 -262,-210 7,26 14,95 88,122 86,31 218,62 309,80 92,17 186,15 251,-36 166,-116 338,-29 498,-198 -41,85 15,4 1,63z"/>
  <path class="fil8" d="M2964 4941c-172,89 -341,137 -449,227 -112,93 -242,154 -370,121 -118,-87 -266,-167 -256,-147 -102,-100 -345,-65 -297,-172 25,-88 29,-163 14,-249 -27,-151 55,-145 84,-183 58,-93 61,-207 102,-328 100,-14 272,87 379,161 -211,97 -172,268 -283,341 132,56 113,-231 421,-215 250,121 82,368 -86,399 28,15 -30,311 26,314 126,27 106,-122 497,-282 93,10 215,-35 363,-168 -141,216 -160,168 -145,181z"/>
  <path class="fil3" d="M4793 4665c183,-77 370,-384 549,-599 235,-352 463,-953 458,-1432 -12,-291 -63,-531 -234,-679 -72,24 -169,66 -236,81 -56,16 -91,-5 -107,-41 -79,-169 119,-317 261,-345 107,-190 143,-374 -22,-501 10,-117 -166,-228 -216,-288 100,-151 490,-202 367,226 168,129 207,368 33,535 -365,118 -415,494 36,217 46,40 96,100 144,173 6,11 316,-270 323,-259 36,38 -357,425 -390,385 79,115 132,191 160,328 106,84 551,-330 568,-454 -46,367 -474,507 -606,625 -247,536 737,-11 871,-357 83,117 -377,660 -873,684 7,6 -91,241 -102,264 270,66 913,-216 1188,-544 -11,348 -1147,807 -1257,855 -76,191 -166,416 -261,562 -183,219 -290,589 -654,564z"/>
  <path class="fil1 str3" d="M5440 1065c16,27 24,56 22,84 165,127 129,311 22,501 -142,28 -340,176 -261,345 16,36 51,57 107,41 67,-15 164,-57 236,-81 171,148 222,388 234,679 5,479 -223,1080 -458,1432 -179,215 -366,522 -618,599"/>
  <path class="fil6" d="M4467 4351c92,-182 262,-362 151,-611 -124,-223 -281,-131 -468,-35 -258,222 -539,409 -797,632 218,86 341,212 270,537 127,-340 284,-413 414,-495 223,-173 272,-40 430,-28z"/>
  <path class="fil1 str3" d="M1434 4095c52,-27 136,-37 221,-36 256,4 473,151 662,313 305,345 307,308 778,386m1377 -393c91,-182 257,-376 146,-625 -124,-223 -281,-131 -468,-35 -258,222 -539,409 -797,632"/>
  <path class="fil1 str3" d="M3111 4766c-114,233 -539,315 -753,489 -35,25 -203,75 -323,-19 -50,-24 -126,-59 -175,-68"/>
  <path class="fil1 str3" d="M2922 2321c-13,20 -34,39 -44,64m79 -619c14,51 39,94 58,146"/>
  <path class="fil1 str4" d="M5465 1137c51,76 185,103 347,180 139,127 284,253 333,403 94,100 187,150 281,249 243,119 269,306 338,318 94,87 142,158 236,246 -12,65 -18,106 -30,171 82,42 164,125 246,228 143,170 193,339 230,509 -17,59 50,140 32,198 41,164 48,305 89,469 -5,281 -11,562 -17,843 64,73 64,310 67,537 7,196 14,391 21,587 57,176 94,419 0,595 29,245 58,423 87,669"/>
  <path class="fil3" d="M7567 4143c-1031,635 -1969,598 -2650,445 -55,29 -110,58 -165,87 -14,73 -35,174 -50,247 32,36 77,27 109,40 26,-29 -13,-168 13,-197 38,-59 133,-36 171,-95 1033,182 1870,-35 2572,-527z"/>
  <path class="fil3" d="M7640 6719c-1721,288 -2710,-81 -3100,-196 -79,-17 315,274 274,331 64,132 1,312 -46,406 -11,23 -205,20 -362,15 -139,-82 -119,-249 -92,-328 -58,5 -106,205 -107,321 9,11 620,74 743,79 304,12 812,11 834,20 -21,-4 -194,-358 -808,-339 49,-116 -112,-303 -86,-318 948,171 1761,349 2750,9z"/>
  <path class="fil1 str3" d="M6626 1302c-21,293 -37,419 -198,661m-1971 4267c80,127 91,215 75,342 323,116 368,519 197,709m2178 -5781c5,249 -32,489 -194,732m591 -459c-91,281 -127,493 -330,707m936 118c-60,279 -234,585 -447,806m789 -349c-108,366 -344,654 -709,925m1903 3061c-144,309 -404,476 -860,404m459 -896c-465,532 -680,570 -1355,680m1143 -1224c-257,303 -632,601 -1183,703m1170 -1403c-335,393 -751,606 -1182,840m807 -2563c-136,663 -514,1051 -878,1141m1142 -281c-244,459 -588,817 -1054,1053m-9 1216c-1080,177 -2061,160 -3109,-203m3083 -363c-1024,300 -2048,173 -3073,-193m176 -1001c979,245 1936,334 2836,-24m-2643 -339c682,153 1620,190 2651,-445"/>
  <path class="fil3" d="M3718 1727c797,-25 1068,-857 710,-1144 570,33 349,1172 -672,1238 -336,303 -524,875 -1107,1279 -17,26 -97,27 -150,55 308,-326 969,-1015 1219,-1428z"/>
  <path class="fil1 str3" d="M6155 1730c-125,157 -285,274 -444,371m779 -96c-219,336 -433,487 -684,504m948 -216c-324,418 -634,653 -958,623m1174 -227c-338,347 -743,589 -1251,527m-2057 -2253c-139,146 -172,312 -144,424 229,420 809,-138 880,-302 104,-205 115,-373 0,-475 -187,-151 -452,45 -619,150m-147 137c88,80 170,154 257,233 122,63 296,-68 196,-169 -102,-63 -209,-145 -310,-201m2181 194c12,186 -53,242 -140,369"/>
  <path class="fil3" d="M3505 1358c-7,169 76,283 169,336 178,150 1401,-536 719,-1103 281,375 -272,905 -648,952 -104,0 -206,-44 -240,-185z"/>
  <path class="fil1 str5" d="M3505 1358c-7,169 76,283 169,336 178,150 1401,-536 719,-1103 281,375 -272,905 -648,952 -104,0 -206,-44 -240,-185z"/>
  <path class="fil1 str3" d="M3912 5775c-104,6 -148,81 -170,148m0 -486c-211,-61 -344,171 -135,263 -9,-65 173,-187 305,73 31,62 42,136 42,221 -54,134 -19,197 63,234 255,-87 350,212 322,297 -51,30 -102,133 -17,214 190,-117 548,174 225,472"/>
  <path class="fil7" d="M4099 1923c229,0 442,139 574,285 53,45 260,442 208,445 -12,-54 -53,-95 -125,-125 -125,114 -402,200 -649,217 -376,0 -624,-185 -624,-415 59,-121 339,-334 616,-407z"/>
  <path class="fil1 str3" d="M4099 1923c229,0 442,139 574,285 53,45 260,442 208,445 -12,-54 -53,-95 -125,-125 -125,114 -402,200 -649,217 -376,0 -624,-185 -624,-415 59,-121 339,-334 616,-407z"/>
  <path class="fil8" d="M4127 2052c76,43 74,204 187,292 54,-7 547,67 449,204 -9,-36 -136,-60 -186,-81 -388,15 -303,214 -472,226 -244,41 -547,-175 -401,-362 14,-93 198,-242 423,-279z"/>
  <path class="fil1 str3" d="M4577 2118c124,72 233,291 321,533"/>
  <path class="fil9" d="M4630 3187c-14,-136 -160,-187 -337,-179 -292,-18 -569,-114 -802,-423 40,349 523,508 813,550 177,7 268,15 326,52z"/>
  <path class="fil3" d="M4635 2196c-360,13 -784,-5 -1130,200 -27,47 24,37 7,63 197,-133 749,-206 1201,-209 -13,-20 -65,-35 -78,-54z"/>
  <path class="fil6" d="M4616 2168c-361,13 -773,-9 -1119,195 -5,45 20,60 23,63 198,-116 692,-185 1144,-205 9,-13 -15,-28 -48,-53z"/>
  <path class="fil5" d="M3822 2233c-113,28 -145,51 -248,112 -27,47 -24,49 -4,50 62,-37 98,-50 207,-78 -9,-41 32,-51 45,-84z"/>
  <path class="fil3" d="M4790 2484c-356,-94 -888,-111 -1210,68 -22,61 84,64 62,60 284,-156 592,-127 944,-113 47,17 123,29 171,58 221,82 109,-37 33,-73z"/>
  <path class="fil6" d="M4785 2443c-355,-93 -899,-110 -1221,69 16,57 61,71 65,76 221,-163 822,-198 1161,-54 23,-24 21,-41 -5,-91z"/>
  <path class="fil3" d="M4402 1994c20,0 36,14 55,14 -174,356 -223,525 11,686 -20,0 -39,15 -59,15 -325,-131 -324,-438 -7,-715z"/>
  <path class="fil3" d="M4034 1965c19,0 55,-26 75,-26 -205,356 -257,639 0,801 -19,0 -49,3 -68,3 -289,-185 -299,-440 -7,-778z"/>
  <path class="fil6" d="M4001 1965c19,0 55,-26 75,-26 -204,356 -256,639 1,801 -20,0 -49,3 -69,3 -251,-176 -226,-427 -7,-778z"/>
  <path class="fil5" d="M3891 2284c-10,12 109,-274 185,-345 -204,342 -256,609 1,801 -20,0 -45,-34 -65,-34 -91,-120 -155,-191 -148,-277 -7,4 -24,46 -24,90 -20,-76 -14,-160 15,-254 28,-91 -33,128 36,19z"/>
  <path class="fil6" d="M4358 1994c20,0 36,14 55,14 -174,356 -223,525 11,686 -20,0 -39,15 -58,15 -263,-145 -221,-412 -8,-715z"/>
  <path class="fil5" d="M4273 2195c7,69 121,-187 140,-187 -198,374 -276,498 -34,645 -19,0 -112,-42 -132,-42 -110,-233 -52,-322 26,-416z"/>
  <path class="fil7" d="M3010 1892c19,88 36,57 36,190 0,74 -76,143 -124,240 -58,-96 -77,-367 88,-430z"/>
  <path class="fil1 str3" d="M3010 1892c19,88 36,57 36,190 0,74 -76,143 -124,240 -58,-96 -77,-367 88,-430z"/>
  <path class="fil8" d="M3010 1928c19,88 -63,8 -63,140 0,74 32,94 -16,191 -16,-90 -56,-263 79,-331z"/>
  <path class="fil5" d="M5727 1122c29,0 52,24 52,52 0,29 -23,52 -52,52 -28,0 -52,-23 -52,-52 0,-28 24,-52 52,-52z"/>
  <path class="fil1 str6" d="M5727 1122c29,0 52,24 52,52 0,29 -23,52 -52,52 -28,0 -52,-23 -52,-52 0,-28 24,-52 52,-52z"/>
  <path class="fil1 str3" d="M5841 1340c-77,194 -232,285 -354,311"/>
  <path class="fil1 str3" d="M3389 4341c181,49 280,321 213,551m279 -969c188,269 169,453 103,682m73 -814c188,269 124,504 57,734m104 -837c188,269 73,548 6,778m156 -859c188,269 74,548 7,778"/>
  <path class="fil5" d="M3105 4211c31,0 57,25 57,57 0,31 -26,57 -57,57 -32,0 -58,-26 -58,-57 0,-32 26,-57 58,-57z"/>
  <path class="fil1 str7" d="M3105 4211c31,0 57,25 57,57 0,31 -26,57 -57,57 -32,0 -58,-26 -58,-57 0,-32 26,-57 58,-57z"/>
  <path class="fil5" d="M3339 4313c32,0 58,26 58,57 0,32 -26,58 -58,58 -31,0 -57,-26 -57,-58 0,-31 26,-57 57,-57z"/>
  <path class="fil1 str7" d="M3339 4313c32,0 58,26 58,57 0,32 -26,58 -58,58 -31,0 -57,-26 -57,-58 0,-31 26,-57 57,-57z"/>
  <path class="fil5" d="M2928 4299c32,0 57,25 57,57 0,31 -25,57 -57,57 -31,0 -57,-26 -57,-57 0,-32 26,-57 57,-57z"/>
  <path class="fil1 str7" d="M2928 4299c32,0 57,25 57,57 0,31 -25,57 -57,57 -31,0 -57,-26 -57,-57 0,-32 26,-57 57,-57z"/>
  <path class="fil1 str8" d="M2840 4526c32,0 57,26 57,57 0,32 -25,57 -57,57 -31,0 -57,-25 -57,-57 0,-31 26,-57 57,-57z"/>
  <path class="fil5" d="M3435 4526c31,0 57,26 57,57 0,32 -26,57 -57,57 -32,0 -57,-25 -57,-57 0,-31 25,-57 57,-57z"/>
  <path class="fil1 str7" d="M3435 4526c31,0 57,26 57,57 0,32 -26,57 -57,57 -32,0 -57,-25 -57,-57 0,-31 25,-57 57,-57z"/>
  <path class="fil1 str3" d="M4536 6575c-126,-46 -148,-39 -213,-25m-194 -551c-126,-40 -186,26 -192,47m-357 -1852c188,270 177,380 110,610m44 -749c188,269 204,371 137,601"/>
  <path class="fil1 str3" d="M4283 6319c-50,-11 -123,67 -146,154"/>
  <path class="fil1 str3" d="M4336 6750c34,52 141,141 303,90m-339 84c77,52 259,117 376,50"/>
  <path class="fil1 str3" d="M3418 4959c-172,-67 -291,127 -142,208 84,-11 134,-31 198,32 106,103 72,238 54,298"/>
  <path class="fil1 str3" d="M3472 5196c-51,12 -111,88 -129,152"/>
  <path class="fil9" d="M1653 3789c224,-93 380,-154 525,-319 -190,-40 -231,-1 -358,2 -40,24 -106,52 -110,102 72,9 128,26 129,70 -33,54 -109,100 -186,145z"/>
  <path class="fil6" d="M1705 3816c276,-70 403,-147 473,-346 75,11 102,63 177,129 76,96 213,282 256,530 114,256 308,403 358,385 30,96 62,189 176,202 -16,14 -31,-5 -47,9 -713,-93 -578,-320 -949,-549 -37,-135 202,-93 166,-228 -120,-245 -654,-68 -857,116 -21,-150 258,-250 247,-248z"/>
  <path class="fil1 str3" d="M1653 3789c224,-93 380,-154 525,-319"/>
  <path class="fil3" d="M1946 4750c40,-15 72,-33 94,-54 62,-49 19,-75 125,-127 121,-35 221,29 201,142 -4,23 -43,36 -59,64 -172,-90 -209,38 -361,-25z"/>
  <path class="fil9" d="M1634 4091c-204,-13 -237,98 -235,248 22,-64 61,-72 112,-92 26,28 40,101 47,127 42,-52 69,-214 76,-283z"/>
  <path class="fil1 str3" d="M2788 2217c50,46 99,71 148,76m-127 -208c55,76 121,107 190,114m-166 -185c92,93 157,95 212,92m-168 -216c55,71 101,81 163,104m276 2630c71,4 105,55 102,133m-192 237c-20,-94 79,-122 97,-206 -40,-163 -200,-59 -207,-21"/>
  <path class="fil1 str3" d="M3605 5697c42,59 179,108 291,70m103 452c42,60 164,123 276,86"/>
  <path class="fil3" d="M5675 1075c1214,586 2244,2007 2479,2936 493,1224 200,2875 404,3367 163,147 1073,101 1199,-114 -43,-74 -209,-45 -352,-91 -9,-106 -586,-204 -788,-48 -129,-115 313,-241 423,-559 -161,209 -872,917 -228,-541 -243,414 -348,-251 -299,-332 -27,-123 270,-142 271,-364 -333,493 -316,-315 -282,-502 108,-81 241,-204 203,-342 -186,350 -507,-268 -245,-882 -166,153 -213,771 -242,-52 -2,-39 33,-354 31,-393 -165,345 -484,226 -461,-205 7,-33 76,-218 142,-356 -115,-26 -68,440 -97,217 -40,-13 -80,142 -120,128 23,-14 -101,-196 -242,-374 -110,-8 71,-135 139,-367 -114,269 -379,33 -392,0 -121,-49 82,-158 17,-262 -359,198 -343,-150 -318,-437 -10,11 -105,262 -315,-8 3,-33 21,-130 24,-162 -93,89 -201,235 -294,-15 -161,29 -381,-48 -381,-303 -47,105 -149,95 -276,61z"/>
  <path class="fil3" d="M7541 4939c-1150,501 -2398,122 -2787,38 8,26 -94,283 -137,326 31,37 70,90 102,103 25,-29 8,-182 33,-210 38,-59 133,-37 171,-96 652,171 1832,327 2618,-161z"/>
  <path class="fil3" d="M7644 5513c-1150,520 -2559,31 -2958,-94 -80,38 -133,392 -158,488 32,36 49,29 81,41 49,-178 73,-363 194,-358 980,218 2059,411 2841,-77z"/>
  <path class="fil1 str3" d="M7585 5513c-954,302 -1947,227 -2901,-105"/>
  <path class="fil3" d="M7247 2962c-576,456 -785,613 -1621,649 -54,72 -223,425 -277,454 125,91 811,107 923,37 -83,41 -980,-82 -862,-61 50,-29 208,-199 192,-228 38,-58 84,-42 122,-101 1084,-82 1248,-416 1523,-750z"/>
  <path class="fil1 str3" d="M5337 4073c804,137 1703,5 2105,-639"/>
  <path class="fil3" d="M7652 6145c-1333,420 -2611,-4 -3078,-163 -78,-18 -80,162 -121,218 83,101 112,224 98,297 32,114 1028,313 1059,265 -116,29 -1155,-419 -1065,-513 38,-59 133,-36 172,-95 1053,208 2227,429 2935,-9z"/>
  <path class="fil1 str3" d="M7214 2945c-121,308 -1136,789 -1624,665"/>
  <path class="fil3" d="M3426 2484c5,124 113,332 188,387 -300,173 -834,537 -1127,767 -17,26 -45,-113 -97,-84 308,-326 787,-657 1036,-1070z"/>
  <path class="fil1 str3" d="M4793 1896c-835,-56 -1022,137 -1311,421m-1633 1130c140,-18 248,-6 334,25 413,154 311,791 797,1035m92 -128c-47,33 -82,87 -86,149 0,99 80,180 179,180 99,0 180,-81 180,-180 0,-49 -20,-94 -53,-127"/>
  <path class="fil3" d="M4734 3894c53,-232 -148,-426 -307,-370 494,-221 928,-901 1054,-1419 4,552 -424,1483 -747,1789z"/>
  <line class="fil1 str3" x1="2780" y1="90" x2="4017" y2= "998" />
  <path class="fil5" d="M3625 1772c-98,117 -311,223 -447,230 -6,218 -181,500 -408,570 -37,230 -114,375 -267,563l13 16c336,-308 860,-880 1161,-1364l-52 -15z"/>
  <path class="fil3" d="M3689 1768c-99,117 -327,261 -462,268 -7,218 -193,466 -420,537 -36,229 -135,389 -289,577 359,-328 830,-797 1171,-1382z"/>
  <path class="fil10" d="M5627 2289c40,0 73,32 73,73 0,40 -33,73 -73,73 -41,0 -73,-33 -73,-73 0,-41 32,-73 73,-73z"/>
  <path class="fil5" d="M5596 2232c40,0 73,32 73,73 0,40 -33,73 -73,73 -40,0 -73,-33 -73,-73 0,-41 33,-73 73,-73z"/>
  <path class="fil1 str6" d="M5596 2232c40,0 73,32 73,73 0,40 -33,73 -73,73 -40,0 -73,-33 -73,-73 0,-41 33,-73 73,-73z"/>
  <path class="fil10" d="M5631 2807c40,0 73,32 73,73 0,40 -33,73 -73,73 -40,0 -73,-33 -73,-73 0,-41 33,-73 73,-73z"/>
  <path class="fil10" d="M5495 3347c40,0 73,32 73,73 0,40 -33,73 -73,73 -40,0 -73,-33 -73,-73 0,-41 33,-73 73,-73z"/>
  <path class="fil10" d="M5249 3808c41,0 73,32 73,73 0,40 -32,72 -73,72 -40,0 -73,-32 -73,-72 0,-41 33,-73 73,-73z"/>
  <path class="fil10" d="M5025 4194c41,0 73,33 73,73 0,40 -32,73 -73,73 -40,0 -73,-33 -73,-73 0,-40 33,-73 73,-73z"/>
  <path class="fil5" d="M5029 4135c40,0 73,33 73,73 0,40 -33,73 -73,73 -41,0 -73,-33 -73,-73 0,-40 32,-73 73,-73z"/>
  <path class="fil1 str6" d="M5029 4135c40,0 73,33 73,73 0,40 -33,73 -73,73 -41,0 -73,-33 -73,-73 0,-40 32,-73 73,-73z"/>
  <path class="fil5" d="M5247 3741c41,0 73,33 73,73 0,40 -32,73 -73,73 -40,0 -72,-33 -72,-73 0,-40 32,-73 72,-73z"/>
  <path class="fil1 str6" d="M5247 3741c41,0 73,33 73,73 0,40 -32,73 -73,73 -40,0 -72,-33 -72,-73 0,-40 32,-73 72,-73z"/>
  <path class="fil5" d="M5502 3274c40,0 73,33 73,73 0,40 -33,73 -73,73 -40,0 -73,-33 -73,-73 0,-40 33,-73 73,-73z"/>
  <path class="fil1 str6" d="M5502 3274c40,0 73,33 73,73 0,40 -33,73 -73,73 -40,0 -73,-33 -73,-73 0,-40 33,-73 73,-73z"/>
  <path class="fil5" d="M5640 2749c40,0 73,33 73,73 0,40 -33,73 -73,73 -40,0 -73,-33 -73,-73 0,-40 33,-73 73,-73z"/>
  <path class="fil1 str6" d="M5640 2749c40,0 73,33 73,73 0,40 -33,73 -73,73 -40,0 -73,-33 -73,-73 0,-40 33,-73 73,-73z"/>
  <path class="fil1 str3" d="M4663 529c17,75 68,179 107,260 42,89 37,152 31,202 -19,150 81,210 226,240 232,35 572,-198 540,-460"/>
  <path class="fil6" d="M5412 1425c40,0 73,33 73,73 0,40 -33,73 -73,73 -41,0 -73,-33 -73,-73 0,-40 32,-73 73,-73z"/>
  <path class="fil5" d="M5404 1387c40,0 73,32 73,73 0,40 -33,73 -73,73 -40,0 -73,-33 -73,-73 0,-41 33,-73 73,-73z"/>
  <path class="fil1 str6" d="M5404 1387c40,0 73,32 73,73 0,40 -33,73 -73,73 -40,0 -73,-33 -73,-73 0,-41 33,-73 73,-73z"/>
  <path class="fil3" d="M3711 2998c5,124 618,289 740,256 -299,173 -1323,808 -1616,1038 -48,26 -138,-242 -132,-213 308,-326 758,-668 1008,-1081z"/>
  <path class="fil3" d="M3523 1223c-163,182 -326,393 -541,440 -6,90 87,156 77,234 201,-102 422,-404 464,-674z"/>
  <path class="fil3" d="M7559 7411c-96,-79 -340,-153 -431,-134 71,-339 132,-1342 156,-1714 51,-53 111,1766 53,1434 165,-370 85,-2268 9,-2399 198,389 387,2469 213,2813z"/>
  <path class="fil1 str3" d="M2885 1873c-76,116 -96,323 -70,363"/>
  <path class="fil3" d="M5151 1275c-16,202 -120,456 -304,621 69,9 183,51 216,149 -22,-203 45,-351 203,-446 9,-54 18,-108 27,-162 -32,-24 35,-177 135,-237 11,3 -168,101 -277,75z"/>
  <path class="fil6" d="M7702 3646c40,0 73,32 73,73 0,40 -33,73 -73,73 -40,0 -73,-33 -73,-73 0,-41 33,-73 73,-73z"/>
  <path class="fil6" d="M7490 3042c40,0 73,33 73,73 0,41 -33,73 -73,73 -40,0 -73,-32 -73,-73 0,-40 33,-73 73,-73z"/>
  <path class="fil6" d="M7267 2651c40,0 73,33 73,73 0,40 -33,73 -73,73 -40,0 -73,-33 -73,-73 0,-40 33,-73 73,-73z"/>
  <path class="fil6" d="M6966 2249c33,0 59,27 59,60 0,32 -26,59 -59,59 -33,0 -60,-27 -60,-59 0,-33 27,-60 60,-60z"/>
  <path class="fil6" d="M7947 4302c32,24 39,69 16,102 -24,32 -70,39 -102,16 -33,-24 -40,-70 -16,-102 24,-33 69,-40 102,-16z"/>
  <path class="fil6" d="M8032 5098c30,26 34,73 7,103 -26,30 -72,34 -103,7 -30,-26 -33,-72 -7,-103 26,-30 72,-33 103,-7z"/>
  <path class="fil6" d="M8074 5707c39,12 61,52 49,91 -12,39 -53,60 -92,48 -38,-12 -60,-52 -48,-91 12,-39 53,-60 91,-48z"/>
  <path class="fil6" d="M6714 1962c29,0 53,24 53,53 0,30 -24,53 -53,53 -29,0 -53,-23 -53,-53 0,-29 24,-53 53,-53z"/>
  <path class="fil6" d="M6443 1700c29,0 53,23 53,53 0,29 -24,53 -53,53 -30,0 -53,-24 -53,-53 0,-30 23,-53 53,-53z"/>
  <path class="fil6" d="M6195 1506c30,0 53,23 53,53 0,29 -23,53 -53,53 -29,0 -53,-24 -53,-53 0,-30 24,-53 53,-53z"/>
  <path class="fil5" d="M6388 1693c29,0 52,23 52,52 0,28 -23,52 -52,52 -28,0 -52,-24 -52,-52 0,-29 24,-52 52,-52z"/>
  <path class="fil1 str6" d="M6388 1693c29,0 52,23 52,52 0,28 -23,52 -52,52 -28,0 -52,-24 -52,-52 0,-29 24,-52 52,-52z"/>
  <path class="fil5" d="M6136 1465c29,0 52,24 52,52 0,29 -23,52 -52,52 -29,0 -52,-23 -52,-52 0,-28 23,-52 52,-52z"/>
  <path class="fil1 str6" d="M6136 1465c29,0 52,24 52,52 0,29 -23,52 -52,52 -29,0 -52,-23 -52,-52 0,-28 23,-52 52,-52z"/>
  <path class="fil5" d="M6668 1902c29,0 52,23 52,52 0,29 -23,52 -52,52 -29,0 -52,-23 -52,-52 0,-29 23,-52 52,-52z"/>
  <path class="fil1 str6" d="M6668 1902c29,0 52,23 52,52 0,29 -23,52 -52,52 -29,0 -52,-23 -52,-52 0,-29 23,-52 52,-52z"/>
  <path class="fil5" d="M6934 2208c28,0 52,24 52,52 0,29 -24,52 -52,52 -29,0 -52,-23 -52,-52 0,-28 23,-52 52,-52z"/>
  <path class="fil1 str6" d="M6934 2208c28,0 52,24 52,52 0,29 -24,52 -52,52 -29,0 -52,-23 -52,-52 0,-28 23,-52 52,-52z"/>
  <path class="fil5" d="M7256 2588c40,0 73,33 73,73 0,41 -33,73 -73,73 -40,0 -73,-32 -73,-73 0,-40 33,-73 73,-73z"/>
  <path class="fil1 str3" d="M7256 2588c40,0 73,33 73,73 0,41 -33,73 -73,73 -40,0 -73,-32 -73,-73 0,-40 33,-73 73,-73z"/>
  <path class="fil5" d="M7460 2968c41,0 73,32 73,73 0,40 -32,73 -73,73 -40,0 -73,-33 -73,-73 0,-41 33,-73 73,-73z"/>
  <path class="fil1 str3" d="M7460 2968c41,0 73,32 73,73 0,40 -32,73 -73,73 -40,0 -73,-33 -73,-73 0,-41 33,-73 73,-73z"/>
  <path class="fil5" d="M7650 3580c40,0 73,33 73,73 0,41 -33,73 -73,73 -40,0 -73,-32 -73,-73 0,-40 33,-73 73,-73z"/>
  <path class="fil1 str3" d="M7650 3580c40,0 73,33 73,73 0,41 -33,73 -73,73 -40,0 -73,-32 -73,-73 0,-40 33,-73 73,-73z"/>
  <path class="fil5" d="M7888 4213c33,24 40,69 16,102 -24,33 -69,40 -102,16 -32,-24 -40,-70 -16,-102 24,-33 70,-40 102,-16z"/>
  <path class="fil1 str3" d="M7888 4213c33,24 40,69 16,102 -24,33 -69,40 -102,16 -32,-24 -40,-70 -16,-102 24,-33 70,-40 102,-16z"/>
  <path class="fil5" d="M8040 5635c39,12 61,53 49,91 -12,39 -53,60 -92,48 -38,-12 -60,-52 -48,-91 12,-38 53,-60 91,-48z"/>
  <path class="fil1 str3" d="M8040 5635c39,12 61,53 49,91 -12,39 -53,60 -92,48 -38,-12 -60,-52 -48,-91 12,-38 53,-60 91,-48z"/>
  <path class="fil5" d="M7994 5030c31,27 34,73 8,103 -27,31 -73,34 -103,8 -31,-27 -34,-73 -8,-103 27,-31 73,-34 103,-8z"/>
  <path class="fil1 str3" d="M7994 5030c31,27 34,73 8,103 -27,31 -73,34 -103,8 -31,-27 -34,-73 -8,-103 27,-31 73,-34 103,-8z"/>
  <path class="fil6" d="M8112 6341c38,16 56,58 40,96 -15,37 -58,55 -95,40 -37,-16 -55,-58 -40,-96 15,-37 58,-55 95,-40z"/>
  <path class="fil6" d="M8133 6902c39,10 63,50 52,89 -10,39 -49,62 -88,52 -39,-10 -63,-50 -53,-89 10,-39 50,-62 89,-52z"/>
  <path class="fil5" d="M8093 6819c39,10 63,50 53,89 -10,39 -50,63 -89,53 -39,-10 -63,-50 -53,-89 10,-39 50,-63 89,-53z"/>
  <path class="fil1 str3" d="M8093 6819c39,10 63,50 53,89 -10,39 -50,63 -89,53 -39,-10 -63,-50 -53,-89 10,-39 50,-63 89,-53z"/>
  <path class="fil5" d="M8084 6269c38,16 56,58 40,96 -15,37 -57,55 -95,40 -37,-16 -55,-58 -40,-96 16,-37 58,-55 95,-40z"/>
  <path class="fil1 str3" d="M8084 6269c38,16 56,58 40,96 -15,37 -57,55 -95,40 -37,-16 -55,-58 -40,-96 16,-37 58,-55 95,-40z"/>
  <path class="fil1 str3" d="M6329 1219c-22,293 -97,369 -184,496m1484 431c-110,340 -167,517 -448,733"/>
  <path class="fil0" d="M3855 7337l369 544c368,281 669,236 932,18 523,270 801,198 978,-13l-361 -534c-458,-321 -743,-276 -966,-43 -717,-250 -904,-178 -952,28z"/>
  <path class="fil1 str1" d="M3855 7337l369 544c368,281 669,236 932,18 523,270 801,198 978,-13l-361 -534c-458,-321 -743,-276 -966,-43 -717,-250 -904,-178 -952,28z"/>
  <path class="fil2" d="M5760 7329l369 544c369,281 670,236 932,18 523,270 801,198 978,-13l-361 -534c-458,-321 -743,-276 -965,-42 -718,-251 -905,-178 -953,27z"/>
  <path class="fil1 str9" d="M5760 7329l369 544c369,281 670,236 932,18 523,270 801,198 978,-13l-361 -534c-458,-321 -743,-276 -965,-42 -718,-251 -905,-178 -953,27z"/>
  <path class="fil2" d="M9574 7326l368 544c369,281 670,236 933,17 524,271 1023,188 684,-205 108,-120 78,-253 -80,-389 -221,-288 -729,-228 -953,5 -716,-250 -904,-178 -952,28z"/>
  <path class="fil1 str9" d="M9574 7326l368 544c369,281 670,236 933,17 524,271 1023,188 684,-205 108,-120 78,-253 -80,-389 -221,-288 -729,-228 -953,5 -716,-250 -904,-178 -952,28z"/>
  <path class="fil2" d="M1944 7327l368 544c369,281 670,236 933,18 523,270 801,198 978,-13l-374 -534c-458,-321 -731,-276 -953,-42 -717,-251 -904,-178 -952,27z"/>
  <path class="fil1 str9" d="M1944 7327l368 544c369,281 670,236 933,18 523,270 801,198 978,-13l-374 -534c-458,-321 -731,-276 -953,-42 -717,-251 -904,-178 -952,27z"/>
  <path class="fil0" d="M251 7796c-171,356 671,326 982,131 391,218 805,180 1083,-63l-356 -522c-368,-273 -744,-245 -987,-50 -484,-215 -780,-233 -888,-55 -155,198 -42,371 166,559z"/>
  <path class="fil1 str1" d="M251 7796c-171,356 671,326 982,131 391,218 805,180 1083,-63l-356 -522c-368,-273 -744,-245 -987,-50 -484,-215 -780,-233 -888,-55 -155,198 -42,371 166,559z"/>
  <path class="fil0" d="M7655 7317l369 544c369,281 670,236 933,18 523,270 801,198 977,-13l-361 -534c-457,-321 -743,-275 -965,-42 -718,-251 -905,-178 -953,27z"/>
  <path class="fil1 str1" d="M7655 7317l369 544c369,281 670,236 933,18 523,270 801,198 977,-13l-361 -534c-457,-321 -743,-275 -965,-42 -718,-251 -905,-178 -953,27z"/>
  <path class="fil1 str1" d="M792 7814c-228,-133 221,-103 446,117"/>
  <path class="fil1 str1" d="M4726 7802c-172,-123 159,-83 427,95"/>
  <path class="fil1 str9" d="M2816 7792c-171,-123 160,-83 427,95m7232 -85c-172,-123 159,-83 427,95m-4273 -103c-172,-123 159,-83 427,95"/>
  <path class="fil1 str1" d="M8540 7786c-172,-123 159,-83 427,95"/>
  <path class="fil1 str1" d="M246 7799c60,-128 37,-224 -58,-291"/>
  <path class="fil1 str9" d="M11552 7682c-86,-73 -103,-150 -53,-231"/>
  <path class="fil1 str1" d="M4807 7308c363,143 548,175 477,50"/>
  <path class="fil1 str9" d="M6710 7300c364,143 548,175 477,50"/>
  <path class="fil1 str1" d="M8631 7298c364,143 548,175 478,50"/>
  <path class="fil1 str9" d="M2897 7298c364,143 549,175 478,50"/>
  <path class="fil1 str9" d="M10526 7296c364,143 549,175 477,50"/>
  <path class="fil1 str1" d="M968 7287c315,163 534,118 456,33"/>
 </g>
</svg>
