<?xml version="1.0" encoding="UTF-8" standalone="no"?>
<!DOCTYPE svg PUBLIC "-//W3C//DTD SVG 1.0//EN"
	"http://www.w3.org/TR/2001/REC-SVG-20010904/DTD/svg10.dtd">
<!-- Created with Inkscape (http://www.inkscape.org/) -->
<svg
   xmlns="http://www.w3.org/2000/svg"
   xmlns:xlink="http://www.w3.org/1999/xlink"
   version="1.0"
   width="288"
   height="338">
  <path
     d="M 0,0 L 0,148.9377 C 3.958604,228.88662 67.99903,299.3215 139.49887,335.72343 L 144,338 L 148.50113,335.72343 C 220.00096,299.32149 284.04139,228.88662 288,148.9377 L 288,0 L 0,0 z"
     fill="#2b2c7c" />
  <path
     d="M 144,308.45169 C 203.87857,277.59138 257.25355,217.40864 260.47768,151.4924 C 260.47768,147.18578 260.47768,70.19634 260.47768,29.54831 C 182.82589,29.54831 105.1741,29.54831 27.52231,29.54831 C 27.52231,70.19634 27.52231,147.18578 27.52231,151.4924 C 30.74644,217.40864 84.12142,277.59138 144,308.45169 z"
     style="fill:none;stroke:#a8a7a6;stroke-width:17" />
  <path
     d="M 142.745,57.420562 C 142.745,61.80678 139.18928,65.362504 134.80306,65.362504 C 130.41684,65.362504 126.86111,61.80678 126.86111,57.420562 C 126.86111,53.034344 130.41684,49.47862 134.80306,49.47862 C 139.18928,49.47862 142.745,53.034344 142.745,57.420562 z"
     id="path3261"
     fill="#a8a7a6" />
  <use
     transform="translate(9.5459415,-8.0433396)"
     xlink:href="#path3261" />
  <use
     transform="translate(18.393846,0)"
     xlink:href="#path3261" />
  <use
     transform="matrix(0,-1,1,0,49.5005,225.98985)"
     xlink:href="#path3261" />
  <use
     transform="matrix(0,-1,1,0,41.45715,234.83776)"
     xlink:href="#path3261" />
  <use
     transform="translate(-28.147022,51.500645)"
     xlink:href="#path3261" />
  <use
     transform="matrix(0,-1,-1,0,238.49945,225.98985)"
     xlink:href="#path3261" />
  <use
     transform="matrix(0,-1,-1,0,246.54279,234.83776)"
     xlink:href="#path3261" />
  <use
     transform="translate(46.010808,51.500645)"
     xlink:href="#path3261" />
  <use
     transform="matrix(0,-1,1,0,18.82976,270.18402)"
     xlink:href="#path3261" />
  <use
     transform="matrix(0,-1,1,0,10.78642,279.03193)"
     xlink:href="#path3261" />
  <use
     transform="translate(-58.817757,95.694815)"
     xlink:href="#path3261" />
  <use
     transform="matrix(0,-1,-1,0,269.17023,270.18402)"
     xlink:href="#path3261" />
  <use
     transform="matrix(0,-1,-1,0,277.21357,279.03193)"
     xlink:href="#path3261" />
  <use
     transform="translate(76.681583,95.694815)"
     xlink:href="#path3261" />
  <use
     transform="matrix(-1,0,0,1,288.92442,193.64311)"
     xlink:href="#path3261" />
  <use
     transform="matrix(-1,0,0,1,280.07651,201.68645)"
     xlink:href="#path3261" />
  <use
     transform="translate(9.9999996e-7,193.64312)"
     xlink:href="#path3261" />
  <path
     d="M 144.22978,55.00792 L 144.22978,253.02238 M 216.21224,144.11566 L 72.24735,144.11566 M 186.01039,99.92149 L 102.44916,99.92149"
     style="fill:none;stroke:#a8a7a6;stroke-width:17" />
</svg>
