<?xml version="1.0" encoding="UTF-8"?>
<svg xmlns="http://www.w3.org/2000/svg" version="1.1" width="500" height="500">
<circle cx="250" cy="250" r="243" style="fill: rgb(0, 125, 0); stroke: rgb(0, 0, 0); stroke-width: 14px;"/>
<path d="m 304.56735,414.13154 c -1.29114,-0.20446 -1.92998,-0.64337 -2.89427,-1.98838 -2.42972,-3.38884 -3.60124,-5.56126 -4.15936,-7.71296 -1.51954,-5.85799 0.19584,-9.01902 6.6804,-12.31056 9.78135,-6.19699 16.16789,-17.84275 17.38362,-29.19901 0.43279,-4.46338 0.43811,-6.42219 0.0254,-9.37221 -0.67671,-4.83729 -2.00464,-9.99476 -3.13315,-12.16839 -0.49284,-0.94926 -1.63996,-3.20872 -2.54915,-5.02102 -3.71076,-8.51864 -10.84387,-14.87431 -15.32843,-22.85421 -0.88273,-1.75288 -2.04078,-3.77054 -2.57346,-4.4837 -0.59331,-0.79433 -1.51965,-3.5532 -2.3912,-7.12166 -1.32325,-5.41781 -1.43594,-6.4566 -1.61214,-14.85996 -0.12643,-6.03007 -0.0204,-9.79015 0.31872,-11.30565 0.5659,-2.52873 0.12016,-4.05083 -1.17767,-4.02137 -0.68404,0.0155 -3.60293,1.68113 -6.28462,3.58618 -0.61809,0.43909 -1.8563,0.97035 -2.75159,1.18059 -3.32622,0.78109 -12.90117,0.96035 -19.80964,0.37086 -3.76431,-0.3212 -9.85375,-0.58105 -13.53214,-0.57746 -5.98923,0.006 -7.34166,0.15467 -12.94448,1.42424 -7.04253,1.59582 -10.21538,2.90317 -11.89754,4.90231 -1.6662,1.98016 -6.09435,11.48287 -6.82678,14.6501 -0.63285,2.73657 -0.67607,3.84914 -2.23383,57.5068 -1.00523,34.62554 -1.28481,37.06481 -4.99483,43.57967 -1.5298,2.6864 -2.13427,3.29204 -5.46641,5.47653 -4.43443,2.90727 -7.06191,4.0945 -10.86589,4.91004 -4.30173,0.9223 -5.59905,0.77982 -9.58207,-1.05159 -6.11601,-2.81228 -8.00661,-5.89412 -7.5244,-12.26579 0.32179,-4.25197 1.31902,-6.48678 3.98693,-8.93491 4.35015,-3.99186 6.45323,-7.5745 7.32947,-12.48595 1.21466,-6.80836 0.7059,-10.78292 -3.21374,-25.10723 -0.94977,-3.47094 -2.0412,-7.06304 -2.4254,-7.98242 -1.91225,-7.59714 -4.04881,-15.25153 -5.12845,-23.0302 -0.38831,-2.96638 -0.91793,-6.59525 -1.17694,-8.06408 -0.0189,-3.30038 -0.51242,-6.45304 -1.04218,-9.73451 -0.18569,-1.21366 -0.45198,-1.61807 -1.0655,-1.61807 -0.44987,0 -0.93354,0.18703 -1.07481,0.41562 -4.9865,3.73914 -10.76741,6.51512 -16.9132,7.56737 -5.17689,0.77713 -9.68777,2.46619 -11.88304,4.44947 -2.19065,1.97913 -2.4092,2.44279 -2.91983,6.19452 -0.95026,6.5053 -2.89682,12.81448 -3.70944,19.34352 -0.32181,3.30583 -2.24547,11.82205 -3.31379,14.67035 -2.27055,6.0538 -3.51776,8.11745 -5.95298,9.84996 -3.14273,2.23591 -7.57833,3.95745 -10.19613,3.95745 -3.02352,0 -4.86867,-1.12294 -6.24341,-3.79968 -2.82485,-5.50038 -1.57249,-16.96743 2.36401,-21.64564 0.75737,-0.90006 1.21818,-2.37025 1.79168,-5.71612 1.06661,-6.22275 0.75653,-12.40173 -1.05607,-21.04502 -1.25896,-6.00322 -1.38329,-7.23555 -1.219,-12.08151 0.27453,-8.09733 1.03323,-9.28763 11.53073,-18.09009 8.02851,-7.62829 19.01657,-13.03755 23.78839,-23.39855 1.87541,-4.75797 0.87328,-8.03958 -5.25495,-17.20802 -5.26866,-7.88243 -6.46398,-10.37029 -7.7683,-16.16842 -1.20664,-5.36383 -1.26895,-11.20065 -0.18725,-17.53768 0.93595,-5.48309 0.70245,-7.72242 -1.08689,-10.42383 -1.83824,-2.77525 -3.80974,-4.11172 -7.18448,-4.87037 -11.54457,-2.59524 -13.86136,-3.29187 -18.45262,-5.54847 -6.9985,-3.43977 -9.50917,-6.43135 -11.585815,-13.80503 -1.060296,-3.7649 -1.089922,-4.92777 -0.128574,-5.04745 5.123499,-0.39414 10.520059,0.81323 15.255219,-1.55467 1.47429,-0.77018 2.882,-1.77679 3.12825,-2.23691 0.70151,-1.3108 0.52709,-3.26496 -0.39621,-4.43874 -6.18856,-5.42104 -14.9189,-5.05573 -21.639961,-9.47672 -2.470122,-1.95252 -2.93869,-2.73641 -3.260658,-5.45492 -0.200644,-1.69414 0.0068,-2.65746 1.178983,-5.47299 1.210269,-2.9072 2.055876,-4.08883 5.668178,-7.92059 4.993668,-5.29707 7.301368,-6.84796 13.148198,-8.83623 5.826,-1.98119 17.50698,-8.12253 18.99407,-9.98624 0.62336,-0.78123 1.67727,-3.08916 2.34204,-5.12873 2.37065,-5.96672 1.52026,-10.939363 3.75053,-16.902571 0.68649,-0.892523 2.75317,-1.820466 3.57636,-0.590718 2.40725,3.38611 4.41378,6.189686 7.25553,9.278511 1.11221,1.885048 2.71065,2.006418 3.75445,0.285068 1.99274,-3.286262 3.99688,-6.114228 5.50395,-7.766386 2.25394,-2.470946 4.34555,-3.478894 5.65541,-2.92e-4 1.36791,3.632749 3.64605,7.256428 3.64605,11.664028 0,4.22309 1.37298,11.99294 2.38412,13.45552 4.28119,4.561 8.18647,9.41569 12.13231,14.25323 4.94307,5.9571 8.19353,11.7304 9.23142,16.39634 1.54145,7.02006 7.32162,8.97725 13.17223,10.87585 24.8721,6.66159 48.0484,-5.2199 70.54739,-13.68128 9.84399,-2.37971 9.66412,-2.04629 21.14264,-2.36214 21.4148,-0.58926 38.59911,9.7798 53.93531,24.17416 2.96102,3.23741 6.60645,5.58949 10.20197,8.02895 6.75855,4.59112 13.68674,6.64798 21.68231,6.43708 7.71573,-0.2035 12.46532,-3.10074 17.38376,-10.60406 3.60957,-5.50657 5.09876,-12.72018 5.09876,-24.6983 0,-7.16423 0.31612,-8.58923 2.31422,-10.43174 2.48477,-2.02265 5.57752,-1.40276 8.00683,0.25167 5.621,4.73482 8.38726,12.52449 9.94792,19.50825 2.94575,16.9551 -1.6662,30.65896 -11.5851,43.63223 -3.72964,4.73535 -12.065,11.13249 -19.2552,14.7778 -3.36187,1.70441 -3.84029,2.43695 -3.53005,5.40512 1.07742,4.76362 2.12323,9.48693 2.85546,14.33567 0.6091,6.40978 0.91883,12.94786 -0.79451,19.20098 -2.45734,9.91578 -10.20488,16.68682 -16.05713,24.58687 -1.8812,2.14258 -3.38884,8.37714 -3.45755,14.2981 0.14395,5.70743 1.14196,11.81819 3.70684,16.99201 4.905,9.26342 10.20098,18.3229 15.15946,27.57698 3.80648,7.06566 4.91423,10.31493 4.91882,14.42734 0.004,3.66122 -0.7748,5.41114 -3.3516,7.52983 -4.62309,3.80128 -4.67675,3.88138 -5.26586,7.85775 -0.5633,4.51278 -0.2418,9.05082 -0.52385,13.58695 -0.43381,5.9395 -0.60712,6.29902 -4.9811,10.33083 -2.52472,2.32728 -2.92558,2.53285 -6.47223,3.3187 -4.9287,1.09205 -15.2142,1.81784 -17.40444,1.22799 -1.81007,-0.48741 -5.06819,-3.77402 -6.47508,-6.53176 -1.1391,-2.23279 -1.10093,-5.73563 0.0837,-7.67884 0.49976,-0.81987 2.78939,-3.34396 5.08805,-5.60926 5.31413,-5.23706 6.01226,-6.20816 8.23432,-11.45397 1.72266,-4.06683 1.81685,-4.50272 1.6391,-7.58396 -0.14195,-2.4605 -0.51149,-3.95916 -1.4939,-6.05853 -1.68162,-3.59361 -4.84783,-8.23197 -5.47707,-8.02378 -0.32299,0.10696 -0.57481,2.56173 -0.74333,7.24637 -0.24585,6.83403 -0.30329,7.18389 -1.62352,9.88931 -1.64622,3.37344 -5.48,8.8857 -8.59216,12.35383 -3.15559,3.51652 -9.70218,12.48464 -10.99568,15.06277 -6.07303,12.10449 -6.3412,12.88088 -7.25411,21.00246 -0.39923,3.55175 -0.71035,4.79614 -1.34198,5.36777 -1.32036,1.19488 -19.16888,2.29196 -24.23542,1.4896 z M 135.55616,122.43398 c 0.82607,-1.54353 -0.70498,-3.20115 -1.97963,-2.14328 -0.61582,0.51109 -0.80588,2.18634 -0.30488,2.68733 0.57292,0.57293 1.84942,0.26893 2.28451,-0.54405 z" id="cat" style="fill: rgb(0, 0, 0);"/>
<ellipse cx="136" cy="123" rx="1.5" ry="2" fill="#fff" transform="rotate(45 135 120)" />
</svg>