<?xml version="1.0" encoding="utf-8"?>
<!-- Generator: Adobe Illustrator 16.0.0, SVG Export Plug-In . SVG Version: 6.00 Build 0)  -->
<!DOCTYPE svg PUBLIC "-//W3C//DTD SVG 1.1//EN" "http://www.w3.org/Graphics/SVG/1.1/DTD/svg11.dtd">
<svg version="1.1" id="Layer_1" xmlns="http://www.w3.org/2000/svg" xmlns:xlink="http://www.w3.org/1999/xlink" x="0px" y="0px"
	 width="916px" height="886px" viewBox="0 0 916 886" enable-background="new 0 0 916 886" xml:space="preserve">
<g id="Layer_3">
	<path fill="#FF0000" d="M836.98,0H79.085C35.407,0,0,34.229,0,76.454v732.683C0,851.361,35.407,886,79.085,886H836.98
		c43.678,0,79.02-34.639,79.02-76.863V76.454C916,34.229,880.658,0,836.98,0z M843,772.628C843,792.585,826.27,809,805.433,809
		H113.729C92.892,809,76,792.585,76,772.628V110.136C76,90.179,92.892,74,113.729,74h691.703C826.27,74,843,90.179,843,110.136
		V772.628z"/>
	<path display="none" fill="#FF0000" d="M805.433,74H113.729C92.892,74,76,90.179,76,110.136v662.492
		C76,792.585,92.892,809,113.729,809h691.703C826.27,809,843,792.585,843,772.628V110.136C843,90.179,826.27,74,805.433,74z"/>
</g>
<g id="Layer_4">
	<path d="M822,695c0,0,0-307.864,0-401.045s-47.523-113.616-86.16-126.116s-71.385-21.572-113.431-34.072
		s-38.637-18.142-64.772-9.051s-22.728,52.353-22.728,87.579C473.56,202.171,327.993,178.553,288,173.5
		C149.5,156,106.5,285.182,106.5,285.182l493,117.318c0,0-426.5-78-490.5-89.5c0,12,43,38.5,100.5,51.5S669,475,669,475
		s-0.5,0-177,0c-194,0-248.25,140.75-248.25,211.75c0,6.5-0.25,37.75-0.25,50s5.5,14.464,12,14.464s236.25-0.027,254.5-0.027
		s19.875,0.438,22.5-2.187s7.625-2.125,10,0.25s2.5,1.897,7,1.897s122.5-0.026,130.25-0.026s9.875,0.504,13.25-2.871s5.25-3.75,9,0
		s14,2.75,14,2.75s54.137,0,66.637,0s12.5-2.387,26.136-19.432C822.408,714.521,822,695,822,695z M526.5,607
		c0,10.111,0,10.111-10.5,10.111c-14,0-168-0.111-179-0.111s-25,1.5-20-6.5c35.5-46,124-50.5,124-50.5s65.5,0,75,0
		c0,0,10.889-0.5,10.889,6S526.5,600,526.5,607z M690,609.25c0,6.5-2.25,7.861-10.75,7.861s-110.5,0.124-117.5,0.124
		S554,615.25,554,609.75s0-43,0-43s1.5-6.75,8-6.75h120c0,0,8,0.25,8,7.75S690,602.75,690,609.25z M775,586c0,14.75-27.5,31-39,31
		s-16,0-16,0s-4,1-4-5.25s0-36.503,0-36.503s0.737-15.239,6.875-15.239c5.5,0,17.188,1.246,28.188-7.504
		s15.219-12.502,19.219-16.502S775,532.5,775,538.75S775,572.75,775,586z M777,329v66.338l-239-73.502c0,0,0-37.831,0-71.831
		s22.166-39,57.166-28.667s67.833,21,126.166,39.333S777,329,777,329z"/>
	<path display="none" d="M770.281,536.002c-4,4-8.219,7.752-19.219,16.502s-22.688,7.504-28.188,7.504
		c-6.138,0-6.875,15.239-6.875,15.239s0,30.253,0,36.503s4,5.25,4,5.25s4.5,0,16,0s39-16.25,39-31c0-13.25,0-41,0-47.25
		S774.281,532.002,770.281,536.002z"/>
	<path display="none" d="M682,560H562c-6.5,0-8,6.75-8,6.75s0,37.5,0,43s0.75,7.485,7.75,7.485s109-0.124,117.5-0.124
		S690,615.75,690,609.25s0-34,0-41.5S682,560,682,560z"/>
	<path display="none" d="M516,560c-9.5,0-75,0-75,0s-88.5,4.5-124,50.5c-5,8,9,6.5,20,6.5s165,0.111,179,0.111S526.5,614,526.5,607
		s0.389-34.5,0.389-41S516,560,516,560z"/>
	<path display="none" fill="none" d="M721.332,260.671c-58.333-18.333-91.166-29-126.166-39.333S538,216.005,538,250.005
		s0,71.831,0,71.831l239,73.502V329C777,329,779.665,279.004,721.332,260.671z M731.999,336.338c-7-2.333-9.334-3.334-14.667-5.667
		s-8.333,0.667-8.333,11.333s-2.334,8.333-9.667,6.333s-71.333-23-80.333-25.333s-8.58-7.312-7.247-12.978s2.913-7.355-5.42-10.688
		s-27.333-8.667-36.333-11.667s-5.333-7,0-9.333s33.788-15.877,54.333-11c8.075,1.917,17.334,7,17.334,7c8.334,3,32,9.667,45,15
		s19.332,3.333,27.666,11s22.667,21.667,26.667,32S738.999,338.672,731.999,336.338z"/>
	<path display="none" d="M714.332,300.338c-8.334-7.667-14.666-5.667-27.666-11s-36.666-12-45-15c0,0-9.259-5.083-17.334-7
		c-20.545-4.877-49,8.667-54.333,11s-9,6.333,0,9.333s28,8.333,36.333,11.667s6.753,5.022,5.42,10.688s-1.753,10.645,7.247,12.978
		s73,23.333,80.333,25.333s9.667,4.333,9.667-6.333s3-13.667,8.333-11.333s7.667,3.333,14.667,5.667s13,6.333,9-4
		S722.666,308.005,714.332,300.338z"/>
	<path d="M626,261v43c0,0,0.665,8.005,11.332,12.005s48.833,16,56.167,18.333S705,331.671,705,322.671S705,285,705,285L626,261z"/>
</g>
<g id="Layer_5">
	<path fill="#FF0000" d="M765.332,355.166c-0.666-14.495-5.667-73.828-92-104.161s-128,22.333-128,35.333s1.666,14.876,14,19.604
		s19.333,6.729,26,9.396s7,6,7,14s3.667,7.333,3.667,7.333s97.667,31.334,112,35.667s14.001-3,15.667-7.333s3-6.667,11-4
		s14.333,5.333,21.333,7.667S765.998,369.661,765.332,355.166z M731.999,336.338c-7-2.333-9.334-3.334-14.667-5.667
		s-8.333,0.667-8.333,11.333s-2.334,8.333-9.667,6.333s-71.333-23-80.333-25.333s-8.58-7.312-7.247-12.978s2.913-7.355-5.42-10.688
		s-27.333-8.667-36.333-11.667s-5.333-7,0-9.333s33.788-15.877,54.333-11c8.075,1.917,17.334,7,17.334,7c8.334,3,32,9.667,45,15
		s19.332,3.333,27.666,11s22.667,21.667,26.667,32S738.999,338.672,731.999,336.338z"/>
	<path display="none" fill="none" d="M714.332,300.338c-8.334-7.667-14.666-5.667-27.666-11s-36.666-12-45-15
		c0,0-9.259-5.083-17.334-7c-20.545-4.877-49,8.667-54.333,11s-9,6.333,0,9.333s28,8.333,36.333,11.667s6.753,5.022,5.42,10.688
		s-1.753,10.645,7.247,12.978s73,23.333,80.333,25.333s9.667,4.333,9.667-6.333s3-13.667,8.333-11.333s7.667,3.333,14.667,5.667
		s13,6.333,9-4S722.666,308.005,714.332,300.338z"/>
</g>
</svg>
