<?xml version="1.0" encoding="UTF-8"?>
<!DOCTYPE svg PUBLIC "-//W3C//DTD SVG 1.1//EN" "http://www.w3.org/Graphics/SVG/1.1/DTD/svg11.dtd">
<!-- Creator: CorelDRAW X7 -->
<svg xmlns="http://www.w3.org/2000/svg" xml:space="preserve" width="2.5in" height="5.06386in" version="1.1" style="shape-rendering:geometricPrecision; text-rendering:geometricPrecision; image-rendering:optimizeQuality; fill-rule:evenodd; clip-rule:evenodd"
viewBox="0 0 1068 2164"
 xmlns:xlink="http://www.w3.org/1999/xlink">
 <defs>
  <style type="text/css">
   <![CDATA[
    .str2 {stroke:#981B1E;stroke-width:2.55784}
    .str0 {stroke:black;stroke-width:1.43525}
    .str4 {stroke:#6D6E71;stroke-width:2.55784;stroke-linecap:round;stroke-linejoin:round}
    .str1 {stroke:#C08329;stroke-width:2.55784;stroke-linecap:round;stroke-linejoin:round}
    .str5 {stroke:#D2E288;stroke-width:3.33574;stroke-linecap:round;stroke-linejoin:round}
    .str3 {stroke:#BCBEC0;stroke-width:1.43525;stroke-linecap:round;stroke-linejoin:round}
    .str6 {stroke:#6D6E71;stroke-width:3.83488;stroke-linecap:square;stroke-linejoin:round}
    .fil4 {fill:none}
    .fil3 {fill:black}
    .fil7 {fill:#7E576B}
    .fil8 {fill:#827DA9}
    .fil6 {fill:#C08329}
    .fil0 {fill:#D31245}
    .fil10 {fill:#E6E7E8}
    .fil5 {fill:#F3F4F4}
    .fil1 {fill:#FDC057}
    .fil2 {fill:white}
    .fil9 {fill:url(#id0)}
   ]]>
  </style>
  <linearGradient id="id0" gradientUnits="userSpaceOnUse" x1="422.693" y1="692.363" x2="596.92" y2="243.113">
   <stop offset="0" style="stop-opacity:1; stop-color:#FEC057"/>
   <stop offset="0.678431" style="stop-opacity:1; stop-color:#FEDD91"/>
   <stop offset="0.0117647" style="stop-opacity:1; stop-color:#FEC057"/>
   <stop offset="0.25098" style="stop-opacity:1; stop-color:#FFFBCC"/>
   <stop offset="0.6" style="stop-opacity:1; stop-color:#E39721"/>
   <stop offset="0.870588" style="stop-opacity:1; stop-color:#EED688"/>
   <stop offset="1" style="stop-opacity:1; stop-color:#FFFBCC"/>
  </linearGradient>
 </defs>
 <g id="Layer_x0020_1">
  <metadata id="CorelCorpID_0Corel-Layer"/>
  <path class="fil0" d="M631 2073c10,-4 23,-7 36,-10l239 0c97,1 151,-58 162,-178l0 0c-1,-127 -1,-255 -4,-383l-434 -1 1 572 0 0z"/>
  <path class="fil1" d="M630 1501l434 1c2,-60 1,-120 -1,-180l-433 0 0 179z"/>
  <path class="fil0" d="M3 1321c1,-168 2,-334 3,-501 146,1 292,2 437,2l-3 501 -437 -2 0 0z"/>
  <path class="fil1" d="M439 1501l-436 0c0,-61 0,-121 0,-180l437 2 -1 178z"/>
  <path class="fil0" d="M3 1501c-1,128 -2,256 -3,384 11,120 65,179 162,178l239 0c14,3 26,6 38,10l0 -572 -436 0 0 0z"/>
  <path class="fil1" d="M630 1501l1 572c-50,16 -82,46 -97,91 -15,-45 -47,-75 -95,-91l0 -572 191 0 0 0z"/>
  <path class="fil0" d="M630 1322l433 0c1,-168 0,-335 -1,-502 -143,1 -286,2 -430,2l-2 500 0 0z"/>
  <polygon class="fil1" points="442,820 440,1323 630,1322 632,822 "/>
  <polygon class="fil0" points="440,1323 439,1501 630,1501 630,1322 "/>
  <path class="fil2" d="M4 1258c1,-146 2,-292 2,-438 132,1 264,2 396,2l-4 439 -394 -3z"/>
  <path class="fil3" d="M203 985c2,0 3,-1 3,-3 0,-2 -1,-4 -3,-4 -2,0 -4,2 -4,4 0,2 2,3 4,3z"/>
  <path class="fil4 str0" d="M203 985c2,0 3,-1 3,-3 0,-2 -1,-4 -3,-4 -2,0 -4,2 -4,4 0,2 2,3 4,3z"/>
  <path class="fil3" d="M203 1004c2,0 3,-2 3,-4 0,-2 -1,-4 -3,-4 -2,0 -4,2 -4,4 0,2 2,4 4,4z"/>
  <path class="fil4 str0" d="M203 1004c2,0 3,-2 3,-4 0,-2 -1,-4 -3,-4 -2,0 -4,2 -4,4 0,2 2,4 4,4z"/>
  <path class="fil3" d="M220 1005c2,0 4,-2 4,-4 0,-2 -2,-4 -4,-4 -2,0 -4,2 -4,4 0,2 2,4 4,4z"/>
  <path class="fil4 str0" d="M220 1005c2,0 4,-2 4,-4 0,-2 -2,-4 -4,-4 -2,0 -4,2 -4,4 0,2 2,4 4,4z"/>
  <path class="fil3" d="M184 1005c2,0 4,-2 4,-4 0,-2 -2,-4 -4,-4 -2,0 -3,2 -3,4 0,2 1,4 3,4z"/>
  <path class="fil4 str0" d="M184 1005c2,0 4,-2 4,-4 0,-2 -2,-4 -4,-4 -2,0 -3,2 -3,4 0,2 1,4 3,4z"/>
  <path class="fil3" d="M206 1021c0,-3 -5,-3 -5,0 0,15 0,30 -2,44 0,1 0,3 0,5 0,1 1,3 2,4 0,1 0,1 1,2 1,0 2,0 2,0 1,0 1,0 2,-1 0,0 1,-1 2,-2 0,-1 1,-2 1,-3 0,-2 -1,-4 -1,-6 -2,-14 -2,-28 -2,-43z"/>
  <path class="fil4 str0" d="M206 1021c0,-3 -5,-3 -5,0 0,15 0,30 -2,44 0,1 0,3 0,5 0,1 1,3 2,4 0,1 0,1 1,2 1,0 2,0 2,0 1,0 1,0 2,-1 0,0 1,-1 2,-2 0,-1 1,-2 1,-3 0,-2 -1,-4 -1,-6 -2,-14 -2,-28 -2,-43z"/>
  <path class="fil3" d="M221 1019c-1,-1 -3,-1 -4,0 -1,9 1,23 3,32 0,2 1,5 2,8 1,1 2,2 3,3 1,0 2,1 3,0 0,0 1,-1 2,-1 0,-1 1,-2 0,-4 0,-1 0,-3 -1,-4 -1,-2 -2,-3 -3,-5 -3,-7 -4,-17 -4,-25 0,-1 0,-3 -1,-4z"/>
  <path class="fil4 str0" d="M221 1019c-1,-1 -3,-1 -4,0 -1,9 1,23 3,32 0,2 1,5 2,8 1,1 2,2 3,3 1,0 2,1 3,0 0,0 1,-1 2,-1 0,-1 1,-2 0,-4 0,-1 0,-3 -1,-4 -1,-2 -2,-3 -3,-5 -3,-7 -4,-17 -4,-25 0,-1 0,-3 -1,-4z"/>
  <path class="fil3" d="M187 1019c1,-1 3,-1 3,0 2,9 0,23 -2,32 0,2 -1,5 -2,8 -1,1 -2,2 -3,3 -1,0 -2,1 -3,0 0,0 -1,-1 -2,-1 0,-1 -1,-2 0,-4 0,-1 0,-3 1,-4 1,-2 2,-3 3,-5 3,-7 4,-17 4,-25 0,-1 0,-3 1,-4l0 0z"/>
  <path class="fil4 str0" d="M187 1019c1,-1 3,-1 3,0 2,9 0,23 -2,32 0,2 -1,5 -2,8 -1,1 -2,2 -3,3 -1,0 -2,1 -3,0 0,0 -1,-1 -2,-1 0,-1 -1,-2 0,-4 0,-1 0,-3 1,-4 1,-2 2,-3 3,-5 3,-7 4,-17 4,-25 0,-1 0,-3 1,-4l0 0z"/>
  <path class="fil3" d="M206 1152c2,0 3,-1 3,-4 0,-2 -1,-3 -3,-3 -2,0 -4,1 -4,3 0,3 2,4 4,4z"/>
  <path class="fil4 str0" d="M206 1152c2,0 3,-1 3,-4 0,-2 -1,-3 -3,-3 -2,0 -4,1 -4,3 0,3 2,4 4,4z"/>
  <path class="fil3" d="M206 1170c2,0 3,-1 3,-3 0,-2 -1,-4 -3,-4 -2,0 -4,2 -4,4 0,2 2,3 4,3z"/>
  <path class="fil4 str0" d="M206 1170c2,0 3,-1 3,-3 0,-2 -1,-4 -3,-4 -2,0 -4,2 -4,4 0,2 2,3 4,3z"/>
  <path class="fil3" d="M223 1171c2,0 4,-1 4,-3 0,-2 -2,-4 -4,-4 -2,0 -3,2 -3,4 0,2 1,3 3,3z"/>
  <path class="fil4 str0" d="M223 1171c2,0 4,-1 4,-3 0,-2 -2,-4 -4,-4 -2,0 -3,2 -3,4 0,2 1,3 3,3z"/>
  <path class="fil3" d="M188 1171c2,0 3,-1 3,-3 0,-2 -1,-4 -3,-4 -2,0 -4,2 -4,4 0,2 2,3 4,3z"/>
  <path class="fil4 str0" d="M188 1171c2,0 3,-1 3,-3 0,-2 -1,-4 -3,-4 -2,0 -4,2 -4,4 0,2 2,3 4,3z"/>
  <path class="fil3" d="M209 1188c0,-3 -5,-3 -5,0 1,15 0,30 -2,43 0,2 0,4 0,6 0,1 1,2 2,4 0,0 1,1 1,1 1,1 2,1 2,1 1,0 2,-1 2,-1 1,-1 2,-1 2,-2 1,-1 1,-2 1,-4 0,-2 0,-3 -1,-5 -2,-14 -2,-29 -2,-43l0 0z"/>
  <path class="fil4 str0" d="M209 1188c0,-3 -5,-3 -5,0 1,15 0,30 -2,43 0,2 0,4 0,6 0,1 1,2 2,4 0,0 1,1 1,1 1,1 2,1 2,1 1,0 2,-1 2,-1 1,-1 2,-1 2,-2 1,-1 1,-2 1,-4 0,-2 0,-3 -1,-5 -2,-14 -2,-29 -2,-43l0 0z"/>
  <path class="fil3" d="M224 1186c-1,-2 -3,-1 -3,0 -2,9 0,22 2,31 0,3 1,6 3,8 0,2 1,3 2,4 1,0 2,0 3,0 1,0 1,-1 2,-2 0,-1 1,-2 1,-3 0,-1 -1,-3 -2,-4 -1,-2 -2,-4 -3,-6 -3,-6 -4,-17 -4,-24 0,-1 0,-3 -1,-4l0 0z"/>
  <path class="fil4 str0" d="M224 1186c-1,-2 -3,-1 -3,0 -2,9 0,22 2,31 0,3 1,6 3,8 0,2 1,3 2,4 1,0 2,0 3,0 1,0 1,-1 2,-2 0,-1 1,-2 1,-3 0,-1 -1,-3 -2,-4 -1,-2 -2,-4 -3,-6 -3,-6 -4,-17 -4,-24 0,-1 0,-3 -1,-4l0 0z"/>
  <path class="fil3" d="M190 1186c1,-2 3,-1 4,0 1,9 -1,22 -2,31 -1,3 -2,6 -3,8 -1,2 -1,3 -3,4 0,0 -2,0 -2,0 -1,0 -2,-1 -2,-2 -1,-1 -1,-2 -1,-3 0,-1 1,-3 1,-4 1,-2 2,-4 3,-6 3,-6 5,-17 5,-24 0,-1 -1,-3 0,-4l0 0z"/>
  <path class="fil4 str0" d="M190 1186c1,-2 3,-1 4,0 1,9 -1,22 -2,31 -1,3 -2,6 -3,8 -1,2 -1,3 -3,4 0,0 -2,0 -2,0 -1,0 -2,-1 -2,-2 -1,-1 -1,-2 -1,-3 0,-1 1,-3 1,-4 1,-2 2,-4 3,-6 3,-6 5,-17 5,-24 0,-1 -1,-3 0,-4l0 0z"/>
  <path class="fil3" d="M378 823c1,0 1,1 1,2 0,2 -1,3 -3,3 -2,0 -4,-1 -4,-3 0,-1 0,-2 0,-2 2,-1 5,-1 6,0l0 0z"/>
  <path class="fil4 str0" d="M378 823c1,0 1,1 1,2 0,2 -1,3 -3,3 -2,0 -4,-1 -4,-3 0,-1 0,-2 0,-2 2,-1 5,-1 6,0l0 0z"/>
  <path class="fil3" d="M375 843c2,0 3,-1 3,-3 0,-2 -1,-4 -3,-4 -2,0 -4,2 -4,4 0,2 2,3 4,3z"/>
  <path class="fil4 str0" d="M375 843c2,0 3,-1 3,-3 0,-2 -1,-4 -3,-4 -2,0 -4,2 -4,4 0,2 2,3 4,3z"/>
  <path class="fil3" d="M392 844c2,0 4,-1 4,-3 0,-2 -2,-4 -4,-4 -2,0 -3,2 -3,4 0,2 1,3 3,3z"/>
  <path class="fil4 str0" d="M392 844c2,0 4,-1 4,-3 0,-2 -2,-4 -4,-4 -2,0 -3,2 -3,4 0,2 1,3 3,3z"/>
  <path class="fil3" d="M357 844c2,0 3,-1 3,-3 0,-2 -1,-4 -3,-4 -2,0 -4,2 -4,4 0,2 2,3 4,3z"/>
  <path class="fil4 str0" d="M357 844c2,0 3,-1 3,-3 0,-2 -1,-4 -3,-4 -2,0 -4,2 -4,4 0,2 2,3 4,3z"/>
  <path class="fil3" d="M378 861c0,-3 -5,-3 -5,0 1,15 1,30 -2,43 0,2 0,4 0,6 0,1 1,3 2,4 0,1 1,1 1,1 1,1 2,1 2,1 1,0 2,-1 2,-1 1,-1 2,-1 2,-2 1,-1 1,-2 1,-4 0,-1 0,-3 -1,-5 -2,-14 -2,-29 -2,-43l0 0z"/>
  <path class="fil4 str0" d="M378 861c0,-3 -5,-3 -5,0 1,15 1,30 -2,43 0,2 0,4 0,6 0,1 1,3 2,4 0,1 1,1 1,1 1,1 2,1 2,1 1,0 2,-1 2,-1 1,-1 2,-1 2,-2 1,-1 1,-2 1,-4 0,-1 0,-3 -1,-5 -2,-14 -2,-29 -2,-43l0 0z"/>
  <path class="fil3" d="M393 859c-1,-2 -3,-1 -3,0 -2,9 0,23 2,31 0,3 1,6 3,8 0,2 1,3 2,4 1,0 3,1 3,0 1,-2 0,-9 0,-11 0,-1 -1,-2 -2,-3 -3,-7 -4,-17 -4,-25 0,-1 0,-3 -1,-4z"/>
  <path class="fil4 str0" d="M393 859c-1,-2 -3,-1 -3,0 -2,9 0,23 2,31 0,3 1,6 3,8 0,2 1,3 2,4 1,0 3,1 3,0 1,-2 0,-9 0,-11 0,-1 -1,-2 -2,-3 -3,-7 -4,-17 -4,-25 0,-1 0,-3 -1,-4z"/>
  <path class="fil3" d="M359 859c1,-2 3,-1 4,0 2,9 0,23 -2,31 -1,3 -2,6 -3,8 -1,2 -1,3 -3,4 0,0 -1,0 -2,0 -1,0 -2,-1 -2,-2 -1,0 -1,-2 -1,-3 0,-1 1,-3 1,-4 1,-2 3,-3 3,-5 3,-7 5,-17 5,-25 0,-1 -1,-3 0,-4l0 0z"/>
  <path class="fil4 str0" d="M359 859c1,-2 3,-1 4,0 2,9 0,23 -2,31 -1,3 -2,6 -3,8 -1,2 -1,3 -3,4 0,0 -1,0 -2,0 -1,0 -2,-1 -2,-2 -1,0 -1,-2 -1,-3 0,-1 1,-3 1,-4 1,-2 3,-3 3,-5 3,-7 5,-17 5,-25 0,-1 -1,-3 0,-4l0 0z"/>
  <path class="fil3" d="M375 985c2,0 4,-2 4,-4 0,-2 -2,-3 -4,-3 -2,0 -4,1 -4,3 0,2 2,4 4,4z"/>
  <path class="fil4 str0" d="M375 985c2,0 4,-2 4,-4 0,-2 -2,-3 -4,-3 -2,0 -4,1 -4,3 0,2 2,4 4,4z"/>
  <path class="fil3" d="M375 1005c2,0 3,-2 3,-4 0,-2 -1,-4 -3,-4 -2,0 -4,2 -4,4 0,2 2,4 4,4z"/>
  <path class="fil4 str0" d="M375 1005c2,0 3,-2 3,-4 0,-2 -1,-4 -3,-4 -2,0 -4,2 -4,4 0,2 2,4 4,4z"/>
  <path class="fil3" d="M392 1005c2,0 4,-1 4,-3 0,-2 -2,-4 -4,-4 -2,0 -3,2 -3,4 0,2 1,3 3,3z"/>
  <path class="fil4 str0" d="M392 1005c2,0 4,-1 4,-3 0,-2 -2,-4 -4,-4 -2,0 -3,2 -3,4 0,2 1,3 3,3z"/>
  <path class="fil3" d="M357 1005c2,0 3,-1 3,-3 0,-2 -1,-4 -3,-4 -2,0 -4,2 -4,4 0,2 2,3 4,3z"/>
  <path class="fil4 str0" d="M357 1005c2,0 3,-1 3,-3 0,-2 -1,-4 -3,-4 -2,0 -4,2 -4,4 0,2 2,3 4,3z"/>
  <path class="fil3" d="M378 1022c0,-3 -5,-3 -5,0 1,15 1,30 -2,44 0,1 0,3 0,5 0,1 1,3 2,4 0,0 1,1 1,1 1,1 2,1 2,1 1,0 2,-1 2,-1 1,-1 2,-1 2,-2 1,-1 1,-2 1,-4 0,-1 0,-3 0,-5 -3,-14 -3,-29 -3,-43l0 0z"/>
  <path class="fil4 str0" d="M378 1022c0,-3 -5,-3 -5,0 1,15 1,30 -2,44 0,1 0,3 0,5 0,1 1,3 2,4 0,0 1,1 1,1 1,1 2,1 2,1 1,0 2,-1 2,-1 1,-1 2,-1 2,-2 1,-1 1,-2 1,-4 0,-1 0,-3 0,-5 -3,-14 -3,-29 -3,-43l0 0z"/>
  <path class="fil3" d="M393 1020c0,-2 -3,-1 -3,0 -2,9 0,23 2,31 0,3 1,6 3,8 0,2 1,3 2,4 1,0 3,1 3,0 1,-2 0,-9 0,-11 0,-1 -1,-2 -2,-3 -3,-7 -4,-18 -4,-25 0,-1 0,-3 -1,-4l0 0z"/>
  <path class="fil4 str0" d="M393 1020c0,-2 -3,-1 -3,0 -2,9 0,23 2,31 0,3 1,6 3,8 0,2 1,3 2,4 1,0 3,1 3,0 1,-2 0,-9 0,-11 0,-1 -1,-2 -2,-3 -3,-7 -4,-18 -4,-25 0,-1 0,-3 -1,-4l0 0z"/>
  <path class="fil3" d="M359 1020c1,-2 4,-1 4,0 2,9 0,23 -2,31 -1,3 -2,6 -3,8 -1,2 -1,3 -2,4 -1,0 -2,0 -3,0 -1,0 -2,-1 -2,-2 -1,0 -1,-2 -1,-3 0,-1 1,-3 1,-4 1,-2 3,-3 3,-5 3,-7 5,-18 5,-25 0,-1 -1,-3 0,-4l0 0z"/>
  <path class="fil4 str0" d="M359 1020c1,-2 4,-1 4,0 2,9 0,23 -2,31 -1,3 -2,6 -3,8 -1,2 -1,3 -2,4 -1,0 -2,0 -3,0 -1,0 -2,-1 -2,-2 -1,0 -1,-2 -1,-3 0,-1 1,-3 1,-4 1,-2 3,-3 3,-5 3,-7 5,-18 5,-25 0,-1 -1,-3 0,-4l0 0z"/>
  <path class="fil3" d="M372 1156c2,0 4,-1 4,-3 0,-2 -2,-4 -4,-4 -2,0 -3,2 -3,4 0,2 1,3 3,3z"/>
  <path class="fil4 str0" d="M372 1156c2,0 4,-1 4,-3 0,-2 -2,-4 -4,-4 -2,0 -3,2 -3,4 0,2 1,3 3,3z"/>
  <path class="fil3" d="M372 1135c2,0 4,-2 4,-4 0,-2 -2,-4 -4,-4 -2,0 -3,2 -3,4 0,2 1,4 3,4z"/>
  <path class="fil4 str0" d="M372 1135c2,0 4,-2 4,-4 0,-2 -2,-4 -4,-4 -2,0 -3,2 -3,4 0,2 1,4 3,4z"/>
  <path class="fil3" d="M390 1157c2,0 3,-2 3,-4 0,-2 -1,-3 -3,-3 -2,0 -4,1 -4,3 0,2 2,4 4,4z"/>
  <path class="fil4 str0" d="M390 1157c2,0 3,-2 3,-4 0,-2 -1,-3 -3,-3 -2,0 -4,1 -4,3 0,2 2,4 4,4z"/>
  <path class="fil3" d="M354 1157c2,0 4,-2 4,-4 0,-2 -2,-3 -4,-3 -2,0 -3,1 -3,3 0,2 1,4 3,4z"/>
  <path class="fil4 str0" d="M354 1157c2,0 4,-2 4,-4 0,-2 -2,-3 -4,-3 -2,0 -3,1 -3,3 0,2 1,4 3,4z"/>
  <path class="fil3" d="M376 1174c0,-3 -5,-3 -5,-1 0,15 0,30 -2,44 0,2 0,4 0,5 0,2 1,3 1,4 1,1 1,2 2,2 1,0 1,1 2,1 1,-1 1,-1 2,-1 0,-1 1,-1 2,-2 0,-1 0,-3 0,-4 1,-2 0,-4 0,-5 -2,-15 -2,-29 -2,-43l0 0z"/>
  <path class="fil4 str0" d="M376 1174c0,-3 -5,-3 -5,-1 0,15 0,30 -2,44 0,2 0,4 0,5 0,2 1,3 1,4 1,1 1,2 2,2 1,0 1,1 2,1 1,-1 1,-1 2,-1 0,-1 1,-1 2,-2 0,-1 0,-3 0,-4 1,-2 0,-4 0,-5 -2,-15 -2,-29 -2,-43l0 0z"/>
  <path class="fil3" d="M391 1171c-1,-1 -3,0 -4,1 -1,9 1,22 2,31 1,3 2,6 3,8 1,1 2,3 3,3 0,1 2,2 3,1 0,-2 0,-10 0,-11 0,-2 -2,-2 -2,-4 -3,-7 -5,-17 -5,-24 0,-2 1,-3 0,-5z"/>
  <path class="fil4 str0" d="M391 1171c-1,-1 -3,0 -4,1 -1,9 1,22 2,31 1,3 2,6 3,8 1,1 2,3 3,3 0,1 2,2 3,1 0,-2 0,-10 0,-11 0,-2 -2,-2 -2,-4 -3,-7 -5,-17 -5,-24 0,-2 1,-3 0,-5z"/>
  <path class="fil3" d="M357 1171c1,-1 3,0 3,1 2,9 0,22 -2,31 0,3 -1,6 -2,8 -1,1 -2,3 -3,3 -1,1 -2,1 -3,1 -1,0 -1,-1 -2,-2 0,-1 -1,-2 -1,-3 1,-2 1,-3 2,-5 1,-2 2,-3 3,-5 3,-7 4,-17 4,-24 0,-2 0,-3 1,-5l0 0z"/>
  <path class="fil4 str0" d="M357 1171c1,-1 3,0 3,1 2,9 0,22 -2,31 0,3 -1,6 -2,8 -1,1 -2,3 -3,3 -1,1 -2,1 -3,1 -1,0 -1,-1 -2,-2 0,-1 -1,-2 -1,-3 1,-2 1,-3 2,-5 1,-2 2,-3 3,-5 3,-7 4,-17 4,-24 0,-2 0,-3 1,-5l0 0z"/>
  <path class="fil3" d="M25 839c2,0 3,-2 3,-4 0,-2 -1,-4 -3,-4 -2,0 -4,2 -4,4 0,2 2,4 4,4z"/>
  <path class="fil4 str0" d="M25 839c2,0 3,-2 3,-4 0,-2 -1,-4 -3,-4 -2,0 -4,2 -4,4 0,2 2,4 4,4z"/>
  <path class="fil3" d="M42 839c2,0 4,-1 4,-3 0,-2 -2,-4 -4,-4 -2,0 -4,2 -4,4 0,2 2,3 4,3z"/>
  <path class="fil4 str0" d="M42 839c2,0 4,-1 4,-3 0,-2 -2,-4 -4,-4 -2,0 -4,2 -4,4 0,2 2,3 4,3z"/>
  <path class="fil3" d="M6 839c2,0 4,-1 4,-3 0,-2 -2,-4 -4,-4l0 7z"/>
  <path class="fil4 str0" d="M6 839c2,0 4,-1 4,-3 0,-2 -2,-4 -4,-4l0 7z"/>
  <path class="fil3" d="M7 1002c2,0 4,-2 4,-4 0,-2 -2,-4 -4,-4l0 8z"/>
  <path class="fil4 str0" d="M7 1002c2,0 4,-2 4,-4 0,-2 -2,-4 -4,-4l0 8z"/>
  <path class="fil3" d="M6 1154c2,0 3,-1 3,-3 0,-2 -1,-4 -3,-4l0 7z"/>
  <path class="fil4 str0" d="M6 1154c2,0 3,-1 3,-3 0,-2 -1,-4 -3,-4l0 7z"/>
  <path class="fil3" d="M28 856c0,-3 -5,-3 -5,0 0,15 0,30 -2,44 0,1 0,3 0,5 0,1 1,3 2,4 0,1 1,1 1,2 1,0 1,0 2,0 1,0 1,0 2,-1 1,0 1,-1 2,-2 0,-1 1,-2 1,-4 0,-1 0,-3 -1,-5 -2,-14 -2,-28 -2,-43l0 0z"/>
  <path class="fil4 str0" d="M28 856c0,-3 -5,-3 -5,0 0,15 0,30 -2,44 0,1 0,3 0,5 0,1 1,3 2,4 0,1 1,1 1,2 1,0 1,0 2,0 1,0 1,0 2,-1 1,0 1,-1 2,-2 0,-1 1,-2 1,-4 0,-1 0,-3 -1,-5 -2,-14 -2,-28 -2,-43l0 0z"/>
  <path class="fil3" d="M43 854c-1,-2 -3,-1 -3,0 -2,9 0,23 2,32 0,2 1,5 2,8 1,1 2,2 3,3 1,0 2,1 3,0 1,0 1,-1 2,-1 0,-1 1,-2 0,-4 0,-1 0,-3 -1,-4 -1,-2 -2,-3 -3,-5 -3,-7 -4,-17 -4,-25 0,-1 0,-3 -1,-4l0 0z"/>
  <path class="fil4 str0" d="M43 854c-1,-2 -3,-1 -3,0 -2,9 0,23 2,32 0,2 1,5 2,8 1,1 2,2 3,3 1,0 2,1 3,0 1,0 1,-1 2,-1 0,-1 1,-2 0,-4 0,-1 0,-3 -1,-4 -1,-2 -2,-3 -3,-5 -3,-7 -4,-17 -4,-25 0,-1 0,-3 -1,-4l0 0z"/>
  <path class="fil3" d="M6 897c2,-1 2,-2 3,-3 1,-3 2,-6 3,-8 2,-9 4,-23 2,-32 -1,-1 -3,-2 -4,0 -1,1 0,3 0,4 0,7 -1,15 -4,22l0 17z"/>
  <path class="fil4 str0" d="M6 897c2,-1 2,-2 3,-3 1,-3 2,-6 3,-8 2,-9 4,-23 2,-32 -1,-1 -3,-2 -4,0 -1,1 0,3 0,4 0,7 -1,15 -4,22l0 17z"/>
  <path class="fil3" d="M6 1059c1,-1 2,-2 2,-3 2,-3 3,-6 3,-8 2,-9 4,-23 2,-31 0,-2 -2,-2 -3,-1 -1,1 -1,3 -1,5 0,6 -1,15 -3,21l0 17 0 0z"/>
  <path class="fil4 str0" d="M6 1059c1,-1 2,-2 2,-3 2,-3 3,-6 3,-8 2,-9 4,-23 2,-31 0,-2 -2,-2 -3,-1 -1,1 -1,3 -1,5 0,6 -1,15 -3,21l0 17 0 0z"/>
  <path class="fil3" d="M4 1212c1,-1 2,-2 3,-3 1,-3 2,-6 3,-8 1,-9 3,-23 2,-32 -1,-1 -3,-2 -4,0 -1,1 0,3 0,4 0,7 -1,15 -4,22l0 17 0 0z"/>
  <path class="fil4 str0" d="M4 1212c1,-1 2,-2 3,-3 1,-3 2,-6 3,-8 1,-9 3,-23 2,-32 -1,-1 -3,-2 -4,0 -1,1 0,3 0,4 0,7 -1,15 -4,22l0 17 0 0z"/>
  <path class="fil3" d="M209 821c0,0 0,1 0,2 0,2 -1,4 -3,4 -2,0 -4,-2 -4,-4 0,-1 0,-2 1,-2 1,0 4,0 6,0l0 0z"/>
  <path class="fil4 str0" d="M209 821c0,0 0,1 0,2 0,2 -1,4 -3,4 -2,0 -4,-2 -4,-4 0,-1 0,-2 1,-2 1,0 4,0 6,0l0 0z"/>
  <path class="fil3" d="M28 821c1,0 1,1 1,2 0,2 -2,4 -4,4 -2,0 -4,-2 -4,-4 0,-1 0,-2 1,-2 1,0 5,0 6,0l0 0z"/>
  <path class="fil4 str0" d="M28 821c1,0 1,1 1,2 0,2 -2,4 -4,4 -2,0 -4,-2 -4,-4 0,-1 0,-2 1,-2 1,0 5,0 6,0l0 0z"/>
  <path class="fil3" d="M206 844c2,0 3,-1 3,-3 0,-2 -1,-4 -3,-4 -2,0 -4,2 -4,4 0,2 2,3 4,3z"/>
  <path class="fil4 str0" d="M206 844c2,0 3,-1 3,-3 0,-2 -1,-4 -3,-4 -2,0 -4,2 -4,4 0,2 2,3 4,3z"/>
  <path class="fil3" d="M223 845c2,0 4,-2 4,-4 0,-2 -2,-3 -4,-3 -2,0 -4,1 -4,3 0,2 2,4 4,4z"/>
  <path class="fil4 str0" d="M223 845c2,0 4,-2 4,-4 0,-2 -2,-3 -4,-3 -2,0 -4,1 -4,3 0,2 2,4 4,4z"/>
  <path class="fil3" d="M188 845c2,0 3,-2 3,-4 0,-2 -1,-3 -3,-3 -2,0 -4,1 -4,3 0,2 2,4 4,4z"/>
  <path class="fil4 str0" d="M188 845c2,0 3,-2 3,-4 0,-2 -1,-3 -3,-3 -2,0 -4,1 -4,3 0,2 2,4 4,4z"/>
  <path class="fil3" d="M209 862c0,-3 -5,-3 -5,0 0,14 0,29 -2,43 0,2 0,4 0,6 0,1 1,2 2,4 0,0 1,1 1,1 1,1 2,1 2,1 1,0 1,-1 2,-1 1,-1 2,-1 2,-2 1,-1 1,-3 1,-4 0,-2 0,-3 -1,-5 -2,-14 -2,-29 -2,-43l0 0z"/>
  <path class="fil4 str0" d="M209 862c0,-3 -5,-3 -5,0 0,14 0,29 -2,43 0,2 0,4 0,6 0,1 1,2 2,4 0,0 1,1 1,1 1,1 2,1 2,1 1,0 1,-1 2,-1 1,-1 2,-1 2,-2 1,-1 1,-3 1,-4 0,-2 0,-3 -1,-5 -2,-14 -2,-29 -2,-43l0 0z"/>
  <path class="fil3" d="M190 860c1,-2 3,-1 4,0 1,9 -1,22 -2,31 -1,3 -2,6 -3,8 -1,1 -2,3 -3,3 0,1 -2,1 -2,1 -1,0 -2,-1 -2,-2 -1,-1 -1,-2 -1,-3 0,-2 1,-3 1,-4 1,-2 2,-4 3,-6 3,-6 5,-17 5,-24 0,-1 -1,-3 0,-4l0 0z"/>
  <path class="fil4 str0" d="M190 860c1,-2 3,-1 4,0 1,9 -1,22 -2,31 -1,3 -2,6 -3,8 -1,1 -2,3 -3,3 0,1 -2,1 -2,1 -1,0 -2,-1 -2,-2 -1,-1 -1,-2 -1,-3 0,-2 1,-3 1,-4 1,-2 2,-4 3,-6 3,-6 5,-17 5,-24 0,-1 -1,-3 0,-4l0 0z"/>
  <path class="fil3" d="M223 860c0,-2 -3,-1 -3,0 -2,9 0,23 2,32 0,2 1,5 3,8 0,1 1,2 2,3 1,0 2,1 3,0 1,0 2,-1 2,-1 1,-1 1,-2 1,-4 0,-1 -1,-3 -2,-4 -1,-2 -2,-3 -3,-5 -3,-7 -4,-17 -4,-25 0,-1 0,-3 -1,-4l0 0z"/>
  <path class="fil4 str0" d="M223 860c0,-2 -3,-1 -3,0 -2,9 0,23 2,32 0,2 1,5 3,8 0,1 1,2 2,3 1,0 2,1 3,0 1,0 2,-1 2,-1 1,-1 1,-2 1,-4 0,-1 -1,-3 -2,-4 -1,-2 -2,-3 -3,-5 -3,-7 -4,-17 -4,-25 0,-1 0,-3 -1,-4l0 0z"/>
  <path class="fil3" d="M25 981c2,0 3,-1 3,-3 0,-2 -1,-4 -3,-4 -2,0 -4,2 -4,4 0,2 2,3 4,3z"/>
  <path class="fil4 str0" d="M25 981c2,0 3,-1 3,-3 0,-2 -1,-4 -3,-4 -2,0 -4,2 -4,4 0,2 2,3 4,3z"/>
  <path class="fil3" d="M23 1134c2,0 4,-1 4,-3 0,-2 -2,-4 -4,-4 -2,0 -4,2 -4,4 0,2 2,3 4,3z"/>
  <path class="fil4 str0" d="M23 1134c2,0 4,-1 4,-3 0,-2 -2,-4 -4,-4 -2,0 -4,2 -4,4 0,2 2,3 4,3z"/>
  <path class="fil3" d="M25 1000c2,0 3,-2 3,-4 0,-2 -1,-4 -3,-4 -2,0 -4,2 -4,4 0,2 2,4 4,4z"/>
  <path class="fil4 str0" d="M25 1000c2,0 3,-2 3,-4 0,-2 -1,-4 -3,-4 -2,0 -4,2 -4,4 0,2 2,4 4,4z"/>
  <path class="fil3" d="M23 1152c2,0 4,-1 4,-3 0,-2 -2,-4 -4,-4 -2,0 -4,2 -4,4 0,2 2,3 4,3z"/>
  <path class="fil4 str0" d="M23 1152c2,0 4,-1 4,-3 0,-2 -2,-4 -4,-4 -2,0 -4,2 -4,4 0,2 2,3 4,3z"/>
  <path class="fil3" d="M42 1000c2,0 4,-1 4,-3 0,-2 -2,-4 -4,-4 -2,0 -4,2 -4,4 0,2 2,3 4,3z"/>
  <path class="fil4 str0" d="M42 1000c2,0 4,-1 4,-3 0,-2 -2,-4 -4,-4 -2,0 -4,2 -4,4 0,2 2,3 4,3z"/>
  <path class="fil3" d="M40 1153c2,0 4,-1 4,-3 0,-2 -2,-4 -4,-4 -2,0 -3,2 -3,4 0,2 1,3 3,3z"/>
  <path class="fil4 str0" d="M40 1153c2,0 4,-1 4,-3 0,-2 -2,-4 -4,-4 -2,0 -3,2 -3,4 0,2 1,3 3,3z"/>
  <path class="fil3" d="M28 1017c0,-3 -5,-3 -5,0 0,15 0,30 -2,44 0,1 0,3 0,5 0,1 1,3 2,4 0,1 1,1 1,2 1,0 1,0 2,0 1,0 1,0 2,-1 1,0 1,-1 2,-2 0,-1 1,-2 1,-3 0,-2 0,-4 -1,-6 -2,-14 -2,-29 -2,-43z"/>
  <path class="fil4 str0" d="M28 1017c0,-3 -5,-3 -5,0 0,15 0,30 -2,44 0,1 0,3 0,5 0,1 1,3 2,4 0,1 1,1 1,2 1,0 1,0 2,0 1,0 1,0 2,-1 1,0 1,-1 2,-2 0,-1 1,-2 1,-3 0,-2 0,-4 -1,-6 -2,-14 -2,-29 -2,-43z"/>
  <path class="fil3" d="M26 1170c0,-3 -4,-3 -4,0 0,15 0,30 -3,43 0,2 0,4 0,6 1,1 1,2 2,4 0,0 1,1 2,1 0,1 1,1 2,1 0,0 1,-1 1,-1 1,-1 2,-1 2,-2 1,-1 1,-2 1,-4 0,-1 0,-3 0,-5 -3,-14 -2,-29 -3,-43z"/>
  <path class="fil4 str0" d="M26 1170c0,-3 -4,-3 -4,0 0,15 0,30 -3,43 0,2 0,4 0,6 1,1 1,2 2,4 0,0 1,1 2,1 0,1 1,1 2,1 0,0 1,-1 1,-1 1,-1 2,-1 2,-2 1,-1 1,-2 1,-4 0,-1 0,-3 0,-5 -3,-14 -2,-29 -3,-43z"/>
  <path class="fil3" d="M43 1015c-1,-2 -3,-1 -3,0 -2,9 0,23 2,31 0,3 1,6 2,9 1,1 2,2 3,3 1,0 2,0 3,0 1,0 1,-1 2,-1 0,-1 1,-2 0,-4 0,-1 0,-3 -1,-4 -1,-2 -2,-3 -3,-5 -3,-7 -4,-17 -4,-25 0,-1 0,-3 -1,-4l0 0z"/>
  <path class="fil4 str0" d="M43 1015c-1,-2 -3,-1 -3,0 -2,9 0,23 2,31 0,3 1,6 2,9 1,1 2,2 3,3 1,0 2,0 3,0 1,0 1,-1 2,-1 0,-1 1,-2 0,-4 0,-1 0,-3 -1,-4 -1,-2 -2,-3 -3,-5 -3,-7 -4,-17 -4,-25 0,-1 0,-3 -1,-4l0 0z"/>
  <path class="fil3" d="M42 1168c-1,-2 -4,-1 -4,0 -2,9 0,22 2,31 0,3 2,6 3,8 0,2 1,3 2,4 1,0 2,0 3,0 1,0 2,-1 2,-2 1,-1 1,-2 1,-3 0,-1 -1,-3 -2,-4 -1,-2 -2,-3 -3,-6 -3,-6 -4,-17 -4,-24 0,-1 0,-3 0,-4l0 0z"/>
  <path class="fil4 str0" d="M42 1168c-1,-2 -4,-1 -4,0 -2,9 0,22 2,31 0,3 2,6 3,8 0,2 1,3 2,4 1,0 2,0 3,0 1,0 2,-1 2,-2 1,-1 1,-2 1,-3 0,-1 -1,-3 -2,-4 -1,-2 -2,-3 -3,-6 -3,-6 -4,-17 -4,-24 0,-1 0,-3 0,-4l0 0z"/>
  <path class="fil3" d="M115 908c2,0 4,-2 4,-4 0,-2 -2,-3 -4,-3 -2,0 -3,1 -3,3 0,2 1,4 3,4z"/>
  <path class="fil4 str0" d="M115 908c2,0 4,-2 4,-4 0,-2 -2,-3 -4,-3 -2,0 -3,1 -3,3 0,2 1,4 3,4z"/>
  <path class="fil3" d="M115 926c2,0 4,-2 4,-4 0,-2 -2,-3 -4,-3 -2,0 -3,1 -3,3 0,2 1,4 3,4z"/>
  <path class="fil4 str0" d="M115 926c2,0 4,-2 4,-4 0,-2 -2,-3 -4,-3 -2,0 -3,1 -3,3 0,2 1,4 3,4z"/>
  <path class="fil3" d="M133 927c2,0 3,-2 3,-4 0,-2 -1,-3 -3,-3 -2,0 -4,1 -4,3 0,2 2,4 4,4z"/>
  <path class="fil4 str0" d="M133 927c2,0 3,-2 3,-4 0,-2 -1,-3 -3,-3 -2,0 -4,1 -4,3 0,2 2,4 4,4z"/>
  <path class="fil3" d="M97 927c2,0 4,-2 4,-4 0,-2 -2,-3 -4,-3 -2,0 -4,1 -4,3 0,2 2,4 4,4z"/>
  <path class="fil4 str0" d="M97 927c2,0 4,-2 4,-4 0,-2 -2,-3 -4,-3 -2,0 -4,1 -4,3 0,2 2,4 4,4z"/>
  <path class="fil3" d="M118 944c0,-3 -4,-4 -4,-1 0,15 0,30 -2,44 -1,2 -1,4 0,5 0,2 0,3 1,4 1,1 1,2 2,2 0,0 1,0 2,0 0,0 1,0 1,0 1,-1 2,-2 2,-2 1,-2 1,-3 1,-4 0,-2 0,-4 0,-5 -2,-15 -2,-29 -3,-43l0 0z"/>
  <path class="fil4 str0" d="M118 944c0,-3 -4,-4 -4,-1 0,15 0,30 -2,44 -1,2 -1,4 0,5 0,2 0,3 1,4 1,1 1,2 2,2 0,0 1,0 2,0 0,0 1,0 1,0 1,-1 2,-2 2,-2 1,-2 1,-3 1,-4 0,-2 0,-4 0,-5 -2,-15 -2,-29 -3,-43l0 0z"/>
  <path class="fil3" d="M134 941c-1,-1 -4,-1 -4,1 -2,8 0,22 2,31 1,3 2,5 3,8 1,1 1,2 2,3 1,1 2,1 3,1 1,-1 2,-1 2,-2 1,-1 1,-2 1,-3 0,-2 -1,-3 -2,-5 -1,-2 -2,-3 -3,-5 -3,-7 -4,-17 -4,-24 0,-2 1,-3 0,-5l0 0z"/>
  <path class="fil4 str0" d="M134 941c-1,-1 -4,-1 -4,1 -2,8 0,22 2,31 1,3 2,5 3,8 1,1 1,2 2,3 1,1 2,1 3,1 1,-1 2,-1 2,-2 1,-1 1,-2 1,-3 0,-2 -1,-3 -2,-5 -1,-2 -2,-3 -3,-5 -3,-7 -4,-17 -4,-24 0,-2 1,-3 0,-5l0 0z"/>
  <path class="fil3" d="M99 941c1,-1 4,-1 4,1 2,8 0,22 -2,31 -1,3 -2,5 -3,8 0,1 -1,2 -2,3 -1,1 -2,1 -3,1 -1,-1 -2,-1 -2,-2 -1,-1 -1,-2 -1,-3 0,-2 1,-3 2,-5 1,-2 2,-3 3,-5 3,-7 4,-17 4,-24 0,-2 0,-3 0,-5l0 0z"/>
  <path class="fil4 str0" d="M99 941c1,-1 4,-1 4,1 2,8 0,22 -2,31 -1,3 -2,5 -3,8 0,1 -1,2 -2,3 -1,1 -2,1 -3,1 -1,-1 -2,-1 -2,-2 -1,-1 -1,-2 -1,-3 0,-2 1,-3 2,-5 1,-2 2,-3 3,-5 3,-7 4,-17 4,-24 0,-2 0,-3 0,-5l0 0z"/>
  <path class="fil3" d="M115 1069c2,0 4,-2 4,-4 0,-2 -2,-4 -4,-4 -2,0 -3,2 -3,4 0,2 1,4 3,4z"/>
  <path class="fil4 str0" d="M115 1069c2,0 4,-2 4,-4 0,-2 -2,-4 -4,-4 -2,0 -3,2 -3,4 0,2 1,4 3,4z"/>
  <path class="fil3" d="M115 1087c2,0 4,-2 4,-4 0,-2 -2,-3 -4,-3 -2,0 -3,1 -3,3 0,2 1,4 3,4z"/>
  <path class="fil4 str0" d="M115 1087c2,0 4,-2 4,-4 0,-2 -2,-3 -4,-3 -2,0 -3,1 -3,3 0,2 1,4 3,4z"/>
  <path class="fil3" d="M133 1088c2,0 3,-2 3,-4 0,-2 -1,-3 -3,-3 -2,0 -4,1 -4,3 0,2 2,4 4,4z"/>
  <path class="fil4 str0" d="M133 1088c2,0 3,-2 3,-4 0,-2 -1,-3 -3,-3 -2,0 -4,1 -4,3 0,2 2,4 4,4z"/>
  <path class="fil3" d="M97 1088c2,0 4,-2 4,-4 0,-2 -2,-3 -4,-3 -2,0 -4,1 -4,3 0,2 2,4 4,4z"/>
  <path class="fil4 str0" d="M97 1088c2,0 4,-2 4,-4 0,-2 -2,-3 -4,-3 -2,0 -4,1 -4,3 0,2 2,4 4,4z"/>
  <path class="fil3" d="M118 1105c0,-3 -4,-4 -4,-1 0,15 0,30 -2,44 -1,2 -1,4 0,5 0,2 0,3 1,4 1,1 1,2 2,2 0,0 1,0 2,0 0,0 1,0 1,0 1,-1 2,-2 2,-2 1,-2 1,-3 1,-4 0,-2 0,-4 0,-5 -2,-15 -2,-29 -3,-43l0 0z"/>
  <path class="fil4 str0" d="M118 1105c0,-3 -4,-4 -4,-1 0,15 0,30 -2,44 -1,2 -1,4 0,5 0,2 0,3 1,4 1,1 1,2 2,2 0,0 1,0 2,0 0,0 1,0 1,0 1,-1 2,-2 2,-2 1,-2 1,-3 1,-4 0,-2 0,-4 0,-5 -2,-15 -2,-29 -3,-43l0 0z"/>
  <path class="fil3" d="M134 1102c-1,-1 -4,-1 -4,1 -2,8 0,22 2,31 1,3 2,5 3,8 1,1 1,2 2,3 1,1 2,1 3,1 1,-1 2,-1 2,-2 1,-1 1,-2 1,-3 0,-2 -1,-3 -2,-5 -1,-2 -2,-3 -3,-5 -3,-7 -4,-17 -4,-24 0,-2 1,-3 0,-5l0 0z"/>
  <path class="fil4 str0" d="M134 1102c-1,-1 -4,-1 -4,1 -2,8 0,22 2,31 1,3 2,5 3,8 1,1 1,2 2,3 1,1 2,1 3,1 1,-1 2,-1 2,-2 1,-1 1,-2 1,-3 0,-2 -1,-3 -2,-5 -1,-2 -2,-3 -3,-5 -3,-7 -4,-17 -4,-24 0,-2 1,-3 0,-5l0 0z"/>
  <path class="fil3" d="M99 1102c1,-1 4,-1 4,1 2,8 0,22 -2,31 -1,3 -2,5 -3,8 0,1 -1,2 -2,3 -1,1 -2,1 -3,1 -1,-1 -2,-1 -2,-2 -1,-1 -1,-2 -1,-3 0,-2 1,-3 2,-5 1,-2 2,-3 3,-5 3,-7 4,-17 4,-24 0,-2 0,-3 0,-5l0 0z"/>
  <path class="fil4 str0" d="M99 1102c1,-1 4,-1 4,1 2,8 0,22 -2,31 -1,3 -2,5 -3,8 0,1 -1,2 -2,3 -1,1 -2,1 -3,1 -1,-1 -2,-1 -2,-2 -1,-1 -1,-2 -1,-3 0,-2 1,-3 2,-5 1,-2 2,-3 3,-5 3,-7 4,-17 4,-24 0,-2 0,-3 0,-5l0 0z"/>
  <path class="fil3" d="M115 1196c2,0 4,-1 4,-3 0,-2 -2,-4 -4,-4 -2,0 -3,2 -3,4 0,2 1,3 3,3z"/>
  <path class="fil4 str0" d="M115 1196c2,0 4,-1 4,-3 0,-2 -2,-4 -4,-4 -2,0 -3,2 -3,4 0,2 1,3 3,3z"/>
  <path class="fil3" d="M115 1214c2,0 4,-1 4,-3 0,-2 -2,-4 -4,-4 -2,0 -3,2 -3,4 0,2 1,3 3,3z"/>
  <path class="fil4 str0" d="M115 1214c2,0 4,-1 4,-3 0,-2 -2,-4 -4,-4 -2,0 -3,2 -3,4 0,2 1,3 3,3z"/>
  <path class="fil3" d="M133 1215c2,0 3,-1 3,-3 0,-2 -1,-4 -3,-4 -2,0 -4,2 -4,4 0,2 2,3 4,3z"/>
  <path class="fil4 str0" d="M133 1215c2,0 3,-1 3,-3 0,-2 -1,-4 -3,-4 -2,0 -4,2 -4,4 0,2 2,3 4,3z"/>
  <path class="fil3" d="M97 1215c2,0 4,-1 4,-3 0,-2 -2,-4 -4,-4 -2,0 -4,2 -4,4 0,2 2,3 4,3z"/>
  <path class="fil4 str0" d="M97 1215c2,0 4,-1 4,-3 0,-2 -2,-4 -4,-4 -2,0 -4,2 -4,4 0,2 2,3 4,3z"/>
  <path class="fil3" d="M119 1259c0,-9 0,-18 -1,-27 0,-3 -4,-3 -4,0 0,9 0,18 -1,27l6 0z"/>
  <path class="fil4 str0" d="M119 1259c0,-9 0,-18 -1,-27 0,-3 -4,-3 -4,0 0,9 0,18 -1,27l6 0z"/>
  <path class="fil3" d="M139 1259c0,0 -1,0 -1,-1 -3,-6 -4,-17 -4,-24 0,-1 1,-3 0,-4 -1,-2 -4,-1 -4,0 -1,8 0,20 2,29l7 0 0 0z"/>
  <path class="fil4 str0" d="M139 1259c0,0 -1,0 -1,-1 -3,-6 -4,-17 -4,-24 0,-1 1,-3 0,-4 -1,-2 -4,-1 -4,0 -1,8 0,20 2,29l7 0 0 0z"/>
  <path class="fil3" d="M102 1259c1,-9 3,-21 1,-29 0,-1 -3,-2 -4,0 0,1 0,3 0,4 0,7 -1,18 -4,24l7 1 0 0z"/>
  <path class="fil4 str0" d="M102 1259c1,-9 3,-21 1,-29 0,-1 -3,-2 -4,0 0,1 0,3 0,4 0,7 -1,18 -4,24l7 1 0 0z"/>
  <path class="fil3" d="M289 908c2,0 4,-2 4,-4 0,-2 -2,-3 -4,-3 -2,0 -4,1 -4,3 0,2 2,4 4,4z"/>
  <path class="fil4 str0" d="M289 908c2,0 4,-2 4,-4 0,-2 -2,-3 -4,-3 -2,0 -4,1 -4,3 0,2 2,4 4,4z"/>
  <path class="fil3" d="M289 926c2,0 4,-2 4,-4 0,-2 -2,-3 -4,-3 -2,0 -4,1 -4,3 0,2 2,4 4,4z"/>
  <path class="fil4 str0" d="M289 926c2,0 4,-2 4,-4 0,-2 -2,-3 -4,-3 -2,0 -4,1 -4,3 0,2 2,4 4,4z"/>
  <path class="fil3" d="M306 927c2,0 4,-2 4,-4 0,-2 -2,-3 -4,-3 -2,0 -3,1 -3,3 0,2 1,4 3,4z"/>
  <path class="fil4 str0" d="M306 927c2,0 4,-2 4,-4 0,-2 -2,-3 -4,-3 -2,0 -3,1 -3,3 0,2 1,4 3,4z"/>
  <path class="fil3" d="M271 927c2,0 4,-2 4,-4 0,-2 -2,-3 -4,-3 -2,0 -4,1 -4,3 0,2 2,4 4,4z"/>
  <path class="fil4 str0" d="M271 927c2,0 4,-2 4,-4 0,-2 -2,-3 -4,-3 -2,0 -4,1 -4,3 0,2 2,4 4,4z"/>
  <path class="fil3" d="M292 944c0,-3 -4,-4 -4,-1 0,15 0,30 -3,44 0,2 0,4 0,5 1,2 1,3 2,4 0,1 1,2 2,2 0,0 1,0 2,0 0,0 1,0 1,0 1,-1 2,-2 2,-2 1,-2 1,-3 1,-4 0,-2 0,-4 0,-5 -3,-15 -2,-29 -3,-43l0 0z"/>
  <path class="fil4 str0" d="M292 944c0,-3 -4,-4 -4,-1 0,15 0,30 -3,44 0,2 0,4 0,5 1,2 1,3 2,4 0,1 1,2 2,2 0,0 1,0 2,0 0,0 1,0 1,0 1,-1 2,-2 2,-2 1,-2 1,-3 1,-4 0,-2 0,-4 0,-5 -3,-15 -2,-29 -3,-43l0 0z"/>
  <path class="fil3" d="M308 941c-1,-1 -4,-1 -4,1 -2,8 0,22 2,31 1,3 2,5 3,8 0,1 1,2 2,3 1,1 2,1 3,1 1,-1 2,-1 2,-2 1,-1 1,-2 1,-3 0,-2 -1,-3 -2,-5 -1,-2 -2,-3 -3,-5 -3,-7 -4,-17 -4,-24 0,-2 0,-3 0,-5l0 0z"/>
  <path class="fil4 str0" d="M308 941c-1,-1 -4,-1 -4,1 -2,8 0,22 2,31 1,3 2,5 3,8 0,1 1,2 2,3 1,1 2,1 3,1 1,-1 2,-1 2,-2 1,-1 1,-2 1,-3 0,-2 -1,-3 -2,-5 -1,-2 -2,-3 -3,-5 -3,-7 -4,-17 -4,-24 0,-2 0,-3 0,-5l0 0z"/>
  <path class="fil3" d="M273 941c1,-1 4,-1 4,1 2,8 0,22 -2,31 -1,3 -2,5 -3,8 0,1 -1,2 -2,3 -1,1 -2,1 -3,1 -1,-1 -2,-1 -2,-2 -1,-1 -1,-2 -1,-3 0,-2 1,-3 2,-5 1,-2 2,-3 3,-5 3,-7 4,-17 4,-24 0,-2 0,-3 0,-5z"/>
  <path class="fil4 str0" d="M273 941c1,-1 4,-1 4,1 2,8 0,22 -2,31 -1,3 -2,5 -3,8 0,1 -1,2 -2,3 -1,1 -2,1 -3,1 -1,-1 -2,-1 -2,-2 -1,-1 -1,-2 -1,-3 0,-2 1,-3 2,-5 1,-2 2,-3 3,-5 3,-7 4,-17 4,-24 0,-2 0,-3 0,-5z"/>
  <path class="fil3" d="M289 1069c2,0 4,-2 4,-4 0,-2 -2,-4 -4,-4 -2,0 -4,2 -4,4 0,2 2,4 4,4z"/>
  <path class="fil4 str0" d="M289 1069c2,0 4,-2 4,-4 0,-2 -2,-4 -4,-4 -2,0 -4,2 -4,4 0,2 2,4 4,4z"/>
  <path class="fil3" d="M289 1087c2,0 4,-2 4,-4 0,-2 -2,-3 -4,-3 -2,0 -4,1 -4,3 0,2 2,4 4,4z"/>
  <path class="fil4 str0" d="M289 1087c2,0 4,-2 4,-4 0,-2 -2,-3 -4,-3 -2,0 -4,1 -4,3 0,2 2,4 4,4z"/>
  <path class="fil3" d="M306 1088c2,0 4,-2 4,-4 0,-2 -2,-3 -4,-3 -2,0 -3,1 -3,3 0,2 1,4 3,4z"/>
  <path class="fil4 str0" d="M306 1088c2,0 4,-2 4,-4 0,-2 -2,-3 -4,-3 -2,0 -3,1 -3,3 0,2 1,4 3,4z"/>
  <path class="fil3" d="M271 1088c2,0 4,-2 4,-4 0,-2 -2,-3 -4,-3 -2,0 -4,1 -4,3 0,2 2,4 4,4z"/>
  <path class="fil4 str0" d="M271 1088c2,0 4,-2 4,-4 0,-2 -2,-3 -4,-3 -2,0 -4,1 -4,3 0,2 2,4 4,4z"/>
  <path class="fil3" d="M292 1105c0,-3 -4,-4 -4,-1 0,15 0,30 -3,44 0,2 0,4 0,5 1,2 1,3 2,4 0,1 1,2 2,2 0,0 1,0 2,0 0,0 1,0 1,0 1,-1 2,-2 2,-2 1,-2 1,-3 1,-4 0,-2 0,-4 0,-5 -3,-15 -2,-29 -3,-43l0 0z"/>
  <path class="fil4 str0" d="M292 1105c0,-3 -4,-4 -4,-1 0,15 0,30 -3,44 0,2 0,4 0,5 1,2 1,3 2,4 0,1 1,2 2,2 0,0 1,0 2,0 0,0 1,0 1,0 1,-1 2,-2 2,-2 1,-2 1,-3 1,-4 0,-2 0,-4 0,-5 -3,-15 -2,-29 -3,-43l0 0z"/>
  <path class="fil3" d="M308 1102c-1,-1 -4,-1 -4,1 -2,8 0,22 2,31 1,3 2,5 3,8 0,1 1,2 2,3 1,1 2,1 3,1 1,-1 2,-1 2,-2 1,-1 1,-2 1,-3 0,-2 -1,-3 -2,-5 -1,-2 -2,-3 -3,-5 -3,-7 -4,-17 -4,-24 0,-2 0,-3 0,-5l0 0z"/>
  <path class="fil4 str0" d="M308 1102c-1,-1 -4,-1 -4,1 -2,8 0,22 2,31 1,3 2,5 3,8 0,1 1,2 2,3 1,1 2,1 3,1 1,-1 2,-1 2,-2 1,-1 1,-2 1,-3 0,-2 -1,-3 -2,-5 -1,-2 -2,-3 -3,-5 -3,-7 -4,-17 -4,-24 0,-2 0,-3 0,-5l0 0z"/>
  <path class="fil3" d="M273 1102c1,-1 4,-1 4,1 2,8 0,22 -2,31 -1,3 -2,5 -3,8 0,1 -1,2 -2,3 -1,1 -2,1 -3,1 -1,-1 -2,-1 -2,-2 -1,-1 -1,-2 -1,-3 0,-2 1,-3 2,-5 1,-2 2,-3 3,-5 3,-7 4,-17 4,-24 0,-2 0,-3 0,-5l0 0z"/>
  <path class="fil4 str0" d="M273 1102c1,-1 4,-1 4,1 2,8 0,22 -2,31 -1,3 -2,5 -3,8 0,1 -1,2 -2,3 -1,1 -2,1 -3,1 -1,-1 -2,-1 -2,-2 -1,-1 -1,-2 -1,-3 0,-2 1,-3 2,-5 1,-2 2,-3 3,-5 3,-7 4,-17 4,-24 0,-2 0,-3 0,-5l0 0z"/>
  <path class="fil3" d="M289 1196c2,0 4,-1 4,-3 0,-2 -2,-4 -4,-4 -2,0 -4,2 -4,4 0,2 2,3 4,3z"/>
  <path class="fil4 str0" d="M289 1196c2,0 4,-1 4,-3 0,-2 -2,-4 -4,-4 -2,0 -4,2 -4,4 0,2 2,3 4,3z"/>
  <path class="fil3" d="M289 1214c2,0 4,-1 4,-3 0,-2 -2,-4 -4,-4 -2,0 -4,2 -4,4 0,2 2,3 4,3z"/>
  <path class="fil4 str0" d="M289 1214c2,0 4,-1 4,-3 0,-2 -2,-4 -4,-4 -2,0 -4,2 -4,4 0,2 2,3 4,3z"/>
  <path class="fil3" d="M306 1215c2,0 4,-1 4,-3 0,-2 -2,-4 -4,-4 -2,0 -3,2 -3,4 0,2 1,3 3,3z"/>
  <path class="fil4 str0" d="M306 1215c2,0 4,-1 4,-3 0,-2 -2,-4 -4,-4 -2,0 -3,2 -3,4 0,2 1,3 3,3z"/>
  <path class="fil3" d="M271 1215c2,0 4,-1 4,-3 0,-2 -2,-4 -4,-4 -2,0 -4,2 -4,4 0,2 2,3 4,3z"/>
  <path class="fil4 str0" d="M271 1215c2,0 4,-1 4,-3 0,-2 -2,-4 -4,-4 -2,0 -4,2 -4,4 0,2 2,3 4,3z"/>
  <path class="fil3" d="M293 1260c0,-10 0,-19 -1,-28 0,-3 -4,-3 -4,0 0,9 0,19 -1,28l6 0z"/>
  <path class="fil4 str0" d="M293 1260c0,-10 0,-19 -1,-28 0,-3 -4,-3 -4,0 0,9 0,19 -1,28l6 0z"/>
  <path class="fil3" d="M313 1260c0,0 0,-1 -1,-2 -3,-6 -4,-17 -4,-24 0,-1 0,-3 0,-4 -1,-2 -4,-1 -4,0 -2,9 0,21 2,30l7 0z"/>
  <path class="fil4 str0" d="M313 1260c0,0 0,-1 -1,-2 -3,-6 -4,-17 -4,-24 0,-1 0,-3 0,-4 -1,-2 -4,-1 -4,0 -2,9 0,21 2,30l7 0z"/>
  <path class="fil3" d="M275 1260c2,-9 4,-22 2,-30 0,-1 -3,-2 -4,0 0,1 0,3 0,4 0,7 -1,18 -4,24 -1,1 -1,1 -1,2l7 0z"/>
  <path class="fil4 str0" d="M275 1260c2,-9 4,-22 2,-30 0,-1 -3,-2 -4,0 0,1 0,3 0,4 0,7 -1,18 -4,24 -1,1 -1,1 -1,2l7 0z"/>
  <path class="fil3" d="M42 1209l321 0 0 -350 -321 0 0 350zm26 -317l262 0 0 288 -262 0 0 -288z"/>
  <path class="fil4 str0" d="M42 1209l321 0 0 -350 -321 0 0 350zm26 -317l262 0 0 288 -262 0 0 -288z"/>
  <path class="fil1" d="M219 734c-12,-26 -26,-51 -40,-76 -1,-2 -4,-3 -6,-4 -3,-1 -6,-3 -10,-3 -17,-1 -34,-2 -51,-1 -3,0 -6,2 -9,4 -2,1 -3,3 -5,4 -2,1 -3,2 -4,3 -3,-2 -5,-3 -8,-5 -3,-2 -7,-3 -11,-4 -4,-2 -9,-3 -14,-3 -14,-1 -28,-2 -43,-1 -3,0 -5,1 -8,3 -2,2 -3,4 -4,7 -1,3 -1,6 -1,9 0,3 2,8 3,11 1,4 2,6 5,10 2,3 4,6 7,8 3,2 7,2 10,4 0,3 -2,6 -2,9 0,4 0,8 2,12 1,4 4,7 7,10 3,4 6,8 10,11 3,2 7,3 11,4 4,1 7,2 11,2 18,0 37,2 56,0 5,-1 7,-5 11,-8 4,2 8,7 13,7 20,2 40,1 60,-1 3,0 7,-2 9,-4 1,-2 2,-5 1,-8l0 0z"/>
  <path class="fil4 str1" d="M219 734c-12,-26 -26,-51 -40,-76 -1,-2 -4,-3 -6,-4 -3,-1 -6,-3 -10,-3 -17,-1 -34,-2 -51,-1 -3,0 -6,2 -9,4 -2,1 -3,3 -5,4 -2,1 -3,2 -4,3 -3,-2 -5,-3 -8,-5 -3,-2 -7,-3 -11,-4 -4,-2 -9,-3 -14,-3 -14,-1 -28,-2 -43,-1 -3,0 -5,1 -8,3 -2,2 -3,4 -4,7 -1,3 -1,6 -1,9 0,3 2,8 3,11 1,4 2,6 5,10 2,3 4,6 7,8 3,2 7,2 10,4 0,3 -2,6 -2,9 0,4 0,8 2,12 1,4 4,7 7,10 3,4 6,8 10,11 3,2 7,3 11,4 4,1 7,2 11,2 18,0 37,2 56,0 5,-1 7,-5 11,-8 4,2 8,7 13,7 20,2 40,1 60,-1 3,0 7,-2 9,-4 1,-2 2,-5 1,-8l0 0z"/>
  <path class="fil1" d="M856 730c2,3 4,5 3,8 0,3 -1,7 -4,9 -3,3 -8,4 -12,4 -13,1 -27,0 -40,-1 -6,-2 -10,-5 -13,-9 -2,4 -6,7 -13,9 -16,-1 -32,-1 -48,-2 -5,-1 -9,-1 -14,-3 -4,-2 -7,-5 -11,-7 -3,-3 -6,-6 -8,-9 -12,-20 -23,-41 -34,-63 0,-1 0,-4 1,-5 1,-3 2,-4 4,-6 2,-1 5,-2 7,-2 19,-1 38,-1 56,0 4,0 10,2 14,3 3,1 4,3 7,5 3,-2 5,-5 8,-6 4,-2 9,-2 13,-2 11,0 22,0 33,2 4,0 7,3 10,5 3,2 5,4 7,7 12,21 23,42 34,63l0 0z"/>
  <path class="fil4 str1" d="M856 730c2,3 4,5 3,8 0,3 -1,7 -4,9 -3,3 -8,4 -12,4 -13,1 -27,0 -40,-1 -6,-2 -10,-5 -13,-9 -2,4 -6,7 -13,9 -16,-1 -32,-1 -48,-2 -5,-1 -9,-1 -14,-3 -4,-2 -7,-5 -11,-7 -3,-3 -6,-6 -8,-9 -12,-20 -23,-41 -34,-63 0,-1 0,-4 1,-5 1,-3 2,-4 4,-6 2,-1 5,-2 7,-2 19,-1 38,-1 56,0 4,0 10,2 14,3 3,1 4,3 7,5 3,-2 5,-5 8,-6 4,-2 9,-2 13,-2 11,0 22,0 33,2 4,0 7,3 10,5 3,2 5,4 7,7 12,21 23,42 34,63l0 0z"/>
  <path class="fil0" d="M697 730c1,3 3,5 3,8 0,3 -2,7 -4,9 -4,3 -8,4 -13,4 -13,1 -26,0 -39,-1 -7,-2 -11,-5 -13,-9 -2,4 -7,7 -13,9 -16,-1 -32,-1 -48,-2 -5,-1 -10,-1 -14,-3 -4,-2 -8,-5 -11,-7 -3,-3 -7,-6 -9,-9 -12,-20 -23,-41 -33,-63 -1,-1 0,-4 1,-5 1,-3 2,-4 4,-6 2,-1 4,-2 7,-2 18,-1 37,-1 56,0 4,0 10,2 13,3 3,1 4,3 7,5 3,-2 6,-5 9,-6 4,-2 8,-2 13,-2 10,0 22,0 32,2 4,0 8,3 11,5 3,2 5,4 7,7 12,21 23,42 34,63l0 0z"/>
  <path class="fil4 str2" d="M697 730c1,3 3,5 3,8 0,3 -2,7 -4,9 -4,3 -8,4 -13,4 -13,1 -26,0 -39,-1 -7,-2 -11,-5 -13,-9 -2,4 -7,7 -13,9 -16,-1 -32,-1 -48,-2 -5,-1 -10,-1 -14,-3 -4,-2 -8,-5 -11,-7 -3,-3 -7,-6 -9,-9 -12,-20 -23,-41 -33,-63 -1,-1 0,-4 1,-5 1,-3 2,-4 4,-6 2,-1 4,-2 7,-2 18,-1 37,-1 56,0 4,0 10,2 13,3 3,1 4,3 7,5 3,-2 6,-5 9,-6 4,-2 8,-2 13,-2 10,0 22,0 32,2 4,0 8,3 11,5 3,2 5,4 7,7 12,21 23,42 34,63l0 0z"/>
  <path class="fil1" d="M537 730c2,3 4,5 4,8 -1,3 -2,7 -5,9 -3,3 -8,4 -12,4 -13,1 -26,0 -39,-1 -7,-2 -11,-5 -13,-9 -3,4 -7,7 -14,9 -16,-1 -32,-1 -48,-2 -5,-1 -9,-1 -14,-3 -4,-2 -7,-5 -11,-7 -3,-3 -6,-6 -8,-9 -12,-20 -23,-41 -34,-63 0,-1 0,-4 1,-5 1,-3 2,-4 4,-6 2,-1 5,-2 7,-2 19,-1 38,-1 56,0 4,0 10,2 14,3 3,1 4,3 7,5 3,-2 5,-5 8,-6 4,-2 9,-2 13,-2 11,0 22,0 33,2 4,0 7,3 10,5 3,2 6,4 7,7 12,21 23,42 34,63l0 0z"/>
  <path class="fil4 str1" d="M537 730c2,3 4,5 4,8 -1,3 -2,7 -5,9 -3,3 -8,4 -12,4 -13,1 -26,0 -39,-1 -7,-2 -11,-5 -13,-9 -3,4 -7,7 -14,9 -16,-1 -32,-1 -48,-2 -5,-1 -9,-1 -14,-3 -4,-2 -7,-5 -11,-7 -3,-3 -6,-6 -8,-9 -12,-20 -23,-41 -34,-63 0,-1 0,-4 1,-5 1,-3 2,-4 4,-6 2,-1 5,-2 7,-2 19,-1 38,-1 56,0 4,0 10,2 14,3 3,1 4,3 7,5 3,-2 5,-5 8,-6 4,-2 9,-2 13,-2 11,0 22,0 33,2 4,0 7,3 10,5 3,2 6,4 7,7 12,21 23,42 34,63l0 0z"/>
  <path class="fil0" d="M378 730c1,3 3,5 3,8 0,3 -1,7 -4,9 -4,3 -8,4 -13,4 -13,1 -26,0 -39,-1 -6,-2 -11,-5 -13,-9 -2,4 -7,7 -13,9 -16,-1 -32,-1 -48,-2 -5,-1 -10,-1 -14,-3 -4,-2 -8,-5 -11,-7 -3,-3 -6,-6 -9,-9 -12,-20 -22,-41 -33,-63 -1,-1 0,-4 1,-5 1,-3 2,-4 4,-6 2,-1 4,-2 7,-2 18,-1 37,-1 56,0 4,0 10,2 13,3 4,1 4,3 8,5 2,-2 5,-5 8,-6 4,-2 8,-2 13,-2 11,0 22,0 32,2 4,0 8,3 11,5 3,2 5,4 7,7 12,21 23,42 34,63l0 0z"/>
  <path class="fil4 str2" d="M378 730c1,3 3,5 3,8 0,3 -1,7 -4,9 -4,3 -8,4 -13,4 -13,1 -26,0 -39,-1 -6,-2 -11,-5 -13,-9 -2,4 -7,7 -13,9 -16,-1 -32,-1 -48,-2 -5,-1 -10,-1 -14,-3 -4,-2 -8,-5 -11,-7 -3,-3 -6,-6 -9,-9 -12,-20 -22,-41 -33,-63 -1,-1 0,-4 1,-5 1,-3 2,-4 4,-6 2,-1 4,-2 7,-2 18,-1 37,-1 56,0 4,0 10,2 13,3 4,1 4,3 8,5 2,-2 5,-5 8,-6 4,-2 8,-2 13,-2 11,0 22,0 32,2 4,0 8,3 11,5 3,2 5,4 7,7 12,21 23,42 34,63l0 0z"/>
  <path class="fil0" d="M855 729c-11,-21 -22,-42 -33,-63 0,-3 3,-6 7,-8 21,0 41,-1 61,-1 10,2 17,5 22,10 2,-4 6,-8 10,-11l59 0c8,3 17,9 22,17 2,4 3,8 4,13 0,4 -1,8 -1,12 -1,4 -2,7 -2,10 4,2 9,2 13,5 4,2 7,5 9,9 3,4 6,9 5,14 0,5 -4,8 -7,11 -4,2 -8,2 -13,3 -15,0 -30,0 -45,0 -6,-2 -10,-4 -12,-7 -5,4 -10,6 -14,7l-57 0c-8,-1 -14,-3 -17,-8 -2,-2 -4,-4 -6,-6 -2,-2 -3,-5 -5,-7l0 0z"/>
  <path class="fil4 str2" d="M855 729c-11,-21 -22,-42 -33,-63 0,-3 3,-6 7,-8 21,0 41,-1 61,-1 10,2 17,5 22,10 2,-4 6,-8 10,-11l59 0c8,3 17,9 22,17 2,4 3,8 4,13 0,4 -1,8 -1,12 -1,4 -2,7 -2,10 4,2 9,2 13,5 4,2 7,5 9,9 3,4 6,9 5,14 0,5 -4,8 -7,11 -4,2 -8,2 -13,3 -15,0 -30,0 -45,0 -6,-2 -10,-4 -12,-7 -5,4 -10,6 -14,7l-57 0c-8,-1 -14,-3 -17,-8 -2,-2 -4,-4 -6,-6 -2,-2 -3,-5 -5,-7l0 0z"/>
  <path class="fil4 str1" d="M94 662c2,3 5,6 8,9 3,3 7,5 11,7 4,3 8,5 13,7 4,2 8,4 13,6 3,1 7,2 11,3"/>
  <path class="fil4 str1" d="M135 739c-2,-3 -4,-7 -7,-9 -4,-4 -8,-7 -13,-10 -4,-3 -9,-5 -14,-8 -3,-1 -6,-3 -10,-4 -3,0 -6,0 -9,-1"/>
  <path class="fil4 str1" d="M30 700c4,0 8,0 11,0 3,1 6,2 8,4 1,2 1,5 2,8"/>
  <path class="fil4 str2" d="M272 660c10,7 17,16 28,22 3,1 9,5 11,1 3,-4 -2,-9 -3,-13"/>
  <path class="fil4 str1" d="M432 661c10,7 17,16 28,22 4,2 10,5 12,2 3,-4 -2,-9 -3,-14"/>
  <path class="fil4 str2" d="M593 662c10,7 18,16 29,21 3,2 9,5 11,2 3,-4 -2,-9 -3,-13"/>
  <path class="fil4 str1" d="M750 660c10,7 18,16 29,21 3,2 9,5 11,2 3,-4 -2,-9 -3,-13"/>
  <path class="fil4 str2" d="M912 667c11,7 16,9 26,15 4,2 10,5 12,2 3,-4 -2,-9 -3,-14"/>
  <path class="fil4 str2" d="M256 719c-3,-3 -7,-6 -9,-10 -1,-4 -3,-9 0,-12 2,-3 6,0 9,1 20,13 37,28 56,42"/>
  <path class="fil4 str1" d="M417 720c-3,-3 -7,-6 -9,-10 -1,-4 -3,-9 -1,-13 2,-2 7,0 10,2 19,12 35,28 54,41"/>
  <path class="fil4 str2" d="M576 720c-3,-3 -7,-6 -8,-10 -2,-4 -4,-10 -1,-13 2,-2 6,0 9,2 20,12 37,28 56,41"/>
  <path class="fil4 str1" d="M735 721c-3,-4 -7,-6 -9,-11 -1,-4 -3,-9 0,-12 1,-3 6,0 9,2 20,12 37,27 56,41"/>
  <path class="fil4 str2" d="M892 718c-2,-3 -6,-6 -8,-10 -2,-4 -3,-9 -1,-13 2,-2 7,0 9,2 20,12 43,32 62,45"/>
  <path class="fil4 str2" d="M1003 708c-3,0 -6,0 -9,-1 -3,-1 -7,-2 -9,-5 -1,-1 0,-4 0,-6"/>
  <path class="fil4 str1" d="M286 63c-2,-14 -1,-27 1,-41 5,4 15,7 20,10 5,3 7,7 12,10 4,0 6,-2 10,-1 9,3 12,5 15,13 6,5 14,9 23,14 5,3 9,9 14,13 5,4 10,7 14,11 4,3 10,8 13,11 5,1 6,2 10,3 16,4 26,12 25,29 3,6 1,12 -3,18 5,16 10,32 15,47 5,-3 10,-7 15,-10 5,-3 9,-5 13,-6 5,-1 10,1 15,1 4,-4 8,-7 12,-11 4,-3 9,-6 14,-9 5,-3 10,-5 16,-7 8,-3 17,-5 26,-8 4,-2 8,-4 13,-7 2,-1 6,-3 7,-5 3,-4 3,-9 3,-14 0,-3 -1,-7 -3,-8 -4,-2 -9,1 -13,0 -3,-1 -7,-4 -10,-6 -3,-1 -6,-2 -9,-2 -4,0 -6,3 -10,3 -2,0 -5,0 -7,-1 -2,-2 -4,-4 -6,-6 0,-1 0,-3 0,-5 -2,-2 -4,-3 -6,-5 -2,-1 -4,-3 -6,-5 -1,-2 -2,-5 -1,-8 1,-2 4,-2 6,-2 2,0 3,0 5,0 0,-2 0,-5 0,-8 0,-2 1,-5 2,-8 1,-3 3,-6 6,-8 3,-2 6,-6 10,-4 7,3 13,0 18,-1 6,-1 12,0 18,0 8,0 15,0 23,-1 1,-6 4,-11 9,-15 1,-6 1,-12 3,-18 0,-4 2,-7 5,-10 1,-2 5,-3 6,-2 2,6 0,13 0,19 2,-5 4,-11 8,-16 2,-2 7,-8 8,-5 4,8 0,17 1,26 4,-3 8,-3 13,0 2,-2 4,-6 7,-7 4,-1 6,-2 10,-2 2,0 6,1 8,0 1,0 3,-2 2,-4 -1,-2 -2,-2 -5,-3 2,-5 8,-6 11,-5 3,0 5,1 6,4 2,2 2,5 3,7 0,3 -1,5 -3,7 -1,2 -3,4 -5,5 -7,4 -18,5 -17,15 1,2 3,5 5,6 2,1 5,1 8,1 7,-1 13,-3 19,-3 3,1 5,3 6,5 0,2 -3,4 -4,5 -4,2 -10,1 -13,4 -2,2 -2,5 -3,7 6,-4 12,-6 20,-5 4,0 8,-1 13,-3 3,-2 5,-6 7,-9 1,2 3,4 4,6 1,2 2,5 1,8 -2,8 -8,11 -13,17 3,2 5,6 5,6 8,-3 12,-9 18,-13 2,4 3,8 4,13 27,-25 47,-52 61,-80 2,0 5,-2 5,0 9,16 6,32 -1,47 2,0 6,-2 8,-1 3,1 5,3 6,6 1,2 -1,5 -2,8 -3,10 -6,20 -9,30 23,-30 43,-61 58,-93 1,1 3,2 3,4 3,13 3,26 1,40 4,-3 8,-7 12,-8 2,0 3,4 3,6 1,23 -6,44 -18,64 4,0 7,-1 10,-1 2,0 4,1 6,1 1,2 1,4 1,6 -1,16 -6,32 -16,48 7,-1 13,-2 15,-1 -1,19 -12,36 -27,51 9,3 15,7 16,10 -10,18 -28,30 -48,40 8,6 12,12 14,19 -9,5 -19,10 -32,9 5,7 8,15 10,23 -10,6 -21,8 -35,6 5,8 8,16 9,24 -18,6 -34,4 -50,-7 1,4 4,8 4,12 0,4 -1,9 -3,12 -2,3 -6,5 -10,5 -5,0 -10,-2 -14,-4 -6,-4 -9,-9 -13,-13 -1,4 -1,8 -2,12 -1,3 -3,7 -6,10 -3,3 -7,5 -11,6 -4,0 -9,-1 -12,-3 -4,-3 -6,-7 -9,-10 -1,4 -1,8 -2,11 -2,4 -4,8 -7,10 -4,3 -8,5 -12,5 -4,0 -8,-3 -11,-4 -3,-1 -4,-4 -7,-5 0,3 -1,8 -2,12 -1,3 -4,6 -6,8 -3,2 -6,2 -9,3 -3,1 -6,4 -10,3 -3,0 -6,-4 -9,-7 -44,2 -88,2 -132,4 -1,-6 -2,-12 -3,-18 -2,-6 -3,-13 -6,-19 -2,-5 -4,-10 -7,-15 -1,-4 -6,-6 -6,-10 -1,-5 1,-11 0,-16 -4,-12 -11,-21 -16,-33 -2,-7 0,-16 -3,-22 -11,-12 -21,-22 -26,-32 -12,-8 -22,-17 -30,-27 -11,0 -22,0 -29,-8l-62 12c-4,8 -11,12 -23,14 -2,6 -4,12 -6,18 -10,3 -21,3 -32,2 0,-3 -1,-6 0,-8 2,-5 4,-9 7,-13 4,-4 8,-7 12,-10 3,-2 7,-1 10,-2 7,-5 12,-10 15,-15 28,-7 54,-11 78,-17 4,-1 9,-4 12,-4 4,0 10,2 13,3 4,2 6,4 10,6 2,2 2,5 4,7 4,4 8,8 13,11 7,4 14,8 21,12 -2,-9 -4,-17 -5,-26 -1,-8 0,-17 0,-25 0,-7 2,-13 2,-20 -1,-5 -1,-10 -4,-14 -7,-6 -11,-13 -15,-19 -9,-9 -20,-16 -30,-24 -6,-4 -12,-8 -18,-12 -3,-1 -6,-1 -8,-3 -3,-2 -3,-6 -6,-9 -3,-2 -8,-1 -11,-4 -2,-2 2,-6 0,-9 -1,-2 -5,-3 -7,-2 -2,1 -1,5 -4,7 -3,2 -7,2 -10,2 -5,0 -10,-2 -14,-3l0 0z"/>
  <path class="fil0" d="M532 99c2,1 5,1 8,1 3,-1 6,-2 9,-2 2,0 5,0 7,1 3,0 5,2 7,2 2,0 4,1 5,0 2,-1 4,-2 4,-4 0,-1 -1,-3 -2,-4 -2,-2 -3,-4 -5,-5 -2,-1 -5,-1 -8,-1 -3,0 -6,1 -8,1 -3,0 -6,0 -8,-1 -3,0 -5,-1 -7,-3 -2,-1 -4,-4 -6,-5 -2,-1 -5,-1 -7,0 -2,0 -4,2 -5,4 0,1 1,3 2,5 1,2 2,4 4,5 3,3 6,5 10,6l0 0z"/>
  <path class="fil4 str1" d="M629 23c0,3 0,6 1,9 0,3 2,5 4,7 0,2 2,3 3,5 2,3 1,7 -1,10"/>
  <path class="fil4 str1" d="M646 28c-1,6 1,7 2,10 2,3 4,5 5,7 2,3 2,6 3,9"/>
  <path class="fil4 str1" d="M606 49l11 0c3,0 7,0 9,-2l8 -8"/>
  <path class="fil4 str1" d="M531 65c3,-1 6,-2 9,-1 1,0 3,2 2,4 -1,2 -4,2 -6,3"/>
  <path class="fil4 str1" d="M726 84c-19,-12 -33,-5 -46,4 1,9 3,19 3,29 0,11 -1,23 -4,34 -5,13 -11,25 -18,36 -5,9 -12,18 -19,25 -5,5 -10,9 -16,13 -4,2 -9,3 -14,3 -3,1 -7,1 -10,0 -3,-2 -6,-3 -8,-6 -2,-3 -2,-7 -2,-10 1,-3 4,-6 6,-8 3,-2 7,-2 10,-1 3,0 5,2 8,3 2,2 4,4 6,6 2,-5 1,-14 -4,-19 -7,-6 -16,-7 -24,-6 -8,2 -17,9 -21,16 -1,4 -3,9 -3,13 0,4 1,9 3,12 1,5 4,9 7,12 7,5 20,7 28,7 -2,3 -2,4 -5,7 -2,2 -5,4 -8,5 -3,1 -7,3 -11,3 -3,0 -7,-1 -10,-2 -3,-1 -5,-4 -8,-4 -6,-3 -11,-4 -17,-2 -4,1 -8,5 -10,8 3,0 7,2 10,3 3,2 5,3 6,5 2,4 7,5 11,6 2,1 5,2 7,1 4,0 8,-2 11,-4 3,-1 5,-3 8,-4 -1,3 -3,6 -2,10 1,3 3,7 5,10 3,2 8,2 11,3 -2,-2 -3,-3 -4,-6 0,-2 1,-6 3,-8 2,-3 5,-5 9,-6 6,-2 13,-2 19,-4 5,-1 11,-3 15,-6 4,-3 8,-7 11,-11 6,-4 10,-11 12,-21 7,-4 10,-10 11,-19 5,0 9,-4 12,-12 6,0 10,-6 14,-14 6,0 14,-4 22,-15 7,-2 12,-5 12,-8 5,-2 10,-3 15,-6 9,-5 18,-11 27,-18 8,-7 15,-15 23,-22 4,-5 9,-11 13,-16"/>
  <path class="fil4 str1" d="M742 132c28,-21 53,-45 76,-76"/>
  <path class="fil4 str1" d="M416 225c9,3 17,7 25,10 6,1 12,3 17,3 5,-1 8,-4 12,-7"/>
  <path class="fil4 str1" d="M455 202c-10,9 -17,19 -21,29"/>
  <path class="fil4 str1" d="M498 184c-4,6 -6,12 -8,18"/>
  <path class="fil4 str1" d="M429 273c7,8 16,14 25,18 3,3 2,12 7,18"/>
  <path class="fil4 str1" d="M645 209c3,4 4,7 4,10 0,3 -1,7 -3,9 -1,4 -3,6 -6,9 -3,3 -6,5 -9,7 -4,1 -7,2 -10,3 -4,0 -8,0 -12,0"/>
  <path class="fil4 str1" d="M682 101c6,-3 12,-4 19,-3 4,1 8,2 11,4 5,3 9,6 13,9 4,3 7,6 10,10 3,4 6,7 7,11 2,3 3,7 3,10 0,6 0,10 -5,19 -2,-5 -3,-10 -6,-15 -3,-6 -8,-11 -12,-16 -4,-4 -8,-8 -12,-11 -4,-3 -8,-5 -12,-6 -5,-1 -10,-1 -14,-1"/>
  <path class="fil4 str1" d="M682 126c4,1 8,1 12,3 3,1 6,2 8,4 2,2 3,4 4,6 2,4 2,8 4,12 2,4 3,8 7,11 3,4 8,6 13,9"/>
  <path class="fil4 str1" d="M679 151c4,1 8,2 12,4 3,2 6,3 8,6 3,2 6,5 7,8 2,5 3,11 2,16"/>
  <path class="fil4 str1" d="M673 166c14,5 21,16 21,33"/>
  <path class="fil4 str1" d="M664 182c11,5 17,14 18,29"/>
  <path class="fil4 str1" d="M654 198c10,8 20,17 17,32"/>
  <path class="fil4 str1" d="M731 90c9,13 11,28 11,40"/>
  <path class="fil4 str1" d="M592 268c14,-8 26,-4 39,1"/>
  <path class="fil4 str1" d="M808 114c4,1 8,0 12,2 3,1 5,3 6,6 0,2 -1,5 -2,7 -2,3 -3,7 -6,10 -9,7 -20,14 -30,21"/>
  <path class="fil4 str1" d="M800 167c2,-1 4,-3 7,-3 2,1 4,2 5,3 1,2 1,4 1,6 0,2 0,4 -1,6 -2,3 -5,5 -9,7 -3,2 -8,3 -12,4 -4,2 -8,1 -13,3"/>
  <path class="fil4 str1" d="M883 49c-16,27 -34,53 -57,76"/>
  <path class="fil4 str1" d="M855 76c-8,14 -19,27 -31,41"/>
  <path class="fil4 str1" d="M847 121c-12,18 -27,31 -43,43"/>
  <path class="fil4 str1" d="M880 113c-16,27 -40,46 -66,64"/>
  <path class="fil4 str1" d="M766 150c12,7 8,15 -8,22"/>
  <path class="fil4 str1" d="M777 151c12,-1 13,11 1,18"/>
  <path class="fil4 str1" d="M794 162c4,14 -8,13 -14,12 4,7 -1,10 -8,11"/>
  <path class="fil4 str1" d="M746 182c16,-14 22,1 12,10 13,-5 15,5 4,16"/>
  <path class="fil4 str1" d="M732 199c15,-8 23,10 10,15"/>
  <path class="fil4 str1" d="M720 209c8,2 9,6 3,13 20,-6 23,12 8,17"/>
  <path class="fil4 str1" d="M708 217c7,2 4,16 -2,18"/>
  <path class="fil4 str1" d="M712 251c12,-4 20,11 5,21"/>
  <path class="fil4 str1" d="M686 238c13,-12 22,7 8,15"/>
  <path class="fil4 str1" d="M685 257c15,0 16,18 0,21 6,7 -1,15 -8,14"/>
  <path class="fil4 str1" d="M609 305c4,7 12,5 14,-3 6,7 13,4 12,-4 6,5 16,4 17,-4"/>
  <path class="fil4 str1" d="M618 328c-5,8 -11,10 -17,6 2,5 -3,12 -9,5 -5,-2 -3,8 -2,13 0,6 1,11 2,17 3,11 6,23 10,35"/>
  <path class="fil4 str1" d="M638 385c-6,-13 -11,-27 -15,-41 10,4 15,-4 15,-12 6,4 9,2 9,-6 7,5 13,5 16,-8"/>
  <path class="fil4 str1" d="M608 337c3,18 7,35 13,52"/>
  <path class="fil4 str1" d="M640 334c6,14 12,25 19,38"/>
  <path class="fil4 str1" d="M671 322c9,-2 15,-7 17,-17 8,16 18,32 29,48"/>
  <path class="fil4 str1" d="M693 301c12,2 15,-4 15,-14 14,7 23,-1 14,-11 11,5 15,3 11,-6 9,1 13,-5 8,-13 12,5 18,-2 11,-13 17,6 21,-11 11,-16 7,-3 9,-8 5,-16"/>
  <path class="fil4 str1" d="M775 205c15,-1 22,-6 22,-17"/>
  <path class="fil4 str1" d="M772 218c14,2 21,-3 20,-17"/>
  <path class="fil4 str1" d="M768 233c10,-2 19,-5 18,-15 40,-12 72,-29 95,-51"/>
  <path class="fil4 str1" d="M762 245c35,-2 71,-11 107,-27"/>
  <path class="fil4 str1" d="M755 250c21,14 48,19 82,17"/>
  <path class="fil4 str1" d="M743 265c21,14 47,23 76,30"/>
  <path class="fil4 str1" d="M726 283c17,17 42,30 69,41"/>
  <path class="fil4 str1" d="M707 289c12,20 27,38 47,53"/>
  <path class="fil4 str1" d="M547 278c0,9 8,13 13,7"/>
  <path class="fil4 str1" d="M568 282c2,7 16,5 15,-3"/>
  <path class="fil4 str1" d="M540 286c-2,10 6,13 12,8 -2,7 7,12 11,5"/>
  <path class="fil4 str1" d="M546 307c-2,8 9,14 14,6"/>
  <path class="fil4 str1" d="M570 311c0,6 4,7 10,3 -3,2 -6,4 -8,7 -1,1 -2,2 -2,3 0,2 -1,5 0,6 2,2 5,3 7,3 2,0 4,-1 5,-2 2,-1 2,-3 4,-5"/>
  <path class="fil4 str1" d="M627 315c2,8 16,3 14,-4"/>
  <path class="fil4 str1" d="M648 313c7,0 14,-7 10,-15"/>
  <path class="fil4 str1" d="M656 288c6,0 10,-8 5,-13"/>
  <path class="fil4 str1" d="M666 310c4,2 13,-4 9,-11"/>
  <path class="fil4 str1" d="M570 293c-4,8 4,14 11,4 -5,7 -3,14 5,11 1,9 11,11 15,5 1,9 16,12 15,0"/>
  <path class="fil4 str1" d="M592 292c-1,6 -3,11 -5,16"/>
  <path class="fil4 str1" d="M631 327c2,4 4,4 7,5"/>
  <path class="fil4 str1" d="M658 328c5,13 11,26 18,39"/>
  <path class="fil4 str1" d="M675 321c6,12 13,23 21,32"/>
  <path class="fil4 str1" d="M702 301c9,16 20,31 35,47"/>
  <path class="fil4 str1" d="M720 289c14,16 31,28 51,39"/>
  <path class="fil4 str1" d="M735 275c16,13 35,22 57,28"/>
  <path class="fil4 str1" d="M752 257c18,10 38,16 57,21"/>
  <path class="fil4 str1" d="M784 253c28,1 54,-7 79,-21"/>
  <path class="fil4 str1" d="M779 231c30,-3 56,-14 79,-31"/>
  <path class="fil4 str1" d="M792 204c26,-13 50,-29 70,-48"/>
  <path class="fil5" d="M611 411c4,1 7,-2 10,-3 3,-1 6,-1 9,-3 2,-2 5,-5 6,-8 1,-4 2,-9 2,-12 3,1 4,4 7,5 3,1 7,4 11,4 4,0 8,-2 12,-5 3,-2 5,-6 7,-10 1,-3 1,-7 2,-11 3,3 5,7 9,10 3,2 8,3 12,3 4,-1 8,-3 11,-6 3,-3 5,-6 6,-10 1,-4 1,-8 2,-12 4,4 7,9 13,13 4,2 9,4 14,4 4,0 8,-2 10,-5 2,-3 3,-8 3,-12 0,-4 -3,-8 -4,-12 16,11 32,13 50,7 -1,-8 -4,-16 -9,-24 14,2 25,0 35,-6 -2,-8 -5,-16 -10,-23 13,1 23,-4 32,-9 -2,-7 -6,-13 -14,-19 20,-10 38,-22 48,-40 -1,-3 -7,-7 -16,-10 15,-15 26,-32 27,-51 -2,-1 -8,0 -15,1 10,-16 15,-32 16,-48 0,-2 0,-4 -1,-6 -2,0 -4,-1 -6,-1 -3,0 -6,1 -10,1 12,-20 19,-41 18,-64 0,-2 -1,-6 -3,-6 -4,1 -8,5 -12,8 2,-14 2,-27 -1,-40 0,-2 -2,-3 -3,-4 -15,32 -35,63 -58,93 -5,5 -10,11 -14,16 -8,7 -15,15 -23,22 -9,7 -18,13 -27,18 -5,3 -10,4 -15,6 0,3 -5,6 -12,8 -8,11 -16,15 -22,15 -4,8 -8,14 -14,14 -3,8 -7,12 -12,12 -1,9 -4,15 -11,19 -2,10 -6,17 -12,21 -3,4 -7,8 -11,11 -4,3 -10,5 -15,6 -6,2 -13,2 -19,4 -4,1 -7,3 -9,6 -2,2 -3,6 -3,8 1,3 2,4 4,6 -3,-1 -8,-1 -11,-3 -2,-3 -4,-7 -5,-10 -1,-4 1,-7 2,-10 -3,1 -5,3 -8,4 -3,2 -7,4 -11,4 -2,1 -5,0 -7,-1 -4,-1 -8,-3 -11,-6 -5,9 -13,18 -15,28 -2,9 -1,19 3,27 4,10 12,19 21,25 6,4 20,-4 21,3l3 24 10 21 13 13 0 0z"/>
  <path class="fil4 str3" d="M611 411c4,1 7,-2 10,-3 3,-1 6,-1 9,-3 2,-2 5,-5 6,-8 1,-4 2,-9 2,-12 3,1 4,4 7,5 3,1 7,4 11,4 4,0 8,-2 12,-5 3,-2 5,-6 7,-10 1,-3 1,-7 2,-11 3,3 5,7 9,10 3,2 8,3 12,3 4,-1 8,-3 11,-6 3,-3 5,-6 6,-10 1,-4 1,-8 2,-12 4,4 7,9 13,13 4,2 9,4 14,4 4,0 8,-2 10,-5 2,-3 3,-8 3,-12 0,-4 -3,-8 -4,-12 16,11 32,13 50,7 -1,-8 -4,-16 -9,-24 14,2 25,0 35,-6 -2,-8 -5,-16 -10,-23 13,1 23,-4 32,-9 -2,-7 -6,-13 -14,-19 20,-10 38,-22 48,-40 -1,-3 -7,-7 -16,-10 15,-15 26,-32 27,-51 -2,-1 -8,0 -15,1 10,-16 15,-32 16,-48 0,-2 0,-4 -1,-6 -2,0 -4,-1 -6,-1 -3,0 -6,1 -10,1 12,-20 19,-41 18,-64 0,-2 -1,-6 -3,-6 -4,1 -8,5 -12,8 2,-14 2,-27 -1,-40 0,-2 -2,-3 -3,-4 -15,32 -35,63 -58,93 -5,5 -10,11 -14,16 -8,7 -15,15 -23,22 -9,7 -18,13 -27,18 -5,3 -10,4 -15,6 0,3 -5,6 -12,8 -8,11 -16,15 -22,15 -4,8 -8,14 -14,14 -3,8 -7,12 -12,12 -1,9 -4,15 -11,19 -2,10 -6,17 -12,21 -3,4 -7,8 -11,11 -4,3 -10,5 -15,6 -6,2 -13,2 -19,4 -4,1 -7,3 -9,6 -2,2 -3,6 -3,8 1,3 2,4 4,6 -3,-1 -8,-1 -11,-3 -2,-3 -4,-7 -5,-10 -1,-4 1,-7 2,-10 -3,1 -5,3 -8,4 -3,2 -7,4 -11,4 -2,1 -5,0 -7,-1 -4,-1 -8,-3 -11,-6 -5,9 -13,18 -15,28 -2,9 -1,19 3,27 4,10 12,19 21,25 6,4 20,-4 21,3l3 24 10 21 13 13 0 0z"/>
  <path class="fil4 str4" d="M808 114c4,1 8,0 12,2 3,1 5,3 6,6 0,2 -1,5 -2,7 -2,3 -3,7 -6,10 -9,7 -20,14 -30,21"/>
  <path class="fil4 str4" d="M800 167c2,-1 4,-3 7,-3 2,1 4,2 5,3 1,2 1,4 1,6 0,2 0,4 -1,6 -2,3 -5,5 -9,7 -3,2 -8,3 -12,4 -4,2 -8,1 -13,3"/>
  <path class="fil4 str4" d="M883 49c-16,27 -34,53 -57,76"/>
  <path class="fil4 str4" d="M855 76c-8,14 -19,27 -31,41"/>
  <path class="fil4 str4" d="M847 121c-12,18 -27,31 -43,43"/>
  <path class="fil4 str4" d="M880 113c-16,27 -40,46 -66,64"/>
  <path class="fil4 str4" d="M766 150c12,7 8,15 -8,22"/>
  <path class="fil4 str4" d="M777 151c12,-1 13,11 1,18"/>
  <path class="fil4 str4" d="M794 162c4,14 -8,13 -14,12 4,7 -1,10 -8,11"/>
  <path class="fil4 str4" d="M746 182c16,-14 22,1 12,10 13,-5 15,5 4,16"/>
  <path class="fil4 str4" d="M732 199c15,-8 23,10 10,15"/>
  <path class="fil4 str4" d="M720 209c8,2 9,6 3,13 20,-6 23,12 8,17"/>
  <path class="fil4 str4" d="M708 217c7,2 4,16 -2,18"/>
  <path class="fil4 str4" d="M712 251c12,-4 20,11 5,21"/>
  <path class="fil4 str4" d="M686 238c13,-12 22,7 8,15"/>
  <path class="fil4 str4" d="M685 257c15,0 16,18 0,21 6,7 -1,15 -8,14"/>
  <path class="fil4 str4" d="M609 305c4,7 12,5 14,-3 6,7 13,4 12,-4 6,5 16,4 17,-4"/>
  <path class="fil4 str4" d="M618 328c-5,8 -11,10 -17,6 2,5 -3,12 -9,5 -5,-2 -3,8 -2,13 4,19 9,38 18,50"/>
  <path class="fil4 str4" d="M638 385c-6,-13 -11,-27 -15,-41 10,4 15,-4 15,-12 6,4 9,2 9,-6 7,5 13,5 16,-8"/>
  <path class="fil4 str4" d="M608 337c3,18 7,35 13,52"/>
  <path class="fil4 str4" d="M640 334c6,14 12,25 19,38"/>
  <path class="fil4 str4" d="M671 322c9,-2 15,-7 17,-17 8,16 18,32 29,48"/>
  <path class="fil4 str4" d="M693 301c12,2 15,-4 15,-14 14,7 23,-1 14,-11 11,5 15,3 11,-6 9,1 13,-5 8,-13 12,5 18,-2 11,-13 17,6 21,-11 11,-16 7,-3 9,-8 5,-16"/>
  <path class="fil4 str4" d="M775 205c15,-1 22,-6 22,-17"/>
  <path class="fil4 str4" d="M772 218c14,2 21,-3 20,-17"/>
  <path class="fil4 str4" d="M768 233c10,-2 19,-5 18,-15 40,-12 72,-29 95,-51"/>
  <path class="fil4 str4" d="M762 245c35,-2 71,-11 107,-27"/>
  <path class="fil4 str4" d="M755 250c21,14 48,19 82,17"/>
  <path class="fil4 str4" d="M743 265c21,14 47,23 76,30"/>
  <path class="fil4 str4" d="M726 283c17,17 42,30 69,41"/>
  <path class="fil4 str4" d="M707 289c12,20 27,38 47,53"/>
  <path class="fil4 str4" d="M547 278c0,9 8,13 13,7"/>
  <path class="fil4 str4" d="M568 282c2,7 16,5 15,-3"/>
  <path class="fil4 str4" d="M540 286c-2,10 6,13 12,8 -2,7 7,12 11,5"/>
  <path class="fil4 str4" d="M546 307c-2,8 9,14 14,6"/>
  <path class="fil4 str4" d="M570 311c0,6 4,7 10,3 -3,2 -6,4 -8,7 -1,1 -2,2 -2,3 0,2 -1,5 0,6 2,2 5,3 7,3 2,0 4,-1 5,-2 2,-1 2,-3 4,-5"/>
  <path class="fil4 str4" d="M627 315c2,8 16,3 14,-4"/>
  <path class="fil4 str4" d="M648 313c7,0 14,-7 10,-15"/>
  <path class="fil4 str4" d="M656 288c6,0 10,-8 5,-13"/>
  <path class="fil4 str4" d="M666 310c4,2 13,-4 9,-11"/>
  <path class="fil4 str4" d="M570 293c-4,8 4,14 11,4 -5,7 -3,14 5,11 1,9 11,11 15,5 1,9 16,12 15,0"/>
  <path class="fil4 str4" d="M592 292c-1,6 -3,11 -5,16"/>
  <path class="fil4 str4" d="M631 327c2,4 4,4 7,5"/>
  <path class="fil4 str4" d="M658 328c5,13 11,26 18,39"/>
  <path class="fil4 str4" d="M675 321c6,12 13,23 21,32"/>
  <path class="fil4 str4" d="M702 301c9,16 20,31 35,47"/>
  <path class="fil4 str4" d="M720 289c14,16 31,28 51,39"/>
  <path class="fil4 str4" d="M735 275c16,13 35,22 57,28"/>
  <path class="fil4 str4" d="M752 257c18,10 38,16 57,21"/>
  <path class="fil4 str4" d="M784 253c28,1 54,-7 79,-21"/>
  <path class="fil4 str4" d="M779 231c30,-3 56,-14 79,-31"/>
  <path class="fil4 str4" d="M792 204c26,-13 50,-29 70,-48"/>
  <path class="fil4 str1" d="M754 90c-7,8 -10,11 -16,15"/>
  <path class="fil4 str1" d="M683 93c8,-4 16,-5 24,-4"/>
  <path class="fil4 str1" d="M684 106c8,-3 16,-3 23,1"/>
  <path class="fil4 str1" d="M683 119c8,0 15,2 21,5"/>
  <path class="fil4 str1" d="M682 138c8,1 14,4 18,8"/>
  <path class="fil4 str1" d="M677 158c6,2 12,6 16,12"/>
  <path class="fil4 str1" d="M670 174c7,2 11,6 13,11"/>
  <path class="fil4 str1" d="M662 190c4,4 8,9 9,14"/>
  <path class="fil4 str1" d="M655 208c8,16 3,31 -12,46"/>
  <line class="fil4 str1" x1="465" y1="298" x2="479" y2= "317" />
  <line class="fil4 str1" x1="474" y1="301" x2="486" y2= "313" />
  <line class="fil4 str1" x1="480" y1="299" x2="488" y2= "308" />
  <line class="fil4 str1" x1="486" y1="299" x2="497" y2= "305" />
  <line class="fil4 str1" x1="464" y1="319" x2="491" y2= "326" />
  <line class="fil4 str1" x1="469" y1="328" x2="492" y2= "331" />
  <line class="fil4 str1" x1="478" y1="334" x2="496" y2= "343" />
  <line class="fil4 str1" x1="470" y1="240" x2="489" y2= "230" />
  <line class="fil4 str1" x1="480" y1="241" x2="499" y2= "234" />
  <line class="fil4 str1" x1="488" y1="243" x2="506" y2= "239" />
  <polyline class="fil4 str1" points="488,249 503,245 514,247 "/>
  <polyline class="fil4 str1" points="497,254 509,253 516,257 "/>
  <path class="fil6" d="M634 79c-9,-1 -17,-1 -26,0 4,-5 5,-8 8,-11 2,-2 9,-2 11,-1 4,3 5,7 7,12z"/>
  <path class="fil4 str1" d="M634 79c-9,-1 -17,-1 -26,0 4,-5 5,-8 8,-11 2,-2 9,-2 11,-1 4,3 5,7 7,12z"/>
  <path class="fil7" d="M628 78c0,-2 1,-2 0,-3 0,-1 -1,-3 -2,-3 -2,-1 -4,-2 -5,-1 -2,0 -3,1 -4,2 -1,1 -1,3 -2,5l13 0z"/>
  <polyline class="fil4 str1" points="641,91 652,99 635,95 "/>
  <line class="fil4 str1" x1="630" y1="101" x2="644" y2= "108" />
  <line class="fil4 str1" x1="627" y1="106" x2="639" y2= "110" />
  <line class="fil4 str1" x1="621" y1="110" x2="635" y2= "116" />
  <line class="fil4 str1" x1="615" y1="112" x2="629" y2= "121" />
  <path class="fil4 str1" d="M583 140c4,5 7,8 7,13"/>
  <line class="fil4 str1" x1="636" y1="170" x2="650" y2= "165" />
  <line class="fil4 str1" x1="638" y1="178" x2="651" y2= "175" />
  <line class="fil4 str1" x1="639" y1="183" x2="652" y2= "179" />
  <line class="fil4 str1" x1="641" y1="188" x2="652" y2= "185" />
  <line class="fil4 str1" x1="632" y1="203" x2="650" y2= "192" />
  <path class="fil4 str5" d="M552 518c13,0 23,-11 23,-24 0,-13 -10,-24 -23,-24 -13,0 -24,11 -24,24 0,13 11,24 24,24z"/>
  <path class="fil8" d="M541 491c0,6 3,11 8,13 6,2 13,-1 15,-7 2,-5 0,-10 -3,-12 2,2 2,6 1,9 -2,5 -8,8 -13,7 -4,-2 -7,-6 -8,-10l0 0z"/>
  <path class="fil4 str0" d="M541 491c0,6 3,11 8,13 6,2 13,-1 15,-7 2,-5 0,-10 -3,-12 2,2 2,6 1,9 -2,5 -8,8 -13,7 -4,-2 -7,-6 -8,-10l0 0z"/>
  <path class="fil9" d="M243 258c-5,1 -6,4 -11,6l0 0c-3,0 -7,-2 -10,-3l0 0c-15,10 -23,23 -25,40l0 0c3,4 5,6 8,10l0 0c-1,4 -1,8 1,12l0 0c1,4 5,7 9,7l0 0c3,0 6,-1 9,-3l0 0c160,106 317,211 476,317l0 0c0,5 0,8 2,12l0 0c2,3 4,5 7,6l0 0c4,0 6,0 9,-2l0 0c2,-1 3,-3 5,-4l0 0c4,-2 7,-3 10,-5l0 0c4,-2 8,-2 11,-1l0 0c9,2 13,5 17,13l0 0c2,1 5,5 7,7l0 0c1,3 5,3 7,5l0 0c4,2 7,3 12,3l0 0c5,0 9,-1 14,-3l0 0c4,-2 9,-7 12,-11l0 0c4,-4 7,-9 8,-14l0 0c1,-4 2,-9 1,-13l0 0c-2,-5 -3,-9 -6,-13l0 0c-3,-5 -12,-8 -16,-9l0 0c-3,0 -6,0 -10,-1l0 0c-2,-1 -4,-2 -6,-3l0 0c-2,-3 -4,-5 -6,-8l0 0c-2,-5 -2,-13 -1,-18l0 0c2,-5 4,-9 1,-14l0 0c-1,-2 -3,-5 -6,-6l0 0c-3,-2 -7,-3 -11,-2l0 0c-3,1 -6,3 -9,5l0 0c-165,-100 -328,-197 -494,-297l0 0c1,-2 3,-3 0,-7l0 0c-3,-5 -6,-6 -10,-6l0 0c-1,0 -3,0 -5,0l0 0 0 0z"/>
  <path class="fil4 str1" d="M205 311c-3,-4 -5,-6 -8,-10 2,-17 10,-30 25,-40 3,1 7,2 10,3 5,-2 6,-5 11,-6 7,-1 11,-1 15,6 3,4 1,5 0,7 166,100 329,197 494,297 3,-2 6,-4 9,-5 4,-1 8,0 11,2 3,1 5,4 6,6 3,5 1,9 -1,14 -1,5 -1,13 1,18 2,3 4,5 6,8 2,1 4,2 6,3 4,1 7,1 10,1 4,1 13,4 16,9 3,4 4,8 6,13 1,4 0,9 -1,13 -1,5 -4,10 -8,14 -3,4 -8,9 -12,11 -5,2 -9,3 -14,3 -5,0 -8,-1 -12,-3 -2,-2 -6,-2 -7,-5 -2,-2 -5,-6 -7,-7 -4,-8 -8,-11 -17,-13 -4,-1 -7,-1 -11,1 -3,2 -6,3 -10,5 -2,1 -3,3 -5,4 -3,2 -5,2 -9,2 -3,-1 -5,-3 -7,-6 -2,-4 -2,-7 -2,-12 -159,-106 -316,-211 -476,-317 -3,2 -6,3 -9,3 -4,0 -8,-3 -9,-7 -2,-4 -2,-8 -1,-12l0 0z"/>
  <path class="fil4 str1" d="M224 327c-1,-26 12,-48 33,-56"/>
  <path class="fil4 str1" d="M205 311c2,-19 10,-34 28,-47"/>
  <path class="fil4 str1" d="M752 569c-27,22 -42,48 -52,76"/>
  <path class="fil4 str1" d="M778 579c-31,16 -47,46 -60,80"/>
  <path class="fil4 str1" d="M558 55c4,0 8,-2 12,-2 10,1 21,4 32,4 6,0 12,-2 18,-2"/>
  <path class="fil4 str1" d="M576 111c10,1 20,2 29,-1 5,-2 10,-3 14,-6 3,-1 5,-3 7,-5"/>
  <path class="fil4 str1" d="M585 109c4,-1 8,-1 12,-2 4,-1 7,-3 11,-4"/>
  <path class="fil4 str1" d="M536 81c3,2 5,4 8,4 4,1 8,-1 13,-1 3,0 6,0 9,1 2,1 4,2 6,3 1,1 1,3 2,4"/>
  <path class="fil4 str1" d="M529 79c2,2 4,5 6,7 3,2 7,2 10,2 4,0 8,-1 12,-1 3,0 6,0 8,1 1,1 3,2 4,3 1,2 2,3 3,5"/>
  <path class="fil4 str1" d="M680 88c-2,-9 -4,-18 -8,-26"/>
  <path class="fil4 str1" d="M615 84c7,-2 13,-2 20,-1"/>
  <path class="fil1" d="M262 619c-5,-1 -8,2 -9,7 -8,1 -12,5 -13,10 -8,1 -10,6 -12,11 -3,-2 -6,-3 -8,-5 -3,-3 -6,-6 -8,-10 -1,-4 -2,-8 -1,-11 0,-4 2,-8 5,-12 8,-8 15,-12 25,-9 4,2 8,4 11,7 4,4 7,8 10,12zm3 -42c10,12 11,22 13,32 -10,-7 -20,-15 -30,-22 2,-4 9,-7 17,-10zm12 -3c3,-1 4,-2 7,-1 3,1 6,3 7,5 2,3 3,6 3,9 0,4 -1,8 -3,11 -2,3 -4,3 -7,5 -1,-10 -3,-19 -7,-29l0 0zm-50 105c30,-18 59,-36 84,-58 4,1 5,3 9,3 4,0 8,-2 11,-5 3,-2 4,-7 5,-10 -6,3 -11,4 -17,1 -6,-8 -11,-16 -16,-23 -1,-5 -1,-9 -2,-13 -1,-3 -4,-4 -6,-6 -2,-2 -4,-4 -7,-6 -4,-1 -7,-2 -10,-2 -4,0 -9,0 -13,1 -8,3 -16,6 -23,10 -9,5 -18,11 -26,18 -6,5 -13,11 -17,18 -3,5 -4,12 -4,18 1,6 4,12 7,17 2,6 6,10 9,15 -1,2 -5,4 -4,6 2,6 6,12 11,17 3,1 6,-1 9,-1l0 0z"/>
  <path class="fil4 str1" d="M262 619c-5,-1 -8,2 -9,7 -8,1 -12,5 -13,10 -8,1 -10,6 -12,11 -3,-2 -6,-3 -8,-5 -3,-3 -6,-6 -8,-10 -1,-4 -2,-8 -1,-11 0,-4 2,-8 5,-12 8,-8 15,-12 25,-9 4,2 8,4 11,7 4,4 7,8 10,12zm3 -42c10,12 11,22 13,32 -10,-7 -20,-15 -30,-22 2,-4 9,-7 17,-10zm12 -3c3,-1 4,-2 7,-1 3,1 6,3 7,5 2,3 3,6 3,9 0,4 -1,8 -3,11 -2,3 -4,3 -7,5 -1,-10 -3,-19 -7,-29l0 0zm-50 105c30,-18 59,-36 84,-58 4,1 5,3 9,3 4,0 8,-2 11,-5 3,-2 4,-7 5,-10 -6,3 -11,4 -17,1 -6,-8 -11,-16 -16,-23 -1,-5 -1,-9 -2,-13 -1,-3 -4,-4 -6,-6 -2,-2 -4,-4 -7,-6 -4,-1 -7,-2 -10,-2 -4,0 -9,0 -13,1 -8,3 -16,6 -23,10 -9,5 -18,11 -26,18 -6,5 -13,11 -17,18 -3,5 -4,12 -4,18 1,6 4,12 7,17 2,6 6,10 9,15 -1,2 -5,4 -4,6 2,6 6,12 11,17 3,1 6,-1 9,-1l0 0z"/>
  <path class="fil4 str1" d="M263 619c3,3 7,6 10,10"/>
  <path class="fil4 str1" d="M253 626c3,5 6,9 9,13"/>
  <path class="fil4 str1" d="M240 636c3,4 6,7 9,11"/>
  <path class="fil4 str1" d="M228 647c3,3 7,6 10,10"/>
  <path class="fil1" d="M225 684l-5 3c-1,-1 -2,-2 -3,-3 -3,0 -5,2 -8,2 -3,0 -5,-1 -7,-2 -2,-1 -4,-4 -5,-6 0,-3 1,-5 2,-8 1,-2 2,-3 4,-5l-2 -4c1,-1 2,-2 3,-3 10,8 16,17 21,26l0 0z"/>
  <path class="fil4 str1" d="M225 684l-5 3c-1,-1 -2,-2 -3,-3 -3,0 -5,2 -8,2 -3,0 -5,-1 -7,-2 -2,-1 -4,-4 -5,-6 0,-3 1,-5 2,-8 1,-2 2,-3 4,-5l-2 -4c1,-1 2,-2 3,-3 10,8 16,17 21,26l0 0z"/>
  <path class="fil4 str1" d="M223 675c31,-18 59,-38 86,-60"/>
  <path class="fil1" d="M226 309l485 310 7 -12 -489 -307c-1,3 -3,6 -3,9l0 0z"/>
  <path class="fil6" d="M223 319l481 315c2,-4 3,-8 5,-12l-484 -312 -2 9 0 0z"/>
  <path class="fil10" d="M306 589c210,-147 396,-236 529,-224 -118,10 -294,96 -517,244l-12 -20 0 0z"/>
  <path class="fil4 str4" d="M306 589c210,-147 396,-236 529,-224 -118,10 -294,96 -517,244l-12 -20 0 0z"/>
  <path class="fil4 str4" d="M309 595c192,-133 379,-232 524,-228"/>
  <path class="fil6" d="M764 653c2,3 3,7 5,11 2,2 5,4 9,6 3,1 7,2 10,2 3,0 7,0 9,-2 4,-1 8,-3 10,-6 3,-3 6,-6 7,-10 4,-10 4,-10 1,-21 -1,4 -4,9 -6,12 -3,4 -5,9 -9,11 -5,3 -10,4 -16,4 -4,0 -8,-3 -12,-4 -3,-1 -5,-2 -8,-3l0 0z"/>
  <path class="fil1" d="M719 610c2,7 9,11 14,9 -1,4 -3,7 -5,11 -7,1 -14,-2 -15,-8 2,-4 4,-8 6,-12l0 0z"/>
  <path class="fil6" d="M712 624c-1,7 6,11 14,9 -1,4 -3,8 -5,12 -8,4 -14,1 -14,-8 1,-3 3,-9 5,-13l0 0z"/>
  <path class="fil6" d="M730 649c3,-3 14,-6 19,-1 2,-3 3,-8 4,-12 -2,-8 -9,-11 -16,-5 -1,4 -6,14 -7,18z"/>
  <path class="fil1" d="M226 300c-7,-1 -12,-3 -14,-8 -2,3 -3,6 -3,9 3,6 8,9 14,8 0,-3 2,-6 3,-9l0 0z"/>
  <path class="fil6" d="M223 311c-6,1 -12,-2 -15,-7 -1,3 -2,8 -2,12 5,7 10,7 16,4 0,-4 1,-6 1,-9l0 0z"/>
  <polygon class="fil1" points="204,285 208,290 206,295 202,290 "/>
  <path class="fil6" d="M201 292c2,1 3,3 5,4 0,2 -1,4 -1,6l-5 -5c0,-2 1,-3 1,-5z"/>
  <path class="fil4 str1" d="M249 226c1,2 5,5 10,7"/>
  <path class="fil4 str1" d="M269 211c2,4 6,7 13,9"/>
  <path class="fil4 str1" d="M230 250c8,1 16,0 25,-3"/>
  <path class="fil4 str1" d="M291 34c-2,10 -2,20 0,31"/>
  <path class="fil4 str1" d="M313 49c1,3 1,6 0,9"/>
  <path class="fil4 str1" d="M326 53c-2,2 -4,5 -4,8"/>
  <path class="fil4 str6" d="M4 1257c1,-146 2,-291 3,-436 132,1 262,2 394,1"/>
 </g>
</svg>
