<?xml version="1.0" encoding="UTF-8" standalone="no"?>  <!-- Created with Inkscape (http://www.inkscape.org/) -->  <svg  xmlns="http://www.w3.org/2000/svg"  version="1.0"  width="288"  height="316">  <path  d="M 144,316 L -4.4347571e-06,9.4343906e-06 L 288,-5.2206486e-07 L 144,316 z"  fill="#000" />  <path  d="M 144,281.64079 L 22.25,14.140798 L 265.75,14.14079 L 144,281.64079 z"  style="fill:#000;stroke:#fff;stroke-width:1.5" />  <path  d="M 144.56472,31.865717 L 144.56472,157.9667 M 108.57804,43.394067 L 108.57804,146.43835 M 180.55141,43.394067 L 180.55141,146.43835 M 179.56477,94.916207 L 109.56468,94.916207"  style="fill:none;stroke:#f90;stroke-width:9" />  <path  d="M 207.5,94.916207 C 207.5,129.9682 179.052,158.4162 144,158.4162 C 108.948,158.41621 80.5,129.9682 80.5,94.916207 C 80.5,59.864207 108.948,31.416207 144,31.416207 C 179.052,31.416207 207.5,59.864207 207.5,94.916207 z M 165.5,94.916207 C 165.5,106.78421 155.868,116.41621 144,116.41621 C 132.132,116.41621 122.5,106.78421 122.5,94.916207 C 122.5,83.048207 132.132,73.416207 144,73.416207 C 155.868,73.416207 165.5,83.048207 165.5,94.916207 z"  style="fill:none;stroke:#f90;stroke-width:6" />  </svg>
