<?xml version="1.0" encoding="UTF-8" standalone="no"?>  <svg xmlns="http://www.w3.org/2000/svg" width="346" height="346">  <circle cx="173" cy="173" r="173" fill="#3c341f"  />  <circle cx="173" cy="173" r="152" fill="none" stroke="#000" stroke-width="1"/>  <path  d="M 166.5,31.812499 C 91.627453,35.230243 31.625,97.275816 31.625,172.96875 C 31.625,248.66169 91.627454,310.76643 166.5,314.1875 L 166.5,286.1875 C 106.81384,282.83035 59.65625,233.51255 59.65625,172.96875 C 59.65625,112.42495 106.81385,63.165596 166.5,59.812499 L 166.5,31.812499 z M 183.5,32.031249 L 183.5,60.124999 L 183.5,285.875 L 183.5,313.96875 C 256.49907,308.56384 314.37502,247.30976 314.375,172.96875 C 314.37499,98.627745 256.49907,37.430992 183.5,32.031249 z M 211.5,66.312499 C 255.20492,82.028956 286.34375,123.76601 286.34375,172.96875 C 286.34377,222.17077 255.2039,263.95813 211.5,279.6875 L 211.5,66.312499 z"  fill="#dc251c" />  </svg>
