<?xml version="1.0" encoding="UTF-8" standalone="no"?>
<svg version="1.1" xmlns="http://www.w3.org/2000/svg" xmlns:xlink="http://www.w3.org/1999/xlink" xmlns:inkscape="http://www.inkscape.org/namespaces/inkscape" width="938.88" height="1090.56">
	<g id="dp_dp001" transform="matrix(1,0,0,1,61.5253,4.80667)">
		<path id="dp_path002" fill="#a60f38" fill-rule="evenodd" stroke="black" stroke-width="1.33333" d="M 874.165,-1.36533 C 874.165,92.3293 874.165,186.011 874.165,279.704 C 874.167,806.267 544.968,997.719 408.087,1082.25 C 271.227,997.719 -58.016,806.267 -58.0147,279.704 C -58.0147,186.011 -58.0147,92.3293 -58.0147,-1.36533 C 97.352,-1.36933 718.797,-1.36933 874.165,-1.36533 Z "/>
		<path id="dp_path003" fill="black" fill-rule="evenodd" stroke="black" stroke-width="0.133333" stroke-linejoin="round" d="M 472.327,178.328 C 477.163,122.588 454.267,95.5307 403.54,95.6973 C 379.164,95.6587 299.209,111.803 299.067,165.608 C 311.613,158.903 324.157,158.207 336.703,160.86 C 336.703,183.705 336.561,202.541 330.033,215.575 C 315.78,244.036 294.431,265.996 277.257,265.901 C 273.803,265.883 258.088,251.447 258.088,225.983 C 258.136,209.596 266.651,191.156 266.649,177.748 C 266.653,126.552 83.8267,46.2467 63.2067,41.204 C 27.968,41.2053 -1.05467,41.2053 -21.404,41.2053 C -21.404,61.264 -21.404,81.3267 -21.404,101.419 C -15.3413,117.437 -10.5827,131.539 -10.5973,141.712 C -10.5947,149.072 0.432,154.937 0.404,161.139 C 0.404,180.267 12.2013,179.853 12.2267,190.157 C 12.368,221.452 46.1827,259.492 51.8187,269.881 C 72.6533,308.289 101.839,304.816 101.764,314.325 C 101.819,328.136 125.76,326.977 125.748,332.368 C 125.744,334.148 125.684,343.172 127.916,343.64 C 139.565,346.449 151.145,349.425 161.125,356.128 C 175.545,365.681 211.899,489.576 211.8,528.337 C 211.835,535.893 224.113,539.248 224.123,547.256 C 224.123,553.661 219.792,575.352 210.359,595.12 C 201.389,613.915 180.709,628.751 147.739,628.772 C 135.46,628.727 123.183,625.1 110.904,625.116 C 83.3173,625.123 60.7893,634.777 45.6067,654.64 C 67.8507,647.691 91.3413,645.723 116.597,650.835 C 89.6533,658.384 69.3413,668.976 58.9373,684.107 C 64.8307,681.717 73.6867,679.584 83.1427,677.493 C 104.421,672.792 117.835,675.763 139.655,675.676 C 153.941,675.675 166.621,680.196 176.501,690.383 C 190.495,703.788 204.949,706.235 210.047,708.888 C 216.333,711.876 216.567,724.037 214.507,733.867 C 223.557,723.945 229.38,712.127 223.429,693.383 C 226.879,669.14 195.772,674.647 195.835,660.005 C 195.807,641.165 208.811,644.525 213.351,651.743 C 220.98,663.424 229.431,682.179 239.955,682.145 C 250.631,682.163 258.199,671.623 270.752,664.435 C 280.711,658.732 306.412,650.893 318.561,662.109 C 322.317,666.185 322.627,673.056 322.592,678.752 C 322.739,721.808 285.127,748.115 285.224,782.796 C 285.2,835.52 377.328,885.433 408.087,885.419 C 438.928,885.403 530.955,835.52 530.931,782.796 C 531.027,748.115 493.415,721.808 493.561,678.752 C 493.527,673.056 493.837,666.185 497.593,662.109 C 509.743,650.893 535.443,658.732 545.403,664.435 C 557.955,671.623 565.524,682.163 576.199,682.145 C 586.724,682.179 595.175,663.424 602.803,651.743 C 607.343,644.525 620.347,641.165 620.32,660.005 C 620.381,674.647 589.275,669.14 592.724,693.383 C 586.773,712.127 592.597,723.945 601.647,733.867 C 599.587,724.037 599.821,711.876 606.108,708.888 C 611.204,706.235 625.659,703.788 639.652,690.383 C 649.532,680.196 662.213,675.675 676.499,675.676 C 698.319,675.763 711.733,672.792 733.011,677.493 C 742.467,679.584 751.323,681.717 757.217,684.107 C 746.812,668.976 726.5,658.384 699.556,650.835 C 724.813,645.723 748.303,647.691 770.547,654.64 C 755.364,634.777 732.836,625.123 705.249,625.116 C 692.971,625.1 680.693,628.727 668.415,628.772 C 635.444,628.751 614.765,613.915 605.796,595.12 C 596.361,575.352 592.032,553.661 592.032,547.256 C 592.04,539.248 604.319,535.893 604.353,528.337 C 604.256,489.576 640.608,365.681 655.028,356.128 C 665.009,349.425 676.588,346.449 688.239,343.64 C 690.469,343.172 690.409,334.148 690.405,332.368 C 690.393,326.977 714.335,328.136 714.389,314.325 C 714.316,304.816 743.501,308.289 764.336,269.881 C 769.971,259.492 803.785,221.452 803.927,190.157 C 803.953,179.853 815.749,180.267 815.749,161.139 C 815.721,154.937 826.748,149.072 826.752,141.712 C 826.736,131.539 831.495,117.437 837.557,101.419 C 837.557,81.3267 837.557,61.264 837.557,41.2053 C 817.209,41.2053 788.185,41.2053 752.948,41.204 C 732.327,46.2467 549.501,126.552 549.504,177.748 C 549.503,191.156 558.017,209.596 558.065,225.983 C 558.065,251.447 542.351,265.883 538.897,265.901 C 506.959,265.82 468.035,238.479 472.327,178.328 Z "/>
		<path id="dp_path004" fill="#a60f38" fill-rule="evenodd" stroke="#a60f38" stroke-width="6.66667" d="M 582.461,325.479 C 582.461,359.691 582.461,350.601 582.461,384.813 C 582.461,513.008 459.293,690.295 408.08,721.16 C 356.875,690.295 233.691,515.013 233.691,384.813 C 233.691,350.601 233.691,359.691 233.691,325.479 C 291.82,325.476 524.329,325.476 582.461,325.479 Z "/>
		<path id="dp_path005" fill="black" fill-rule="evenodd" stroke="black" stroke-width="1.33333" stroke-linejoin="round" d="M 361.405,595.28 L 361.405,466.143 L 393.765,466.143 L 393.765,507.892 L 459.02,508.045 L 459.02,466.296 L 491.437,466.143 L 491.437,595.28 L 459.02,595.433 L 459.02,538.107 L 393.765,537.953 L 393.765,595.28 Z "/>
		<path id="dp_path006" fill="black" fill-rule="evenodd" stroke="black" stroke-width="1.33333" stroke-linejoin="round" d="M 292.416,419.421 L 292.416,461.052 L 326.251,461.052 C 350.992,461.052 352.739,448.047 352.739,438.627 C 352.739,429.663 344.327,419.421 337.657,419.421 Z M 292.416,371.569 L 292.416,399.997 L 316.623,399.997 C 341.613,399.997 341.195,392.076 341.195,387.232 C 341.195,381.94 339.427,371.569 315.517,371.569 Z M 268.749,351.865 L 320.857,351.865 C 334.976,351.865 366.371,358.896 366.371,387.476 C 366.371,393.653 366.105,394.803 364.82,402.257 C 372.237,404.197 385.236,418.868 385.236,439.343 C 385.236,452.196 379.452,468.169 371.613,475.139 C 363.792,482.109 352.648,485.601 338.201,485.601 L 268.749,485.601 Z "/>
		<path id="dp_path007" fill="none" fill-rule="evenodd" stroke="black" stroke-width="6.66667" d="M 837.555,41.2053 C 837.555,127.537 837.555,213.859 837.555,300.189 C 837.556,785.38 534.216,961.789 408.087,1039.67 C 281.976,961.789 -21.4053,785.38 -21.404,300.189 C -21.404,213.859 -21.404,127.537 -21.404,41.2053 C 121.76,41.2013 694.391,41.2013 837.555,41.2053 Z "/>
		<path id="dp_path008" fill="none" fill-rule="evenodd" stroke="black" stroke-width="6.66667" d="M 874.165,-1.36533 C 874.165,92.3293 874.165,186.011 874.165,279.704 C 874.167,806.267 544.968,997.719 408.087,1082.25 C 271.227,997.719 -58.016,806.267 -58.0147,279.704 C -58.0147,186.011 -58.0147,92.3293 -58.0147,-1.36533 C 97.352,-1.36933 718.797,-1.36933 874.165,-1.36533 Z "/>
	</g>
</svg>