<?xml version="1.0" encoding="UTF-8" standalone="no"?>
<!-- Created with Inkscape (http://www.inkscape.org/) -->

<svg
   xmlns:dc="http://purl.org/dc/elements/1.1/"
   xmlns:cc="http://creativecommons.org/ns#"
   xmlns:rdf="http://www.w3.org/1999/02/22-rdf-syntax-ns#"
   xmlns:svg="http://www.w3.org/2000/svg"
   xmlns="http://www.w3.org/2000/svg"
   xmlns:sodipodi="http://sodipodi.sourceforge.net/DTD/sodipodi-0.dtd"
   xmlns:inkscape="http://www.inkscape.org/namespaces/inkscape"
   width="1159.6033"
   height="1159.9089"
   id="svg2"
   version="1.1"
   inkscape:version="0.47pre4 r22446"
   sodipodi:docname="US_87th_Infantry_Division.svg">
  <defs
     id="defs4">
    <inkscape:perspective
       sodipodi:type="inkscape:persp3d"
       inkscape:vp_x="0 : 526.18109 : 1"
       inkscape:vp_y="0 : 1000 : 0"
       inkscape:vp_z="744.09448 : 526.18109 : 1"
       inkscape:persp3d-origin="372.04724 : 350.78739 : 1"
       id="perspective10" />
    <inkscape:perspective
       id="perspective2824"
       inkscape:persp3d-origin="0.5 : 0.33333333 : 1"
       inkscape:vp_z="1 : 0.5 : 1"
       inkscape:vp_y="0 : 1000 : 0"
       inkscape:vp_x="0 : 0.5 : 1"
       sodipodi:type="inkscape:persp3d" />
  </defs>
  <sodipodi:namedview
     id="base"
     pagecolor="#ffffff"
     bordercolor="#666666"
     borderopacity="1.0"
     inkscape:pageopacity="0.0"
     inkscape:pageshadow="2"
     inkscape:zoom="0.49497475"
     inkscape:cx="887.51291"
     inkscape:cy="492.38322"
     inkscape:document-units="px"
     inkscape:current-layer="layer1"
     showgrid="false"
     inkscape:window-width="1280"
     inkscape:window-height="970"
     inkscape:window-x="0"
     inkscape:window-y="0"
     inkscape:window-maximized="1" />
  <metadata
     id="metadata7">
    <rdf:RDF>
      <cc:Work
         rdf:about="">
        <dc:format>image/svg+xml</dc:format>
        <dc:type
           rdf:resource="http://purl.org/dc/dcmitype/StillImage" />
        <dc:title></dc:title>
      </cc:Work>
    </rdf:RDF>
  </metadata>
  <g
     inkscape:label="Layer 1"
     inkscape:groupmode="layer"
     id="layer1"
     transform="translate(543.50379,-9.8649487)">
    <path
       style="fill:#15610f;fill-opacity:1"
       d="m 18.86554,1169.5871 c -37.00462,-1.1681 -76.87548,-6.2924 -112.5,-14.4585 -60.73624,-13.9225 -129.51517,-42.7315 -182,-76.2333 -102.2982,-65.2983 -182.29806,-161.98934 -227.26618,-274.68298 -21.34466,-53.49138 -34.17988,-108.56961 -39.38312,-169 -1.61339,-18.73794 -1.6303,-72.36002 -0.0287,-91 7.75997,-90.31281 33.24919,-171.47334 77.88671,-248 44.91798,-77.00748 111.9994,-146.84302 187.29128,-194.98078 81.24933,-51.946639 169.92905,-81.78958 268,-90.188687 18.43785,-1.5790746 73.33625,-1.5680356 91,0.0183 61.92951,5.561725 115.55597,18.059222 169,39.384985 21.31827,8.506627 54.43487,24.497057 74,35.731079 80.38199,46.154213 149.9151,112.371713 199.9302,190.396623 33.8597,52.82215 63.0816,122.33126 76.9921,183.13848 9.8962,43.25946 14.3104,83.20157 14.3117,129.5 0,47.83763 -4.3848,87.02156 -14.801,132.22629 -8.8957,38.60611 -24.9318,83.31864 -43.6738,121.77371 -26.8114,55.01181 -51.4182,91.25977 -92.805,136.71035 -25.96603,28.51553 -58.90797,58.22933 -87.95208,79.33313 -29.48059,21.421 -53.7785,35.7377 -90.50212,53.3256 -57.74754,27.6566 -116.13458,44.9852 -177,52.5314 -27.67997,3.4318 -65.02935,5.2784 -90.5,4.4743 z"
       id="path3624" />
    <path
       style="fill:#3a32c7;fill-opacity:1"
       d="m 60.9355,1119.7163 c 30.8254,-1.622 46.718,-3.2765 68.43004,-7.124 86.47976,-15.3246 168.50675,-52.3332 237.21307,-107.0248 26.1143,-20.78746 64.85465,-59.52781 85.64213,-85.64211 36.9501,-46.41861 67.1474,-101.37404 86.1117,-156.71307 12.0915,-35.28385 20.7309,-72.48034 24.9684,-107.5 2.8309,-23.39452 4.5294,-65.81749 3.5374,-88.34976 -0.9896,-22.47669 -1.2816,-25.89615 -4.0689,-47.65024 -10.8213,-84.45534 -43.5591,-167.85801 -93.2252,-237.5 C 438.84872,239.17102 395.85378,195.49159 352.70217,163.51017 332.78128,148.74599 301.63016,128.98153 280.80901,117.89609 251.09573,102.07638 207.16936,85.4738 169.09039,75.670499 142.83546,68.911259 107.13879,62.673874 79.67755,60.047126 63.32979,58.483416 9.81367,58.49437 -7.10157,60.064886 -53.672,64.388785 -103.73324,75.555089 -146.2074,91.092842 c -39.02289,14.275228 -57.03614,22.913588 -91.81852,44.032148 -73.57935,44.67462 -135.07255,106.11426 -179.99024,179.8335 -20.97608,34.42609 -30.09662,53.40458 -44.25644,92.0911 -15.45596,42.22774 -26.65742,92.49858 -31.01586,139.19562 -1.60923,17.24154 -1.60093,69.44101 0.0138,86.93422 4.3505,47.13052 15.52712,96.80465 31.52643,140.11825 14.7567,39.94958 22.80198,56.61256 44.61994,92.41464 40.93659,67.17471 99.61948,127.69729 164.71132,169.87498 81.1851,52.6057 175.33537,81.9823 272.28248,84.9571 4.675,0.1434 9.43148,0.3524 10.56996,0.4644 1.13848,0.1119 14.86348,-0.4697 30.5,-1.2925 z"
       id="path3622" />
    <path
       style="fill:#15610f;fill-opacity:1"
       d="m 3.36554,1097.0843 c -79.98875,-5.1727 -160.65722,-30.6939 -230.5,-72.9235 -64.98801,-39.2943 -123.92328,-96.52349 -164.71673,-159.94848 -29.41448,-45.73316 -55.51094,-107.68404 -67.60972,-160.5 -8.38881,-36.62051 -12.57084,-76.69625 -12.62671,-121 -0.0667,-52.91342 10.72166,-111.6022 30.60668,-166.5 8.94559,-24.69665 25.40326,-60.61153 36.65927,-80 33.71106,-58.06728 82.18932,-112.58136 136.15867,-153.11121 31.54866,-23.69239 50.06235,-34.95123 85.02854,-51.7089 66.39347,-31.819311 143.60606,-50.112258 211.75036,-50.167194 69.76764,-0.05624 122.44356,8.955819 183.46823,31.388674 52.21471,19.19428 99.98888,45.96701 141.28141,79.17436 86.35562,69.44696 147.9769,164.64796 175.4331,271.03308 13.4381,52.06923 17.9933,94.70972 15.6385,146.39119 -2.7311,59.93771 -10.4157,99.43848 -29.7652,153 -17.778,49.21112 -47.5027,103.16563 -78.231,142 -18.79315,23.75077 -61.05091,66.01069 -85.0754,85.07975 -37.69261,29.91793 -92.48532,60.22663 -140.5,77.71803 -51.57339,18.7878 -90.12352,26.72 -144.5,29.7327 -27.88578,1.5451 -42.64193,1.6257 -62.5,0.3415 z"
       id="path3620" />
    <path
       style="fill:#ecdf23;fill-opacity:1"
       d="m 42.56867,959.00791 c 2.12786,-1.98591 5.46193,-9.33403 9.43558,-20.79559 4.57951,-13.2091 15.01605,-25.38309 28.57508,-33.33221 12.68922,-7.43917 24.25918,-11.61195 35.28621,-12.72618 5.225,-0.52797 14.225,-1.43466 20,-2.01488 12.17892,-1.22364 18.2508,-3.02665 30.00326,-8.90931 9.83191,-4.92133 26.82572,-16.97502 34.38969,-24.39257 6.19228,-6.0724 12.67218,-15.38952 16.6549,-23.94721 6.26632,-13.4645 5.95215,-5.69578 5.95215,-147.1819 l 0,-129.08406 10.75532,-10.95584 c 9.89646,-10.08097 16.20098,-17.8813 30.01043,-37.1307 7.68342,-10.71013 20.88487,-37.80539 25.25046,-51.82514 6.11779,-19.64685 7.49115,-29.16193 7.43325,-51.5 -0.0483,-18.61231 -0.19457,-20.04627 -3.21427,-31.5 -4.96863,-18.84599 -15.05088,-39.94638 -24.23001,-50.70916 -1.73986,-2.04003 -4.53628,-5.64003 -6.21428,-8 -7.24659,-10.19174 -28.35191,-28.28896 -46.2909,-39.69315 -10.01956,-6.36964 -46.3048,-24.61813 -53,-26.65464 -7.18635,-2.1859 -17.37875,-3.34411 -39.03095,-4.43529 -10.46703,-0.52749 -20.48902,-1.46736 -22.27111,-2.0886 -3.37829,-1.17768 -5.20965,-3.51172 -5.18127,-6.60342 0.0196,-2.13468 7.09588,-14.14758 11.68801,-19.84189 16.97063,-21.04383 18.29532,-22.95342 18.29532,-26.37331 0,-5.18684 -9.7493,-12.25799 -21.54271,-15.6249 -6.83711,-1.95193 -12.32165,-4.97488 -14.38727,-7.92993 -1.90105,-2.71962 -9.1932,-9.54571 -10.19745,-9.54571 -1.23558,0 -4.68935,3.94184 -9.10732,10.39434 -5.12473,7.48472 -23.91327,44.33582 -30.70006,60.21389 -4.95005,11.5809 -5.33636,12.15608 -8.87032,13.20691 -7.1287,2.11975 -22.00755,3.06709 -57.19487,3.64162 -36.03077,0.5883 -56.39375,2.12881 -65.5,4.95524 -6.78109,2.10474 -43.09539,20.38912 -53,26.68569 -17.93899,11.40419 -39.04431,29.50141 -46.2909,39.69315 -1.678,2.35997 -4.47442,5.95997 -6.21428,8 -9.17913,10.76278 -19.26138,31.86317 -24.23001,50.70916 -3.0197,11.45373 -3.16602,12.88769 -3.21427,31.5 -0.0579,22.33807 1.31546,31.85315 7.43325,51.5 4.36559,14.01975 17.56704,41.11501 25.25046,51.82514 13.80945,19.2494 20.11397,27.04973 30.01043,37.1307 l 10.75532,10.95584 0,129.08406 c 0,141.48612 -0.31417,133.7174 5.95215,147.1819 3.98272,8.55769 10.46262,17.87481 16.6549,23.94721 7.56397,7.41755 24.55778,19.47124 34.38969,24.39257 11.75246,5.88266 17.82434,7.68567 30.00326,8.90931 5.775,0.58022 14.775,1.48691 20,2.01488 16.10898,1.62774 37.45655,11.65744 48.92899,22.98825 6.35814,6.27965 12.50353,15.63697 14.56676,22.18017 2.35086,7.45537 7.51717,19.24609 9.30427,21.23453 3.67298,4.08677 8.8149,4.26651 12.90311,0.45103 z"
       id="path3616" />
  </g>
</svg>
