<?xml version="1.0" encoding="UTF-8" standalone="no"?> <!-- Created with Inkscape (http://www.inkscape.org/) --> <svg xmlns="http://www.w3.org/2000/svg" version="1.0" width="241" height="241"> <path d="M 120.51547,1.5 C 93.18461,1.5 71.00304,23.68157 71.00305,51.01242 C 71.00305,62.54608 74.96593,73.13576 81.58633,81.55539 C 73.16641,74.93408 62.54695,70.97211 51.01241,70.97211 C 23.68156,70.97211 1.5,93.15366 1.5,120.48453 C 1.5,147.81538 23.68156,169.99693 51.01241,170 C 62.54363,170 73.16757,166.06248 81.58633,159.44461 C 74.97055,167.86267 71.00305,178.45838 71.00305,190 C 71.00305,217.31843 93.1846,239.5 120.51547,239.5 C 147.84632,239.5 170.02787,217.31844 170,190 C 170,178.4617 166.05695,167.86151 159.4446,159.44461 C 167.86181,166.05785 178.46083,170 189.98757,170 C 217.31843,170 239.5,147.81537 239.5,120.48453 C 239.5,93.15367 217.31844,70.97211 189.98757,70.97211 C 178.45737,70.97211 167.86302,74.93857 159.4446,81.55539 C 166.06142,73.13697 170,62.54262 170,51.01242 C 170,23.68157 147.84631,1.5 120.51547,1.5 z" style="fill:#03f;stroke:#009;stroke-width:3" /> <path d="M 146.25,146.25 C 147.00379,157.97158 151.88025,168.71935 154.90625,179.90625 C 155.9779,183.33565 156.44705,186.9168 156.5,190.5 C 156.5,210.372 140.372,226.5 120.5,226.5 C 100.628,226.5 84.5,210.372 84.5,190.5 C 84.55295,186.9168 85.0221,183.33565 86.09375,179.90625 C 89.11975,168.71935 93.99621,157.97158 94.75,146.25 C 83.028416,147.00379 72.280653,151.88025 61.09375,154.90625 C 57.66435,155.9779 54.083203,156.44705 50.5,156.5 C 30.627999,156.5 14.5,140.372 14.5,120.5 C 14.5,100.628 30.627999,84.5 50.5,84.5 C 54.083203,84.55295 57.66435,85.0221 61.09375,86.09375 C 72.280653,89.11975 83.028416,93.99621 94.75,94.75 C 93.99621,83.028416 89.11975,72.280653 86.09375,61.09375 C 85.0221,57.66435 84.55295,54.083203 84.5,50.5 C 84.5,30.627999 100.628,14.5 120.5,14.5 C 140.372,14.5 156.5,30.627999 156.5,50.5 C 156.44705,54.083203 155.9779,57.66435 154.90625,61.09375 C 151.88025,72.280653 147.00379,83.028416 146.25,94.75 C 157.97158,93.99621 168.71935,89.11975 179.90625,86.09375 C 183.33565,85.0221 186.9168,84.55295 190.5,84.5 C 210.372,84.5 226.5,100.628 226.5,120.5 C 226.5,140.372 210.372,156.5 190.5,156.5 C 186.9168,156.44705 183.33565,155.9779 179.90625,154.90625 C 168.71935,151.88025 157.97158,147.00379 146.25,146.25 z" style="fill:none;stroke:#009;stroke-width:3" /></svg>
