<?xml version="1.0" encoding="UTF-8" standalone="no"?>  <svg xmlns="http://www.w3.org/2000/svg" width="200" height="200">  <circle cx="100" cy="100" r="93.5" fill="#fff" stroke="#bf2b37" stroke-width="13"/>  <circle cx="100" cy="100" r="72.5" fill="#03f" />  <path  d="M 101.009,20.532 C 101.009,20.532 98.991,20.532 98.991,20.532 C 69.2652,52.59037 58.991,101.60714 58.991,101.60714 C 45.72916,73.46093 31.491,69.28572 31.491,69.28572 L 26.26512,85.93416 C 26.26512,85.93416 49.44261,104.7603 46.40689,153.28044 L 64.16957,165.89286 C 64.16957,165.89286 70.65581,99.1887 100,49.48727 C 129.34419,99.1887 135.83043,165.89286 135.83043,165.89286 L 153.59311,153.28044 C 150.55739,104.7603 173.73488,85.93416 173.73488,85.93416 L 168.509,69.28572 C 168.509,69.28572 154.27084,73.46093 141.009,101.60714 C 141.009,101.60714 130.7348,52.59037 101.009,20.532 z"  fill="#fff" />  </svg>
