<?xml version="1.0" encoding="UTF-8" standalone="no"?>
<!-- Created with Inkscape (http://www.inkscape.org/) -->
<svg xmlns:dc="http://purl.org/dc/elements/1.1/" xmlns:cc="http://web.resource.org/cc/" xmlns:rdf="http://www.w3.org/1999/02/22-rdf-syntax-ns#" xmlns:svg="http://www.w3.org/2000/svg" xmlns="http://www.w3.org/2000/svg" xmlns:sodipodi="http://sodipodi.sourceforge.net/DTD/sodipodi-0.dtd" xmlns:inkscape="http://www.inkscape.org/namespaces/inkscape" id="svg2211" sodipodi:version="0.32" inkscape:version="0.45.1" width="900.47748" height="1233.2626" version="1.0" sodipodi:docbase="C:\Documents and Settings\steven.williamson\Desktop" sodipodi:docname="8th_Infantry_Division patch.svg" inkscape:output_extension="org.inkscape.output.svg.inkscape">
  <metadata id="metadata2216">
    <rdf:RDF>
      <cc:Work rdf:about="">
        <dc:format>image/svg+xml</dc:format>
        <dc:type rdf:resource="http://purl.org/dc/dcmitype/StillImage"/>
      </cc:Work>
    </rdf:RDF>
  </metadata>
  <defs id="defs2214"/>
  <sodipodi:namedview inkscape:window-height="968" inkscape:window-width="1280" inkscape:pageshadow="2" inkscape:pageopacity="0.0" guidetolerance="10.0" gridtolerance="10.0" objecttolerance="10.0" borderopacity="1.0" bordercolor="#666666" pagecolor="#ffffff" id="base" inkscape:zoom="0.4597561" inkscape:cx="150" inkscape:cy="604.86888" inkscape:window-x="-4" inkscape:window-y="-4" inkscape:current-layer="svg2211"/>
  <g id="g16806" transform="matrix(3, 0, 0, 3, 1.6313, 1.6313)">
    <path sodipodi:nodetypes="ccccccccc" id="path2220" d="M 0.54376658,30.450928 C 47.398322,10.331565 98.603009,-0.27188357 150.07958,-0.54376679 C 202.64368,-0.18125561 250.31388,10.512821 299.61538,29.907162 L 299.61539,220.49735 C 296.44341,263.90805 275.59903,295.62776 253.39523,327.07559 C 227.65694,363.59858 193.49028,387.88683 150.07958,410.54377 C 106.397,390.78692 70.870912,366.13616 43.501326,325.17241 C 19.303713,293.54332 2.1750662,260.28294 -0.54376658,219.6817 L 0.54376658,30.450928 z " style="opacity: 1; fill: rgb(43, 44, 124); fill-opacity: 1; fill-rule: evenodd; stroke: none; stroke-width: 1px; stroke-linecap: butt; stroke-linejoin: miter; stroke-opacity: 1;"/>
    <path id="path12909" d="M 149.34375,28.75 L 129.40625,65.96875 L 143.96875,65.875 L 143.96875,297.625 L 129.28125,312.5 L 129,312.5 L 129,367.8125 L 129.375,367.40625 L 129.40625,367.40625 L 149.4375,345.46875 L 169.90625,367.9375 L 169.875,367.9375 L 169.90625,367.96875 L 170.0625,367.96875 L 170.0625,312.5 L 169.75,312.5 L 154.96875,297.5625 L 154.96875,65.84375 L 169.625,65.75 L 149.34375,28.75 z " style="opacity: 1; fill: rgb(244, 194, 32); fill-opacity: 1; stroke: none; stroke-width: 4; stroke-linecap: butt; stroke-linejoin: round; stroke-miterlimit: 4; stroke-dasharray: none; stroke-opacity: 1;"/>
    <path id="path5132" d="M 149.25,70.15625 C 121.18512,70.15625 98.406252,93.035039 98.40625,121.25 C 98.40625,141.40503 110.03544,158.86373 126.90625,167.1875 C 102.01983,176.32835 84.281252,199.91602 84.28125,227.5625 C 84.28125,263.13136 113.64332,292.00001 149.8125,292 C 185.98168,292 215.34376,263.13136 215.34375,227.5625 C 215.34375,199.67204 197.29497,175.90077 172.0625,166.9375 C 188.67665,158.52268 200.09376,141.21572 200.09375,121.25 C 200.09375,93.035041 177.31489,70.156251 149.25,70.15625 z M 149.40625,79.375 C 169.44187,79.375002 185.6875,98.581216 185.6875,122.21875 C 185.6875,145.85628 169.44187,165.03125 149.40625,165.03125 C 139.58707,165.03125 130.69239,160.41898 124.15625,152.9375 C 123.9093,152.65483 123.64634,152.38453 123.40625,152.09375 C 123.11997,151.75274 122.8388,151.41463 122.5625,151.0625 C 122.53982,151.03316 122.52261,150.99816 122.5,150.96875 C 116.6602,143.48353 113.09375,133.53131 113.09375,122.625 C 113.09375,122.56184 113.09351,122.5006 113.09375,122.4375 C 113.09343,122.36378 113.09375,122.29256 113.09375,122.21875 C 113.09375,121.63601 113.13667,121.04585 113.15625,120.46875 C 113.93084,97.636854 129.86457,79.375 149.40625,79.375 z M 149,171.84375 C 150.72592,171.84375 152.41268,171.93762 154.09375,172.125 C 154.135,172.1296 154.17753,172.12029 154.21875,172.125 C 155.67555,172.29049 157.11424,172.54381 158.53125,172.84375 C 159.40967,173.02968 160.29483,173.23302 161.15625,173.46875 C 161.20691,173.48264 161.2619,173.48595 161.3125,173.5 C 161.51414,173.55593 161.70559,173.62888 161.90625,173.6875 C 162.57164,173.88187 163.22081,174.08908 163.875,174.3125 C 164.60075,174.56036 165.32007,174.81101 166.03125,175.09375 C 166.08368,175.11459 166.13515,175.13522 166.1875,175.15625 C 166.28354,175.19484 166.37299,175.24204 166.46875,175.28125 C 167.14594,175.55855 167.80579,175.84804 168.46875,176.15625 C 168.90749,176.36022 169.34901,176.56403 169.78125,176.78125 C 169.98107,176.88149 170.1766,176.99072 170.375,177.09375 C 170.59238,177.20681 170.81561,177.32112 171.03125,177.4375 C 171.63964,177.76585 172.24957,178.11439 172.84375,178.46875 C 173.50497,178.86309 174.16969,179.26183 174.8125,179.6875 C 175.13749,179.90271 175.46113,180.12071 175.78125,180.34375 C 176.18137,180.62244 176.57643,180.89681 176.96875,181.1875 C 177.20155,181.36 177.42626,181.54209 177.65625,181.71875 C 178.08232,182.04608 178.49004,182.37739 178.90625,182.71875 C 179.55896,183.25372 180.18491,183.80648 180.8125,184.375 C 181.37193,184.88178 181.9301,185.40497 182.46875,185.9375 C 183.17141,186.63218 183.86548,187.32569 184.53125,188.0625 C 184.7786,188.33597 185.00791,188.62715 185.25,188.90625 C 186.06604,189.84785 186.83962,190.80928 187.59375,191.8125 C 188.09828,192.48368 188.58694,193.17763 189.0625,193.875 C 189.46561,194.46613 189.86839,195.0783 190.25,195.6875 C 190.32194,195.80234 190.39758,195.91578 190.46875,196.03125 C 190.8189,196.59943 191.16896,197.16695 191.5,197.75 C 191.55747,197.85121 191.59936,197.96085 191.65625,198.0625 C 191.76112,198.2499 191.86588,198.43612 191.96875,198.625 C 192.3124,199.25601 192.64781,199.88419 192.96875,200.53125 C 193.30152,201.20216 193.6298,201.87506 193.9375,202.5625 C 193.98869,202.67688 194.04326,202.79142 194.09375,202.90625 C 194.30045,203.37628 194.49274,203.8664 194.6875,204.34375 C 194.70501,204.38669 194.73259,204.42575 194.75,204.46875 C 194.99516,205.07424 195.21198,205.69573 195.4375,206.3125 C 195.47951,206.42728 195.52118,206.54109 195.5625,206.65625 C 195.70362,207.04989 195.83576,207.44573 195.96875,207.84375 C 196.20812,208.55943 196.44358,209.27073 196.65625,210 C 196.69331,210.12726 196.74501,210.24734 196.78125,210.375 C 196.81931,210.50888 196.83785,210.64693 196.875,210.78125 C 197.07452,211.50261 197.26461,212.23518 197.4375,212.96875 C 197.59338,213.63015 197.74124,214.29795 197.875,214.96875 C 197.91839,215.18732 197.959,215.40547 198,215.625 C 198.04691,215.87494 198.0812,216.12384 198.125,216.375 C 198.23773,217.02413 198.34586,217.68675 198.4375,218.34375 C 198.56297,219.2396 198.6645,220.15297 198.75,221.0625 C 198.8146,221.7497 198.86497,222.43055 198.90625,223.125 C 198.9769,224.31354 199.03064,225.51086 199.03125,226.71875 C 199.03076,227.67545 199.01345,228.6178 198.96875,229.5625 C 198.84044,232.33768 198.49055,235.06711 198,237.71875 C 197.66736,239.51682 197.26987,241.27033 196.78125,243 C 196.77579,243.01922 196.78672,243.04329 196.78125,243.0625 C 190.44303,265.41085 171.43689,281.65625 149,281.65625 C 131.70851,281.65624 116.48787,271.99541 107.5,257.34375 C 104.82549,252.98387 102.67228,248.1876 101.21875,243.0625 C 101.21326,243.04315 101.22422,243.01936 101.21875,243 C 100.97304,242.13022 100.73805,241.26267 100.53125,240.375 C 100.33295,239.53058 100.16204,238.6721 100,237.8125 C 99.994028,237.7805 99.974672,237.75077 99.96875,237.71875 C 99.889181,237.29276 99.820495,236.86702 99.75,236.4375 C 99.673716,235.96754 99.596554,235.50526 99.53125,235.03125 C 99.408918,234.1542 99.302675,233.26516 99.21875,232.375 C 99.215914,232.34438 99.22154,232.31189 99.21875,232.28125 C 99.135216,231.38025 99.074465,230.47581 99.03125,229.5625 C 99.030289,229.54172 99.03219,229.52079 99.03125,229.5 C 98.988963,228.58627 98.9697,227.67495 98.96875,226.75 C 98.96875,226.73956 98.968745,226.72919 98.96875,226.71875 C 98.968745,226.70824 98.96875,226.69801 98.96875,226.6875 C 98.96875,225.81485 98.99443,224.95647 99.03125,224.09375 C 99.034408,224.02085 99.027834,223.94782 99.03125,223.875 C 99.059125,223.27268 99.110767,222.65956 99.15625,222.0625 C 99.173783,221.83454 99.167435,221.60216 99.1875,221.375 C 99.260586,220.54 99.36186,219.72993 99.46875,218.90625 C 99.686308,217.2298 99.959794,215.56169 100.3125,213.9375 C 100.32433,213.88316 100.36303,213.83552 100.375,213.78125 C 100.52285,213.10952 100.67356,212.44311 100.84375,211.78125 C 100.89812,211.5704 100.97465,211.36606 101.03125,211.15625 C 101.23008,210.41731 101.43011,209.69438 101.65625,208.96875 C 101.88569,208.23254 102.11813,207.50301 102.375,206.78125 C 102.42718,206.63469 102.47796,206.4897 102.53125,206.34375 C 102.71525,205.83957 102.92786,205.34043 103.125,204.84375 C 103.26167,204.49971 103.38838,204.15283 103.53125,203.8125 C 103.77852,203.22296 104.04691,202.64058 104.3125,202.0625 C 104.65603,201.31478 105.00162,200.57143 105.375,199.84375 C 105.65133,199.30509 105.92652,198.77721 106.21875,198.25 C 106.31929,198.06863 106.42885,197.89873 106.53125,197.71875 C 107.33236,196.31065 108.18292,194.94395 109.09375,193.625 C 109.51782,193.0103 109.95951,192.40662 110.40625,191.8125 C 110.42001,191.79422 110.42372,191.76826 110.4375,191.75 C 110.51838,191.64272 110.60589,191.5441 110.6875,191.4375 C 111.1026,190.89587 111.53519,190.36724 111.96875,189.84375 C 111.97374,189.83772 111.96376,189.81853 111.96875,189.8125 C 112.47395,189.20307 113.00181,188.61518 113.53125,188.03125 C 113.56662,187.99219 113.58952,187.9452 113.625,187.90625 C 113.98737,187.50893 114.37672,187.13505 114.75,186.75 C 114.92069,186.57392 115.07707,186.39222 115.25,186.21875 C 115.4848,185.98317 115.72988,185.76195 115.96875,185.53125 C 116.31473,185.19697 116.6769,184.8551 117.03125,184.53125 C 117.54353,184.06363 118.06448,183.60154 118.59375,183.15625 C 119.18858,182.6558 119.79078,182.15884 120.40625,181.6875 C 120.94747,181.27302 121.50595,180.89129 122.0625,180.5 C 122.24504,180.37163 122.4096,180.21957 122.59375,180.09375 C 122.89307,179.8893 123.19651,179.69766 123.5,179.5 C 123.98196,179.18597 124.47654,178.89032 124.96875,178.59375 C 125.1051,178.51164 125.23788,178.4245 125.375,178.34375 C 125.87956,178.04642 126.39152,177.74741 126.90625,177.46875 C 127.16426,177.32919 127.42701,177.1973 127.6875,177.0625 C 128.13024,176.83314 128.58151,176.62164 129.03125,176.40625 C 129.404,176.22792 129.77884,176.04358 130.15625,175.875 C 130.29329,175.81376 130.42486,175.74744 130.5625,175.6875 C 131.19971,175.41004 131.85027,175.15547 132.5,174.90625 C 133.23486,174.62437 133.96872,174.36982 134.71875,174.125 C 135.31216,173.93114 135.8976,173.73258 136.5,173.5625 C 136.5731,173.54186 136.64552,173.52028 136.71875,173.5 C 137.0803,173.39986 137.44788,173.31019 137.8125,173.21875 C 138.28159,173.10116 138.74475,172.978 139.21875,172.875 C 139.93168,172.71988 140.65154,172.5902 141.375,172.46875 C 141.42717,172.46 141.47903,172.44607 141.53125,172.4375 C 142.30804,172.30989 143.08698,172.21289 143.875,172.125 C 143.9368,172.11811 144.00063,172.13164 144.0625,172.125 C 145.6835,171.95099 147.33753,171.84375 149,171.84375 z " style="opacity: 1; fill: rgb(255, 255, 255); fill-opacity: 1; stroke: none; stroke-width: 4; stroke-linecap: butt; stroke-linejoin: round; stroke-miterlimit: 4; stroke-dasharray: none; stroke-opacity: 1;"/>
    <path id="path13890" d="M 151.09375,12.375 C 104.41224,12.62841 57.994045,22.527144 15.5,41.28125 L 14.46875,41.75 L 14.46875,42.875 L 13.46875,218.34375 L 13.46875,218.40625 L 13.46875,218.46875 C 15.9466,256.49982 31.58239,287.66366 53.5,317.125 C 53.517491,317.14851 53.545001,317.16399 53.5625,317.1875 C 78.450503,355.43763 110.81579,378.51702 150.375,396.90625 L 151.15625,397.28125 L 151.9375,396.875 C 191.22354,375.80092 222.357,353.06944 245.78125,318.90625 C 265.83449,289.71493 284.88541,259.95206 287.78125,219.21875 L 287.78125,219.15625 L 287.78125,219.09375 L 287.78125,42.375 L 287.78125,41.1875 L 286.6875,40.75 C 242.05277,22.703477 198.78339,12.712814 151.125,12.375 L 151.09375,12.375 z M 151.125,15.875 C 197.92253,16.206712 240.34883,25.952541 284.28125,43.59375 L 284.28125,218.96875 L 284.28125,219.09375 C 281.4233,258.80027 262.86383,287.83995 242.875,316.9375 C 220.01635,350.27578 189.72068,372.5249 151.0625,393.34375 C 112.19609,375.17003 80.761406,352.63591 56.4375,315.21875 L 56.40625,315.15625 L 56.375,315.125 C 34.683777,285.98401 19.420852,255.51989 16.96875,218.34375 L 16.96875,218.21875 L 17.96875,44.03125 C 59.730481,25.773972 105.31013,16.123705 151.125,15.875 z " style="opacity: 1; fill: rgb(0, 0, 0); fill-opacity: 1; fill-rule: evenodd; stroke: none; stroke-width: 3.5; stroke-linecap: butt; stroke-linejoin: miter; stroke-miterlimit: 4; stroke-dasharray: none; stroke-opacity: 1;"/>
  </g>
</svg>