<?xml version="1.0" encoding="UTF-8" standalone="no"?>
<!-- Created with Inkscape (http://www.inkscape.org/) -->
<svg
   xmlns:dc="http://purl.org/dc/elements/1.1/"
   xmlns:cc="http://web.resource.org/cc/"
   xmlns:rdf="http://www.w3.org/1999/02/22-rdf-syntax-ns#"
   xmlns:svg="http://www.w3.org/2000/svg"
   xmlns="http://www.w3.org/2000/svg"
   xmlns:sodipodi="http://sodipodi.sourceforge.net/DTD/sodipodi-0.dtd"
   xmlns:inkscape="http://www.inkscape.org/namespaces/inkscape"
   id="svg2"
   sodipodi:version="0.32"
   inkscape:version="0.45.1"
   width="210"
   height="211"
   version="1.0"
   sodipodi:docbase="C:\Wiki Uploads\To Upload"
   sodipodi:docname="90th_Infantry_Division.patch.svg"
   inkscape:output_extension="org.inkscape.output.svg.inkscape">
  <metadata
     id="metadata7">
    <rdf:RDF>
      <cc:Work
         rdf:about="">
        <dc:format>image/svg+xml</dc:format>
        <dc:type
           rdf:resource="http://purl.org/dc/dcmitype/StillImage" />
      </cc:Work>
    </rdf:RDF>
  </metadata>
  <defs
     id="defs5" />
  <sodipodi:namedview
     inkscape:window-height="808"
     inkscape:window-width="1152"
     inkscape:pageshadow="2"
     inkscape:pageopacity="0.0"
     guidetolerance="10.0"
     gridtolerance="10.0"
     objecttolerance="10.0"
     borderopacity="1.0"
     bordercolor="#666666"
     pagecolor="#ffffff"
     id="base"
     inkscape:zoom="2.9004739"
     inkscape:cx="105"
     inkscape:cy="105.5"
     inkscape:window-x="-4"
     inkscape:window-y="-4"
     inkscape:current-layer="svg2" />
  <rect
     style="fill:#013300;fill-rule:evenodd;stroke:none;stroke-width:1px;stroke-linecap:butt;stroke-linejoin:miter;stroke-opacity:1;fill-opacity:1"
     id="rect3173"
     width="210"
     height="211"
     x="0"
     y="0" />
  <path
     id="path2192"
     style="color:#000000;fill:#b11a07;fill-opacity:1;fill-rule:evenodd;stroke:none;stroke-width:1px;stroke-linecap:butt;stroke-linejoin:miter;stroke-miterlimit:4;stroke-dashoffset:0;stroke-opacity:1;marker:none;marker-start:none;marker-mid:none;marker-end:none;visibility:visible;display:inline;overflow:visible;enable-background:accumulate"
     d="M 10.343137,10.687908 L 199.27778,10.687908 L 199.27778,40.683007 L 121.01471,40.683007 L 121.01471,81.021242 C 152.35773,81.366013 197.55393,83.229295 197.55393,139.63235 C 197.55393,198.4347 152.03225,197.89869 118.94608,197.89869 L 88.606209,198.24346 C 61.274241,199.36068 9.998366,198.84763 9.998366,142.04575 C 9.998366,80.849627 59.934207,80.676471 88.95098,80.676471 L 88.95098,41.027778 L 9.998366,41.027778 L 10.343137,10.687908 z M 88.95098,112.05065 C 62.729436,112.05065 40.683007,112.11804 40.683007,139.28758 C 40.683007,167.11698 63.240627,167.55882 88.95098,167.55882 L 88.95098,112.05065 z M 121.35948,112.05065 C 145.3297,112.05065 166.86928,111.76038 166.86928,137.9085 C 166.86928,167.79857 146.2471,167.55882 121.70425,167.55882 L 121.35948,112.05065 z " />
</svg>
