<?xml version="1.0" encoding="UTF-8" standalone="no"?>
<!-- Created with Inkscape (http://www.inkscape.org/) -->

<svg
   xmlns:dc="http://purl.org/dc/elements/1.1/"
   xmlns:cc="http://creativecommons.org/ns#"
   xmlns:rdf="http://www.w3.org/1999/02/22-rdf-syntax-ns#"
   xmlns:svg="http://www.w3.org/2000/svg"
   xmlns="http://www.w3.org/2000/svg"
   xmlns:sodipodi="http://sodipodi.sourceforge.net/DTD/sodipodi-0.dtd"
   xmlns:inkscape="http://www.inkscape.org/namespaces/inkscape"
   id="svg2"
   version="1.1"
   inkscape:version="0.47pre4 r22446"
   width="879.31122"
   height="1152.4478"
   sodipodi:docname="US_91st_Infantry_Division.png">
  <metadata
     id="metadata8">
    <rdf:RDF>
      <cc:Work
         rdf:about="">
        <dc:format>image/svg+xml</dc:format>
        <dc:type
           rdf:resource="http://purl.org/dc/dcmitype/StillImage" />
        <dc:title></dc:title>
      </cc:Work>
    </rdf:RDF>
  </metadata>
  <defs
     id="defs6">
    <inkscape:perspective
       sodipodi:type="inkscape:persp3d"
       inkscape:vp_x="0 : 0.5 : 1"
       inkscape:vp_y="0 : 1000 : 0"
       inkscape:vp_z="1 : 0.5 : 1"
       inkscape:persp3d-origin="0.5 : 0.33333333 : 1"
       id="perspective10" />
  </defs>
  <sodipodi:namedview
     pagecolor="#ffffff"
     bordercolor="#666666"
     borderopacity="1"
     objecttolerance="10"
     gridtolerance="10"
     guidetolerance="10"
     inkscape:pageopacity="0"
     inkscape:pageshadow="2"
     inkscape:window-width="1280"
     inkscape:window-height="970"
     id="namedview4"
     showgrid="false"
     inkscape:zoom="0.64"
     inkscape:cx="548.25754"
     inkscape:cy="638.80766"
     inkscape:window-x="0"
     inkscape:window-y="0"
     inkscape:window-maximized="1"
     inkscape:current-layer="svg2" />
  <path
     style="fill:#86490d;fill-opacity:1;stroke:#000000;stroke-width:30;stroke-linecap:butt;stroke-linejoin:miter;stroke-miterlimit:4;stroke-opacity:1;stroke-dasharray:none"
     d="m 15.84605,15 845.73077,0 2.7344,394.51053 C 837.37609,754.82719 671.38658,954.99355 441.5704,1137.4478 164.42336,921.25149 48.90809,718.07682 15,416.01449 L 15.84605,15 z"
     id="path2818"
     sodipodi:nodetypes="cccccc" />
  <path
     style="fill:#007d00;fill-opacity:1"
     d="m 428.25512,830.75607 c -0.38318,-0.38319 -0.6967,-30.75587 -0.6967,-67.49485 0,-77.30739 1.54624,-68.86852 -12.61865,-68.86852 -12.26919,0 -20.03426,2.29741 -22.62896,6.6951 -3.13522,5.3138 -8.07791,6.86648 -12.34468,3.87792 -1.12052,-0.78484 -4.93315,-2.3961 -8.47251,-3.58058 -3.53936,-1.18448 -11.3852,-4.30752 -17.4352,-6.94009 -6.05,-2.63258 -13.7,-5.8065 -17,-7.05318 -3.3,-1.24667 -6.98376,-2.71714 -8.18613,-3.26772 -2.91686,-1.33565 -9.0452,0.2486 -22.31387,5.76842 -18.03452,7.50242 -33.79353,11.21408 -43.40229,10.22237 -9.48069,-0.97849 -22.55726,-6.38259 -29.82656,-12.3263 -1.50087,-1.22718 -5.73941,-3.65365 -9.41897,-5.39216 -9.79457,-4.62771 -12.85858,-4.11082 -50.35218,8.49433 -4.87685,1.63957 -9.69462,2.51804 -13.77475,2.51168 -5.91478,-0.009 -6.33625,-0.16755 -7.34672,-2.75979 -1.67087,-4.2864 2.57435,-11.20469 14.70594,-23.96578 11.69511,-12.30196 17.69377,-20.35292 22.91586,-30.75601 3.01189,-6.00006 3.49967,-7.95694 3.49967,-14.0399 0,-3.88746 -0.67431,-9.65695 -1.49846,-12.82108 -1.40137,-5.38024 -1.37491,-5.99313 0.40842,-9.46009 2.01092,-3.90941 5.41364,-7.39153 10.90869,-11.16323 7.75037,-5.31972 31.18135,-38.11812 31.18135,-43.64727 0,-1.17986 0.71451,-4.11426 1.58779,-6.52091 1.04027,-2.86683 1.8332,-9.89307 2.29945,-20.37573 0.62256,-13.9969 1.00424,-16.56057 3.04867,-20.47764 5.30772,-10.16944 15.50445,-23.78621 20.39985,-27.24207 3.03347,-2.14145 5.31191,-4.05252 12.38927,-10.39166 1.77376,-1.58875 4.81126,-5.56216 6.75,-8.8298 4.23718,-7.14158 4.59482,-12.72346 1.52497,-23.80139 -2.56619,-9.26042 -2.60173,-17.66499 -0.0953,-22.54728 1.04756,-2.04059 5.25038,-7.31016 9.33959,-11.71016 7.754,-8.34333 17.61238,-22.25549 22.14423,-31.25 1.45486,-2.8875 3.05272,-5.25 3.5508,-5.25 0.49808,0 1.4474,-1.6875 2.10959,-3.75 0.66218,-2.0625 1.81646,-4.45422 2.56505,-5.31493 1.42981,-1.64397 1.67064,-2.31476 5.72096,-15.93507 2.59614,-8.73023 3.63692,-13.39564 6.20328,-27.80696 2.44758,-13.74429 5.0826,-17.46913 19.58956,-27.69169 4.19524,-2.95625 8.563,-6.56402 9.70613,-8.01726 2.04262,-2.59681 7.16611,-17.22272 7.16611,-20.45703 0,-0.90771 0.8582,-4.99764 1.90711,-9.08872 1.04891,-4.09109 2.44004,-10.81334 3.09139,-14.93834 0.7988,-5.05873 2.72695,-10.75502 5.92361,-17.5 4.40918,-9.30341 5.68694,-10.97129 18.34297,-23.94346 8.86258,-9.08397 14.5392,-15.79255 16.28804,-19.24907 1.47641,-2.91808 4.4126,-12.48251 6.52486,-21.25429 5.62254,-23.34922 10.6751,-32.05318 18.60654,-32.05318 4.98734,0 8.671,2.31156 12.21852,7.66733 4.7103,7.11126 5.67456,11.25648 4.12299,17.72416 -1.60158,6.67614 -0.9376,16.46879 1.22382,18.04925 0.85824,0.62757 2.04762,2.92263 2.64305,5.10014 1.74263,6.37287 4.4293,9.79001 10.60493,13.48829 3.18771,1.90896 7.64225,5.04583 9.899,6.97083 4.7664,4.06573 6.79822,5.38568 11.60317,7.53783 7.2447,3.24492 15,14.52209 15,21.81185 0,1.09637 -1.19479,4.95371 -2.65509,8.57186 -3.46218,8.57814 -4.53575,24.985 -1.97126,30.12565 0.89449,1.79305 1.62635,4.10591 1.62635,5.13969 0,4.46109 5.36297,11.96204 16.39965,22.9375 12.35096,12.28244 16.05965,18.23803 18.47924,29.67484 1.76443,8.34005 1.38684,10.81026 -2.82757,18.49788 -3.48505,6.35719 -4.0287,8.26836 -4.63022,16.27734 -0.56647,7.54218 -0.38693,9.6953 1.06327,12.75138 2.19063,4.61641 11.27649,11.55547 22.51563,17.19566 16.72103,8.39119 21.97494,11.63132 25.45734,15.69972 5.52894,6.45932 7.66627,11.82305 8.28016,20.77945 0.50067,7.30462 0.30354,8.5012 -2.34545,14.23711 -2.56064,5.54464 -2.86702,7.23627 -2.67359,14.76224 0.25595,9.95867 3.16754,22.24296 6.70107,28.27248 3.7629,6.42089 7.51036,9.77983 17.01903,15.25453 16.80855,9.67767 19.68699,12.24526 24.60798,21.95046 l 4.42734,8.73163 0.66614,17.37951 c 0.84288,21.99075 1.17496,22.75824 15.86484,36.6655 12.89853,12.21136 20.77065,21.47636 22.0562,25.95878 1.96179,6.84038 0.42653,15.60791 -5.56616,31.78711 -1.88516,5.08961 -1.61543,8.01185 1.50484,16.30343 2.05237,5.45381 2.86495,6.31495 13.48792,14.29407 9.90358,7.43878 11.58032,9.13304 13.53468,13.67608 l 2.23072,5.18543 -2.33254,4.39688 c -2.43978,4.59904 -9.71801,10.08994 -13.42089,10.12511 -2.23877,0.0213 -12.61932,-2.11975 -19.53842,-4.02984 -6.41667,-1.7714 -10.64863,-0.63537 -17.91584,4.80932 -20.36772,15.25977 -24.59651,17.48751 -34.28916,18.06365 -6.09434,0.36226 -7.75658,-0.006 -17.2602,-3.82573 -5.78402,-2.32463 -11.56968,-5.05511 -12.85701,-6.06773 -1.28734,-1.01261 -7.57457,-4.56127 -13.97162,-7.8859 -17.73999,-9.21968 -15.93079,-9.48535 -62.16738,9.12888 l -15,6.03879 -9.21028,-0.57682 c -6.51838,-0.40823 -10.91743,-1.29535 -15.05124,-3.03524 -3.21252,-1.35214 -8.0679,-2.60287 -10.78972,-2.7794 l -4.94876,-0.32098 -0.5,68.5 -0.5,68.5 -11.5533,0.28003 c -6.35431,0.15402 -11.86681,-0.0335 -12.25,-0.41666 z"
     id="path3600" />
  <path
     style="fill:#c2172e;fill-opacity:1"
     d="m 382.02717,414.4552 c -6.96797,-6e-5 -14.16173,1.71125 -21.25,5.3125 -6.79516,3.45233 -15.94841,12.73832 -19.96875,20.28125 -5.77964,10.84371 -7.66237,19.91571 -7.6875,36.84375 -0.0254,17.12473 1.22722,23.47294 7.0625,35.40625 4.52446,9.25266 13.60051,18.62593 21.9375,22.65625 5.13956,2.48459 7.12789,2.87056 14.9375,2.90625 10.57646,0.0484 15.00068,-1.76191 22.75,-9.28125 l 4.75,-4.625 0,4.96875 c -0.008,6.39029 -2.46758,22.52202 -4.4375,29.0625 -4.17246,13.85333 -16.77188,21.22324 -26.3125,15.40625 -4.12712,-2.51634 -6.87311,-7.00761 -8.375,-13.71875 -0.6483,-2.89739 -1.31144,-5.28125 -1.46875,-5.28125 -1.52252,0 -27.87298,4.12298 -28.15625,4.40625 -0.93129,0.9313 4.00729,18.16106 6.78125,23.65625 5.20495,10.31094 15.12892,18.34791 25.71875,20.84375 6.004,1.41503 16.35103,1.22108 22.71875,-0.4375 18.64009,-4.85513 32.82895,-21.11253 38.96875,-44.625 4.27299,-16.36351 5.0074,-23.88705 4.96875,-50.34375 -0.0386,-26.40238 -1.1726,-37.19786 -5.53125,-52 -7.66081,-26.01646 -26.50233,-41.43732 -47.40625,-41.4375 z m -1.4375,29.15625 c 0.41462,0.008 0.82316,0.0252 1.25,0.0625 13.12828,1.14723 21.61703,17.65691 20.40625,39.71875 -0.80326,14.63643 -4.72582,22.92231 -12.71875,27 -5.02716,2.56467 -9.41083,2.51751 -14.8125,-0.15625 -8.1588,-4.0385 -12.10208,-13.06942 -12.84375,-29.34375 -1.08346,-23.77406 5.86542,-37.5304 18.71875,-37.28125 z"
     id="path3598" />
  <path
     style="fill:#c2172e;fill-opacity:1"
     d="m 514.55842,507.8927 0,-93.5 -11.80246,0 -11.80245,0 -1.8496,5.14357 c -4.45506,12.38911 -19.62906,29.59461 -32.58199,36.94409 -3.3077,1.87679 -6.68963,3.86507 -7.51539,4.4184 -1.24945,0.83725 -1.45496,3.64436 -1.22474,16.72958 l 0.27663,15.72352 5.17656,-2.39955 c 7.159,-3.31849 18.62028,-11.24613 26.07344,-18.03471 l 6.25,-5.69271 0,67.08391 0,67.0839 14.5,0 14.5,0 0,-93.5 z"
     id="path3592" />
</svg>
