<?xml version="1.0" encoding="UTF-8" standalone="no"?>
<!-- Created with Inkscape (http://www.inkscape.org/) -->

<svg
   xmlns:svg="http://www.w3.org/2000/svg"
   xmlns="http://www.w3.org/2000/svg"
   version="1.1"
   width="1151.1941"
   height="1151.1703"
   id="svg2">
  <defs
     id="defs4" />
  <g
     transform="translate(-213.07142,-16.691902)"
     id="layer1">
    <path
       d="m 1262.8571,545.45599 a 554.28571,554.28571 0 1 1 -1108.57139,0 554.28571,554.28571 0 1 1 1108.57139,0 z"
       transform="matrix(1.036567,0,0,1.036567,53.589673,27.460512)"
       id="path2913"
       style="fill:#7f8000;fill-opacity:1;stroke:#979797;stroke-width:0.86000001;stroke-linecap:round;stroke-miterlimit:4;stroke-opacity:1;stroke-dasharray:none;stroke-dashoffset:0" />
    <g
       transform="translate(1281.4344,78.15265)"
       id="g3721">
      <path
         d="m -530.9286,1089.2097 c -1.925,-0.1828 -9.35,-0.8122 -16.5,-1.3987 -36.32797,-2.9795 -71.26746,-9.9198 -117.66872,-23.3734 -69.07629,-20.028 -144.11343,-60.9588 -199.83128,-109.00271 -21.73061,-18.73763 -54.62318,-51.65411 -71.26391,-71.31569 -25.15185,-29.71775 -54.5109,-75.00155 -73.75259,-113.75701 -18.4236,-37.10762 -32.9826,-78.12007 -43.9724,-123.86945 -10.624,-44.22652 -14.4455,-78.78466 -14.4455,-130.63055 0,-51.84589 3.8215,-86.40403 14.4455,-130.63055 17.338,-72.17589 41.1364,-126.94312 82.69121,-190.29674 34.2691,-52.24598 90.67414,-110.38345 142.06045,-146.42368 38.95498,-27.321415 79.41415,-49.50445 117.73724,-64.553214 59.80822,-23.485571 113.56657,-36.211144 169.5,-40.123713 8.525,-0.596327 17.075,-1.506493 19,-2.02259 4.51815,-1.211328 50.4091,-1.225527 55,-0.01702 1.925,0.506738 10.7,1.424315 19.5,2.03906 54.68603,3.820225 111.41945,17.309341 170.5,40.538614 43.84014,17.2370539 101.38966,50.842523 138.41496,80.82605 36.52328,29.57697 72.87774,66.281853 98.71244,99.663783 41.7864,53.99386 76.6788,121.98027 94.2443,183.63124 9.0256,31.67772 14.4109,54.97951 18.112,78.36876 5.0451,31.88283 5.9227,44.13264 5.9465,83 0.042,69.19839 -5.3109,107.7722 -24.0784,173.5 -19.7701,69.2394 -61.2079,146.00321 -108.6709,201.31379 -20.0229,23.33344 -53.50096,56.60631 -75.1809,74.72001 -54.3194,45.38431 -125.35595,83.97581 -191.07475,103.80391 -65.10248,19.6421 -115.02327,26.9117 -181.92525,26.4926 -13.2,-0.083 -25.575,-0.3 -27.5,-0.4828 z m 75.5,-37.427 c 93.72588,-6.531 181.50155,-36.3732 260,-88.39561 55.12259,-36.53077 95.53491,-74.40874 133.2181,-124.86366 64.9034,-86.90081 99.7142,-179.94558 108.3709,-289.66124 1.5012,-19.02702 1.4972,-63.21178 -0.01,-79 -5.6687,-59.49226 -20.1861,-120.03281 -39.806,-166 -7.7701,-18.20428 -26.765,-55.94694 -35.4809,-70.5 -35.3287,-58.99316 -84.16116,-113.21554 -138.2921,-153.55911 -59.63741,-44.447529 -133.34516,-79.23166 -201.5,-95.0918 -13.88146,-3.230319 -46.0155,-8.714868 -67.5,-11.520711 -20.43696,-2.669036 -93.49123,-2.674471 -114,-0.0085 -73.52351,9.557519 -121.40101,23.391311 -179,51.720512 -97.7389,48.071411 -173.37,117.449179 -229.42928,210.459589 -7.60994,12.62599 -26.71447,50.69669 -34.37448,68.5 -14.06534,32.69047 -25.92324,73.3324 -32.21074,110.39918 -8.1063,47.78961 -7.9836,46.28936 -7.9836,97.60082 0,51.34142 -0.1276,49.78453 8.0216,97.82292 10.0016,58.95742 32.81526,120.2723 65.58846,176.278 13.83912,23.64949 36.21839,55.25387 55.5149,78.39908 12.91705,15.49336 43.65512,46.24774 59.45723,59.48877 53.21778,44.59273 119.47343,82.08806 179.91591,101.81786 47.18847,15.4034 99.8068,25.0122 151,27.5744 9.57842,0.4794 42.43029,-0.3408 58.5,-1.4605 z M -619.19705,882.16931 c -0.97265,-0.25348 -3.33515,-2.91002 -5.25,-5.90341 -3.09941,-4.84516 -3.47964,-6.18131 -3.46419,-12.17313 0.0355,-13.76913 4.19295,-27.27656 10.63067,-34.53889 5.23554,-5.90617 9.6154,-14.99186 13.57926,-28.16914 2.51083,-8.34694 3.01022,-11.71622 2.98702,-20.15311 -0.0251,-9.11619 -0.28052,-10.51801 -2.55127,-14 -2.25105,-3.45179 -2.64454,-5.54245 -3.64557,-19.36944 -0.61718,-8.525 -1.73225,-17.975 -2.47792,-21 -0.74567,-3.025 -1.65374,-7.75 -2.01794,-10.5 -2.43063,-18.35314 -5.08736,-24.14277 -17.43732,-38 -7.90504,-8.86983 -13.28335,-17.71221 -17.33489,-28.5 -1.65624,-4.40997 -4.06571,-7.49139 -12.15751,-15.54801 -8.25395,-8.21807 -11.15529,-10.44904 -15.93087,-12.25 -7.5229,-2.83702 -12.57662,-2.78519 -18.4463,0.1892 -5.23374,2.65214 -14.53407,11.88891 -15.71403,15.60664 -0.41764,1.31588 -2.08696,4.55015 -3.7096,7.18726 -2.69867,4.3859 -3.07122,6.13864 -4.36899,20.55483 -1.59918,17.76445 -1.90738,19.75021 -4.1533,26.76008 -2.64807,8.26507 -10.35526,27.93196 -11.34511,28.95 -0.50803,0.5225 -0.92369,2.02568 -0.92369,3.34041 0,1.54514 -1.70387,4.03808 -4.8185,7.05 -2.65017,2.56277 -6.01345,7.19445 -7.47395,10.29261 -2.85372,6.05359 -3.96283,6.86698 -9.36357,6.86698 -4.94317,0 -13.74455,-8.64043 -21.34446,-20.95414 -3.24039,-5.25022 -7.30444,-11.44011 -9.03123,-13.75531 -1.72679,-2.3152 -3.78461,-6.35258 -4.57292,-8.97197 -0.78832,-2.61938 -2.72153,-6.12513 -4.29602,-7.79055 -1.57449,-1.66541 -4.03439,-4.92118 -5.46643,-7.23503 -3.0057,-4.85651 -4.52744,-5.81716 -10.39793,-6.56407 -2.34576,-0.29845 -6.07211,-1.48456 -8.28079,-2.63579 -2.20868,-1.15123 -4.73234,-2.09314 -5.60813,-2.09314 -0.87578,0 -4.12443,-1.32648 -7.2192,-2.94774 -3.09478,-1.62125 -6.8172,-3.19299 -8.27204,-3.49274 -2.70795,-0.55794 -3.99266,-1.90421 -13.41662,-14.05952 -3.36844,-4.34473 -5.42918,-7.9855 -5.43264,-9.59803 -0.007,-3.12422 -7.13441,-25.15505 -10.45154,-32.30433 -1.30086,-2.8037 -4.65112,-7.32426 -7.44503,-10.04568 -3.34283,-3.25611 -5.6099,-6.54395 -6.63003,-9.61528 -0.9835,-2.96102 -4.2926,-7.86819 -9.05184,-13.42322 -4.12589,-4.81579 -8.09128,-10.16391 -8.81198,-11.88472 -0.7207,-1.72081 -3.01458,-5.41961 -5.09752,-8.21956 -5.22871,-7.0286 -11.50548,-23.99129 -11.52527,-31.14652 -0.0131,-4.74189 -3.54673,-14.6648 -6.84231,-19.21423 -4.03526,-5.5705 -4.81719,-8.68396 -6.16494,-24.54713 -1.35696,-15.97165 -0.78617,-20.50561 3.53482,-28.07807 1.85895,-3.25778 5.08994,-9.26619 7.17999,-13.35203 2.09004,-4.08584 6.65617,-10.5477 10.14694,-14.3597 6.35408,-6.93877 9.15314,-11.76899 9.15314,-15.79517 0,-1.18135 0.65681,-4.2333 1.45958,-6.78212 0.80278,-2.54881 3.09576,-9.80921 5.09553,-16.13421 1.99977,-6.325 4.01541,-13.525 4.47921,-16 2.43006,-12.96785 5.27168,-20.18474 10.04052,-25.5 1.97383,-2.2 4.99223,-6.07375 6.70754,-8.60833 1.71532,-2.53458 4.6035,-5.80979 6.41819,-7.27824 15.94334,-12.90143 26.53997,-19.30859 37.61379,-22.74286 9.14222,-2.83523 18.43287,-6.23085 26.18564,-9.57054 6.5,-2.80003 6.5,-2.80003 34.20983,-2.80003 27.70983,0 27.70983,0 32.79382,-5 6.04184,-5.94204 13.4908,-16.5004 17.99033,-25.5 1.78739,-3.575 4.91974,-9.425 6.96078,-13 2.04105,-3.575 5.21225,-9.9755 7.04712,-14.22334 1.83487,-4.24783 5.51007,-10.41009 8.16712,-13.69389 2.65705,-3.2838 4.831,-6.24549 4.831,-6.58153 0,-0.33604 1.7447,-3.17379 3.87711,-6.30611 5.36903,-7.88663 16.49017,-19.03282 20.77732,-20.8241 1.96227,-0.81989 5.71058,-2.9647 8.32957,-4.76625 7.73355,-5.31975 22.67835,-11.33423 30.016,-12.07984 3.575,-0.36327 8.525,-1.24978 11,-1.97002 2.475,-0.72024 6.525,-1.86149 9,-2.53611 2.475,-0.67462 7.2,-2.2805 10.5,-3.56863 3.3,-1.28813 9.6,-2.84375 14,-3.45693 7.9962,-1.11435 17.46267,-3.53392 25,-6.38984 2.2,-0.8336 7.00821,-1.53538 10.6849,-1.55952 3.6767,-0.0241 7.93304,-0.51843 9.45855,-1.09843 1.52551,-0.58 7.0673,-1.31238 12.3151,-1.62752 11.99669,-0.72043 26.2226,1.97571 38.69419,7.33345 7.28084,3.12782 10.10688,5.1035 18.2726,12.77434 5.31282,4.99085 14.07425,13.79927 19.46983,19.57427 21.89249,23.43195 27.13398,28.21971 41.60122,38 2.84751,1.925 10.78714,7.6625 17.64362,12.75 6.85648,5.0875 13.4549,9.25193 14.66316,9.25428 1.20826,0.002 4.22183,1.35043 6.69683,2.99572 2.475,1.64529 5.04723,2.99336 5.71607,2.99572 0.66884,0.002 2.69384,0.63914 4.5,1.41508 19.60363,8.42184 27.13254,11.24732 33.78393,12.67856 4.74947,1.02199 10.31139,3.1406 19.33091,7.36339 4.16714,1.95099 8.10652,3.54725 8.75418,3.54725 0.64766,0 5.05597,2.19191 9.79624,4.8709 16.09998,9.09901 40.37241,21.1291 42.631,21.1291 1.23725,0 5.2384,1.125 8.89144,2.5 3.65304,1.375 7.45238,2.5 8.44298,2.5 0.9906,0 5.53942,1.62002 10.10848,3.60005 4.90687,2.12641 11.63067,4.10036 16.42608,4.8223 6.52508,0.98235 9.19828,1.94916 13.61869,4.92545 11.63919,7.83675 17.93075,13.11615 21.03151,17.64807 1.11969,1.63648 3.09524,2.4836 7.34678,3.1503 7.27334,1.14057 12.42222,3.81444 15.52606,8.06286 3.05758,4.1851 23.69915,19.29652 32.12823,23.52066 1.94291,0.97367 5.76791,3.16479 8.5,4.86916 2.73208,1.70436 6.99242,4.24523 9.46742,5.64636 2.475,1.40113 6.975,5.25011 10,8.55328 6.7642,7.38623 17,22.98973 17,25.9149 0,1.18603 0.4856,3.42321 1.0791,4.97151 0.5935,1.54831 1.6975,6.8651 2.4532,11.8151 0.7558,4.95 2.7864,13.90121 4.5124,19.89159 2.2686,7.87287 2.9785,12.03027 2.5614,15 -1.8824,13.40484 -2.4882,21.73312 -2.554,35.10841 -0.05,10.22924 -0.5474,16.56129 -1.5629,19.90893 -2.0289,6.68788 -1.8698,12.5591 0.5247,19.36605 1.7281,4.91279 1.9211,7.16355 1.3598,15.86458 -0.5046,7.82378 -0.3007,11.24965 0.8927,15 3.5861,11.2691 4.6854,16.22544 4.9912,22.5046 0.2564,5.26293 0.8869,7.45692 3.0331,10.55375 3.0305,4.37313 3.3756,7.67018 1.3102,12.51816 -0.7694,1.80616 -2.2319,5.30483 -3.25,7.77483 -1.018,2.46999 -3.135,5.95749 -4.7045,7.75 -2.8536,3.2591 -2.8536,3.2591 -15.5536,3.2591 -11.6523,0 -13.1279,-0.21319 -17.8853,-2.5839 -2.85188,-1.42114 -7.02014,-4.66847 -9.26281,-7.21627 -4.26376,-4.84389 -10.94469,-17.5439 -10.94469,-20.80514 0,-1.04249 -0.66719,-5.04527 -1.48264,-8.89506 -0.81545,-3.8498 -1.49045,-10.20717 -1.5,-14.12751 -0.01,-4.02001 -0.66852,-8.68632 -1.51079,-10.70216 -1.17951,-2.82295 -1.25398,-4.16243 -0.35428,-6.37213 0.62654,-1.53881 1.48473,-7.97283 1.90709,-14.29783 0.59142,-8.85676 1.36239,-12.93198 3.35427,-17.73013 1.51708,-3.65443 2.59839,-8.20212 2.61547,-11 0.016,-2.62343 0.94301,-7.91987 2.05999,-11.76987 6.33833,-21.84689 6.10085,-20.44858 4.84028,-28.5 -0.64584,-4.125 -1.54306,-9.975 -1.99383,-13 -1.01977,-6.84333 -3.52055,-13.87151 -5.87107,-16.5 -0.98367,-1.1 -2.9507,-4.5875 -4.37117,-7.75 -4.17211,-9.28867 -7.69332,-6.80297 -7.69332,5.43089 0,3.32787 -0.65465,8.13608 -1.45479,10.6849 -3.7348,11.89719 -4.54521,15.83545 -4.54521,22.08777 0,6.31544 -1.15764,11.25657 -6.75489,28.83163 -0.94593,2.97017 -3.75631,7.84731 -6.41612,11.13452 -2.60311,3.21714 -5.02977,7.13881 -5.39258,8.71482 -0.3628,1.57601 -1.95942,6.67347 -3.54803,11.32768 -1.58861,4.65422 -2.88838,9.32344 -2.88838,10.37604 0,1.0526 -1.76393,5.3446 -3.91985,9.53778 -7.16204,13.92992 -7.59711,15.45591 -5.80319,20.35474 0.85986,2.34808 1.80516,8.09423 2.10068,12.76923 1.18378,18.72694 2.16602,23.84795 5.33201,27.79893 3.85029,4.80496 4.51626,6.14823 7.78427,15.70107 3.14851,9.20351 4.19415,13.49479 5.4383,22.31864 0.5709,4.04901 1.82067,7.66028 3.47935,10.05375 2.31622,3.34232 2.58726,4.67592 2.57727,12.68136 -0.009,7.1101 -0.62231,10.89605 -2.98884,18.44625 -1.63772,5.225 -2.9827,11.5163 -2.98884,13.98067 -0.006,2.46437 -0.88678,6.73937 -1.95699,9.5 -1.07021,2.76063 -3.09667,8.76414 -4.50324,13.34113 -2.88248,9.37955 -3.86238,11.49314 -7.17484,15.47562 -1.27973,1.53858 -3.01313,5.13858 -3.85202,8 -1.67481,5.71276 -1.97628,6.41859 -9.32473,21.83225 -2.79858,5.87012 -5.57795,13.44359 -6.20728,16.91412 -0.62677,3.45644 -1.72087,7.89809 -2.43132,9.87033 -2.56103,7.10952 -5.44067,16.69281 -6.63647,22.08588 -2.57451,11.61104 -10.43091,21.30533 -22.24693,27.45128 -5.13481,2.6708 -8.04958,3.54872 -11.78212,3.54872 -2.7277,0 -6.57496,0.675 -8.54946,1.5 -9.51032,3.97366 -24.62512,-0.21501 -28.56227,-7.91528 -2.84874,-5.57156 -4.75736,-13.12129 -4.77162,-18.87456 -0.0127,-5.13816 2.32741,-10.69996 7.02237,-16.68999 1.5175,-1.9361 4.44418,-6.67017 6.50374,-10.52017 2.05956,-3.85 4.79398,-8.9568 6.0765,-11.34845 1.28251,-2.39166 2.62458,-5.99166 2.98237,-8 0.3578,-2.00835 2.13529,-6.80155 3.94999,-10.65155 1.8147,-3.85 3.62304,-9.25 4.01854,-12 0.3955,-2.75 1.29064,-6.63226 1.98919,-8.62725 0.81733,-2.33422 1.38286,-10.88971 1.58643,-24 0.31634,-20.37275 0.31634,-20.37275 -3.2513,-26.87275 -1.9622,-3.575 -4.22731,-6.62859 -5.03356,-6.78575 -0.889,-0.17329 -2.4282,1.59769 -3.91103,4.5 -2.06194,4.03577 -2.45703,6.2745 -2.52117,14.28575 -0.10177,12.70996 -1.71093,17.40727 -11.26906,32.89558 -2.38981,3.87253 -6.12189,12.11775 -8.2935,18.32269 -2.17162,6.20495 -5.45678,13.75673 -7.30037,16.78173 -1.84359,3.025 -5.36168,9.775 -7.81798,15 -2.4563,5.225 -6.98761,13.6524 -10.06958,18.72755 -3.08197,5.07515 -6.6318,11.79749 -7.88851,14.93855 -1.94934,4.87219 -3.18338,6.32443 -8.40191,9.88754 -3.36434,2.29709 -8.76434,4.94938 -12,5.89398 -3.23567,0.9446 -7.3608,2.35531 -9.16696,3.13492 -2.24734,0.97003 -7.19054,1.41746 -15.6602,1.41746 -12.37627,0 -12.37627,0 -17.52161,-4.06715 -7.67121,-6.06375 -9.25673,-9.10595 -8.71057,-16.71335 0.57762,-8.0456 3.70346,-12.92736 11.11666,-17.36139 5.98851,-3.58188 8.67357,-7.65688 14.05862,-21.33607 1.51084,-3.83787 3.81138,-8.37344 5.1123,-10.07904 3.64526,-4.77917 7.16763,-11.87464 8.96619,-18.06147 0.89807,-3.08925 3.14868,-8.82637 5.00135,-12.74917 2.31707,-4.9061 3.84675,-10.25371 4.9007,-17.13236 0.84271,-5.5 2.2854,-13.01472 3.20598,-16.69937 1.59956,-6.40231 1.58929,-6.95656 -0.23159,-12.5 -2.37001,-7.21516 -3.55237,-9.19825 -10.26112,-17.21023 -2.95186,-3.52527 -6.842,-9.37527 -8.64475,-13 -1.80276,-3.62472 -5.09814,-9.9654 -7.32307,-14.0904 -2.22493,-4.125 -4.54865,-9.39602 -5.16383,-11.71339 -1.15964,-4.36837 -4.12379,-7.28661 -7.40126,-7.28661 -1.09263,0 -6.8208,4.97549 -13.52749,11.75 -11.34137,11.45605 -26.77103,25.21829 -33.91506,30.25 -3.1657,2.22968 -4.91017,2.57097 -16.13341,3.15632 -6.92115,0.36098 -15.50891,0.97522 -19.08391,1.36499 -9.74259,1.06219 -20.83041,-2.6661 -29.5,-9.91941 -11.70596,-9.79366 -15.03623,-11.6019 -21.36746,-11.6019 -9.83973,0 -13.24143,4.53008 -14.61174,19.45861 -0.71157,7.75199 -3.89992,17.09286 -7.00582,20.52483 -1.00785,1.11367 -1.5417,5.49681 -1.89198,15.53399 -0.75354,21.59232 -3.11474,45.46415 -4.98651,50.4139 -2.09091,5.52924 -4.01854,8.05615 -16.10057,21.10601 -7.58687,8.19461 -10.50932,12.22045 -13.48148,18.57148 -3.87713,8.28481 -7.06035,21.93477 -7.05647,30.25883 0.002,3.72249 -0.55724,4.92692 -3.78422,8.1539 -4.01894,4.01894 -5.82545,4.66083 -20.71375,7.36005 -6.48527,1.17576 -14.30888,1.59741 -28,1.50904 -10.45,-0.0675 -19.7958,-0.33004 -20.76845,-0.58352 z"
         id="path3723"
         style="fill:#010100" />
    </g>
  </g>
</svg>
