<?xml version="1.0" encoding="UTF-8" standalone="no"?>
<svg
   xmlns:dc="http://purl.org/dc/elements/1.1/"
   xmlns:cc="http://creativecommons.org/ns#"
   xmlns:rdf="http://www.w3.org/1999/02/22-rdf-syntax-ns#"
   xmlns:svg="http://www.w3.org/2000/svg"
   xmlns="http://www.w3.org/2000/svg"
   xmlns:sodipodi="http://sodipodi.sourceforge.net/DTD/sodipodi-0.dtd"
   xmlns:inkscape="http://www.inkscape.org/namespaces/inkscape"
   width="400"
   height="399.97827"
   viewBox="0 0 320 319.98262"
   version="1.1"
   id="svg2"
   inkscape:version="0.47 r22583"
   sodipodi:docname="US_93rd_Infantry_Division.svg">
  <metadata
     id="metadata15">
    <rdf:RDF>
      <cc:Work
         rdf:about="">
        <dc:format>image/svg+xml</dc:format>
        <dc:type
           rdf:resource="http://purl.org/dc/dcmitype/StillImage" />
      </cc:Work>
    </rdf:RDF>
  </metadata>
  <defs
     id="defs13">
    <inkscape:perspective
       sodipodi:type="inkscape:persp3d"
       inkscape:vp_x="0 : 744.375 : 1"
       inkscape:vp_y="0 : 1000 : 0"
       inkscape:vp_z="1488.75 : 744.375 : 1"
       inkscape:persp3d-origin="744.375 : 496.25 : 1"
       id="perspective17" />
  </defs>
  <sodipodi:namedview
     pagecolor="#ffffff"
     bordercolor="#666666"
     borderopacity="1"
     objecttolerance="10"
     gridtolerance="10"
     guidetolerance="10"
     inkscape:pageopacity="0"
     inkscape:pageshadow="2"
     inkscape:window-width="1280"
     inkscape:window-height="750"
     id="namedview11"
     showgrid="false"
     inkscape:zoom="0.89673726"
     inkscape:cx="310.2427"
     inkscape:cy="205.53256"
     inkscape:window-x="-8"
     inkscape:window-y="-8"
     inkscape:window-maximized="1"
     inkscape:current-layer="svg2" />
  <g
     id="#ffffffff"
     transform="translate(-15.109314,-855.57391)" />
  <g
     id="g2823"
     transform="matrix(0.26959445,0,0,0.26959445,0.38722811,0.38272515)">
    <g
       id="#000000ff">
      <path
         id="path6"
         d="m 577.45,15.49 c 47.6,-1.71 95.49,2.6 141.97,13.04 67.33,14.25 131.56,41.63 189.56,78.51 77.99,50.33 144,119.3 189.9,200.05 10.3,17.3 18.32,35.82 27.13,53.9 5.04,9.86 8.41,20.43 12.23,30.8 25.21,63.56 36.37,132.08 37.33,200.27 0.67,61.24 -8.92,122.55 -27.71,180.83 -7.85,19.6 -13.58,40.09 -22.85,59.11 -7.38,14.16 -13.56,28.9 -21.04,43.01 -15.19,26.79 -31.7,52.92 -50.93,77.02 -12.2,16.3 -26.75,30.58 -40.2,45.81 -7.93,9.07 -17.03,17 -25.95,25.06 -42.35,40.22 -91.72,73.01 -144.86,97.16 -8.17,3.91 -16.14,8.25 -24.65,11.38 -24.94,9.05 -49.56,19.21 -75.41,25.45 -67.01,17.2 -137.07,22.54 -205.91,15.91 -36.17,-3.68 -71.86,-11.2 -106.76,-21.27 -16.42,-5.05 -32.33,-11.56 -48.52,-17.27 -16.23,-5.59 -31.2,-14.16 -46.79,-21.25 -18.58,-8.3 -35.88,-19.11 -53.06,-29.94 C 202.32,1032.3 135.99,962.45 90.15,880.82 54.26,817.5 30.28,747.35 20.77,675.15 10.77,603.1 13.83,529.07 31.46,458.42 55.09,359.32 106.18,267.13 176.72,193.72 226.26,141.65 285.95,99.42 350.98,68.93 421.81,35.96 499.39,17.93 577.45,15.49 M 463.16,259.27 c -17.06,3.24 -33.48,8.82 -49.52,15.34 -31.18,9.91 -58.66,28.71 -83.64,49.4 -13.35,12.6 -24.33,27.55 -33.53,43.39 -4.52,8.87 -7.88,18.27 -11.6,27.49 -5.6,20.37 -11.78,40.84 -13.14,62.04 -1.09,12.05 -0.29,24.34 -3.67,36.1 -3.71,17.21 -15.04,31.15 -22.05,46.97 -6.46,14.22 -15.52,26.97 -23.99,40.01 -10.35,16.25 -24.54,29.44 -37.33,43.69 -15.55,16.82 -33.23,31.43 -50.12,46.85 -6.45,5.86 -13.77,11.05 -18.41,18.6 23.28,-4.92 45.89,-12.83 69.45,-16.59 17.6,-2.87 34.63,-8.7 52.43,-10.5 7.34,-0.87 14.65,-1.99 21.97,-3 40.46,-5.12 81.33,-2.36 121.99,-3.11 30.62,-0.77 61.56,2.69 90.71,12.38 9.57,3.22 19.33,5.88 28.9,9.13 28.87,10.74 57.34,22.76 84.39,37.52 15.08,7.87 30.85,14.51 45.08,23.92 42.76,24.14 84.69,50.22 123.08,80.95 11.6,9.05 21.94,19.71 34.41,27.63 19.15,11.73 37.52,24.98 58.38,33.64 15.15,8.06 31.44,13.39 47.42,19.48 20.94,7.09 41.9,14.42 63.71,18.42 14.95,3.99 30.25,6.82 45.69,8.01 -5.55,-9.71 -13.56,-17.71 -20.07,-26.74 C 969.97,883.81 958.11,865.95 944.87,849.1 927.51,825.07 911.09,800.07 899.2,772.82 885.9,739.07 890.99,702.31 890,667 c -0.93,-26.44 -0.99,-52.91 -2.66,-79.32 -1.25,-16.42 -2.93,-32.79 -3.97,-49.22 -1.37,-19.88 -1.75,-39.99 -6.32,-59.47 -3.3,-13.88 -5.62,-28.21 -11.85,-41.17 -5.97,-13.08 -11.54,-26.47 -19.64,-38.41 -5.33,-7.32 -10.89,-14.45 -16.16,-21.8 -24.46,-30.71 -56.77,-53.9 -90.39,-73.59 -18.1,-9.3 -36.29,-18.51 -55.4,-25.58 -22.1,-9.7 -45.76,-14.96 -69.03,-20.97 -19.57,-4.5 -39.55,-7.48 -59.62,-8.29 -30.95,-1.66 -61.63,3.85 -91.8,10.09 z"
         style="fill:#000000" />
    </g>
    <g
       id="#1207caff">
      <path
         id="path9"
         d="m 463.16,259.27 c 30.17,-6.24 60.85,-11.75 91.8,-10.09 20.07,0.81 40.05,3.79 59.62,8.29 23.27,6.01 46.93,11.27 69.03,20.97 19.11,7.07 37.3,16.28 55.4,25.58 33.62,19.69 65.93,42.88 90.39,73.59 5.27,7.35 10.83,14.48 16.16,21.8 8.1,11.94 13.67,25.33 19.64,38.41 6.23,12.96 8.55,27.29 11.85,41.17 4.57,19.48 4.95,39.59 6.32,59.47 1.04,16.43 2.72,32.8 3.97,49.22 1.67,26.41 1.73,52.88 2.66,79.32 0.99,35.31 -4.1,72.07 9.2,105.82 11.89,27.25 28.31,52.25 45.67,76.28 13.24,16.85 25.1,34.71 38.83,51.19 6.51,9.03 14.52,17.03 20.07,26.74 -15.44,-1.19 -30.74,-4.02 -45.69,-8.01 -21.81,-4 -42.77,-11.33 -63.71,-18.42 -15.98,-6.09 -32.27,-11.42 -47.42,-19.48 -20.86,-8.66 -39.23,-21.91 -58.38,-33.64 -12.47,-7.92 -22.81,-18.58 -34.41,-27.63 -38.39,-30.73 -80.32,-56.81 -123.08,-80.95 -14.23,-9.41 -30,-16.05 -45.08,-23.92 -27.05,-14.76 -55.52,-26.78 -84.39,-37.52 -9.57,-3.25 -19.33,-5.91 -28.9,-9.13 -29.15,-9.69 -60.09,-13.15 -90.71,-12.38 -40.66,0.75 -81.53,-2.01 -121.99,3.11 -7.32,1.01 -14.63,2.13 -21.97,3 -17.8,1.8 -34.83,7.63 -52.43,10.5 -23.56,3.76 -46.17,11.67 -69.45,16.59 4.64,-7.55 11.96,-12.74 18.41,-18.6 16.89,-15.42 34.57,-30.03 50.12,-46.85 12.79,-14.25 26.98,-27.44 37.33,-43.69 8.47,-13.04 17.53,-25.79 23.99,-40.01 7.01,-15.82 18.34,-29.76 22.05,-46.97 3.38,-11.76 2.58,-24.05 3.67,-36.1 1.36,-21.2 7.54,-41.67 13.14,-62.04 3.72,-9.22 7.08,-18.62 11.6,-27.49 9.2,-15.84 20.18,-30.79 33.53,-43.39 24.98,-20.69 52.46,-39.49 83.64,-49.4 16.04,-6.52 32.46,-12.1 49.52,-15.34 z"
         style="fill:#1207ca" />
    </g>
  </g>
</svg>
