<?xml version="1.0" encoding="UTF-8" standalone="no"?>  <!-- Created with Inkscape (http://www.inkscape.org/) -->  <svg  xmlns="http://www.w3.org/2000/svg"  version="1.0"  width="280"  height="280">  <circle cx="140" cy="140" r="133" fill="#aeaeae" stroke="#000" stroke-width="14"/>  <path  d="M 224.5,55.5 C 271.14285,102.14433 271.14285,177.85567 224.5,224.5 C 177.85566,271.14286 102.14432,271.14286 55.5,224.5"  fill="#000" />  <path  d="M 96.0625,39.46875 C 72.6025,39.46875 53.562501,58.508746 53.5625,81.96875 C 53.5625,105.42875 72.602497,124.46875 96.0625,124.46875 C 96.261628,124.46875 96.457768,124.44023 96.65625,124.4375 L 80.53125,156.0625 L 106.53125,156.0625 C 106.53125,156.0625 127.01786,117.3081 135.6875,97.25 L 135.78125,97.03125 C 137.56261,92.343652 138.5625,87.278764 138.5625,81.96875 C 138.5625,58.50875 119.5225,39.46875 96.0625,39.46875 z M 96.0625,59.8125 C 108.28536,59.8125 118.21875,69.745893 118.21875,81.96875 C 118.21875,94.191603 108.28536,104.09375 96.0625,104.09375 C 83.839643,104.09375 73.9375,94.191607 73.9375,81.96875 C 73.937504,69.745889 83.839643,59.8125 96.0625,59.8125 z"  fill="#000" />  <path  d="M 187.34375,120.9375 L 130.8125,194 L 186.9375,194 L 186.9375,230.03125 L 205.0625,230.03125 L 205.0625,194 L 225.125,194 L 225.125,175.96875 L 205.0625,175.96875 L 205.0625,120.9375 L 187.34375,120.9375 z M 186.9375,152.09375 L 186.9375,175.96875 L 168.125,175.96875 L 186.9375,152.09375 z"  fill="#aeaeae" />  </svg>
