<?xml version="1.0" encoding="UTF-8" standalone="no"?>
<!-- Created with Inkscape (http://www.inkscape.org/) -->

<svg
   xmlns:svg="http://www.w3.org/2000/svg"
   xmlns="http://www.w3.org/2000/svg"
   version="1.1"
   width="213.67705"
   height="310.51199"
   id="svg2816">
  <defs
     id="defs2820" />
  <rect
     width="213.67705"
     height="310.51199"
     ry="106.729"
     x="4.6044923e-07"
     y="3.215332e-08"
     id="rect3610-1-7"
     style="fill:#2f2c7b;fill-opacity:1;stroke:none" />
  <g
     transform="matrix(1.0114943,0,0,0.9886363,-110.87233,-155.9507)"
     id="text3634"
     style="font-size:354.04379272px;font-style:normal;font-weight:normal;fill:#ffffff;fill-opacity:1;stroke:none;font-family:Segoe Print;-inkscape-font-specification:Segoe Print">
    <path
       d="m 139.00004,392.60848 c 9.83418,-5.01479 19.66836,-10.02957 29.50254,-15.04436 5.66042,21.74967 28.07152,37.67286 50.58777,34.91483 16.97557,-0.69591 33.04802,-11.19314 39.3577,-27.17096 8.73995,-17.66706 10.95767,-37.62528 11.90194,-57.06261 -21.08538,17.93998 -51.28693,27.33597 -78.39902,19.57457 -30.3041,-9.40945 -54.2806,-36.94049 -57.84465,-68.70048 -4.21588,-27.82709 5.74479,-57.48968 27.08827,-76.12135 27.56229,-26.01301 74.76135,-30.15892 104.24873,-5.00317 23.95133,18.67806 34.8745,49.21956 37.3337,78.64434 3.867,35.04675 2.42716,70.85533 -5.12205,105.31541 -6.59045,21.56894 -19.47667,40.83583 -38.75257,53.14084 -22.88066,14.24849 -52.0926,16.17463 -77.82789,5.15539 -19.37073,-9.38866 -36.17411,-26.62364 -42.07447,-47.64245 z m 77.53724,-176.49549 c -63.31825,0.18194 -65.42452,95.34444 -1.12749,98.67525 68.76706,-6.06946 59.75834,-98.13363 1.12749,-98.67525 z"
       id="path3639"
       style="font-variant:normal;font-weight:bold;font-stretch:normal;fill:#ffffff;fill-opacity:1;stroke:none;font-family:Arial;-inkscape-font-specification:Arial Bold" />
  </g>
  <path
     d="m 97.562316,11.462028 c 0,0 -15.913063,0.82306 -27.023403,6.09135 -12.87654,6.10578 -22.59334,13.73321 -22.59334,13.73321 l 3.6548,14.59234 c 0.12613,0.50361 11.86626,-8.66488 21.52219,-13.57034 10.58969,-5.37984 25.520393,-7.68611 25.520393,-7.68611 l -1.08064,-13.16045 z m -9.352845,238.423782 6.098935,48.25157 c 0,0 10.180724,1.21501 15.192774,1.21501 5.01205,0 15.19277,-1.87952 15.19277,-1.87952 L 146.35316,178.897 c 0,0 -18.77482,6.64106 -18.77482,6.64106 l -11.65547,62.44083 -27.713399,1.90692 z"
     id="path3619"
     style="fill:#ffffff;fill-opacity:1;stroke:none" />
  <path
     d="m 161.22253,106.23191 c 0,29.60293 -23.99793,53.60086 -53.60087,53.60086 -29.602937,0 -53.600867,-23.99793 -53.600867,-53.60086 0,-29.602952 23.99793,-53.600872 53.600867,-53.600872 29.60294,0 53.60087,23.99792 53.60087,53.600872 z M 106.27636,28.307568 c -39.965147,0.82724 -75.837436,35.62997 -77.128585,75.726172 -1.690257,43.15273 35.211668,80.2856 78.409065,80.52677 25.70229,-1.66942 42.53747,-9.33428 59.90224,-27.68544 -1.16066,26.83875 -2.33092,55.49802 -16.95981,78.94403 -13.40272,21.68786 -43.75852,26.69124 -65.944677,16.75572 -11.96535,-5.88382 -21.73349,-16.04554 -27.94286,-27.78464 -8.95875,5.25974 -9.2447,5.20923 -19.067418,10.80573 4.242738,11.90936 29.015478,46.09437 75.246355,44.1224 24.97338,-1.43105 49.25819,-15.31714 61.06278,-37.70255 17.66066,-31.15601 17.55985,-68.26616 16.29061,-103.02558 -1.44077,-21.22379 -4.03636,-42.684632 -10.58101,-62.963802 -12.47066,-28.32425 -42.22234,-48.06406 -73.28669,-47.71881 z"
     id="path2830"
     style="fill:#c72a3d;fill-opacity:1;stroke:none" />
  <rect
     width="191.93661"
     height="289.39807"
     ry="95.968307"
     x="11.56164"
     y="10.186432"
     id="rect3610-1"
     style="fill:none;stroke:#5f5ca1;stroke-width:1.5;stroke-linecap:round;stroke-miterlimit:4;stroke-opacity:1;stroke-dasharray:none;stroke-dashoffset:0" />
  <path
     d="m 154.4375,40.71875 -10,-8.3125 3.15625,-13.6875 c 0,0 9.12929,3.84775 20.59375,12.3125 9.89195,7.30369 14.375,14.84375 14.375,14.84375 l -4.6875,17.15625 -8.90625,-9.125 -13.625,76.09375 -20.9375,18.59375 20.03125,-107.875 z M 66.428883,77.569248 88.537378,252.83478 115.92287,247.97889 92.272266,59.087318 c 0,0 -10.285153,3.75903 -14.566283,6.89156 -4.28112,3.13253 -11.2771,11.59037 -11.2771,11.59037 z"
     id="path2862"
     style="fill:#ffffff;fill-opacity:1;stroke:none" />
</svg>
