<?xml version="1.0" encoding="UTF-8" standalone="no"?>
<!-- Created with Inkscape (http://www.inkscape.org/) -->

<svg
   xmlns:svg="http://www.w3.org/2000/svg"
   xmlns="http://www.w3.org/2000/svg"
   version="1.1"
   width="386"
   height="500"
   id="svg2">
  <defs
     id="defs4" />
  <path
     d="m 188.79807,484.85577 c 0,0 180.55892,-85.24592 180.72115,-115.09615 l 1.00961,-185.76922 c -26.92978,-35.73708 -14.78827,-65.60745 7.06731,-99.951922 L 357.40383,56.778864 C 328.02365,58.60417 308.39631,43.423683 285.72115,22.451943 228.73439,6.8209583 165.50933,3.5207247 108.53365,18.918289 84.666574,39.580003 57.578833,55.298167 36.403844,55.769249 L 14.192307,82.019248 C 45.404878,114.4166 47.522841,149.23849 14.134615,187.01924 L 12.115384,367.74039 C 11.855701,390.98203 186.77884,484.85577 188.79807,484.85577 z"
     id="path2969"
     style="color:#000000;fill:#0133ff;fill-opacity:1;fill-rule:nonzero;stroke:#ff9933;stroke-width:17;stroke-miterlimit:4;stroke-opacity:1;stroke-dasharray:none;marker:none;visibility:visible;display:inline;overflow:visible;enable-background:accumulate" />
  <path
     d="m 153.6661,364.72432 c 2.8836,-12.85722 0.7913,-30.84541 -16.69309,-22.23115 -11.08823,1.96032 -35.36023,10.81565 -33.03102,-9.16149 -1.05853,-8.62664 6.69565,-20.63972 -2.39648,-28.22937 l 7.78293,-1.19476 -9.59727,-1.24631 c 7.54738,-23.70659 -15.89513,-9.29129 -15.99898,-18.15082 3.07102,-15.92352 13.97104,-28.50741 21.81242,-41.99341 6.72493,-34.72778 33.68326,-64.33078 67.8789,-73.67659 6.19943,-0.93948 16.39641,-2.06783 4.93185,-7.17288 -25.28227,-12.75803 -51.28846,-27.83664 -65.66577,-53.2866 -5.84668,-9.117219 -7.08382,-19.920671 -8.15986,-30.42133 12.5388,19.8188 30.26501,37.15151 53.05932,44.35234 21.45727,8.04232 39.1642,23.01188 57.85761,35.70255 -0.57691,-12.02122 -14.07923,-21.63927 -20.46841,-32.03404 -9.00925,-12.42307 -12.39297,-27.9707 -14.35931,-42.8838 9.90839,6.766522 16.4186,18.29326 23.58097,27.99096 7.28157,13.28918 14.47497,26.76748 24.98388,37.88035 1.95801,1.08793 -1.18146,-8.83508 -1.27826,-12.18569 -2.03113,-18.62858 -14.03729,-36.879308 -6.8015,-55.7148 1.19259,-7.652569 13.76753,-32.577475 15.00846,-12.73331 1.8337,16.813437 8.43869,32.7715 9.53749,49.77483 2.80296,23.58479 3.92819,47.83019 11.99195,70.3464 4.49615,11.36085 22.00392,25.64683 33.34653,37.09552 -3.52756,-1.32506 -12.6205,-3.75659 -11.73078,-1.84423 3.28377,7.05806 14.47672,14.83848 18.986,21.35936 13.09138,14.57934 25.53379,31.03616 30.09442,50.38274 -14.81135,-3.00757 -25.41176,-18.74524 -32.27073,-31.73066 -8.07914,-8.65469 -13.01263,-21.4682 -24.15006,-27.53184 -0.25302,12.66269 4.83135,25.40542 6.81192,38.06343 7.7211,30.44041 7.32651,62.05151 9.01943,93.19299 -7.33849,13.62472 -12.75834,-8.82763 -13.33175,-16.06135 -14.27602,-8.86792 -12.61077,-28.33819 -16.26758,-44.26625 -5.66012,-19.40559 -11.95188,8.43608 -12.09925,15.66219 -4.4376,13.9509 0.42954,34.45957 -10.96314,44.13792 -20.25828,5.22028 -41.14041,8.34079 -60.70701,16.15687 -10.31982,4.04166 -25.31216,11.26238 -20.9244,-6.58377 -0.0103,-3.92224 0.0697,-7.84441 0.21057,-11.764 z"
     id="path2965"
     style="fill:#ff9933;fill-opacity:1" />
</svg>
