<?xml version="1.0" encoding="UTF-8" standalone="no"?>
<!-- Created with Inkscape (http://www.inkscape.org/) -->

<svg
   xmlns:dc="http://purl.org/dc/elements/1.1/"
   xmlns:cc="http://creativecommons.org/ns#"
   xmlns:rdf="http://www.w3.org/1999/02/22-rdf-syntax-ns#"
   xmlns:svg="http://www.w3.org/2000/svg"
   xmlns="http://www.w3.org/2000/svg"
   xmlns:sodipodi="http://sodipodi.sourceforge.net/DTD/sodipodi-0.dtd"
   xmlns:inkscape="http://www.inkscape.org/namespaces/inkscape"
   id="svg2"
   version="1.1"
   inkscape:version="0.47pre4 r22446"
   width="1142.5312"
   height="1175.6904"
   sodipodi:docname="US_99th_Infantry_Division.png">
  <metadata
     id="metadata8">
    <rdf:RDF>
      <cc:Work
         rdf:about="">
        <dc:format>image/svg+xml</dc:format>
        <dc:type
           rdf:resource="http://purl.org/dc/dcmitype/StillImage" />
        <dc:title></dc:title>
      </cc:Work>
    </rdf:RDF>
  </metadata>
  <defs
     id="defs6">
    <inkscape:perspective
       sodipodi:type="inkscape:persp3d"
       inkscape:vp_x="0 : 0.5 : 1"
       inkscape:vp_y="0 : 1000 : 0"
       inkscape:vp_z="1 : 0.5 : 1"
       inkscape:persp3d-origin="0.5 : 0.33333333 : 1"
       id="perspective10" />
    <inkscape:perspective
       id="perspective3616"
       inkscape:persp3d-origin="0.5 : 0.33333333 : 1"
       inkscape:vp_z="1 : 0.5 : 1"
       inkscape:vp_y="0 : 1000 : 0"
       inkscape:vp_x="0 : 0.5 : 1"
       sodipodi:type="inkscape:persp3d" />
    <inkscape:perspective
       id="perspective3616-8"
       inkscape:persp3d-origin="0.5 : 0.33333333 : 1"
       inkscape:vp_z="1 : 0.5 : 1"
       inkscape:vp_y="0 : 1000 : 0"
       inkscape:vp_x="0 : 0.5 : 1"
       sodipodi:type="inkscape:persp3d" />
    <inkscape:perspective
       id="perspective3616-3"
       inkscape:persp3d-origin="0.5 : 0.33333333 : 1"
       inkscape:vp_z="1 : 0.5 : 1"
       inkscape:vp_y="0 : 1000 : 0"
       inkscape:vp_x="0 : 0.5 : 1"
       sodipodi:type="inkscape:persp3d" />
    <inkscape:perspective
       id="perspective3616-2"
       inkscape:persp3d-origin="0.5 : 0.33333333 : 1"
       inkscape:vp_z="1 : 0.5 : 1"
       inkscape:vp_y="0 : 1000 : 0"
       inkscape:vp_x="0 : 0.5 : 1"
       sodipodi:type="inkscape:persp3d" />
    <inkscape:perspective
       id="perspective3616-4"
       inkscape:persp3d-origin="0.5 : 0.33333333 : 1"
       inkscape:vp_z="1 : 0.5 : 1"
       inkscape:vp_y="0 : 1000 : 0"
       inkscape:vp_x="0 : 0.5 : 1"
       sodipodi:type="inkscape:persp3d" />
  </defs>
  <sodipodi:namedview
     pagecolor="#ffffff"
     bordercolor="#666666"
     borderopacity="1"
     objecttolerance="10"
     gridtolerance="10"
     guidetolerance="10"
     inkscape:pageopacity="0"
     inkscape:pageshadow="2"
     inkscape:window-width="1280"
     inkscape:window-height="970"
     id="namedview4"
     showgrid="false"
     inkscape:zoom="0.5"
     inkscape:cx="476.38187"
     inkscape:cy="455.78697"
     inkscape:window-x="0"
     inkscape:window-y="0"
     inkscape:window-maximized="1"
     inkscape:current-layer="svg2" />
  <path
     style="fill:#000000;fill-opacity:1;stroke:none"
     d="M 125.25,64.592999 306.92797,89.82605 584.49153,24.220117 920.0911,99.919267 1003.3602,49.453168 1119.4322,210.9447 1013.4534,314.40021 1008.4068,887.19046 569.3517,1154.6608 117.68008,864.48071 115.15678,306.83029 36.934322,218.51461 125.25,64.592999 z"
     id="path3596" />
  <path
     style="fill:#ffffff;fill-opacity:1;stroke:none"
     d="m 146.06727,353.82685 854.76963,0 0,420.44571 -862.33955,0 7.56992,-420.44571 z"
     id="path3598" />
  <rect
     style="fill:#0031ff;fill-opacity:1;stroke:none"
     id="rect3600"
     width="142.54648"
     height="140.00365"
     x="148.82713"
     y="493.9335" />
  <rect
     style="fill:#0031ff;fill-opacity:1;stroke:none"
     id="rect3602"
     width="139.99617"
     height="140.42525"
     x="291.3779"
     y="353.51144" />
  <rect
     style="fill:#0031ff;fill-opacity:1;stroke:none"
     id="rect3604"
     width="139.99529"
     height="139.99565"
     x="291.37418"
     y="633.94177" />
  <rect
     style="fill:#0031ff;fill-opacity:1;stroke:none"
     id="rect3606"
     width="140.00293"
     height="139.99901"
     x="431.37482"
     y="493.94205" />
  <rect
     style="fill:#0031ff;fill-opacity:1;stroke:none"
     id="rect3606-4"
     width="139.88573"
     height="139.96458"
     x="571.40192"
     y="633.9137" />
  <rect
     style="fill:#0031ff;fill-opacity:1;stroke:none"
     id="rect3606-8"
     width="139.98152"
     height="140.00006"
     x="571.38495"
     y="353.93344" />
  <rect
     style="fill:#0031ff;fill-opacity:1;stroke:none"
     id="rect3606-5"
     width="139.9287"
     height="139.99973"
     x="711.44531"
     y="493.93741" />
  <rect
     style="fill:#0031ff;fill-opacity:1;stroke:none"
     id="rect3606-47"
     width="149.06323"
     height="139.87328"
     x="851.37939"
     y="354.06342" />
  <rect
     style="fill:#0031ff;fill-opacity:1;stroke:none"
     id="rect3606-7"
     width="143.46855"
     height="139.93651"
     x="851.37543"
     y="633.94177" />
  <path
     style="fill:#075104;fill-opacity:1;stroke:none"
     d="M 571.03125,0.00295694 C 508.24326,-0.34237696 386.07711,29.640167 331.6875,48.002957 232.49848,81.622488 196.20748,46.089467 131.8125,1.1904569 L 0,227.84671 c 30.22991,17.2625 89.36863,57.71212 89.4375,93.375 l 0,494.0625 c 2.99642,63.7431 51.33355,132.35317 111.03125,162.90625 l 371.25,197.50004 L 949,974.65921 c 57.1601,-33.93301 101.2975,-96.09542 103.9375,-159.5625 l 0.4687,-495.4375 c 4.9084,-41.23086 59.2019,-72.74615 89.125,-91.59375 L 1010.8438,1.0029569 C 957.99744,36.391552 917.33833,83.836326 813.4375,48.971707 735.35309,26.095958 638.7656,-0.20125806 571.03125,0.00295694 z M 575.625,62.002957 c 51.58419,-0.220615 99.81262,14.032415 149.21875,23.25 52.40138,12.42974 99.56389,33.927183 152.8125,38.093753 43.4111,-3.15718 86.50546,-8.71983 114.28125,-33.437503 l 73.7187,124.593753 c -44.9332,26.80897 -76.2234,90.88249 -74.1874,139.40625 l 0.062,419.96875 c 1.379,84.38138 -54.47981,138.76499 -94.7812,166.84375 L 571.25,1114.2843 228.3125,927.81546 C 190.88827,897.37703 154.87093,846.53059 151.5,787.19046 L 151.34375,353.90921 C 151.80637,298.34613 121.27894,242.45035 77.0625,214.22171 L 150.75,89.752957 c 11.83082,10.707213 39.51688,29.414133 114.53125,33.500003 55.28579,-3.01931 100.16181,-27.953373 152.125,-37.906253 50.71965,-8.495775 96.76441,-23.988921 153.21875,-23.28125 1.67111,-0.03789 3.33599,-0.05538 5,-0.0625 z"
     id="path2818" />
</svg>
