<?xml version="1.0" encoding="utf-8"?>
<!-- Generator: Adobe Illustrator 16.0.0, SVG Export Plug-In . SVG Version: 6.00 Build 0)  -->
<!DOCTYPE svg PUBLIC "-//W3C//DTD SVG 1.1//EN" "http://www.w3.org/Graphics/SVG/1.1/DTD/svg11.dtd">
<svg version="1.1" id="Layer_1" xmlns="http://www.w3.org/2000/svg" xmlns:xlink="http://www.w3.org/1999/xlink" x="0px" y="0px"
	 width="353px" height="358px" viewBox="0 0 353 358" enable-background="new 0 0 353 358" xml:space="preserve">
<g>
	
		<rect x="57.278" y="60" transform="matrix(-0.7071 0.7071 -0.7071 -0.7071 425.0834 179.9243)" fill="#FFEA27" width="236.001" height="236"/>
	<path fill="#D8A013" d="M175.278,14.657L338.62,178L175.278,341.343L11.937,178L175.278,14.657 M175.278,7.587l-3.536,3.535
		L8.401,174.464L4.865,178l3.536,3.535l163.341,163.344l3.536,3.535l3.536-3.535l163.341-163.344l3.536-3.535l-3.536-3.536
		L178.814,11.122L175.278,7.587L175.278,7.587z"/>
</g>
<g>
	<g>
		<path fill="#B41F30" d="M147.818,213.709v-3.982c7.775-0.586,8.66-2.342,8.66-10.656v-42.512c0-6.09-0.393-6.91-4.428-7.262
			l-5.02-0.467v-3.396c6.495-1.172,13.778-3.279,22.439-6.09v59.727c0,8.08,0.688,10.07,8.562,10.656v3.982H147.818z"/>
		<path fill="#B41F30" d="M228.325,194.619c-1.576,6.793-2.756,14.172-3.84,19.09H185.02v-3.045
			c5.217-6.09,10.926-12.531,15.748-19.324c6.888-9.719,10.825-18.502,10.825-27.404c0-8.08-3.543-13.936-10.333-13.936
			c-5.906,0-9.941,4.918-13.189,10.424l-2.854-2.811l6.299-11.01c3.74-4.332,8.66-7.26,14.86-7.26
			c9.744,0,17.912,7.846,17.912,20.846c0,9.252-4.035,16.512-13.777,27.521l-11.812,13.35h16.044c5.904,0,6.691-0.234,10.334-7.846
			L228.325,194.619z"/>
	</g>
	<g>
		<g>
			<path fill="#3C3A70" d="M224.815,169.504c1-3.006,1.473-6.026,1.473-9.314c0-13.238-8.374-22.846-19.912-22.846
				c-6.221,0-11.884,2.75-16.375,7.953l-0.126,0.146l-7.16,12.514l5.777,5.688l1.301-2.205c3.852-6.527,7.389-9.439,11.467-9.439
				c7.731,0,8.333,9.137,8.333,11.936c0,1.835-0.18,3.67-0.548,5.568h-37.574v-32.912l-2.617,0.85
				c-9.846,3.194-16.479,4.996-22.178,6.023l-1.645,0.297v6.891l6.834,0.637c1.346,0.117,2.059,0.284,2.195,0.512
				c0.418,0.701,0.418,3.24,0.418,4.758v12.945h-41.7v-15.666h-8.667v15.666h-29.18L175.279,69.157l100.347,100.347H224.815z"/>
			<path d="M175.279,71.985l95.519,95.519h-43.335c0.558-2.355,0.825-4.76,0.825-7.314c0-14.396-9.215-24.846-21.912-24.846
				c-6.819,0-13.006,2.99-17.889,8.646l-0.253,0.292l-0.191,0.335l-6.299,11.01l-1.53,2.674l2.196,2.162l2.854,2.811l3.649,3.594
				l2.602-4.411c3.451-5.848,6.455-8.456,9.744-8.456c5.716,0,6.333,6.949,6.333,9.936c0,1.182-0.08,2.364-0.244,3.568h-33.878
				v-28.16v-5.504l-5.235,1.699c-9.755,3.165-16.309,4.947-21.914,5.957l-3.29,0.594v3.344v3.396v3.645l3.629,0.338l5.043,0.47
				c0.277,0.024,0.5,0.048,0.68,0.071c0.096,0.984,0.096,2.582,0.096,3.205v10.945h-37.7v-11.666v-4h-4h-4.667h-4v4v11.666H79.76
				L175.279,71.985 M175.279,66.328L70.104,171.504h36.009v-15.666h4.667v15.666h45.7v-14.945c0-6.09-0.393-6.91-4.428-7.262
				l-5.02-0.467v-3.396c6.495-1.172,13.778-3.279,22.439-6.09v32.16h41.185c0.611-2.529,0.938-5.043,0.938-7.568
				c0-8.08-3.543-13.936-10.333-13.936c-5.906,0-9.941,4.918-13.189,10.424l-2.854-2.811l6.299-11.01
				c3.74-4.332,8.66-7.26,14.86-7.26c9.744,0,17.912,7.846,17.912,20.846c0,3.988-0.754,7.607-2.389,11.314h58.555L175.279,66.328
				L175.279,66.328z"/>
		</g>
		<g>
			<path fill="#3C3A70" d="M72.941,184.504h31.171v15.666h8.667v-15.666h41.7v14.566c0,7.615-0.445,8.183-6.811,8.662l-1.85,0.14
				v7.837h34.215v-7.839l-1.852-0.138c-6.494-0.482-6.711-1.307-6.711-8.662v-14.566h31.401c-1.095,1.818-2.331,3.697-3.737,5.68
				c-4.099,5.775-8.848,11.291-13.439,16.625l-2.676,3.115v5.785h43.073l0.346-1.57c0.463-2.1,0.944-4.65,1.454-7.351
				c0.692-3.667,1.478-7.823,2.381-11.716l0.377-1.625l-6.546-2.834l-0.832,1.736c-3.211,6.711-3.311,6.711-8.529,6.711H203.14
				l8.869-10.025c1.399-1.582,2.664-3.072,3.846-4.531h61.762L175.279,286.842L72.941,184.504z"/>
			<path d="M272.788,186.504l-97.509,97.51l-97.51-97.51h24.343v11.666v4h4h4.667h4v-4v-11.666h37.7v12.566
				c0,3.335-0.197,5.283-0.585,5.788c-0.046,0.06-0.56,0.593-4.376,0.88l-3.699,0.279v3.709v3.982v4h4h30.215h2.986h4h39.466h3.215
				l0.691-3.14c0.469-2.13,0.953-4.694,1.467-7.409c0.688-3.648,1.469-7.783,2.363-11.637l0.754-3.249l-3.061-1.325l-3.248-1.406
				l-3.535-1.531l-1.663,3.475c-0.725,1.516-2.233,4.668-3.062,5.27c-0.42,0.305-2.295,0.305-3.664,0.305h-7.164l5.928-6.7
				c1.184-1.338,2.271-2.611,3.297-3.856H272.788 M199.236,186.504c-0.545,0.822-1.121,1.662-1.73,2.521
				c-4.047,5.699-8.764,11.179-13.325,16.479c-0.723,0.839-1.44,1.672-2.147,2.498v-1.988l-3.703-0.275
				c-3.817-0.284-4.285-0.866-4.303-0.891c-0.557-0.762-0.557-4.406-0.557-5.777v-12.566H199.236 M282.444,182.504h-67.549
				c-1.314,1.652-2.764,3.373-4.385,5.205l-11.812,13.352h16.044c5.904,0,6.691-0.234,10.334-7.848l3.248,1.406
				c-1.576,6.793-2.756,14.17-3.84,19.09H185.02v-3.045c5.217-6.09,10.926-12.531,15.748-19.324
				c2.144-3.025,4.001-5.959,5.544-8.836h-36.841v16.566c0,8.08,0.688,10.07,8.562,10.656v3.982h-30.215v-3.982
				c7.775-0.586,8.66-2.342,8.66-10.656v-16.566h-45.7v15.666h-4.667v-15.666h-38l107.167,107.167L282.444,182.504L282.444,182.504z
				"/>
		</g>
	</g>
</g>
<g>
	<g>
		<polygon fill="#FFFFFF" points="164.693,113.804 154.107,103.486 168.736,101.361 175.278,88.105 181.822,101.361 
			196.449,103.486 185.865,113.804 188.36,128.373 175.278,121.494 162.194,128.373 		"/>
		<path d="M175.278,90.365l5.88,11.91l13.143,1.909l-9.51,9.271l2.242,13.09l-11.755-6.181l-11.756,6.181l2.245-13.09l-9.511-9.271
			l13.144-1.909L175.278,90.365 M175.278,85.846l-1.794,3.634l-5.412,10.968l-12.104,1.758l-4.01,0.583l2.902,2.829l8.758,8.535
			l-2.068,12.055l-0.685,3.994l3.587-1.886l10.825-5.691l10.823,5.691l3.586,1.886l-0.684-3.993l-2.064-12.056l8.757-8.535
			l2.901-2.829l-4.01-0.583l-12.102-1.758l-5.414-10.968L175.278,85.846L175.278,85.846z"/>
	</g>
	<g>
		<polygon fill="#FFFFFF" points="164.693,252.893 154.107,242.576 168.736,240.451 175.278,227.196 181.822,240.451 
			196.449,242.576 185.865,252.893 188.36,267.463 175.278,260.583 162.194,267.463 		"/>
		<path d="M175.278,229.455l5.88,11.91l13.143,1.91l-9.51,9.269l2.242,13.091l-11.755-6.182l-11.756,6.182l2.245-13.091
			l-9.511-9.269l13.144-1.91L175.278,229.455 M175.278,224.938l-1.794,3.633l-5.412,10.967l-12.104,1.759l-4.01,0.583l2.902,2.828
			l8.758,8.535l-2.068,12.055l-0.685,3.994l3.587-1.887l10.825-5.691l10.823,5.691l3.586,1.887l-0.684-3.994l-2.064-12.055
			l8.757-8.535l2.901-2.828l-4.01-0.583l-12.102-1.759l-5.414-10.967L175.278,224.938L175.278,224.938z"/>
	</g>
</g>
</svg>
